<svg xmlns="http://www.w3.org/2000/svg" width="88" height="88" viewBox="0 0 88 88">
  <g id="Grupo_1013412" data-name="Grupo 1013412" transform="translate(-224 -409)">
    <path id="Trazado_710239" data-name="Trazado 710239" d="M44,0A44,44,0,1,1,0,44,44,44,0,0,1,44,0Z" transform="translate(224 409)" fill="#d2e1f1"/>
    <g id="Grupo_1022866" data-name="Grupo 1022866" transform="translate(238 383.84)">
      <g id="Grupo_1022865" data-name="Grupo 1022865" transform="translate(0.87 44.635)">
        <path id="Trazado_723228" data-name="Trazado 723228" d="M81.034,347.157l-2.28,2.281H28.74V336.87H78.986l2.048,1.581a5.649,5.649,0,0,0,0,8.706Z" transform="translate(-26.276 -303.573)" fill="#ecf4ff"/>
        <path id="Trazado_723229" data-name="Trazado 723229" d="M324.778,337.848v5.868a.98.98,0,0,1-1.431.87l-3.353-1.737a.98.98,0,0,0-.9,0l-3.352,1.736a.98.98,0,0,1-1.431-.87v-5.868a.98.98,0,0,1,.98-.98H323.8a.98.98,0,0,1,.98.98Z" transform="translate(-278.715 -303.571)" fill="#bac0c9"/>
        <path id="Trazado_723230" data-name="Trazado 723230" d="M81.035,338.45a5.616,5.616,0,0,0-1.975,3.441H28.741v-5.022H78.987Z" transform="translate(-26.277 -303.572)" fill="#bac0c9"/>
        <path id="Trazado_723231" data-name="Trazado 723231" d="M11.562,323.8a4.359,4.359,0,0,0,4.353,4.46H63.13a2.03,2.03,0,0,1,0,4.061H15.915A8.415,8.415,0,0,1,7.5,323.876a8.5,8.5,0,0,1,8.54-8.387H63.13a2.03,2.03,0,0,1,0,4.061H16a4.408,4.408,0,0,0-4.435,4.248Z" transform="translate(-7.501 -284.672)" fill="#b7e4fc"/>
        <path id="Trazado_723232" data-name="Trazado 723232" d="M10.74,323.874a8.5,8.5,0,0,1,8.54-8.387H16.039a8.5,8.5,0,0,0-8.54,8.387,8.415,8.415,0,0,0,8.415,8.442h3.241a8.415,8.415,0,0,1-8.414-8.442Z" transform="translate(-7.5 -284.67)" fill="#97ccfa"/>
        <g id="Grupo_1022863" data-name="Grupo 1022863" transform="translate(2.982 15.5)">
          <path id="Trazado_723233" data-name="Trazado 723233" d="M55.964,212.287l2.075,2.076h45.52V202.924H57.828l-1.864,1.439a5.141,5.141,0,0,1,0,7.923Z" transform="translate(-53.323 -200.666)" fill="#ecf4ff"/>
          <path id="Trazado_723234" data-name="Trazado 723234" d="M55.964,204.363a5.111,5.111,0,0,1,1.8,3.132h45.8v-4.571H57.828Z" transform="translate(-53.323 -200.666)" fill="#bac0c9"/>
          <path id="Trazado_723235" data-name="Trazado 723235" d="M81.983,191.027a3.967,3.967,0,0,1-3.962,4.059H35.05a1.848,1.848,0,1,0,0,3.7H78.022A7.659,7.659,0,0,0,85.68,191.1a7.732,7.732,0,0,0-7.772-7.633H35.05a1.848,1.848,0,1,0,0,3.7h42.9a4.012,4.012,0,0,1,4.036,3.866Z" transform="translate(-33.202 -183.464)" fill="#ffa031"/>
          <g id="Grupo_1022862" data-name="Grupo 1022862">
            <path id="Trazado_723236" data-name="Trazado 723236" d="M37.071,285.478a1.846,1.846,0,0,0,1.848,1.848h-3.87a1.848,1.848,0,1,1,0-3.7h3.87A1.848,1.848,0,0,0,37.071,285.478Z" transform="translate(-33.201 -272.009)" fill="#f1ce73"/>
            <path id="Trazado_723237" data-name="Trazado 723237" d="M37.071,185.308a1.848,1.848,0,0,0,1.848,1.848h-3.87a1.848,1.848,0,1,1,0-3.7h3.87a1.848,1.848,0,0,0-1.848,1.848Z" transform="translate(-33.201 -183.46)" fill="#f1ce73"/>
          </g>
        </g>
        <g id="Grupo_1022864" data-name="Grupo 1022864" transform="translate(5.894 0)">
          <path id="Trazado_723238" data-name="Trazado 723238" d="M114.7,78.687l-2.075,2.076H77.638V69.324h35.2l1.864,1.439a5.141,5.141,0,0,0,0,7.923Z" transform="translate(-75.395 -67.066)" fill="#ecf4ff"/>
          <path id="Trazado_723239" data-name="Trazado 723239" d="M114.7,70.763a5.111,5.111,0,0,0-1.8,3.132H77.638V69.324h35.2Z" transform="translate(-75.395 -67.066)" fill="#bac0c9"/>
          <path id="Trazado_723240" data-name="Trazado 723240" d="M62,57.428a3.967,3.967,0,0,0,3.962,4.059H98.408a1.848,1.848,0,1,1,0,3.7H65.964A7.659,7.659,0,0,1,58.306,57.5a7.732,7.732,0,0,1,7.772-7.633H98.407a1.848,1.848,0,1,1,0,3.7H66.038A4.011,4.011,0,0,0,62,57.428Z" transform="translate(-58.306 -49.865)" fill="#008b8a"/>
          <path id="Trazado_723241" data-name="Trazado 723241" d="M63.327,62.935a7.634,7.634,0,0,0,5.416,2.244H65.965a7.659,7.659,0,0,1-7.658-7.684,7.732,7.732,0,0,1,7.772-7.634h2.777a7.733,7.733,0,0,0-7.772,7.634A7.632,7.632,0,0,0,63.327,62.935Z" transform="translate(-58.307 -49.861)" fill="#008b8a"/>
        </g>
        <path id="Trazado_723242" data-name="Trazado 723242" d="M339.768,259.38v14.636l-5.235-2.711-5.233,2.711V259.38Z" transform="translate(-291.966 -235.073)" fill="#3076b6"/>
      </g>
      <path id="Trazado_723244" data-name="Trazado 723244" d="M56.5,87.35h-.54a4.777,4.777,0,0,1,0-6.968h.54a2.9,2.9,0,1,0,0-5.8H53.833a8.652,8.652,0,0,0,.869-.758,8.469,8.469,0,0,0,2.5-6.058,8.591,8.591,0,0,0-7.813-8.46,2.721,2.721,0,0,0-2.52-3.736h-.461a4.268,4.268,0,0,1,0-6.185h.46a2.718,2.718,0,0,0,0-5.435H14.536a8.6,8.6,0,0,0-8.642,8.5,8.469,8.469,0,0,0,2.5,6.058,8.652,8.652,0,0,0,.869.758H5.7a2.718,2.718,0,1,0,0,5.435h.46a4.268,4.268,0,0,1,0,6.186H5.7A2.719,2.719,0,0,0,4.419,76,9.262,9.262,0,0,0,9.284,93.151H56.5a2.9,2.9,0,0,0,0-5.8Zm1.16-9.868a1.162,1.162,0,0,1-1.16,1.16H49.541v-2.32H56.5A1.161,1.161,0,0,1,57.659,77.482ZM9.623,57.276a6.74,6.74,0,0,1-1.988-4.822,6.857,6.857,0,0,1,6.9-6.765h32.33a.977.977,0,1,1,0,1.955H19.054a.87.87,0,0,0,0,1.74H44.2a6.016,6.016,0,0,0,0,6.185H14.423A3.1,3.1,0,0,1,11.331,52.4,3.15,3.15,0,0,1,14.5,49.384h1.077a.87.87,0,0,0,0-1.74H14.5a4.9,4.9,0,0,0-4.906,4.715,4.837,4.837,0,0,0,4.832,4.95H46.866a.978.978,0,0,1,0,1.956H14.423a6.744,6.744,0,0,1-4.8-1.989Zm-4.615,5.4A.977.977,0,0,1,5.7,61.006H48.557a6.859,6.859,0,0,1,6.9,6.765,6.787,6.787,0,0,1-5.918,6.754V72.548A4.84,4.84,0,0,0,53.5,67.675a4.9,4.9,0,0,0-4.9-4.715H5.7a.972.972,0,0,1-.692-.287ZM8.37,64.7H48.6a3.148,3.148,0,0,1,3.165,3.016,3.1,3.1,0,0,1-2.221,3.045v-1.82a.87.87,0,0,0-.87-.87H31.461a.87.87,0,1,0,0,1.74h5.873v1.074H8.37a6.016,6.016,0,0,0,0-6.186Zm30.7,5.112H47.8V82.148L43.838,80.1a.87.87,0,0,0-.8,0l-3.963,2.053V69.812ZM5.7,72.627H37.334v1.955H5.7a.977.977,0,1,1,0-1.955ZM57.319,91.071a1.152,1.152,0,0,1-.82.34H9.284a7.545,7.545,0,0,1-7.545-7.57,7.621,7.621,0,0,1,7.67-7.519H37.334v2.32H9.366a5.3,5.3,0,0,0-5.3,5.1,5.23,5.23,0,0,0,5.223,5.352H41a.87.87,0,0,0,0-1.74H9.284A3.49,3.49,0,0,1,5.8,83.78a3.547,3.547,0,0,1,3.564-3.4H37.334v3.2a.87.87,0,0,0,1.27.773l4.833-2.5,4.834,2.5a.87.87,0,0,0,1.27-.773v-3.2h4.178a6.518,6.518,0,0,0,0,6.968H44.481a.87.87,0,0,0,0,1.74H56.5a1.159,1.159,0,0,1,.82,1.98Z" transform="translate(0)"/>
    </g>
  </g>
</svg>
