<svg xmlns="http://www.w3.org/2000/svg" width="606.035" height="376.591" viewBox="0 0 606.035 376.591">
  <g id="Group_10" data-name="Group 10" transform="translate(-0.992 -0.992)">
    <path id="Trazado_717027" data-name="Trazado 717027" d="M190.181,604.233l8.963,4.934a2.591,2.591,0,0,1,1.234,2.853c-.231.893-1,1.583-2.994,1.621-4.43.092-24.041-3.176-24.041-3.176v2.522l-9.165.018s-.571-13,2.2-14.69l23.8,5.928Z" transform="translate(-65.154 -238.561)" fill="#1c466d"/>
    <path id="Trazado_717028" data-name="Trazado 717028" d="M179.661,593.943l12,8.045s-1.548,4.428-8.392,1.473-15.41-7.4-15.41-7.4l1.252-3.369Z" transform="translate(-66.645 -236.315)" fill="#3076b6"/>
    <path id="Trazado_717029" data-name="Trazado 717029" d="M169.119,567.884l-1.243-37.306,11.9.782V573Z" transform="translate(-66.651 -211.508)" fill="#3076b6"/>
    <path id="Trazado_717030" data-name="Trazado 717030" d="M30.93,604.233l-8.963,4.934a2.589,2.589,0,0,0-1.234,2.853c.23.893.995,1.583,2.994,1.621,4.431.092,24.042-3.176,24.042-3.176V613.1l9.036-.11s.7-12.969-2.073-14.672l-23.8,5.928Z" transform="translate(-7.853 -238.561)" fill="#1c466d"/>
    <path id="Trazado_717031" data-name="Trazado 717031" d="M49.773,593.943l-12.012,8.045s1.547,4.428,8.392,1.473,15.411-7.4,15.411-7.4l-1.253-3.369-10.547,1.252Z" transform="translate(-14.685 -236.315)" fill="#3076b6"/>
    <path id="Trazado_717032" data-name="Trazado 717032" d="M67.548,567.884l9.4-37.306-11.9.782-9.184,42.5Z" transform="translate(-21.913 -211.508)" fill="#3076b6"/>
    <path id="Trazado_717033" data-name="Trazado 717033" d="M129.706,249.5s16.248,23.269,15.815,48.7-5.757,146.113-5.757,146.113H120.421L114.3,286.623l-2.551-.156L76.8,444.371l-18.054-1.914,20.983-142.79a116.056,116.056,0,0,1,7.47-26.739c3.058-7.327,7.249-15.666,12.481-22.128l30.038-1.316Z" transform="translate(-23.064 -99.243)" fill="#4db1f0"/>
    <path id="Trazado_717034" data-name="Trazado 717034" d="M137.387,311.88l12.371-2.154" transform="translate(-54.474 -123.304)" fill="none" stroke="#000" stroke-linecap="round" stroke-linejoin="round" stroke-width="0.91"/>
    <path id="Trazado_717035" data-name="Trazado 717035" d="M117.075,275l-5.959,17.157" transform="translate(-43.982 -109.434)" fill="none" stroke="#006f6e" stroke-linecap="round" stroke-linejoin="round" stroke-width="0.95"/>
    <path id="Trazado_717036" data-name="Trazado 717036" d="M89.946,80.669s-1.354,13.549-16.737,24.447c-16.405,11.626-4.182,43.8,25.939,42.3,32.719-1.629,46.3-43.63,24.954-75.533l-34.146,8.79Z" transform="translate(-25.917 -28.311)" fill="#2e6a90"/>
    <path id="Trazado_717037" data-name="Trazado 717037" d="M125.014,153.051l-19.832,5.568c-5.72,1.611-10.308,7.677-8.576,13.356l17.852,40.372,30.213-1.372,10.621-43.74c.912-5.946-5.26-11.34-11.238-12.021L125,153.041Z" transform="translate(-38.039 -60.726)" fill="#3d8dc0"/>
    <path id="Trazado_717038" data-name="Trazado 717038" d="M111.146,158.625l19.832-5.568,19.049,2.172-.4.332a33.341,33.341,0,0,1-38.485,3.075Z" transform="translate(-43.994 -60.732)" fill="#e0a78f"/>
    <path id="Trazado_717039" data-name="Trazado 717039" d="M203.274,237.363,180.7,257.383l3.951,6.812,26.069-15.878a10.467,10.467,0,0,0,4.264-12.638c-.092-.23-.193-.451-.3-.681l-3.021-6.3-8.382,8.653Z" transform="translate(-71.771 -90.944)" fill="#e0a78f"/>
    <path id="Trazado_717040" data-name="Trazado 717040" d="M193.722,169.01,212.5,201.116a4.291,4.291,0,0,1-2.644,5.67l-9.055,3a3.726,3.726,0,0,1-3.9-.975c-3.335-3.544-17.971-14.7-17.51-28.332l-5.2-9.315,1-14.507c9.709,1.169,16.719,7.934,18.515,12.352Z" transform="translate(-69.174 -62.171)" fill="#3d8dc0"/>
    <path id="Trazado_717041" data-name="Trazado 717041" d="M186.264,203.144l4.2-13.8" transform="translate(-73.995 -75.226)" fill="none" stroke="#000" stroke-linecap="round" stroke-linejoin="round" stroke-width="0.87"/>
    <path id="Trazado_717042" data-name="Trazado 717042" d="M188.241,277.431c-.5.441-3.445,13.549-3.445,13.549l-4.1-14.525Z" transform="translate(-71.771 -110.016)" fill="#e0a78f"/>
    <path id="Trazado_717043" data-name="Trazado 717043" d="M179.838,273.651l5.14,18.05" transform="translate(-71.428 -108.896)" fill="none" stroke="#006f6e" stroke-linecap="round" stroke-linejoin="round" stroke-width="0.95"/>
    <path id="Trazado_717044" data-name="Trazado 717044" d="M75.552,175.448,60.574,209.487a4.3,4.3,0,0,0,3.27,5.329l7.065,1.592c1.428.295,2.3,3.682,3.178,2.513,2.9-3.9,19.031-20.241,17-33.725l4.1-9.849-4.311-13.034c-9.506,2.273-14.047,8.533-15.337,13.126Z" transform="translate(-23.736 -64.429)" fill="#3d8dc0"/>
    <path id="Trazado_717045" data-name="Trazado 717045" d="M106.113,207.907l-5.748-13.227" transform="translate(-39.688 -77.356)" fill="none" stroke="#000" stroke-linecap="round" stroke-linejoin="round" stroke-width="0.87"/>
    <path id="Trazado_717046" data-name="Trazado 717046" d="M23.021,180.029l-7.037,2.881,28.352,40.528a7.833,7.833,0,1,0,13.283-8.183Z" transform="translate(-5.987 -71.505)" fill="#e0a78f"/>
    <path id="Trazado_717047" data-name="Trazado 717047" d="M22.482,174l1.428-2.126a7.8,7.8,0,0,0,1.271-5.311l-.636-5.2s-.286-2.753-5.49-.921-5.508,1.933-5.1,3.507c0,0,1.455,1.988,5,1.694l3.537,8.367Z" transform="translate(-5.126 -63.429)" fill="#e0a78f"/>
    <path id="Trazado_717048" data-name="Trazado 717048" d="M11.755,175.567s-5.914-1.786-8.161-10.972a3.194,3.194,0,0,1,.811-2.964c1.179-1.2,4.633-4.317,7.065-3.323l4.744,3.976,2.137,11.027-6.6,2.246Z" transform="translate(-1.004 -62.753)" fill="#e0a78f"/>
    <path id="Trazado_717049" data-name="Trazado 717049" d="M15.633,150.671l-.276-15.519a1.69,1.69,0,0,0-3.381,0l-.166,11.819-1.2.506-6.78-10.457a1.531,1.531,0,0,0-2.183-.414H1.642a1.539,1.539,0,0,0-.479,1.96l7.655,14.856Z" transform="translate(0 -52.916)" fill="#e0a78f"/>
    <path id="Trazado_717050" data-name="Trazado 717050" d="M20.795,160.06s-7.406.875-6.8,3.986c0,0,.341,2.347,5,1.694a4.4,4.4,0,0,0-2.109,4.639" transform="translate(-5.18 -63.529)" fill="none" stroke="#b9635e" stroke-linecap="round" stroke-linejoin="round" stroke-width="0.64"/>
    <path id="Trazado_717051" data-name="Trazado 717051" d="M115.4,108.436a5.446,5.446,0,1,1-6.024-4.8A5.443,5.443,0,0,1,115.4,108.436Z" transform="translate(-41.355 -40.982)" fill="#e0a78f"/>
    <path id="Trazado_717052" data-name="Trazado 717052" d="M108.37,111.7s2.073-1.234,4.44,2.338" transform="translate(-42.885 -44.131)" fill="none" stroke="#b9635e" stroke-linecap="round" stroke-linejoin="round" stroke-width="0.66"/>
    <path id="Trazado_717053" data-name="Trazado 717053" d="M155.64,105.2a5.449,5.449,0,1,0,4.974-5.882A5.449,5.449,0,0,0,155.64,105.2Z" transform="translate(-61.757 -39.261)" fill="#e0a78f"/>
    <path id="Trazado_717054" data-name="Trazado 717054" d="M167.064,106.47s-2.275-.8-3.9,3.166" transform="translate(-64.771 -42.1)" fill="none" stroke="#b9635e" stroke-linecap="round" stroke-linejoin="round" stroke-width="0.66"/>
    <path id="Trazado_717055" data-name="Trazado 717055" d="M126.057,94.353c10.316-.871,18.019-9.375,17.206-18.994s-9.836-16.711-20.151-15.84-18.019,9.375-17.206,18.995S115.742,95.225,126.057,94.353Z" transform="translate(-41.877 -23.346)" fill="#2e6a90"/>
    <path id="Trazado_717056" data-name="Trazado 717056" d="M141.9,127.816a13,13,0,0,1-4.264,3.065,5.667,5.667,0,0,1-4.348-.754c-.028-.019-2.662-1.666-2.662-1.666l.506,17.94.3.276c3.97,3.6,9.212,3.213,12.555-.929l.488-.608Z" transform="translate(-51.773 -50.652)" fill="#e0a78f"/>
    <path id="Trazado_717057" data-name="Trazado 717057" d="M127.48,124.754s3.9,10.18,9.257,9.629c4.412-.461,4.818-10.291,4.818-10.291Z" transform="translate(-50.517 -49.164)" fill="#1e0b02"/>
    <path id="Trazado_717058" data-name="Trazado 717058" d="M142.312,82.051a62.3,62.3,0,0,1-.452,14.682c-.544,3.6-2.726,6.268-5.96,8.551l-.589.414a12.344,12.344,0,0,1-11.91,1.187c-3.869-1.7-6.7-4.16-7.83-7.86a90.724,90.724,0,0,1-2.9-14.323s-2.579-15.767,13.43-16.909,16.2,14.258,16.2,14.258Z" transform="translate(-44.541 -26.655)" fill="#e0a78f"/>
    <path id="Trazado_717059" data-name="Trazado 717059" d="M136.451,107.342l.193,2.292,1.566-.129" transform="translate(-54.1 -42.475)" fill="none" stroke="#b9635e" stroke-linecap="round" stroke-linejoin="round" stroke-width="0.66"/>
    <path id="Trazado_717060" data-name="Trazado 717060" d="M117.2,93.1l8.392-1.473s-.94-2.126-4.329-1.482C117.8,90.805,117.2,93.1,117.2,93.1Z" transform="translate(-46.413 -35.557)"/>
    <path id="Trazado_717061" data-name="Trazado 717061" d="M150.232,90.39l-8.52-.046s.571-2.255,4.016-2.191c3.527.064,4.5,2.237,4.5,2.237Z" transform="translate(-56.201 -34.811)"/>
    <path id="Trazado_717062" data-name="Trazado 717062" d="M127.136,101.982a1.3,1.3,0,1,1-1.4-1.187A1.287,1.287,0,0,1,127.136,101.982Z" transform="translate(-49.344 -39.858)" fill="#1e0b02"/>
    <path id="Trazado_717063" data-name="Trazado 717063" d="M148.27,100.189a1.3,1.3,0,1,1-1.4-1.188A1.288,1.288,0,0,1,148.27,100.189Z" transform="translate(-57.785 -39.141)" fill="#1e0b02"/>
    <path id="Trazado_717064" data-name="Trazado 717064" d="M130.639,116.608s3.758,1.657,9.386-.792" transform="translate(-51.779 -45.859)" fill="none" stroke="#000" stroke-linecap="round" stroke-linejoin="round" stroke-width="0.66"/>
    <path id="Trazado_717065" data-name="Trazado 717065" d="M145.908,77.236S122.447,80.1,122.281,66.228C122.281,66.228,142.3,58.689,145.908,77.236Z" transform="translate(-48.441 -25.449)" fill="#2e6a90"/>
    <path id="Trazado_717066" data-name="Trazado 717066" d="M111.613,81.4s7.977-4.151,7.258-12.619C118.872,68.783,110.48,70.477,111.613,81.4Z" transform="translate(-44.138 -27.075)" fill="#2e6a90"/>
    <path id="Trazado_717067" data-name="Trazado 717067" d="M273.131,556.415l-1.787,24.558-10.6.359-.709-30.265Z" transform="translate(-103.457 -219.691)" fill="#e8b499"/>
    <path id="Trazado_717068" data-name="Trazado 717068" d="M253.126,594.557s-7.406,4.648-11.311-2.495L213.2,607.241l44.583-.276-4.643-12.417Z" transform="translate(-84.751 -236.064)" fill="#2e6a90"/>
    <path id="Trazado_717069" data-name="Trazado 717069" d="M257.767,616.876l-44.582.272.023,3.894,44.582-.272Z" transform="translate(-84.747 -245.974)" fill="#fff"/>
    <path id="Trazado_717070" data-name="Trazado 717070" d="M252.437,601.148a.719.719,0,0,1-.313-.24,15.4,15.4,0,0,0-3.491-3.4.689.689,0,0,1-.2-.984.78.78,0,0,1,1.032-.2,16.427,16.427,0,0,1,3.869,3.747.694.694,0,0,1-.166.994.757.757,0,0,1-.737.073Z" transform="translate(-98.772 -237.722)" fill="#fff"/>
    <path id="Trazado_717071" data-name="Trazado 717071" d="M246.379,604.181a.714.714,0,0,1-.313-.239,15.367,15.367,0,0,0-3.491-3.4.691.691,0,0,1-.2-.985.78.78,0,0,1,1.032-.2,16.4,16.4,0,0,1,3.869,3.746.693.693,0,0,1-.166.994.756.756,0,0,1-.737.074Z" transform="translate(-96.353 -238.932)" fill="#fff"/>
    <path id="Trazado_717072" data-name="Trazado 717072" d="M240.321,607.2a.714.714,0,0,1-.313-.239,15.385,15.385,0,0,0-3.491-3.4.69.69,0,0,1-.2-.985.78.78,0,0,1,1.032-.2,16.4,16.4,0,0,1,3.869,3.746.7.7,0,0,1-.166.994.755.755,0,0,1-.737.074Z" transform="translate(-93.934 -240.138)" fill="#fff"/>
    <path id="Trazado_717073" data-name="Trazado 717073" d="M330.411,556.415l1.787,24.558,10.6.359.709-30.265Z" transform="translate(-131.565 -219.691)" fill="#e8b499"/>
    <path id="Trazado_717074" data-name="Trazado 717074" d="M329.481,594.557s7.406,4.648,11.311-2.495l28.619,15.179-44.583-.276,4.643-12.417Z" transform="translate(-129.335 -236.064)" fill="#2e6a90"/>
    <path id="Trazado_717075" data-name="Trazado 717075" d="M324.818,616.882l-.023,3.893,44.582.273.023-3.894Z" transform="translate(-129.322 -245.977)" fill="#fff"/>
    <path id="Trazado_717076" data-name="Trazado 717076" d="M356.363,601.148a.72.72,0,0,0,.313-.24,15.4,15.4,0,0,1,3.491-3.4.689.689,0,0,0,.2-.984.78.78,0,0,0-1.031-.2,16.424,16.424,0,0,0-3.869,3.747.694.694,0,0,0,.166.994.757.757,0,0,0,.737.073Z" transform="translate(-141.517 -237.722)" fill="#fff"/>
    <path id="Trazado_717077" data-name="Trazado 717077" d="M362.436,604.181a.716.716,0,0,0,.314-.239,15.371,15.371,0,0,1,3.491-3.4.69.69,0,0,0,.2-.985.779.779,0,0,0-1.031-.2,16.408,16.408,0,0,0-3.869,3.746.694.694,0,0,0,.166.994.755.755,0,0,0,.736.074Z" transform="translate(-143.942 -238.932)" fill="#fff"/>
    <path id="Trazado_717078" data-name="Trazado 717078" d="M368.494,607.2a.714.714,0,0,0,.313-.239,15.381,15.381,0,0,1,3.491-3.4.69.69,0,0,0,.2-.985.779.779,0,0,0-1.031-.2,16.407,16.407,0,0,0-3.869,3.746.7.7,0,0,0,.166.994.755.755,0,0,0,.737.074Z" transform="translate(-146.362 -240.138)" fill="#fff"/>
    <path id="Trazado_717079" data-name="Trazado 717079" d="M328.672,293.635s3.4,21.382,3.3,95.819l2.413,77.07h-23.3l-3.546-76.287-4.928-68.123H293.42V293.635h35.252Z" transform="translate(-116.791 -116.877)" fill="#1c466d"/>
    <path id="Trazado_717080" data-name="Trazado 717080" d="M257.83,293.635s-3.4,22.238-3.3,96.675l-2.413,76.214h23.3l2.653-76.287,5.821-68.123h9.193V293.635H257.83Z" transform="translate(-100.296 -116.877)" fill="#1c466d"/>
    <path id="Trazado_717081" data-name="Trazado 717081" d="M289.141,341.051H307" transform="translate(-115.082 -135.814)" fill="none" stroke="#1c466d" stroke-linecap="round" stroke-linejoin="round" stroke-width="0.95"/>
    <path id="Trazado_717082" data-name="Trazado 717082" d="M244.449,269.368l-10.087,46.879-6.66-.341s2.137-29,4.606-48.388c.4-3.075,4.357-5.588,7.4-4.952,2.846.6,5.342,3.967,4.753,6.8Z" transform="translate(-90.545 -104.429)" fill="#e8b499"/>
    <path id="Trazado_717083" data-name="Trazado 717083" d="M232.03,346.036a14.918,14.918,0,0,1,1.253,11.681l1.5,6.4a2.151,2.151,0,0,1-1.133,2.439,1.819,1.819,0,0,1-2.46-1.031l-1.493-3.608-.157,1.381a10.376,10.376,0,0,0,1.253,6.268l3.022,5.3a2.1,2.1,0,0,1,.018,2,1.752,1.752,0,0,1-2.993.3l-4.79-6.4a11.7,11.7,0,0,1-2.091-8.892l2.837-17.056,5.232,1.224Z" transform="translate(-88.985 -137.32)" fill="#e8b499"/>
    <path id="Trazado_717084" data-name="Trazado 717084" d="M235.356,244.218l5.923-40.067,13.743,4.473-7.664,38.006Z" transform="translate(-93.601 -81.139)" fill="#e8b499"/>
    <path id="Trazado_717085" data-name="Trazado 717085" d="M253.445,176.458s-9.286,1.1-14.057,13.4c-4.8,12.362-10.657,25.257-10.657,25.257l20.79,11.57,3.933-50.23Z" transform="translate(-90.955 -70.079)" fill="#008b8a"/>
    <path id="Trazado_717086" data-name="Trazado 717086" d="M366.123,262.333l45.4-24.705-2.745-9.646s-31.64,13.466-48.81,22.836c-2.727,1.482-3.62,6.986-1.916,9.582,1.593,2.43,5.637,3.525,8.078,1.942Z" transform="translate(-142.258 -90.656)" fill="#e8b499"/>
    <path id="Trazado_717087" data-name="Trazado 717087" d="M362.915,244.393l-9.4-40.242-13.743,4.473,10.8,41.181Z" transform="translate(-135.301 -81.139)" fill="#e8b499"/>
    <path id="Trazado_717088" data-name="Trazado 717088" d="M340.932,175.922s10.049,1.187,15.153,13.714c5.011,12.279,9.985,23.61,9.985,23.61l-20.025,12.4-5.1-49.723Z" transform="translate(-135.767 -69.864)" fill="#008b8a"/>
    <path id="Trazado_717089" data-name="Trazado 717089" d="M309.964,177.212c-3.565-2.209-9.359-2.761-9.359-2.761l-16.1,1.62-16.1-1.62s-5.794.552-9.359,2.761l-.129,37.057-7.194,50.938,66,.359-7.572-50.634Z" transform="translate(-100.137 -69.277)" fill="#008b8a"/>
    <path id="Trazado_717090" data-name="Trazado 717090" d="M269.879,173.147l18.975-4.98h6.54l17.16,4.667c-8.778,8.22-30.554,14.958-41.7.7Z" transform="translate(-107.389 -66.767)" fill="#e8b499"/>
    <path id="Trazado_717091" data-name="Trazado 717091" d="M261.272,238.985l1.151-11.865L261.06,209.3" transform="translate(-103.867 -83.195)" fill="none" stroke="#000" stroke-linecap="round" stroke-linejoin="round" stroke-width="0.95"/>
    <path id="Trazado_717092" data-name="Trazado 717092" d="M350.252,237.963l-1.068-10.953,1.769-17.986" transform="translate(-139.062 -83.085)" fill="none" stroke="#000" stroke-linecap="round" stroke-linejoin="round" stroke-width="0.95"/>
    <path id="Trazado_717093" data-name="Trazado 717093" d="M315.431,115.854a12.243,12.243,0,0,1,.322-4.556,20.215,20.215,0,0,0-4.219-18.584c-3.565-4.3-4.449-10.659-4.449-10.659-2.616-8.615-11.478-14.589-19.546-14.589s-16.9,5.633-19.519,14.249c0,0-1.179,6.821-4.477,11.009-3.813,4.842-6.171,11.11-4.219,18.584a12.245,12.245,0,0,1,.323,4.556,6.293,6.293,0,0,1-1.087,3.1h57.967a6.3,6.3,0,0,1-1.087-3.1Z" transform="translate(-102.869 -26.549)" fill="#2e6a90"/>
    <path id="Trazado_717094" data-name="Trazado 717094" d="M282.519,117.074a5.672,5.672,0,1,1-5.831-5.5A5.663,5.663,0,0,1,282.519,117.074Z" transform="translate(-107.908 -44.162)" fill="#e8b499"/>
    <path id="Trazado_717095" data-name="Trazado 717095" d="M275.246,119.584s2.257-1.095,4.4,2.817" transform="translate(-109.533 -47.308)" fill="none" stroke="#99601d" stroke-linecap="round" stroke-linejoin="round" stroke-width="0.69"/>
    <path id="Trazado_717096" data-name="Trazado 717096" d="M330.227,122.911a5.67,5.67,0,1,0-5.674-5.67A5.672,5.672,0,0,0,330.227,122.911Z" transform="translate(-129.225 -44.164)" fill="#e8b499"/>
    <path id="Trazado_717097" data-name="Trazado 717097" d="M336.443,119.445s-2.285-1.031-4.329,2.945" transform="translate(-132.245 -47.26)" fill="none" stroke="#99601d" stroke-linecap="round" stroke-linejoin="round" stroke-width="0.69"/>
    <path id="Trazado_717098" data-name="Trazado 717098" d="M312.557,95.335a17.823,17.823,0,1,0-21.47,13.2A17.81,17.81,0,0,0,312.557,95.335Z" transform="translate(-110.389 -28.916)" fill="#2e6a90"/>
    <path id="Trazado_717099" data-name="Trazado 717099" d="M307.92,139.654a13.615,13.615,0,0,1-4.7,2.807c-2.238.552-4.421-1.141-4.449-1.16s-2.616-1.96-2.616-1.96l-1.05,18.667.295.313c3.8,4.078,9.275,4.142,13.117.138l.562-.589-1.151-18.206Z" transform="translate(-117.465 -55.255)" fill="#e8b499"/>
    <path id="Trazado_717100" data-name="Trazado 717100" d="M293.911,135.218s3.15,10.907,8.769,10.8c4.624-.092,5.9-10.254,5.9-10.254Z" transform="translate(-116.987 -53.608)" fill="#1e0b02"/>
    <path id="Trazado_717101" data-name="Trazado 717101" d="M312.205,92.571a65.141,65.141,0,0,1-1.75,15.2c-.875,3.682-3.38,6.268-6.936,8.358l-.645.378a12.851,12.851,0,0,1-12.463.193c-3.869-2.108-6.586-4.9-7.433-8.845a94.491,94.491,0,0,1-1.75-15.123s-1.29-16.6,15.42-16.375,15.567,16.218,15.567,16.218Z" transform="translate(-111.913 -30.097)" fill="#e8b499"/>
    <path id="Trazado_717102" data-name="Trazado 717102" d="M304.784,118.483v2.43h1.64" transform="translate(-121.33 -46.924)" fill="none" stroke="#99601d" stroke-linecap="round" stroke-linejoin="round" stroke-width="0.69"/>
    <path id="Trazado_717103" data-name="Trazado 717103" d="M285.868,101.3l8.834-.792s-.792-2.292-4.366-1.914c-3.657.377-4.477,2.715-4.477,2.715Z" transform="translate(-113.771 -38.964)"/>
    <path id="Trazado_717104" data-name="Trazado 717104" d="M320.443,101.3l-8.834-.792s.792-2.292,4.366-1.914c3.657.377,4.477,2.715,4.477,2.715Z" transform="translate(-124.055 -38.964)"/>
    <path id="Trazado_717105" data-name="Trazado 717105" d="M298.113,126.268h9.653s-.368,2.513-4.992,2.513c-3.8,0-4.652-2.513-4.652-2.513Z" transform="translate(-118.665 -50.033)" fill="#fff"/>
    <path id="Trazado_717106" data-name="Trazado 717106" d="M296.01,112.491s-2.284-1.869-4.292,0" transform="translate(-116.111 -44.199)" fill="none" stroke="#1e0b02" stroke-linecap="round" stroke-linejoin="round" stroke-width="0.96"/>
    <path id="Trazado_717107" data-name="Trazado 717107" d="M317.585,112.477a2.98,2.98,0,0,0-4.182,0" transform="translate(-124.772 -44.186)" fill="none" stroke="#1e0b02" stroke-linecap="round" stroke-linejoin="round" stroke-width="0.96"/>
    <path id="Trazado_717108" data-name="Trazado 717108" d="M288.321,102.875l6.475,8.79s-1.953,3.728-5.066,3.314l-6.54-8.57s1.769-3.765,5.121-3.535Z" transform="translate(-112.705 -40.687)" fill="#fff" opacity="0.23"/>
    <path id="Trazado_717109" data-name="Trazado 717109" d="M314.838,102.875l6.475,8.79s-1.953,3.728-5.066,3.314l-6.54-8.57s1.769-3.765,5.121-3.535Z" transform="translate(-123.296 -40.687)" fill="#fff" opacity="0.23"/>
    <path id="Trazado_717110" data-name="Trazado 717110" d="M294.945,108.832a6.337,6.337,0,1,1-6.337-6.333A6.334,6.334,0,0,1,294.945,108.832Z" transform="translate(-112.338 -40.54)" fill="none" stroke="#fff" stroke-miterlimit="10" stroke-width="0.49"/>
    <path id="Trazado_717111" data-name="Trazado 717111" d="M321.493,108.832a6.337,6.337,0,1,1-6.338-6.333A6.335,6.335,0,0,1,321.493,108.832Z" transform="translate(-122.941 -40.54)" fill="none" stroke="#fff" stroke-miterlimit="10" stroke-width="0.49"/>
    <path id="Trazado_717112" data-name="Trazado 717112" d="M303.373,112.847a4.947,4.947,0,0,1,3.279,0" transform="translate(-120.766 -44.556)" fill="none" stroke="#fff" stroke-miterlimit="10" stroke-width="0.49"/>
    <path id="Trazado_717113" data-name="Trazado 717113" d="M278.544,87.3s14.895-2.835,17.971-13.945C296.515,73.359,280.662,67.745,278.544,87.3Z" transform="translate(-110.85 -28.604)" fill="#2e6a90"/>
    <path id="Trazado_717114" data-name="Trazado 717114" d="M320.869,87.3S305.974,84.469,302.9,73.359C302.9,73.359,318.751,67.745,320.869,87.3Z" transform="translate(-120.576 -28.604)" fill="#2e6a90"/>
    <path id="Trazado_717115" data-name="Trazado 717115" d="M620.656,587.449h-16.6l-27.45,14.672,47.2-.562Z" transform="translate(-229.891 -234.222)" fill="#2e6a90"/>
    <path id="Trazado_717116" data-name="Trazado 717116" d="M612.227,614.33a2.92,2.92,0,0,1,2.856,2.918l8.888-.1-.166-6.2-47.2.562.166,6.2,32.6-.4a2.925,2.925,0,0,1,2.855-2.992Z" transform="translate(-229.891 -243.605)" fill="#1e0b02"/>
    <path id="Trazado_717117" data-name="Trazado 717117" d="M603.216,596.445l5.435,1.482" transform="translate(-240.519 -237.815)" fill="none" stroke="#008b8a" stroke-linecap="round" stroke-linejoin="round" stroke-width="1.94"/>
    <path id="Trazado_717118" data-name="Trazado 717118" d="M612.065,591.909l5.435,1.482" transform="translate(-244.053 -236.003)" fill="none" stroke="#008b8a" stroke-linecap="round" stroke-linejoin="round" stroke-width="1.94"/>
    <path id="Trazado_717119" data-name="Trazado 717119" d="M638.694,548.508H621.773V571.9h16.921Z" transform="translate(-247.93 -218.669)" fill="#e6a9a0"/>
    <path id="Trazado_717120" data-name="Trazado 717120" d="M697.633,587.449h16.6l27.459,14.672-47.208-.562Z" transform="translate(-276.969 -234.222)" fill="#2e6a90"/>
    <path id="Trazado_717121" data-name="Trazado 717121" d="M705.951,614.33a2.919,2.919,0,0,0-2.855,2.918l-8.889-.1.166-6.2,47.2.562-.166,6.2-32.6-.4a2.924,2.924,0,0,0-2.855-2.992Z" transform="translate(-276.859 -243.605)" fill="#1e0b02"/>
    <path id="Trazado_717122" data-name="Trazado 717122" d="M743.418,596.445l-4.6,2.329" transform="translate(-294.677 -237.815)" fill="none" stroke="#008b8a" stroke-linecap="round" stroke-linejoin="round" stroke-width="1.94"/>
    <path id="Trazado_717123" data-name="Trazado 717123" d="M735.132,591.909l-3.749,1.482" transform="translate(-291.707 -236.003)" fill="none" stroke="#008b8a" stroke-linecap="round" stroke-linejoin="round" stroke-width="1.94"/>
    <path id="Trazado_717124" data-name="Trazado 717124" d="M713.643,548.508H696.722l1.805,23.388h16.921Z" transform="translate(-277.864 -218.669)" fill="#e6a9a0"/>
    <path id="Trazado_717125" data-name="Trazado 717125" d="M674.889,254.739c1.271,13.558,11.44,193.084,11.44,193.084H659.92l-11.579-159.46-4.762.092L640.5,447.823H615.264s-1.437-166.575.1-192.661l59.514-.423Z" transform="translate(-245.087 -101.343)" fill="#008b8a"/>
    <path id="Trazado_717126" data-name="Trazado 717126" d="M651.71,310.922h19.362" transform="translate(-259.886 -123.781)" fill="none" stroke="#000" stroke-linecap="round" stroke-linejoin="round" stroke-width="0.95"/>
    <path id="Trazado_717127" data-name="Trazado 717127" d="M645.809,6.556s7.314-9.895,20.274-3.3C680.3,10.5,672.614,26.1,672.614,26.1l-30.535-5.78Z" transform="translate(-256.04 0)" fill="#2e6a90"/>
    <path id="Trazado_717128" data-name="Trazado 717128" d="M636.623,29.881s-7.986-15.675,6.107-19.624l2.533,8.4-8.64,11.211Z" transform="translate(-252.961 -3.7)" fill="#2e6a90"/>
    <path id="Trazado_717129" data-name="Trazado 717129" d="M641.852,51.314a5.672,5.672,0,1,1-5.831-5.5A5.663,5.663,0,0,1,641.852,51.314Z" transform="translate(-251.42 -17.898)" fill="#e8b499"/>
    <path id="Trazado_717130" data-name="Trazado 717130" d="M634.594,53.824s2.257-1.1,4.4,2.817" transform="translate(-253.051 -21.044)" fill="none" stroke="#99601d" stroke-linecap="round" stroke-linejoin="round" stroke-width="0.69"/>
    <path id="Trazado_717131" data-name="Trazado 717131" d="M683.9,51.466a5.674,5.674,0,1,0,5.674-5.67A5.675,5.675,0,0,0,683.9,51.466Z" transform="translate(-272.743 -17.894)" fill="#e8b499"/>
    <path id="Trazado_717132" data-name="Trazado 717132" d="M695.791,53.685s-2.284-1.031-4.329,2.945" transform="translate(-275.763 -20.997)" fill="none" stroke="#99601d" stroke-linecap="round" stroke-linejoin="round" stroke-width="0.69"/>
    <path id="Trazado_717133" data-name="Trazado 717133" d="M667.658,76.8a19.207,19.207,0,0,1-6.116,2.817,9.365,9.365,0,0,1-5.784-1.151c-.037-.018-3.409-1.961-3.409-1.961l-1.391,18.667.378.313a13.533,13.533,0,0,0,17.069.12l.727-.589-1.474-18.207Z" transform="translate(-259.586 -30.16)" fill="#e8b499"/>
    <path id="Trazado_717134" data-name="Trazado 717134" d="M650.958,73.228s3.178,10.4,10.5,10.281c6.015-.092,6.982-10.281,6.982-10.281Z" transform="translate(-259.586 -28.85)" fill="#1e0b02"/>
    <path id="Trazado_717135" data-name="Trazado 717135" d="M671.5,27.531a70.481,70.481,0,0,1-1.75,15.878c-.875,3.847-4.265,6.544-7.812,8.726l-.644.4c-3.759,2.31-6.863,2.384-10.7.2-3.869-2.2-7.471-5.118-8.318-9.241a103.653,103.653,0,0,1-1.759-15.8s-2.183-17.341,14.536-17.111S671.5,27.531,671.5,27.531Z" transform="translate(-255.377 -3.827)" fill="#e8b499"/>
    <path id="Trazado_717136" data-name="Trazado 717136" d="M654.817,46.367a1.354,1.354,0,1,1-1.355-1.353A1.356,1.356,0,0,1,654.817,46.367Z" transform="translate(-260.046 -17.582)" fill="#1e0b02"/>
    <path id="Trazado_717137" data-name="Trazado 717137" d="M676.9,46.367a1.354,1.354,0,1,1-1.354-1.353A1.356,1.356,0,0,1,676.9,46.367Z" transform="translate(-268.866 -17.582)" fill="#1e0b02"/>
    <path id="Trazado_717138" data-name="Trazado 717138" d="M663.366,53.152v2.172h1.75" transform="translate(-264.542 -20.832)" fill="none" stroke="#99601d" stroke-linecap="round" stroke-linejoin="round" stroke-width="0.69"/>
    <path id="Trazado_717139" data-name="Trazado 717139" d="M645.968,35.938l8.834-.792s-.792-2.292-4.366-1.915c-3.657.377-4.476,2.715-4.476,2.715Z" transform="translate(-257.59 -12.859)"/>
    <path id="Trazado_717140" data-name="Trazado 717140" d="M678.027,35.938l-8.834-.792s.792-2.292,4.367-1.915c3.657.377,4.476,2.715,4.476,2.715Z" transform="translate(-266.869 -12.859)"/>
    <path id="Trazado_717141" data-name="Trazado 717141" d="M658.335,61.9h8.714s-.405,2.669-4.486,2.669S658.335,61.9,658.335,61.9Z" transform="translate(-262.532 -24.327)" fill="#fff"/>
    <path id="Trazado_717142" data-name="Trazado 717142" d="M639.463,38.2s.654-21.235.387-21.842C639.85,16.356,632.315,23.314,639.463,38.2Z" transform="translate(-253.765 -6.136)" fill="#2e6a90"/>
    <path id="Trazado_717143" data-name="Trazado 717143" d="M690.356,37.145l-1.133-23.057S696.473,21.286,690.356,37.145Z" transform="translate(-274.868 -5.23)" fill="#2e6a90"/>
    <path id="Trazado_717144" data-name="Trazado 717144" d="M646.572,13.23s-5.186,1.4-5.011,6.489-3.27,10.088-3.27,10.088l-1.575-5.081s-1.216-9.472,9.846-11.5Z" transform="translate(-253.882 -4.888)" fill="#2e6a90"/>
    <path id="Trazado_717145" data-name="Trazado 717145" d="M650.582,10.936s3.878-2.2,7.737,2.642c3.288,4.133,11.966,8.395,17.106,4.345,0,0-3.27-11.708-16.046-11.469s-8.806,4.483-8.806,4.483Z" transform="translate(-259.2 -2.18)" fill="#2e6a90"/>
    <path id="Trazado_717146" data-name="Trazado 717146" d="M589.648,119.372c-25.736,12.877-46.95,36.855-46.95,36.855l13.817,16.633,38.918-24.705Z" transform="translate(-216.349 -47.279)" fill="#ffa031"/>
    <path id="Trazado_717147" data-name="Trazado 717147" d="M737.379,280.367l7.747,19.725,5.978-.635-4.541-25.515Z" transform="translate(-294.101 -109.012)" fill="#e8b499"/>
    <path id="Trazado_717148" data-name="Trazado 717148" d="M748.638,311.245a15.491,15.491,0,0,0-.552,12.177l-1.142,6.72a2.226,2.226,0,0,0,1.327,2.448,1.9,1.9,0,0,0,2.487-1.224l1.317-3.839.249,1.417a10.776,10.776,0,0,1-.894,6.573l-2.791,5.688a2.185,2.185,0,0,0,.1,2.061,1.808,1.808,0,0,0,3.114.12l4.55-6.931A12.157,12.157,0,0,0,758,327.114l-4.034-17.48-5.334,1.6Z" transform="translate(-297.908 -123.267)" fill="#e8b499"/>
    <path id="Trazado_717149" data-name="Trazado 717149" d="M702.386,118.1s9.064,2.282,13.891,15.878c9.672,27.245,19.7,100.265,19.7,100.265L718.663,237.5l-24.272-93.536Z" transform="translate(-276.932 -46.771)" fill="#ffa031"/>
    <path id="Trazado_717150" data-name="Trazado 717150" d="M663.8,113.885l7.765,3.452a8.736,8.736,0,0,1,5.186,7.953l.276,84.176H611.942v-84.25a8.731,8.731,0,0,1,5.361-8.054l7.922-3.323,38.577.037Z" transform="translate(-244.004 -45.069)" fill="#ffa031"/>
    <path id="Trazado_717151" data-name="Trazado 717151" d="M653.807,100.338l18.828,8.155s-19.344,17.47-38.578-.037Z" transform="translate(-252.836 -39.677)" fill="#e8b499"/>
    <path id="Trazado_717152" data-name="Trazado 717152" d="M634.057,113.839a26.218,26.218,0,0,0,19.242,7.925,26.606,26.606,0,0,0,19.335-7.888" transform="translate(-252.836 -45.069)" fill="none" stroke="#fff" stroke-miterlimit="10" stroke-width="1.94"/>
    <path id="Trazado_717153" data-name="Trazado 717153" d="M720.141,219.862l-.185-55.955" transform="translate(-287.143 -65.066)" fill="none" stroke="#000" stroke-linecap="round" stroke-linejoin="round" stroke-width="0.95"/>
    <path id="Trazado_717154" data-name="Trazado 717154" d="M611.942,172.836v-9.389" transform="translate(-244.004 -64.882)" fill="none" stroke="#000" stroke-linecap="round" stroke-linejoin="round" stroke-width="0.95"/>
    <path id="Trazado_717155" data-name="Trazado 717155" d="M495.217,49.446s8.364-3.728,11.33,3.314C509.4,59.534,498.063,66,498.063,66l-2.846-16.559Z" transform="translate(-197.386 -18.958)" fill="#1e0b02"/>
    <path id="Trazado_717156" data-name="Trazado 717156" d="M461.618,93.244a5.672,5.672,0,1,1-5.831-5.5A5.663,5.663,0,0,1,461.618,93.244Z" transform="translate(-179.437 -34.645)" fill="#c67d69"/>
    <path id="Trazado_717157" data-name="Trazado 717157" d="M454.36,95.738s2.257-1.1,4.4,2.817" transform="translate(-181.068 -37.784)" fill="none" stroke="#a8523f" stroke-linecap="round" stroke-linejoin="round" stroke-width="0.75"/>
    <path id="Trazado_717158" data-name="Trazado 717158" d="M509.341,99.065a5.67,5.67,0,1,0-5.674-5.67A5.672,5.672,0,0,0,509.341,99.065Z" transform="translate(-200.76 -34.64)" fill="#c67d69"/>
    <path id="Trazado_717159" data-name="Trazado 717159" d="M515.557,95.614s-2.284-1.031-4.329,2.945" transform="translate(-203.78 -37.743)" fill="none" stroke="#a8523f" stroke-linecap="round" stroke-linejoin="round" stroke-width="0.75"/>
    <path id="Trazado_717160" data-name="Trazado 717160" d="M487.44,118.731a19.214,19.214,0,0,1-6.117,2.817,9.294,9.294,0,0,1-5.785-1.151c-.037-.018-3.408-1.96-3.408-1.96L470.74,137.1l.378.314a13.532,13.532,0,0,0,17.068.12l.728-.589-1.474-18.206Z" transform="translate(-187.61 -46.906)" fill="#c67d69"/>
    <path id="Trazado_717161" data-name="Trazado 717161" d="M470.74,115.157s3.178,10.4,10.5,10.282c6.015-.092,6.982-10.282,6.982-10.282Z" transform="translate(-187.61 -45.596)" fill="#1e0b02"/>
    <path id="Trazado_717162" data-name="Trazado 717162" d="M491.26,69.446a70.51,70.51,0,0,1-1.75,15.878c-.875,3.848-3.381,6.544-6.937,8.726l-.645.4a12.37,12.37,0,0,1-12.463.2c-3.869-2.2-6.586-5.118-7.442-9.241a103.7,103.7,0,0,1-1.76-15.8S458.081,52.261,474.8,52.491s16.452,16.955,16.452,16.955Z" transform="translate(-183.389 -20.567)" fill="#c67d69"/>
    <path id="Trazado_717163" data-name="Trazado 717163" d="M473.229,89.65a1.353,1.353,0,1,0-1.354-1.353A1.354,1.354,0,0,0,473.229,89.65Z" transform="translate(-188.063 -34.328)" fill="#1e0b02"/>
    <path id="Trazado_717164" data-name="Trazado 717164" d="M495.328,89.65a1.353,1.353,0,1,0-1.354-1.353A1.353,1.353,0,0,0,495.328,89.65Z" transform="translate(-196.889 -34.328)" fill="#1e0b02"/>
    <path id="Trazado_717165" data-name="Trazado 717165" d="M483.132,92.476V96.2h2.413" transform="translate(-192.559 -36.537)" fill="none" stroke="#a8523f" stroke-linecap="round" stroke-linejoin="round" stroke-width="0.75"/>
    <path id="Trazado_717166" data-name="Trazado 717166" d="M465.734,77.852l8.834-.792s-.792-2.292-4.366-1.915c-3.657.377-4.476,2.715-4.476,2.715Z" transform="translate(-185.607 -29.599)"/>
    <path id="Trazado_717167" data-name="Trazado 717167" d="M497.793,77.852l-8.834-.792s.792-2.292,4.366-1.915c3.657.377,4.476,2.715,4.476,2.715Z" transform="translate(-194.886 -29.599)"/>
    <path id="Trazado_717168" data-name="Trazado 717168" d="M478.1,103.832h8.714s-.4,2.669-4.485,2.669S478.1,103.832,478.1,103.832Z" transform="translate(-190.55 -41.073)" fill="#fff"/>
    <path id="Trazado_717169" data-name="Trazado 717169" d="M459.359,80.128s2.478-18.75,1.262-21.842C460.621,58.286,452.2,65.244,459.359,80.128Z" transform="translate(-181.913 -22.882)" fill="#1e0b02"/>
    <path id="Trazado_717170" data-name="Trazado 717170" d="M509.45,79.075s-2.781-17.912-2.008-23.057C507.442,56.018,515.566,63.215,509.45,79.075Z" transform="translate(-202.214 -21.976)" fill="#1e0b02"/>
    <path id="Trazado_717171" data-name="Trazado 717171" d="M489.305,52.207l-7.71-1.169-.682-1.335-4.071.617-4.072-.617-.682,1.335-7.71,1.169-1.031,4.124.258,4.75s1.216-5.385,5.463-4.317c1,.248,2.2.672,3.6.957a18.894,18.894,0,0,0,3.73.433h.847a18.819,18.819,0,0,0,3.731-.433,28.4,28.4,0,0,0,3.6-.957c3.933-1.372,5.389,4.068,5.389,4.068l.331-4.5-1.032-4.124Z" transform="translate(-184.658 -19.455)" fill="#1e0b02"/>
    <path id="Trazado_717172" data-name="Trazado 717172" d="M484.391,52.582a10.238,10.238,0,0,1-11.431,1.031s-16.332,10.051-20.947-.893c-3.841-9.122,12.113-21.511,28.574-7.557l3.8,7.41Z" transform="translate(-179.9 -15.136)" fill="#1e0b02"/>
    <path id="Trazado_717173" data-name="Trazado 717173" d="M518.866,534.927l2.643,32.842,14.526.451.037-38.945Z" transform="translate(-206.831 -210.988)" fill="#c67d69"/>
    <path id="Trazado_717174" data-name="Trazado 717174" d="M519.181,585.363s10.068,5.863,15.088-3.323L571.1,601.581l-57.377-.35,5.444-15.86Z" transform="translate(-204.779 -232.062)" fill="#1c466d"/>
    <g id="Grupo_1013291" data-name="Grupo 1013291" transform="translate(346.637 357.866)">
      <path id="Trazado_717175" data-name="Trazado 717175" d="M589.607,595.173s-14.167,2.117-13.071,19.716l24.511-6.71Z" transform="translate(-576.476 -595.173)" fill="#fff"/>
    </g>
    <path id="Trazado_717176" data-name="Trazado 717176" d="M513.711,613.959l-.031,5.016,57.376.35.031-5.016Z" transform="translate(-204.759 -244.809)" fill="#fff"/>
    <path id="Trazado_717177" data-name="Trazado 717177" d="M554.3,593.724a.921.921,0,0,0,.4-.3,19.544,19.544,0,0,1,4.5-4.372.888.888,0,0,0,.267-1.27,1.009,1.009,0,0,0-1.336-.258,21.444,21.444,0,0,0-4.983,4.823.891.891,0,0,0,.212,1.28A1.03,1.03,0,0,0,554.3,593.724Z" transform="translate(-220.448 -234.191)" fill="#fff"/>
    <path id="Trazado_717178" data-name="Trazado 717178" d="M562.111,597.632a.913.913,0,0,0,.4-.3A19.541,19.541,0,0,1,567,592.956a.888.888,0,0,0,.267-1.27,1.008,1.008,0,0,0-1.336-.258,21.442,21.442,0,0,0-4.983,4.823.892.892,0,0,0,.212,1.28A1.03,1.03,0,0,0,562.111,597.632Z" transform="translate(-223.565 -235.752)" fill="#fff"/>
    <path id="Trazado_717179" data-name="Trazado 717179" d="M569.917,601.525a.924.924,0,0,0,.4-.3,19.536,19.536,0,0,1,4.5-4.372.889.889,0,0,0,.267-1.27,1.008,1.008,0,0,0-1.336-.258,21.415,21.415,0,0,0-4.983,4.823.892.892,0,0,0,.212,1.279A1.028,1.028,0,0,0,569.917,601.525Z" transform="translate(-226.683 -237.307)" fill="#fff"/>
    <path id="Trazado_717180" data-name="Trazado 717180" d="M452.059,534.927l.884,32.842-14.526.451-3.565-38.945Z" transform="translate(-173.277 -210.988)" fill="#c67d69"/>
    <path id="Trazado_717181" data-name="Trazado 717181" d="M430.492,585.363s-10.068,5.863-15.088-3.323l-36.836,19.541,57.377-.35-5.444-15.86Z" transform="translate(-150.798 -232.062)" fill="#1c466d"/>
    <g id="Grupo_1013292" data-name="Grupo 1013292" transform="translate(222.879 357.866)">
      <path id="Trazado_717182" data-name="Trazado 717182" d="M381.865,595.173s14.167,2.117,13.071,19.716l-24.511-6.71Z" transform="translate(-370.424 -595.173)" fill="#fff"/>
    </g>
    <path id="Trazado_717183" data-name="Trazado 717183" d="M435.928,613.974l-57.376.351.031,5.016,57.376-.35Z" transform="translate(-150.791 -244.815)" fill="#fff"/>
    <path id="Trazado_717184" data-name="Trazado 717184" d="M429.091,593.724a.92.92,0,0,1-.4-.3,19.532,19.532,0,0,0-4.5-4.372.889.889,0,0,1-.267-1.27,1.009,1.009,0,0,1,1.336-.258,21.419,21.419,0,0,1,4.983,4.823.891.891,0,0,1-.212,1.28A1.029,1.029,0,0,1,429.091,593.724Z" transform="translate(-168.851 -234.191)" fill="#fff"/>
    <path id="Trazado_717185" data-name="Trazado 717185" d="M421.285,597.632a.92.92,0,0,1-.4-.3,19.527,19.527,0,0,0-4.5-4.372.888.888,0,0,1-.267-1.27,1.008,1.008,0,0,1,1.336-.258,21.428,21.428,0,0,1,4.983,4.823.891.891,0,0,1-.212,1.28A1.03,1.03,0,0,1,421.285,597.632Z" transform="translate(-165.734 -235.752)" fill="#fff"/>
    <path id="Trazado_717186" data-name="Trazado 717186" d="M413.479,601.525a.919.919,0,0,1-.4-.3,19.545,19.545,0,0,0-4.495-4.372.888.888,0,0,1-.267-1.27,1.008,1.008,0,0,1,1.336-.258,21.438,21.438,0,0,1,4.983,4.823.892.892,0,0,1-.212,1.279A1.028,1.028,0,0,1,413.479,601.525Z" transform="translate(-162.616 -237.307)" fill="#fff"/>
    <path id="Trazado_717187" data-name="Trazado 717187" d="M463.408,306.617l12.9,142.625h25.645l-9.672-170.506-31.806-2.807-26.317-1.3-10.639,90.315a13.805,13.805,0,0,0,27.293,4L463.4,306.617Z" transform="translate(-168.718 -109.287)" fill="#3d8dc0"/>
    <path id="Trazado_717188" data-name="Trazado 717188" d="M470.908,325.572l16.516,2.1" transform="translate(-187.677 -129.632)" fill="none" stroke="#000" stroke-linecap="round" stroke-linejoin="round" stroke-width="0.95"/>
    <path id="Trazado_717189" data-name="Trazado 717189" d="M539.186,559.34h-33.8l-1.631-15.307h33.8Z" transform="translate(-200.797 -216.882)" fill="#3d8dc0"/>
    <path id="Trazado_717190" data-name="Trazado 717190" d="M450.873,429.006l1.575,78.1H425.395L423.58,425Z" transform="translate(-168.775 -169.343)" fill="#3d8dc0"/>
    <path id="Trazado_717191" data-name="Trazado 717191" d="M454.631,544.033h-33.8V559.34h33.8Z" transform="translate(-167.679 -216.882)" fill="#3d8dc0"/>
    <path id="Trazado_717192" data-name="Trazado 717192" d="M491.213,156.788l-19.159-7.547-18.174.156-23.968,11.2c-1.879,1.123-1.52,3.4-.838,5.477l5.416,64.008,60.1-.828,3.915-65.04c.516-2.136-5.315-6.48-7.3-7.437Z" transform="translate(-170.749 -59.208)" fill="#4db1f0"/>
    <path id="Trazado_717193" data-name="Trazado 717193" d="M467.181,149.391l-5.352,2.458s-.055,8.974,14.489,8.5c14.922-.478,14.886-8.928,14.886-8.928l-5.849-2.2-18.173.157Z" transform="translate(-184.051 -59.202)" fill="#c67d69"/>
    <path id="Trazado_717194" data-name="Trazado 717194" d="M558.677,207.652l-40.41-19.283L538.3,176.458l17.944,11.1Z" transform="translate(-206.591 -70.079)" fill="#c67d69"/>
    <path id="Trazado_717195" data-name="Trazado 717195" d="M573.065,121.888l7.82-2.807,13.845,54.528a9.575,9.575,0,1,1-18.57,4.354Z" transform="translate(-228.477 -47.163)" fill="#c67d69"/>
    <path id="Trazado_717196" data-name="Trazado 717196" d="M566.892,98.935l-3.731-4.115a18.461,18.461,0,0,1-4.126-7.511l-1.354-4.915a1.958,1.958,0,0,1,1.695-2.467,2.522,2.522,0,0,1,2.478,1.325l2.524,4.8.7-21.18a1.516,1.516,0,0,1,1.732-1.482l.608.083a1.52,1.52,0,0,1,1.308,1.408l-.018,12.555,2.018-14.423a1.522,1.522,0,0,1,1.814-1.372l.442.092a1.514,1.514,0,0,1,1.216,1.6L572.539,78.4l3.546-11.791a1.519,1.519,0,0,1,2.174-.939l.175.092a1.519,1.519,0,0,1,.783,1.62l-2.358,12.7,2.422-7.483a1.524,1.524,0,0,1,2.5-.635,1.5,1.5,0,0,1,.433,1.427l-6.282,28.083-9.009-2.541Z" transform="translate(-222.304 -24.21)" fill="#c67d69"/>
    <path id="Trazado_717197" data-name="Trazado 717197" d="M568.862,102.284a10,10,0,0,1,6.236,5.753" transform="translate(-226.798 -40.455)" fill="none" stroke="#a8523f" stroke-linecap="round" stroke-linejoin="round" stroke-width="0.75"/>
    <path id="Trazado_717198" data-name="Trazado 717198" d="M576.715,193.393l.829,10.382" transform="translate(-229.935 -76.842)" fill="none" stroke="#a8523f" stroke-linecap="round" stroke-linejoin="round" stroke-width="0.75"/>
    <path id="Trazado_717199" data-name="Trazado 717199" d="M520.6,160.3c14.987,4.547,25.359,16.79,25.359,16.79l-11.275,22.358-25.884-12Z" transform="translate(-202.812 -63.627)" fill="#4db1f0"/>
    <path id="Trazado_717200" data-name="Trazado 717200" d="M537.344,218.729l-7.36-3.406" transform="translate(-211.271 -85.601)" fill="none" stroke="#000" stroke-linecap="round" stroke-linejoin="round" stroke-width="0.95"/>
    <path id="Trazado_717201" data-name="Trazado 717201" d="M405.079,202.695,395.96,235.5c-1.032,5.219,5.14,11.128,10.141,12.463,4.947,1.307,3.9-2.559,5.2-7.64l12.426-31.037Z" transform="translate(-157.698 -80.557)" fill="#c67d69"/>
    <path id="Trazado_717202" data-name="Trazado 717202" d="M397.508,257.773c1.612,6.7,22.8,21.483,22.8,21.483l12.14.111-22.033-30.421Z" transform="translate(-158.362 -99.029)" fill="#c67d69"/>
    <path id="Trazado_717203" data-name="Trazado 717203" d="M448.55,296.927a10.774,10.774,0,0,0,6.135.939,1.823,1.823,0,0,0,.452-3.405c-3.97-2.044-12.316-6.8-15.614-8l-5.729-1.592-5.4,5.357,4.237,3.378s1.022,5.366,3.085,7.189c0,0,8.972,1.39,12.813-3.866Z" transform="translate(-170.698 -113.376)" fill="#c67d69"/>
    <path id="Trazado_717204" data-name="Trazado 717204" d="M422.541,253.825l-3.546-4.879" transform="translate(-166.944 -99.029)" fill="none" stroke="#a8523f" stroke-linecap="round" stroke-linejoin="round" stroke-width="0.75"/>
    <path id="Trazado_717205" data-name="Trazado 717205" d="M418.719,168.152s-15.107,5.044-18.22,31.857l29.9,8.9,8.318-25.929Z" transform="translate(-159.557 -66.761)" fill="#4db1f0"/>
    <path id="Trazado_717206" data-name="Trazado 717206" d="M433.652,222.385l-1.345-14.893" transform="translate(-172.26 -82.473)" fill="none" stroke="#000" stroke-linecap="round" stroke-linejoin="round" stroke-width="0.95"/>
    <path id="Trazado_717207" data-name="Trazado 717207" d="M438.331,158.839s-3.049,1.629-.654,6.361a5.881,5.881,0,0,1-2.073,7.594l-5.269,3.387a5.878,5.878,0,0,1-8.447-2.311c-1.031-2.117-1.695-4.519-.9-6.581C422.884,162.318,434,156.6,438.331,158.839Z" transform="translate(-167.599 -62.842)" fill="#3076b6"/>
    <path id="Trazado_717208" data-name="Trazado 717208" d="M861.558,557.242v22.781l10.6.359.718-30.265Z" transform="translate(-343.696 -219.312)" fill="#cf7c6c"/>
    <path id="Trazado_717209" data-name="Trazado 717209" d="M857.653,593.606s7.406,4.649,11.311-2.494l28.619,15.178L853,606.015l4.642-12.417Z" transform="translate(-340.279 -235.685)" fill="#1c466d"/>
    <g id="Grupo_1013293" data-name="Grupo 1013293" transform="translate(542.004 361.548)">
      <path id="Trazado_717210" data-name="Trazado 717210" d="M911.961,601.313s-11.007,1.648-10.16,15.316l19.049-5.219L911.961,601.3Z" transform="translate(-901.755 -601.303)" fill="#fff"/>
    </g>
    <path id="Trazado_717211" data-name="Trazado 717211" d="M853,615.921l-.024,3.893,44.582.272.024-3.893Z" transform="translate(-340.267 -245.593)" fill="#fff"/>
    <path id="Trazado_717212" data-name="Trazado 717212" d="M884.55,600.2a.719.719,0,0,0,.313-.24,15.4,15.4,0,0,1,3.491-3.4.69.69,0,0,0,.2-.985.78.78,0,0,0-1.031-.2,16.431,16.431,0,0,0-3.869,3.747.694.694,0,0,0,.166.994.757.757,0,0,0,.737.073Z" transform="translate(-352.466 -237.342)" fill="#fff"/>
    <path id="Trazado_717213" data-name="Trazado 717213" d="M890.608,603.231a.718.718,0,0,0,.313-.239,15.382,15.382,0,0,1,3.491-3.4.69.69,0,0,0,.2-.985.779.779,0,0,0-1.031-.2,16.406,16.406,0,0,0-3.869,3.746.694.694,0,0,0,.166.994.757.757,0,0,0,.737.074Z" transform="translate(-354.885 -238.553)" fill="#fff"/>
    <path id="Trazado_717214" data-name="Trazado 717214" d="M896.682,606.25a.716.716,0,0,0,.313-.239,15.367,15.367,0,0,1,3.491-3.4.69.69,0,0,0,.2-.985.779.779,0,0,0-1.031-.2,16.41,16.41,0,0,0-3.869,3.746.7.7,0,0,0,.166.994.756.756,0,0,0,.736.074Z" transform="translate(-357.311 -239.759)" fill="#fff"/>
    <path id="Trazado_717215" data-name="Trazado 717215" d="M859.294,274.632s18.93,22.422,12.832,82.362l-4.873,99.98H851.87l-10.1-182.342Z" transform="translate(-335.795 -109.288)" fill="#2e6a90"/>
    <path id="Trazado_717216" data-name="Trazado 717216" d="M818.6,557.242v22.781l-10.6.359-.718-30.265Z" transform="translate(-322.02 -219.312)" fill="#cf7c6c"/>
    <path id="Trazado_717217" data-name="Trazado 717217" d="M800.392,593.606s-7.406,4.649-11.311-2.494L760.461,606.29l44.583-.276L800.4,593.6Z" transform="translate(-303.32 -235.685)" fill="#1c466d"/>
    <g id="Grupo_1013294" data-name="Grupo 1013294" transform="translate(453.346 361.548)">
      <path id="Trazado_717218" data-name="Trazado 717218" d="M763.031,601.313s11.007,1.648,10.16,15.316l-19.049-5.219,8.889-10.107Z" transform="translate(-754.142 -601.303)" fill="#fff"/>
    </g>
    <path id="Trazado_717219" data-name="Trazado 717219" d="M805.016,615.942l-44.582.272.024,3.893,44.582-.272Z" transform="translate(-303.309 -245.601)" fill="#fff"/>
    <path id="Trazado_717220" data-name="Trazado 717220" d="M799.7,600.2a.718.718,0,0,1-.314-.24,15.391,15.391,0,0,0-3.491-3.4.69.69,0,0,1-.2-.985.781.781,0,0,1,1.032-.2,16.423,16.423,0,0,1,3.869,3.747.693.693,0,0,1-.166.994.757.757,0,0,1-.737.073Z" transform="translate(-317.341 -237.342)" fill="#fff"/>
    <path id="Trazado_717221" data-name="Trazado 717221" d="M793.645,603.231a.719.719,0,0,1-.313-.239,15.378,15.378,0,0,0-3.491-3.4.69.69,0,0,1-.2-.985.779.779,0,0,1,1.031-.2,16.4,16.4,0,0,1,3.869,3.746.694.694,0,0,1-.166.994.755.755,0,0,1-.736.074Z" transform="translate(-314.922 -238.553)" fill="#fff"/>
    <path id="Trazado_717222" data-name="Trazado 717222" d="M787.572,606.25a.712.712,0,0,1-.313-.239,15.38,15.38,0,0,0-3.491-3.4.69.69,0,0,1-.2-.985.78.78,0,0,1,1.032-.2,16.4,16.4,0,0,1,3.869,3.746.7.7,0,0,1-.166.994.757.757,0,0,1-.737.074Z" transform="translate(-312.496 -239.759)" fill="#fff"/>
    <path id="Trazado_717223" data-name="Trazado 717223" d="M805.645,274.632s-18.93,22.422-12.832,82.362l4.873,99.98h17.068l8.41-182.342Z" transform="translate(-315.757 -109.288)" fill="#2e6a90"/>
    <path id="Trazado_717224" data-name="Trazado 717224" d="M846.813,295.014H817.236V324.57h29.577Z" transform="translate(-325.995 -117.428)" fill="#2e6a90"/>
    <path id="Trazado_717225" data-name="Trazado 717225" d="M839.988,343.676l-13.642-.847" transform="translate(-329.633 -136.524)" fill="none" stroke="#000" stroke-linecap="round" stroke-linejoin="round" stroke-width="0.95"/>
    <path id="Trazado_717226" data-name="Trazado 717226" d="M949.158,162.88l6.688,2.1L941.7,209.013a8.075,8.075,0,1,1-14.692-6.544l22.163-39.589Z" transform="translate(-369.424 -64.656)" fill="#de9a8c"/>
    <path id="Trazado_717227" data-name="Trazado 717227" d="M964.735,152.2l.534-1.739a15.663,15.663,0,0,1,3.666-6.241l2.984-3.111a1.66,1.66,0,0,1,2.524.156,2.114,2.114,0,0,1,.111,2.366l-2.386,3.9,13.823-7.557a1.282,1.282,0,0,1,1.826.607l.2.479a1.268,1.268,0,0,1-.463,1.556l-9.118,5.421,11.34-4.777a1.286,1.286,0,0,1,1.778.718l.126.359a1.277,1.277,0,0,1-.637,1.574l-9.78,4.786,8.224-2a1.281,1.281,0,0,1,1.622,1.169v.166a1.264,1.264,0,0,1-.829,1.27l-8.4,2.688,4.634-.387a1.278,1.278,0,0,1,.691,2.458l-21.251,6.5-1.308-4.86a9.987,9.987,0,0,1,.092-5.5Z" transform="translate(-384.734 -55.439)" fill="#de9a8c"/>
    <path id="Trazado_717228" data-name="Trazado 717228" d="M976.4,152.674a8.406,8.406,0,0,1-1.474,7" transform="translate(-388.973 -60.58)" fill="none" stroke="#99601d" stroke-linecap="round" stroke-linejoin="round" stroke-width="0.75"/>
    <path id="Trazado_717229" data-name="Trazado 717229" d="M880.587,166.669s11.459,2.9,28.859,29.611l8.078-23.076,18.468,8.266-12.5,33.5a13.137,13.137,0,0,1-21.241,5.054c-5.49-5.118-23.047-24.53-26.584-31.1l4.9-22.275Z" transform="translate(-349.332 -66.161)" fill="#1c466d"/>
    <path id="Trazado_717230" data-name="Trazado 717230" d="M779.619,268.082s8.76,2.467,4.108,11.938c-4.191,8.542-11.468,10.328-17.52,8.892a1.677,1.677,0,0,1-1.087-2.357,1.7,1.7,0,0,1,1.557-.966c2.183.046,6.089-.313,7.167-3.249,1.409-3.82-.59-8.008,1.63-11.956l4.145-2.311Z" transform="translate(-305.114 -106.668)" fill="#de9a8c"/>
    <path id="Trazado_717231" data-name="Trazado 717231" d="M780.709,262.292l-5.269-8.717-7.756,4.353,9.469,10.319Z" transform="translate(-306.205 -100.878)" fill="#de9a8c"/>
    <path id="Trazado_717232" data-name="Trazado 717232" d="M765.673,173.117s-14.867,7.327-33.3,26.086a7.36,7.36,0,0,0-1.852,7.263c1.41,4.694,6.209,12.527,21.223,22.772l13.044-6.636-11.394-15.169,21.794-9.03-9.507-25.285Z" transform="translate(-291.242 -68.744)" fill="#1c466d"/>
    <path id="Trazado_717233" data-name="Trazado 717233" d="M853.038,246.37l-51.4.6,5.923-79.123h39.673Z" transform="translate(-319.766 -66.639)" fill="#fff"/>
    <path id="Trazado_717234" data-name="Trazado 717234" d="M793.078,167.839l-6.844,3.166s10.123,36.818-4.532,93.537l12.665,2.927s13.7-41.08,12.454-96.473l-13.752-3.166Z" transform="translate(-311.803 -66.633)" fill="#1c466d"/>
    <path id="Trazado_717235" data-name="Trazado 717235" d="M877.073,168.039l3.188,1.473a4.983,4.983,0,0,1,2.809,5.5c-2.091,10.769-6.521,43.694,5.38,89.735l-12.666,2.927s-13.7-41.08-12.454-96.473l13.753-3.166Z" transform="translate(-344.372 -66.712)" fill="#1c466d"/>
    <path id="Trazado_717236" data-name="Trazado 717236" d="M845.16,143.96a15.306,15.306,0,0,1-5.177,2.835,6.931,6.931,0,0,1-4.9-1.169l-2.884-1.979-1.16,14.267.323.313a10.056,10.056,0,0,0,14.443.129l.617-.589Z" transform="translate(-331.508 -56.974)" fill="#de9a8c"/>
    <path id="Trazado_717237" data-name="Trazado 717237" d="M849.346,96.43a65.644,65.644,0,0,1-1.768,15.335c-.885,3.718-3.418,6.323-7,8.431l-.654.387a12.964,12.964,0,0,1-12.583.193c-3.905-2.126-6.651-4.942-7.507-8.928a95.119,95.119,0,0,1-1.768-15.271s-1.308-16.752,15.567-16.531,15.715,16.375,15.715,16.375Z" transform="translate(-326.316 -31.572)" fill="#de9a8c"/>
    <path id="Trazado_717238" data-name="Trazado 717238" d="M831.1,116.089a1.363,1.363,0,1,0-1.363-1.362A1.363,1.363,0,0,0,831.1,116.089Z" transform="translate(-330.987 -44.88)" fill="#1e0b02"/>
    <path id="Trazado_717239" data-name="Trazado 717239" d="M853.4,116.089a1.363,1.363,0,1,0-1.363-1.362A1.363,1.363,0,0,0,853.4,116.089Z" transform="translate(-339.893 -44.88)" fill="#1e0b02"/>
    <path id="Trazado_717240" data-name="Trazado 717240" d="M841.1,121.134v2.458h1.658" transform="translate(-335.526 -47.983)" fill="none" stroke="#99601d" stroke-linecap="round" stroke-linejoin="round" stroke-width="0.7"/>
    <path id="Trazado_717241" data-name="Trazado 717241" d="M823.539,104.193l8.917-.8s-.8-2.311-4.4-1.933c-3.694.387-4.514,2.743-4.514,2.743Z" transform="translate(-328.512 -40.109)"/>
    <path id="Trazado_717242" data-name="Trazado 717242" d="M855.89,104.193l-8.916-.8s.8-2.311,4.4-1.933c3.694.387,4.514,2.743,4.514,2.743Z" transform="translate(-337.872 -40.109)"/>
    <path id="Trazado_717243" data-name="Trazado 717243" d="M834.275,128.521a7.456,7.456,0,0,0,5.9,1.27" transform="translate(-332.8 -50.933)" fill="none" stroke="#000" stroke-linecap="round" stroke-linejoin="round" stroke-width="0.7"/>
    <path id="Trazado_717244" data-name="Trazado 717244" d="M818.831,89.105s10.989-8.505,30.839,0c0,0-1.75-12.353-15.42-12.353S818.831,89.105,818.831,89.105Z" transform="translate(-326.632 -30.258)" fill="#fff"/>
    <path id="Trazado_717245" data-name="Trazado 717245" d="M851.1,91.449a23.2,23.2,0,0,0-14.425-19.293,19.157,19.157,0,0,0-14.213-.028,23.177,23.177,0,0,0-14.6,19.32c-1.584,14.893,10.16,30.007,10.16,30.007l11.376-2.789,11.689,2.789S852.682,106.342,851.1,91.449ZM832.454,116.43A7.244,7.244,0,0,1,826,116.4c-7.71-3.912-11.671-13.273-11.2-23.564.267-5.78,3.73-9.83,7.222-12.463a12.373,12.373,0,0,1,14.913,0c3.491,2.632,6.955,6.683,7.222,12.463.479,10.328-3.85,19.734-11.707,23.592Z" transform="translate(-322.192 -27.871)" fill="#3d8dc0"/>
    <path id="Trazado_717246" data-name="Trazado 717246" d="M816.4,150.421l-15.761,10.465s20.2,16.817,53.048.884l-16.479-11.349Z" transform="translate(-319.368 -59.68)" fill="#3d8dc0"/>
    <path id="Trazado_717247" data-name="Trazado 717247" d="M824.874,152.336a14.306,14.306,0,0,0,11.394,3.627" transform="translate(-329.045 -60.445)" fill="none" stroke="#b0d3e9" stroke-linecap="round" stroke-linejoin="round" stroke-width="0.67"/>
    <path id="Trazado_717248" data-name="Trazado 717248" d="M823.539,165.314a40.831,40.831,0,0,0,32.442-2.679" transform="translate(-328.512 -64.558)" fill="none" stroke="#b0d3e9" stroke-linecap="round" stroke-linejoin="round" stroke-width="0.67"/>
    <path id="Trazado_717249" data-name="Trazado 717249" d="M832.833,149.345A13.335,13.335,0,0,0,843.74,146.3" transform="translate(-332.224 -58.033)" fill="none" stroke="#b0d3e9" stroke-linecap="round" stroke-linejoin="round" stroke-width="0.67"/>
    <path id="Trazado_717250" data-name="Trazado 717250" d="M860.63,152.336s-.875,1.86-3.979,2.264" transform="translate(-341.737 -60.445)" fill="none" stroke="#b0d3e9" stroke-linecap="round" stroke-linejoin="round" stroke-width="0.67"/>
  </g>
</svg>
