<svg xmlns="http://www.w3.org/2000/svg" xmlns:xlink="http://www.w3.org/1999/xlink" width="576" height="288" viewBox="0 0 576 288">
  <defs>
    <clipPath id="clip-path">
      <rect id="Rectángulo_347311" data-name="Rectángulo 347311" width="576" height="288" transform="translate(0)" fill="#fff"/>
    </clipPath>
  </defs>
  <g id="Recurso_2_1_1_" data-name="Recurso 2 1 (1)" clip-path="url(#clip-path)">
    <path id="Trazado_716518" data-name="Trazado 716518" d="M78.1,298.9c-32.526-.651-89.312-29.735-76.149-77.089s75.971-58.463,99.615-48.706,17,36.54,61.21,32.617,29.083,95.452-84.685,93.178Z" transform="translate(-0.001 -68.05)" fill="#95cbee"/>
    <path id="Trazado_716519" data-name="Trazado 716519" d="M171.4,221.438s-12.351-6.172-14.085,1.133C155.85,228.717,168.767,229,168.767,229Z" transform="translate(-62.977 -87.737)" fill="#a86060"/>
    <path id="Trazado_716520" data-name="Trazado 716520" d="M199.84,186.9c-3.375,4.311-7.368,16.317-10.735,19.293-1.446,1.277-12.2.66-12.2.66l-1.946,8.226c.626.152,20.42,2.672,24.016.051,4.669-3.407,18.567-27.858,15.133-30.25-.922-.643-11.716-1.243-14.271,2.029Z" transform="translate(-70.094 -73.866)" fill="#a86060"/>
    <path id="Trazado_716521" data-name="Trazado 716521" d="M227.737,184.868c-.922-.643-11.716-1.243-14.271,2.029a49.137,49.137,0,0,0-4.492,8.285,46.548,46.548,0,0,0,13.5,6.476c4-7.609,7.106-15.514,5.27-16.783Z" transform="translate(-83.72 -73.86)" fill="#ffa031"/>
    <path id="Trazado_716522" data-name="Trazado 716522" d="M245.164,139.732c-.034,4.287-1.557,11.2-5.888,10.932-6.683-.432-16.876-8.269-16.876-8.269s-6.065-10.9.829-13.062c3.316-1.048,4.12,1.793,7.571,1.548s6.793-.473,9.246,3.044c2.707,3.9,5.143,2.2,5.118,5.825Z" transform="translate(-88.111 -51.721)" fill="#1c466d"/>
    <path id="Trazado_716523" data-name="Trazado 716523" d="M192.813,458.306l.474-10.839,10.016-.406-.288,10.374.228,7.262a2.635,2.635,0,0,1-2.631,2.714h-19.05a2.79,2.79,0,0,1-.8-5.462l12.063-3.635Z" transform="translate(-71.619 -179.104)" fill="#c17474"/>
    <path id="Trazado_716524" data-name="Trazado 716524" d="M203,464.364c-5.642,3.475-10.2.87-10.2.87l-12.063,3.636a2.79,2.79,0,0,0,.8,5.461h19.05a2.636,2.636,0,0,0,2.631-2.714l-.228-7.263Z" transform="translate(-71.608 -186.032)" fill="#ffa031"/>
    <path id="Trazado_716525" data-name="Trazado 716525" d="M199.916,383.424c-1.835-1.606-1.649-46.652-1.175-60.238a175.979,175.979,0,0,1,9.076-48.14l10.159,2.054,11.581,1.48s4.069,19.657-1.946,32.043c-6.293,12.961-13.966,70.916-15.6,72.683-1.3,1.4-10.684,1.353-12.088.119Z" transform="translate(-79.492 -110.19)" fill="#1c466d"/>
    <path id="Trazado_716526" data-name="Trazado 716526" d="M259.964,458.306l-.541-10.839,10.016-.406.728,10.374.228,7.262a2.636,2.636,0,0,1-2.631,2.714h-19.05a2.79,2.79,0,0,1-.8-5.462l12.062-3.635Z" transform="translate(-98.521 -179.104)" fill="#c17474"/>
    <path id="Trazado_716527" data-name="Trazado 716527" d="M270.16,464.364c-5.642,3.475-10.2.87-10.2.87L247.9,468.87a2.79,2.79,0,0,0,.8,5.461h19.05a2.63,2.63,0,0,0,2.631-2.714l-.228-7.263Z" transform="translate(-98.516 -186.032)" fill="#ffa031"/>
    <path id="Trazado_716528" data-name="Trazado 716528" d="M261.1,275.631l-11.555-.6-11.919,2.393s.973,41.91,4.247,56.755c2.216,10.027,11.581,48.132,13.222,49.907,1.3,1.4,11.115,1.378,12.613-1.073,1.082-1.759-2.733-50.026-1.819-82.651.44-15.852-4.8-24.738-4.8-24.738Z" transform="translate(-95.198 -110.184)" fill="#1c466d"/>
    <path id="Trazado_716529" data-name="Trazado 716529" d="M215.028,201.546s-.161,16.216-2.622,36.676a3.109,3.109,0,0,0,2.224,3.2c7.985,2.063,27.882,2.063,37.119-.313a2.39,2.39,0,0,0,1.8-2.35c-.085-4.38-1.142-21.39-2.031-33.937-1.4-19.741-8.527-19.378-12.782-19.564-5.49-.237-12.706.515-22.213,2.587a82.335,82.335,0,0,0-1.489,13.7Z" transform="translate(-85.087 -74.204)" fill="#ffa031"/>
    <path id="Trazado_716530" data-name="Trazado 716530" d="M236.451,293.89c.169,0,.321,1.928.566,5.039s.559,7.414.973,12.157c.44,4.743.83,9.03,1.117,12.149a29.291,29.291,0,0,1,.313,5.056c-.355.059-1.735-7.583-2.555-17.112-.414-4.76-.609-9.089-.643-12.217S236.307,293.89,236.451,293.89Z" transform="translate(-94.633 -117.739)" fill="#3b6fad"/>
    <path id="Trazado_716531" data-name="Trazado 716531" d="M231.568,176.073s-.068-1.108-.068-5.335l12.9-7.085s-.228,9.883-.161,12.944c0,0-9.169,11.878-12.663-.533Z" transform="translate(-92.745 -65.563)" fill="#a86060"/>
    <path id="Trazado_716532" data-name="Trazado 716532" d="M224.094,147.257c-1.447,12.809,3.147,18.642,8.78,18.22,4.331-.321,7.977-5.512,9.1-9.993,2.445-.144,3.2-3.787,2.36-4.582-.855-.812-2.25.431-2.25.431-1.413.245-3.485-.346-4.788-3.095C235.886,145.245,227.875,142.429,224.094,147.257Z" transform="translate(-89.67 -57.952)" fill="#c17474"/>
    <path id="Trazado_716533" data-name="Trazado 716533" d="M226.652,158.786c-.043.634-.432,1.124-.871,1.091s-.761-.566-.719-1.2.432-1.124.871-1.091S226.694,158.153,226.652,158.786Z" transform="translate(-90.164 -63.132)" fill="#45555e"/>
    <path id="Trazado_716534" data-name="Trazado 716534" d="M226.861,155.826c-.186.169-.727-.186-1.446-.3-.719-.135-1.388-.067-1.472-.287-.1-.2.6-.71,1.616-.541a1.9,1.9,0,0,1,1.108.592c.22.245.262.457.186.533Z" transform="translate(-89.713 -61.964)" fill="#45555e"/>
    <path id="Trazado_716535" data-name="Trazado 716535" d="M241.292,159.764c-.042.634.279,1.167.719,1.2s.829-.456.871-1.09-.279-1.167-.719-1.2S241.334,159.129,241.292,159.764Z" transform="translate(-96.666 -63.568)" fill="#45555e"/>
    <path id="Trazado_716536" data-name="Trazado 716536" d="M240.586,156.763c-.068-.085,0-.3.245-.507a1.877,1.877,0,0,1,1.176-.448c1.032-.05,1.666.541,1.539.735-.11.2-.77.059-1.5.11-.719.017-1.3.3-1.471.118Z" transform="translate(-96.375 -62.419)" fill="#45555e"/>
    <path id="Trazado_716537" data-name="Trazado 716537" d="M232.484,156.487s.161,2.714-.871,3.618" transform="translate(-92.79 -62.693)" fill="none" stroke="#d88b8b" stroke-linecap="round" stroke-miterlimit="10" stroke-width="1.3"/>
    <path id="Trazado_716538" data-name="Trazado 716538" d="M242.161,162.024s.034-1.9-1.471-1.8-1.413,2.926-2.115,2.833-10.074-1.336-14.067-.541c-.372.27.076,8.539,6.768,9.164S241.62,168.22,242.161,162.024Z" transform="translate(-89.906 -64.187)" fill="#1c466d"/>
    <path id="Trazado_716539" data-name="Trazado 716539" d="M232.689,165.827a3.1,3.1,0,0,0-2.107-.195" transform="translate(-92.377 -66.317)" fill="none" stroke="#d88b8b" stroke-linecap="round" stroke-miterlimit="10" stroke-width="1"/>
    <path id="Trazado_716540" data-name="Trazado 716540" d="M181.26,202.407s-8.755-9.19-12.207-3.289c-2.9,4.963,7.774,9.215,7.774,9.215Z" transform="translate(-67.526 -78.98)" fill="#c17474"/>
    <path id="Trazado_716541" data-name="Trazado 716541" d="M216.5,200.2c-4.568,2.469-8.764,5.191-10.617,5.732-3.4.981-19.092-2.291-19.092-2.291l-4.433,5.927c.33.482,18.881,8.337,24.8,8.641,2.039.1,8.468-1.928,14.372-4.151a42.167,42.167,0,0,1-5.025-13.848Z" transform="translate(-73.057 -80.205)" fill="#c17474"/>
    <path id="Trazado_716542" data-name="Trazado 716542" d="M253.842,191.3c0,.059-.2.118-.567.186s-.888.127-1.531.254a27.657,27.657,0,0,0-4.89,1.37c-3.73,1.412-6.446,3.247-6.581,3.052-.152-.177,2.42-2.384,6.277-3.847a18.087,18.087,0,0,1,5.118-1.175,7.891,7.891,0,0,1,1.59.017C253.631,191.189,253.842,191.24,253.842,191.3Z" transform="translate(-96.257 -76.562)" fill="#c6943c"/>
    <path id="Trazado_716543" data-name="Trazado 716543" d="M261.5,209.3c.051.034-.042.236-.245.592a8.546,8.546,0,0,1-1.032,1.386,18.323,18.323,0,0,1-4.467,3.484c-3.84,2.215-7.376,3.044-7.435,2.79-.059-.195,3.274-1.361,7.013-3.517a26.85,26.85,0,0,0,4.466-3.171c.508-.482.931-.871,1.193-1.166C261.273,209.415,261.451,209.271,261.5,209.3Z" transform="translate(-99.484 -83.848)" fill="#c6943c"/>
    <path id="Trazado_716544" data-name="Trazado 716544" d="M252.56,101.015l-.753,7.271a1.251,1.251,0,0,1-1.514,1.091l-2.538-.558-1.929,6.154a.377.377,0,0,1-.736-.135l.55-8.175a1.258,1.258,0,0,1,1.4-1.159l2.758.355,2.03-5.022A.379.379,0,0,1,252.56,101.015Z" transform="translate(-98.189 -40.303)" fill="#f2c68c"/>
    <path id="Trazado_716545" data-name="Trazado 716545" d="M268.43,116.87l-3.256,4.117a.893.893,0,0,1-1.337.076l-1.32-1.319-3.544,2.993a.272.272,0,0,1-.4-.363l3.485-4.743a.9.9,0,0,1,1.294-.161l1.531,1.277,3.172-2.257a.272.272,0,0,1,.372.389Z" transform="translate(-103.57 -46.647)" fill="#f2c68c"/>
    <path id="Trazado_716546" data-name="Trazado 716546" d="M230.767,103.48l2.851,4.413a.9.9,0,0,1-.355,1.293l-1.675.829,1.683,4.32a.27.27,0,0,1-.474.254l-3.367-4.836a.9.9,0,0,1,.271-1.276l1.7-1.04-1.117-3.729a.274.274,0,0,1,.491-.228Z" transform="translate(-91.851 -41.406)" fill="#f2c68c"/>
    <path id="Trazado_716547" data-name="Trazado 716547" d="M82.183,144.361s1.54-11.219-10.785-10.467-12.579,14.339-12.333,19.649-17.874,3.424-19.71,14.821c-2.166,13.468,15.692,19.133,24.692,11.743s9.813-30.58,9.813-30.58l8.315-5.158Z" transform="translate(-15.694 -53.627)" fill="#090909"/>
    <path id="Trazado_716548" data-name="Trazado 716548" d="M65.922,191.391c-1.21,4.743-24.109,15.142-26.722,21.145-1.244,2.84-7.106,19.454-7.106,19.454l-7.994.456c-.254-.592.059-21.762,2.775-27.689,2.394-5.225,19.219-20.865,31.113-21.677,7.579-.516,9.863.769,7.935,8.294Z" transform="translate(-9.627 -73.306)" fill="#076160"/>
    <path id="Trazado_716549" data-name="Trazado 716549" d="M31.575,264.762s2.563,13.561-4.949,13.231c-6.319-.279-3.045-12.767-3.045-12.767l7.994-.456Z" transform="translate(-9.108 -106.07)" fill="#f9cebd"/>
    <path id="Trazado_716550" data-name="Trazado 716550" d="M148.758,159.181s-2.935-13.485,4.585-13.358c6.319.1,3.4,12.682,3.4,12.682l-7.985.684Z" transform="translate(-59.37 -58.42)" fill="#f9cebd"/>
    <path id="Trazado_716551" data-name="Trazado 716551" d="M88.025,176.957c.947-1.573,25.005,3.229,31.07.752,1.793-.727,4.382-11.617,4.382-11.617h8.307c-.177.617-1.878,21.534-6.784,24.146-5.076,2.7-38.709,6.316-39.3,2.173-.313-2.207.651-12.682,2.318-15.447Z" transform="translate(-34.31 -66.541)" fill="#076160"/>
    <path id="Trazado_716552" data-name="Trazado 716552" d="M117.942,457.908l-.482-11.024-10.185-.414.288,10.551-.228,7.381a2.675,2.675,0,0,0,2.673,2.757h21.774a1,1,0,0,0,.457-1.886l-14.3-7.364Z" transform="translate(-42.977 -178.867)" fill="#f9cebd"/>
    <path id="Trazado_716553" data-name="Trazado 716553" d="M94.987,382.58a4.208,4.208,0,0,1-4.212-4.05c-.406-10.526-1.227-36.489-2.775-48-2.436-18.194-15.218-44.868-15.218-44.868l3.967-16.918,22.7,1.175s12.376,22.912,12.325,59.486c-.017,13.248-3.739,40.074-5.355,49.67a4.205,4.205,0,0,1-4.153,3.509H94.987Z" transform="translate(-29.158 -107.663)" fill="#478cbf"/>
    <path id="Trazado_716554" data-name="Trazado 716554" d="M39.954,458.3l1.489-10.441-10.185-.414-1.675,9.968-.228,7.381a2.676,2.676,0,0,0,2.673,2.756H53.8a1,1,0,0,0,.457-1.886Z" transform="translate(-11.76 -179.257)" fill="#f9cebd"/>
    <path id="Trazado_716555" data-name="Trazado 716555" d="M33.031,381.834h7.08c1.962,0,3.341-1.462,4.111-3.272,21.469-50.339,23.965-101.725,23.965-101.725l-5.482-8.852-17.468-1.108a49.3,49.3,0,0,0-8.772,21.881c-2.445,16.917,3.257,27-7.639,88.628-.423,2.384,1.793,4.447,4.213,4.447Z" transform="translate(-11.528 -106.917)" fill="#478cbf"/>
    <path id="Trazado_716556" data-name="Trazado 716556" d="M95.06,286.887c.313.051-.584,6.612-2.462,14.55-1.853,7.947-4.01,14.212-4.289,14.119-.313-.093,1.353-6.468,3.2-14.381,1.869-7.905,3.257-14.347,3.553-14.3Z" transform="translate(-35.364 -114.931)" fill="#60b4e8"/>
    <path id="Trazado_716557" data-name="Trazado 716557" d="M93.348,203.945a268.937,268.937,0,0,0-.533,29.946,2.64,2.64,0,0,1-2.081,2.985c-7.342.853-28,.245-35.824-1.184-1.6-.3-3.071-1.733-2.749-3.331,3.5-17.121.99-36.954,5.744-43.084,6.6-8.514,22.349-6.907,32.517-2.393,4.576,2.029,3.189,13.307,2.927,17.07Z" transform="translate(-20.879 -73.391)" fill="#076160"/>
    <path id="Trazado_716558" data-name="Trazado 716558" d="M94.963,175.6v-6.45l-9.931-5.978v11.989s5.008,9.714,7.393,9.714C94.447,184.876,94.963,175.6,94.963,175.6Z" transform="translate(-34.066 -65.371)" fill="#edb2a2"/>
    <path id="Trazado_716559" data-name="Trazado 716559" d="M98.257,149.154c.051,11.82-3.054,15.827-6.454,16.241-4.272.524-8.138-2.528-10.3-9.046-2.233-.279-2.834-4.109-1.5-5.208.837-.693,1.5.515,1.5.515s8.1-.406,11.944-5.834a5.5,5.5,0,0,1,4.813,3.34Z" transform="translate(-31.769 -58.42)" fill="#f9cebd"/>
    <path id="Trazado_716560" data-name="Trazado 716560" d="M93.663,161.238c.4,0,.728-.473.728-1.057s-.326-1.057-.728-1.057-.727.473-.727,1.057S93.262,161.238,93.663,161.238Z" transform="translate(-37.232 -63.749)" fill="#45555e"/>
    <path id="Trazado_716561" data-name="Trazado 716561" d="M94.368,157.515c-.118.127-.626-.237-1.328-.313-.7-.093-1.32.051-1.379-.093-.076-.126.55-.575,1.447-.465a1.891,1.891,0,0,1,1.024.448C94.343,157.288,94.411,157.465,94.368,157.515Z" transform="translate(-36.719 -62.749)" fill="#45555e"/>
    <path id="Trazado_716562" data-name="Trazado 716562" d="M107.12,159.8c0,.584.33,1.057.727,1.057s.728-.474.728-1.057-.33-1.057-.728-1.057S107.12,159.218,107.12,159.8Z" transform="translate(-42.915 -63.597)" fill="#45555e"/>
    <path id="Trazado_716563" data-name="Trazado 716563" d="M106.252,157.017c-.043-.059.042-.22.279-.389a1.8,1.8,0,0,1,1.066-.338c.905-.017,1.48.49,1.4.617s-.668-.067-1.379-.05c-.7,0-1.244.3-1.353.169Z" transform="translate(-42.563 -62.613)" fill="#45555e"/>
    <path id="Trazado_716564" data-name="Trazado 716564" d="M103.552,165.505a1.149,1.149,0,1,1-1.117-.879A1.022,1.022,0,0,1,103.552,165.505Z" transform="translate(-40.591 -65.953)" fill="#702f2f"/>
    <path id="Trazado_716565" data-name="Trazado 716565" d="M101.573,166.768a1.164,1.164,0,0,0,.973.439,1.57,1.57,0,0,0,.347-.042,1.175,1.175,0,0,0-.964-.465A1.629,1.629,0,0,0,101.573,166.768Z" transform="translate(-40.693 -66.784)" fill="#ff5c5c"/>
    <path id="Trazado_716566" data-name="Trazado 716566" d="M102.378,158.011a8.085,8.085,0,0,0,.626,2.773" transform="translate(-41.015 -63.303)" fill="none" stroke="#f4a589" stroke-linecap="round" stroke-miterlimit="10" stroke-width="1.3"/>
    <path id="Trazado_716567" data-name="Trazado 716567" d="M32.028,474.224H53.8a1,1,0,0,0,.457-1.886l-14.3-7.364s-6.75,1.742-10.371-.888l-.228,7.381A2.676,2.676,0,0,0,32.028,474.224Z" transform="translate(-11.76 -185.925)" fill="#ffa031"/>
    <path id="Trazado_716568" data-name="Trazado 716568" d="M132.242,472.757l-14.3-7.364a15.864,15.864,0,0,1-10.4-.262l-.212,6.756A2.676,2.676,0,0,0,110,474.642h21.774a1,1,0,0,0,.457-1.886Z" transform="translate(-42.998 -186.343)" fill="#ffa031"/>
    <path id="Trazado_716569" data-name="Trazado 716569" d="M109.087,90.362c-2.571-5.605-.761-23.952,18.712-20.282s17.849,19.065,12.1,24.493C135.167,99.036,114.358,101.86,109.087,90.362Z" transform="translate(-43.335 -27.883)" fill="#efc483"/>
    <path id="Trazado_716570" data-name="Trazado 716570" d="M128.83,113.113a37.816,37.816,0,0,0,.389,4.869c.17,1.488.322,2.9.364,4.219a13.54,13.54,0,0,1-1.125,6.578,10.91,10.91,0,0,1-2.944,3.433c-.931.626-1.455,1.082-1.379,1.277s.736.11,1.946-.254c.288-.119.6-.279.939-.457a4.9,4.9,0,0,0,1.074-.659,12.1,12.1,0,0,0,1.125-.955,11.506,11.506,0,0,0,3.138-8.979,43,43,0,0,0-.2-4.506c-.135-1.513-.33-3.078-.313-4.489Z" transform="translate(-49.729 -45.316)" fill="#efc483"/>
    <path id="Trazado_716571" data-name="Trazado 716571" d="M133.994,87.846a1.407,1.407,0,0,1,1.554-1.249,1.3,1.3,0,0,1,.919.524,1.371,1.371,0,0,1-.214,1.966,1.3,1.3,0,0,1-1.011.314,1.407,1.407,0,0,1-1.249-1.554Zm1.242-10.9a.976.976,0,0,1,.451-.761,1.492,1.492,0,0,1,1-.2,1.391,1.391,0,0,1,.894.41.958.958,0,0,1,.3.843q-.12,1.092-.534,3.718t-.532,3.7a.681.681,0,0,1-.411.563,1.346,1.346,0,0,1-.732.123q-1.074-.117-.987-.918.117-1.074.277-3.727T135.236,76.948Z" transform="translate(-53.678 -30.435)" fill="#a25f0e"/>
    <path id="Trazado_716572" data-name="Trazado 716572" d="M756.621,280.573c-30.326,4.532-90.9-3.585-98.329-28.872-6.108-20.8,28.169-27.833,28.465-37.86.4-13.325-39.885-26.336-21.376-50.719,23.44-30.867,178.809-8.877,173.92,58.633C836.526,260.147,780.357,277.023,756.621,280.573Z" transform="translate(-263.436 -59.859)" fill="#95cbee"/>
    <path id="Trazado_716573" data-name="Trazado 716573" d="M671.059,268.316s4.069,12.817-3.232,13.375c-6.141.473-4.449-11.989-4.449-11.989Z" transform="translate(-265.68 -107.494)" fill="#c17474"/>
    <path id="Trazado_716574" data-name="Trazado 716574" d="M704.267,189.766c-1.21,4.743-26.629,21.584-28.8,27.773-.474,1.353-2.276,14.863-3.4,19.166a2.29,2.29,0,0,1-2.106,1.708l-5.287.254a2.29,2.29,0,0,1-2.4-2.451c.406-5.656-1.006-19.775.364-24.746.82-2.993,9.372-17.619,16.613-23.014,5.49-4.092,17.451-3.956,17.451-3.956,7.6.186,9.5-2.257,7.571,5.276Z" transform="translate(-265.22 -73.82)" fill="#097170"/>
    <path id="Trazado_716575" data-name="Trazado 716575" d="M785.072,184.194s.483-11.524,7.7-9.427c5.608,1.632.474,12.606.474,12.606l-8.18-3.179Z" transform="translate(-314.516 -69.914)" fill="#c17474"/>
    <path id="Trazado_716576" data-name="Trazado 716576" d="M732.309,184.892c.922-.643,9.779-1.116,14.271,2.029,3.57,2.5,10.168,11.827,10.608,11.633.558-.245,4.171-7.161,5.126-9.588a2.1,2.1,0,0,1,2.656-1.217l6.031,2.08a2.1,2.1,0,0,1,1.345,2.562c-1.277,4.591-6.877,20.832-11.361,22.286-4.923,1.6-13.036-4.8-17.164-9.722l-11.5-20.055" transform="translate(-293.381 -73.884)" fill="#097170"/>
    <path id="Trazado_716577" data-name="Trazado 716577" d="M716.409,149.861c6.26,2.375,16.876-8.269,16.876-8.269s5.118-3.39,2.868-10.3c-1.963-6.02-10.667-4.658-12.791-1.564-2.876,4.194-7.951,1.632-10.726,4.3C710.192,136.384,708.034,146.673,716.409,149.861Z" transform="translate(-284.62 -50.917)" fill="#050505"/>
    <path id="Trazado_716578" data-name="Trazado 716578" d="M763.389,458.306l-.474-10.839-10.016-.406.288,10.374-.228,7.262a2.635,2.635,0,0,0,2.631,2.714h19.05a2.79,2.79,0,0,0,.8-5.462l-12.063-3.635Z" transform="translate(-301.63 -179.104)" fill="#c17474"/>
    <path id="Trazado_716579" data-name="Trazado 716579" d="M753.232,464.364c5.642,3.475,10.2.87,10.2.87L775.5,468.87a2.79,2.79,0,0,1-.8,5.461h-19.05a2.63,2.63,0,0,1-2.631-2.714l.228-7.263Z" transform="translate(-301.675 -186.032)" fill="#478cbf"/>
    <path id="Trazado_716580" data-name="Trazado 716580" d="M750.974,383.424c1.835-1.606,1.65-46.652,1.175-60.238a175.98,175.98,0,0,0-9.076-48.14L732.913,277.1l-11.581,1.48s-4.069,19.657,1.946,32.043c6.293,12.961,13.966,70.916,15.6,72.683,1.3,1.4,10.684,1.353,12.088.119Z" transform="translate(-288.444 -110.19)" fill="#1c466d"/>
    <path id="Trazado_716581" data-name="Trazado 716581" d="M696.263,458.306l.542-10.839-10.016-.406-.728,10.374-.228,7.262a2.635,2.635,0,0,0,2.631,2.714h19.05a2.79,2.79,0,0,0,.8-5.462l-12.063-3.635Z" transform="translate(-274.761 -179.104)" fill="#c17474"/>
    <path id="Trazado_716582" data-name="Trazado 716582" d="M686.081,464.364c5.642,3.475,10.2.87,10.2.87l12.063,3.636a2.79,2.79,0,0,1-.8,5.461h-19.05a2.63,2.63,0,0,1-2.631-2.714l.228-7.263Z" transform="translate(-274.772 -186.032)" fill="#478cbf"/>
    <path id="Trazado_716583" data-name="Trazado 716583" d="M691.266,275.631l11.555-.6,11.919,2.393s-.973,41.91-4.247,56.755c-2.216,10.027-11.589,48.132-13.222,49.907-1.3,1.4-11.115,1.378-12.613-1.073-1.083-1.759,2.733-50.026,1.819-82.651-.44-15.852,4.8-24.738,4.8-24.738Z" transform="translate(-274.213 -110.184)" fill="#1c466d"/>
    <path id="Trazado_716584" data-name="Trazado 716584" d="M730.058,202.4s1.624,16.63,2.622,36.676a3.234,3.234,0,0,1-2.224,3.2c-7.985,2.063-27.882,2.063-37.119-.313a2.389,2.389,0,0,1-1.8-2.35c.085-4.38.939-20.1.922-34.368-.025-15.463,8.907-17.324,13.162-17.51,5.49-.237,13.425-1.116,22.941.964a82.336,82.336,0,0,1,1.489,13.7Z" transform="translate(-277.046 -75.058)" fill="#097170"/>
    <path id="Trazado_716585" data-name="Trazado 716585" d="M733.975,293.89c.144,0,.271,1.944.228,5.073s-.228,7.457-.643,12.217c-.821,9.528-2.2,17.171-2.555,17.112a29.159,29.159,0,0,1,.313-5.056c.288-3.111.677-7.406,1.117-12.149.414-4.743.736-9.046.973-12.157S733.806,293.882,733.975,293.89Z" transform="translate(-292.839 -117.739)" fill="#3b6fad"/>
    <path id="Trazado_716586" data-name="Trazado 716586" d="M732.361,176.132s.118-1.175.118-5.394l-12.9-7.085s.237,9.528.169,12.589c0,0,9.11,12.3,12.6-.11Z" transform="translate(-288.281 -65.563)" fill="#a86060"/>
    <path id="Trazado_716587" data-name="Trazado 716587" d="M734.577,147.257c1.447,12.809-3.147,18.642-8.78,18.22-4.331-.321-7.977-5.512-9.1-9.993-2.445-.144-3.2-3.787-2.36-4.582.855-.812,2.25.431,2.25.431,1.413.245,3.485-.346,4.788-3.095C722.785,145.245,730.8,142.429,734.577,147.257Z" transform="translate(-286.048 -57.952)" fill="#c17474"/>
    <path id="Trazado_716588" data-name="Trazado 716588" d="M744.867,158.786c.042.634.431,1.124.871,1.091s.761-.566.719-1.2-.432-1.124-.871-1.091S744.825,158.153,744.867,158.786Z" transform="translate(-298.411 -63.132)" fill="#45555e"/>
    <path id="Trazado_716589" data-name="Trazado 716589" d="M743.746,155.826c-.076-.076-.034-.288.186-.533a1.96,1.96,0,0,1,1.108-.592c1.015-.169,1.726.338,1.616.541-.085.22-.753.152-1.472.287-.71.11-1.26.465-1.446.3Z" transform="translate(-297.949 -61.964)" fill="#45555e"/>
    <path id="Trazado_716590" data-name="Trazado 716590" d="M730.241,159.764c.042.634-.279,1.167-.719,1.2s-.829-.456-.872-1.09.279-1.167.719-1.2S730.2,159.129,730.241,159.764Z" transform="translate(-291.914 -63.568)" fill="#45555e"/>
    <path id="Trazado_716591" data-name="Trazado 716591" d="M729.989,156.758c-.161.186-.744-.1-1.472-.118-.727-.043-1.387.1-1.5-.11-.126-.194.516-.777,1.54-.735a1.948,1.948,0,0,1,1.176.448c.245.219.313.423.245.507Z" transform="translate(-291.255 -62.414)" fill="#45555e"/>
    <path id="Trazado_716592" data-name="Trazado 716592" d="M739.515,156.487s-.161,2.714.871,3.618" transform="translate(-296.264 -62.693)" fill="none" stroke="#d88b8b" stroke-linecap="round" stroke-miterlimit="10" stroke-width="1.3"/>
    <path id="Trazado_716593" data-name="Trazado 716593" d="M738.505,165.827a3.1,3.1,0,0,1,2.106-.195" transform="translate(-295.863 -66.317)" fill="none" stroke="#d88b8b" stroke-linecap="round" stroke-miterlimit="10" stroke-width="1"/>
    <path id="Trazado_716594" data-name="Trazado 716594" d="M715.047,101.015l.753,7.271a1.251,1.251,0,0,0,1.515,1.091l2.538-.558,1.928,6.154a.377.377,0,0,0,.736-.135l-.55-8.175a1.258,1.258,0,0,0-1.4-1.159l-2.758.355-2.03-5.022A.379.379,0,0,0,715.047,101.015Z" transform="translate(-286.464 -40.303)" fill="#f2c68c"/>
    <path id="Trazado_716595" data-name="Trazado 716595" d="M697.507,116.87l3.256,4.117a.893.893,0,0,0,1.337.076l1.32-1.319,3.544,2.993a.272.272,0,0,0,.4-.363l-3.485-4.743a.9.9,0,0,0-1.294-.161l-1.531,1.277-3.172-2.257a.272.272,0,0,0-.372.389Z" transform="translate(-279.414 -46.647)" fill="#f2c68c"/>
    <path id="Trazado_716596" data-name="Trazado 716596" d="M738.832,103.48l-2.851,4.413a.9.9,0,0,0,.355,1.293l1.675.829-1.683,4.32a.27.27,0,0,0,.474.254l3.367-4.836a.9.9,0,0,0-.271-1.276l-1.7-1.04,1.117-3.729a.274.274,0,0,0-.491-.228Z" transform="translate(-294.795 -41.406)" fill="#f2c68c"/>
    <path id="Trazado_716597" data-name="Trazado 716597" d="M839.1,90.506c1.759-5.91-2.589-23.825-21.359-17.476s-15.015,21.365-8.561,25.938C814.49,102.731,835.485,102.63,839.1,90.506Z" transform="translate(-322.066 -28.72)" fill="#e0ae63"/>
    <path id="Trazado_716598" data-name="Trazado 716598" d="M836.3,114.644a25.979,25.979,0,0,0-.88,5.69,27.145,27.145,0,0,0,.313,5.3,19.82,19.82,0,0,0,3.342,8.328,16.833,16.833,0,0,0,4.281,4.185c1.21.735,1.911,1.04,2.03.87s-.347-.8-1.26-1.759a25.867,25.867,0,0,1-3.249-4.438,20.531,20.531,0,0,1-2.394-7.592,28.265,28.265,0,0,1-.11-4.743,25.828,25.828,0,0,1,.812-4.963l-2.876-.888Z" transform="translate(-334.682 -45.926)" fill="#e0ae63"/>
    <path id="Trazado_716599" data-name="Trazado 716599" d="M825.343,80.971a2.2,2.2,0,0,1,1.069-1.594,4.05,4.05,0,0,1,2.7-.6,4.388,4.388,0,0,1,2.751,1.059,2.653,2.653,0,0,1,.924,2.232,4.384,4.384,0,0,1-2.284,3.2,3.151,3.151,0,0,0-.767.716,2.052,2.052,0,0,0-.321.638,7.2,7.2,0,0,0-.1.856q-.053.749-1.131.672a1,1,0,0,1-.767-.312,1.55,1.55,0,0,1-.15-.984,3.5,3.5,0,0,1,1.422-2.689q.059-.051.5-.35a7.163,7.163,0,0,0,.62-.452,2.7,2.7,0,0,0,.4-.467,1.376,1.376,0,0,0,.251-.68,1.036,1.036,0,0,0-.391-.946,1.991,1.991,0,0,0-1.164-.413,2.126,2.126,0,0,0-1.038.146,1.174,1.174,0,0,0-.565.455,1.827,1.827,0,0,1-.381.45.745.745,0,0,1-.563.18,1.213,1.213,0,0,1-.748-.329A.946.946,0,0,1,825.343,80.971Zm1.287,9.748a1.407,1.407,0,0,1,1.489-1.307,1.314,1.314,0,0,1,.956.49,1.371,1.371,0,0,1-.141,1.973,1.372,1.372,0,0,1-1.973-.141A1.385,1.385,0,0,1,826.63,90.718Z" transform="translate(-330.651 -31.554)" fill="#885a22"/>
    <path id="Trazado_716600" data-name="Trazado 716600" d="M897.628,197.712c1.21,4.743,23.593,16.216,24.219,19.065.381,1.733-4.906,18.862-4.906,18.862l6.09,5.816c.254-.592,12.105-21.043,11.522-27.536-.448-5-10.21-19.927-17.443-25.322-5.49-4.092-17.451-3.956-17.451-3.956C892.062,184.827,895.7,190.179,897.628,197.712Z" transform="translate(-358.577 -73.972)" fill="#f9cebd"/>
    <path id="Trazado_716601" data-name="Trazado 716601" d="M859.659,182.59c-.922-.643-8.891-.617-13.958,1.488-3.688,1.53-14.245,6.856-15.159,6.611l-9.678-12.014-7.038,3.576c2.478,6.163,8.662,21.855,12.976,23.774,2.986,1.327,21.486-4.489,22.273-4.963l10.591-18.473" transform="translate(-326.039 -71.582)" fill="#f9cebd"/>
    <path id="Trazado_716602" data-name="Trazado 716602" d="M816.292,172.417s-1.328-5.182-2.453-6.518c-1.328-1.59-11.081-4.506-11.42-1.682-.186,1.564,3.638,3.61,3.638,3.61a10.886,10.886,0,0,0-.381,3.745c.254,1.919,3.57,4.422,3.57,4.422s5.693-1.032,7.038-3.576Z" transform="translate(-321.466 -65.316)" fill="#f9cebd"/>
    <path id="Trazado_716603" data-name="Trazado 716603" d="M889.129,150.3c-6.674-.533-16.876-8.269-16.876-8.269S868.4,134,869.884,130.9c1.006-2.105,6.784.043,8.391.981,0,0-.11-3.06.948-3.517,2.25-.964,6.936,2.359,8.2,4.387,0,0,4.67,1.226,6.463,2.68s.981,15.336-4.746,14.88Z" transform="translate(-348.361 -51.355)" fill="#a07555"/>
    <path id="Trazado_716604" data-name="Trazado 716604" d="M844.281,458.306l-.787-10.839,10.016-.406.973,10.374.228,7.262a2.635,2.635,0,0,1-2.631,2.714h-19.05a2.79,2.79,0,0,1-.8-5.462l12.063-3.635Z" transform="translate(-332.613 -179.104)" fill="#f9cebd"/>
    <path id="Trazado_716605" data-name="Trazado 716605" d="M854.463,464.364c-5.642,3.475-10.2.87-10.2.87L832.2,468.87a2.79,2.79,0,0,0,.8,5.461h19.05a2.63,2.63,0,0,0,2.631-2.714l-.228-7.263Z" transform="translate(-332.602 -186.032)" fill="#a07555"/>
    <path id="Trazado_716606" data-name="Trazado 716606" d="M844.233,383.424c-1.836-1.606-10.676-38.756-9.982-52.334,1.125-22.058,17.883-56.045,17.883-56.045l10.159,2.054,11.581,1.48s4.069,19.657-1.946,32.043c-1.911,3.931-13.069,17.856-14.66,24.1-2.284,8.962.195,47.345-.939,48.579-1.3,1.4-10.684,1.353-12.088.119Z" transform="translate(-334.206 -110.19)" fill="#ffa031"/>
    <path id="Trazado_716607" data-name="Trazado 716607" d="M909.992,458.306l-.541-10.839,10.016-.406.727,10.374.228,7.262a2.635,2.635,0,0,1-2.631,2.714h-19.05a2.79,2.79,0,0,1-.8-5.462L910,458.315Z" transform="translate(-358.938 -179.104)" fill="#f9cebd"/>
    <path id="Trazado_716608" data-name="Trazado 716608" d="M920.174,464.364c-5.642,3.475-10.2.87-10.2.87L897.91,468.87a2.79,2.79,0,0,0,.8,5.461h19.05a2.63,2.63,0,0,0,2.631-2.714l-.228-7.263Z" transform="translate(-358.927 -186.032)" fill="#a07555"/>
    <path id="Trazado_716609" data-name="Trazado 716609" d="M911.114,275.631l-11.555-.6-11.919,2.393s.973,41.91,4.247,56.755c2.216,10.027,11.581,48.132,13.222,49.907,1.3,1.4,11.115,1.378,12.613-1.073,1.083-1.759-2.732-50.026-1.818-82.651.44-15.852-4.8-24.738-4.8-24.738Z" transform="translate(-355.61 -110.184)" fill="#ffa031"/>
    <path id="Trazado_716610" data-name="Trazado 716610" d="M849.317,186.462c-3.689,1.53-14.245,6.856-15.159,6.611l-2.047-2.536a44.235,44.235,0,0,0-9.28,6.747c2.5,5.259,5.3,10.111,7.571,11.126,2.986,1.327,21.486-4.489,22.273-4.963l10.591-18.473c-.922-.643-8.891-.617-13.958,1.488Z" transform="translate(-329.646 -73.957)" fill="#3076b6"/>
    <path id="Trazado_716611" data-name="Trazado 716611" d="M934.552,213.934c-.448-5-10.21-19.927-17.443-25.322-5.49-4.092-17.451-3.956-17.451-3.956-7.6.186-3.959,5.538-2.03,13.071,1.21,4.743,23.593,16.216,24.219,19.065a14.517,14.517,0,0,1-.618,3.729,48.313,48.313,0,0,0,10.752,3.052C933.6,219.657,934.738,216.056,934.552,213.934Z" transform="translate(-358.577 -73.977)" fill="#3076b6"/>
    <path id="Trazado_716612" data-name="Trazado 716612" d="M865.053,202.4s-1.624,16.63-2.622,36.676a3.234,3.234,0,0,0,2.225,3.2c7.985,2.063,27.881,2.063,37.119-.313a2.391,2.391,0,0,0,1.8-2.35c-.085-4.38-.948-20.1-.922-34.368.025-15.463-8.908-17.324-13.163-17.51-5.49-.237-13.424-1.116-22.941.964a82.416,82.416,0,0,0-1.489,13.7Z" transform="translate(-345.509 -75.058)" fill="#3076b6"/>
    <path id="Trazado_716613" data-name="Trazado 716613" d="M886.453,293.884c.33,0,.652,6.73,1.353,15.007.339,4.143.7,7.888.964,10.593a23.542,23.542,0,0,1,.279,4.413c-.355.068-1.7-6.594-2.36-14.922-.346-4.16-.482-7.939-.49-10.669s.11-4.431.253-4.431Z" transform="translate(-355.033 -117.733)" fill="#c95c3f"/>
    <path id="Trazado_716614" data-name="Trazado 716614" d="M881.675,176.267s-.076-1.073-.161-5.529l12.9-7.085s-.237,9.528-.169,12.589C894.245,176.242,885.177,188.678,881.675,176.267Z" transform="translate(-353.156 -65.563)" fill="#edb2a2"/>
    <path id="Trazado_716615" data-name="Trazado 716615" d="M874.108,147.746c-1.446,12.809,3.147,18.642,8.781,18.22,4.331-.321,7.977-5.512,9.1-9.993,2.444-.144,3.189-3.787,2.36-4.582-.854-.812-2.25.431-2.25.431-1.413.245-3.485-.346-4.788-3.095C885.9,145.734,873.922,144.618,874.108,147.746Z" transform="translate(-350.081 -58.441)" fill="#f9cebd"/>
    <path id="Trazado_716616" data-name="Trazado 716616" d="M876.667,158.786c-.043.634-.432,1.124-.871,1.091s-.761-.566-.719-1.2.431-1.124.871-1.091S876.709,158.153,876.667,158.786Z" transform="translate(-350.575 -63.132)" fill="#45555e"/>
    <path id="Trazado_716617" data-name="Trazado 716617" d="M876.876,155.826c-.186.169-.728-.186-1.447-.3-.719-.135-1.387-.067-1.471-.287-.1-.2.6-.71,1.615-.541a1.9,1.9,0,0,1,1.108.592c.22.245.263.457.186.533Z" transform="translate(-350.125 -61.964)" fill="#45555e"/>
    <path id="Trazado_716618" data-name="Trazado 716618" d="M891.307,159.764c-.043.634.279,1.167.719,1.2s.829-.456.871-1.09-.279-1.167-.719-1.2S891.348,159.129,891.307,159.764Z" transform="translate(-357.078 -63.568)" fill="#45555e"/>
    <path id="Trazado_716619" data-name="Trazado 716619" d="M890.614,156.763c-.068-.085,0-.3.246-.507a1.875,1.875,0,0,1,1.175-.448c1.032-.05,1.667.541,1.54.735-.11.2-.77.059-1.5.11-.719.017-1.3.3-1.472.118Z" transform="translate(-356.792 -62.419)" fill="#45555e"/>
    <path id="Trazado_716620" data-name="Trazado 716620" d="M880.537,165.705a1.395,1.395,0,1,0,1.455-.93A1.238,1.238,0,0,0,880.537,165.705Z" transform="translate(-352.763 -66.009)" fill="#702f2f"/>
    <path id="Trazado_716621" data-name="Trazado 716621" d="M883.558,167.528a1.424,1.424,0,0,1-1.226.423,2.377,2.377,0,0,1-.423-.093,1.463,1.463,0,0,1,1.227-.457A1.844,1.844,0,0,1,883.558,167.528Z" transform="translate(-353.314 -67.063)" fill="#ff5c5c"/>
    <path id="Trazado_716622" data-name="Trazado 716622" d="M882.513,156.487s.161,2.714-.872,3.618" transform="translate(-353.207 -62.693)" fill="none" stroke="#d88b8b" stroke-linecap="round" stroke-miterlimit="10" stroke-width="1.3"/>
    <path id="Trazado_716623" data-name="Trazado 716623" d="M928.468,268.711s-10.532,8.928-4.483,13.392c5.084,3.754,10.413-8.006,10.413-8.006l-5.921-5.385Z" transform="translate(-369.42 -107.652)" fill="#f9cebd"/>
    <path id="Trazado_716624" data-name="Trazado 716624" d="M424.717,198.041c-44.833,2.985-76.242-21.043-79.88-52.13s17.7-82.077,86.909-72.211,140.675,114.5-7.021,124.341Z" transform="translate(-137.994 -29.027)" fill="#95cbee"/>
    <path id="Trazado_716625" data-name="Trazado 716625" d="M415.635,55.987s3.087-9.207-7.224-11.033c-11.369-2-14.55,6.713-14.88,9.638s-6.505.913-8.282,6.747,2.124,7.279-1.911,9.4c-4.67,2.46-11.555,13.409,2.656,16.664s19.447-12.386,19.447-12.386l10.185-19.057Z" transform="translate(-151.236 -17.891)" fill="#020202"/>
    <path id="Trazado_716626" data-name="Trazado 716626" d="M478.952,71.36S476.016,57.875,483.536,58c6.319.1,3.4,12.682,3.4,12.682l-7.985.685Z" transform="translate(-191.654 -23.236)" fill="#f9cebd"/>
    <path id="Trazado_716627" data-name="Trazado 716627" d="M418.219,89.136c.948-1.573,25.005,3.23,31.07.752,1.793-.727,4.382-11.617,4.382-11.617h8.307c-.178.617-1.878,21.534-6.784,24.146-5.076,2.706-38.709,6.316-39.3,2.164-.313-2.206.652-12.682,2.318-15.446Z" transform="translate(-166.593 -31.358)" fill="#f9cebd"/>
    <path id="Trazado_716628" data-name="Trazado 716628" d="M352.774,71.36S355.71,57.875,348.189,58c-6.319.1-3.4,12.682-3.4,12.682l7.985.685Z" transform="translate(-137.861 -23.236)" fill="#f9cebd"/>
    <path id="Trazado_716629" data-name="Trazado 716629" d="M389.085,88.823c-.947-1.573-25.267,3.551-31.341,1.065-1.793-.727-4.382-11.617-4.382-11.617h-8.307c.177.617,1.878,21.534,6.784,24.146,5.076,2.706,38.709,6.316,39.3,2.164C391.453,102.376,390.751,91.588,389.085,88.823Z" transform="translate(-138.237 -31.358)" fill="#f9cebd"/>
    <path id="Trazado_716630" data-name="Trazado 716630" d="M402.01,95.671c-.693-1.158-14.042,1.31-23.466,1.7-1.328,5.2-1.277,11.828-1.184,14.609,11.479,1.539,26.308,2.19,26.706-.558.313-2.206-.389-12.994-2.056-15.759Z" transform="translate(-151.163 -38.205)" fill="#636363"/>
    <path id="Trazado_716631" data-name="Trazado 716631" d="M441.705,97.627c-9.364-.271-22.78-2.612-23.482-1.446-1.666,2.765-2.639,13.24-2.318,15.446.4,2.765,15.463,2.08,26.968.516C442.966,109.353,443.008,102.8,441.705,97.627Z" transform="translate(-166.597 -38.403)" fill="#636363"/>
    <path id="Trazado_716632" data-name="Trazado 716632" d="M451.043,370.087l-.482-11.025-10.185-.414.288,10.551-.228,7.381a2.676,2.676,0,0,0,2.673,2.757h21.774a1,1,0,0,0,.457-1.886l-14.3-7.364Z" transform="translate(-176.425 -143.683)" fill="#f9cebd"/>
    <path id="Trazado_716633" data-name="Trazado 716633" d="M428.088,294.759a4.208,4.208,0,0,1-4.212-4.05c-.406-10.526-1.226-36.49-2.775-48-2.436-18.195-15.218-44.869-15.218-44.869l3.967-16.917,22.7,1.175s12.376,22.912,12.325,59.486c-.017,13.248-3.739,40.074-5.354,49.67a4.206,4.206,0,0,1-4.154,3.509h-7.275Z" transform="translate(-162.607 -72.48)" fill="#1c466d"/>
    <path id="Trazado_716634" data-name="Trazado 716634" d="M341.694,370.183l2.242-10.881,10.185-.414L352.065,369.3l.228,7.381a2.676,2.676,0,0,1-2.673,2.757H327.846a1,1,0,0,1-.457-1.886l14.3-7.364Z" transform="translate(-130.942 -143.779)" fill="#f9cebd"/>
    <path id="Trazado_716635" data-name="Trazado 716635" d="M353.062,294.018h8.476a3.576,3.576,0,0,0,3.375-2.393c18.407-52.52,36.527-101.666,36.527-101.666l-10.583-9.782L373.39,179.07s-5.693,7.685-8.772,21.88c-3.629,16.723-3.849,27.021-15.058,88.866a3.582,3.582,0,0,0,3.52,4.219Z" transform="translate(-140.019 -71.74)" fill="#1c466d"/>
    <path id="Trazado_716636" data-name="Trazado 716636" d="M427.261,199.072c.339.059-.71,5.91-3.02,12.817-2.284,6.916-4.822,12.259-5.084,12.141-.3-.127,1.751-5.631,4.018-12.5C425.468,204.677,426.991,199.021,427.261,199.072Z" transform="translate(-167.913 -79.753)" fill="#3b6fad"/>
    <path id="Trazado_716637" data-name="Trazado 716637" d="M424.707,116.124a126.5,126.5,0,0,0,1.21,29.946,2.639,2.639,0,0,1-2.081,2.984c-7.342.854-28,.245-35.824-1.184-1.6-.3-3.071-1.733-2.749-3.331,3.5-17.121-.753-36.955,4-43.084,6.6-8.514,22.35-6.907,32.517-2.393,4.576,2.029,3.189,13.307,2.927,17.07Z" transform="translate(-154.328 -38.207)" fill="#636363"/>
    <path id="Trazado_716638" data-name="Trazado 716638" d="M425.171,87.78V81.329l-9.931-5.977V87.341s2.36,7.727,6.683,7.727C425.712,95.068,425.171,87.78,425.171,87.78Z" transform="translate(-166.355 -30.188)" fill="#edb2a2"/>
    <path id="Trazado_716639" data-name="Trazado 716639" d="M428.452,61.333C428.5,73.153,425.4,77.16,422,77.574c-4.272.524-8.138-2.528-10.3-9.046-2.233-.279-2.834-4.109-1.5-5.208.837-.693,1.5.516,1.5.516s8.1-.406,11.944-5.834a5.5,5.5,0,0,1,4.813,3.34Z" transform="translate(-164.053 -23.237)" fill="#f9cebd"/>
    <path id="Trazado_716640" data-name="Trazado 716640" d="M424.585,72.361c0,.583-.33,1.057-.728,1.057s-.727-.473-.727-1.057.33-1.057.727-1.057S424.585,71.777,424.585,72.361Z" transform="translate(-169.516 -28.566)" fill="#45555e"/>
    <path id="Trazado_716641" data-name="Trazado 716641" d="M424.562,69.695c-.119.127-.626-.237-1.328-.313-.7-.093-1.32.051-1.379-.093-.076-.127.55-.575,1.447-.465a1.884,1.884,0,0,1,1.023.448C424.536,69.466,424.6,69.644,424.562,69.695Z" transform="translate(-169.003 -27.566)" fill="#45555e"/>
    <path id="Trazado_716642" data-name="Trazado 716642" d="M437.313,71.98c0,.583.33,1.057.728,1.057s.728-.473.728-1.057-.33-1.057-.728-1.057S437.313,71.4,437.313,71.98Z" transform="translate(-175.198 -28.413)" fill="#45555e"/>
    <path id="Trazado_716643" data-name="Trazado 716643" d="M436.446,69.2c-.043-.059.042-.22.279-.389a1.8,1.8,0,0,1,1.066-.338c.905-.017,1.48.49,1.4.617s-.668-.068-1.379-.051c-.7,0-1.244.3-1.353.169Z" transform="translate(-174.847 -27.43)" fill="#45555e"/>
    <path id="Trazado_716644" data-name="Trazado 716644" d="M433.746,77.684a1.149,1.149,0,1,1-1.117-.879A1.022,1.022,0,0,1,433.746,77.684Z" transform="translate(-172.875 -30.77)" fill="#702f2f"/>
    <path id="Trazado_716645" data-name="Trazado 716645" d="M431.767,78.946a1.163,1.163,0,0,0,.973.44,1.565,1.565,0,0,0,.347-.042,1.176,1.176,0,0,0-.964-.465A1.646,1.646,0,0,0,431.767,78.946Z" transform="translate(-172.976 -31.601)" fill="#ff5c5c"/>
    <path id="Trazado_716646" data-name="Trazado 716646" d="M432.571,70.189a8.079,8.079,0,0,0,.626,2.773" transform="translate(-173.299 -28.12)" fill="none" stroke="#f4a589" stroke-linecap="round" stroke-miterlimit="10" stroke-width="1.3"/>
    <path id="Trazado_716647" data-name="Trazado 716647" d="M349.62,386.4H327.846a1,1,0,0,1-.457-1.886l14.3-7.364s6.75,1.742,10.371-.888l.228,7.381A2.676,2.676,0,0,1,349.62,386.4Z" transform="translate(-130.942 -150.741)" fill="#4db1f0"/>
    <path id="Trazado_716648" data-name="Trazado 716648" d="M465.343,384.936l-14.3-7.364a15.863,15.863,0,0,1-10.4-.262l-.212,6.755a2.676,2.676,0,0,0,2.673,2.757h21.774a1,1,0,0,0,.457-1.886Z" transform="translate(-176.447 -151.16)" fill="#4db1f0"/>
    <path id="Trazado_716649" data-name="Trazado 716649" d="M555.618,56.916s.753-14.423-13.678-11.819-9.55,21.331-1.844,22.016l15.514-10.2Z" transform="translate(-213.404 -17.941)"/>
    <path id="Trazado_716650" data-name="Trazado 716650" d="M599.153,370.485l-.474-10.839-10.016-.406.288,10.373-.228,7.263a2.636,2.636,0,0,0,2.631,2.714h22.205a.68.68,0,0,0,.322-1.277Z" transform="translate(-235.833 -143.921)" fill="#f9cebd"/>
    <path id="Trazado_716651" data-name="Trazado 716651" d="M591.407,386.511a2.631,2.631,0,0,1-2.631-2.714l.228-7.263c5.642,3.475,10.2.871,10.2.871l14.727,7.829a.678.678,0,0,1-.322,1.277Z" transform="translate(-235.878 -150.849)" fill="#1c466d"/>
    <path id="Trazado_716652" data-name="Trazado 716652" d="M562.278,181.158l-10.159,2.055-11.581,1.479s1.886,22.92,5.617,38.155c3.426,14,23.525,75.44,23.525,75.44l10.2.871s0-46.331-17.595-117.983Z" transform="translate(-216.553 -72.576)" fill="#f9cebd"/>
    <path id="Trazado_716653" data-name="Trazado 716653" d="M517.584,370.485l-.541-10.839,10.016-.406.728,10.373.228,7.263a2.636,2.636,0,0,1-2.631,2.714H503.178a.68.68,0,0,1-.321-1.277Z" transform="translate(-201.314 -143.921)" fill="#f9cebd"/>
    <path id="Trazado_716654" data-name="Trazado 716654" d="M525.366,386.511A2.631,2.631,0,0,0,528,383.8l-.228-7.263c-5.643,3.475-10.2.871-10.2.871l-14.727,7.829a.678.678,0,0,0,.321,1.277Z" transform="translate(-201.305 -150.849)" fill="#1c466d"/>
    <path id="Trazado_716655" data-name="Trazado 716655" d="M540.027,177.23l-11.555-.6-12.731,3.534s-6.9,35.34-4.213,61.236c1.337,12.885,5.575,38.443,9.415,55.918l10.2-.871c.55-1.184-1.861-35.128,6.014-72.058,4.289-20.1,2.868-47.168,2.868-47.168Z" transform="translate(-204.681 -70.762)" fill="#f9cebd"/>
    <path id="Trazado_716656" data-name="Trazado 716656" d="M512.176,181.158l38.126,1.108c8.789,12.724,8.721,51.555,8.721,51.555-26.688,5.825-54.824,0-54.824,0s-1.269-32.888,7.985-52.663Z" transform="translate(-201.971 -72.576)" fill="#ffa031"/>
    <path id="Trazado_716657" data-name="Trazado 716657" d="M558.969,126.413c-1.066,3.12-8.036,3.3-8.036,3.3-.592,12.513.4,16.723.4,16.723a2.639,2.639,0,0,1-2.081,2.984c-7.342.854-28,.245-35.824-1.184-1.6-.3-3.071-1.733-2.749-3.331a105.325,105.325,0,0,0,1.582-16.1s-7.766.465-8.171-5.166c-.762-10.585,6.073-22.963,11.064-25.82,8.831-5.064,22.239-4.887,32.17.11C554.664,101.624,561.55,118.837,558.969,126.413Z" transform="translate(-201.926 -37.699)" fill="#1c466d"/>
    <path id="Trazado_716658" data-name="Trazado 716658" d="M554.985,89.233V82.782L545.054,76.8V88.793s3.976,7.533,7.444,7.051C554.5,95.574,554.985,89.233,554.985,89.233Z" transform="translate(-218.362 -30.77)" fill="#edb2a2"/>
    <path id="Trazado_716659" data-name="Trazado 716659" d="M558.279,62.8c.051,11.819-3.054,15.827-6.455,16.241-4.272.524-8.137-2.528-10.3-9.046-2.233-.279-2.834-4.109-1.5-5.208.838-.693,1.5.516,1.5.516s8.1-.406,11.944-5.834a5.5,5.5,0,0,1,4.814,3.34Z" transform="translate(-216.065 -23.825)" fill="#f9cebd"/>
    <path id="Trazado_716660" data-name="Trazado 716660" d="M554.412,73.813c0,.583-.33,1.057-.728,1.057s-.728-.474-.728-1.057.33-1.057.728-1.057S554.412,73.23,554.412,73.813Z" transform="translate(-221.528 -29.148)" fill="#45555e"/>
    <path id="Trazado_716661" data-name="Trazado 716661" d="M554.39,71.147c-.118.127-.626-.237-1.328-.313-.7-.093-1.32.051-1.379-.093-.076-.127.55-.575,1.447-.465a1.887,1.887,0,0,1,1.023.448C554.364,70.919,554.432,71.1,554.39,71.147Z" transform="translate(-221.015 -28.148)" fill="#45555e"/>
    <path id="Trazado_716662" data-name="Trazado 716662" d="M567.127,73.433c0,.583.33,1.057.728,1.057s.728-.473.728-1.057-.33-1.057-.728-1.057S567.127,72.849,567.127,73.433Z" transform="translate(-227.205 -28.995)" fill="#45555e"/>
    <path id="Trazado_716663" data-name="Trazado 716663" d="M566.259,70.648c-.042-.059.043-.22.279-.389a1.793,1.793,0,0,1,1.066-.338c.905-.017,1.48.49,1.4.617s-.668-.068-1.379-.051c-.7,0-1.243.3-1.353.169Z" transform="translate(-226.853 -28.012)" fill="#45555e"/>
    <path id="Trazado_716664" data-name="Trazado 716664" d="M564.04,79.65a3.1,3.1,0,0,0-2.107.22" transform="translate(-225.124 -31.873)" fill="none" stroke="#f99a7d" stroke-linecap="round" stroke-miterlimit="10" stroke-width="0.75"/>
    <path id="Trazado_716665" data-name="Trazado 716665" d="M562.4,71.642a8.078,8.078,0,0,0,.626,2.773" transform="translate(-225.311 -28.702)" fill="none" stroke="#f4a589" stroke-linecap="round" stroke-miterlimit="10" stroke-width="1.3"/>
    <path id="Trazado_716666" data-name="Trazado 716666" d="M549.216,146.384c.119-.321,4.441,1.048,9.9,2.206,5.448,1.2,9.939,1.75,9.923,2.046-.008.33-4.636.27-10.159-.947C553.336,148.514,549.115,146.646,549.216,146.384Z" transform="translate(-220.029 -58.626)" fill="#3b6fad"/>
    <path id="Trazado_716667" data-name="Trazado 716667" d="M561.623,139.45l.584-6.874c3.823-.913,8.772,1.717,8.772,1.717s-4.077,4.726-9.356,5.149Z" transform="translate(-225 -53.036)" fill="#f9cebd"/>
    <path id="Trazado_716668" data-name="Trazado 716668" d="M572.065,117.465c.321,0,.66,2.46,1.548,5.4.846,2.959,1.742,5.309,1.463,5.445s-1.658-2.071-2.546-5.141c-.922-3.069-.77-5.723-.465-5.715Z" transform="translate(-229.089 -47.056)" fill="#3b6fad"/>
    <path id="Trazado_716669" data-name="Trazado 716669" d="M534.788,41.91s.321-12.64-10.819-8.421,5.388,11.769,9.17,11.338Z" transform="translate(-208.392 -13.071)"/>
    <path id="Trazado_716670" data-name="Trazado 716670" d="M597.905,19.8c2.36-5.149.693-22-17.189-18.625s-16.394,17.5-11.107,22.489C573.957,27.761,593.066,30.356,597.905,19.8Z" transform="translate(-226.785 -0.292)" fill="#f8c476"/>
    <path id="Trazado_716671" data-name="Trazado 716671" d="M589.121,40.757a24.373,24.373,0,0,1-.364,4.126,39.406,39.406,0,0,1-.837,3.889,32,32,0,0,1-2.318,6.29c-1.658,3.475-3.8,4.591-3.621,5.03.043.093.22.118.533.051a3.746,3.746,0,0,0,1.294-.49,10.734,10.734,0,0,0,3.612-3.492,25.313,25.313,0,0,0,3.155-6.595,32.569,32.569,0,0,0,1.083-4.168,22.994,22.994,0,0,0,.474-4.718Z" transform="translate(-233.152 -16.298)" fill="#f8c476"/>
    <path id="Trazado_716672" data-name="Trazado 716672" d="M601.839,15.435a1.133,1.133,0,0,0,.309-.9,1.083,1.083,0,0,0-.493-.792,1.431,1.431,0,0,0-1.008-.246,1.409,1.409,0,0,0-.915.455,1.081,1.081,0,0,0-.31.88,1.131,1.131,0,0,0,.494.809,1.408,1.408,0,0,0,.991.247A1.43,1.43,0,0,0,601.839,15.435Zm-3.56.387a1.132,1.132,0,0,0,.309-.9,1.083,1.083,0,0,0-.493-.792,1.429,1.429,0,0,0-1.008-.246,1.408,1.408,0,0,0-.915.455,1.083,1.083,0,0,0-.31.88,1.133,1.133,0,0,0,.494.809,1.408,1.408,0,0,0,.991.247A1.431,1.431,0,0,0,598.279,15.823Zm-3.559.387a1.133,1.133,0,0,0,.308-.9,1.083,1.083,0,0,0-.492-.792,1.431,1.431,0,0,0-1.008-.246,1.407,1.407,0,0,0-.915.455,1.082,1.082,0,0,0-.311.88,1.133,1.133,0,0,0,.495.809,1.406,1.406,0,0,0,.991.247A1.431,1.431,0,0,0,594.72,16.21Z" transform="translate(-237.288 -5.405)" fill="#8a5414"/>
    <path id="Trazado_716673" data-name="Trazado 716673" d="M544.056,144.126c.059.33-5.837,1.4-12.951,3.179a56.689,56.689,0,0,1-9.39,1.513c-2.419.186-3.934.135-3.942-.026s1.472-.389,3.849-.769,5.668-.913,9.2-1.81c7.207-1.8,13.188-2.376,13.23-2.088Z" transform="translate(-207.432 -57.712)" fill="#3b6fad"/>
    <path id="Trazado_716674" data-name="Trazado 716674" d="M528.586,116.712a7.8,7.8,0,0,1-.423,2.536c-.186.786-.423,1.733-.694,2.807-.143.533-.287,1.108-.448,1.7-.085.3-.161.6-.245.913-.059.22-.042.161-.05.194v.043l.059-.017c.22-.017.44-.043.668-.059l1.548-.1c1.057-.059,2.149-.093,3.274-.11a72.585,72.585,0,0,1,10.937.66c2.783.406,4.458.87,4.433,1.006-.026.169-1.751-.017-4.517-.22s-6.606-.388-10.845-.33c-1.108.017-2.2.043-3.24.085l-1.531.076-.821.051c-.474.042-.939.085-1.4.118.279-.9.542-1.759.8-2.579.186-.592.372-1.15.541-1.682.347-1.057.66-1.979.931-2.748a7.944,7.944,0,0,1,1.015-2.359Z" transform="translate(-210.446 -46.75)" fill="#3b6fad"/>
    <path id="Trazado_716675" data-name="Trazado 716675" d="M406.793,32.773c-.415.211-1.43-.955-2.276-2.6s-1.184-3.154-.77-3.365,1.43.955,2.275,2.6S407.207,32.561,406.793,32.773Z" transform="translate(-161.681 -10.732)" fill="#f2c68c"/>
    <path id="Trazado_716676" data-name="Trazado 716676" d="M422.39,20.03c.466.025.744,1.86.626,4.1s-.592,4.033-1.057,4.016-.744-1.86-.626-4.1S421.925,20,422.39,20.03Z" transform="translate(-168.785 -8.024)" fill="#f2c68c"/>
    <path id="Trazado_716677" data-name="Trazado 716677" d="M440.177,28.462c.364.271,0,1.539-.668,3.069-.694,1.522-1.531,2.663-1.963,2.494s-.287-1.606.432-3.187c.694-1.589,1.819-2.663,2.208-2.376Z" transform="translate(-175.195 -11.384)" fill="#f2c68c"/>
    <path id="Trazado_716678" data-name="Trazado 716678" d="M394.911,43.191c-.288.364-1.726-.355-3.223-1.615s-2.445-2.562-2.132-2.9,1.76.38,3.223,1.615S395.2,42.827,394.911,43.191Z" transform="translate(-156.042 -15.46)" fill="#f2c68c"/>
  </g>
</svg>
