<svg xmlns="http://www.w3.org/2000/svg" width="131" height="131" viewBox="0 0 131 131">
  <g id="Grupo_1027603" data-name="Grupo 1027603" transform="translate(-285 -2431)">
    <g id="Grupo_1022854" data-name="Grupo 1022854">
      <circle id="Elipse_8478" data-name="Elipse 8478" cx="65.5" cy="65.5" r="65.5" transform="translate(285 2431)" fill="#3076b6"/>
      <g id="Grupo_1022853" data-name="Grupo 1022853">
        <path id="Trazado_716432" data-name="Trazado 716432" d="M104.682,688.6h-12.3V677.667a6.834,6.834,0,0,0-6.833-6.834h-8.2v-7.5l18.559-13.256a1.354,1.354,0,0,0,.3-1.927l-4.1-5.467a1.368,1.368,0,0,0-1.872-.3l-14.008,9.69A9.567,9.567,0,1,0,61.1,654.433H59.582a1.368,1.368,0,0,0-1.011.451L49.742,664.7a6.834,6.834,0,0,0,.273,9.4l7.23,7.27a1.374,1.374,0,0,0,2.091-.177l1.613-2.283v24.723A1.367,1.367,0,0,0,62.315,705h8.2a1.367,1.367,0,0,0,1.367-1.367V681.767h9.567V688.6h-4.1a1.367,1.367,0,0,0-1.367,1.367v13.666A1.367,1.367,0,0,0,77.348,705h27.334a1.367,1.367,0,0,0,1.366-1.367V689.967A1.366,1.366,0,0,0,104.682,688.6Zm-43.734-41a6.833,6.833,0,1,1,6.833,6.833A6.833,6.833,0,0,1,60.948,647.6Zm10.086,9.567-1.886,3.772-1.886-3.772ZM60.948,671.8l-2.187-2.337,2.187-2.187Zm9.567,7.229a1.367,1.367,0,0,0-1.367,1.367v21.867H63.682V664a1.375,1.375,0,0,0-2.337-.97L55.878,668.5a1.367,1.367,0,0,0,0,1.914l4.469,4.66-2.31,3.225L51.915,672.2a4.1,4.1,0,0,1-.15-5.672l8.432-9.361h4l3.731,7.448a1.367,1.367,0,0,0,2.433,0l3.95-7.886,16.4-11.357,2.474,3.294-18,12.86a1.366,1.366,0,0,0-.574,1.107V672.2a1.367,1.367,0,0,0,1.367,1.367h9.567a4.1,4.1,0,0,1,4.1,4.1V688.6H84.182v-8.2a1.367,1.367,0,0,0-1.367-1.367Zm32.8,23.234h-24.6V691.333h24.6Z" transform="translate(261 1833)" fill="#fff"/>
        <path id="Trazado_716433" data-name="Trazado 716433" d="M127.915,633.933a9.566,9.566,0,0,1-9.567-9.566,1.367,1.367,0,1,0-2.733,0,9.566,9.566,0,0,1-9.567,9.566,1.367,1.367,0,0,0,0,2.734,9.566,9.566,0,0,1,9.567,9.566,1.367,1.367,0,1,0,2.733,0,9.566,9.566,0,0,1,9.567-9.566,1.367,1.367,0,0,0,0-2.734Zm-10.933,6.67a12.413,12.413,0,0,0-5.3-5.3,12.413,12.413,0,0,0,5.3-5.3,12.405,12.405,0,0,0,5.3,5.3A12.406,12.406,0,0,0,116.982,640.6Z" transform="translate(261 1833)" fill="#fff"/>
        <path id="Trazado_716435" data-name="Trazado 716435" d="M110.711,645.129,97.048,655.155l1.617,2.2,13.663-10.025Z" transform="translate(261 1833)" fill="#fff"/>
        <path id="Trazado_716436" data-name="Trazado 716436" d="M105.283,638.26l-8.2,5.466L98.6,646l8.2-5.466Z" transform="translate(261 1833)" fill="#fff"/>
      </g>
    </g>
  </g>
</svg>
