<svg xmlns="http://www.w3.org/2000/svg" width="265" height="183.166" viewBox="0 0 265 183.166">
  <g id="Grupo_1027598" data-name="Grupo 1027598" transform="translate(-390 -3843.454)">
    <g id="Grupo_1026820" data-name="Grupo 1026820" transform="translate(0 -521)">
      <g id="Grupo_1026818" data-name="Grupo 1026818" transform="translate(-575 789.652)">
        <path id="Trazado_717261" data-name="Trazado 717261" d="M256.045,6.946c17.063-1.074,33.043,10.991,40.907,26.4s8.9,33.5,7.566,50.8c-1.55,20.065-6.345,40.492-18.157,56.663-10.291,14.089-25.385,24.1-41.614,30.118s-33.608,8.274-50.873,8.872a166.69,166.69,0,0,1-31.625-1.521c-21.419-3.372-41.515-12.526-60.782-22.6-10.065-5.265-20.115-10.9-28.347-18.793a96.232,96.232,0,0,1-13.794-17.23c-11.581-17.819-19.837-38.59-19.291-59.935S51.148,16.6,69.69,6.522c21.6-11.73,48.245-5.764,71.087,3.216,19.757,7.77,41.525,20.277,63.269,20.272,8.746,0,15.636-6.734,22.927-11.3,8.925-5.58,18.367-11.1,29.077-11.768Z" transform="translate(924.992 3578.02)" fill="#f5f9fd"/>
      </g>
    </g>
    <g id="Grupo_1026857" data-name="Grupo 1026857" transform="translate(362.889 3733.482)">
      <g id="Shadow" transform="translate(56.111 272.406)">
        <ellipse id="_Path_" data-name="&lt;Path&gt;" cx="110.5" cy="6.453" rx="110.5" ry="6.453" transform="translate(0 0)" fill="#f5f5f5"/>
      </g>
      <g id="Character_1" data-name="Character 1" transform="translate(58.175 129.005)">
        <g id="_Group_" data-name="&lt;Group&gt;">
          <path id="Trazado_724544" data-name="Trazado 724544" d="M138.385,222.007l3.908-2.231s1.5-2.322,1.954-2.428,5.411,0,5.411,0-.752,3.21-.827,3.845-4.81,0-4.81,0l-3.833,2.288Z" transform="translate(-93.56 -180.823)" fill="#ebb376"/>
          <path id="Trazado_724545" data-name="Trazado 724545" d="M70.327,407.344l-4.094-.816a.322.322,0,0,0-.313.252l-1.1,4.092a.543.543,0,0,0,.419.643.526.526,0,0,0,.119.011c1.446-.023,2.5-.112,4.314-.112,1.119,0,4.492.117,6.037.117s1.745-1.526,1.113-1.666c-2.835-.618-4.969-1.474-5.877-2.288A.889.889,0,0,0,70.327,407.344Z" transform="translate(-61.915 -262.207)" fill="#263238"/>
          <path id="Trazado_724546" data-name="Trazado 724546" d="M158.193,407.755h-4.469a.322.322,0,0,0-.313.253l-.725,3.275a.543.543,0,0,0,.419.643.556.556,0,0,0,.119.011c1.446-.023,2.5-.112,4.314-.112,1.118,0,4.492.117,6.036.117s1.746-1.525,1.114-1.665c-2.835-.618-4.969-1.474-5.877-2.288A.889.889,0,0,0,158.193,407.755Z" transform="translate(-99.705 -262.735)" fill="#263238"/>
          <path id="Trazado_724547" data-name="Trazado 724547" d="M78.767,272.048l18.925-4.8c4.291,9.369,20.04,47.84,23.854,79.844l-6.406,1.625s-11.337-47.2-20.849-60.971c0,0-.51,20.953-1.54,24-.848,2.509-20.324,36.061-20.324,36.061l-6.324-.717s15.87-34.25,16.836-38.515c.659-2.909-2.233-24.256-2.233-24.256-.513-1.907-1.271-9.787-1.271-9.787S78.862,272.44,78.767,272.048Z" transform="translate(-62.472 -202.305)" fill="#407bff"/>
          <path id="Trazado_724548" data-name="Trazado 724548" d="M114.675,298.035a52.249,52.249,0,0,1,4.19,7.651,52.589,52.589,0,0,0-5.371-14.518Z" transform="translate(-82.855 -212.592)" opacity="0.2" style="isolation: isolate"/>
          <path id="Trazado_724549" data-name="Trazado 724549" d="M78.767,272.048l18.925-4.8c4.291,9.369,20.04,47.84,23.854,79.844l-6.406,1.625s-11.337-47.2-20.849-60.971c0,0-.51,20.953-1.54,24-.848,2.509-20.324,36.061-20.324,36.061l-6.324-.717s15.87-34.25,16.836-38.515c.659-2.909-2.233-24.256-2.233-24.256-.513-1.907-1.271-9.787-1.271-9.787S78.862,272.44,78.767,272.048Z" transform="translate(-62.472 -202.305)" opacity="0.3" style="isolation: isolate"/>
          <path id="Trazado_724550" data-name="Trazado 724550" d="M129.16,224.2s-8.628,5.824-10.9,6.132a18.137,18.137,0,0,1-4.707-.593c-2.929-.627-5.984-1.5-5.984-1.5l-.382-2.889-.4-3.089c.684-.228,9.609,3.442,10.942,3.967s9.956-4.582,9.956-4.582Z" transform="translate(-79.967 -182.689)" fill="#263238"/>
          <path id="Trazado_724551" data-name="Trazado 724551" d="M94.611,273.33l.559,2.188-6.109,1.63-.57-2.268Z" transform="translate(-72.101 -204.921)"/>
          <path id="Trazado_724552" data-name="Trazado 724552" d="M109.379,269.04l.53,2.074-8.931,2.382-.559-2.183Z" transform="translate(-77.232 -203.075)"/>
          <path id="Trazado_724553" data-name="Trazado 724553" d="M120.7,269.552l-2.844.758-.524-2.069,2.61-.661Z" transform="translate(-84.505 -202.447)"/>
          <rect id="Rectángulo_349209" data-name="Rectángulo 349209" width="3.635" height="2.619" transform="matrix(-0.969, 0.246, -0.246, -0.969, 30.82, 68.58)" fill="#fff"/>
          <path id="Trazado_724554" data-name="Trazado 724554" d="M100.305,248.281l-19.046,4.833c-.929-2.513-1.875-5.044-2.8-7.511-.678-1.807-1.345-3.579-1.995-5.294q-.248-.658-.5-1.3c-.194-.513-.388-1.02-.576-1.516q-.633-1.667-1.22-3.209c-.365-.957-.718-1.875-1.049-2.741q-.256-.667-.5-1.3c-.336-.878-.65-1.7-.94-2.451l20-5.072C98.288,234.227,100.305,248.281,100.305,248.281Z" transform="translate(-64.876 -183.154)" fill="#263238"/>
          <path id="Trazado_724555" data-name="Trazado 724555" d="M82.613,224.291c2.06.981,5.856-.756,5.856-.756s1.261-1.391.508-2.007c-1.529.2-1.43-.3-1.984-1.082a4.427,4.427,0,0,1-.649-1.619,9.175,9.175,0,0,1-.158-.966l-5.989-2.15C81.561,217.912,83.673,222.078,82.613,224.291Z" transform="translate(-68.535 -180.14)" fill="#ebb376"/>
          <path id="Trazado_724556" data-name="Trazado 724556" d="M83.4,219.158a4.336,4.336,0,0,0,4.97,2.771,4.427,4.427,0,0,1-.649-1.619Z" transform="translate(-69.913 -181.622)" opacity="0.2" style="isolation: isolate"/>
          <g id="Grupo_1026839" data-name="Grupo 1026839" transform="translate(10.107 22.857)">
            <path id="Trazado_724557" data-name="Trazado 724557" d="M93.731,200.032s1.564,4.731-.7,7.037-3.8-6.735-3.8-6.735Z" transform="translate(-82.53 -196.253)" fill="#263238"/>
            <path id="Trazado_724558" data-name="Trazado 724558" d="M82.439,211.844a4.472,4.472,0,0,0,5.352.847,4.981,4.981,0,0,0,2.414-2.758,5.177,5.177,0,0,0,.154-.506c.764-3.184.284-8.444-3.185-9.855a4.849,4.849,0,0,0-6.686,4.841C80.693,207.949,80.646,210.037,82.439,211.844Z" transform="translate(-78.761 -195.896)" fill="#ebb376"/>
            <path id="Trazado_724559" data-name="Trazado 724559" d="M89.926,209.7c-.021.286.15.521.341.521s.34-.236.343-.523-.155-.521-.342-.521S89.928,209.4,89.926,209.7Z" transform="translate(-82.825 -200.184)" fill="#263238"/>
            <path id="Trazado_724560" data-name="Trazado 724560" d="M95.645,209.7c-.021.286.154.521.341.521s.34-.236.343-.523-.154-.521-.341-.521S95.646,209.426,95.645,209.7Z" transform="translate(-85.284 -200.186)" fill="#263238"/>
            <path id="Trazado_724561" data-name="Trazado 724561" d="M93.821,210.342a10.268,10.268,0,0,0,1.375,2.467,1.669,1.669,0,0,1-1.385.258Z" transform="translate(-84.496 -200.687)" fill="#d58745"/>
            <path id="Trazado_724562" data-name="Trazado 724562" d="M96.525,207.268a.177.177,0,0,1-.176-.016,1.364,1.364,0,0,0-1.2-.228.168.168,0,1,1-.121-.315h0a1.677,1.677,0,0,1,1.518.268.168.168,0,0,1,.044.234l0,0A.279.279,0,0,1,96.525,207.268Z" transform="translate(-84.973 -199.092)" fill="#263238"/>
            <path id="Trazado_724563" data-name="Trazado 724563" d="M88.7,207.279a.162.162,0,0,1-.095-.033.168.168,0,0,1,.013-.238l0,0a1.679,1.679,0,0,1,1.494-.4.168.168,0,0,1,.116.208h0a.173.173,0,0,1-.209.116h0a1.362,1.362,0,0,0-1.178.334A.173.173,0,0,1,88.7,207.279Z" transform="translate(-82.239 -199.064)" fill="#263238"/>
            <path id="Trazado_724564" data-name="Trazado 724564" d="M81.825,200.6l.34.656c-1.151.437-.856,1.782-.592,2.385a4.25,4.25,0,0,1-1.051,4.215s-.058-.567-.531-.41-.2,3.109.8,4.477a9.227,9.227,0,0,1-2.419-4.278c-.874-2.838-1.078-5.227-.54-6.366Z" transform="translate(-77.497 -196.497)" fill="#263238"/>
            <path id="Trazado_724565" data-name="Trazado 724565" d="M77.645,211.737a3.368,3.368,0,0,0,1.93,1.7c1.119.377,1.741-.611,1.483-1.7-.238-.967-1.1-2.359-2.252-2.252A1.5,1.5,0,0,0,77.645,211.737Z" transform="translate(-77.467 -200.317)" fill="#ebb376"/>
            <path id="Trazado_724566" data-name="Trazado 724566" d="M84.1,218.146c1.678,1.176,4.941,1.555,6.544-.574s1.088-5.536,1.088-5.536a5.309,5.309,0,0,1-1.024,2.084,2.264,2.264,0,0,0-2.444-.478,2.22,2.22,0,0,0-1.311-.823c-.746-.074-2.831.05-2.831.05-.676-.424-.7-2.33-.7-2.33l-.41.341S82.42,216.97,84.1,218.146Z" transform="translate(-79.808 -200.772)" fill="#263238"/>
            <path id="Trazado_724567" data-name="Trazado 724567" d="M86.294,198.71s3.968-1.936,3.516-3.871-1.632.27-1.632.27.537-1.472-.512-1.677-.7.67-1.267,1.234-6.1-.256-7.882.847-.419,4.931-.419,4.931A7.666,7.666,0,0,1,86.294,198.71Z" transform="translate(-77.523 -193.401)" fill="#263238"/>
            <path id="Trazado_724568" data-name="Trazado 724568" d="M84.1,218.146c1.678,1.176,4.941,1.555,6.544-.574s1.088-5.536,1.088-5.536a5.309,5.309,0,0,1-1.024,2.084,2.264,2.264,0,0,0-2.444-.478,2.22,2.22,0,0,0-1.311-.823c-.746-.074-2.831.05-2.831.05-.676-.424-.7-2.33-.7-2.33l-.41.341S82.42,216.97,84.1,218.146Z" transform="translate(-79.808 -200.772)" fill="#fff" opacity="0.2"/>
            <g id="Grupo_1026838" data-name="Grupo 1026838" transform="translate(5.882 12.533)">
              <path id="Trazado_724569" data-name="Trazado 724569" d="M90.531,216.823a10.627,10.627,0,0,0-.827,1.293c-.085-.029-.171-.057-.255-.09-1.152-.415-1.55-.988-1.641-1.5a1.578,1.578,0,0,1,.062-.745,1.53,1.53,0,0,1,.178-.389,5.776,5.776,0,0,0,2.092,1.282C90.377,216.773,90.531,216.823,90.531,216.823Z" transform="translate(-87.787 -215.393)" fill="#263238"/>
              <path id="Trazado_724570" data-name="Trazado 724570" d="M90.2,216.675l-.254.375a3.644,3.644,0,0,1-2.016-1.268,1.53,1.53,0,0,1,.178-.389A5.776,5.776,0,0,0,90.2,216.675Z" transform="translate(-87.849 -215.393)" fill="#fff"/>
              <path id="Trazado_724571" data-name="Trazado 724571" d="M89.464,218.881c-1.152-.415-1.55-.988-1.641-1.5a3.953,3.953,0,0,1,1.188.715A1.481,1.481,0,0,1,89.464,218.881Z" transform="translate(-87.803 -216.249)" fill="#de5753"/>
            </g>
          </g>
          <g id="Grupo_1026840" data-name="Grupo 1026840" transform="translate(12.483 40.307)">
            <path id="Trazado_724572" data-name="Trazado 724572" d="M92.7,229.454l-.335,2.95,6.155,13.114-.613,1.739-2.012-.933-4.383-13.37-3.229-2.187,2.348-1.285Z" transform="translate(-84.494 -226.357)" fill="#407bff"/>
            <path id="Trazado_724573" data-name="Trazado 724573" d="M83.369,225.1l4.075,1.683.169-2.76,3,.743.255,4.2-2.891-1.182-1.2,2.691-5.137-3.433Z" transform="translate(-81.637 -224.02)" fill="#263238"/>
            <path id="Trazado_724574" data-name="Trazado 724574" d="M83.369,225.1l4.075,1.683.169-2.76,3,.743.255,4.2-2.891-1.182-1.2,2.691-5.137-3.433Z" transform="translate(-81.637 -224.02)" fill="#fff" opacity="0.2"/>
          </g>
          <path id="Trazado_724575" data-name="Trazado 724575" d="M76.1,243.072q-.633-1.667-1.22-3.209c-.365-.957-.718-1.875-1.049-2.741q-.256-.667-.5-1.3a2.272,2.272,0,0,1,2.426.586C77.248,238.981,76.1,243.072,76.1,243.072Z" transform="translate(-65.585 -188.734)" opacity="0.2" style="isolation: isolate"/>
          <path id="Trazado_724576" data-name="Trazado 724576" d="M85.331,251.535a7.62,7.62,0,0,1-4.075,5.215c-.678-1.807-1.345-3.579-1.995-5.294q-.248-.658-.5-1.3c-.194-.513-.388-1.02-.576-1.516l6.6.838Z" transform="translate(-67.671 -194.302)" opacity="0.2" style="isolation: isolate"/>
          <path id="Trazado_724577" data-name="Trazado 724577" d="M113.856,232.534c-2.929-.627-5.984-1.5-5.984-1.5l-.382-2.889S112.876,228.716,113.856,232.534Z" transform="translate(-80.273 -185.485)" opacity="0.2" style="isolation: isolate"/>
          <g id="Grupo_1026844" data-name="Grupo 1026844" transform="translate(5.959)">
            <g id="Grupo_1026843" data-name="Grupo 1026843">
              <g id="Grupo_1026841" data-name="Grupo 1026841" transform="translate(0.001 0)">
                <path id="Trazado_724578" data-name="Trazado 724578" d="M71.045,267.676a.855.855,0,0,1-.543-1.515c9.51-7.808,9.328-20.048,9.152-31.885-.133-8.925-.258-17.356,3.939-23.092,5.894-8.056,29.6-20.838,33.526-21.2,2.806-.281,88.507-24.1,133.43-36.653a.855.855,0,1,1,.461,1.646C245.7,156.46,120.8,191.356,117.277,191.683c-3.381.314-26.843,13.047-32.3,20.511-3.859,5.273-3.737,13.425-3.609,22.057.174,11.672.37,24.9-9.776,33.232A.848.848,0,0,1,71.045,267.676Z" transform="translate(-70.19 -153.296)" fill="#263238"/>
              </g>
              <g id="Grupo_1026842" data-name="Grupo 1026842" opacity="0.4" style="isolation: isolate">
                <path id="Trazado_724579" data-name="Trazado 724579" d="M251.011,154.973l-11.717,3.271c-32.229,8.993-119.089,33.169-122.018,33.437-3.38.313-26.843,13.045-32.3,20.511-3.858,5.272-3.739,13.427-3.608,22.056.171,11.672.37,24.905-9.78,33.232a.842.842,0,0,1-.541.194.853.853,0,0,1-.541-1.516c9.512-7.808,9.329-20.044,9.153-31.881-.137-8.925-.262-17.36,3.938-23.093,5.893-8.059,29.6-20.842,33.522-21.206,2.644-.262,78.568-21.338,124.971-34.286q4.428-1.24,8.463-2.365a.855.855,0,1,1,.462,1.647Z" transform="translate(-70.189 -153.295)" fill="#fff"/>
              </g>
            </g>
            <path id="Trazado_724580" data-name="Trazado 724580" d="M378.627,154.973l-11.717,3.271a15.273,15.273,0,0,1,2.793-2.553q4.428-1.24,8.463-2.365a.855.855,0,1,1,.462,1.647Z" transform="translate(-197.805 -153.295)" opacity="0.2" style="isolation: isolate"/>
          </g>
          <path id="Trazado_724581" data-name="Trazado 724581" d="M81.908,249.451l4.483-.39s2.337-1.48,2.791-1.387,4.914,2.265,4.914,2.265-2.027,2.6-2.36,3.145-4.368-2.013-4.368-2.013l-4.438.472Z" transform="translate(-69.27 -193.884)" fill="#ebb376"/>
          <path id="Trazado_724582" data-name="Trazado 724582" d="M66.55,231.616c-2.036,1.457-7.338,13.3-6.776,15.134s17.058-1.778,17.058-1.778l-.728-3.087H67.229l2.111-3.323s1.3-1.266.5-4.208C69.264,232.236,66.55,231.616,66.55,231.616Z" transform="translate(-59.733 -186.98)" fill="#263238"/>
        </g>
      </g>
      <g id="Character_3" data-name="Character 3" transform="translate(212.471 145.717)">
        <g id="_Group_2" data-name="&lt;Group&gt;">
          <path id="Trazado_724583" data-name="Trazado 724583" d="M366.786,229.572l-3.378-1.6a33.772,33.772,0,0,0-2.209-3.794c-.52-.52-2.924,1.51-2.924,1.86a14.059,14.059,0,0,0,2.209,3.858,7,7,0,0,0,2.047,0l3.216,1.558Z" transform="translate(-342.428 -200.457)" fill="#9f5b53"/>
          <path id="Trazado_724584" data-name="Trazado 724584" d="M385.439,191.466l.677-2.424a18.518,18.518,0,0,0,.958-3.889,19.435,19.435,0,0,0-.813-2.534s-2.963,3.605-2.963,4.056a8.531,8.531,0,0,0,1.178,2.086l-.558,2.705Z" transform="translate(-353.19 -182.619)" fill="#9f5b53"/>
          <path id="Trazado_724585" data-name="Trazado 724585" d="M386.239,215.213a19.86,19.86,0,0,1-3.305-6.126c-.755-2.952,1.522-12.557,1.522-12.557l-2.4-.64s-2.826,9.808-2.944,13.389,5.223,14.08,5.223,14.08Z" transform="translate(-351.389 -188.327)" fill="#407bff"/>
          <path id="Trazado_724586" data-name="Trazado 724586" d="M386.12,237l-.363,1.551s-1.836-3.616-3.336-7.33a9.331,9.331,0,0,1,3.367,4.508A7.485,7.485,0,0,1,386.12,237Z" transform="translate(-352.813 -203.523)" opacity="0.2" style="isolation: isolate"/>
          <g id="Grupo_1026845" data-name="Grupo 1026845" transform="translate(25.147 26.886)">
            <path id="Trazado_724587" data-name="Trazado 724587" d="M397.818,236.736a13.766,13.766,0,0,1-.244,1.971c-.259,1.421-.7,3.1-1.213,4.954-.27.975-.545,2.018-.83,3.118A98.654,98.654,0,0,0,392.63,260l-18.037-4.28a86.819,86.819,0,0,1,4.436-15.817c.529-1.359,1.12-2.724,1.763-4.067a41.424,41.424,0,0,1,3.507-6.038s2.916,2.666,12.082,4.264C397.491,234.251,397.875,235.216,397.818,236.736Z" transform="translate(-374.593 -229.795)" fill="#407bff"/>
            <path id="Trazado_724588" data-name="Trazado 724588" d="M398.894,238.274c-.021.581,2.162,3.282,2.027,4.013-.243.166-.534.348-.866.545-6.1,3.553-14.11,1.748-17.679.649.529-1.359,1.686-3.863,2.33-5.207l4.281.949S395.994,237.631,398.894,238.274Z" transform="translate(-377.94 -233.376)" opacity="0.2" style="isolation: isolate"/>
          </g>
          <path id="Trazado_724589" data-name="Trazado 724589" d="M397.19,231.687c.654-.249,6.036,1.09,5.636,1.205s-2.4,6.268-5.211,5.806S394.854,232.576,397.19,231.687Z" transform="translate(-358.425 -203.709)" fill="#407bff"/>
          <path id="Trazado_724590" data-name="Trazado 724590" d="M351.706,402.787l-3.387.732-1.976-7.787,3.392-.733Z" transform="translate(-337.296 -273.961)" fill="#9f5b53"/>
          <path id="Trazado_724591" data-name="Trazado 724591" d="M343.471,407.471h4.211a.3.3,0,0,1,.3.238l.683,3.087a.511.511,0,0,1-.394.606.5.5,0,0,1-.113.011c-1.362-.022-2.354-.106-4.065-.106-1.053,0-4.232.11-5.687.11s-1.645-1.437-1.049-1.57a13.727,13.727,0,0,0,5.537-2.156A.838.838,0,0,1,343.471,407.471Z" transform="translate(-333.294 -279.325)" fill="#263238"/>
          <path id="Trazado_724592" data-name="Trazado 724592" d="M345.681,407.872a1.038,1.038,0,0,1-.666-.176.486.486,0,0,1-.172-.441.247.247,0,0,1,.141-.229c.384-.2,1.5.49,1.627.569a.075.075,0,0,1,.04.079.084.084,0,0,1-.062.071A4.181,4.181,0,0,1,345.681,407.872Zm-.516-.719a.189.189,0,0,0-.106.022c-.022,0-.048.031-.053.1a.339.339,0,0,0,.111.3,1.684,1.684,0,0,0,1.234.062A3.363,3.363,0,0,0,345.166,407.154Z" transform="translate(-336.65 -279.118)" fill="#407bff"/>
          <path id="Trazado_724593" data-name="Trazado 724593" d="M347.1,407.158h-.04c-.357-.194-1.049-.957-.979-1.323a.269.269,0,0,1,.264-.216.44.44,0,0,1,.348.105c.4.327.485,1.323.49,1.371a.089.089,0,0,1-.04.075A.081.081,0,0,1,347.1,407.158Zm-.7-1.407h-.04c-.106,0-.115.062-.119.084-.044.225.4.8.754,1.071a1.947,1.947,0,0,0-.41-1.085A.279.279,0,0,0,346.4,405.751Z" transform="translate(-337.182 -278.527)" fill="#407bff"/>
          <path id="Trazado_724594" data-name="Trazado 724594" d="M373.8,280.768s-2.921,13.939-9.763,17.684a7.268,7.268,0,0,1-2.532.856s-6.936,2.832-12.932,5.545a58.892,58.892,0,0,0-8.129,4.156c-3.123,2.381,4.529,39.477,4.529,39.477l-5.2.062s-10.936-32.853-9.088-41.475,21.445-21.824,21.445-21.824l3.025-8.305Z" transform="translate(-330.469 -223.187)" fill="#263238"/>
          <path id="Trazado_724595" data-name="Trazado 724595" d="M377.7,310.682a7.268,7.268,0,0,1-2.532.856s-6.936,2.832-12.932,5.545a37.693,37.693,0,0,1,10.738-11.7Z" transform="translate(-344.13 -235.417)" opacity="0.2" style="isolation: isolate"/>
          <path id="Trazado_724596" data-name="Trazado 724596" d="M428.166,402.787l-3.387.732-1.976-7.787,3.392-.733Z" transform="translate(-370.181 -273.961)" fill="#9f5b53"/>
          <path id="Trazado_724597" data-name="Trazado 724597" d="M419.931,407.471h4.211a.3.3,0,0,1,.3.238l.684,3.087a.511.511,0,0,1-.395.606.494.494,0,0,1-.112.011c-1.363-.022-2.354-.106-4.065-.106-1.054,0-4.232.11-5.687.11s-1.645-1.437-1.05-1.57a13.727,13.727,0,0,0,5.538-2.156A.838.838,0,0,1,419.931,407.471Z" transform="translate(-366.178 -279.325)" fill="#263238"/>
          <path id="Trazado_724598" data-name="Trazado 724598" d="M422.141,407.872a1.037,1.037,0,0,1-.666-.176.485.485,0,0,1-.172-.441.247.247,0,0,1,.141-.229c.383-.2,1.5.49,1.627.569a.075.075,0,0,1,.04.079.084.084,0,0,1-.062.071A4.181,4.181,0,0,1,422.141,407.872Zm-.516-.719a.19.19,0,0,0-.106.022c-.022,0-.048.031-.053.1a.339.339,0,0,0,.111.3,1.684,1.684,0,0,0,1.234.062A3.367,3.367,0,0,0,421.625,407.154Z" transform="translate(-369.534 -279.118)" fill="#407bff"/>
          <path id="Trazado_724599" data-name="Trazado 724599" d="M423.56,407.158h-.04c-.357-.194-1.049-.957-.979-1.323a.268.268,0,0,1,.264-.216.44.44,0,0,1,.348.105c.4.327.485,1.323.49,1.371a.089.089,0,0,1-.04.075A.078.078,0,0,1,423.56,407.158Zm-.7-1.407h-.04c-.106,0-.115.062-.119.084-.044.225.4.8.754,1.071a1.944,1.944,0,0,0-.41-1.085A.277.277,0,0,0,422.863,405.751Z" transform="translate(-370.066 -278.527)" fill="#407bff"/>
          <path id="Trazado_724600" data-name="Trazado 724600" d="M402.716,230.24c-.851.549-4.761.351-4.761.351l-1.844,1.984-.173-3.287s-1.227-.512-.894-.866a3.212,3.212,0,0,0,2.36-.791,4.418,4.418,0,0,0,.939-3.259c0-.014,0-.031,0-.045l.005,0,3.348-1.714L404,221.421C402.935,223.779,401.379,228.183,402.716,230.24Z" transform="translate(-358.217 -199.307)" fill="#9f5b53"/>
          <path id="Trazado_724601" data-name="Trazado 724601" d="M404.638,224.3a7.293,7.293,0,0,1-5.41,4.225,4.418,4.418,0,0,0,.939-3.259.16.16,0,0,0,0-.048l3.348-1.714C403.513,223.965,404.806,223.875,404.638,224.3Z" transform="translate(-360.041 -200.204)" opacity="0.2" style="isolation: isolate"/>
          <g id="Grupo_1026846" data-name="Grupo 1026846" transform="translate(36.762 9.532)">
            <path id="Trazado_724602" data-name="Trazado 724602" d="M407.277,213.794s2.175,1.163,2.9-.221-.307-1.441.753-1.931,2.582-.835,2.235-1.866-1.422-1.157-.226-2.259,1.461-2.753-.33-3.063-1.107-1.69-1.2-2.3-1.1-.968-2.184-.741-1.543-1.383-2.214-1.886-1.6.117-1.846.8-.888-.227-1.85-.338-.732.894-1.032,1.835-.882.328-1.566,1.1S399.971,208.99,407.277,213.794Z" transform="translate(-397.318 -199.344)" fill="#263238"/>
            <path id="Trazado_724603" data-name="Trazado 724603" d="M405.877,213.5c-1.631,2.566-2.56,4.258-4.4,5.088a5.387,5.387,0,0,1-.766.284,4.579,4.579,0,0,1-5.565-5.787,11.321,11.321,0,0,1,.682-1.789c1.273-2.675,3.734-5.412,6.666-5.051a4.7,4.7,0,0,1,3.378,7.255Z" transform="translate(-394.974 -202.299)" fill="#9f5b53"/>
            <path id="Trazado_724604" data-name="Trazado 724604" d="M404.794,215.547c-.118.251-.373.37-.535.28s-.177-.361-.043-.6.377-.369.535-.28S404.93,215.3,404.794,215.547Z" transform="translate(-398.91 -206.04)" fill="#263238"/>
            <path id="Trazado_724605" data-name="Trazado 724605" d="M399.951,212.849c-.118.252-.377.369-.535.28s-.177-.36-.043-.6.377-.369.535-.28S400.079,212.618,399.951,212.849Z" transform="translate(-396.827 -204.88)" fill="#263238"/>
            <path id="Trazado_724606" data-name="Trazado 724606" d="M400.117,214.395a9.953,9.953,0,0,1-2.33,1.44,1.619,1.619,0,0,0,1.052.873Z" transform="translate(-396.184 -205.817)" fill="#892b29"/>
            <path id="Trazado_724607" data-name="Trazado 724607" d="M407.164,214.158a.17.17,0,0,1-.158-.067,1.323,1.323,0,0,0-1.04-.569.163.163,0,0,1-.018-.326h0a1.628,1.628,0,0,1,1.32.7.163.163,0,0,1-.03.229l0,0A.236.236,0,0,1,407.164,214.158Z" transform="translate(-399.627 -205.302)" fill="#263238"/>
            <path id="Trazado_724608" data-name="Trazado 724608" d="M400.747,220.725h0a2.516,2.516,0,0,0,2.293-.38.088.088,0,0,0,.01-.123.084.084,0,0,0-.118-.014l0,0a2.413,2.413,0,0,1-2.131.343.084.084,0,0,0-.107.051l0,.009a.083.083,0,0,0,.051.107Z" transform="translate(-397.429 -208.31)" fill="#263238"/>
            <path id="Trazado_724609" data-name="Trazado 724609" d="M400.013,209.035a.159.159,0,0,1-.007-.1.163.163,0,0,1,.217-.08l0,0a1.626,1.626,0,0,1,.93,1.176.163.163,0,0,1-.14.183h0a.167.167,0,0,1-.183-.14h0a1.325,1.325,0,0,0-.751-.92A.167.167,0,0,1,400.013,209.035Z" transform="translate(-397.136 -203.43)" fill="#263238"/>
            <path id="Trazado_724610" data-name="Trazado 724610" d="M404.12,205.07c.83.1,1.243,1.115,1.243,1.115a18.554,18.554,0,0,1,2.905,1.362,1.962,1.962,0,0,1,.674,1.953c-.033.274-.7.523-.7.523s-1.234,2.9-1.569,3.711l.169,2.681a14.208,14.208,0,0,0,5.228-5.883c1.945-4.049-6.166-7.608-6.166-7.608Z" transform="translate(-398.907 -200.883)" fill="#263238"/>
            <path id="Trazado_724611" data-name="Trazado 724611" d="M410.754,224.042a3.268,3.268,0,0,1-2.483.268c-1.1-.329-1.035-1.459-.221-2.178.729-.631,2.193-1.251,3.044-.521A1.458,1.458,0,0,1,410.754,224.042Z" transform="translate(-400.337 -208.779)" fill="#9f5b53"/>
          </g>
          <path id="Trazado_724612" data-name="Trazado 724612" d="M400.786,232.915l-4.532,1.3-1.954,2.646.533-3.24s-.489-.748.316-1.915l-2.76.569-1.664,2.785,3.237-.763.227,3.234,1.884-2.223,1.546,2.437,4.59-2.913Z" transform="translate(-356.385 -203.732)" fill="#407bff"/>
          <path id="Trazado_724613" data-name="Trazado 724613" d="M400.786,232.915l-4.532,1.3-1.954,2.646.533-3.24s-.489-.748.316-1.915l-2.76.569-1.664,2.785,3.237-.763.227,3.234,1.884-2.223,1.546,2.437,4.59-2.913Z" transform="translate(-356.385 -203.732)" opacity="0.2" style="isolation: isolate"/>
          <g id="Grupo_1026847" data-name="Grupo 1026847" transform="translate(24.678 50.942)">
            <path id="Trazado_724614" data-name="Trazado 724614" d="M374.478,272l-.708,2.815,18.649,3.823.276-3.129Z" transform="translate(-373.77 -272.005)"/>
            <path id="Trazado_724615" data-name="Trazado 724615" d="M385.562,273.932c-.148-.209-4.3-1.1-4.688-.805a16.788,16.788,0,0,0-.67,3.066c.137.289,4.176.857,4.55.933S385.711,274.142,385.562,273.932Zm-1.138,2.826a23.089,23.089,0,0,1-3.739-.767,13.761,13.761,0,0,1,.55-2.52c.321-.243,3.731.491,3.853.662S384.732,276.822,384.424,276.759Z" transform="translate(-376.531 -272.462)" fill="#fff"/>
            <path id="Trazado_724616" data-name="Trazado 724616" d="M386.994,276.117l-.821-.168a.307.307,0,0,0-.356.213l0,.013a.307.307,0,0,0,.238.389l.825.156a.307.307,0,0,0,.119-.6Z" transform="translate(-378.944 -273.699)" fill="#fff"/>
          </g>
          <path id="Trazado_724617" data-name="Trazado 724617" d="M395.18,283.653s.357,21.1-.234,27.241S409.7,350.735,409.7,350.735h-4.978S389.652,326.07,386.2,318.477s-6.005-25.7-6.005-25.7Z" transform="translate(-351.853 -226.072)" fill="#263238"/>
          <path id="Trazado_724618" data-name="Trazado 724618" d="M395.252,236.069c-.77-1.742-12.585.841-13.651.536s-12.159-4.949-12.159-4.949l-.96,2.488s9.946,5.7,12.119,6.6,10.882.466,13.086-.494A3.076,3.076,0,0,0,395.252,236.069Z" transform="translate(-346.818 -203.709)" fill="#407bff"/>
        </g>
      </g>
      <g id="Arrow" transform="translate(79.06 109.972)">
        <g id="Grupo_1026850" data-name="Grupo 1026850">
          <path id="Trazado_724619" data-name="Trazado 724619" d="M276.131,142.71,272.552,119.9,253.7,133.232l6.285,2.655c-6.054,13.872-25.688,54.512-59.469,84.477-43.158,38.284-103.533,57.114-104.138,57.3l3.342,10.9c2.563-.786,63.3-19.7,108.36-59.67,35.9-31.848,56.093-73.854,62.428-88.558Z" transform="translate(-96.378 -119.898)" fill="#407bff"/>
          <path id="Trazado_724620" data-name="Trazado 724620" d="M272.712,138.721l-.16-18.823L253.7,133.232l6.285,2.655c-6.054,13.872-25.688,54.512-59.469,84.477-43.158,38.284-103.533,57.114-104.138,57.3l1.062,6.909c2.563-.786,63.3-17.993,108.36-57.961,35.9-31.848,54.953-74.424,61.288-89.128Z" transform="translate(-96.378 -119.898)" fill="#fff" opacity="0.4" style="isolation: isolate"/>
          <g id="Grupo_1026848" data-name="Grupo 1026848" transform="translate(161.233 18.531)">
            <path id="Trazado_724621" data-name="Trazado 724621" d="M391.092,157.661a.84.84,0,0,1-.263-.042l-10.951-3.538a.855.855,0,1,1,.525-1.627l10.951,3.537a.855.855,0,0,1-.262,1.669Z" transform="translate(-379.286 -152.413)" fill="#263238"/>
          </g>
          <g id="Grupo_1026849" data-name="Grupo 1026849" transform="translate(161.233 18.531)" opacity="0.4" style="isolation: isolate">
            <path id="Trazado_724622" data-name="Trazado 724622" d="M391.092,157.661a.84.84,0,0,1-.263-.042l-10.951-3.538a.855.855,0,1,1,.525-1.627l10.951,3.537a.855.855,0,0,1-.262,1.669Z" transform="translate(-379.286 -152.413)" fill="#fff"/>
          </g>
        </g>
      </g>
      <g id="Character_2" data-name="Character 2" transform="translate(112.54 133.381)">
        <g id="Grupo_1026856" data-name="Grupo 1026856">
          <g id="Grupo_1026853" data-name="Grupo 1026853" transform="translate(7.585)">
            <g id="Grupo_1026851" data-name="Grupo 1026851">
              <path id="Trazado_724623" data-name="Trazado 724623" d="M169.288,268.029a.855.855,0,0,1-.855-.855c0-27.206,7.9-30.784,9.386-31.215l25.155-17.58c.018-.012.036-.024.054-.034l96.533-57.253a.855.855,0,0,1,.872,1.47L203.928,219.8,178.67,237.45a.847.847,0,0,1-.354.143c-.064.014-8.173,2-8.173,29.581A.855.855,0,0,1,169.288,268.029Z" transform="translate(-168.433 -160.973)" fill="#263238"/>
            </g>
            <g id="Grupo_1026852" data-name="Grupo 1026852" opacity="0.4" style="isolation: isolate">
              <path id="Trazado_724624" data-name="Trazado 724624" d="M169.288,268.029a.855.855,0,0,1-.855-.855c0-27.206,7.9-30.784,9.386-31.215l25.155-17.58c.018-.012.036-.024.054-.034l96.533-57.253a.855.855,0,0,1,.872,1.47L203.928,219.8,178.67,237.45a.847.847,0,0,1-.354.143c-.064.014-8.173,2-8.173,29.581A.855.855,0,0,1,169.288,268.029Z" transform="translate(-168.433 -160.973)" fill="#fff"/>
            </g>
          </g>
          <path id="Trazado_724625" data-name="Trazado 724625" d="M172.676,294.678a34.39,34.39,0,0,1-7.734,3.71,4.8,4.8,0,0,1-2.559.143c-2.485-.786-1.009-5.6.473-8.634.239-.5.479-.94.7-1.316l4.343,2.684s-2.633,3.756-2.331,3.978,4.36-2.029,4.582-2.1A16.03,16.03,0,0,1,172.676,294.678Z" transform="translate(-157.672 -215.855)" fill="#407bff"/>
          <path id="Trazado_724626" data-name="Trazado 724626" d="M174.04,294.678a34.39,34.39,0,0,1-7.734,3.71,53.194,53.194,0,0,1-2.086-8.492c.239-.5.479-.94.7-1.316l4.343,2.684s-2.633,3.756-2.331,3.978,4.36-2.029,4.582-2.1A16.031,16.031,0,0,1,174.04,294.678Z" transform="translate(-159.036 -215.855)" opacity="0.2" style="isolation: isolate"/>
          <path id="Trazado_724627" data-name="Trazado 724627" d="M219.022,266.683l2.575-2.3a8.539,8.539,0,0,1,.828-1.84,42.706,42.706,0,0,1,4.966-.6,10.378,10.378,0,0,1-.276,3.127c-.368.644-4.2.92-4.2.92l-2.052,1.977Z" transform="translate(-182.606 -204.4)" fill="#eec1bb"/>
          <path id="Trazado_724628" data-name="Trazado 724628" d="M222.577,346.341c-.735,10.578-2.7,25.589-2.7,25.589l-2.53.559a131.174,131.174,0,0,1-1.966-24.227,55.8,55.8,0,0,1,.718-7.586s-8.765-3.368-14.852-6.383c-2.907-1.436-5.2-2.8-5.642-3.676-1.356-2.707,4.81-9.067,4.81-9.067.194.154,3.915,2.525,8.247,5.334,5.75,3.727,12.572,8.23,13.689,9.352C223,336.892,222.942,341.064,222.577,346.341Z" transform="translate(-172.45 -230.035)" fill="#eec1bb"/>
          <path id="Trazado_724629" data-name="Trazado 724629" d="M226.982,350.367a42.829,42.829,0,0,1-7.2,1.921,55.8,55.8,0,0,1,.718-7.586s-8.765-3.368-14.852-6.383l7.415-7.409c5.75,3.727,12.572,8.23,13.689,9.352C227.4,340.918,227.347,345.089,226.982,350.367Z" transform="translate(-176.855 -234.06)" opacity="0.2" style="isolation: isolate"/>
          <path id="Trazado_724630" data-name="Trazado 724630" d="M208.461,318.472s24.319,13.979,27.625,17.136,22.385,32.665,22.385,32.665l-1.607,1.533s-15.848-13.6-22.163-26.532l-26.241-12.666Z" transform="translate(-178.064 -228.711)" fill="#eec1bb"/>
          <g id="Grupo_1026854" data-name="Grupo 1026854" transform="translate(5.481 50.287)">
            <path id="Trazado_724631" data-name="Trazado 724631" d="M173.415,263.808a.677.677,0,0,0,.125.067,5.218,5.218,0,0,0,1.94.635c1.982.174,3.257-.272,3.991-1.26h0c1.017-1.471.994-3.822.435-6.582a10.543,10.543,0,0,0-1.063-3.168c-.005-.008-.01-.04-.015-.048-.022-.032-.042-.079-.064-.111a3.838,3.838,0,0,0-3.117-1.93,7.748,7.748,0,0,0-1.672.046C168.539,252.158,168.819,261.288,173.415,263.808Z" transform="translate(-166.974 -250.144)" fill="#eec1bb"/>
            <path id="Trazado_724632" data-name="Trazado 724632" d="M176.261,272.714a5.091,5.091,0,0,0,1.929.559c1.982.175,3.249-.335,3.981-1.336a5.469,5.469,0,0,1-3.484.2A2.851,2.851,0,0,0,176.261,272.714Z" transform="translate(-169.696 -258.984)" opacity="0.2" style="isolation: isolate"/>
            <path id="Trazado_724633" data-name="Trazado 724633" d="M175.338,276.489c-.474,1.526,1.483,2.338,1.483,2.338,3.419-1.115,4.186-2.813,4.186-2.813-2.621-1.677-1.467-5.66-1.467-5.66l-.584.226-3.992.42s.9,2.186,1.005,2.675c0,0,0,.009,0,.013C176.492,276.243,175.338,276.489,175.338,276.489Z" transform="translate(-169.138 -258.303)" fill="#ebb376"/>
            <path id="Trazado_724634" data-name="Trazado 724634" d="M176.611,252.527a5.765,5.765,0,0,1-2.548,5.907s-1,4.172-3.27,4.547c-3.1.511-6.459-3.531-6.012-8.189C165.362,248.751,174.15,247.038,176.611,252.527Z" transform="translate(-164.741 -249.209)" fill="#263238"/>
            <path id="Trazado_724635" data-name="Trazado 724635" d="M182.334,262.042c-.084-.594-.7-1.525-1.606-1.261-.936.274-1.136,2.7,1.286,2.9C182.362,263.712,182.51,263.281,182.334,262.042Z" transform="translate(-171.337 -254.166)" fill="#ebb376"/>
          </g>
          <path id="Trazado_724636" data-name="Trazado 724636" d="M292.285,401.25l-2.622,2.021a.3.3,0,0,0-.088.367l1.336,2.847a.508.508,0,0,0,.679.238.49.49,0,0,0,.1-.06c1.06-.845,1.1-.977,2.443-2.016.83-.64,3.4-2.484,4.549-3.367s.423-2.131-.126-1.874a13.664,13.664,0,0,1-5.673,1.664A.837.837,0,0,0,292.285,401.25Z" transform="translate(-212.938 -263.505)" fill="#263238"/>
          <path id="Trazado_724637" data-name="Trazado 724637" d="M295.267,401.416a.083.083,0,0,1-.092-.018.074.074,0,0,1-.016-.087c.049-.137.513-1.359.936-1.436a.245.245,0,0,1,.25.1.482.482,0,0,1,.132.452,1.028,1.028,0,0,1-.417.543A4.164,4.164,0,0,1,295.267,401.416Zm.118-.235a1.676,1.676,0,0,0,.935-.8.337.337,0,0,0-.093-.3c-.043-.05-.083-.058-.1-.044a.189.189,0,0,0-.1.047A3.335,3.335,0,0,0,295.385,401.181Z" transform="translate(-215.348 -263.719)" fill="#407bff"/>
          <path id="Trazado_724638" data-name="Trazado 724638" d="M294.934,401.3a.088.088,0,0,1-.077-.035c-.026-.04-.565-.877-.447-1.378a.437.437,0,0,1,.21-.295.266.266,0,0,1,.339.009c.278.246.2,1.267.033,1.637l-.031.025A.075.075,0,0,1,294.934,401.3Zm-.382-1.4a1.938,1.938,0,0,0,.336,1.1,1.9,1.9,0,0,0-.056-1.3c-.017-.014-.062-.058-.145.006l-.031.025A.282.282,0,0,0,294.552,399.9Z" transform="translate(-215.022 -263.576)" fill="#407bff"/>
          <path id="Trazado_724639" data-name="Trazado 724639" d="M235.932,406.956l-3.31.066a.3.3,0,0,0-.289.243l-.619,3.083a.509.509,0,0,0,.4.6.5.5,0,0,0,.112.009c1.355-.049,1.462-.134,3.164-.169,1.048-.021,4.212.026,5.659,0s1.607-1.462,1.013-1.582a13.649,13.649,0,0,1-5.551-2.035A.833.833,0,0,0,235.932,406.956Z" transform="translate(-188.061 -266.767)" fill="#263238"/>
          <path id="Trazado_724640" data-name="Trazado 724640" d="M239.587,407.054a.084.084,0,0,1-.063-.069.075.075,0,0,1,.038-.08c.121-.081,1.221-.788,1.607-.6a.245.245,0,0,1,.145.225.482.482,0,0,1-.162.442,1.03,1.03,0,0,1-.659.189A4.119,4.119,0,0,1,239.587,407.054Zm.235-.119a1.677,1.677,0,0,0,1.226-.086.337.337,0,0,0,.1-.3c-.006-.066-.032-.1-.055-.1a.186.186,0,0,0-.105-.019A3.347,3.347,0,0,0,239.821,406.936Z" transform="translate(-191.423 -266.474)" fill="#407bff"/>
          <path id="Trazado_724641" data-name="Trazado 724641" d="M239.566,406.5a.088.088,0,0,1-.04-.074c0-.048.067-1.041.459-1.373a.438.438,0,0,1,.344-.112.266.266,0,0,1,.267.209c.078.363-.6,1.135-.947,1.335h-.039A.075.075,0,0,1,239.566,406.5Zm.526-1.353a1.933,1.933,0,0,0-.386,1.087c.35-.275.777-.858.729-1.081-.005-.022-.015-.083-.12-.081h-.039A.28.28,0,0,0,240.092,405.142Z" transform="translate(-191.425 -265.897)" fill="#407bff"/>
          <path id="Trazado_724642" data-name="Trazado 724642" d="M189.284,295.484l-12.065,5.067c-4.987-12.4-11.769-18.357-11.769-18.357,4.833-5.8,13.758-8.463,13.758-8.463a15.861,15.861,0,0,1,3.368,3.784,33.915,33.915,0,0,1,2.622,4.9A68.963,68.963,0,0,1,189.284,295.484Z" transform="translate(-159.566 -209.468)" fill="#407bff"/>
          <path id="Trazado_724643" data-name="Trazado 724643" d="M172.362,253.868s3.792-3.865.157-6.408-7.232.854-7.232.854-8.622,2.169-6.728,7.9,3.1,6.205.392,9.178-5.463,7.364-2.64,10.126,12.573-.2,15.5-4.439S169.409,257.848,172.362,253.868Z" transform="translate(-155.125 -197.764)" fill="#263238"/>
          <path id="Trazado_724644" data-name="Trazado 724644" d="M195.85,305.381l-13.1,4.5s2.9,14.275,5,16.661,16.164,13.444,18.152,12.575,15.172-12.575,15.172-12.575l-22.322-15.307Z" transform="translate(-167.008 -223.081)" fill="#263238"/>
          <g id="Grupo_1026855" data-name="Grupo 1026855" transform="translate(15.746 82.678)">
            <path id="Trazado_724645" data-name="Trazado 724645" d="M201.974,308.352l2.784-.924-.687-1.384-2.64.93Z" transform="translate(-190.787 -306.045)"/>
            <path id="Trazado_724646" data-name="Trazado 724646" d="M185.608,312.49l-2.854,1,.377,1.216,2.794-.927Z" transform="translate(-182.754 -308.817)"/>
            <path id="Trazado_724647" data-name="Trazado 724647" d="M189.09,311.654l6.852-2.273L195.433,308l-6.72,2.366Z" transform="translate(-185.317 -306.887)"/>
          </g>
          <path id="Trazado_724648" data-name="Trazado 724648" d="M196.7,285.266c-2.884-.336-4.508-4.673-4.508-4.673a15.769,15.769,0,0,1,1.886-.222A33.917,33.917,0,0,1,196.7,285.266Z" transform="translate(-171.066 -212.324)" opacity="0.2" style="isolation: isolate"/>
          <path id="Trazado_724649" data-name="Trazado 724649" d="M189.469,271.217c3.133-.465,10.147,2.075,10.755,2.045s7.433-5.372,7.433-5.372l1.765,1.555s-7.125,7.35-8.59,7.429-9.131-.492-9.131-.492a3.668,3.668,0,0,1-2.232-2.36A5.871,5.871,0,0,1,189.469,271.217Z" transform="translate(-169.827 -206.956)" fill="#407bff"/>
        </g>
      </g>
    </g>
  </g>
</svg>
