<svg xmlns="http://www.w3.org/2000/svg" width="265" height="201.099" viewBox="0 0 265 201.099">
  <g id="Grupo_1026610" data-name="Grupo 1026610" transform="translate(-945 -5657.084)">
    <g id="Grupo_1026611" data-name="Grupo 1026611" transform="translate(-20 2100.033)">
      <path id="Trazado_717261" data-name="Trazado 717261" d="M256.045,6.946c17.063-1.074,33.043,10.991,40.907,26.4s8.9,33.5,7.566,50.8c-1.55,20.065-6.345,40.492-18.157,56.663-10.291,14.089-25.385,24.1-41.614,30.118s-33.608,8.274-50.873,8.872a166.69,166.69,0,0,1-31.625-1.521c-21.419-3.372-41.515-12.526-60.782-22.6-10.065-5.265-20.115-10.9-28.347-18.793a96.232,96.232,0,0,1-13.794-17.23c-11.581-17.819-19.837-38.59-19.291-59.935S51.148,16.6,69.69,6.522c21.6-11.73,48.245-5.764,71.087,3.216,19.757,7.77,41.525,20.277,63.269,20.272,8.746,0,15.636-6.734,22.927-11.3,8.925-5.58,18.367-11.1,29.077-11.768Z" transform="translate(924.992 3578.02)" fill="#f5f9fd"/>
    </g>
    <g id="Grupo_1026610-2" data-name="Grupo 1026610" transform="translate(835.581 5655.077)">
      <path id="Trazado_724127" data-name="Trazado 724127" d="M864.407,506.547c4.276,3.9,2.416,7.816-.749,15.074s-3.721,34.062-3.721,34.062l2.6-.375s-.369-27.546,3.165-34.992,5.031-11.167,8.2-8.745-9.493-5.025-9.493-5.025Z" transform="translate(-533.457 -369.674)" fill="#b0c2e4" fill-rule="evenodd"/>
      <path id="Trazado_724128" data-name="Trazado 724128" d="M867.154,455.2c.515-2.326,3.607-4.827,7.735-6.952-.617,3.414-2.581,9-.55,10.152,2.757,1.542.272-6.261,1.328-10.548a51.383,51.383,0,0,1,12.84-4.208.223.223,0,0,0-.016.046c-2.422,6.147-5.581,8.563-4.282,9.493.981.7,4.174-6.391,8.394-10.028,3.165-.171,5.841.255,7.418,1.509,2.45,1.939,4.1,3.664,1.633,9.562a11.121,11.121,0,0,1-5.342,1.939c-5.581.556-8.188.737-4.281,2.6,1.911.912,5.122-.051,7.719-.64-.839,1.554-1.878,3.318-3.142,5.319a20.016,20.016,0,0,1-2.615,3.335,8.253,8.253,0,0,1-4.2-.012c-2.6-1.112-9.307-4.651-10.986-3.165-1.633,1.458,12.415,2.383,11.44,6.086-6.812,3.925-14.6,2.059-15.976-1.549-1.855-4.832-8.682-5.978-7.117-12.943Z" transform="translate(-538.558 -323.384)" fill="#c4d1eb" fill-rule="evenodd"/>
      <path id="Trazado_724129" data-name="Trazado 724129" d="M862.965,579.329c-7.452-5.586-15.081-.374-18.988,5.581s-1.123,19.356-1.123,19.356,1.5,0,1.5-.561-4.1-15.812,5.581-22.7c6.057-4.3,10.423-2.235,10.979-.187s-2.416,5.774-2.416,5.774Z" transform="translate(-520.286 -421.052)" fill="#b0c2e4" fill-rule="evenodd"/>
      <path id="Trazado_724130" data-name="Trazado 724130" d="M855.6,543.281c7.446,0,9.867,11.536,7.815,18.239s-4.837,19.169-4.837,19.169l-1.86-1.86s7.072-17.49,5.393-25.316-5.762-9.12-6.511-9.12S855.6,543.281,855.6,543.281Z" transform="translate(-530.05 -396.483)" fill="#b0c2e4" fill-rule="evenodd"/>
      <path id="Trazado_724131" data-name="Trazado 724131" d="M874.549,606.523a5.542,5.542,0,0,1,1.962-1.656,13.879,13.879,0,0,1-.385,1.6c-.93,3.051-2.019,7.3-2.926,11.025-.079-.476-.215-1.213-.4-2.342-.051-.266-.085-.561-.114-.867a70.046,70.046,0,0,0,1.865-7.758Z" transform="translate(-542.76 -441.429)" fill="#b0c2e4" fill-rule="evenodd"/>
      <path id="Trazado_724132" data-name="Trazado 724132" d="M876.748,582.846c14.144-5.961,6.692-14.127,19.164-8.728a9.208,9.208,0,0,1,3.017,2.655,9.184,9.184,0,0,1-3.953.318c-3.721-.555-2.416,2.422,3.731,3.165a14.336,14.336,0,0,1,2.87.612c2.933,5.614,4.253,13.01-1.945,15.586a14.2,14.2,0,0,1-4.406.907c-1.911-1.519.466-10.311-2.484-9.1-2.824,1.162.9,7.531.385,9.136a40.5,40.5,0,0,1-8.836-1.242,4.382,4.382,0,0,1-2.337-2.688c-.93-3.907,5.206-6.323,5.4-9.676.165-3.08-2.257,6.777-8.672,8.224C872.88,589.313,870.135,585.631,876.748,582.846Z" transform="translate(-542.917 -417.701)" fill="#c4d1eb" fill-rule="evenodd"/>
      <path id="Trazado_724133" data-name="Trazado 724133" d="M788.487,535.761c1.5-3.165-2.416-3.907-2.229-1.486.164,2.144.181,7.35-2.013,8.769a34.419,34.419,0,0,1-12.857-4.266,1.582,1.582,0,0,1,.164-.97c1.679-3.352,12.477-6.142,9.12-7.253-2.666-.9-7.344,4.355-11.111,7-2.263-1.713-3.782-3.766-3.782-6.045,0-3.1,3.766-6.59,8.621-8.269,2.189.227,4.22,1.417,7.39,3.221,4.691,2.655,3.6-1.644-.828-4.192A13.348,13.348,0,0,1,791.414,528s-.266,1.674,1.5,4.253c4.821,7.044-.737,11.162-7.383,10.889a44.3,44.3,0,0,1,2.961-7.385Z" transform="translate(-464.741 -381.148)" fill="#c4d1eb" fill-rule="evenodd"/>
      <path id="Trazado_724134" data-name="Trazado 724134" d="M913.708,584.46c3.641,2.813,7.685,6.1,12.648,8.336s3.97,9.511,3.97,9.511.749-6.289-3.391-8.438-6.863-4.712-10-5.212a47.6,47.6,0,0,1-4.888-.987s1-1.99.42-2.734,1.248-.477,1.248-.477Z" transform="translate(-571.483 -426.5)" fill="#b0c2e4" fill-rule="evenodd"/>
      <path id="Trazado_724135" data-name="Trazado 724135" d="M912.441,462.342c-13.323,3.561-23.083,12.08-24.908,14.149s-1.815,2.648-1.815,2.648l1.407,2.643.663-.329s-1.078-2.235,1.741-5.127a50.744,50.744,0,0,1,14.8-10.673c4.06-1.735,8.109-3.313,8.109-3.313Z" transform="translate(-552.273 -337.413)" fill="#b0c2e4" fill-rule="evenodd"/>
      <path id="Trazado_724136" data-name="Trazado 724136" d="M830.851,685.932h5.087a6.56,6.56,0,0,0,6.557-6.557V667.686H824.3v11.689A6.551,6.551,0,0,0,830.851,685.932Z" transform="translate(-507.45 -487.275)" fill="#9db2d9" fill-rule="evenodd"/>
      <path id="Trazado_724137" data-name="Trazado 724137" d="M842.494,675.415H824.3V676.7h18.193Z" transform="translate(-507.45 -492.915)" fill="#fff"/>
      <path id="Trazado_724138" data-name="Trazado 724138" d="M842.494,684.059H824.3v.754h18.193Z" transform="translate(-507.45 -499.224)" fill="#fff"/>
      <path id="Trazado_724139" data-name="Trazado 724139" d="M450.572,179.352c12.009-33.835,31.172-52.352,10.846-72.173-25.742-25.1-30.4-57.257-14.278-80.073,20.2-28.578,70.509-42.166,98.072-1.968,1.82,6.2,5.591,19.521,8.348,21.114,3.652,2.115,2.982,4.338,2.982,4.338a25.344,25.344,0,0,0-3.425,4.383c-1.656,3.7-.556,7.067.4,9.761,2.439,6.885,10.923,11.949,15.528,18.012q.425,4.475-11.23,6.249c.005,3.511.545,5.9,1.623,7.174-.125,2.6-1.282,4.18-3.471,4.747,2.416.744,3.233,2.286,2.433,4.628q-4.951,3.624-1.855,12.726.918,17.065-17.717,12.523a59.994,59.994,0,0,1-6.113-1.883,17.228,17.228,0,0,0-10.719,6.851,11.491,11.491,0,0,0-.385,12.1c3.539,6.119-4.865,10.407-3.97,15.761,1.089,6.539,37.068,33.415,39.836,37.487l-137.579-.222,30.677-21.534Z" transform="translate(-222.207 2)" fill="#3076b6" fill-rule="evenodd"/>
      <path id="Trazado_724140" data-name="Trazado 724140" d="M527.568,701.465l-.714,13.02,6.636.364,15.982-11.156.042-1.02Z" transform="translate(-300.266 -511.927)" fill="#859ac6" fill-rule="evenodd"/>
      <path id="Trazado_724141" data-name="Trazado 724141" d="M548.443,717.447l.8.664,15.982-11.156.042-1.02Z" transform="translate(-316.022 -515.189)" fill="#9db2d9" fill-rule="evenodd"/>
      <path id="Trazado_724142" data-name="Trazado 724142" d="M559.818,674.45c.02.38.051.76.089,1.139,0,0-13.28,8.535-15.7,10.566,0,0-2.408-3.925-.352-10.866,0,0,15.446-10.492,16.807-11.229a35.858,35.858,0,0,0-.622,3.692c-.013.119-.026.232-.04.357a37.29,37.29,0,0,0-.2,6.125c0,.074.008.147.015.215Z" transform="translate(-312.07 -484.628)" fill="#fff" fill-rule="evenodd"/>
      <path id="Trazado_724143" data-name="Trazado 724143" d="M561.812,664.052h-.005c-.17.125-.344.239-.513.363-2.314,1.616-4.617,2.966-6.93,4.582-2.515,1.758-4.367,2.972-6.879,4.73a7.283,7.283,0,0,0-2.1,2.3,14.566,14.566,0,0,0,.188,9.948c.734-.589,2.1-1.542,3.72-2.655-.156.033-.309.063-.462.085a3.852,3.852,0,0,1-.556.039,2.707,2.707,0,0,1-1.373-.341.511.511,0,0,0-.082.045c-.624.352-1.049.579-1.049.579s.388-.283.986-.68c.008-.011.017-.011.028-.023a3.552,3.552,0,0,1-1.213-3.277c.209-3.794,2.958-5.785,5.889-7.633,1.8-1.134,3.876-2.326,5.621-3.539a39.536,39.536,0,0,0,4.5-3.408c.012-.062.026-.13.037-.188.11-.6.194-.93.194-.93Z" transform="translate(-313.217 -484.621)" fill="#e0e8f5" fill-rule="evenodd"/>
      <path id="Trazado_724144" data-name="Trazado 724144" d="M549.94,734.289c-.011.011-.02.011-.028.023-.6.4-.986.68-.986.68s.425-.227,1.049-.579c.028-.016.054-.033.082-.046A1.069,1.069,0,0,1,549.94,734.289Z" transform="translate(-316.374 -535.882)" fill="#e0e8f5" fill-rule="evenodd"/>
      <path id="Trazado_724145" data-name="Trazado 724145" d="M428.93,654.609l.048-.857-51.8-1.725-15.963,10.884s50.275,4.447,50.325,4.35a7.4,7.4,0,0,1,2.107-2.309c2.513-1.758,4.363-2.972,6.879-4.73,2.314-1.616,4.617-2.966,6.93-4.582.487-.341.979-.686,1.469-1.032Z" transform="translate(-179.385 -475.847)" fill="#859ac6" fill-rule="evenodd"/>
      <path id="Trazado_724146" data-name="Trazado 724146" d="M407.309,689.767c-3.333,2.972-3.5,11.009-.8,14.5l-50.932-2.8c-1.86-.1-2.495-3.437-2.676-4.809-.272-2.042-.119-9.88,3.476-9.687Z" transform="translate(-173.251 -501.342)" fill="#9db2d9" fill-rule="evenodd"/>
      <path id="Trazado_724147" data-name="Trazado 724147" d="M549.471,747.851a6.361,6.361,0,0,0,.389.612A6.711,6.711,0,0,1,549.471,747.851Z" transform="translate(-316.772 -545.779)" fill="#5f9fab" fill-rule="evenodd"/>
      <path id="Trazado_724148" data-name="Trazado 724148" d="M545.373,708.385s0,.005-.005.005a14.562,14.562,0,0,0,.193,9.942,14.574,14.574,0,0,1-.188-9.948Z" transform="translate(-313.209 -516.976)" fill="#dace90" fill-rule="evenodd"/>
      <path id="Trazado_724149" data-name="Trazado 724149" d="M547.666,706.665s0,.011-.005.011c-.066.148-.125.306-.181.459l.005-.005C547.541,706.971,547.6,706.818,547.666,706.665Z" transform="translate(-315.318 -515.722)" fill="#528d97" fill-rule="evenodd"/>
      <path id="Trazado_724150" data-name="Trazado 724150" d="M405.594,706.71a11.912,11.912,0,0,0-1.991,3.517,19.715,19.715,0,0,0-.765,3.731,2.906,2.906,0,0,1-.814,1.974c-.737.522-4.642.721-7.227.721-.82,0-1.506-.018-1.917-.056-3.436-.3-6.848-.375-10.455-.573-7.194-.4-13.621-.454-20.783-1.208-2.334-.249-5.192-.459-6.783-2.439a7.927,7.927,0,0,1-1.415-2.683,23.981,23.981,0,0,1-.494-2.762,22.284,22.284,0,0,0-.13,2.768,12.769,12.769,0,0,0,.082,1.356.028.028,0,0,1,0,.011c.181,1.373.816,4.707,2.676,4.809.136.005,50.932,2.8,50.932,2.8a.312.312,0,0,1-.028-.034c0-.005-.008-.011-.011-.011s-.011-.023-.017-.028l-.015-.018a.161.161,0,0,0-.015-.017c-.005-.005-.011-.018-.015-.018s0-.011-.008-.011c-.011-.023-.023-.034-.034-.056l-.008-.005-.02-.028s0,0,0-.011a6.691,6.691,0,0,1-.389-.612c-.122-.227-.242-.464-.346-.714a14.57,14.57,0,0,1-.193-9.942c.056-.153.117-.312.181-.459Z" transform="translate(-173.254 -515.755)" fill="#859ac6" fill-rule="evenodd"/>
      <path id="Trazado_724151" data-name="Trazado 724151" d="M398.047,689l-1.674-.091a15.959,15.959,0,0,0-1.662,6.323,22.157,22.157,0,0,0,.862,8.173l1.656.091c-1.254-4.118-1.554-10.413.816-14.5Z" transform="translate(-203.793 -502.762)" fill="#859ac6" fill-rule="evenodd"/>
      <path id="Trazado_724152" data-name="Trazado 724152" d="M409.681,689.629l-1.672-.091a15.984,15.984,0,0,0-1.662,6.33,22.185,22.185,0,0,0,.862,8.167l1.659.091c-1.256-4.111-1.557-10.412.813-14.5Z" transform="translate(-212.284 -503.222)" fill="#859ac6" fill-rule="evenodd"/>
      <path id="Trazado_724153" data-name="Trazado 724153" d="M490.635,694.1l-8.7-.487a16.666,16.666,0,0,0-1.664,6.33c-.181,2.563-.189,5.683.864,8.167l8.685.482c-1.253-4.112-1.554-10.413.816-14.49Z" transform="translate(-266.2 -506.199)" fill="#859ac6" fill-rule="evenodd"/>
      <path id="Trazado_724154" data-name="Trazado 724154" d="M429.142,650.708l-51.735-2.852-15.964,10.888,51.735,2.848Z" transform="translate(-179.549 -472.803)" fill="#b0c2e4" fill-rule="evenodd"/>
      <path id="Trazado_724155" data-name="Trazado 724155" d="M410.792,656.257l-8.116-.448-10.568,7.209,8.116.442Z" transform="translate(-201.927 -478.607)" fill="#859ac6" fill-rule="evenodd"/>
      <path id="Trazado_724156" data-name="Trazado 724156" d="M412.913,632.533c-1.795,3.137-1.664,9.772-.428,13.186,0,0-40.8-2.291-40.913-2.291-1.137-.069-2.021-2.637-2.161-3.935-.2-1.939-.018-9.391,2.921-9.233Z" transform="translate(-185.321 -459.959)" fill="#b0c2e4" fill-rule="evenodd"/>
      <path id="Trazado_724157" data-name="Trazado 724157" d="M374.64,633.744s-1.437,1.021-1.582,5.739c-.071,2.286.127,4.128,1.276,5.268.128.13-.056,1.038-.069,1.219l44.971,2.518,15.787-11.058.04-.9-60.423-2.79Z" transform="translate(-188.015 -462.503)" fill="#9db2d9" fill-rule="evenodd"/>
      <path id="Trazado_724158" data-name="Trazado 724158" d="M438.359,644.075,422.627,654.9l-45-2.609-.069,1.219,44.971,2.518,15.785-11.058Z" transform="translate(-191.312 -470.043)" fill="#b0c2e4" fill-rule="evenodd"/>
      <path id="Trazado_724159" data-name="Trazado 724159" d="M554.086,618.365c.017.329.043.658.076,1,0,0-11.672,7.487-13.8,9.266a19.3,19.3,0,0,1-.1-10.39s13.376-8.359,14.572-9.006a30.919,30.919,0,0,0-.553,3.244c-.011.1-.023.2-.034.311a32.9,32.9,0,0,0-.181,5.382C554.074,618.234,554.079,618.3,554.086,618.365Z" transform="translate(-309.575 -444.616)" fill="#fff" fill-rule="evenodd"/>
      <path id="Trazado_724160" data-name="Trazado 724160" d="M423.331,640.436a16.273,16.273,0,0,0,.533,3.073L382.3,641.185c-1.557-.091-2.092-2.757-2.248-3.845-.227-1.628-.114-7.883,2.9-7.714l41.569,2.326a8.389,8.389,0,0,0-.857,2.377c-.051.222-.094.454-.133.686a21.607,21.607,0,0,0-.23,4.9c.011.17.02.346.036.522Z" transform="translate(-193.071 -459.496)" fill="#fff" fill-rule="evenodd"/>
      <path id="Trazado_724161" data-name="Trazado 724161" d="M595.082,611.414c-.046.227-.1.51-.159.839C594.982,611.924,595.037,611.641,595.082,611.414Z" transform="translate(-349.943 -446.207)" fill="#edeadd" fill-rule="evenodd"/>
      <path id="Trazado_724162" data-name="Trazado 724162" d="M555.428,611.414c-.122.079-.242.164-.36.25-.255.181-.607.413-1.035.7,0,.091-.008.176-.015.26v.011s0,.011,0,.011v.034a.108.108,0,0,1,0,.023c-.005.068-.011.136-.018.193a.107.107,0,0,0,0,.023c-.005.056-.015.114-.02.176.65-.431,1.129-.742,1.3-.844.059-.329.114-.612.159-.839Zm-7.688,5.831c-.426.028-.877.062-1.356.1-1.735,1.129-3.247,2.121-4.009,2.655a.208.208,0,0,1-.076.005c-.156,0-.545-.017-1.132-.046-.11.341-.209.7-.293,1.083v.005c-.043.186-.216,1.384-.286,1.86,1.246-2.643,4.9-4.214,7.129-5.648C547.725,617.257,547.735,617.245,547.74,617.245Z" transform="translate(-310.29 -446.207)" fill="#e0e8f5" fill-rule="evenodd"/>
      <path id="Trazado_724163" data-name="Trazado 724163" d="M380.99,634.119c-.023.046-.046.079-.068.125s-.04.079-.059.114-.04.079-.059.125-.041.079-.059.125-.033.085-.051.125-.036.091-.051.135c-.031.079-.063.159-.088.238a14.5,14.5,0,0,0-.5,5.5v.011c.156,1.089.691,3.754,2.248,3.845.026,0,2.1.113,5.323.3a4.926,4.926,0,0,1-2.648-1.878l-4.157-.267a.083.083,0,0,1-.082-.091.084.084,0,0,1,.085-.079h.005l3.976.186a5.137,5.137,0,0,1-.114-5.688c-.612-.046-1.134-.091-1.534-.125-.559-.046-.877-.074-.877-.074s.321-.005.882-.005h1.672a3.635,3.635,0,0,1,3.157-1.271c.643,0,1.307.063,1.962.1.392.028.78.051,1.172.074l-1.526-1.027c-3.84-.222-6.952-.4-8.606-.5Z" transform="translate(-193.076 -462.775)" fill="#e0e8f5" fill-rule="evenodd"/>
      <path id="Trazado_724164" data-name="Trazado 724164" d="M438.392,601.358l.043-.754-45.459-2.075L379,607.087l-.054.992s45.292,2.632,45.461,2.513c2.207-1.542,10.66-6.914,12.693-8.331Z" transform="translate(-192.324 -436.804)" fill="#b0c2e4" fill-rule="evenodd"/>
      <path id="Trazado_724165" data-name="Trazado 724165" d="M438.58,597.936l-45.4-3.063-14.029,9.546,45.436,2.546Z" transform="translate(-192.469 -434.135)" fill="#9db2d9" fill-rule="evenodd"/>
      <path id="Trazado_724166" data-name="Trazado 724166" d="M468.652,601.352l-27.563-1.542-3.306,2.33,27.151,1.521Z" transform="translate(-235.262 -437.738)" fill="#e7e4de" fill-rule="evenodd"/>
      <path id="Trazado_724167" data-name="Trazado 724167" d="M394.879,601.971l.791,10.764-5.49.408-13.4-9-.051-.844Z" transform="translate(-190.707 -439.316)" fill="#9db2d9" fill-rule="evenodd"/>
      <path id="Trazado_724168" data-name="Trazado 724168" d="M390.835,616.176l-.655.568-13.4-9-.051-.844Z" transform="translate(-190.707 -442.916)" fill="#b0c2e4" fill-rule="evenodd"/>
      <path id="Trazado_724169" data-name="Trazado 724169" d="M378.948,580.792c-.011.312-.031.624-.056.941,0,0,11.124,6.868,13.155,8.519,0,0,1.934-3.29.127-9.006,0,0-12.948-8.45-14.085-9.04a28.811,28.811,0,0,1,.57,3.051c.012.091.026.187.04.283a31.14,31.14,0,0,1,.258,5.082c0,.057,0,.114-.008.171Z" transform="translate(-191.697 -417.593)" fill="#fff" fill-rule="evenodd"/>
      <path id="Trazado_724170" data-name="Trazado 724170" d="M378.089,572.2s.011.046.028.113c.034.147.1.42.179.805.326.3.693.6,1.075.89-.043-.2-.074-.392-.094-.55-.012-.136-.025-.306-.034-.494-.242-.153-.479-.313-.717-.471-.145-.1-.29-.193-.431-.3h-.005Zm5.869,4.855c.95.568,1.926,1.123,2.821,1.661,2.459,1.491,4.761,3.091,4.99,6.233a2.946,2.946,0,0,1-.953,2.734.282.282,0,0,1,.026.018c.5.318.826.545.826.545s-.355-.176-.877-.459a.435.435,0,0,1-.071-.039,2.2,2.2,0,0,1-1.185.3,2.482,2.482,0,0,1-.4-.023c-.13-.012-.255-.034-.385-.057,1.358.885,2.5,1.662,3.119,2.133a12.061,12.061,0,0,0,.005-8.234A5.966,5.966,0,0,0,390.094,580c-1.591-1.072-2.867-1.894-4.3-2.836-.672-.04-1.284-.074-1.832-.1Z" transform="translate(-191.697 -417.586)" fill="#e0e8f5" fill-rule="evenodd"/>
      <path id="Trazado_724171" data-name="Trazado 724171" d="M375,562.327l-.051-.715L417.8,559.4l13.381,8.767s-41.551,4.447-41.594,4.367a5.975,5.975,0,0,0-1.781-1.883c-2.107-1.417-3.657-2.393-5.765-3.812-1.939-1.3-3.866-2.382-5.805-3.687-.411-.283-.823-.555-1.233-.828Z" transform="translate(-189.405 -408.247)" fill="#9db2d9" fill-rule="evenodd"/>
      <path id="Trazado_724172" data-name="Trazado 724172" d="M423.129,590.582c2.8,2.405,3.068,9.057.882,11.99,0,0,42.005-3.086,42.112-3.1,1.54-.114,2.016-2.882,2.146-4.016.193-1.69-.051-8.19-3.025-7.969Z" transform="translate(-224.567 -428.744)" fill="#c4d1eb" fill-rule="evenodd"/>
      <path id="Trazado_724173" data-name="Trazado 724173" d="M429.09,607.972a12.07,12.07,0,0,1-.005,8.234,12.016,12.016,0,0,0,.008-8.223A.028.028,0,0,1,429.09,607.972Z" transform="translate(-228.914 -443.695)" fill="#dace90" fill-rule="evenodd"/>
      <path id="Trazado_724174" data-name="Trazado 724174" d="M590.219,616.2c-.005.069-.011.136-.018.193C590.207,616.335,590.212,616.267,590.219,616.2Zm-.018.193a.105.105,0,0,0,0,.023A.205.205,0,0,1,590.2,616.391Z" transform="translate(-346.496 -449.699)" fill="#dace97" fill-rule="evenodd"/>
      <path id="Trazado_724175" data-name="Trazado 724175" d="M470.55,604.317a18.8,18.8,0,0,1-.366,2.291,6.534,6.534,0,0,1-1.132,2.246c-1.287,1.662-3.647,1.883-5.578,2.12-5.918.737-11.235.874-17.184,1.316-2.981.216-5.808.329-8.646.635-.474.046-1.392.079-2.433.079-2.062,0-4.605-.125-5.145-.494a2.4,2.4,0,0,1-.708-1.628,15.947,15.947,0,0,0-.686-3.074,10,10,0,0,0-1.7-2.882c.056.125.107.255.158.385a12.024,12.024,0,0,1-.008,8.223,5.75,5.75,0,0,1-.278.6c-.1.186-.2.357-.312.527a.241.241,0,0,1-.017.023h0a.429.429,0,0,1-.036.056c-.005.011-.008.011-.015.023s-.005.012-.008.012a.056.056,0,0,0-.011.016c-.005.005-.008.012-.015.018s-.005.012-.008.012a.27.27,0,0,0-.023.034s42.005-3.086,42.112-3.1c1.54-.114,2.016-2.882,2.146-4.016a.215.215,0,0,1,0-.023c.005-.056.011-.125.018-.193a.108.108,0,0,0,0-.023v-.034l0-.01v-.011a17.115,17.115,0,0,0-.128-3.13Z" transform="translate(-226.949 -441.027)" fill="#b0c2e4" fill-rule="evenodd"/>
      <path id="Trazado_724176" data-name="Trazado 724176" d="M554.564,589.019l1.384-.1a13.314,13.314,0,0,1,1.471,5.217,18.326,18.326,0,0,1-.593,6.771l-1.369.1c.978-3.425,1.129-8.644-.894-11.99Z" transform="translate(-320.488 -429.789)" fill="#9db2d9" fill-rule="evenodd"/>
      <path id="Trazado_724177" data-name="Trazado 724177" d="M544.946,589.729l1.384-.1a13.237,13.237,0,0,1,1.471,5.212,18.393,18.393,0,0,1-.589,6.778l-1.369.1C546.818,598.294,546.971,593.075,544.946,589.729Z" transform="translate(-313.47 -430.307)" fill="#9db2d9" fill-rule="evenodd"/>
      <path id="Trazado_724178" data-name="Trazado 724178" d="M535.334,590.444l1.384-.1a13.244,13.244,0,0,1,1.469,5.206,18.361,18.361,0,0,1-.587,6.777l-1.369.1C537.206,599.007,537.357,593.783,535.334,590.444Z" transform="translate(-306.455 -430.829)" fill="#9db2d9" fill-rule="evenodd"/>
      <path id="Trazado_724179" data-name="Trazado 724179" d="M452.577,595.366l7.2-.533a13.722,13.722,0,0,1,1.475,5.212,15.267,15.267,0,0,1-.593,6.778l-7.183.522c.976-3.42,1.129-8.637-.9-11.978Z" transform="translate(-246.058 -434.106)" fill="#9db2d9" fill-rule="evenodd"/>
      <path id="Trazado_724180" data-name="Trazado 724180" d="M374.949,559.1l42.78-3.141,13.379,8.767-42.78,3.142Z" transform="translate(-189.405 -405.739)" fill="#9db2d9" fill-rule="evenodd"/>
      <path id="Trazado_724181" data-name="Trazado 724181" d="M499.7,563.193l6.712-.494,8.861,5.8-6.715.5Z" transform="translate(-280.451 -410.655)" fill="#ecb362" fill-rule="evenodd"/>
      <path id="Trazado_724182" data-name="Trazado 724182" d="M420.421,548.89c-1.568,2.745-1.45,8.553-.362,11.536,0,0-35.721-1.962-35.815-1.975-1-.051-1.776-2.3-1.9-3.437-.181-1.7-.023-8.224,2.551-8.088l35.522,1.962Z" transform="translate(-194.766 -399.142)" fill="#b0c2e4" fill-rule="evenodd"/>
      <path id="Trazado_724183" data-name="Trazado 724183" d="M386.923,550s-1.256.9-1.381,5.025c-.059,2,.114,3.606,1.123,4.61.11.107-.051.907-.059,1.06l39.368,2.172,13.8-9.692.034-.788Z" transform="translate(-197.129 -401.385)" fill="#9db2d9" fill-rule="evenodd"/>
      <path id="Trazado_724184" data-name="Trazado 724184" d="M442.711,558.834l-13.763,9.495-39.384-2.252-.061,1.067,39.368,2.172,13.8-9.692Z" transform="translate(-200.028 -407.834)" fill="#b0c2e4" fill-rule="evenodd"/>
      <path id="Trazado_724185" data-name="Trazado 724185" d="M544,536.364c.015.29.036.578.066.874,0,0-10.209,6.562-12.069,8.127a16.95,16.95,0,0,1-.091-9.1s11.7-7.316,12.744-7.884a26.693,26.693,0,0,0-.476,2.836c-.011.091-.02.181-.031.272a28.679,28.679,0,0,0-.156,4.707,1.461,1.461,0,0,0,.015.171Z" transform="translate(-303.533 -385.607)" fill="#fff" fill-rule="evenodd"/>
      <path id="Trazado_724186" data-name="Trazado 724186" d="M429.555,555.786a13.734,13.734,0,0,0,.469,2.694s-36.289-2-36.384-2c-1.364-.079-1.838-2.41-1.97-3.369-.2-1.417-.108-6.9,2.526-6.755l36.384,2a7.67,7.67,0,0,0-.746,2.087c-.043.194-.082.4-.117.6a18.881,18.881,0,0,0-.2,4.287c.008.148.017.306.033.454Z" transform="translate(-201.558 -398.723)" fill="#fff" fill-rule="evenodd"/>
      <path id="Trazado_724187" data-name="Trazado 724187" d="M398.606,546.346c-.011,0-.026.005-.036.005h.13l36.384,2-25.229-1.384-11.155-.619C398.669,546.351,398.637,546.346,398.606,546.346Zm-.777.193-.005.005a.222.222,0,0,0-.048.028C397.792,546.562,397.809,546.55,397.829,546.539Z" transform="translate(-206.064 -398.72)" fill="#edeadd" fill-rule="evenodd"/>
      <path id="Trazado_724188" data-name="Trazado 724188" d="M394.089,546.359h-.028a.5.5,0,0,0-.087.005h-.069c-.048.011-.1.016-.142.023l-.071.023-.133.034-.062.023-.153.068-.023.012c-.02.011-.036.023-.053.034a.566.566,0,0,0-.117.079l-.059.039c-.034.028-.066.051-.1.084l-.062.057-.089.091-.059.062c-.028.04-.059.074-.085.108l-.048.062a1.974,1.974,0,0,0-.114.176l-.054.085c-.02.04-.04.074-.059.107s-.036.068-.053.1a.953.953,0,0,0-.054.114.98.98,0,0,0-.048.107c-.018.034-.031.074-.048.108a1.157,1.157,0,0,1-.048.119c-.023.068-.051.142-.074.211a9.125,9.125,0,0,0-.38,1.723,12.935,12.935,0,0,0-.051,3.1c.133.958.607,3.29,1.97,3.369h.113c.439.028,2.123.119,4.549.255a4.344,4.344,0,0,1-2.325-1.644l-3.639-.232a.071.071,0,0,1-.071-.079.072.072,0,0,1,.076-.068h0l3.479.158a4.49,4.49,0,0,1-.1-4.974c-.536-.039-.992-.079-1.341-.108-.487-.045-.769-.068-.769-.068s.281,0,.772-.005h.97c.158,0,.323,0,.5.005a3.186,3.186,0,0,1,2.77-1.123c.559,0,1.137.056,1.707.091,2.317.148,4.636.216,6.952.341,1.322.074,2.643.125,3.965.193l9.911.477c.627.034,1.253.079,1.883.1a14.66,14.66,0,0,1,3.629.459c.548.034,1.055.056,1.509.085l1.509.1q.1-.519.247-1.055l.255-.158a6.045,6.045,0,0,1,.395-.862l-36.384-2h-.1Zm34.082,4.543,1.4.136c-.056.352-.1.691-.133,1.038a4.582,4.582,0,0,0-1.264-1.175Z" transform="translate(-201.555 -398.728)" fill="#e0e8f5" fill-rule="evenodd"/>
      <path id="Trazado_724189" data-name="Trazado 724189" d="M442.7,521.568l.036-.67-39.793-1.774-12.225,7.5-.048.862s39.648,2.268,39.8,2.166c1.931-1.35,9.324-6.057,11.1-7.3l1.132-.783Z" transform="translate(-200.876 -378.854)" fill="#b0c2e4" fill-rule="evenodd"/>
      <path id="Trazado_724190" data-name="Trazado 724190" d="M442.868,518.553l-39.749-2.643-12.269,8.371,39.77,2.189Z" transform="translate(-201.01 -376.508)" fill="#c4d1eb" fill-rule="evenodd"/>
      <path id="Trazado_724191" data-name="Trazado 724191" d="M469.17,521.564l-24.126-1.327-2.9,2.041,23.769,1.3Z" transform="translate(-238.448 -379.666)" fill="#e7e4de" fill-rule="evenodd"/>
      <path id="Trazado_724192" data-name="Trazado 724192" d="M408.089,508.4c-.117-1.18.515-4.049,1.415-4.827-1.9-.266-3.823-.436-5.737-.612-4.959-.448-9.931-.823-14.9-1.174q-3.62-.256-7.243-.482-1.506-.093-3.012-.176c-.635-.034-.653.136-.561.726a17.9,17.9,0,0,1,.193,2.059,18.19,18.19,0,0,1-.142,2.785c-.091.737.074,1.519-.482,2.12a5.049,5.049,0,0,1-2.452,1.157c-.7.215-.2.709.5.828,2.26.362,4.671.658,7.413.9,3.958.341,7.928.584,11.893.874,3.731.283,7.495.942,11.226,1.213q2.488.187,4.971.369a7.266,7.266,0,0,1-3.088-5.757Z" transform="translate(-189.322 -365.716)" fill="#b0c2e4" fill-rule="evenodd"/>
      <path id="Trazado_724193" data-name="Trazado 724193" d="M438.767,503.47l-24.86,5.127-34.581-3.845,25.68-10.209,3.063.715q1.7.391,3.4.788a8.715,8.715,0,0,0,3.655-.341c7.393-1.366,14.882-2.092,22.362-2.818a.521.521,0,0,1,.413.079.537.537,0,0,1,.114.272c.391,1.848.607,3.38.884,5.247C439,499.178,439.66,503.317,438.767,503.47Z" transform="translate(-192.6 -359.701)" fill="#9db2d9" fill-rule="evenodd"/>
      <path id="Trazado_724194" data-name="Trazado 724194" d="M380.185,504.814c4.972.533,13.719,1.226,17.956,1.644,5.379.533,10.16,1.236,15.585,1.611a3.982,3.982,0,0,0,.74.056c.184-.023.36-.091.545-.125,3.015-.533,14.7-2.852,17.647-3.38,1.73-.306,3.287-.816,5.155-1.157a.851.851,0,0,0,.446-.25l.068-.085a1.071,1.071,0,0,0,.128-.652,35.072,35.072,0,0,0-.425-3.527,19.1,19.1,0,0,0-.879-4.139,2.232,2.232,0,0,0-.227-.487,1.313,1.313,0,0,0-1.029-.487,15.82,15.82,0,0,0-2.495.42q-1.407.18-2.811.375c-4.129.556-8.263,1.111-12.372,1.781-1.233.2-2.47.408-3.695.67a16.2,16.2,0,0,1-1.616.352,23.963,23.963,0,0,1-4.46-.2c-9.513-.9-18.03-1.491-27.589-1.644a9.873,9.873,0,0,1,.762,3.51c.005.125.008.25.008.387a8.428,8.428,0,0,1-.087,1.384l-.017.079c-.02.136-.04.262-.066.385a10.179,10.179,0,0,1-1.271,3.483Z" transform="translate(-193.227 -360.398)" fill="#fff" fill-rule="evenodd"/>
      <path id="Trazado_724195" data-name="Trazado 724195" d="M436.621,486.1l-25.043,4.361-33.506-2.478a.24.24,0,0,1-.025-.476l25.132-4.378,33.415,2.467a.255.255,0,0,1,.026.5Z" transform="translate(-191.521 -352.581)" fill="#9db2d9" fill-rule="evenodd"/>
      <path id="Trazado_724196" data-name="Trazado 724196" d="M364.324,471.5l25.079.9,34.765-7.429-27.234-6.942-32.767,12.545a.481.481,0,0,0,.156.93Z" transform="translate(-181.31 -334.262)" fill="#b0c2e4" fill-rule="evenodd"/>
      <path id="Trazado_724197" data-name="Trazado 724197" d="M368.2,478.276c7.628.278,15.548.675,22.989.731.788.005,2.475.215,3.219-.438A5.775,5.775,0,0,0,396,475.524a8.617,8.617,0,0,0-1.267-5.036,7.084,7.084,0,0,0-.884-1.213,1.746,1.746,0,0,0-1.032-.578c-4.233-.589-24.406-.273-24.467-.362a21.983,21.983,0,0,1,1.126,2.041,3.185,3.185,0,0,1,.128.3,7.535,7.535,0,0,1,.461,1.424c.02.1.04.193.063.29.039.227.071.464.094.7a6.228,6.228,0,0,1-.341,2.6c-.028.091-.066.181-.1.278a6.445,6.445,0,0,1-.607,1.174c-.059.091-.128.193-.193.278a5.676,5.676,0,0,1-.78.862Z" transform="translate(-184.479 -341.782)" fill="#fff" fill-rule="evenodd"/>
      <path id="Trazado_724198" data-name="Trazado 724198" d="M460.709,457.516c-.048-1.18-1.066-3.942-2.064-4.582,6.085-1.746,34.215-7.61,34.893-7.429a2.224,2.224,0,0,1,1.369,1.2c1.242,2.734.839,7.826-1.738,9.12L458.4,463.257a6.561,6.561,0,0,0,2.306-5.739Z" transform="translate(-250.31 -325.123)" fill="#b0c2e4" fill-rule="evenodd"/>
      <path id="Trazado_724199" data-name="Trazado 724199" d="M488.531,448.975c-9.332,1.878-18.628,3.93-27.963,5.8a4.395,4.395,0,0,0-1.276-1.838c6.085-1.746,34.215-7.61,34.893-7.429a2.224,2.224,0,0,1,1.369,1.2,6.568,6.568,0,0,1,.311.851q-3.67.68-7.336,1.417Z" transform="translate(-250.959 -325.123)" fill="#9db2d9" fill-rule="evenodd"/>
      <path id="Trazado_724200" data-name="Trazado 724200" d="M365.1,449.383l25.4.907,34.763-7.429-27.444-.981-32.767,7A.253.253,0,0,0,365.1,449.383Z" transform="translate(-182.04 -322.48)" fill="#b0c2e4" fill-rule="evenodd"/>
      <path id="Trazado_724201" data-name="Trazado 724201" d="M465.5,447.576l14.949.533,5.754-1.27a.092.092,0,0,0-.018-.181l-15.412-.556-5.3,1.18a.149.149,0,0,0,.026.3Z" transform="translate(-255.383 -325.562)" fill="#f6cd6c" fill-rule="evenodd"/>
      <path id="Trazado_724202" data-name="Trazado 724202" d="M433.114,428.6l-24.725,4.31-35.451-2.62L398.967,419.7l34.173,7.963a.481.481,0,0,1-.025.942Z" transform="translate(-187.938 -306.29)" fill="#b0c2e4" fill-rule="evenodd"/>
      <path id="Trazado_724203" data-name="Trazado 724203" d="M516.815,423.731c-7.52,1.315-15.313,2.785-22.678,3.863-.78.113-2.422.545-3.247,0a5.746,5.746,0,0,1-1.993-2.8,8.6,8.6,0,0,1,.568-5.166,7.223,7.223,0,0,1,.711-1.321,1.793,1.793,0,0,1,.941-.715c4.118-1.152,24.146-3.59,24.191-3.692a21,21,0,0,0-.836,2.179c-.031.1-.062.2-.089.306a7.793,7.793,0,0,0-.263,1.475c-.008.1-.011.193-.02.3q-.012.349,0,.715a6.168,6.168,0,0,0,.691,2.518c.043.091.091.181.14.267a6.84,6.84,0,0,0,.762,1.083c.074.079.153.165.227.25a5.775,5.775,0,0,0,.894.744Z" transform="translate(-272.439 -302.063)" fill="#fff" fill-rule="evenodd"/>
      <path id="Trazado_724204" data-name="Trazado 724204" d="M396.539,428.594c-.119-1.18.517-4.049,1.417-4.821-6.267-.9-34.936-2.87-35.583-2.6a2.185,2.185,0,0,0-1.19,1.379c-.857,2.875.235,7.867,2.966,8.8l35.451,2.62a6.556,6.556,0,0,1-3.063-5.377Z" transform="translate(-179.15 -307.352)" fill="#c4d1eb" fill-rule="evenodd"/>
      <path id="Trazado_724205" data-name="Trazado 724205" d="M368.7,423.842c9.5.584,18.991,1.35,28.493,1.922a4.519,4.519,0,0,1,1.015-1.99c-6.267-.9-34.936-2.87-35.583-2.6a2.185,2.185,0,0,0-1.19,1.379,6.531,6.531,0,0,0-.193.879q3.731.18,7.457.408Z" transform="translate(-179.4 -307.352)" fill="#b0c2e4" fill-rule="evenodd"/>
      <path id="Trazado_724206" data-name="Trazado 724206" d="M426.86,406.757l-25.04,4.367-35.454-2.62,27.058-4.719,33.412,2.472A.252.252,0,0,1,426.86,406.757Z" transform="translate(-183.141 -294.679)" fill="#c4d1eb" fill-rule="evenodd"/>
      <path id="Trazado_724207" data-name="Trazado 724207" d="M432.7,408.511l-14.737,2.564-5.869-.466a.094.094,0,0,1-.008-.187l15.193-2.648,5.41.443a.149.149,0,0,1,.011.3Z" transform="translate(-216.449 -297.59)" fill="#b0c2e4" fill-rule="evenodd"/>
      <path id="Trazado_724208" data-name="Trazado 724208" d="M695.4,279.082H678.377v5.887H695.4Z" transform="translate(-410.848 -203.67)" fill="#b0c2e4"/>
      <path id="Trazado_724209" data-name="Trazado 724209" d="M644.12,133.057a2.8,2.8,0,0,1-1.707-2.694v-.413c-.2-11.524-10.328-14.757-11.144-27.507a19.9,19.9,0,0,1,.018-2.8c1.588-9.664,10.775-16.164,21.109-16.164,11.763,0,22.051,8.428,21.3,20.389-.782,12.37-10.43,15.5-10.617,26.684a2.671,2.671,0,0,1-2.4,2.507H644.12Z" transform="translate(-376.438 -60.917)" fill="#ffa031" fill-rule="evenodd"/>
      <path id="Trazado_724210" data-name="Trazado 724210" d="M694.321,277.487a2.577,2.577,0,0,1-2.558,2.309H689.8l-.759,1.254c-.443.721-.7.766-1.542.766h-4.616c-.839,0-1.1-.046-1.542-.766l-.76-1.254h-1.962a2.576,2.576,0,0,1-2.553-2.258v-.9a.674.674,0,0,1,.647-.517H693.67a.664.664,0,0,1,.647.517c.005.028-.012.085.005.1v.749Zm-17.372-5.9h16.481a.909.909,0,0,1,.9.907V273.9a.9.9,0,0,1-.9.9H676.949a.9.9,0,0,1-.9-.9V272.49A.908.908,0,0,1,676.949,271.583Zm.04-4.617h16.4a.946.946,0,0,1,.941.942v1.463a.947.947,0,0,1-.941.942h-16.4a.946.946,0,0,1-.941-.942v-1.463A.947.947,0,0,1,676.989,266.966Z" transform="translate(-409.148 -194.828)" fill="#9db2d9" fill-rule="evenodd"/>
      <path id="Trazado_724211" data-name="Trazado 724211" d="M678.007,188.575l-1.741-21.1h-2.53a3.945,3.945,0,0,1-2.8-1.162l.005-.005a3.958,3.958,0,0,1,2.8-6.759,3.752,3.752,0,0,1,2.706,1.123,4.457,4.457,0,0,1,1.259,2.768l.193,2.258h7.735l.193-2.258a4.442,4.442,0,0,1,1.259-2.768,3.774,3.774,0,0,1,2.7-1.123,3.981,3.981,0,0,1,2.8,1.168v-.005a3.963,3.963,0,0,1-2.8,6.764h-2.523l-1.741,21.1h-1.781l1.735-21.1h-7.418l1.736,21.1ZM676.113,165.7l-.186-2.1a2.639,2.639,0,0,0-.744-1.656,2.013,2.013,0,0,0-1.447-.607,2.247,2.247,0,0,0-1.542.641,2.184,2.184,0,0,0-.005,3.084h.005a2.182,2.182,0,0,0,1.542.64h2.377Zm11.3,0h2.37a2.176,2.176,0,0,0,1.542-3.725v-.005a2.165,2.165,0,0,0-1.542-.635,2.016,2.016,0,0,0-1.44.607,2.641,2.641,0,0,0-.744,1.656l-.187,2.1Z" transform="translate(-404.569 -116.435)" fill="#fff" fill-rule="evenodd"/>
      <path id="Trazado_724212" data-name="Trazado 724212" d="M736.44,105.148a1.11,1.11,0,1,1,.862-2.047c.459.193.9.408,1.3.624a14.029,14.029,0,0,1,1.248.749,1.11,1.11,0,0,1-1.231,1.848c-.346-.227-.7-.436-1.072-.635s-.749-.385-1.111-.538Zm4.888,3.55a1.115,1.115,0,0,1,1.683-1.464,15.321,15.321,0,0,1,2.762,4.623,15.041,15.041,0,0,1,.953,5.257,1.114,1.114,0,1,1-2.228,0,12.7,12.7,0,0,0-.811-4.475,12.943,12.943,0,0,0-2.359-3.942Z" transform="translate(-452.724 -75.175)" fill="#fff" fill-rule="evenodd"/>
      <path id="Trazado_724213" data-name="Trazado 724213" d="M635.3,385.9c-.5-1.7-1.015-3.386-2.808-4.554a4.852,4.852,0,0,0-4.6-.431c-4.271,1.746-2.648,5.518-5.581,9.2-1.259,1.572-3.034,2.3-4.01,3.97-1.761,3.017-.726,8.178,3.277,11.3,9.8,7.651,16.231-4.463,16.43-7.146.153-2-2.383-11.253-2.706-12.336Z" transform="translate(-366.396 -277.702)" fill-rule="evenodd"/>
      <path id="Trazado_724214" data-name="Trazado 724214" d="M668.18,434.987l-.464-2.444a4.1,4.1,0,0,1,2.268,1.7c.879,1.372,2.348,5.989,2.6,6.125s3.04-4.152,3.527-4.832a15.8,15.8,0,0,0,1.2-2.529,2.474,2.474,0,0,1,2.212-.879c.5.085-.693,2.229-.693,2.229a67.861,67.861,0,0,0-4.027,8.116c-1,2.875-4.151,4.243-4.656,3.84-.5-.42-1.974-11.326-1.974-11.326Z" transform="translate(-403.068 -315.35)" fill="#f9af79" fill-rule="evenodd"/>
      <path id="Trazado_724215" data-name="Trazado 724215" d="M680.042,441.652a63.492,63.492,0,0,0-3.84,7.787c-1,2.875-4.152,4.243-4.656,3.84-.448-.374-1.667-9.108-1.922-10.979a4.182,4.182,0,0,1,1.605,1.44c.879,1.373,2.347,5.994,2.6,6.131s3.04-4.151,3.527-4.837a16.484,16.484,0,0,0,1.208-2.523,2.063,2.063,0,0,1,1.475-.856Z" transform="translate(-404.46 -322.314)" fill="#f48d80" fill-rule="evenodd"/>
      <path id="Trazado_724216" data-name="Trazado 724216" d="M668.731,443.513l3.845-2.195s-1.746-7.367-4.86-7.6Z" transform="translate(-403.068 -316.525)" fill="#466fb5" fill-rule="evenodd"/>
      <path id="Trazado_724217" data-name="Trazado 724217" d="M710.8,433.377a12.265,12.265,0,0,1,.283,2.347c-.091.408-.341.186-.38.1a7.732,7.732,0,0,1-.318-1.611l.415-.84Z" transform="translate(-434.209 -316.274)" fill="#f48d80" fill-rule="evenodd"/>
      <path id="Trazado_724218" data-name="Trazado 724218" d="M708.9,437.761s.181,1.208.369,1.343c.12.1.278.039.323-.2a11.232,11.232,0,0,0-.238-1.73l-.454.584Z" transform="translate(-433.121 -319.048)" fill="#f48d80" fill-rule="evenodd"/>
      <path id="Trazado_724219" data-name="Trazado 724219" d="M604.664,678.207s-.326,3.313-1.165,3.925-1.96,2.859-1.4,4.072a1.411,1.411,0,0,0,.922.726,2.442,2.442,0,0,0,2.933-1.379,6.84,6.84,0,0,0,.573-2.529,9.159,9.159,0,0,1,.971-4.055l-2.833-.76Z" transform="translate(-355.071 -494.953)" fill="#f9af79" fill-rule="evenodd"/>
      <path id="Trazado_724220" data-name="Trazado 724220" d="M658.388,683.244a27.766,27.766,0,0,1,.051,4.424c-.119.578-.754,1.781-.459,2.331a1.518,1.518,0,0,0,.624.686l7.611.119c.413.005.142-.26-.193-.5a15.1,15.1,0,0,0-2.734-1.514c-.113-.051-.533-.313-.68-.4a5.693,5.693,0,0,1-1.089-.958c-.545-.619-.589-3.555-.589-3.555l-2.541-.624Z" transform="translate(-395.906 -498.629)" fill="#f9af79" fill-rule="evenodd"/>
      <path id="Trazado_724221" data-name="Trazado 724221" d="M662.084,516.5s.958,5.433.329,8.983-3.647,36.546-3.647,36.546l-3.357.193s-.7-13.782-.578-15.7a29.579,29.579,0,0,1,1.123-5.127l-.334-11.121,4.236-14.615,2.229.84Z" transform="translate(-393.653 -376.327)" fill="#20386f" fill-rule="evenodd"/>
      <path id="Trazado_724222" data-name="Trazado 724222" d="M619.837,511.214a24.793,24.793,0,0,0-3.272,7.26c-.63,3.284.459,13.379-.749,17.683-.652,2.324-3.137,5.932-3.516,8.938s-1.858,10.9-1.858,10.9l3.354.658,7.793-19.691,6.119-17.808,1.565-9.164-9.437,1.225Z" transform="translate(-361.269 -372.187)" fill="#223f81" fill-rule="evenodd"/>
      <path id="Trazado_724223" data-name="Trazado 724223" d="M642.021,430.967a6.537,6.537,0,0,0-3.159,1.616c-2.892,2.836,1.7,13.759,1.951,15.675s-2.064,6.386-2.064,6.386,8.644,1.6,11,.045c0,0,.278-15.38.023-16.747s-3.068-5.592-3.568-6.137S642.021,430.967,642.021,430.967Z" transform="translate(-381.315 -314.516)" fill="#6d96ce" fill-rule="evenodd"/>
      <path id="Trazado_724224" data-name="Trazado 724224" d="M640.465,439.5a1.214,1.214,0,0,1,1.639-.726,5.332,5.332,0,0,1,2.728,2.377c1.009,2.1,4.531,9.307,5.627,9.585s5.535-7.487,5.535-7.487a5.152,5.152,0,0,1,.25-2.149c.374-.772,1.508-1.588,1.679-1.321s-.635.964-.635,1.106c0,.125.341.215.8-.056s2.075-1.65,2.075-1.65c.415-.1.4.6.448.867.033.227-.158.5-.158.68.017,1.713-1.514,1.656-2.824,3.619,0,0-5.161,11.456-7.044,11.586-1.758.13-11.888-11.1-10.117-16.43Z" transform="translate(-383.031 -320.136)" fill="#f9af79" fill-rule="evenodd"/>
      <path id="Trazado_724225" data-name="Trazado 724225" d="M653.96,413.476s-.018.1-.046.278a26.246,26.246,0,0,1-1.169,4.39c-.487.925,1.679,3.874,3.766,3.522.624-.113-.522-2.717-.464-2.994.1-.527.25-1.248.4-1.985.079-.42.158-.84.239-1.236.227-1.134.408-2.053.408-2.053l-3.13.079Z" transform="translate(-392.092 -301.694)" fill="#f9af79" fill-rule="evenodd"/>
      <path id="Trazado_724226" data-name="Trazado 724226" d="M656.986,413.754c.028-.176.046-.278.046-.278l3.13-.079s-.181.919-.408,2.053c-.079.4-.158.816-.239,1.225a2.952,2.952,0,0,1-1.5-.744,3.918,3.918,0,0,1-1.134-1.684c.046-.193.074-.362.1-.494Z" transform="translate(-395.161 -301.694)" fill="#ed7d57" fill-rule="evenodd"/>
      <path id="Trazado_724227" data-name="Trazado 724227" d="M655.681,386.174a3.7,3.7,0,0,0-2.2,1.373c-.919,1.19-1.917,4.883.374,6.891s4.565-.266,4.9-2.677.272-5.671-3.074-5.586Z" transform="translate(-391.929 -281.826)" fill="#f9af79" fill-rule="evenodd"/>
      <path id="Trazado_724228" data-name="Trazado 724228" d="M675.11,400.236c-.273.538-.737.828-1.027.663s-.312-.737-.039-1.264.737-.828,1.032-.67c.3.176.306.737.034,1.27Z" transform="translate(-407.547 -291.13)" fill="#f9af79" fill-rule="evenodd"/>
      <path id="Trazado_724229" data-name="Trazado 724229" d="M652.412,385.881s-1.962,3.5-3.374,3.664-1.593,2.03-1.593,2.03.5-4.3,1.894-5.127A5.169,5.169,0,0,1,652.412,385.881Z" transform="translate(-388.273 -281.584)" fill-rule="evenodd"/>
      <path id="Trazado_724230" data-name="Trazado 724230" d="M651.055,399.97c.113.624-.113,1.2-.517,1.27s-.811-.352-.93-.976.119-1.19.517-1.276.817.357.93.981Z" transform="translate(-389.832 -291.17)" fill="#f9af79" fill-rule="evenodd"/>
      <path id="Trazado_724231" data-name="Trazado 724231" d="M606.187,699.061a3.732,3.732,0,0,1-3.678-1.526,3.5,3.5,0,0,0-.405,2.773,1.947,1.947,0,0,0,1.812.862,1.976,1.976,0,0,0,1.781-.986,6.024,6.024,0,0,0,.49-1.124Z" transform="translate(-355.073 -509.059)" fill="#0e2952" fill-rule="evenodd"/>
      <path id="Trazado_724232" data-name="Trazado 724232" d="M662.549,701.8a6.941,6.941,0,0,1-4.333-.17,3.489,3.489,0,0,0-.352,1.8c.193.545.454.658.681.67,1.837.046,6.738.113,8.132.125a.225.225,0,0,0,.181-.374A37.908,37.908,0,0,0,662.549,701.8Z" transform="translate(-395.849 -512.046)" fill="#0e2952" fill-rule="evenodd"/>
      <path id="Trazado_724233" data-name="Trazado 724233" d="M641.436,447.679l4.531-2.978s-1.888-5.331-3.965-7.22-3.057-1.429-3.494-1.044c-1.2,1.088-.986,3.731.374,6.987s2.553,4.253,2.553,4.253Z" transform="translate(-381.178 -318.257)" fill="#466fb5" fill-rule="evenodd"/>
      <path id="Trazado_724234" data-name="Trazado 724234" d="M655.6,394.649c-.2.188-.811.056-1.146.091-.165.023-.612.216-.759.158-.438-.158,1.089-.828,1.871-.522a.167.167,0,0,1,.033.272Z" transform="translate(-392.777 -287.754)" fill="#0a0a0a" fill-rule="evenodd"/>
      <path id="Trazado_724235" data-name="Trazado 724235" d="M667.29,394.32c.794-.278,2.291.471,1.849.607-.148.046-.589-.164-.754-.193-.329-.056-.948.056-1.139-.136a.171.171,0,0,1,.045-.278Z" transform="translate(-402.687 -287.727)" fill="#0a0a0a" fill-rule="evenodd"/>
      <path id="Trazado_724236" data-name="Trazado 724236" d="M657.312,398.915c-.239,0-.425-.9.148-.9C657.772,398.013,657.7,398.915,657.312,398.915Z" transform="translate(-395.306 -290.466)" fill="#0a0a0a" fill-rule="evenodd"/>
      <path id="Trazado_724237" data-name="Trazado 724237" d="M670.079,399.059c.239,0,.425-.9-.153-.9C669.62,398.157,669.687,399.059,670.079,399.059Z" transform="translate(-404.541 -290.571)" fill="#0a0a0a" fill-rule="evenodd"/>
      <path id="Trazado_724238" data-name="Trazado 724238" d="M663.006,400.923c-.023-.1.148-.107.25-.136.392-.079.408.114.227-1.537-.034-.323-.091-.494.023-.5s.079.125.125.487c.193,1.792.2,1.572-.538,1.746a.068.068,0,0,1-.085-.056Z" transform="translate(-399.629 -291.001)" fill="#ed7d57" fill-rule="evenodd"/>
      <path id="Trazado_724239" data-name="Trazado 724239" d="M661.31,411.143c-.056-.176.125-.1,1.735.023C663.517,411.2,661.843,412.731,661.31,411.143Z" transform="translate(-398.386 -299.973)" fill="#fff" fill-rule="evenodd"/>
      <path id="Trazado_724240" data-name="Trazado 724240" d="M706.025,329.228a.863.863,0,0,0-.345,1.691l.346-1.69Zm-2.059,1.361a.877.877,0,0,1,1.022-.7Zm-.306,1.746.023-.114.046-.3.051-.306.051-.3.056-.306.051-.3.028-.136,1.713.329-.023.125-.051.3-.051.283-.051.3-.051.289-.046.29-.017.113a.876.876,0,0,1-1.73-.272Zm3.687,65.107a.879.879,0,0,1-1.077.612.868.868,0,0,1-.612-1.066l.057-.227.046-.171a.875.875,0,0,1,1.7.431l-.051.181-.057.237Zm.51-2.161v-.005l.046-.239.046-.25.051-.238.04-.244.046-.244.045-.244.034-.244.011-.056a.875.875,0,0,0-1.73-.267l-.005.051-.04.227-.04.238-.04.232-.039.232-.046.232-.046.232-.045.227v.005a.868.868,0,0,0,.68,1.032.88.88,0,0,0,1.032-.68Zm.556-3.534a.873.873,0,1,1-1.735-.192l.012-.148.034-.238.023-.239.023-.237.023-.239.023-.244.018-.244.005-.125a.858.858,0,1,0,.1-1.713v-.1l.011-.237.012-.25.005-.244.005-.244v-.25l.005-.25.005-.148a.868.868,0,0,1,.862-.862.883.883,0,0,1-.873-.862v-.119l-.005-.25-.005-.25-.012-.255-.005-.25-.005-.25-.012-.255-.005-.1a.863.863,0,1,0-.1-1.723l-.012-.216-.017-.26-.018-.255-.023-.255-.018-.26-.017-.26-.023-.227a.866.866,0,0,0-.158-1.725l-.011-.125-.023-.26-.028-.26-.028-.262-.028-.267-.028-.267-.028-.26-.005-.028a.873.873,0,1,1,1.735-.2l.011.033.023.267.034.267.028.267.028.267.023.266.028.267.012.119a.883.883,0,0,0,.158,1.758l.018.232.023.26.023.26.016.267.018.26.023.262.011.215a.883.883,0,0,0,.091,1.764l.011.1.012.26.005.262.005.255.012.255.005.26.005.255v.119a.875.875,0,0,1-.851.9h-.005a.875.875,0,0,1,.868.879v.153l-.005.255-.005.255-.005.25-.005.26-.012.25-.005.25-.005.1a.892.892,0,0,0-.1,1.78l-.01.13-.023.25-.023.25-.023.25-.023.244-.023.25-.028.25-.016.148Zm-.522-17.65-.011-.091-.033-.272-.034-.267-.028-.267-.033-.272-.039-.273-.034-.272v-.023a.883.883,0,0,0-.97-.76.868.868,0,0,0,.731-.981l-.017-.13-.04-.273-.034-.272-.034-.272-.046-.273-.034-.272-.033-.244a.876.876,0,0,0-1.736.244l.034.25.04.267.04.273.034.272.04.272.041.267.016.13a.873.873,0,0,1,.232,1.73v.023l.034.273.04.267.034.267.028.272.039.26.028.272.011.091a.877.877,0,0,0,.976.76.863.863,0,0,0,.76-.976Zm-.942-6.947a.877.877,0,1,1-1.735.25l-.023-.209-.046-.273-.034-.283-.046-.272-.04-.273-.039-.278-.023-.142a.874.874,0,0,1,.742-.987.887.887,0,0,1-.992-.749l-.005-.062-.04-.278-.04-.283-.034-.25c.652-.538,1.213-.874,1.435-1.514a.871.871,0,0,1,.176.413l.04.273.034.283.046.272.034.278.046.278.034.283.011.062a.879.879,0,0,1-.744.993.87.87,0,0,1,.993.737l.023.135.033.283.046.273.034.272.046.278.033.278.034.209Zm-2.574-6.641c-.034-.046-.079-.063-.13.012l-.005-.056-.034-.232-.04-.278-.039-.283-.034-.283-.033-.283-.04-.283-.012-.091a.875.875,0,0,1,1.735-.227l.011.1.04.278.033.283.018.142s-.828.709-1.469,1.208Zm1.152-3.731-.016-.148-.034-.283-.034-.283-.034-.283-.028-.283-.028-.283-.023-.165a.873.873,0,1,0-1.736.187l.018.17.028.29.033.283.034.29.033.283.034.283.018.148a.874.874,0,1,0,1.735-.205Zm-.38-3.459a.872.872,0,0,1-1.735.17l-.011-.091-.028-.283-.028-.29-.023-.29-.028-.283-.028-.3-.017-.227a.879.879,0,0,0-.137-1.753l-.005-.04-.023-.3-.018-.29-.017-.29-.018-.3-.016-.289-.012-.26a.873.873,0,0,1,.823-.925.888.888,0,0,1,.925.828l.012.26.016.283.017.283.018.29.017.29.023.283v.046a.868.868,0,0,0,.137,1.73l.023.222.023.283.023.283.028.283.028.283.023.283.012.091Zm-.477-6.924v-.018l-.01-.283-.011-.3-.011-.283v-.283l-.011-.3-.005-.272a.868.868,0,1,1-.011-1.735v-.3l.005-.283v-.3l.005-.283.005-.3.011-.272a.877.877,0,0,0-.856-.9.867.867,0,0,0-.9.851l-.005.283-.012.3v.3l-.005.3-.005.3v.3a.885.885,0,0,1,.012,1.77l.012.283.005.29.005.3.012.3.011.3.005.29v.016a.877.877,0,0,0,1.753-.063Zm.023-6.919a.874.874,0,0,1-.913.833.887.887,0,0,1-.833-.919v-.018l.016-.3.017-.3.023-.3.012-.3.023-.3.023-.272a.873.873,0,1,1,1.741.13l-.016.255-.023.3-.017.289-.018.29-.018.289-.016.29v.02Zm.26-3.443v-.051l.034-.289.028-.3.034-.283.034-.3.034-.29.028-.209a.875.875,0,1,0-1.735-.227l-.028.222-.034.3-.039.3-.034.3-.028.3-.028.3-.012.046a.878.878,0,0,0,1.746.181Z" transform="translate(-428.713 -240.267)" fill="#fff" fill-rule="evenodd"/>
      <path id="Trazado_724241" data-name="Trazado 724241" d="M703.272,434.016s.125-.556.459-.67a2.512,2.512,0,0,1,.97,0,6.707,6.707,0,0,0,.686-.341c.392-.238.55.13.2.545l-.737.466s-1.055,1.236-1.407.783C703.091,434.327,703.272,434.016,703.272,434.016Z" transform="translate(-428.983 -315.949)" fill="#f9af79" fill-rule="evenodd"/>
      <path id="Trazado_724242" data-name="Trazado 724242" d="M619.443,35.578a.776.776,0,0,1,.772.772V46.06a.772.772,0,1,1-1.543,0V36.349a.773.773,0,0,1,.772-.772ZM590.822,86.065a.768.768,0,0,0,1.038.318l8.6-4.526a.776.776,0,0,0,.323-1.043h-.005a.756.756,0,0,0-1.032-.318l-8.6,4.526A.775.775,0,0,0,590.822,86.065ZM585.565,69.89a.77.77,0,0,0,.816.721l9.695-.641a.767.767,0,1,0-.1-1.53l-9.692.635A.77.77,0,0,0,585.565,69.89Zm3.15-16.4a.771.771,0,0,0,.456.992l9.111,3.364a.77.77,0,0,0,.533-1.446L589.7,53.035A.778.778,0,0,0,588.715,53.494Zm11.916-13.061a.77.77,0,0,0-.158,1.078l5.8,7.793a.768.768,0,1,0,1.231-.919l-5.8-7.793A.775.775,0,0,0,600.631,40.433Zm47.43,45.632a.774.774,0,0,1-1.043.318l-8.586-4.526a.782.782,0,0,1-.329-1.043.772.772,0,0,1,1.044-.318l8.591,4.526a.78.78,0,0,1,.323,1.043Zm5.257-16.175a.774.774,0,0,1-.823.721l-9.687-.641a.767.767,0,1,1,.1-1.53l9.687.635a.772.772,0,0,1,.721.816Zm-3.153-16.4a.771.771,0,0,1-.454.992L640.6,57.849a.77.77,0,0,1-.533-1.446l9.113-3.369A.773.773,0,0,1,650.165,53.494ZM638.25,40.433a.775.775,0,0,1,.158,1.078l-5.8,7.793a.77.77,0,1,1-1.236-.919l5.8-7.793A.775.775,0,0,1,638.25,40.433Z" transform="translate(-343.112 -25.959)" fill="#fff" fill-rule="evenodd"/>
      <path id="Trazado_724243" data-name="Trazado 724243" d="M786.194,249.212c-.369,5.11-1.124,5.813-5.994,6.205,4.872.4,5.626,1.1,5.994,6.21.375-5.11,1.129-5.813,6-6.21C787.323,255.026,786.569,254.323,786.194,249.212Z" transform="translate(-485.159 -181.871)" fill="#fff" fill-rule="evenodd"/>
      <path id="Trazado_724244" data-name="Trazado 724244" d="M853.3,154.716c-.375,5.115-1.124,5.818-6,6.21,4.877.392,5.626,1.094,6,6.21.375-5.115,1.123-5.818,6-6.21C854.424,160.534,853.676,159.831,853.3,154.716Z" transform="translate(-534.129 -112.907)" fill="#fff" fill-rule="evenodd"/>
      <path id="Trazado_724245" data-name="Trazado 724245" d="M575.857,296.885c-.372,5.11-1.126,5.813-5.994,6.21,4.869.392,5.624,1.094,5.994,6.205.375-5.11,1.129-5.813,6-6.205C576.984,302.7,576.23,301.995,575.857,296.885Z" transform="translate(-331.654 -216.663)" fill="#fff" fill-rule="evenodd"/>
      <path id="Trazado_724246" data-name="Trazado 724246" d="M528.834,173.523c-.507,6.942-1.529,7.895-8.144,8.433,6.615.533,7.637,1.491,8.144,8.433.5-6.942,1.529-7.9,8.145-8.433C530.363,181.418,529.339,180.465,528.834,173.523Z" transform="translate(-295.768 -126.632)" fill="#fff" fill-rule="evenodd"/>
      <path id="Trazado_724247" data-name="Trazado 724247" d="M625.523,233.515c-.375,5.11-1.129,5.813-6,6.205,4.872.4,5.627,1.1,6,6.21.374-5.11,1.123-5.813,5.994-6.21C626.645,239.328,625.9,238.626,625.523,233.515Z" transform="translate(-367.896 -170.415)" fill="#fff" fill-rule="evenodd"/>
      <path id="Trazado_724248" data-name="Trazado 724248" d="M744.911,380.78c-.375,5.1-1.129,5.813-6,6.205,4.872.4,5.627,1.1,6,6.21.369-5.11,1.123-5.813,5.994-6.21C746.033,386.593,745.279,385.885,744.911,380.78Z" transform="translate(-455.026 -277.889)" fill="#fff" fill-rule="evenodd"/>
      <path id="Trazado_724249" data-name="Trazado 724249" d="M278.963,661.1a10.96,10.96,0,0,0,.077,1.185A10.986,10.986,0,0,1,278.963,661.1Z" transform="translate(-119.354 -482.467)" fill="#ecebe8" fill-rule="evenodd"/>
      <path id="Trazado_724250" data-name="Trazado 724250" d="M182.625,514.919a4.969,4.969,0,0,0-1.345-1.123.3.3,0,0,0-.395.113c-.38.7-.734,1.44-1.172,2.121a2.637,2.637,0,0,1-.533.647.487.487,0,0,1-.079.046s-.005-.005-.008-.011a.906.906,0,0,1-.076-.171c-.341-1.049.074-2.166-.2-3.221a3.655,3.655,0,0,0-.9-1.549c-.436-.443-1.024-.647-1.3-1.242a.228.228,0,0,0-.2-.142h-.053a.334.334,0,0,0-.25.142,7.731,7.731,0,0,0-1.682,2.972,3.513,3.513,0,0,0,.976,2.609,9.272,9.272,0,0,1,.774,1.157c.119.227.329.635.11.857s-.576-.187-.757-.369a14.77,14.77,0,0,1-1-1.236c-.53-.7-1.366-1.769-2.365-1.577a.935.935,0,0,0-.641.941,3.483,3.483,0,0,0,.581,1.832c.7,1.2,2.123,1.549,3.04,2.513.209.221.788.981.456,1.292-.117.113-.383.074-.522.051a2.225,2.225,0,0,1-.973-.38c-1.029-.794-1.407-2.184-2.487-2.938a2.416,2.416,0,0,0-1.776-.4,1.025,1.025,0,0,0-.726,1.032,2.937,2.937,0,0,0,.5,1.588,3.665,3.665,0,0,0,1.313,1.3c1.091.619,2.47.7,3.2,1.843a.738.738,0,0,1,.158.545c-.036.148-.247.193-.372.227a2.929,2.929,0,0,1-1.784-.352,6.358,6.358,0,0,1-1.48-1.361,3.86,3.86,0,0,0-1.69-1.123,1.223,1.223,0,0,0-1.407.334,1.816,1.816,0,0,0-.114,1.452,4.181,4.181,0,0,0,.907,1.667,4.065,4.065,0,0,0,1.781,1.027c.655.215,1.338.352,1.988.589a1.6,1.6,0,0,0,.494.13,3.577,3.577,0,0,1,.6.051c.164.046.056.221,0,.341-.133.289-.564.272-.834.3s-.513.091-.769.091a5.667,5.667,0,0,1-.882-.1,4.087,4.087,0,0,0-1.758-.011,1.581,1.581,0,0,0-1.04,1.248c-.207,1.168,1.1,1.883,2.072,2.031a2.622,2.622,0,0,0,1.733-.352,5.606,5.606,0,0,1,1.982-1.027.827.827,0,0,1-.337.8,4.615,4.615,0,0,1-1.366.658c-.9.341-2.229.635-2.714,1.577a.3.3,0,0,0,.048.351,2.494,2.494,0,0,0,1.526.772,2.292,2.292,0,0,0,1.394-.454,14.1,14.1,0,0,1,2.164-1.577,1.729,1.729,0,0,1-.528.527,2.072,2.072,0,0,0-.726,1.253c-.173.749.085,1.554.964,1.554a2.685,2.685,0,0,0,1.361-.477,3.337,3.337,0,0,0,1.109-1.123,4.92,4.92,0,0,0,.658-1.85c.734,1.435,2.329,2.926,3.833,1.69,1.287-1.055-.831-1.865-1.667-2.7.165.068.323.153.477.232.436.222.862.471,1.315.652a1.719,1.719,0,0,0,2.311-.555c.439-.76-.471-1.106-1.029-1.27-.456-.142-1.307-.283-1.636-.749a4.912,4.912,0,0,0,3.338-.385,2.259,2.259,0,0,0,1.022-1.407c.043-.454-.446-.612-.8-.647-.958-.1-1.891.323-2.852.3a4.655,4.655,0,0,1-.683-.079,1.82,1.82,0,0,1-.25-.079c-.031-.018-.062-.046-.082-.056a.1.1,0,0,1,.028-.046,1.361,1.361,0,0,1,.3-.25,1.8,1.8,0,0,1,.8-.283c.559-.056,1.114.011,1.67-.084a2.7,2.7,0,0,0,1.549-.935,2.861,2.861,0,0,0,.777-1.509,1.119,1.119,0,0,0-.814-1.18c-1.457-.556-2.311.953-3.349,1.633a3.4,3.4,0,0,1-.915.4c-.128.046-.5.171-.627.068-.074-.057.173-.454.219-.527a2.238,2.238,0,0,1,.823-.777c.868-.494,1.929-.647,2.614-1.435a1.735,1.735,0,0,0,.362-2.019c-.468-.663-1.509-.482-2.1-.1-.737.487-1.109,1.475-2,1.712a1.473,1.473,0,0,1,.369-1.18,12.788,12.788,0,0,1,1.443-1.475,4.71,4.71,0,0,0,1.2-1.57,1.783,1.783,0,0,0-.318-1.8Z" transform="translate(-37.909 -372.477)" fill="#9db2d9" fill-rule="evenodd"/>
      <path id="Trazado_724251" data-name="Trazado 724251" d="M245.179,579.5a4.963,4.963,0,0,0,.048-1.753.294.294,0,0,0-.326-.245c-.8.142-1.591.318-2.4.4a2.735,2.735,0,0,1-.842-.017.647.647,0,0,0-.079-.034.035.035,0,0,1,0-.016.566.566,0,0,1,.089-.165c.612-.918,1.746-1.287,2.41-2.149a3.58,3.58,0,0,0,.658-1.662c.076-.617-.125-1.2.176-1.786.108-.216-.117-.4-.311-.392a7.577,7.577,0,0,0-3.377.522,3.515,3.515,0,0,0-1.443,2.377,8.236,8.236,0,0,1-.428,1.328c-.1.232-.3.647-.6.612s-.216-.568-.179-.816a13.008,13.008,0,0,1,.352-1.554c.224-.851.538-2.166-.23-2.836a.919.919,0,0,0-1.131.079,3.468,3.468,0,0,0-1.083,1.588c-.5,1.293.1,2.625-.089,3.942-.046.3-.286,1.231-.737,1.162-.156-.023-.293-.26-.36-.38a2.124,2.124,0,0,1-.3-1c-.011-1.3.841-2.45.765-3.766a2.419,2.419,0,0,0-.785-1.644,1.032,1.032,0,0,0-1.259.068,2.979,2.979,0,0,0-.938,1.384,3.677,3.677,0,0,0-.2,1.837c.186,1.236.981,2.37.533,3.647a.739.739,0,0,1-.334.459c-.14.068-.306-.069-.4-.148a2.869,2.869,0,0,1-.834-1.616,6.37,6.37,0,0,1,.156-2.008,3.918,3.918,0,0,0-.165-2.024,1.226,1.226,0,0,0-1.134-.9,1.82,1.82,0,0,0-1.208.806,4.206,4.206,0,0,0-.752,1.746,4.029,4.029,0,0,0,.3,2.031c.232.658.55,1.276.76,1.934a1.579,1.579,0,0,0,.207.466,3.3,3.3,0,0,1,.326.5c.071.158-.135.181-.264.2-.312.079-.568-.273-.752-.464s-.385-.352-.545-.556a5.433,5.433,0,0,1-.468-.749,4,4,0,0,0-1.075-1.395,1.586,1.586,0,0,0-1.621-.046c-1.05.568-.8,2.031-.315,2.887a2.594,2.594,0,0,0,1.347,1.146,5.489,5.489,0,0,1,2.034.925.833.833,0,0,1-.834.227,4.591,4.591,0,0,1-1.366-.663c-.825-.5-1.88-1.355-2.918-1.162a.3.3,0,0,0-.244.255,2.542,2.542,0,0,0,.334,1.684,2.235,2.235,0,0,0,1.225.805,14.218,14.218,0,0,1,2.571.737,1.873,1.873,0,0,1-.74-.1,2.125,2.125,0,0,0-1.432.2c-.693.329-1.168,1.032-.627,1.73a2.754,2.754,0,0,0,1.216.772,3.439,3.439,0,0,0,1.568.176,4.966,4.966,0,0,0,1.858-.624c-.67,1.463-.856,3.641,1.047,4.055,1.628.357.956-1.809,1.089-2.977.048.17.082.346.117.51.094.487.161.97.3,1.44a1.723,1.723,0,0,0,1.871,1.468c.862-.12.576-1.05.362-1.593-.176-.443-.587-1.2-.431-1.746a4.944,4.944,0,0,0,2.37,2.382,2.278,2.278,0,0,0,1.741-.068c.38-.25.2-.731.011-1.032-.517-.805-1.427-1.282-2-2.053a3.453,3.453,0,0,1-.36-.589,1.292,1.292,0,0,1-.091-.244.409.409,0,0,1-.008-.1.076.076,0,0,1,.051-.005,1.459,1.459,0,0,1,.38.085,1.74,1.74,0,0,1,.721.448c.388.4.68.879,1.1,1.259a2.719,2.719,0,0,0,1.7.64,2.9,2.9,0,0,0,1.662-.324,1.11,1.11,0,0,0,.423-1.366c-.464-1.491-2.175-1.226-3.354-1.623a3.567,3.567,0,0,1-.879-.476c-.11-.074-.446-.29-.443-.454,0-.091.464-.142.553-.153a2.219,2.219,0,0,1,1.114.171c.927.369,1.707,1.106,2.747,1.162a1.733,1.733,0,0,0,1.812-.964c.235-.782-.55-1.486-1.22-1.707-.839-.278-1.846.04-2.581-.51a1.466,1.466,0,0,1,1.157-.436,13.214,13.214,0,0,1,2.049.215,4.614,4.614,0,0,0,1.973-.023,1.786,1.786,0,0,0,1.216-1.361Z" transform="translate(-78.504 -416.787)" fill="#9db2d9" fill-rule="evenodd"/>
      <path id="Trazado_724252" data-name="Trazado 724252" d="M134.489,541.511a5.149,5.149,0,0,0-1.73-.273.29.29,0,0,0-.28.3c.036.805.11,1.611.085,2.421a2.621,2.621,0,0,1-.122.833c-.005.011-.034.056-.046.079-.005-.005-.008-.011-.015-.011a.878.878,0,0,1-.153-.107c-.831-.721-1.052-1.894-1.827-2.66a3.544,3.544,0,0,0-1.565-.862c-.6-.158-1.208-.034-1.746-.4-.2-.136-.416.063-.428.26a7.584,7.584,0,0,0,.091,3.409,3.479,3.479,0,0,0,2.174,1.735,8.6,8.6,0,0,1,1.259.589c.219.136.607.38.533.68-.077.318-.587.142-.836.079a12.983,12.983,0,0,1-1.5-.556c-.813-.323-2.082-.805-2.839-.125a.928.928,0,0,0-.068,1.134,3.471,3.471,0,0,0,1.44,1.27c1.219.67,2.617.237,3.9.589.293.079,1.18.442,1.058.874-.045.158-.292.26-.423.318a2.235,2.235,0,0,1-1.032.17c-1.294-.153-2.325-1.146-3.641-1.236a2.382,2.382,0,0,0-1.727.573,1.029,1.029,0,0,0-.1,1.254,3.018,3.018,0,0,0,1.256,1.111,3.739,3.739,0,0,0,1.792.431c1.254-.028,2.478-.67,3.687-.069a.77.77,0,0,1,.42.391c.043.148-.114.3-.2.38a2.861,2.861,0,0,1-1.7.624,6.413,6.413,0,0,1-1.974-.408,3.929,3.929,0,0,0-2.028-.091,1.223,1.223,0,0,0-1.035,1.009,1.784,1.784,0,0,0,.652,1.3,4.182,4.182,0,0,0,1.634.97,4.016,4.016,0,0,0,2.056-.046c.675-.147,1.33-.385,2.011-.51a1.469,1.469,0,0,0,.487-.142,3.23,3.23,0,0,1,.542-.267c.165-.045.158.159.173.3.034.318-.341.527-.564.686s-.395.334-.612.471a5.146,5.146,0,0,1-.808.369,3.989,3.989,0,0,0-1.514.891,1.573,1.573,0,0,0-.252,1.6c.423,1.111,1.914,1.055,2.821.68a2.61,2.61,0,0,0,1.307-1.19,5.532,5.532,0,0,1,1.174-1.9.812.812,0,0,1,.117.857,4.542,4.542,0,0,1-.828,1.271c-.6.754-1.585,1.69-1.52,2.745a.294.294,0,0,0,.222.273,2.539,2.539,0,0,0,1.713-.114,2.3,2.3,0,0,0,.955-1.118,14.344,14.344,0,0,1,1.05-2.456,1.836,1.836,0,0,1-.181.721,2.081,2.081,0,0,0,.018,1.447c.238.726.879,1.293,1.633.839a2.725,2.725,0,0,0,.919-1.111,3.406,3.406,0,0,0,.374-1.531,4.876,4.876,0,0,0-.388-1.917c1.366.845,3.5,1.3,4.159-.528.559-1.57-1.676-1.174-2.821-1.457.176-.023.357-.034.527-.051.487-.028.981-.04,1.466-.113.907-.142,1.707-.658,1.693-1.667-.011-.874-.971-.709-1.537-.561-.462.113-1.267.431-1.787.2a4.967,4.967,0,0,0,2.665-2.047,2.276,2.276,0,0,0,.148-1.741c-.2-.408-.7-.3-1.017-.136-.867.408-1.452,1.248-2.291,1.718a3.513,3.513,0,0,1-.63.278,1.072,1.072,0,0,1-.252.068.554.554,0,0,1-.1-.011.156.156,0,0,1,0-.051,1.546,1.546,0,0,1,.136-.369,1.752,1.752,0,0,1,.536-.652c.446-.334.961-.561,1.389-.935a2.694,2.694,0,0,0,.842-1.6,2.87,2.87,0,0,0-.1-1.69,1.11,1.11,0,0,0-1.3-.589c-1.537.272-1.494,2-2.033,3.119a3.864,3.864,0,0,1-.581.816c-.089.1-.346.4-.5.38-.094-.017-.085-.482-.082-.568a2.119,2.119,0,0,1,.306-1.083c.487-.874,1.318-1.554,1.5-2.581a1.742,1.742,0,0,0-.726-1.922c-.744-.329-1.542.363-1.845,1-.383.795-.193,1.838-.834,2.5a1.484,1.484,0,0,1-.289-1.2,13.141,13.141,0,0,1,.479-2.008,4.72,4.72,0,0,0,.222-1.962,1.79,1.79,0,0,0-1.2-1.378Z" transform="translate(-6.839 -394.662)" fill="#9db2d9" fill-rule="evenodd"/>
      <path id="Trazado_724253" data-name="Trazado 724253" d="M209.051,553.7a4.979,4.979,0,0,0-.6-1.644.292.292,0,0,0-.395-.107c-.686.425-1.358.879-2.079,1.248a2.783,2.783,0,0,1-.788.3.579.579,0,0,1-.091-.005v-.016a.618.618,0,0,1,.02-.181c.229-1.078,1.152-1.837,1.447-2.887a3.566,3.566,0,0,0,0-1.786c-.153-.6-.556-1.078-.494-1.725.025-.239-.258-.334-.434-.25a7.635,7.635,0,0,0-2.946,1.725,3.527,3.527,0,0,0-.462,2.745,9.382,9.382,0,0,1,.091,1.389c-.011.255-.036.714-.337.8s-.405-.448-.469-.7a13.718,13.718,0,0,1-.247-1.577c-.1-.868-.3-2.212-1.259-2.541a.925.925,0,0,0-1.024.487,3.466,3.466,0,0,0-.417,1.878c.005,1.389,1.063,2.4,1.369,3.7.071.3.187,1.242-.255,1.35-.153.04-.369-.13-.477-.222a2.144,2.144,0,0,1-.65-.816c-.49-1.2-.122-2.592-.681-3.789a2.413,2.413,0,0,0-1.335-1.236,1.036,1.036,0,0,0-1.142.533,2.943,2.943,0,0,0-.362,1.627,3.652,3.652,0,0,0,.484,1.781c.632,1.083,1.789,1.843,1.843,3.193a.734.734,0,0,1-.142.555c-.1.113-.309.046-.431.005a2.909,2.909,0,0,1-1.369-1.19,6.4,6.4,0,0,1-.6-1.922,3.9,3.9,0,0,0-.9-1.82,1.227,1.227,0,0,0-1.384-.413,1.787,1.787,0,0,0-.828,1.2,4.207,4.207,0,0,0-.051,1.9,3.986,3.986,0,0,0,1.029,1.776c.456.517.978.981,1.417,1.514a1.388,1.388,0,0,0,.362.352,3.537,3.537,0,0,1,.491.352c.122.125-.063.216-.171.3-.26.181-.627-.046-.874-.165-.229-.107-.482-.181-.706-.312a5.74,5.74,0,0,1-.714-.522,3.925,3.925,0,0,0-1.514-.9,1.576,1.576,0,0,0-1.523.556c-.765.907.008,2.178.772,2.8a2.583,2.583,0,0,0,1.676.561,5.542,5.542,0,0,1,2.229.114.8.8,0,0,1-.688.517,4.734,4.734,0,0,1-1.517-.107c-.95-.171-2.245-.573-3.137-.005a.294.294,0,0,0-.133.323,2.494,2.494,0,0,0,.93,1.44,2.313,2.313,0,0,0,1.437.306,14.12,14.12,0,0,1,2.66-.272,1.779,1.779,0,0,1-.721.186,2.1,2.1,0,0,0-1.256.716c-.525.561-.706,1.389.053,1.837a2.7,2.7,0,0,0,1.415.267,3.43,3.43,0,0,0,1.523-.413,4.907,4.907,0,0,0,1.494-1.264c-.079,1.6.55,3.7,2.472,3.38,1.641-.273.216-2.031-.091-3.176q.161.221.3.442c.267.408.507.839.808,1.225a1.732,1.732,0,0,0,2.283.681c.757-.436.145-1.19-.255-1.621-.323-.346-.986-.9-1.043-1.463a4.976,4.976,0,0,0,3.086,1.345,2.264,2.264,0,0,0,1.588-.709c.263-.375-.076-.754-.362-.964-.783-.556-1.8-.664-2.617-1.169a3.71,3.71,0,0,1-.55-.42,1.022,1.022,0,0,1-.179-.193.37.37,0,0,1-.043-.091.155.155,0,0,0,.048-.023,1.243,1.243,0,0,1,.385-.056,1.81,1.81,0,0,1,.833.147c.51.232.958.573,1.489.765a2.67,2.67,0,0,0,1.807-.034,2.84,2.84,0,0,0,1.429-.907,1.115,1.115,0,0,0-.114-1.429c-.981-1.213-2.472-.334-3.715-.266a3.712,3.712,0,0,1-.993-.12c-.13-.028-.52-.107-.578-.255-.034-.091.38-.306.456-.352a2.227,2.227,0,0,1,1.1-.255c1,.005,2,.4,2.984.069.65-.221,1.392-.8,1.33-1.56-.071-.817-1.061-1.18-1.764-1.141-.882.051-1.7.721-2.589.482a1.484,1.484,0,0,1,.915-.839,13.981,13.981,0,0,1,1.985-.556,4.711,4.711,0,0,0,1.827-.749,1.782,1.782,0,0,0,.627-1.713Z" transform="translate(-53.443 -398.921)" fill="#b0c2e4" fill-rule="evenodd"/>
      <path id="Trazado_724254" data-name="Trazado 724254" d="M222.148,551.641c-.334,1.447-.624,2.91-1.037,4.338a15.066,15.066,0,0,1-1.875,4.1c-1.727,2.637-3.927,4.923-5.711,7.526a.246.246,0,0,0,0,.3,7.607,7.607,0,0,0-.686,2.087,23.2,23.2,0,0,0-.375,3.743c-.062,1.519-.051,3.04.02,4.571.085,1.792.2,3.59.128,5.387-.005.1-.008.2-.018.306-.02.375.556.375.576,0a50.279,50.279,0,0,0-.087-5.263c-.074-1.56-.11-3.114-.053-4.674a26.615,26.615,0,0,1,.309-3.619,5.579,5.579,0,0,1,1.307-3.109.258.258,0,0,0,.034-.352c1.661-2.268,3.57-4.345,5.112-6.7a15.488,15.488,0,0,0,1.845-4.055c.436-1.463.726-2.954,1.066-4.434.082-.362-.474-.517-.556-.153Z" transform="translate(-70.794 -402.433)" fill="#b0c2e4" fill-rule="evenodd"/>
      <path id="Trazado_724255" data-name="Trazado 724255" d="M195.7,630.161a21.419,21.419,0,0,0-2.941-7.753c-1.325-2.416-2.719-4.865-3.127-7.638-.054-.362-.61-.2-.556.158.811,5.524,5.421,9.653,6.045,15.234.04.362.619.369.578,0Z" transform="translate(-53.753 -448.507)" fill="#b0c2e4" fill-rule="evenodd"/>
      <path id="Trazado_724256" data-name="Trazado 724256" d="M193.681,596.715a16.807,16.807,0,0,0-6.544,4.865,10.082,10.082,0,0,0-1.766,3.9,41.965,41.965,0,0,0-.673-4.333c-.65-3.346-1.149-6.7-1.463-10.095q-.187-2.017-.28-4.044c-.017-.369-.593-.369-.576,0a102.817,102.817,0,0,0,1.185,11.185c.391,2.507,1.058,4.985,1.251,7.515a27.66,27.66,0,0,0-.964-4.037,23.955,23.955,0,0,0-2.462-5.393.278.278,0,0,0-.076-.209c-.071-.085-.142-.164-.219-.239-.258-.4-.533-.782-.82-1.152a.241.241,0,0,0-.408.028,9.2,9.2,0,0,0-1.42-.9c-1.185-.617-2.66-1.015-3.229-2.354-.145-.341-.642-.046-.5.29.564,1.333,1.942,1.832,3.147,2.416a9.694,9.694,0,0,1,2.811,2.059,23.34,23.34,0,0,1,2.645,5.7,24.855,24.855,0,0,1,1.22,7.5.14.14,0,0,0,0,.034.274.274,0,0,0,.267.329.3.3,0,0,0,.568-.1c.212-2.734.522-5.592,2.268-7.816a16.443,16.443,0,0,1,6.327-4.656c.341-.148.048-.64-.289-.494Z" transform="translate(-43.257 -428.196)" fill="#9db2d9" fill-rule="evenodd"/>
      <path id="Trazado_724257" data-name="Trazado 724257" d="M152.42,548.068a5.1,5.1,0,0,0-1.7-.436.294.294,0,0,0-.309.267c-.04.805-.046,1.621-.148,2.421a2.6,2.6,0,0,1-.2.816c-.005.017-.04.051-.051.074-.005,0-.008,0-.015-.011a.443.443,0,0,1-.142-.119c-.76-.8-.864-1.99-1.562-2.824a3.648,3.648,0,0,0-1.472-1.015c-.587-.2-1.2-.142-1.7-.561-.184-.153-.42.023-.451.215a7.673,7.673,0,0,0-.238,3.409,3.515,3.515,0,0,0,2,1.934,8.706,8.706,0,0,1,1.2.709c.2.158.568.436.468.726-.107.306-.6.091-.841-.005a14.71,14.71,0,0,1-1.44-.686c-.777-.408-1.991-1.009-2.808-.4a.915.915,0,0,0-.179,1.116,3.464,3.464,0,0,0,1.313,1.407c1.146.783,2.581.487,3.822.964.286.113,1.134.55.966.976-.056.148-.314.227-.446.273a2.347,2.347,0,0,1-1.047.068c-1.27-.278-2.2-1.366-3.5-1.583a2.43,2.43,0,0,0-1.776.4,1.035,1.035,0,0,0-.216,1.242,2.928,2.928,0,0,0,1.142,1.22,3.567,3.567,0,0,0,1.741.607c1.253.1,2.533-.425,3.677.29a.771.771,0,0,1,.38.431c.028.148-.142.283-.242.357a2.873,2.873,0,0,1-1.758.459,6.443,6.443,0,0,1-1.926-.6,3.853,3.853,0,0,0-2.005-.283,1.217,1.217,0,0,0-1.132.9,1.792,1.792,0,0,0,.522,1.356,4.245,4.245,0,0,0,1.537,1.123,4.04,4.04,0,0,0,2.047.159c.686-.079,1.361-.255,2.053-.318a1.669,1.669,0,0,0,.5-.091,3.355,3.355,0,0,1,.568-.216c.168-.028.142.176.145.306,0,.318-.391.493-.63.635-.222.125-.426.289-.655.408a5.414,5.414,0,0,1-.839.283,4,4,0,0,0-1.593.744,1.583,1.583,0,0,0-.405,1.57c.314,1.146,1.8,1.225,2.742.941a2.6,2.6,0,0,0,1.417-1.055c.441-.635.686-1.361,1.346-1.781a.805.805,0,0,1,.038.862,4.5,4.5,0,0,1-.948,1.19c-.675.693-1.741,1.532-1.778,2.587a.3.3,0,0,0,.193.3,2.552,2.552,0,0,0,1.715.046,2.3,2.3,0,0,0,1.06-1.021,14.48,14.48,0,0,1,1.282-2.337,1.744,1.744,0,0,1-.252.693,2.1,2.1,0,0,0-.122,1.44c.168.754.749,1.373,1.545,1a2.753,2.753,0,0,0,1.024-1.015,3.421,3.421,0,0,0,.52-1.491,4.939,4.939,0,0,0-.2-1.952c1.279.976,3.361,1.644,4.188-.119.709-1.5-1.551-1.327-2.665-1.718.178-.012.36-.005.53,0,.491.011.981.056,1.472.028a1.729,1.729,0,0,0,1.845-1.5c.071-.862-.9-.794-1.478-.7a3.173,3.173,0,0,1-1.8.033,4.983,4.983,0,0,0,2.852-1.781,2.269,2.269,0,0,0,.311-1.718c-.153-.425-.667-.357-1-.244-.9.329-1.565,1.111-2.444,1.5a3.369,3.369,0,0,1-.655.216,1.016,1.016,0,0,1-.26.039.193.193,0,0,1-.1-.016.148.148,0,0,1,.005-.046,1.262,1.262,0,0,1,.171-.357,1.727,1.727,0,0,1,.6-.6c.479-.289,1.012-.471,1.475-.794a2.7,2.7,0,0,0,.992-1.514,2.817,2.817,0,0,0,.059-1.69,1.106,1.106,0,0,0-1.242-.714c-1.554.125-1.679,1.848-2.322,2.915a3.643,3.643,0,0,1-.658.749c-.1.091-.382.369-.538.329-.091-.023-.04-.487-.028-.568a2.212,2.212,0,0,1,.408-1.055c.573-.816,1.463-1.417,1.744-2.416a1.744,1.744,0,0,0-.538-1.985c-.706-.4-1.568.2-1.931.811-.459.754-.372,1.809-1.072,2.405a1.508,1.508,0,0,1-.173-1.231,13.327,13.327,0,0,1,.67-1.945,4.691,4.691,0,0,0,.413-1.934,1.786,1.786,0,0,0-1.061-1.486Z" transform="translate(-19.254 -398.922)" fill="#c4d1eb" fill-rule="evenodd"/>
      <path id="Trazado_724258" data-name="Trazado 724258" d="M193.239,691.56H180.8l-4.068-16.085h20.3Z" transform="translate(-44.746 -492.959)" fill="#b0c2e4" fill-rule="evenodd"/>
      <path id="Trazado_724259" data-name="Trazado 724259" d="M194.438,667.75H171.716v2.087h22.722Z" transform="translate(-41.085 -487.321)" fill="#9db2d9"/>
      <path id="Trazado_724260" data-name="Trazado 724260" d="M186.879,675.475H176.733L180.8,691.56h6.078Z" transform="translate(-44.746 -492.959)" fill="#9db2d9" fill-rule="evenodd"/>
      <path id="Trazado_724261" data-name="Trazado 724261" d="M183.217,667.75h-11.5v2.087h11.5Z" transform="translate(-41.085 -487.321)" fill="#859ac6"/>
      <path id="Trazado_724262" data-name="Trazado 724262" d="M193.239,730.033H180.8l-4.068-2.166h20.3Z" transform="translate(-44.746 -531.195)" fill="#9db2d9" fill-rule="evenodd"/>
      <path id="Trazado_724263" data-name="Trazado 724263" d="M186.879,727.867H176.733l4.068,2.166h6.078Z" transform="translate(-44.746 -531.195)" fill="#859ac6" fill-rule="evenodd"/>
      <path id="Trazado_724264" data-name="Trazado 724264" d="M140.331,738.21c13.718,0,24.908-.578,24.908-1.287s-11.19-1.287-24.908-1.287-24.911.578-24.911,1.287S126.612,738.21,140.331,738.21Z" transform="translate(0 -536.865)" fill="#c4d1eb" fill-rule="evenodd"/>
    </g>
  </g>
</svg>
