<svg xmlns="http://www.w3.org/2000/svg" width="88" height="88" viewBox="0 0 88 88">
  <g id="Grupo_1013412" data-name="Grupo 1013412" transform="translate(-224 -409)">
    <path id="Trazado_710239" data-name="Trazado 710239" d="M44,0A44,44,0,1,1,0,44,44,44,0,0,1,44,0Z" transform="translate(224 409)" fill="#d2e1f1"/>
    <g id="Grupo_1026594" data-name="Grupo 1026594" transform="translate(223.629 416.456)">
      <g id="Grupo_1026593" data-name="Grupo 1026593" transform="translate(17.766 8.921)">
        <g id="Grupo_1026590" data-name="Grupo 1026590" transform="translate(5.286 0)">
          <path id="Trazado_723973" data-name="Trazado 723973" d="M71.894,16h34.144a1.076,1.076,0,0,1,.788.326l6.254,6.254a1.076,1.076,0,0,1,.326.787V70.133a1.116,1.116,0,0,1-1.114,1.114h-40.4a1.116,1.116,0,0,1-1.114-1.114V17.114A1.116,1.116,0,0,1,71.894,16Z" transform="translate(-70.78 -16)" fill="#eceff1" fill-rule="evenodd"/>
          <path id="Trazado_723974" data-name="Trazado 723974" d="M71.894,16h2.038V71.247H71.894a1.116,1.116,0,0,1-1.114-1.114V17.114A1.116,1.116,0,0,1,71.894,16Z" transform="translate(-70.78 -16)" fill="#d1d1d6" fill-rule="evenodd"/>
          <path id="Trazado_723975" data-name="Trazado 723975" d="M381.122,16.839a1.116,1.116,0,0,1,.326.23l6.254,6.254a1.116,1.116,0,0,1,.23.326h-6.253a.558.558,0,0,1-.557-.557Z" transform="translate(-345.402 -16.742)" fill="#a79ba7" fill-rule="evenodd"/>
        </g>
        <g id="Grupo_1026591" data-name="Grupo 1026591" transform="translate(0 19.353)">
          <path id="Trazado_723976" data-name="Trazado 723976" d="M191.367,331.1l3.514,2.127,3.052,6.8-2.12,1.224-4.362-6.042Z" transform="translate(-172.201 -314.191)" fill="#9facba" fill-rule="evenodd"/>
          <path id="Trazado_723977" data-name="Trazado 723977" d="M191.367,331.1l.953.577.067,3.259,4.225,5.852-.8.461-4.362-6.042Z" transform="translate(-172.201 -314.191)" fill="#8d9ca8" fill-rule="evenodd"/>
          <path id="Trazado_723978" data-name="Trazado 723978" d="M51.455,184.149a26.6,26.6,0,0,1,26.6,26.6H66.928a16.765,16.765,0,0,0-33.437,0H24.85A26.6,26.6,0,0,1,51.455,184.149Z" transform="translate(-24.85 -184.149)" fill="#3076b6" fill-rule="evenodd"/>
          <path id="Trazado_723980" data-name="Trazado 723980" d="M152.465,195.234a16.692,16.692,0,0,1,8.775,2.477l5.775-10a26.638,26.638,0,0,0-26.609,0L145.6,196.7a16.66,16.66,0,0,1,5.388-1.4q.731-.064,1.48-.064Z" transform="translate(-127.106 -184.149)" fill="#60b7ff" fill-rule="evenodd"/>
          <path id="Trazado_723981" data-name="Trazado 723981" d="M161.415,213.126a16.692,16.692,0,0,1,8.775,2.477l4.611-7.986a24.3,24.3,0,0,0-24.281,0l4.027,6.975a16.661,16.661,0,0,1,5.388-1.4Q160.667,213.126,161.415,213.126Z" transform="translate(-136.056 -202.041)" fill="#4db1f0" fill-rule="evenodd"/>
        </g>
        <g id="Grupo_1026592" data-name="Grupo 1026592" transform="translate(20.658 43.364)">
          <circle id="Elipse_8572" data-name="Elipse 8572" cx="5.941" cy="5.941" r="5.941" transform="translate(0)" fill="#ffc338"/>
          <path id="Trazado_723984" data-name="Trazado 723984" d="M252.043,392.759a5.941,5.941,0,0,1,0,11.883c-.171,0-.341-.008-.509-.022a5.941,5.941,0,0,0,0-11.839c.168-.014.337-.022.509-.022Z" transform="translate(-246.101 -392.759)" fill="#f5b829" fill-rule="evenodd"/>
        </g>
      </g>
      <path id="Trazado_723985" data-name="Trazado 723985" d="M70.038,53.958A25.694,25.694,0,0,0,58,33.118l-4.864,8.424a17.845,17.845,0,0,1,2.056,1.65q.4.371.768.763l2.388-2a.921.921,0,0,1,1.183,1.411l-2.374,1.991a17.624,17.624,0,0,1,1.951,3.182l2.96-1.077a.921.921,0,0,1,.63,1.731l-2.887,1.051a17.659,17.659,0,0,1,.871,3.718h9.358ZM64.758,55.8v7.253a.2.2,0,0,1-.193.193H49.037a6.86,6.86,0,0,0-5.728-11.8l-2.024-4.507a.911.911,0,0,0-.362-.411L37.408,44.4a.921.921,0,0,0-1.4.807l.085,4.107a.917.917,0,0,0,.174.52L39.13,53.8a6.847,6.847,0,0,0,.564,9.45H24.166a.2.2,0,0,1-.192-.193V55.8h2.433a.92.92,0,0,0,.918-.853,15.844,15.844,0,0,1,31.6,0,.921.921,0,0,0,.919.853ZM41.531,51.98l-1.808-4.025-1.837-1.112.044,2.147,2.575,3.566a6.944,6.944,0,0,1,1.026-.576Zm2.834,11.267a5.021,5.021,0,1,0-5.021-5.021,5.027,5.027,0,0,0,5.021,5.021ZM18.7,53.958h6.868a17.577,17.577,0,0,1,1.174-4.514L23.892,48.4a.921.921,0,1,1,.631-1.73l3.01,1.1a17.649,17.649,0,0,1,2.6-3.639l-2.32-1.947a.921.921,0,0,1,1.185-1.41l2.461,2.065a17.671,17.671,0,0,1,3.511-2.408l-4.222-7.313A25.694,25.694,0,0,0,18.7,53.958Zm32.86-13.38a17.582,17.582,0,0,0-3.483-1.435l.549-3.115a.921.921,0,1,0-1.814-.32l-.532,3.013a17.787,17.787,0,0,0-3.158-.283c-.239,0-.479.006-.716.015l-.555-3.145a.921.921,0,0,0-1.814.32l.528,2.994a17.668,17.668,0,0,0-3.922,1.039l-4.311-7.469a25.65,25.65,0,0,1,24.068,0ZM23.974,36.4V10.035a.2.2,0,0,1,.192-.194H57.852V15.27a1.48,1.48,0,0,0,1.478,1.478h5.428V36.384q-.449-.494-.923-.969a27.527,27.527,0,0,0-38.927,0q-.48.482-.933.981ZM59.693,11.143v3.763h3.763ZM71.9,54.879a.921.921,0,0,1-.921.921H66.6v7.253a2.037,2.037,0,0,1-2.034,2.035h-40.4a2.036,2.036,0,0,1-2.034-2.035V55.8H17.766a.922.922,0,0,1-.921-.921,27.325,27.325,0,0,1,5.287-16.228V10.035A2.036,2.036,0,0,1,24.166,8H58.311a1.993,1.993,0,0,1,1.438.6L66,14.849a1.994,1.994,0,0,1,.6,1.439V38.637a27.318,27.318,0,0,1,5.3,16.243ZM32.891,14.892H47a.921.921,0,0,0,0-1.842H32.891a.921.921,0,0,0,0,1.842Zm-5.583,0h1.508a.921.921,0,0,0,0-1.842H27.308a.921.921,0,0,0,0,1.842Zm5.583,5.031H47a.921.921,0,0,0,0-1.842H32.891a.921.921,0,0,0,0,1.842Zm-5.583,0h1.508a.921.921,0,0,0,0-1.842H27.308a.921.921,0,0,0,0,1.842Zm5.583,5.032H47a.921.921,0,0,0,0-1.842H32.891a.921.921,0,0,0,0,1.842Zm-5.583,0h1.508a.921.921,0,0,0,0-1.842H27.308a.921.921,0,0,0,0,1.842ZM47.176,59.506c-.146-1.2-1.039-1.945-2.655-2.21-.613-.1-.931-.273-.943-.512-.018-.372.409-.5.541-.528a.975.975,0,0,1,1.147.522.921.921,0,1,0,1.7-.712,2.713,2.713,0,0,0-1.677-1.543v-.055a.921.921,0,1,0-1.842,0v.068a2.329,2.329,0,0,0-1.707,2.34c.034.689.4,1.9,2.484,2.24,1.072.176,1.11.483,1.126.615a.223.223,0,0,1-.047.2,1.316,1.316,0,0,1-.88.3,1,1,0,0,1-1.068-.624.921.921,0,1,0-1.787.446,2.641,2.641,0,0,0,1.879,1.89v.048a.921.921,0,0,0,1.842,0v-.032a2.761,2.761,0,0,0,1.406-.821,2.041,2.041,0,0,0,.482-1.626Z" fill-rule="evenodd"/>
    </g>
  </g>
</svg>
