<svg xmlns="http://www.w3.org/2000/svg" width="265" height="203.073" viewBox="0 0 265 203.073">
  <g id="Grupo_1026791" data-name="Grupo 1026791" transform="translate(-390 -5403.503)">
    <g id="Grupo_1026790" data-name="Grupo 1026790" transform="translate(-575 1840.308)">
      <path id="Trazado_717261" data-name="Trazado 717261" d="M256.045,6.946c17.063-1.074,33.043,10.991,40.907,26.4s8.9,33.5,7.566,50.8c-1.55,20.065-6.345,40.492-18.157,56.663-10.291,14.089-25.385,24.1-41.614,30.118s-33.608,8.274-50.873,8.872a166.69,166.69,0,0,1-31.625-1.521c-21.419-3.372-41.515-12.526-60.782-22.6-10.065-5.265-20.115-10.9-28.347-18.793a96.232,96.232,0,0,1-13.794-17.23c-11.581-17.819-19.837-38.59-19.291-59.935S51.148,16.6,69.69,6.522c21.6-11.73,48.245-5.764,71.087,3.216,19.757,7.77,41.525,20.277,63.269,20.272,8.746,0,15.636-6.734,22.927-11.3,8.925-5.58,18.367-11.1,29.077-11.768Z" transform="translate(924.992 3578.02)" fill="#f5f9fd"/>
    </g>
    <g id="Grupo_1027144" data-name="Grupo 1027144" transform="translate(338.711 5315.457)">
      <g id="Graphic" transform="translate(100.069 88.046)">
        <g id="Grupo_1027099" data-name="Grupo 1027099" transform="translate(0)">
          <g id="Grupo_1027097" data-name="Grupo 1027097">
            <path id="Trazado_725100" data-name="Trazado 725100" d="M204.708,88.046a75.3,75.3,0,1,0,75.3,75.3A75.3,75.3,0,0,0,204.708,88.046Zm0,144.338a69.085,69.085,0,0,1-66.76-86.688,1.993,1.993,0,0,0,1.19-1.247c.092-.551,1.229-1.249,2.538-1.525s2.736-.039,3.161.52a4.1,4.1,0,0,1,.6,2.542,2.136,2.136,0,0,1-1.116,1.775c-.518.147-1.085,1.818-1.259,3.695-.019.206-.029.309-.048.515-.175,1.874.411,3.994,1.307,4.77s1.4,1.969,1.116,2.6.875,1.447,2.591,1.857,3.136.982,3.136,1.237.551.629,1.227.837a2.246,2.246,0,0,1,1.407,1.713c.1.733.573,1.091,1.058.787a1.163,1.163,0,0,1,1.416.037,2.083,2.083,0,0,1,.177,1.754,1.961,1.961,0,0,1-1.063,1.305c-.389.086-.707.885-.707,1.78a6.247,6.247,0,0,0,1.681,3.42,4.1,4.1,0,0,1,1.154,3.445,3.153,3.153,0,0,0,1.336,3.036c1.03.8,1.876,3.284,1.876,5.505v4.4c0,2.222.4,4.452.9,4.959a3.41,3.41,0,0,1,.629,2.589c-.149.914.7,2.508,1.889,3.554s2.412,1.165,2.711.255a2.487,2.487,0,0,0-.543-2.534c-.6-.48-1.044-2.451-.995-4.383a8.983,8.983,0,0,1,2.848-5.8c.912-.775,1.369-1.171,2.285-1.978,1.526-1.344,2.616-3.64,2.414-5.031a5.933,5.933,0,0,1,1.19-4.25c.857-.96.815-3.288-.091-5.128s-2.594-3.5-3.746-3.712-2.092-.911-2.092-1.55a1.254,1.254,0,0,0-1.269-1.188,3.52,3.52,0,0,1-2.26-1.289c-.546-.689-2.62-1.255-4.594-1.267l-.865-.006c-1.97-.012-3.607-.5-3.656-1.085a1.913,1.913,0,0,0-1.413-1.424,1.7,1.7,0,0,1-1.32-1.388,1.744,1.744,0,0,0-1.14-1.452,1.306,1.306,0,0,1-.525-1.824,4.908,4.908,0,0,1,2.457-2.145,2.4,2.4,0,0,1,2.649.375c.439.609,1.038,1.1,1.331,1.085s.534-.652.534-1.411,1.361-2.433,3.036-3.771l.18-.144c1.675-1.34,2.935-3.2,2.785-4.095s1.346-1.6,3.335-1.547l.565.016c1.991.059,3.631-1.172,3.631-2.772s-.37-2.863-.821-2.806-1.148-.624-1.549-1.5-1.791-1.19-3.085-.694a7.96,7.96,0,0,0-2.8,1.6c-.247.38-1.057.465-1.8.2s-.539-1.153.448-2.007a8.577,8.577,0,0,0,2.339-3.727c.3-1.194-1.085-2-3.058-1.728-.573.079-.859.12-1.429.2-1.966.291-3.96,1.249-4.446,2.064s-2.467,1.656-4.383,1.937a91.657,91.657,0,0,0-10.405,2.026,69.062,69.062,0,0,1,129.24,2.721,7.566,7.566,0,0,1-3.789-2,14.312,14.312,0,0,0-4.436-3.244c-.794-.4-1.193-.593-1.991-.986a20.663,20.663,0,0,0-6.938-1.87c-.33-.012-.5-.017-.828-.027a7.852,7.852,0,0,1-5.4-2.508,10.807,10.807,0,0,0-5.529-3.3c-2.387-.5-3.587-.729-6-1.145-2.025-.35-4.354-.149-5.166.415a3.31,3.31,0,0,0-1.477,2.047c0,.555-.874,1.208-1.943,1.468s-2.072.167-2.225-.223-1.447-.822-2.88-.939-3.026-.225-3.539-.259a21.3,21.3,0,0,1-4.2-1.618c-1.8-.847-4.323-.921-5.61-.172a8.311,8.311,0,0,0-3.181,4.176,7.89,7.89,0,0,0-.187,4.318,2.567,2.567,0,0,0,2.059,1.524,1.736,1.736,0,0,0,1.684-1.15,2.631,2.631,0,0,1,1.309-1.61c.566-.245,1.113.869,1.216,2.472a4.393,4.393,0,0,1-2.431,4.037c-1.441.624-2.746.411-2.9-.488a2.31,2.31,0,0,0-1.5-1.867c-.669-.127-1.216.613-1.216,1.639a2.781,2.781,0,0,1-1.59,2.463,4.734,4.734,0,0,0-2.245,1.894,3.406,3.406,0,0,0-.187,2.448c.257.637-.206,1.166-1.028,1.18s-1.327,1.12-1.121,2.458,1.047,2.427,1.869,2.42a1.861,1.861,0,0,0,1.776-1.3,1.616,1.616,0,0,1,1.683-1.177,4.006,4.006,0,0,0,2.34-.591c.515-.385,1.356-.069,1.871.7a3.743,3.743,0,0,1,.561,2.686c-.205.706.174.968.842.586a2.448,2.448,0,0,0,.654-2.679c-.308-1.092-.308-2.142,0-2.332s1.151.6,1.871,1.764,1.94,1.8,2.711,1.428a2.318,2.318,0,0,1,2.614.967,4.794,4.794,0,0,1,.933,3.138c-.154.824-1.665,1.9-3.361,2.4a7.833,7.833,0,0,1-4.862-.021,5.56,5.56,0,0,1-2.339-2.455c-.309-.835-1.74-1.572-3.181-1.632s-3.939,1.22-5.55,2.835c-.646.648-.969.972-1.615,1.617-1.611,1.612-3.053,4.115-3.206,5.576a7.063,7.063,0,0,1-.839,3.111,5.72,5.72,0,0,0-.559,2.99,8.478,8.478,0,0,0,2.237,4.883,9.033,9.033,0,0,0,5.6,2.409,9.911,9.911,0,0,1,4.583.967,4.932,4.932,0,0,1,1.31,3.27,4.164,4.164,0,0,0,1.5,3.149c.772.446,1.208,2.9.97,5.465-.027.291-.041.436-.067.727-.239,2.561.029,5.494.6,6.513a13.933,13.933,0,0,1,1.216,4.877,3.868,3.868,0,0,0,2.712,3.528c1.388.264,3.658-.96,5.043-2.7a12.247,12.247,0,0,0,2.424-6.736,8.624,8.624,0,0,1,1.676-5.393c.972-1.007,1.809-3.733,1.86-6.059a13.51,13.51,0,0,1,1.857-6.582,6.679,6.679,0,0,0,1.484-4.024,3.856,3.856,0,0,0-2.6-2.425,3.427,3.427,0,0,1-2.417-2.585,6.663,6.663,0,0,0-1.023-3.088,5.591,5.591,0,0,1-.839-3.1c.051-1.013.387-1.84.746-1.838s1.364,1.2,2.233,2.64a9.638,9.638,0,0,1,1.487,4.1,1.884,1.884,0,0,0,.742,1.809c.459.179,2-.568,3.428-1.642s1.715-3.532.647-5.509-1.193-3.66-.277-3.708a2.016,2.016,0,0,1,2.032,1.258,8.273,8.273,0,0,0,2.3,3.012,18.69,18.69,0,0,0,3.306,2.288,3.083,3.083,0,0,1,1.19,2.911c-.1,1.254,1.012,3.56,2.465,5.068s3.2.86,3.891-1.344c.3-.962.451-1.441.751-2.395.688-2.185,1.9-3.813,2.691-3.66s1.88,1.633,2.421,3.265a13.408,13.408,0,0,0,1.964,3.962c.539.555.939.121.89-.956s.111-1.969.355-1.984a1.584,1.584,0,0,1,.976.621c.292.354,1.209.155,2.033-.425s1.457-2.6,1.409-4.516.506-3.645,1.228-3.842a3.032,3.032,0,0,0,1.748-2.078,4.41,4.41,0,0,0-.873-3.344,3.13,3.13,0,0,1-.525-3.09c.433-.772,1.1-1.355,1.484-1.31s1.359-1.328,2.164-2.982c.63-1.293.943-1.926,1.57-3.165.8-1.584,1.84-2.489,2.311-2.091a3.036,3.036,0,0,1,.854,2.062,2.618,2.618,0,0,0,.852,1.939c.468.327,1.308-.277,1.866-1.3a5.274,5.274,0,0,1,1.9-1.785,69.091,69.091,0,0,1-66.476,87.74Z" transform="translate(-129.41 -88.046)" fill="#407bff"/>
            <path id="Trazado_725101" data-name="Trazado 725101" d="M201.562,142.146l-.185-.112a7.433,7.433,0,0,0-6.664.065c-1.2.656-1.8.988-3,1.654-1.93,1.075-3.5,2.485-3.5,3.117a8.537,8.537,0,0,0,.815,2.862,5.62,5.62,0,0,1,.453,3.171c-.2.788.453,1.477,1.453,1.549a5.259,5.259,0,0,1,3.189,1.884,6.774,6.774,0,0,0,2.471,2.086c.605.172,1.721-1.081,2.48-2.807a11.78,11.78,0,0,1,3.965-4.676,4.449,4.449,0,0,0,2.128-4.177A8.314,8.314,0,0,0,201.562,142.146Z" transform="translate(-151.496 -108.039)" fill="#407bff"/>
            <path id="Trazado_725102" data-name="Trazado 725102" d="M283.894,248.474a2.345,2.345,0,0,0-1.111-.362c-.255.02-.839.777-1.3,1.686a10.1,10.1,0,0,0-.835,3.816,6.247,6.247,0,0,0,.649,3.01.95.95,0,0,0,1.3.324c.357-.286.94-2.227,1.3-4.307S284.25,248.692,283.894,248.474Z" transform="translate(-186.214 -148.164)" fill="#407bff"/>
            <path id="Trazado_725103" data-name="Trazado 725103" d="M237.617,168.317a3.6,3.6,0,0,0,1.963-.273c.566-.266,1.029-1.479,1.029-2.7s-.337-2.209-.749-2.2-.874.543-1.028,1.186a1.754,1.754,0,0,1-1.215,1.31,1.286,1.286,0,0,0-.934,1.3A1.406,1.406,0,0,0,237.617,168.317Z" transform="translate(-169.7 -116.253)" fill="#407bff"/>
            <path id="Trazado_725104" data-name="Trazado 725104" d="M336.642,244.6a7.708,7.708,0,0,0,1.119-3.466,10.415,10.415,0,0,0-1.118-3.872,6.236,6.236,0,0,0-1.728-2.368c-.333-.083-.607.291-.607.834a.879.879,0,0,1-.782.968,1.976,1.976,0,0,1-1.22-.488c-.24-.257-1.1-.223-1.925.079a5.233,5.233,0,0,0-2.288,1.836,9.9,9.9,0,0,1-2.3,2.363c-.83.588-1.432,2.348-1.334,3.9s.819,2.666,1.6,2.473,1.974-.5,2.653-.676a3.255,3.255,0,0,1,2.022.108,6.551,6.551,0,0,0,2.794.273A4.727,4.727,0,0,0,336.642,244.6Z" transform="translate(-202.663 -143.198)" fill="#407bff"/>
            <path id="Trazado_725105" data-name="Trazado 725105" d="M343.864,197.543c.378.014,1.19-.851,1.8-1.887a7.539,7.539,0,0,0,.769-4.239,5.587,5.587,0,0,0-1.111-2.949,1.629,1.629,0,0,0-1.46-.223c-.379.182-.5.876-.259,1.53a6.1,6.1,0,0,1-.518,3.441,5.222,5.222,0,0,0-.431,3.313A1.828,1.828,0,0,0,343.864,197.543Z" transform="translate(-209.453 -125.646)" fill="#407bff"/>
            <path id="Trazado_725106" data-name="Trazado 725106" d="M346.9,246.551c-.281.506-.742,1.381-1.024,1.944a19.868,19.868,0,0,1-2.145,2.9c-.9,1.038-1.484,2.249-1.294,2.664s.967.511,1.724.209a4.42,4.42,0,0,0,1.972-2.656,10.96,10.96,0,0,1,1.7-3.4c.608-.721.76-1.577.34-1.929A.814.814,0,0,0,346.9,246.551Z" transform="translate(-209.407 -147.402)" fill="#407bff"/>
          </g>
          <g id="Grupo_1027098" data-name="Grupo 1027098" opacity="0.7">
            <path id="Trazado_725107" data-name="Trazado 725107" d="M204.708,88.046a75.3,75.3,0,1,0,75.3,75.3A75.3,75.3,0,0,0,204.708,88.046Zm0,144.338a69.085,69.085,0,0,1-66.76-86.688,1.993,1.993,0,0,0,1.19-1.247c.092-.551,1.229-1.249,2.538-1.525s2.736-.039,3.161.52a4.1,4.1,0,0,1,.6,2.542,2.136,2.136,0,0,1-1.116,1.775c-.518.147-1.085,1.818-1.259,3.695-.019.206-.029.309-.048.515-.175,1.874.411,3.994,1.307,4.77s1.4,1.969,1.116,2.6.875,1.447,2.591,1.857,3.136.982,3.136,1.237.551.629,1.227.837a2.246,2.246,0,0,1,1.407,1.713c.1.733.573,1.091,1.058.787a1.163,1.163,0,0,1,1.416.037,2.083,2.083,0,0,1,.177,1.754,1.961,1.961,0,0,1-1.063,1.305c-.389.086-.707.885-.707,1.78a6.247,6.247,0,0,0,1.681,3.42,4.1,4.1,0,0,1,1.154,3.445,3.153,3.153,0,0,0,1.336,3.036c1.03.8,1.876,3.284,1.876,5.505v4.4c0,2.222.4,4.452.9,4.959a3.41,3.41,0,0,1,.629,2.589c-.149.914.7,2.508,1.889,3.554s2.412,1.165,2.711.255a2.487,2.487,0,0,0-.543-2.534c-.6-.48-1.044-2.451-.995-4.383a8.983,8.983,0,0,1,2.848-5.8c.912-.775,1.369-1.171,2.285-1.978,1.526-1.344,2.616-3.64,2.414-5.031a5.933,5.933,0,0,1,1.19-4.25c.857-.96.815-3.288-.091-5.128s-2.594-3.5-3.746-3.712-2.092-.911-2.092-1.55a1.254,1.254,0,0,0-1.269-1.188,3.52,3.52,0,0,1-2.26-1.289c-.546-.689-2.62-1.255-4.594-1.267l-.865-.006c-1.97-.012-3.607-.5-3.656-1.085a1.913,1.913,0,0,0-1.413-1.424,1.7,1.7,0,0,1-1.32-1.388,1.744,1.744,0,0,0-1.14-1.452,1.306,1.306,0,0,1-.525-1.824,4.908,4.908,0,0,1,2.457-2.145,2.4,2.4,0,0,1,2.649.375c.439.609,1.038,1.1,1.331,1.085s.534-.652.534-1.411,1.361-2.433,3.036-3.771l.18-.144c1.675-1.34,2.935-3.2,2.785-4.095s1.346-1.6,3.335-1.547l.565.016c1.991.059,3.631-1.172,3.631-2.772s-.37-2.863-.821-2.806-1.148-.624-1.549-1.5-1.791-1.19-3.085-.694a7.96,7.96,0,0,0-2.8,1.6c-.247.38-1.057.465-1.8.2s-.539-1.153.448-2.007a8.577,8.577,0,0,0,2.339-3.727c.3-1.194-1.085-2-3.058-1.728-.573.079-.859.12-1.429.2-1.966.291-3.96,1.249-4.446,2.064s-2.467,1.656-4.383,1.937a91.657,91.657,0,0,0-10.405,2.026,69.062,69.062,0,0,1,129.24,2.721,7.566,7.566,0,0,1-3.789-2,14.312,14.312,0,0,0-4.436-3.244c-.794-.4-1.193-.593-1.991-.986a20.663,20.663,0,0,0-6.938-1.87c-.33-.012-.5-.017-.828-.027a7.852,7.852,0,0,1-5.4-2.508,10.807,10.807,0,0,0-5.529-3.3c-2.387-.5-3.587-.729-6-1.145-2.025-.35-4.354-.149-5.166.415a3.31,3.31,0,0,0-1.477,2.047c0,.555-.874,1.208-1.943,1.468s-2.072.167-2.225-.223-1.447-.822-2.88-.939-3.026-.225-3.539-.259a21.3,21.3,0,0,1-4.2-1.618c-1.8-.847-4.323-.921-5.61-.172a8.311,8.311,0,0,0-3.181,4.176,7.89,7.89,0,0,0-.187,4.318,2.567,2.567,0,0,0,2.059,1.524,1.736,1.736,0,0,0,1.684-1.15,2.631,2.631,0,0,1,1.309-1.61c.566-.245,1.113.869,1.216,2.472a4.393,4.393,0,0,1-2.431,4.037c-1.441.624-2.746.411-2.9-.488a2.31,2.31,0,0,0-1.5-1.867c-.669-.127-1.216.613-1.216,1.639a2.781,2.781,0,0,1-1.59,2.463,4.734,4.734,0,0,0-2.245,1.894,3.406,3.406,0,0,0-.187,2.448c.257.637-.206,1.166-1.028,1.18s-1.327,1.12-1.121,2.458,1.047,2.427,1.869,2.42a1.861,1.861,0,0,0,1.776-1.3,1.616,1.616,0,0,1,1.683-1.177,4.006,4.006,0,0,0,2.34-.591c.515-.385,1.356-.069,1.871.7a3.743,3.743,0,0,1,.561,2.686c-.205.706.174.968.842.586a2.448,2.448,0,0,0,.654-2.679c-.308-1.092-.308-2.142,0-2.332s1.151.6,1.871,1.764,1.94,1.8,2.711,1.428a2.318,2.318,0,0,1,2.614.967,4.794,4.794,0,0,1,.933,3.138c-.154.824-1.665,1.9-3.361,2.4a7.833,7.833,0,0,1-4.862-.021,5.56,5.56,0,0,1-2.339-2.455c-.309-.835-1.74-1.572-3.181-1.632s-3.939,1.22-5.55,2.835c-.646.648-.969.972-1.615,1.617-1.611,1.612-3.053,4.115-3.206,5.576a7.063,7.063,0,0,1-.839,3.111,5.72,5.72,0,0,0-.559,2.99,8.478,8.478,0,0,0,2.237,4.883,9.033,9.033,0,0,0,5.6,2.409,9.911,9.911,0,0,1,4.583.967,4.932,4.932,0,0,1,1.31,3.27,4.164,4.164,0,0,0,1.5,3.149c.772.446,1.208,2.9.97,5.465-.027.291-.041.436-.067.727-.239,2.561.029,5.494.6,6.513a13.933,13.933,0,0,1,1.216,4.877,3.868,3.868,0,0,0,2.712,3.528c1.388.264,3.658-.96,5.043-2.7a12.247,12.247,0,0,0,2.424-6.736,8.624,8.624,0,0,1,1.676-5.393c.972-1.007,1.809-3.733,1.86-6.059a13.51,13.51,0,0,1,1.857-6.582,6.679,6.679,0,0,0,1.484-4.024,3.856,3.856,0,0,0-2.6-2.425,3.427,3.427,0,0,1-2.417-2.585,6.663,6.663,0,0,0-1.023-3.088,5.591,5.591,0,0,1-.839-3.1c.051-1.013.387-1.84.746-1.838s1.364,1.2,2.233,2.64a9.638,9.638,0,0,1,1.487,4.1,1.884,1.884,0,0,0,.742,1.809c.459.179,2-.568,3.428-1.642s1.715-3.532.647-5.509-1.193-3.66-.277-3.708a2.016,2.016,0,0,1,2.032,1.258,8.273,8.273,0,0,0,2.3,3.012,18.69,18.69,0,0,0,3.306,2.288,3.083,3.083,0,0,1,1.19,2.911c-.1,1.254,1.012,3.56,2.465,5.068s3.2.86,3.891-1.344c.3-.962.451-1.441.751-2.395.688-2.185,1.9-3.813,2.691-3.66s1.88,1.633,2.421,3.265a13.408,13.408,0,0,0,1.964,3.962c.539.555.939.121.89-.956s.111-1.969.355-1.984a1.584,1.584,0,0,1,.976.621c.292.354,1.209.155,2.033-.425s1.457-2.6,1.409-4.516.506-3.645,1.228-3.842a3.032,3.032,0,0,0,1.748-2.078,4.41,4.41,0,0,0-.873-3.344,3.13,3.13,0,0,1-.525-3.09c.433-.772,1.1-1.355,1.484-1.31s1.359-1.328,2.164-2.982c.63-1.293.943-1.926,1.57-3.165.8-1.584,1.84-2.489,2.311-2.091a3.036,3.036,0,0,1,.854,2.062,2.618,2.618,0,0,0,.852,1.939c.468.327,1.308-.277,1.866-1.3a5.274,5.274,0,0,1,1.9-1.785,69.091,69.091,0,0,1-66.476,87.74Z" transform="translate(-129.41 -88.046)" fill="#fff"/>
            <path id="Trazado_725108" data-name="Trazado 725108" d="M201.562,142.146l-.185-.112a7.433,7.433,0,0,0-6.664.065c-1.2.656-1.8.988-3,1.654-1.93,1.075-3.5,2.485-3.5,3.117a8.537,8.537,0,0,0,.815,2.862,5.62,5.62,0,0,1,.453,3.171c-.2.788.453,1.477,1.453,1.549a5.259,5.259,0,0,1,3.189,1.884,6.774,6.774,0,0,0,2.471,2.086c.605.172,1.721-1.081,2.48-2.807a11.78,11.78,0,0,1,3.965-4.676,4.449,4.449,0,0,0,2.128-4.177A8.314,8.314,0,0,0,201.562,142.146Z" transform="translate(-151.496 -108.039)" fill="#fff"/>
            <path id="Trazado_725109" data-name="Trazado 725109" d="M283.894,248.474a2.345,2.345,0,0,0-1.111-.362c-.255.02-.839.777-1.3,1.686a10.1,10.1,0,0,0-.835,3.816,6.247,6.247,0,0,0,.649,3.01.95.95,0,0,0,1.3.324c.357-.286.94-2.227,1.3-4.307S284.25,248.692,283.894,248.474Z" transform="translate(-186.214 -148.164)" fill="#fff"/>
            <path id="Trazado_725110" data-name="Trazado 725110" d="M237.617,168.317a3.6,3.6,0,0,0,1.963-.273c.566-.266,1.029-1.479,1.029-2.7s-.337-2.209-.749-2.2-.874.543-1.028,1.186a1.754,1.754,0,0,1-1.215,1.31,1.286,1.286,0,0,0-.934,1.3A1.406,1.406,0,0,0,237.617,168.317Z" transform="translate(-169.7 -116.253)" fill="#fff"/>
            <path id="Trazado_725111" data-name="Trazado 725111" d="M336.642,244.6a7.708,7.708,0,0,0,1.119-3.466,10.415,10.415,0,0,0-1.118-3.872,6.236,6.236,0,0,0-1.728-2.368c-.333-.083-.607.291-.607.834a.879.879,0,0,1-.782.968,1.976,1.976,0,0,1-1.22-.488c-.24-.257-1.1-.223-1.925.079a5.233,5.233,0,0,0-2.288,1.836,9.9,9.9,0,0,1-2.3,2.363c-.83.588-1.432,2.348-1.334,3.9s.819,2.666,1.6,2.473,1.974-.5,2.653-.676a3.255,3.255,0,0,1,2.022.108,6.551,6.551,0,0,0,2.794.273A4.727,4.727,0,0,0,336.642,244.6Z" transform="translate(-202.663 -143.198)" fill="#fff"/>
            <path id="Trazado_725112" data-name="Trazado 725112" d="M343.864,197.543c.378.014,1.19-.851,1.8-1.887a7.539,7.539,0,0,0,.769-4.239,5.587,5.587,0,0,0-1.111-2.949,1.629,1.629,0,0,0-1.46-.223c-.379.182-.5.876-.259,1.53a6.1,6.1,0,0,1-.518,3.441,5.222,5.222,0,0,0-.431,3.313A1.828,1.828,0,0,0,343.864,197.543Z" transform="translate(-209.453 -125.646)" fill="#fff"/>
            <path id="Trazado_725113" data-name="Trazado 725113" d="M346.9,246.551c-.281.506-.742,1.381-1.024,1.944a19.868,19.868,0,0,1-2.145,2.9c-.9,1.038-1.484,2.249-1.294,2.664s.967.511,1.724.209a4.42,4.42,0,0,0,1.972-2.656,10.96,10.96,0,0,1,1.7-3.4c.608-.721.76-1.577.34-1.929A.814.814,0,0,0,346.9,246.551Z" transform="translate(-209.407 -147.402)" fill="#fff"/>
          </g>
        </g>
      </g>
      <g id="Character_2" data-name="Character 2" transform="translate(148.053 126.741)">
        <g id="Grupo_1027111" data-name="Grupo 1027111" transform="translate(0 0)">
          <path id="Trazado_725114" data-name="Trazado 725114" d="M266.5,390.622l.65,8.744h-3.885l-1.909-8.434Z" transform="translate(-226.952 -240.385)" fill="#b55b52"/>
          <path id="Trazado_725115" data-name="Trazado 725115" d="M267.321,403.856l-4.769-.006a.356.356,0,0,0-.363.353l-.831,4.584a.906.906,0,0,0,.721.871.8.8,0,0,0,.158.016c1.966-.068,3.7-.207,6.157-.245,2.9-.049,2.231.312,5.649.3,2.059-.008,1.982-2.355,1.089-2.456-4.083-.435-4.73-1.635-6.544-3.04A2.041,2.041,0,0,0,267.321,403.856Z" transform="translate(-226.952 -245.353)" fill="#263238"/>
          <path id="Trazado_725116" data-name="Trazado 725116" d="M252.076,261.25l6.733,87.539-5.747.284s-5.8-20.622-6.871-33.158c-.074-.865-.126-1.693-.151-2.475a61.483,61.483,0,0,0-1.271-10.884l-.267-1.249-3.761-17.582s-5.7-9.547-2.469-22.875Z" transform="translate(-217.91 -191.644)" fill="#263238"/>
          <path id="Trazado_725117" data-name="Trazado 725117" d="M243.736,299.753c1.908-9.589.953-20.965.953-20.965l-2.824,1.132-1.905,5.293s.006.424.021,1.13a23.17,23.17,0,0,0,1.768,4.119Z" transform="translate(-218.916 -198.381)" opacity="0.4"/>
          <path id="Trazado_725118" data-name="Trazado 725118" d="M224.342,390.622l-1.276,8.744h-3.884l.017-8.434Z" transform="translate(-211.112 -240.385)" fill="#b55b52"/>
          <path id="Trazado_725119" data-name="Trazado 725119" d="M222.338,403.856l-4.769-.006a.355.355,0,0,0-.363.353l-.831,4.584a.906.906,0,0,0,.72.871.807.807,0,0,0,.158.016c1.967-.068,3.7-.207,6.158-.245,2.9-.049,2.231.312,5.648.3,2.059-.008,1.982-2.355,1.089-2.456-4.082-.435-4.73-1.635-6.544-3.04A2.042,2.042,0,0,0,222.338,403.856Z" transform="translate(-210.057 -245.353)" fill="#263238"/>
          <path id="Trazado_725120" data-name="Trazado 725120" d="M239.245,261.25,233.2,289.873l-9.55,59.058-5.727-.25s-1.263-19.038.46-31.714c.136-1,.291-1.961.466-2.87a64.224,64.224,0,0,0,1.23-12.836l-.013-1.241-.172-16.294S218.707,271.358,222,260.85Z" transform="translate(-210.473 -191.644)" fill="#263238"/>
          <path id="Trazado_725121" data-name="Trazado 725121" d="M246.167,261.25l-13.8-.4c-.017.069-.03.135-.046.2l-8.788-.2a51.4,51.4,0,0,0-1.983,10.33l12.647,1.8a2.888,2.888,0,0,0,3.188-2.088l1.267-4.574,1.235,4.556a2.718,2.718,0,0,0,3.168,1.952l3.944-.806Z" transform="translate(-212 -191.644)" opacity="0.4"/>
          <g id="Grupo_1027101" data-name="Grupo 1027101" transform="translate(31.003 24.91)">
            <g id="Grupo_1027100" data-name="Grupo 1027100" transform="translate(18.964 23.924)">
              <path id="Trazado_725122" data-name="Trazado 725122" d="M288.547,229.244l3.57.181a18.862,18.862,0,0,1,2.27-.922c.623-.138,2.014-.473,2.551-.129a3.406,3.406,0,0,1,1.021,2.562,4.55,4.55,0,0,1-2.531,2.573c-.94.194-3.555-1.444-3.555-1.444l-3.652-.036Z" transform="translate(-287.01 -228.224)" fill="#b55b52"/>
              <path id="Trazado_725123" data-name="Trazado 725123" d="M287.118,229.02l3.046.369-.834,3.324-3.049-.039Z" transform="translate(-286.281 -228.523)" fill="#407bff"/>
              <path id="Trazado_725124" data-name="Trazado 725124" d="M287.118,229.02l3.046.369-.834,3.324-3.049-.039Z" transform="translate(-286.281 -228.523)" fill="#fff" opacity="0.8"/>
            </g>
            <path id="Trazado_725125" data-name="Trazado 725125" d="M255.914,189.909s2.671,1.234,6.7,12.625c3.541,10.007,14.486,11.627,14.486,11.627l-.933,4.2s-15,.253-17.738-11.126S255.914,189.909,255.914,189.909Z" transform="translate(-255.91 -189.909)" fill="#263238"/>
            <path id="Trazado_725126" data-name="Trazado 725126" d="M259,211.859a12.411,12.411,0,0,0,2.631,5.223,74.085,74.085,0,0,0-2.074-14.874l-1.994.526-.133,1.49C257.8,206.411,258.3,208.958,259,211.859Z" transform="translate(-256.482 -194.528)" opacity="0.4"/>
          </g>
          <path id="Trazado_725127" data-name="Trazado 725127" d="M219.282,220.23l-1.324,21.339,14.072,2a2.887,2.887,0,0,0,3.189-2.088l1.266-4.574,1.236,4.556a2.718,2.718,0,0,0,3.168,1.952l5.348-1.093-.973-22.09s.77-20.082-2.234-28.581a5.272,5.272,0,0,0-3.752-3.367,37.386,37.386,0,0,0-22.141,1.678,2.119,2.119,0,0,0-1.331,2.229Z" transform="translate(-209.838 -164.032)" fill="#263238"/>
          <path id="Trazado_725128" data-name="Trazado 725128" d="M219.127,219.459v-.011a68.267,68.267,0,0,0-.187-21.507l-1.326.262-.671,3.661Z" transform="translate(-210.272 -168.017)" opacity="0.4"/>
          <g id="Grupo_1027103" data-name="Grupo 1027103" transform="translate(0 26.052)">
            <path id="Trazado_725129" data-name="Trazado 725129" d="M215.234,260.7l.874,4.146a22.649,22.649,0,0,1,1.935,2.357c.378.678,1.258,2.183.967,2.893a4.7,4.7,0,0,1-3.09,1.862,6.436,6.436,0,0,1-4.213-2.212c-.551-1.026.812-4.469.812-4.469l-1.092-4.2Z" transform="translate(-208.199 -217.641)" fill="#b55b52"/>
            <g id="Grupo_1027102" data-name="Grupo 1027102" transform="translate(2.078 40.912)">
              <path id="Trazado_725130" data-name="Trazado 725130" d="M214.925,257.259l.753,4.721-4.914.813-1.179-4.786Z" transform="translate(-209.586 -257.259)" fill="#407bff"/>
              <path id="Trazado_725131" data-name="Trazado 725131" d="M214.925,257.259l.753,4.721-4.914.813-1.179-4.786Z" transform="translate(-209.586 -257.259)" fill="#fff" opacity="0.8"/>
            </g>
            <path id="Trazado_725132" data-name="Trazado 725132" d="M208.569,236.759s-2.829-8.006-2.227-21.152,4.633-26.064,8.719-23.553-.822,17.324-1.275,24.064.608,19.725.608,19.725Z" transform="translate(-206.258 -191.738)" fill="#263238"/>
          </g>
          <circle id="Elipse_8573" data-name="Elipse 8573" cx="0.589" cy="0.589" r="0.589" transform="translate(23.871 45.666)" fill="#407bff"/>
          <path id="Trazado_725133" data-name="Trazado 725133" d="M248.153,243.8a.589.589,0,1,1-.589-.589A.589.589,0,0,1,248.153,243.8Z" transform="translate(-221.551 -185.02)" fill="#407bff"/>
          <circle id="Elipse_8574" data-name="Elipse 8574" cx="0.589" cy="0.589" r="0.589" transform="translate(26.013 69.678)" fill="#407bff"/>
          <g id="Grupo_1027104" data-name="Grupo 1027104" transform="translate(28.022 37.305)">
            <rect id="Rectángulo_349212" data-name="Rectángulo 349212" width="4.591" height="2.774" fill="#407bff"/>
            <rect id="Rectángulo_349213" data-name="Rectángulo 349213" width="4.591" height="1.87" transform="translate(0 0.904)" fill="#fff" opacity="0.4"/>
            <rect id="Rectángulo_349214" data-name="Rectángulo 349214" width="4.591" height="1.013" transform="translate(0 1.761)" fill="#fff" opacity="0.4"/>
          </g>
          <path id="Trazado_725134" data-name="Trazado 725134" d="M230.765,186.47a12.484,12.484,0,0,1,7.048-.49l1.446.824.508,1.611-1.831,1.436-4.326.44-3.575-1.479.2-1.589Z" transform="translate(-215.188 -163.415)" fill="#263238"/>
          <g id="Grupo_1027106" data-name="Grupo 1027106" transform="translate(11.349)">
            <path id="Trazado_725135" data-name="Trazado 725135" d="M238.808,182.652a4.762,4.762,0,0,1-1.061-4.094l-6.476-5.247c.741,5.643.8,7.253-.5,9.771a6.65,6.65,0,0,0,5.618,1.92C239.669,184.406,238.808,182.652,238.808,182.652Z" transform="translate(-226.813 -158.765)" fill="#b55b52"/>
            <path id="Trazado_725136" data-name="Trazado 725136" d="M238.047,178.558l-6.475-5.247c.166,1.27.3,2.328.386,3.246a6.912,6.912,0,0,0,6.111,4.041A4.374,4.374,0,0,1,238.047,178.558Z" transform="translate(-227.114 -158.765)" opacity="0.2"/>
            <path id="Trazado_725137" data-name="Trazado 725137" d="M238.169,154.552s2.307-2.163,3.8-1.5-1.439,1.1-1.439,1.1,5.231-.486,3.376,4.237Z" transform="translate(-229.592 -151.109)" fill="#263238"/>
            <path id="Trazado_725138" data-name="Trazado 725138" d="M229.736,162.376c.914,4.184,1.241,6.675,3.711,8.506,3.712,2.762,8.623,0,8.971-4.355.313-3.953-1.24-10.11-5.633-11.145a5.834,5.834,0,0,0-7.049,6.993Z" transform="translate(-226.368 -151.97)" fill="#b55b52"/>
            <path id="Trazado_725139" data-name="Trazado 725139" d="M240.7,166.574c.055.345.278.6.5.56s.362-.342.308-.687-.278-.592-.5-.556S240.649,166.233,240.7,166.574Z" transform="translate(-230.539 -155.978)" fill="#263238"/>
            <path id="Trazado_725140" data-name="Trazado 725140" d="M246.922,165.6c.054.341.278.592.5.556s.362-.342.307-.682-.278-.6-.5-.561S246.867,165.259,246.922,165.6Z" transform="translate(-232.875 -155.611)" fill="#263238"/>
            <path id="Trazado_725141" data-name="Trazado 725141" d="M244.653,166.588a12.392,12.392,0,0,0,2.1,2.679,2.025,2.025,0,0,1-1.6.568Z" transform="translate(-232.027 -156.24)" fill="#a02724"/>
            <path id="Trazado_725142" data-name="Trazado 725142" d="M238.043,163.914a.253.253,0,0,1-.1-.006.213.213,0,0,1-.083-.278,2.051,2.051,0,0,1,1.513-1.088.205.205,0,1,1,.036.409h0a1.62,1.62,0,0,0-1.188.874A.2.2,0,0,1,238.043,163.914Z" transform="translate(-229.466 -154.72)" fill="#263238"/>
            <path id="Trazado_725143" data-name="Trazado 725143" d="M247.964,162.391a.2.2,0,0,1-.174-.089,1.625,1.625,0,0,0-1.268-.734.2.2,0,0,1-.011-.408,2.038,2.038,0,0,1,1.63.914.2.2,0,0,1-.046.277l-.005,0A.191.191,0,0,1,247.964,162.391Z" transform="translate(-232.651 -154.202)" fill="#263238"/>
            <path id="Trazado_725144" data-name="Trazado 725144" d="M241.5,164.562c-.366-.129-.563.833-1.542-.174a2.048,2.048,0,0,0-2.295-.356c-.879-.586-2.1.085-3.106.348a2.523,2.523,0,0,1-1.917,0c-1.714-.743-1.778-.807-2.016-1.368-.62-1.464-1.745-4.759-.858-6.3,0,0,6.834-2.386,3.116-5.274-.935-.726-7.03-3.281-3.711.986,0,0-5.446.3-2.413,1.818,0,0-4.079,1.557-1.437,3,0,0-2.118,2.03,2.326,5.748l1.7.237.38.1-.619,2.335c.264,1.928,2.515,3.614,2.515,3.614.616,1.215,1.309.76,1.309.76a1.251,1.251,0,0,0,1.9.306c.771,1.51,2.015-.306,2.015-.306.3,1.145,2.036-1.293,2.036-1.293.495.919,1.637-2.9,1.637-2.9C241.409,165.662,241.881,164.7,241.5,164.562Z" transform="translate(-224.433 -150.016)" fill="#263238"/>
            <path id="Trazado_725145" data-name="Trazado 725145" d="M227.194,171.643a4.087,4.087,0,0,0,2.779,1.382c1.425.083,1.841-1.258,1.195-2.448-.578-1.066-2.02-2.4-3.328-1.931A1.821,1.821,0,0,0,227.194,171.643Z" transform="translate(-225.274 -156.977)" fill="#b55b52"/>
            <g id="Grupo_1027105" data-name="Grupo 1027105" transform="translate(10.298 14.835)">
              <path id="Trazado_725146" data-name="Trazado 725146" d="M245.086,173.925a24.237,24.237,0,0,0-4.161-.113,2.534,2.534,0,0,0,2.68,1.424C245.173,175.183,245.086,173.925,245.086,173.925Z" transform="translate(-240.925 -173.781)" fill="#263238"/>
              <path id="Trazado_725147" data-name="Trazado 725147" d="M243.414,175.085a3.137,3.137,0,0,1,1.731.353,1.746,1.746,0,0,1-.965.275,3.108,3.108,0,0,1-1.727-.353A1.738,1.738,0,0,1,243.414,175.085Z" transform="translate(-241.499 -174.263)" fill="#ff5652"/>
              <path id="Trazado_725148" data-name="Trazado 725148" d="M245.025,173.9a.578.578,0,0,1-.453.425,17.874,17.874,0,0,1-2.716-.134.9.9,0,0,1-.713-.388A28.269,28.269,0,0,1,245.025,173.9Z" transform="translate(-241.007 -173.775)" fill="#fff"/>
            </g>
          </g>
          <g id="Grupo_1027110" data-name="Grupo 1027110" transform="translate(12.096 22.565)">
            <g id="Grupo_1027107" data-name="Grupo 1027107" transform="translate(2.665 1.751)">
              <path id="Trazado_725149" data-name="Trazado 725149" d="M230.346,193.153l1.721,5.606,4,5.783,3.282,3.414,1.23-5.006-.4-10.446-.063-2.25-.92-1.294-1.46,1.28-1.244.479-1.82.015L229.9,189.28Z" transform="translate(-229.898 -188.959)" fill="#407bff"/>
              <path id="Trazado_725150" data-name="Trazado 725150" d="M230.346,193.153l1.721,5.606,4,5.783,3.282,3.414,1.23-5.006-.4-10.446-.063-2.25-.92-1.294-1.46,1.28-1.244.479-1.82.015L229.9,189.28Z" transform="translate(-229.898 -188.959)" fill="#fff" opacity="0.8"/>
            </g>
            <path id="Trazado_725151" data-name="Trazado 725151" d="M236.8,193.779a7.655,7.655,0,0,0,1.862,2.38s-.8,5.715.431,9.717l2.851,3.355.834-4.149s-1.276-6.641-2.989-9.152a10.562,10.562,0,0,0,.948-2.735l-1.023-.839s-1.42,1.014-2.273.307Z" transform="translate(-229.825 -188.484)" fill="#407bff"/>
            <g id="Grupo_1027108" data-name="Grupo 1027108" transform="translate(2.431 0.49)">
              <path id="Trazado_725152" data-name="Trazado 725152" d="M230.093,187.457s2.638,2.249,5.289,2.249,2.945-2.766,2.945-2.766l1.118,1.208a7.981,7.981,0,0,1-.912,4.032l-2.766-1.866-1.874,2.7a11.261,11.261,0,0,1-4.369-3.943Z" transform="translate(-229.524 -186.939)" fill="#407bff"/>
              <path id="Trazado_725153" data-name="Trazado 725153" d="M230.093,187.457s2.638,2.249,5.289,2.249,2.945-2.766,2.945-2.766l1.118,1.208a7.981,7.981,0,0,1-.912,4.032l-2.766-1.866-1.874,2.7a11.261,11.261,0,0,1-4.369-3.943Z" transform="translate(-229.524 -186.939)" fill="#fff" opacity="0.5"/>
            </g>
            <g id="Grupo_1027109" data-name="Grupo 1027109">
              <path id="Trazado_725154" data-name="Trazado 725154" d="M229.11,186.645s-2.164,6.671,8.49,19.394c0,0,1.913-15.587-1.441-19.883l2.331.922,2.425,3.667-1.778,1.142,2.2.98s-.312,5.051-3.407,14.767a55.89,55.89,0,0,1-11.582-12.726l2.132-1.7-2.849-.45L226.9,187.7Z" transform="translate(-225.63 -186.155)" fill="#263238"/>
              <path id="Trazado_725155" data-name="Trazado 725155" d="M229.11,186.645s-2.164,6.671,8.49,19.394c0,0,1.913-15.587-1.441-19.883l2.331.922,2.425,3.667-1.778,1.142,2.2.98s-.312,5.051-3.407,14.767a55.89,55.89,0,0,1-11.582-12.726l2.132-1.7-2.849-.45L226.9,187.7Z" transform="translate(-225.63 -186.155)" opacity="0.3"/>
            </g>
          </g>
        </g>
      </g>
      <g id="Character_3" data-name="Character 3" transform="translate(199.711 123.794)">
        <g id="Grupo_1027136" data-name="Grupo 1027136">
          <g id="Grupo_1027118" data-name="Grupo 1027118" transform="translate(20.187)">
            <g id="Grupo_1027112" data-name="Grupo 1027112" transform="translate(1.618)">
              <path id="Trazado_725156" data-name="Trazado 725156" d="M326.2,152.588s-3.878-4.124-1.532-4.975,3.521-3.47,4.308-1.7.1,4.713.706,4.844-.394-5.782,1.219-5.444,1.781.927,4.184,1.451-2.9,4.541-2.31,5.085,4.386-3.907,4.648-1.943,2.357,2.946,1.44,3.8-5.692,1.087-5.692,1.087l-5.452-2.383Z" transform="translate(-323.909 -145.297)" fill="#407bff"/>
              <path id="Trazado_725157" data-name="Trazado 725157" d="M326.306,151.79c-.781.249-1.73-1.046-2.115-1.635a11.9,11.9,0,0,0,2.11,3.122l1.519-.182,5.452,2.383a33.5,33.5,0,0,0,3.722-.413c-1.717.168-3.216-.7-1.605-.9s1.506-.822,1.037-1.753-1.9,1.115-2.278.613,1.424-2.167,1.454-2.2c-1.134.824-2.405,2.006-2.726,1.71-.355-.328,1.426-1.915,2.375-3.241-.007.011-.013.016-.021.027-.842,1.184-2.581,2.239-3.083,1.828s.593-1.187,1.007-2.016-.46-1.134-1.5-1.545.041,3.013-.872,2.875-.652-3.318-.651-3.332c-.272,1.627.072,4.4-.345,4.311-.525-.114-.081-2.335-.463-4.077,0,.056.2,3.514-.854,3.784s-1.2-2.83-2.451-1.78S327.31,151.471,326.306,151.79Z" transform="translate(-324.015 -145.987)" opacity="0.1"/>
            </g>
            <path id="Trazado_725158" data-name="Trazado 725158" d="M333.758,182.519a.565.565,0,0,1-.769-.415c-.79-2.9.186-7.273.83-9.8l-7.141,5c.377,1.678.507,3.731-.465,5.154a1.663,1.663,0,0,1-1.288.694l-.711.067s-.187,3.194,4.012,3.194A5.99,5.99,0,0,0,333.758,182.519Z" transform="translate(-322.406 -155.442)" fill="#71403e"/>
            <path id="Trazado_725159" data-name="Trazado 725159" d="M328.449,181.465c4.9.906,6.353-5.7,6.353-5.7l-.1-.658-.855.517-5.535,3.216A9.041,9.041,0,0,1,328.449,181.465Z" transform="translate(-323.946 -156.493)" opacity="0.2"/>
            <path id="Trazado_725160" data-name="Trazado 725160" d="M333.7,163.294c-.96,4.015-1.321,6.416-3.736,8.119-3.633,2.567-8.318-.216-8.576-4.448-.234-3.81,1.377-9.734,5.634-10.623a5.69,5.69,0,0,1,6.678,6.951Z" transform="translate(-321.338 -149.4)" fill="#71403e"/>
            <path id="Trazado_725161" data-name="Trazado 725161" d="M325.863,165.811a11.844,11.844,0,0,1-2.075,2.536,1.94,1.94,0,0,0,1.526.588Z" transform="translate(-322.246 -153.002)" fill="#561616"/>
            <path id="Trazado_725162" data-name="Trazado 725162" d="M332.428,164.235a.175.175,0,0,0,.088,0,.181.181,0,0,0,.082-.242l0-.007a1.782,1.782,0,0,0-1.361-.978.181.181,0,0,0-.2.165v.006a.181.181,0,0,0,.165.2h.006a1.418,1.418,0,0,1,1.062.759A.172.172,0,0,0,332.428,164.235Z" transform="translate(-324.969 -151.948)" fill="#2e353a"/>
            <path id="Trazado_725163" data-name="Trazado 725163" d="M323.407,162.868a.175.175,0,0,0,.152-.079,1.538,1.538,0,0,1,1.174-.685.186.186,0,0,0,0-.367h0a1.89,1.89,0,0,0-1.468.842.181.181,0,0,0,.042.253l0,0A.162.162,0,0,0,323.407,162.868Z" transform="translate(-322.037 -151.471)" fill="#2e353a"/>
            <path id="Trazado_725164" data-name="Trazado 725164" d="M340.608,172.718A3.892,3.892,0,0,1,338,174.169c-1.367.145-1.834-1.136-1.274-2.308.506-1.062,1.827-2.4,3.116-2A1.765,1.765,0,0,1,340.608,172.718Z" transform="translate(-327.017 -154.494)" fill="#71403e"/>
            <g id="Grupo_1027113" data-name="Grupo 1027113" transform="translate(5.1 6.248)">
              <path id="Trazado_725165" data-name="Trazado 725165" d="M329.486,155.725a1.675,1.675,0,0,1,1.758-.247s.366-.529,1.789.247,4.344,2.534,4.39,3.595c0,0,.852,1.081-.031,1.8a19.815,19.815,0,0,1-4.359-2.155c-1.179-1-2.958-2.969-2.958-2.969Z" transform="translate(-329.486 -155.302)" fill="#407bff"/>
              <path id="Trazado_725166" data-name="Trazado 725166" d="M329.486,155.725a1.675,1.675,0,0,1,1.758-.247s.366-.529,1.789.247,4.344,2.534,4.39,3.595c0,0,.852,1.081-.031,1.8a19.815,19.815,0,0,1-4.359-2.155c-1.179-1-2.958-2.969-2.958-2.969Z" transform="translate(-329.486 -155.302)" opacity="0.2"/>
            </g>
            <path id="Trazado_725167" data-name="Trazado 725167" d="M334.043,165.095s-4.87-4.076-6.165-8.154c0,0-1.523-.791-4.282,2.843,0,0-.339-1.991.867-2.538a2.325,2.325,0,0,1,1.971-1.643,3.555,3.555,0,0,1,2.244.38l6.485,5.244a1.676,1.676,0,0,1,0,2.044S335.965,164.607,334.043,165.095Z" transform="translate(-322.158 -149.16)" fill="#407bff"/>
            <path id="Trazado_725168" data-name="Trazado 725168" d="M331.667,158.2s3.258,4.677,5.905,5.838C337.572,164.035,333.856,159.384,331.667,158.2Z" transform="translate(-325.205 -150.142)" opacity="0.1"/>
            <g id="Grupo_1027114" data-name="Grupo 1027114" transform="translate(0.633 16.306)">
              <path id="Trazado_725169" data-name="Trazado 725169" d="M324.752,171.847a3.226,3.226,0,0,1,3.142-.06,2.58,2.58,0,0,0,2.892-.159s-.4,1.466-1.71,1.344c0,0,0,4.313-1.091,3.065,0,0-.564,2.677-1.425,1.128,0,0-.307,2.1-1.243-.413,0,0-.582,1.439-1.037-1.255,0,0-.653,2.048-.962-2.2,0,0-.71.288-.984-.709a.975.975,0,0,0,1.16-.622C323.771,171.139,324.752,171.847,324.752,171.847Z" transform="translate(-322.333 -171.41)" fill="#263238"/>
              <path id="Trazado_725170" data-name="Trazado 725170" d="M324.752,171.847a3.226,3.226,0,0,1,3.142-.06,2.58,2.58,0,0,0,2.892-.159s-.4,1.466-1.71,1.344c0,0,0,4.313-1.091,3.065,0,0-.564,2.677-1.425,1.128,0,0-.307,2.1-1.243-.413,0,0-.582,1.439-1.037-1.255,0,0-.653,2.048-.962-2.2,0,0-.71.288-.984-.709a.975.975,0,0,0,1.16-.622C323.771,171.139,324.752,171.847,324.752,171.847Z" transform="translate(-322.333 -171.41)" fill="#fff" opacity="0.4"/>
            </g>
            <g id="Grupo_1027115" data-name="Grupo 1027115" transform="translate(2.217 17.858)">
              <path id="Trazado_725171" data-name="Trazado 725171" d="M324.869,174.051a25.118,25.118,0,0,1,4.3-.117,2.619,2.619,0,0,1-2.771,1.472C324.78,175.352,324.869,174.051,324.869,174.051Z" transform="translate(-324.869 -173.902)" fill="#263238"/>
              <path id="Trazado_725172" data-name="Trazado 725172" d="M327.513,175.251a3.238,3.238,0,0,0-1.79.366,1.816,1.816,0,0,0,1,.284,3.213,3.213,0,0,0,1.785-.365A1.8,1.8,0,0,0,327.513,175.251Z" transform="translate(-325.19 -174.4)" fill="#ff5652"/>
              <path id="Trazado_725173" data-name="Trazado 725173" d="M325.106,174.024a.6.6,0,0,0,.468.44,18.441,18.441,0,0,0,2.809-.139.922.922,0,0,0,.737-.4A29.3,29.3,0,0,0,325.106,174.024Z" transform="translate(-324.958 -173.896)" fill="#fff"/>
            </g>
            <g id="Grupo_1027117" data-name="Grupo 1027117" transform="translate(0 11.339)">
              <path id="Trazado_725174" data-name="Trazado 725174" d="M330.77,166.181c-.049.308-.259.533-.46.49s-.323-.3-.273-.607.259-.539.465-.49S330.824,165.872,330.77,166.181Z" transform="translate(-324.589 -164.249)" fill="#2e353a"/>
              <path id="Trazado_725175" data-name="Trazado 725175" d="M325.15,165.426c-.049.308-.254.534-.46.49s-.323-.3-.274-.612.259-.533.465-.489S325.2,165.113,325.15,165.426Z" transform="translate(-322.478 -163.964)" fill="#2e353a"/>
              <g id="Grupo_1027116" data-name="Grupo 1027116">
                <path id="Trazado_725176" data-name="Trazado 725176" d="M325.579,164.17a.691.691,0,0,0-.821-.145l-3.209-.568-.205,1.16a1.634,1.634,0,1,0,3.219.57l.1-.539h0a.406.406,0,0,1,.8.142h0l-.1.539a1.634,1.634,0,0,0,3.219.57l.205-1.16Zm-1.376.953a1.269,1.269,0,0,1-2.5-.443l.142-.8,2.5.443Zm4.02.712a1.269,1.269,0,1,1-2.5-.443l.142-.8,2.5.443Z" transform="translate(-321.319 -163.456)" fill="#407bff"/>
                <path id="Trazado_725177" data-name="Trazado 725177" d="M325.579,164.17a.691.691,0,0,0-.821-.145l-3.209-.568-.205,1.16a1.634,1.634,0,1,0,3.219.57l.1-.539h0a.406.406,0,0,1,.8.142h0l-.1.539a1.634,1.634,0,0,0,3.219.57l.205-1.16Zm-1.376.953a1.269,1.269,0,0,1-2.5-.443l.142-.8,2.5.443Zm4.02.712a1.269,1.269,0,1,1-2.5-.443l.142-.8,2.5.443Z" transform="translate(-321.319 -163.456)" fill="#fff" opacity="0.6"/>
              </g>
              <path id="Trazado_725178" data-name="Trazado 725178" d="M335.659,167.062l-2.618-1.492-.181.317,3.8,2.167C336.374,167.783,336.032,167.448,335.659,167.062Z" transform="translate(-325.653 -164.25)" fill="#407bff"/>
              <path id="Trazado_725179" data-name="Trazado 725179" d="M335.659,167.062l-2.618-1.492-.181.317,3.8,2.167C336.374,167.783,336.032,167.448,335.659,167.062Z" transform="translate(-325.653 -164.25)" fill="#fff" opacity="0.6"/>
            </g>
          </g>
          <g id="Grupo_1027120" data-name="Grupo 1027120" transform="translate(1.162 27.254)">
            <path id="Trazado_725180" data-name="Trazado 725180" d="M295.75,251.666l-1.577,3.377a19.749,19.749,0,0,0-1.958,1.64c-.432.507-1.42,1.623-1.365,2.287a3.552,3.552,0,0,0,1.861,2.192,4.745,4.745,0,0,0,3.607-1.075c.638-.771.406-3.98.406-3.98l1.75-3.381Z" transform="translate(-290.848 -212.501)" fill="#71403e"/>
            <g id="Grupo_1027119" data-name="Grupo 1027119" transform="translate(3.467 37.258)">
              <path id="Trazado_725181" data-name="Trazado 725181" d="M298.018,248.613l-1.617,3.893,3.443,1.648,1.946-3.865Z" transform="translate(-296.401 -248.613)" fill="#407bff"/>
              <path id="Trazado_725182" data-name="Trazado 725182" d="M298.018,248.613l-1.617,3.893,3.443,1.648,1.946-3.865Z" transform="translate(-296.401 -248.613)" fill="#fff" opacity="0.8"/>
            </g>
            <path id="Trazado_725183" data-name="Trazado 725183" d="M300.942,230.574a68.506,68.506,0,0,0,7.332-19.206c2.512-11.362,5.49-22.908,1.738-22.146-6.859,1.392-6.97,18.122-8.15,23.976s-5.013,15.462-5.013,15.462Z" transform="translate(-293.103 -189.035)" fill="#263238"/>
            <path id="Trazado_725184" data-name="Trazado 725184" d="M300.942,230.483a68.506,68.506,0,0,0,7.332-19.206c2.512-11.362,6.112-22.71,2.3-22.324-7.423.752-7.534,18.3-8.715,24.154s-5.013,15.462-5.013,15.462Z" transform="translate(-293.103 -188.944)" opacity="0.2"/>
          </g>
          <g id="Grupo_1027125" data-name="Grupo 1027125" transform="translate(0 72.153)">
            <g id="Grupo_1027122" data-name="Grupo 1027122">
              <path id="Trazado_725185" data-name="Trazado 725185" d="M302.853,390.622l-.345,8.744h3.884l1.615-8.434Z" transform="translate(-294.066 -309.591)" fill="#71403e"/>
              <path id="Trazado_725186" data-name="Trazado 725186" d="M297.243,403.856l4.768-.006a.371.371,0,0,1,.376.353l.991,4.584a.867.867,0,0,1-.69.871.792.792,0,0,1-.157.016c-1.969-.068-3.707-.207-6.166-.245-2.9-.049-2.22.312-5.638.3-2.059-.008-2.064-2.355-1.175-2.456,4.067-.435,4.673-1.635,6.438-3.04A1.985,1.985,0,0,1,297.243,403.856Z" transform="translate(-288.988 -314.559)" fill="#263238"/>
              <path id="Trazado_725187" data-name="Trazado 725187" d="M305.045,261.25l-3.532,86.736,5.757.283s4.936-19.819,5.569-32.354c.044-.865.066-1.693.064-2.475a60.935,60.935,0,0,1,.89-10.884s.167-.937.224-1.249l3.147-17.582s5.369-9.547,1.67-22.875Z" transform="translate(-293.692 -260.85)" fill="#407bff"/>
              <path id="Trazado_725188" data-name="Trazado 725188" d="M322.864,299.753c-2.243-9.589-1.685-20.965-1.685-20.965l2.863,1.132,2.09,5.293s.009.424.019,1.13a22.315,22.315,0,0,1-1.623,4.119Z" transform="translate(-301.056 -267.587)" opacity="0.2"/>
              <g id="Grupo_1027121" data-name="Grupo 1027121" transform="translate(7.53 85.837)">
                <path id="Trazado_725189" data-name="Trazado 725189" d="M301.107,398.319l-.058,2.031,6.106.365.55-2Z" transform="translate(-301.048 -398.319)" fill="#407bff"/>
                <path id="Trazado_725190" data-name="Trazado 725190" d="M301.107,398.319l-.058,2.031,6.106.365.55-2Z" transform="translate(-301.048 -398.319)" fill="#fff" opacity="0.4"/>
              </g>
            </g>
            <g id="Grupo_1027124" data-name="Grupo 1027124" transform="translate(17.664)">
              <path id="Trazado_725191" data-name="Trazado 725191" d="M342.168,390.622l1.276,8.744h3.884l-.017-8.434Z" transform="translate(-326.626 -309.591)" fill="#71403e"/>
              <path id="Trazado_725192" data-name="Trazado 725192" d="M338.633,403.856l4.769-.006a.356.356,0,0,1,.363.353l.831,4.584a.906.906,0,0,1-.721.871.807.807,0,0,1-.158.016c-1.966-.068-3.7-.207-6.157-.245-2.9-.049-2.231.312-5.649.3-2.059-.008-1.982-2.355-1.089-2.456,4.083-.435,4.73-1.635,6.544-3.04A2.041,2.041,0,0,1,338.633,403.856Z" transform="translate(-322.141 -314.559)" fill="#263238"/>
              <path id="Trazado_725193" data-name="Trazado 725193" d="M317.278,261.25s4.7,21.434,6.041,28.623c2.709,14.474,9.5,58.129,9.5,58.129l5.727-.25s1.313-18.109-.41-30.785c-.136-1-.29-1.961-.466-2.87a64.27,64.27,0,0,1-1.23-12.836s.012-.93.013-1.241c.014-4.074-.044-12.226.173-16.294.305-5.735,1.189-12.367-2.106-22.875Z" transform="translate(-317.278 -260.85)" fill="#407bff"/>
              <g id="Grupo_1027123" data-name="Grupo 1027123" transform="translate(15.066 85.848)">
                <path id="Trazado_725194" data-name="Trazado 725194" d="M341.407,398.725l.321,2.02,6.082-.365.112-2.044Z" transform="translate(-341.407 -398.336)" fill="#407bff"/>
                <path id="Trazado_725195" data-name="Trazado 725195" d="M341.407,398.725l.321,2.02,6.082-.365.112-2.044Z" transform="translate(-341.407 -398.336)" fill="#fff" opacity="0.4"/>
              </g>
            </g>
          </g>
          <g id="Grupo_1027126" data-name="Grupo 1027126" transform="translate(12.019 26.832)">
            <path id="Trazado_725196" data-name="Trazado 725196" d="M308.237,233.163a6.664,6.664,0,0,0,8.042.9s2.616,1.964,10.345.019l4.059-44.5V188.8h-3.028l-5.391,1.112-2.8-1.294-1.753-.349-6.006,8.56-3.238,30.142Z" transform="translate(-308.237 -188.268)" fill="#407bff"/>
            <path id="Trazado_725197" data-name="Trazado 725197" d="M308.237,233.163a6.664,6.664,0,0,0,8.042.9s2.616,1.964,10.345.019l4.059-44.5V188.8h-3.028l-5.391,1.112-2.8-1.294-1.753-.349-6.006,8.56-3.238,30.142Z" transform="translate(-308.237 -188.268)" fill="#fff" opacity="0.8"/>
            <path id="Trazado_725198" data-name="Trazado 725198" d="M324.194,192.3l.4,1.725.462,1.438s-5.495,10.878-5.849,31.844l1.628,1.662,2.963-1.84s-.219-11.991,2.54-31.434l.747-.857,1.2-1.729-.344-1a1.863,1.863,0,0,1-2.672-.3Z" transform="translate(-312.358 -189.594)" fill="#407bff"/>
            <path id="Trazado_725199" data-name="Trazado 725199" d="M322.809,215.71c-.029.129-.057.264-.085.4l3.5.435c.013-.134.027-.267.04-.4Z" transform="translate(-313.678 -198.575)" fill="#fff" opacity="0.8"/>
          </g>
          <path id="Trazado_725200" data-name="Trazado 725200" d="M303.543,243.605s7.431,7.236,6.709-16.471c-.954-31.341,6.975-39.4,6.975-39.4s-13.846-2.315-12.44,30.416C305.07,224.716,305.807,233.775,303.543,243.605Z" transform="translate(-294.455 -161.222)" fill="#263238"/>
          <path id="Trazado_725201" data-name="Trazado 725201" d="M338.441,187.4s-4.293,12.336-3.725,32.433c.47,16.672-.671,24.8,11.288,23.758a80.043,80.043,0,0,1-1.84-22.052C344.779,208.785,354.509,185.892,338.441,187.4Z" transform="translate(-306.144 -161.085)" fill="#263238"/>
          <path id="Trazado_725202" data-name="Trazado 725202" d="M345.55,193.495a1.8,1.8,0,0,0-2.9.288c-1.447,2.2-3.8,5.04-5.416,17.77l-2.362.132c-.047,1.859-.128,7.967-.11,8.837a51.757,51.757,0,0,0,5.489-.969C344.7,218.275,348.965,198.11,345.55,193.495Z" transform="translate(-306.181 -163.17)" opacity="0.2"/>
          <g id="Grupo_1027129" data-name="Grupo 1027129" transform="translate(9.617 67.181)">
            <g id="Grupo_1027127" data-name="Grupo 1027127">
              <path id="Trazado_725203" data-name="Trazado 725203" d="M305.018,253.939h3.251s.443,2.154-3.879,1.906Z" transform="translate(-304.39 -253.283)" fill="#263238"/>
              <path id="Trazado_725204" data-name="Trazado 725204" d="M337.685,253.544l5.482-.656s.884,1.873-2.311,2.16S337.685,253.544,337.685,253.544Z" transform="translate(-316.895 -252.888)" fill="#263238"/>
            </g>
            <g id="Grupo_1027128" data-name="Grupo 1027128" opacity="0.1">
              <path id="Trazado_725205" data-name="Trazado 725205" d="M305.018,253.939h3.251s.443,2.154-3.879,1.906Z" transform="translate(-304.39 -253.283)" fill="#fff"/>
              <path id="Trazado_725206" data-name="Trazado 725206" d="M337.685,253.544l5.482-.656s.884,1.873-2.311,2.16S337.685,253.544,337.685,253.544Z" transform="translate(-316.895 -252.888)" fill="#fff"/>
            </g>
          </g>
          <path id="Trazado_725207" data-name="Trazado 725207" d="M324.927,187.591l.879-.243,2.366,1.589,5.549-1.618.731.081.464,1.537-5.157,3.571-1.587-2.308-2.366,1.469L324.041,188Z" transform="translate(-302.154 -161.079)" fill="#407bff"/>
          <path id="Trazado_725208" data-name="Trazado 725208" d="M324.927,187.591l.879-.243,2.366,1.589,5.549-1.618.731.081.464,1.537-5.157,3.571-1.587-2.308-2.366,1.469L324.041,188Z" transform="translate(-302.154 -161.079)" fill="#fff" opacity="0.5"/>
          <g id="Grupo_1027130" data-name="Grupo 1027130" transform="translate(28.586 26.25)">
            <path id="Trazado_725209" data-name="Trazado 725209" d="M338.48,187.406s-3.216,9.254-3.711,24.782c2.4-10.982,5.879-15.888,5.879-15.888l-2.463-1.521,2.463-1.765a13.867,13.867,0,0,1-.688-5.677C339.493,187.336,339,187.357,338.48,187.406Z" transform="translate(-334.769 -187.337)" fill="#263238"/>
            <path id="Trazado_725210" data-name="Trazado 725210" d="M338.48,187.406s-3.216,9.254-3.711,24.782c2.4-10.982,5.879-15.888,5.879-15.888l-2.463-1.521,2.463-1.765a13.867,13.867,0,0,1-.688-5.677C339.493,187.336,339,187.357,338.48,187.406Z" transform="translate(-334.769 -187.337)" fill="#fff" opacity="0.1"/>
          </g>
          <g id="Grupo_1027132" data-name="Grupo 1027132" transform="translate(5.885 28.015)">
            <path id="Trazado_725211" data-name="Trazado 725211" d="M307.814,229.021l-3.558.18a18.922,18.922,0,0,0-2.262-.919c-.621-.138-2.007-.472-2.543-.128a3.392,3.392,0,0,0-1.018,2.553,4.532,4.532,0,0,0,2.522,2.564c.937.194,3.544-1.439,3.544-1.439l3.638-.036Z" transform="translate(-298.414 -204.376)" fill="#71403e"/>
            <g id="Grupo_1027131" data-name="Grupo 1027131" transform="translate(7.916 23.603)">
              <path id="Trazado_725212" data-name="Trazado 725212" d="M315.563,227.963l-4.471.521.637,3.68h4.2Z" transform="translate(-311.092 -227.963)" fill="#407bff"/>
              <path id="Trazado_725213" data-name="Trazado 725213" d="M315.563,227.963l-4.471.521.637,3.68h4.2Z" transform="translate(-311.092 -227.963)" fill="#fff" opacity="0.8"/>
            </g>
            <path id="Trazado_725214" data-name="Trazado 725214" d="M335.521,191.025c-1.387,2.106-3.646,8.344-5.193,20.549l-15.677,1.915.282,4.942s12.621.309,17.486-1.091c4.257-1.226,9.153-22.166,5.878-26.591A1.723,1.723,0,0,0,335.521,191.025Z" transform="translate(-304.512 -190.163)" fill="#263238"/>
          </g>
          <g id="Grupo_1027134" data-name="Grupo 1027134" transform="translate(11.214 38.026)">
            <g id="Grupo_1027133" data-name="Grupo 1027133">
              <rect id="Rectángulo_349215" data-name="Rectángulo 349215" width="4.591" height="2.774" fill="#407bff"/>
              <rect id="Rectángulo_349216" data-name="Rectángulo 349216" width="4.591" height="1.87" transform="translate(0 0.904)" fill="#fff" opacity="0.4"/>
              <rect id="Rectángulo_349217" data-name="Rectángulo 349217" width="4.591" height="1.013" transform="translate(0 1.761)" fill="#263238" opacity="0.4"/>
            </g>
            <path id="Trazado_725215" data-name="Trazado 725215" d="M310.772,208.191a.374.374,0,1,1-.374-.373A.374.374,0,0,1,310.772,208.191Z" transform="translate(-308.103 -206.805)" fill="#fff" opacity="0.4"/>
          </g>
          <g id="Grupo_1027135" data-name="Grupo 1027135" transform="translate(14.996 26.475)">
            <path id="Trazado_725216" data-name="Trazado 725216" d="M319.168,187.766a11.944,11.944,0,0,0-4.043,4.245l.79,1.991-2.814.974a80.38,80.38,0,0,0,.983,17.04c1.436-18.928,6.7-24.282,6.7-24.282A6.13,6.13,0,0,0,319.168,187.766Z" transform="translate(-313.004 -187.697)" fill="#263238"/>
            <path id="Trazado_725217" data-name="Trazado 725217" d="M319.168,187.766a11.944,11.944,0,0,0-4.043,4.245l.79,1.991-2.814.974a80.38,80.38,0,0,0,.983,17.04c1.436-18.928,6.7-24.282,6.7-24.282A6.13,6.13,0,0,0,319.168,187.766Z" transform="translate(-313.004 -187.697)" fill="#fff" opacity="0.1"/>
          </g>
        </g>
      </g>
      <g id="Character_1" data-name="Character 1" transform="translate(107.995 138.382)">
        <g id="Grupo_1027143" data-name="Grupo 1027143">
          <path id="Trazado_725218" data-name="Trazado 725218" d="M160.946,200.564a10.515,10.515,0,0,1,5.666.343s1.085,2.631-1.259,2.747-4.435-2.258-4.435-2.258Z" transform="translate(-149.17 -180.557)" fill="#407bff"/>
          <g id="Grupo_1027138" data-name="Grupo 1027138" transform="translate(5.785)">
            <path id="Trazado_725219" data-name="Trazado 725219" d="M154.32,172.875s6.462-7.433,11.448-2.558c0,0,3.878,3.57,3.093,7.261s-4.478,2.25-1.962,8.843c0,0-1.666,3.313-9.464.781l-2.03-3.254,1.07,3.254s-4.711-.553-4.673-5.247S149.784,172.823,154.32,172.875Z" transform="translate(-151.369 -168.66)" fill="#263238"/>
            <path id="Trazado_725220" data-name="Trazado 725220" d="M160.069,199.521s1.5-.057,1.486-1.909a37.963,37.963,0,0,0-.32-4.1l4.45.394s-.6,5.467,1.441,5.746C167.125,199.648,165.347,202.373,160.069,199.521Z" transform="translate(-154.636 -177.992)" fill="#ffb573"/>
            <path id="Trazado_725221" data-name="Trazado 725221" d="M166.387,193.9l-4.45-.394s.112.824.2,1.883A6.535,6.535,0,0,0,166.5,197.8,15.046,15.046,0,0,1,166.387,193.9Z" transform="translate(-155.338 -177.992)" opacity="0.1"/>
            <path id="Trazado_725222" data-name="Trazado 725222" d="M157.33,180.114c.593,3.987.756,5.687,2.956,7.568,3.311,2.833,8.077,1.236,8.691-2.847.552-3.675-.506-9.574-4.564-10.832a5.5,5.5,0,0,0-7.083,6.11Z" transform="translate(-153.582 -170.571)" fill="#ffb573"/>
            <path id="Trazado_725223" data-name="Trazado 725223" d="M156.217,188.016a2.938,2.938,0,0,0,1.565,1.617c.951.4,1.558-.415,1.4-1.382-.138-.867-.8-2.126-1.809-2.12a1.33,1.33,0,0,0-1.16,1.886Z" transform="translate(-153.144 -175.221)" fill="#ffb573"/>
            <path id="Trazado_725224" data-name="Trazado 725224" d="M171.668,185.422a8.738,8.738,0,0,0,1.342,1.984,1.4,1.4,0,0,1-1.142.322Z" transform="translate(-158.993 -174.955)" fill="#ed893e"/>
            <path id="Trazado_725225" data-name="Trazado 725225" d="M164.561,181.893a.183.183,0,0,1-.077-.031.159.159,0,0,1-.031-.224l0,0a1.866,1.866,0,0,1,1.539-.774.164.164,0,0,1,.146.172.16.16,0,0,1-.168.147,1.565,1.565,0,0,0-1.267.652A.16.16,0,0,1,164.561,181.893Z" transform="translate(-156.271 -173.243)" fill="#263238"/>
            <path id="Trazado_725226" data-name="Trazado 725226" d="M174.713,181.247a.175.175,0,0,1-.077-.031,1.56,1.56,0,0,0-1.4-.245.16.16,0,0,1-.208-.088v0a.164.164,0,0,1,.094-.209,1.886,1.886,0,0,1,1.7.283.16.16,0,0,1-.112.291Z" transform="translate(-159.501 -173.138)" fill="#263238"/>
            <g id="Grupo_1027137" data-name="Grupo 1027137" transform="translate(10.322 8.919)">
              <path id="Trazado_725227" data-name="Trazado 725227" d="M167.9,184.5c.027.324.224.573.44.556s.362-.295.331-.624-.223-.573-.435-.556S167.876,184.172,167.9,184.5Z" transform="translate(-167.899 -183.293)" fill="#263238"/>
              <path id="Trazado_725228" data-name="Trazado 725228" d="M173.811,183.993c.027.324.223.573.435.556s.362-.3.336-.624-.224-.573-.435-.556S173.779,183.664,173.811,183.993Z" transform="translate(-170.118 -183.102)" fill="#263238"/>
              <path id="Trazado_725229" data-name="Trazado 725229" d="M174.2,183.235l.764-.292S174.615,183.588,174.2,183.235Z" transform="translate(-170.267 -182.943)" fill="#263238"/>
              <path id="Trazado_725230" data-name="Trazado 725230" d="M168.294,183.743l.764-.292S168.707,184.1,168.294,183.743Z" transform="translate(-168.048 -183.134)" fill="#263238"/>
            </g>
            <path id="Trazado_725231" data-name="Trazado 725231" d="M169.57,191.605a3.081,3.081,0,0,0,.562-.049.1.1,0,0,0,.081-.112v0a.1.1,0,0,0-.112-.081,2.679,2.679,0,0,1-2.317-.648.1.1,0,1,0-.147.134A2.773,2.773,0,0,0,169.57,191.605Z" transform="translate(-157.469 -176.93)" fill="#263238"/>
            <path id="Trazado_725232" data-name="Trazado 725232" d="M159.545,173.8s2.9,1.246,2.433,4.156a7.786,7.786,0,0,1,5.981-.8,5.544,5.544,0,0,0-1.861-2.829s3.5,2.612,4.017,4.308-.119-5.869-4.966-6.08A5.082,5.082,0,0,0,159.545,173.8Z" transform="translate(-154.44 -169.986)" fill="#263238"/>
            <path id="Trazado_725233" data-name="Trazado 725233" d="M160.372,175.176a6.848,6.848,0,0,1-.18,3.913c-.7,2.576-1.52,3.142,0,5.692s-.247,2.987-.247,2.987.788-.9-1.17-3.09a5.611,5.611,0,0,1-1.55-4.432s-.971-1.971.983-4.815S160.372,175.176,160.372,175.176Z" transform="translate(-153.478 -170.702)" fill="#263238"/>
            <path id="Trazado_725234" data-name="Trazado 725234" d="M158.434,191.739a3.91,3.91,0,0,1,2.214,3.616l-1.433-1.463-1.383-1.275Z" transform="translate(-153.796 -177.328)" fill="#263238"/>
          </g>
          <path id="Trazado_725235" data-name="Trazado 725235" d="M182.536,297.327c-.057,15.518-3.1,62.2-3.1,62.2h-4.423s-3.58-40.112-.307-53.181l-5.5-25.229,12.7,1.633S182.549,293.666,182.536,297.327Z" transform="translate(-152.286 -210.895)" fill="#ffb573"/>
          <path id="Trazado_725236" data-name="Trazado 725236" d="M181.24,404.806l-4.286,0a.435.435,0,0,0-.405.317l-1.761,4.121a.614.614,0,0,0,.455.784.643.643,0,0,0,.139.014c1.783-.061,3.372-.185,5.59-.22,2.618-.044,1.936.28,5.012.271,1.853-.007,2.3-2.117,1.523-2.208-3.575-.391-3.891-1.47-5.211-2.732A1.5,1.5,0,0,0,181.24,404.806Z" transform="translate(-154.37 -257.352)" fill="#263238"/>
          <path id="Trazado_725237" data-name="Trazado 725237" d="M184.582,330.3h-8.268a140.387,140.387,0,0,0-.5,14.042,33.272,33.272,0,0,0,8.168-1.492C184.2,338.539,184.411,334.261,184.582,330.3Z" transform="translate(-154.762 -229.371)" opacity="0.1"/>
          <g id="Grupo_1027139" data-name="Grupo 1027139" transform="translate(0 69.972)">
            <path id="Trazado_725238" data-name="Trazado 725238" d="M157.27,298.29l-7.716,61.265h-4.327s-.822-40.774,3.123-53.454l.366-25.38L159.6,282.6Z" transform="translate(-143.25 -280.721)" fill="#ffb573"/>
            <path id="Trazado_725239" data-name="Trazado 725239" d="M148.261,404.806l-4.286,0a.4.4,0,0,0-.383.317l-1.474,4.121a.66.66,0,0,0,.649.8c1.779-.061,3.359-.185,5.575-.22,2.614-.044,1.956.28,5.031.271,1.852-.007,2.155-2.117,1.368-2.208-3.6-.391-3.993-1.47-5.4-2.732A1.591,1.591,0,0,0,148.261,404.806Z" transform="translate(-142.104 -327.324)" fill="#263238"/>
            <path id="Trazado_725240" data-name="Trazado 725240" d="M148.194,325.06a110.8,110.8,0,0,0-1.856,15.475,28.249,28.249,0,0,0,8,1.221l1.886-14.977Z" transform="translate(-143.694 -297.374)" opacity="0.1"/>
          </g>
          <path id="Trazado_725241" data-name="Trazado 725241" d="M194.435,260.8a14.182,14.182,0,0,0,1.137,3.035l2.091,1.964.315,2.692-3.587.766-1.489-2.522-.147-2.077a25.519,25.519,0,0,1-1.245-2.852Z" transform="translate(-160.66 -203.266)" fill="#ffb573"/>
          <path id="Trazado_725242" data-name="Trazado 725242" d="M187.173,242.3c-1.312-2.808-3.19-10.443-4.212-17.08-1.678-10.9-3.612-18.952-1.291-18.147a29.817,29.817,0,0,1,4.553,11.364c1.063,5.741,2.525,16.977,4.424,22.406Z" transform="translate(-156.563 -183.068)" fill="#407bff"/>
          <path id="Trazado_725243" data-name="Trazado 725243" d="M187.173,242.3c-1.312-2.808-3.19-10.443-4.212-17.08-1.678-10.9-3.612-18.952-1.291-18.147a29.817,29.817,0,0,1,4.553,11.364c1.063,5.741,2.525,16.977,4.424,22.406Z" transform="translate(-156.563 -183.068)" opacity="0.1"/>
          <path id="Trazado_725244" data-name="Trazado 725244" d="M181.31,214.742c.46,3.131,1.211,7.211,1.918,11.8.285,1.854.639,3.785,1.027,5.667a69.586,69.586,0,0,1,1.126-7.842c1.259-6.353-2.741-13.832-2.741-13.832h-.578l-.686,1.356Z" transform="translate(-156.829 -184.388)" opacity="0.1"/>
          <path id="Trazado_725245" data-name="Trazado 725245" d="M158.925,202.432l1.244-.4,3.246,2.258h1.19l1-.444,1.16-1.159,1.158.473.83,3.189v.973l.352,1.173,1.022,3.949.773,5.094v3.834l-.286,4.121-1.087-2.146-3.062-5.723-2.547-7.211-.744-2.518-1.946-2.044-1.517-2.591Z" transform="translate(-148.422 -181.195)" fill="#407bff"/>
          <path id="Trazado_725246" data-name="Trazado 725246" d="M158.925,202.432l1.244-.4,3.246,2.258h1.19l1-.444,1.16-1.159,1.158.473.83,3.189v.973l.352,1.173,1.022,3.949.773,5.094v3.834l-.286,4.121-1.087-2.146-3.062-5.723-2.547-7.211-.744-2.518-1.946-2.044-1.517-2.591Z" transform="translate(-148.422 -181.195)" fill="#fff" opacity="0.8"/>
          <path id="Trazado_725247" data-name="Trazado 725247" d="M148.172,266.375s-1.856,5.582-2.55,21.274-2.2,27.989-2.2,27.989,18.56,4.807,29.751,0c0,0,2.242-27.788-1.805-49.263l-8.084-2.85Z" transform="translate(-142.598 -204.29)" fill="#263238"/>
          <path id="Trazado_725248" data-name="Trazado 725248" d="M149.631,205.608l3.881,27.271s-2.4,4.121-4.464,12.619c0,0,11.959,3.974,15.452,2.232,1.118-.557,2.4-4.378,2.4-4.378s2.011,4.046,3.348,4.378c1.1.274,4.12-1.889,4.12-1.889s-1.242-7.174-2.982-13.416l.84-11.992s1.715-3.394-1.505-12.471l-.905-2.758a1.489,1.489,0,0,0-.716-.854,22.67,22.67,0,0,0-5.763-2.032s4.378,12.23,3.348,22.449c0,0-4.292-16.955-11.15-22.732a12.826,12.826,0,0,0-4.9,1.523A2.037,2.037,0,0,0,149.631,205.608Z" transform="translate(-144.712 -181.195)" fill="#407bff"/>
          <path id="Trazado_725249" data-name="Trazado 725249" d="M166.35,206.091a2.584,2.584,0,0,1,2.989-.687,10.576,10.576,0,0,1,.215,2.8s1.9,2.657,4.134,12.7v1.948l-.286,3.835-1.087-2.146-1.088-3.637s-1.517-9.326-2.89-12.3Z" transform="translate(-151.21 -182.392)" fill="#263238"/>
          <g id="Grupo_1027140" data-name="Grupo 1027140" transform="translate(9.986 20.007)">
            <path id="Trazado_725250" data-name="Trazado 725250" d="M159.444,201.533l.948-.832s2.575,2.82,4.292,2.726,1.374-2.383,1.374-2.383l1.187.772.529.486-.127,3.05s-1.5-1.761-2.39-1.5-1.648,2.146-1.648,2.146A13.811,13.811,0,0,1,159.444,201.533Z" transform="translate(-158.602 -200.701)" fill="#407bff"/>
            <path id="Trazado_725251" data-name="Trazado 725251" d="M159.444,201.533l.948-.832s2.575,2.82,4.292,2.726,1.374-2.383,1.374-2.383l1.187.772.529.486-.127,3.05s-1.5-1.761-2.39-1.5-1.648,2.146-1.648,2.146A13.811,13.811,0,0,1,159.444,201.533Z" transform="translate(-158.602 -200.701)" fill="#fff" opacity="0.5"/>
            <path id="Trazado_725252" data-name="Trazado 725252" d="M170.388,226.04s.887-5.322.715-17.055l-2.309-1.259,1.451-.4a39.745,39.745,0,0,0-2.508-4.772c-.322-.082-.652-.163-1-.236,0,0,4.378,12.23,3.348,22.449,0,0-4.292-16.955-11.15-22.732,0,0-.324.023-.842.112a9.426,9.426,0,0,1,2.6,6.324h1.843l-1.5,1.374Z" transform="translate(-158.096 -201.202)" fill="#407bff"/>
            <path id="Trazado_725253" data-name="Trazado 725253" d="M170.388,226.04s.887-5.322.715-17.055l-2.309-1.259,1.451-.4a39.745,39.745,0,0,0-2.508-4.772c-.322-.082-.652-.163-1-.236,0,0,4.378,12.23,3.348,22.449,0,0-4.292-16.955-11.15-22.732,0,0-.324.023-.842.112a9.426,9.426,0,0,1,2.6,6.324h1.843l-1.5,1.374Z" transform="translate(-158.096 -201.202)" opacity="0.2"/>
          </g>
          <path id="Trazado_725254" data-name="Trazado 725254" d="M151.273,216.291a61.527,61.527,0,0,0,1.905-9.151l-2.353-1.031-.838.379a1.991,1.991,0,0,0-.016.651Z" transform="translate(-145.051 -182.725)" opacity="0.2"/>
          <g id="Grupo_1027141" data-name="Grupo 1027141" transform="translate(9.517 30.664)">
            <rect id="Rectángulo_349218" data-name="Rectángulo 349218" width="4.317" height="2.608" transform="translate(0 0.697) rotate(-9.294)" fill="#407bff"/>
            <rect id="Rectángulo_349219" data-name="Rectángulo 349219" width="4.317" height="2.608" transform="translate(0 0.697) rotate(-9.294)" fill="#fff" opacity="0.7"/>
            <path id="Trazado_725255" data-name="Trazado 725255" d="M161.329,219.922a.612.612,0,1,1-.7-.5A.611.611,0,0,1,161.329,219.922Z" transform="translate(-158.385 -218.385)" fill="#407bff"/>
          </g>
          <path id="Trazado_725256" data-name="Trazado 725256" d="M168.142,245.862c.451-.52,0-3.338,0-3.338l-13.073.613.456,3.209a24.736,24.736,0,0,0,7.455-.485S167.691,246.382,168.142,245.862Z" transform="translate(-146.973 -196.402)" opacity="0.2"/>
          <g id="Grupo_1027142" data-name="Grupo 1027142" transform="translate(0.126 22.172)">
            <path id="Trazado_725257" data-name="Trazado 725257" d="M164.184,244a26.619,26.619,0,0,0,3.512-.442l2.223.24h3.306v-3.966l-3.426-.729-2.509,1.329a20.072,20.072,0,0,1-3.065.253Z" transform="translate(-150.523 -217.29)" fill="#ffb573"/>
            <path id="Trazado_725258" data-name="Trazado 725258" d="M156.328,231.166c-5.121.328-14.033-.44-14.022-9.754.006-4.8,1.728-17.75,6.776-17.229s-2.224,5.746-2.224,16.566c0,6.2,5.788,6.417,9.51,6.382Z" transform="translate(-142.306 -204.168)" fill="#407bff"/>
            <path id="Trazado_725259" data-name="Trazado 725259" d="M156.328,231.166c-5.121.328-14.033-.44-14.022-9.754.006-4.8,1.728-17.75,6.776-17.229s-2.224,5.746-2.224,16.566c0,6.2,5.788,6.417,9.51,6.382Z" transform="translate(-142.306 -204.168)" opacity="0.1"/>
          </g>
        </g>
      </g>
    </g>
  </g>
</svg>
