<svg xmlns="http://www.w3.org/2000/svg" width="265" height="196.319" viewBox="0 0 265 196.319">
  <g id="Grupo_1026819" data-name="Grupo 1026819" transform="translate(-390 -4351.3)">
    <g id="Grupo_1026818" data-name="Grupo 1026818" transform="translate(-575 789.652)">
      <path id="Trazado_717261" data-name="Trazado 717261" d="M256.045,6.946c17.063-1.074,33.043,10.991,40.907,26.4s8.9,33.5,7.566,50.8c-1.55,20.065-6.345,40.492-18.157,56.663-10.291,14.089-25.385,24.1-41.614,30.118s-33.608,8.274-50.873,8.872a166.69,166.69,0,0,1-31.625-1.521c-21.419-3.372-41.515-12.526-60.782-22.6-10.065-5.265-20.115-10.9-28.347-18.793a96.232,96.232,0,0,1-13.794-17.23c-11.581-17.819-19.837-38.59-19.291-59.935S51.148,16.6,69.69,6.522c21.6-11.73,48.245-5.764,71.087,3.216,19.757,7.77,41.525,20.277,63.269,20.272,8.746,0,15.636-6.734,22.927-11.3,8.925-5.58,18.367-11.1,29.077-11.768Z" transform="translate(924.992 3578.02)" fill="#f5f9fd"/>
    </g>
    <g id="Grupo_1026817" data-name="Grupo 1026817" transform="translate(358.146 4241.177)">
      <g id="Shadow" transform="translate(56.111 284.956)">
        <ellipse id="_Path_" data-name="&lt;Path&gt;" cx="114.991" cy="6.716" rx="114.991" ry="6.716" fill="#f5f5f5"/>
      </g>
      <g id="Arrow_1" data-name="Arrow 1" transform="translate(60.738 184.232)">
        <g id="Grupo_1026794" data-name="Grupo 1026794" transform="translate(0 0)">
          <g id="Grupo_1026793" data-name="Grupo 1026793" transform="translate(13.943)">
            <path id="Trazado_724442" data-name="Trazado 724442" d="M181.157,235.1l1,1.235L87.422,311.791l4.035,5,.554.686,94.733-75.458,1,1.235,1.775-8.168Z" transform="translate(-87.422 -235.081)" fill="#407bff"/>
            <path id="Trazado_724443" data-name="Trazado 724443" d="M181.157,235.1l1,1.235L87.422,311.791l4.035,5,.554.686,94.733-75.458,1,1.235,1.775-8.168Z" transform="translate(-87.422 -235.081)" fill="#fff" opacity="0.7"/>
          </g>
          <path id="Trazado_724444" data-name="Trazado 724444" d="M63.913,364.259a3.117,3.117,0,0,1,4.014-2.987,6.7,6.7,0,0,1-.07-.957,6.6,6.6,0,0,1,7.821-6.491,5.772,5.772,0,0,1,10.7,2.918c.033,0,.064,0,.1,0a5.32,5.32,0,1,1,0,10.64H66.94l0,0A3.117,3.117,0,0,1,63.913,364.259Z" transform="translate(-63.913 -282.272)" fill="#407bff"/>
          <path id="Trazado_724445" data-name="Trazado 724445" d="M63.913,364.259a3.117,3.117,0,0,1,4.014-2.987,6.7,6.7,0,0,1-.07-.957,6.6,6.6,0,0,1,7.821-6.491,5.772,5.772,0,0,1,10.7,2.918c.033,0,.064,0,.1,0a5.32,5.32,0,1,1,0,10.64H66.94l0,0A3.117,3.117,0,0,1,63.913,364.259Z" transform="translate(-63.913 -282.272)" fill="#fff" opacity="0.8"/>
        </g>
      </g>
      <g id="Arrow_3" data-name="Arrow 3" transform="translate(206.043 232.012)">
        <g id="Grupo_1026796" data-name="Grupo 1026796">
          <g id="Grupo_1026795" data-name="Grupo 1026795" transform="translate(11.612)">
            <path id="Trazado_724446" data-name="Trazado 724446" d="M370.161,315.683l2.366,2.929-44.034,35.57,9.567,11.844,1.313,1.626,44.034-35.57,2.366,2.929,4.208-19.368Z" transform="translate(-328.494 -315.644)" fill="#407bff"/>
            <path id="Trazado_724447" data-name="Trazado 724447" d="M370.161,315.683l2.366,2.929-44.034,35.57,9.567,11.844,1.313,1.626,44.034-35.57,2.366,2.929,4.208-19.368Z" transform="translate(-328.494 -315.644)" fill="#fff" opacity="0.5"/>
          </g>
          <path id="Trazado_724448" data-name="Trazado 724448" d="M338.388,375.223a10.029,10.029,0,0,0-17.113.143,5.37,5.37,0,0,0-6.834,5.181v.007H311.6a2.688,2.688,0,0,0,0,5.377h9.8a10.032,10.032,0,0,0,15.653,1.645c.17.014.34.026.513.026a6.216,6.216,0,0,0,.823-12.378Z" transform="translate(-308.915 -337.964)" fill="#407bff"/>
          <path id="Trazado_724449" data-name="Trazado 724449" d="M338.388,375.223a10.029,10.029,0,0,0-17.113.143,5.37,5.37,0,0,0-6.834,5.181v.007H311.6a2.688,2.688,0,0,0,0,5.377h9.8a10.032,10.032,0,0,0,15.653,1.645c.17.014.34.026.513.026a6.216,6.216,0,0,0,.823-12.378Z" transform="translate(-308.915 -337.964)" fill="#fff" opacity="0.8"/>
        </g>
      </g>
      <g id="Character_1" data-name="Character 1" transform="translate(100.532 147.467)">
        <g id="Grupo_1026808" data-name="Grupo 1026808" transform="translate(0 0)">
          <path id="Trazado_724450" data-name="Trazado 724450" d="M244.071,174.724l-.855-.9a.981.981,0,0,0-.9-.288l-1.279.246a.98.98,0,0,0-.788.844l-.656,5.361,1.985.761c2.416-1.051,2.29-4.242,2.29-4.242l.348-.636A.98.98,0,0,0,244.071,174.724Z" transform="translate(-175.197 -173.264)" fill="#ffb573"/>
          <path id="Trazado_724451" data-name="Trazado 724451" d="M206.452,194.728s1.9.114,3.014.088,2.242-.036,3.341-.1,2.183-.147,3.181-.285a11.435,11.435,0,0,0,1.353-.262c.177-.05.348-.1.427-.137.128-.059-.014.044.058,0a9.22,9.22,0,0,0,.861-.984c.325-.413.652-.858.976-1.31.651-.907,1.3-1.85,1.941-2.8l3.875-5.748,3.027,1.611c-.445,1.107-.928,2.174-1.411,3.254q-.751,1.6-1.537,3.2c-.534,1.06-1.089,2.115-1.692,3.171-.305.528-.62,1.056-.965,1.6a11.835,11.835,0,0,1-1.314,1.747,5.37,5.37,0,0,1-1.35,1.024,8.972,8.972,0,0,1-1.186.528,16.285,16.285,0,0,1-2.037.574,30.285,30.285,0,0,1-3.752.577,59.1,59.1,0,0,1-7.278.28Z" transform="translate(-161.519 -177.202)" fill="#407bff"/>
          <path id="Trazado_724452" data-name="Trazado 724452" d="M228.5,184.81c-.445,1.1-.925,2.171-1.406,3.25-.5,1.068-1.014,2.135-1.542,3.2s-1.085,2.111-1.69,3.167c-.3.528-.617,1.056-.967,1.6a11.7,11.7,0,0,1-1.311,1.75,5.409,5.409,0,0,1-1.352,1.02,8.638,8.638,0,0,1-1.186.534,16.19,16.19,0,0,1-2.034.569,30.091,30.091,0,0,1-3.754.581c-.528.053-1.05.095-1.566.136-1.9.136-3.778.184-5.711.142l.095-1.245.374-4.786s1.9.119,3.013.089,2.242-.036,3.345-.1,2.183-.142,3.179-.285a10.162,10.162,0,0,0,1.352-.261,3.363,3.363,0,0,0,.427-.136c.13-.059-.012.047.059.006a9.644,9.644,0,0,0,.86-.985c.326-.415.652-.86.973-1.311.652-.907,1.3-1.85,1.945-2.8l3.873-5.747Z" transform="translate(-161.519 -177.202)" fill="#fff" opacity="0.7"/>
          <path id="Trazado_724453" data-name="Trazado 724453" d="M211.7,211.061c-1.9.136-3.778.184-5.711.142l.095-1.245.463-1.091A7.5,7.5,0,0,1,211.7,211.061Z" transform="translate(-161.519 -187.648)" opacity="0.1"/>
          <path id="Trazado_724454" data-name="Trazado 724454" d="M144.224,376.975s-5.369-3.694-5.039-6.175a.427.427,0,0,0-.368-.5l-4.551-.688a.6.6,0,0,0-.565.241l-2.689,3.768,1.208.437.648-.455.305.8c6.556,2.372,9.414,3.327,10.86,3.388C144.431,377.282,144.224,376.975,144.224,376.975Z" transform="translate(-131.011 -253.058)"/>
          <g id="Grupo_1026797" data-name="Grupo 1026797" transform="translate(2.457 48.127)">
            <path id="Trazado_724455" data-name="Trazado 724455" d="M176.147,260.263s-.273.712-.753,1.945c-.516,1.334-1.275,3.28-2.188,5.593-.611,1.542-1.287,3.25-2.016,5.047-3.351,8.327-7.68,18.628-10.545,23.83-5.486,9.952-19.779,28.853-19.779,28.853l-5.711-2.088s10.284-19.465,15.473-29.328a114.933,114.933,0,0,0,5.207-12.259c.86-2.3,1.714-4.685,2.538-7.052.374-1.068.741-2.135,1.1-3.185.943-2.776,1.827-5.45,2.6-7.835.095-.3.19-.593.285-.878.314-.979.611-1.9.878-2.758,1.115-3.511,1.809-5.824,1.833-5.913h.006l5.095,2.776Z" transform="translate(-135.154 -254.237)" fill="#263238"/>
          </g>
          <path id="Trazado_724456" data-name="Trazado 724456" d="M191.325,266.265c-.516,1.334-1.275,3.28-2.188,5.593-.611,1.542-1.287,3.25-2.016,5.047-4.662.937-9.406,1.572-12.816,1.957.374-1.068.741-2.135,1.1-3.185.943-2.776,1.827-5.45,2.6-7.835.095-.3.19-.593.285-.878.314-.979.611-1.9.878-2.758C182.6,264.676,187.18,265.375,191.325,266.265Z" transform="translate(-148.628 -210.167)" opacity="0.3"/>
          <g id="Grupo_1026798" data-name="Grupo 1026798" transform="translate(25.196 17.381)">
            <path id="Trazado_724457" data-name="Trazado 724457" d="M173.5,205.7s0,.009,0,.014a46.722,46.722,0,0,1,1.573,9.126c.207,2.459.286,4.88.3,7.052.008,2.188-.058,4.125-.129,5.609-.1,1.9-.208,3.079-.208,3.079l18.02.926c5.406-19.595.178-28.963.178-28.963a37.328,37.328,0,0,0-4.832-.111c-.333.011-.672.036-1.019.063a70.693,70.693,0,0,0-8.059,1.41c-.483.106-.968.232-1.443.36C175.528,204.9,173.5,205.7,173.5,205.7Z" transform="translate(-173.496 -202.397)" fill="#407bff"/>
            <path id="Trazado_724458" data-name="Trazado 724458" d="M193.054,231.506l-18.018-.925s.113-1.174.208-3.084c.024-.557.047-1.192.071-1.88.036-1.109.059-2.366.059-3.725-.006-.658-.018-1.34-.036-2.04,0-.113-.006-.225-.006-.338-.03-1.109-.083-2.26-.16-3.428-.036-.415-.065-.83-.1-1.245-.024-.326-.053-.658-.083-.985-.089-.83-.184-1.661-.3-2.479-.03-.225-.065-.451-.1-.67-.053-.374-.113-.735-.178-1.1a37.129,37.129,0,0,0-.9-3.9.021.021,0,0,0-.012-.006s2.034-.795,4.389-1.441c.469-.125.955-.249,1.435-.356a71.286,71.286,0,0,1,8.06-1.411c.35-.024.688-.053,1.026-.059a37.215,37.215,0,0,1,4.828.107S198.462,211.9,193.054,231.506Z" transform="translate(-173.494 -202.398)" fill="#fff" opacity="0.7"/>
          </g>
          <path id="Trazado_724459" data-name="Trazado 724459" d="M216.346,325.1s-5.148-4-4.676-6.454a.426.426,0,0,0-.339-.518l-4.5-.949a.6.6,0,0,0-.578.208l-2.9,3.607,1.181.506.674-.416.259.815c6.409,2.745,9.208,3.863,10.648,4.007C216.535,325.415,216.346,325.1,216.346,325.1Z" transform="translate(-160.446 -231.717)"/>
          <path id="Trazado_724460" data-name="Trazado 724460" d="M182.915,264.133c.27.014.422.014.422.014l21.6,3.141-12.3,20.4,6.157,2.344s22.266-24.007,17.292-29.481c-4.091-4.5-24.136-7.241-24.136-7.241l.657-4.7-18.541-3.65C166.144,262.311,180.261,263.971,182.915,264.133Z" transform="translate(-147.561 -202.336)" fill="#263238"/>
          <g id="Grupo_1026802" data-name="Grupo 1026802" transform="translate(25.896 43.144)">
            <g id="Grupo_1026799" data-name="Grupo 1026799">
              <path id="Trazado_724461" data-name="Trazado 724461" d="M175.068,247.161l-.393-.076.36-1.25.349.068Z" transform="translate(-174.675 -245.836)" fill="#263238"/>
              <path id="Trazado_724462" data-name="Trazado 724462" d="M194.5,250.917l-7.916-1.532.309-1.257,7.883,1.529Z" transform="translate(-179.521 -246.769)" fill="#263238"/>
              <path id="Trazado_724463" data-name="Trazado 724463" d="M201.244,250.906l3.347.649-.223,1.268-3.388-.656Z" transform="translate(-185.379 -247.899)" fill="#263238"/>
              <path id="Trazado_724464" data-name="Trazado 724464" d="M176.692,246.15l5.443,1.056-.322,1.254-5.425-1.05Z" transform="translate(-175.372 -245.963)" fill="#263238"/>
            </g>
            <g id="Grupo_1026800" data-name="Grupo 1026800" opacity="0.2">
              <path id="Trazado_724465" data-name="Trazado 724465" d="M175.068,247.161l-.393-.076.36-1.25.349.068Z" transform="translate(-174.675 -245.836)" fill="#fff"/>
              <path id="Trazado_724466" data-name="Trazado 724466" d="M194.5,250.917l-7.916-1.532.309-1.257,7.883,1.529Z" transform="translate(-179.521 -246.769)" fill="#fff"/>
              <path id="Trazado_724467" data-name="Trazado 724467" d="M201.244,250.906l3.347.649-.223,1.268-3.388-.656Z" transform="translate(-185.379 -247.899)" fill="#fff"/>
              <path id="Trazado_724468" data-name="Trazado 724468" d="M176.692,246.15l5.443,1.056-.322,1.254-5.425-1.05Z" transform="translate(-175.372 -245.963)" fill="#fff"/>
            </g>
            <g id="Grupo_1026801" data-name="Grupo 1026801" transform="translate(10.157 1.989)">
              <path id="Trazado_724469" data-name="Trazado 724469" d="M194.425,249.857l-.178.766a.235.235,0,0,1-.27.178l-1.982-.352a.235.235,0,0,1-.187-.289l.2-.794a.235.235,0,0,1,.273-.174l1.961.38A.235.235,0,0,1,194.425,249.857Z" transform="translate(-191.801 -249.189)" fill="none" stroke="#fff" stroke-miterlimit="10" stroke-width="0.589"/>
              <line id="Línea_2533" data-name="Línea 2533" x1="0.605" y1="0.106" transform="translate(0.377 0.625)" fill="none" stroke="#fff" stroke-linecap="round" stroke-linejoin="round" stroke-width="0.589"/>
            </g>
          </g>
          <g id="Grupo_1026803" data-name="Grupo 1026803" transform="translate(32.484 10.711)">
            <path id="Trazado_724470" data-name="Trazado 724470" d="M186.19,191.15l4.706,3.9c-.46,1.909.339,3.671,1.266,4,0,0,.688,1.637-.636,1.913-2.682.559-5.743-2.039-5.743-2.039C187.2,197.4,186.69,193.588,186.19,191.15Z" transform="translate(-185.784 -191.15)" fill="#ebb376"/>
            <path id="Trazado_724471" data-name="Trazado 724471" d="M189.649,193.834l2.786,2.307a7.853,7.853,0,0,0-.224,1.354,3.322,3.322,0,0,1-2.607-2.339A3.65,3.65,0,0,1,189.649,193.834Z" transform="translate(-187.324 -192.242)" opacity="0.2"/>
          </g>
          <g id="Grupo_1026804" data-name="Grupo 1026804" transform="translate(26.963)">
            <path id="Trazado_724472" data-name="Trazado 724472" d="M192.7,178.022c1.139.71,2.682,2.851.768,3.365S190.745,176.8,192.7,178.022Z" transform="translate(-182.619 -175.02)" fill="#263238"/>
            <path id="Trazado_724473" data-name="Trazado 724473" d="M182.916,185.466c1.991,2.626,3.023,4.267,5.336,4.736,3.48.708,6.009-2.835,4.839-6.013-1.053-2.86-4.133-6.674-7.527-5.95A4.547,4.547,0,0,0,182.916,185.466Z" transform="translate(-178.712 -175.148)" fill="#ffb573"/>
            <path id="Trazado_724474" data-name="Trazado 724474" d="M181.473,183.75l-2.392-2.792s-3.16,2.325-1.725,3.732c-.946,2.226,2.812,5.333,6.1,4.694.38-2.007-2.546-5.436-2.546-5.436C181.088,183.894,181.279,183.825,181.473,183.75Z" transform="translate(-176.681 -176.291)" fill="#263238"/>
            <path id="Trazado_724475" data-name="Trazado 724475" d="M183.931,193.771a3.09,3.09,0,0,0,2.293.653c1.087-.138,1.213-1.222.562-2.033-.587-.73-1.859-1.538-2.783-.99A1.422,1.422,0,0,0,183.931,193.771Z" transform="translate(-179.264 -180.467)" fill="#ffb573"/>
            <path id="Trazado_724476" data-name="Trazado 724476" d="M191.316,186.611c.149.223.387.324.532.225s.142-.36-.007-.583-.387-.324-.531-.225S191.168,186.388,191.316,186.611Z" transform="translate(-182.468 -178.339)" fill="#263238"/>
            <path id="Trazado_724477" data-name="Trazado 724477" d="M195.547,183.734c.148.223.386.324.531.225s.142-.359-.006-.583-.387-.324-.532-.225S195.4,183.511,195.547,183.734Z" transform="translate(-184.189 -177.168)" fill="#263238"/>
            <path id="Trazado_724478" data-name="Trazado 724478" d="M194.4,185.262a9.232,9.232,0,0,0,2.3,1.107c-.155.612-.935.9-.935.9Z" transform="translate(-183.77 -178.043)" fill="#ed893e"/>
            <path id="Trazado_724479" data-name="Trazado 724479" d="M193,191a2.628,2.628,0,0,0-.3.187.079.079,0,0,0-.018.11.078.078,0,0,0,.109.018,2.1,2.1,0,0,1,1.884-.346.079.079,0,0,0,.1-.046.08.08,0,0,0-.045-.1A2.185,2.185,0,0,0,193,191Z" transform="translate(-183.067 -180.263)" fill="#263238"/>
            <path id="Trazado_724480" data-name="Trazado 724480" d="M188.4,185.117a.159.159,0,0,0,.142-.073,1.273,1.273,0,0,1,.967-.609.159.159,0,0,0,.157-.16.157.157,0,0,0-.158-.155,1.582,1.582,0,0,0-1.231.756.157.157,0,0,0,.047.218A.152.152,0,0,0,188.4,185.117Z" transform="translate(-181.266 -177.578)" fill="#263238"/>
            <path id="Trazado_724481" data-name="Trazado 724481" d="M194.8,180.6a.159.159,0,0,0-.193-.2,1.553,1.553,0,0,0-1.068.952.16.16,0,0,0,.1.2.156.156,0,0,0,.2-.1,1.21,1.21,0,0,1,.854-.745A.155.155,0,0,0,194.8,180.6Z" transform="translate(-183.417 -176.063)" fill="#263238"/>
            <path id="Trazado_724482" data-name="Trazado 724482" d="M180.7,180.746s6.262-2.631,6.645-5.634-2.262-1.773-2.262-1.773,1.225-.083,1.1.808a4.046,4.046,0,0,0-4.13-.2,1.863,1.863,0,0,1,1.438.68,11.188,11.188,0,0,0-4.061,1.966C177.288,178.183,173.432,183.881,180.7,180.746Z" transform="translate(-176.474 -173.089)" fill="#263238"/>
          </g>
          <path id="Trazado_724483" data-name="Trazado 724483" d="M198.86,257.906l-10.206-1.172a57.915,57.915,0,0,1,10.43-.429Z" transform="translate(-154.467 -206.931)" opacity="0.3"/>
          <path id="Trazado_724484" data-name="Trazado 724484" d="M175.921,221.375c-.036-.415-.065-.83-.1-1.245-.024-.326-.053-.658-.083-.985-.089-.83-.184-1.661-.3-2.479-.03-.225-.065-.451-.1-.67a6.371,6.371,0,0,1,.9-.6A14.105,14.105,0,0,1,175.921,221.375Z" transform="translate(-149.047 -190.305)" opacity="0.1"/>
          <g id="Grupo_1026805" data-name="Grupo 1026805" transform="translate(8.092 45.64)">
            <path id="Trazado_724485" data-name="Trazado 724485" d="M146.429,250.045l-1.774,4.162,3.84.95s1.649-2.736.039-4.821Z" transform="translate(-144.655 -250.045)" fill="#ebb376"/>
            <path id="Trazado_724486" data-name="Trazado 724486" d="M144.932,260.272l3.032.022.532-2.282-3.84-.949Z" transform="translate(-144.655 -252.901)" fill="#ebb376"/>
          </g>
          <path id="Trazado_724487" data-name="Trazado 724487" d="M164.7,210.808c.264,2.61-.627,3.671-.627,3.671s-2.528,1.588-3.625,2.4c-.932.7-1.846,1.416-2.712,2.131-.428.359-.842.723-1.221,1.083a9.851,9.851,0,0,0-.948,1.014,4.625,4.625,0,0,0-.3.466c-.108.174-.221.435-.337.647-.232.478-.462.984-.68,1.516-.438,1.059-.853,2.164-1.247,3.286-.822,2.229-1.586,4.528-2.374,6.788l-3.5-.833c.356-2.461.837-4.859,1.393-7.288.293-1.208.617-2.418.989-3.648.185-.614.4-1.24.633-1.882.142-.337.256-.642.433-1a9.734,9.734,0,0,1,.617-1.1,14.462,14.462,0,0,1,1.409-1.76c.469-.51.939-.98,1.413-1.434.943-.906,1.911-1.731,2.891-2.525,1.963-1.6,3.934-3.054,6.046-4.462A3.3,3.3,0,0,1,164.7,210.808Z" transform="translate(-137.567 -187.244)" fill="#407bff"/>
          <path id="Trazado_724488" data-name="Trazado 724488" d="M164.7,210.808c.264,2.61-.627,3.671-.627,3.671s-2.528,1.588-3.625,2.4c-.932.7-1.846,1.416-2.712,2.131-.428.359-.842.723-1.221,1.083a9.851,9.851,0,0,0-.948,1.014,4.625,4.625,0,0,0-.3.466c-.108.174-.221.435-.337.647-.232.478-.462.984-.68,1.516-.438,1.059-.853,2.164-1.247,3.286-.822,2.229-1.586,4.528-2.374,6.788l-3.5-.833c.356-2.461.837-4.859,1.393-7.288.293-1.208.617-2.418.989-3.648.185-.614.4-1.24.633-1.882.142-.337.256-.642.433-1a9.734,9.734,0,0,1,.617-1.1,14.462,14.462,0,0,1,1.409-1.76c.469-.51.939-.98,1.413-1.434.943-.906,1.911-1.731,2.891-2.525,1.963-1.6,3.934-3.054,6.046-4.462A3.3,3.3,0,0,1,164.7,210.808Z" transform="translate(-137.567 -187.244)" fill="#fff" opacity="0.7"/>
          <g id="Grupo_1026807" data-name="Grupo 1026807" transform="translate(22.431 16.723)">
            <path id="Trazado_724489" data-name="Trazado 724489" d="M181.5,206.385l1.319,2.072a24.967,24.967,0,0,1-13.4,7.411l-.587,1.791,1.871.49s9.5-2.459,13.3-9.588l1.96-2.183-2.309-.775Z" transform="translate(-168.832 -203.044)" fill="#407bff"/>
            <g id="Grupo_1026806" data-name="Grupo 1026806" transform="translate(8.405)">
              <path id="Trazado_724490" data-name="Trazado 724490" d="M183,203.381l2.143-1.874,4.27,2.341.494-2.56,2.254,1.3.645,3.311-3.146-1.361-2.815,2.51Z" transform="translate(-183.003 -201.287)" fill="#407bff"/>
              <path id="Trazado_724491" data-name="Trazado 724491" d="M183,203.381l2.143-1.874,4.27,2.341.494-2.56,2.254,1.3.645,3.311-3.146-1.361-2.815,2.51Z" transform="translate(-183.003 -201.287)" fill="#fff" opacity="0.6"/>
            </g>
          </g>
        </g>
      </g>
      <g id="Character_2" data-name="Character 2" transform="translate(164.542 110.122)">
        <g id="Grupo_1026814" data-name="Grupo 1026814" transform="translate(0)">
          <path id="Trazado_724492" data-name="Trazado 724492" d="M272.208,142.272s-3.988,4.946-8.036,4.536-6.116,1.232-6.116,1.232l-.4,1.974,2.171-.293s0-1.564,4.223-1.388,7.391-3.455,8.623-5.1Z" transform="translate(-246.558 -123.205)" fill="#407bff"/>
          <g id="Grupo_1026809" data-name="Grupo 1026809" transform="translate(33.707 6.692)">
            <path id="Trazado_724493" data-name="Trazado 724493" d="M316.365,125.559l-.084-.39a3.029,3.029,0,0,0-.165-.559,3.8,3.8,0,0,0-.967-1.407,5.338,5.338,0,0,0-1.814-1.065,11.454,11.454,0,0,0-2.623-.571c-.792-.09-1.543-.129-2.283-.149-1.477-.042-2.9.031-4.31.119a79.366,79.366,0,0,0-8.346,1l1.018,5.843c2.557-.407,5.224-.78,7.8-1.048,1.295-.132,2.584-.212,3.822-.252.617-.016,1.224-.014,1.783.021a9.98,9.98,0,0,1,1.074.119,5.405,5.405,0,0,1,.019.654,14.447,14.447,0,0,1-.635,3.365,46.123,46.123,0,0,1-2.919,7.108l2.815,1.876a34.537,34.537,0,0,0,4.5-7.353,17.278,17.278,0,0,0,1.338-4.513A8.892,8.892,0,0,0,316.365,125.559Z" transform="translate(-295.773 -121.406)" fill="#407bff"/>
            <path id="Trazado_724494" data-name="Trazado 724494" d="M316.4,128.364a16.045,16.045,0,0,1-1.038,3.79c-.095.243-.2.486-.3.724a34.638,34.638,0,0,1-4.507,7.348l-2.811-1.874a46.736,46.736,0,0,0,2.918-7.111,17.338,17.338,0,0,0,.54-2.39,8.279,8.279,0,0,0,.095-.973,5.791,5.791,0,0,0-.018-.652,9.556,9.556,0,0,0-1.073-.119c-.563-.036-1.168-.036-1.785-.024-.047,0-.089.006-.136.006-1.2.042-2.438.125-3.689.249-2.5.261-5.077.617-7.562,1.014l-.237.036-1.02-5.848a80.675,80.675,0,0,1,8.345-1c1.412-.089,2.835-.16,4.312-.119.741.018,1.489.059,2.283.148a11.738,11.738,0,0,1,2.621.569,5.355,5.355,0,0,1,1.815,1.068,3.794,3.794,0,0,1,.967,1.406,3.311,3.311,0,0,1,.166.557l.083.391A8.94,8.94,0,0,1,316.4,128.364Z" transform="translate(-295.773 -121.406)" fill="#fff" opacity="0.7"/>
            <path id="Trazado_724495" data-name="Trazado 724495" d="M309.145,128.777c-1.2.042-2.438.125-3.689.249-2.5.261-5.077.617-7.562,1.014.907-2.23,1.839-4.484,1.839-4.484A27.624,27.624,0,0,1,309.145,128.777Z" transform="translate(-296.636 -123.095)" opacity="0.1"/>
            <path id="Trazado_724496" data-name="Trazado 724496" d="M323.569,137.26c-.095.243-.2.486-.3.724a34.638,34.638,0,0,1-4.507,7.348l-2.811-1.874a46.734,46.734,0,0,0,2.918-7.111,17.338,17.338,0,0,0,.54-2.39A33.4,33.4,0,0,1,323.569,137.26Z" transform="translate(-303.985 -126.514)" opacity="0.1"/>
          </g>
          <g id="Grupo_1026810" data-name="Grupo 1026810" transform="translate(11.104)">
            <path id="Trazado_724497" data-name="Trazado 724497" d="M264.455,130.234c.162.205.184.457.05.563s-.374.026-.536-.18-.185-.457-.051-.563S264.293,130.029,264.455,130.234Z" transform="translate(-260.173 -118.214)" fill="#263238"/>
            <path id="Trazado_724498" data-name="Trazado 724498" d="M265.226,131.135a9.357,9.357,0,0,1,.406,2.527,1.506,1.506,0,0,0,1.125-.59Z" transform="translate(-260.74 -118.673)" fill="#de5753"/>
            <path id="Trazado_724499" data-name="Trazado 724499" d="M263.688,127.3a.153.153,0,0,0-.124-.252,1.522,1.522,0,0,0-1.231.669.153.153,0,1,0,.264.157h0a1.22,1.22,0,0,1,.98-.52A.152.152,0,0,0,263.688,127.3Z" transform="translate(-259.554 -117.008)" fill="#263238"/>
            <path id="Trazado_724500" data-name="Trazado 724500" d="M274.842,125.039c1.96,1.412,5.711,3.647,7.841,2.8,0,0,1.914,1.592.075,5.594-2.022,4.4-3.151,1.1-3.151,1.1.53-2.665-1.28-3.422-3.146-3.773Z" transform="translate(-264.653 -116.192)" fill="#e4897b"/>
            <path id="Trazado_724501" data-name="Trazado 724501" d="M270.356,119.226c1.834,2.64,3.043,4.092,2.792,6.39a4.271,4.271,0,0,1-6.983,2.719c-2.328-1.836-4.937-5.845-3.264-8.794A4.385,4.385,0,0,1,270.356,119.226Z" transform="translate(-259.577 -113.044)" fill="#e4897b"/>
            <path id="Trazado_724502" data-name="Trazado 724502" d="M271.659,120.663c-.276,1.5-5.312,3.543-7.6.317a7.352,7.352,0,0,1-4.593-1.752c-1.725-1.729-1.355-3.6.19-4.624,1.363-.9,4.886-7.523,8.989-2.8C273.1,111.627,272,118.8,271.659,120.663Z" transform="translate(-257.933 -110.122)" fill="#263238"/>
            <path id="Trazado_724503" data-name="Trazado 724503" d="M262.879,116.473a7.268,7.268,0,0,0-4.171,1.085c-1.525,1.212-1.095,4.931-.508,5.633a1.734,1.734,0,0,0,1.212.7s-.9-.466-.9-1.152c0,0,.391.917,2.19,1.152a1.141,1.141,0,0,1-.432-.928s.974,1.261,3.226,0S262.879,116.473,262.879,116.473Z" transform="translate(-257.662 -112.705)" fill="#263238"/>
            <path id="Trazado_724504" data-name="Trazado 724504" d="M268.846,127.063a3.629,3.629,0,0,1,.632,2.247c-.065,1.049-.943,1.131-1.633.47-.621-.6-1.336-1.859-.93-2.734S268.29,126.276,268.846,127.063Z" transform="translate(-261.379 -116.76)" fill="#e4897b"/>
          </g>
          <g id="Grupo_1026811" data-name="Grupo 1026811" transform="translate(23.817 9.743)">
            <path id="Trazado_724505" data-name="Trazado 724505" d="M279.117,135.874s-.493-5.971,3.406-9.324l4.643.426S284.49,133.5,279.117,135.874Z" transform="translate(-279.097 -126.55)" fill="#407bff"/>
            <path id="Trazado_724506" data-name="Trazado 724506" d="M279.117,135.874s-.493-5.971,3.406-9.324l4.643.426S284.49,133.5,279.117,135.874Z" transform="translate(-279.097 -126.55)" fill="#fff" opacity="0.6"/>
          </g>
          <path id="Trazado_724507" data-name="Trazado 724507" d="M291.558,147.8a99.436,99.436,0,0,0-14.783-11.72s5.171-12.138,11.717-13.221c0,0,16.923,5.111,21.832,18.959Z" transform="translate(-254.335 -115.307)" fill="#407bff"/>
          <path id="Trazado_724508" data-name="Trazado 724508" d="M298.876,231.1l-3.03,1.286-3.279-6.888,3.03-1.286Z" transform="translate(-260.762 -156.547)" fill="#e4897b"/>
          <path id="Trazado_724509" data-name="Trazado 724509" d="M306.65,154.832l-1.787,18.958a12.611,12.611,0,0,1-4.436,1.733A81.131,81.131,0,0,1,287.53,177c-4.787.261-8.719.311-9.074.585-.832.648,9.709,22.418,9.709,22.418l-5.031.627S269.911,182.5,268.2,176.2c-.63-2.325-1.266-5.239,3.005-7.96,3.759-2.4,17.756-4.194,17.756-4.194l-1.077-3.233Z" transform="translate(-250.661 -128.316)" fill="#263238"/>
          <path id="Trazado_724510" data-name="Trazado 724510" d="M313.957,180.449a81.133,81.133,0,0,1-12.9,1.481c-.577-7,2.943-13.709,2.943-13.709l5.006-1.285Z" transform="translate(-264.192 -133.241)" opacity="0.2"/>
          <path id="Trazado_724511" data-name="Trazado 724511" d="M372.469,231.115l.536,3.247-7.466,1.565L365,232.679Z" transform="translate(-290.238 -159.357)" fill="#e4897b"/>
          <path id="Trazado_724512" data-name="Trazado 724512" d="M378.672,236.774a.078.078,0,0,0-.135.055c0,.056.047,1.379.461,1.768a.388.388,0,0,0,.285.114.3.3,0,0,0,.294-.173c.09-.216-.074-.594-.3-.954A5.779,5.779,0,0,0,378.672,236.774Zm.034.276c.394.476.827,1.187.726,1.429-.014.031-.044.074-.155.078a.237.237,0,0,1-.173-.073.6.6,0,0,1-.094-.119A3.523,3.523,0,0,1,378.707,237.05Z" transform="translate(-295.745 -161.65)" fill="#407bff"/>
          <path id="Trazado_724513" data-name="Trazado 724513" d="M378.105,236.755a.078.078,0,0,0-.077.009c-.03.023-.738.563-.811,1.1a.567.567,0,0,0,.113.438c.131.171.256.167.338.133.348-.144.541-1.187.485-1.619a.081.081,0,0,0-.047-.062Zm-.734,1.131a1.833,1.833,0,0,1,.636-.9c.005.473-.19,1.221-.4,1.308-.017.007-.069.028-.154-.084-.009-.012-.018-.026-.027-.039A.417.417,0,0,1,377.371,237.886Z" transform="translate(-295.205 -161.65)" fill="#407bff"/>
          <path id="Trazado_724514" data-name="Trazado 724514" d="M376.49,232.845l-1.885-3.06a.287.287,0,0,1,.044-.356l2.15-2.088a.479.479,0,0,1,.747.1c.661,1.115,1.579,2.75,2.434,4.138,1,1.622,1.951,2.969,3.122,4.871.709,1.151-.257,2.186-.659,1.769-1.83-1.9-2.984-3.655-5.319-4.83A1.531,1.531,0,0,1,376.49,232.845Z" transform="translate(-294.128 -157.766)" fill="#263238"/>
          <path id="Trazado_724515" data-name="Trazado 724515" d="M320.686,154.832s6.029,15.5-4.142,21.512c0,0-.129,17.908,2.442,20.007,3.129,2.554,26.041,3.853,26.041,3.853l-.2,5.69s-24.529,2.008-31.956-.657c-8.7-3.12-10.633-44.155-10.633-44.155Z" transform="translate(-264.697 -128.316)" fill="#263238"/>
          <path id="Trazado_724516" data-name="Trazado 724516" d="M321.591,170.114l3.662-1.108a41.2,41.2,0,0,1,.5,4.837l-1.7,1.458-1.607-.511A41.508,41.508,0,0,0,321.591,170.114Z" transform="translate(-272.572 -134.084)" opacity="0.2"/>
          <g id="Grupo_1026813" data-name="Grupo 1026813" transform="translate(37.072 26.809)">
            <path id="Trazado_724517" data-name="Trazado 724517" d="M302.8,164.938l.474,1.506-1.354.42-.477-1.493Z" transform="translate(-301.448 -159.238)" fill="#263238"/>
            <path id="Trazado_724518" data-name="Trazado 724518" d="M310.435,161.558l.51,1.562-5.607,1.738-.5-1.508Z" transform="translate(-302.829 -157.862)" fill="#263238"/>
            <path id="Trazado_724519" data-name="Trazado 724519" d="M321.746,157.787l.509,1.635-6.268,1.942-.5-1.572Z" transform="translate(-307.162 -156.328)" fill="#263238"/>
            <path id="Trazado_724520" data-name="Trazado 724520" d="M331.631,157l-3.86,1.2h0l-.517-1.638,3.832-1.228Z" transform="translate(-311.947 -155.326)" fill="#263238"/>
            <g id="Grupo_1026812" data-name="Grupo 1026812" opacity="0.2">
              <path id="Trazado_724521" data-name="Trazado 724521" d="M302.8,164.938l.474,1.506-1.354.42-.477-1.493Z" transform="translate(-301.448 -159.238)" fill="#fff"/>
              <path id="Trazado_724522" data-name="Trazado 724522" d="M310.435,161.558l.51,1.562-5.607,1.738-.5-1.508Z" transform="translate(-302.829 -157.862)" fill="#fff"/>
              <path id="Trazado_724523" data-name="Trazado 724523" d="M321.746,157.787l.509,1.635-6.268,1.942-.5-1.572Z" transform="translate(-307.162 -156.328)" fill="#fff"/>
              <path id="Trazado_724524" data-name="Trazado 724524" d="M331.631,157l-3.86,1.2h0l-.517-1.638,3.832-1.228Z" transform="translate(-311.947 -155.326)" fill="#fff"/>
            </g>
          </g>
          <path id="Trazado_724525" data-name="Trazado 724525" d="M295.133,235.913a.078.078,0,0,0,.02-.145c-.049-.027-1.215-.655-1.758-.493a.388.388,0,0,0-.243.189.3.3,0,0,0,0,.34c.141.187.55.235.973.225A5.838,5.838,0,0,0,295.133,235.913Zm-.256-.11c-.61.1-1.441.116-1.6-.094-.021-.027-.042-.074.011-.173a.236.236,0,0,1,.15-.113.578.578,0,0,1,.15-.021A3.514,3.514,0,0,1,294.877,235.8Z" transform="translate(-260.979 -161.039)" fill="#407bff"/>
          <path id="Trazado_724526" data-name="Trazado 724526" d="M295.733,235.347a.077.077,0,0,0,.03-.071,2.226,2.226,0,0,0-.541-1.256.567.567,0,0,0-.435-.123c-.214.027-.273.137-.285.225-.051.373.753,1.066,1.154,1.235a.074.074,0,0,0,.032.007A.082.082,0,0,0,295.733,235.347Zm-.607-1.2a1.825,1.825,0,0,1,.458,1c-.41-.234-.958-.78-.928-1,0-.018.01-.074.15-.091l.047,0A.412.412,0,0,1,295.126,234.143Z" transform="translate(-261.548 -160.487)" fill="#407bff"/>
          <path id="Trazado_724527" data-name="Trazado 724527" d="M291.664,235.525l3.593-.085a.287.287,0,0,1,.285.218l.719,2.909a.479.479,0,0,1-.46.6c-1.3.009-3.171-.023-4.8.015-1.9.046-3.548.188-5.781.241-1.351.032-1.758-1.324-1.2-1.461,2.561-.624,4.661-.734,6.852-2.158A1.523,1.523,0,0,1,291.664,235.525Z" transform="translate(-257.186 -161.117)" fill="#263238"/>
          <path id="Trazado_724528" data-name="Trazado 724528" d="M310.324,141.828l-18.765,5.978s-3.309-3.244-7.894-6.844c-.872-.682-1.785-1.376-2.734-2.064-1.334-.973-2.734-1.927-4.157-2.811,0,0,5.172-12.14,11.719-13.22C288.493,122.867,305.414,127.973,310.324,141.828Z" transform="translate(-254.335 -115.309)" fill="#fff" opacity="0.7"/>
          <path id="Trazado_724529" data-name="Trazado 724529" d="M286.518,151.2c-.872-.682-1.785-1.376-2.734-2.064l.368-1.109A9.7,9.7,0,0,1,286.518,151.2Z" transform="translate(-257.188 -125.547)" opacity="0.1"/>
          <path id="Trazado_724530" data-name="Trazado 724530" d="M241.156,174.229l-1.293.308a.821.821,0,0,0-.62.668l-.292,1.8a.822.822,0,0,0,.507.895l.946.377s2.729,1.969,5.036.7l-1-2.64-1.951-1.766A1.479,1.479,0,0,0,241.156,174.229Z" transform="translate(-238.939 -136.193)" fill="#e4897b"/>
          <path id="Trazado_724531" data-name="Trazado 724531" d="M268.3,145.426a4.172,4.172,0,0,1,1.8,3.047s-1.3,3.535-2.059,5.294c-.514,1.194-1.047,2.392-1.667,3.583a21.672,21.672,0,0,1-2.3,3.681l-.2.246-.243.261a6.517,6.517,0,0,1-.575.544,4.045,4.045,0,0,1-.392.3,3.533,3.533,0,0,1-.377.238l-.5.26c-.654.329-1.265.586-1.879.839-1.219.5-2.425.933-3.635,1.349-2.427.812-4.841,1.554-7.32,2.178l-1.177-3.171c2.223-1.139,4.49-2.219,6.7-3.33,1.108-.549,2.211-1.1,3.27-1.659.522-.282,1.042-.57,1.491-.843l.318-.2c.086-.049.02-.026.014-.023s-.04.036-.021.007.038-.043.092-.12l.071-.089.085-.125a19.446,19.446,0,0,0,1.493-2.811c.47-1.07.941-2.175,1.374-3.306.862-2.255,1.689-4.606,2.459-6.884A4.686,4.686,0,0,1,268.3,145.426Z" transform="translate(-242.533 -124.169)" fill="#407bff"/>
          <path id="Trazado_724532" data-name="Trazado 724532" d="M268.3,145.426a4.172,4.172,0,0,1,1.8,3.047s-1.3,3.535-2.059,5.294c-.514,1.194-1.047,2.392-1.667,3.583a21.672,21.672,0,0,1-2.3,3.681l-.2.246-.243.261a6.517,6.517,0,0,1-.575.544,4.045,4.045,0,0,1-.392.3,3.533,3.533,0,0,1-.377.238l-.5.26c-.654.329-1.265.586-1.879.839-1.219.5-2.425.933-3.635,1.349-2.427.812-4.841,1.554-7.32,2.178l-1.177-3.171c2.223-1.139,4.49-2.219,6.7-3.33,1.108-.549,2.211-1.1,3.27-1.659.522-.282,1.042-.57,1.491-.843l.318-.2c.086-.049.02-.026.014-.023s-.04.036-.021.007.038-.043.092-.12l.071-.089.085-.125a19.446,19.446,0,0,0,1.493-2.811c.47-1.07.941-2.175,1.374-3.306.862-2.255,1.689-4.606,2.459-6.884A4.686,4.686,0,0,1,268.3,145.426Z" transform="translate(-242.533 -124.169)" fill="#fff" opacity="0.7"/>
        </g>
      </g>
      <g id="Arrow_2" data-name="Arrow 2" transform="translate(76.092 187.589)">
        <g id="Grupo_1026816" data-name="Grupo 1026816" transform="translate(0)">
          <g id="Grupo_1026815" data-name="Grupo 1026815" transform="translate(5.755)">
            <path id="Trazado_724533" data-name="Trazado 724533" d="M99.505,341.9H199.666l53.007-42.818L255,301.964h13.056l13.3-61.223-13.061.026.006-.026-62.652.125,7.48,9.259Z" transform="translate(-99.505 -240.74)" fill="#407bff"/>
            <path id="Trazado_724534" data-name="Trazado 724534" d="M99.505,341.9h87.105l60.907-49.2,7.48,9.259,13.3-61.223-62.652.125,7.48,9.259Z" transform="translate(-99.505 -240.74)" fill="#fff" opacity="0.2"/>
          </g>
          <path id="Trazado_724535" data-name="Trazado 724535" d="M93.518,395.691h71.916a8.541,8.541,0,0,1-.054-.926,8.361,8.361,0,0,1,8.361-8.361c.1,0,.2.011.3.015A7.393,7.393,0,0,1,188.367,389v.017a7.052,7.052,0,0,1,6.712,6.676h.336a3.717,3.717,0,0,1,0,7.434H93.518a3.717,3.717,0,0,1,0-7.434Z" transform="translate(-89.801 -298.06)" fill="#407bff"/>
          <path id="Trazado_724536" data-name="Trazado 724536" d="M93.518,395.691h71.916a8.541,8.541,0,0,1-.054-.926,8.361,8.361,0,0,1,8.361-8.361c.1,0,.2.011.3.015A7.393,7.393,0,0,1,188.367,389v.017a7.052,7.052,0,0,1,6.712,6.676h.336a3.717,3.717,0,0,1,0,7.434H93.518a3.717,3.717,0,0,1,0-7.434Z" transform="translate(-89.801 -298.06)" fill="#fff" opacity="0.7"/>
        </g>
      </g>
    </g>
  </g>
</svg>
