<svg xmlns="http://www.w3.org/2000/svg" width="265" height="187.813" viewBox="0 0 265 187.813">
  <g id="Grupo_1026921" data-name="Grupo 1026921" transform="translate(-965 -4086.154)">
    <g id="Grupo_1026629" data-name="Grupo 1026629" transform="translate(0 516)">
      <path id="Trazado_717261" data-name="Trazado 717261" d="M256.045,6.946c17.063-1.074,33.043,10.991,40.907,26.4s8.9,33.5,7.566,50.8c-1.55,20.065-6.345,40.492-18.157,56.663-10.291,14.089-25.385,24.1-41.614,30.118s-33.608,8.274-50.873,8.872a166.69,166.69,0,0,1-31.625-1.521c-21.419-3.372-41.515-12.526-60.782-22.6-10.065-5.265-20.115-10.9-28.347-18.793a96.232,96.232,0,0,1-13.794-17.23c-11.581-17.819-19.837-38.59-19.291-59.935S51.148,16.6,69.69,6.522c21.6-11.73,48.245-5.764,71.087,3.216,19.757,7.77,41.525,20.277,63.269,20.272,8.746,0,15.636-6.734,22.927-11.3,8.925-5.58,18.367-11.1,29.077-11.768Z" transform="translate(924.992 3578.02)" fill="#f5f9fd"/>
    </g>
    <g id="Grupo_1026920" data-name="Grupo 1026920" transform="translate(993.53 4032.051)">
      <g id="Background_complete" data-name="Background complete" transform="translate(6.47 73.651)">
        <path id="Trazado_724650" data-name="Trazado 724650" d="M6.47,396.589v-12.21l209.717-58.644v69.4Z" transform="translate(-6.47 -228.323)" fill="#f0f0f0"/>
        <g id="Grupo_1026859" data-name="Grupo 1026859" transform="translate(115.574 26.567)">
          <path id="Trazado_724651" data-name="Trazado 724651" d="M291.063,165.106a1.532,1.532,0,0,0-1.655-.1,2.945,2.945,0,0,0-3.874-1.24,3.34,3.34,0,0,0-6.517.078,1.279,1.279,0,0,1-.249.66c-.271.277-.724.184-1.111.154a2.749,2.749,0,0,0-2.771,1.933l16.751-.061A1.335,1.335,0,0,0,291.063,165.106Z" transform="translate(-274.885 -161.203)" fill="#f0f0f0"/>
        </g>
        <g id="Grupo_1026860" data-name="Grupo 1026860" transform="translate(130.043 73.124)">
          <path id="Trazado_724652" data-name="Trazado 724652" d="M334.9,275.7a2.5,2.5,0,0,0-2.7-.158,4.809,4.809,0,0,0-6.326-2.025,5.454,5.454,0,0,0-10.639.128,2.092,2.092,0,0,1-.407,1.077c-.443.452-1.182.3-1.814.251a4.489,4.489,0,0,0-4.524,3.157l27.348-.1A2.182,2.182,0,0,0,334.9,275.7Z" transform="translate(-308.489 -269.329)" fill="#f0f0f0"/>
        </g>
        <g id="Grupo_1026861" data-name="Grupo 1026861" transform="translate(61.116 54.385)">
          <path id="Trazado_724653" data-name="Trazado 724653" d="M164.587,229.711a1.531,1.531,0,0,0-1.655-.1,2.946,2.946,0,0,0-3.875-1.24,3.34,3.34,0,0,0-6.516.078,1.283,1.283,0,0,1-.25.66c-.271.277-.724.184-1.111.154a2.749,2.749,0,0,0-2.771,1.934l16.751-.061A1.336,1.336,0,0,0,164.587,229.711Z" transform="translate(-148.409 -225.808)" fill="#f0f0f0"/>
        </g>
        <g id="Grupo_1026862" data-name="Grupo 1026862" transform="translate(174.981 10.787)">
          <path id="Trazado_724654" data-name="Trazado 724654" d="M429.035,128.457a1.531,1.531,0,0,0-1.655-.1,2.946,2.946,0,0,0-3.875-1.24,3.34,3.34,0,0,0-6.516.078,1.28,1.28,0,0,1-.25.66c-.271.277-.724.184-1.11.154a2.749,2.749,0,0,0-2.771,1.933l16.751-.061A1.337,1.337,0,0,0,429.035,128.457Z" transform="translate(-412.857 -124.553)" fill="#f0f0f0"/>
        </g>
        <g id="Grupo_1026863" data-name="Grupo 1026863" transform="translate(178.826 51.019)">
          <path id="Trazado_724655" data-name="Trazado 724655" d="M443.321,223.187a2.038,2.038,0,0,0-2.2-.129,3.921,3.921,0,0,0-5.158-1.651,4.447,4.447,0,0,0-8.675.1,1.7,1.7,0,0,1-.332.878c-.361.369-.964.245-1.479.2a3.66,3.66,0,0,0-3.689,2.574l22.3-.081A1.778,1.778,0,0,0,443.321,223.187Z" transform="translate(-421.785 -217.991)" fill="#f0f0f0"/>
        </g>
        <g id="Grupo_1026864" data-name="Grupo 1026864" transform="translate(68.969 105.639)">
          <path id="Trazado_724656" data-name="Trazado 724656" d="M188.184,350.04a2.037,2.037,0,0,0-2.2-.129,3.921,3.921,0,0,0-5.158-1.651,4.447,4.447,0,0,0-8.675.1,1.7,1.7,0,0,1-.332.878c-.361.369-.964.245-1.479.2a3.66,3.66,0,0,0-3.689,2.574l22.3-.081A1.779,1.779,0,0,0,188.184,350.04Z" transform="translate(-166.648 -344.843)" fill="#f0f0f0"/>
        </g>
        <g id="Grupo_1026865" data-name="Grupo 1026865" transform="translate(40.423 16.097)">
          <path id="Trazado_724657" data-name="Trazado 724657" d="M129.818,143.995a2.789,2.789,0,0,0-3.015-.177,5.364,5.364,0,0,0-7.057-2.258,6.084,6.084,0,0,0-11.869.143,2.336,2.336,0,0,1-.454,1.2c-.494.5-1.319.335-2.023.28a5.007,5.007,0,0,0-5.047,3.522l30.51-.111A2.433,2.433,0,0,0,129.818,143.995Z" transform="translate(-100.352 -136.885)" fill="#f0f0f0"/>
        </g>
        <g id="Grupo_1026866" data-name="Grupo 1026866" transform="translate(9.494 98.64)">
          <path id="Trazado_724658" data-name="Trazado 724658" d="M57.986,335.7a2.788,2.788,0,0,0-3.014-.177,5.365,5.365,0,0,0-7.057-2.258,6.084,6.084,0,0,0-11.869.143,2.336,2.336,0,0,1-.455,1.2c-.494.5-1.319.335-2.023.28a5.008,5.008,0,0,0-5.047,3.521l30.51-.111A2.434,2.434,0,0,0,57.986,335.7Z" transform="translate(-28.52 -328.589)" fill="#f0f0f0"/>
        </g>
        <g id="Grupo_1026867" data-name="Grupo 1026867" transform="translate(12.492)">
          <path id="Trazado_724659" data-name="Trazado 724659" d="M55.576,104.35a1.9,1.9,0,0,0-2.056-.121,3.658,3.658,0,0,0-4.812-1.54,4.149,4.149,0,0,0-8.094.1,1.589,1.589,0,0,1-.31.82c-.337.344-.9.229-1.38.191a3.414,3.414,0,0,0-3.442,2.4l20.805-.076A1.66,1.66,0,0,0,55.576,104.35Z" transform="translate(-35.483 -99.501)" fill="#f0f0f0"/>
        </g>
      </g>
      <g id="Floor" transform="translate(7.147 170.903)">
        <line id="Línea_2534" data-name="Línea 2534" y1="58.803" x2="209.323" transform="translate(0 0)" fill="none" stroke="#263238" stroke-linecap="round" stroke-linejoin="round" stroke-width="0.75"/>
      </g>
      <g id="Shadow" transform="translate(24.659 178.141)">
        <g id="Grupo_1026869" data-name="Grupo 1026869" transform="translate(0 0)">
          <g id="Grupo_1026868" data-name="Grupo 1026868">
            <path id="Trazado_724660" data-name="Trazado 724660" d="M235.043,342.3c.394,1.4-41,14.227-92.451,28.641S49.11,395.9,48.716,394.5s41-14.227,92.451-28.641S234.65,340.9,235.043,342.3Z" transform="translate(-48.714 -342.176)" fill="#ebebeb"/>
          </g>
        </g>
      </g>
      <g id="Speech_Bubble_2" data-name="Speech Bubble 2" transform="translate(175.201 63.763)">
        <g id="Grupo_1026874" data-name="Grupo 1026874" transform="translate(0 0)">
          <g id="Grupo_1026872" data-name="Grupo 1026872">
            <g id="Grupo_1026871" data-name="Grupo 1026871">
              <g id="Grupo_1026870" data-name="Grupo 1026870">
                <path id="Trazado_724661" data-name="Trazado 724661" d="M410.989,86.732a6.784,6.784,0,1,0-11.14.85l-.331,2.01,2.1-.464c.033.019.062.042.094.061A6.784,6.784,0,0,0,410.989,86.732Z" transform="translate(-398.341 -76.538)" fill="#12263f"/>
              </g>
              <path id="Trazado_724662" data-name="Trazado 724662" d="M425.636,78.647a6.724,6.724,0,0,1,2.639,5.768" transform="translate(-413.883 -77.739)" fill="none" stroke="#407bff" stroke-linecap="round" stroke-linejoin="round" stroke-width="0.5"/>
              <path id="Trazado_724663" data-name="Trazado 724663" d="M431.246,94.38a2.459,2.459,0,0,1-.2.981" transform="translate(-416.962 -86.698)" fill="none" stroke="#407bff" stroke-linecap="round" stroke-linejoin="round" stroke-width="0.5"/>
            </g>
          </g>
          <g id="Grupo_1026873" data-name="Grupo 1026873" transform="translate(3.288 5.236)">
            <rect id="Rectángulo_349210" data-name="Rectángulo 349210" width="6.337" height="1.584" transform="translate(0 0.862)" fill="#fff"/>
            <path id="Trazado_724664" data-name="Trazado 724664" d="M419.333,88.7v3.2l1.561-1.6Z" transform="translate(-413.582 -88.698)" fill="#fff"/>
          </g>
        </g>
      </g>
      <g id="Speech_Bubble_1" data-name="Speech Bubble 1" transform="translate(56.724 100.687)">
        <g id="Grupo_1026878" data-name="Grupo 1026878" transform="translate(0 0)">
          <g id="Grupo_1026876" data-name="Grupo 1026876">
            <g id="Grupo_1026875" data-name="Grupo 1026875" transform="translate(0.886 0.636)">
              <path id="Trazado_724665" data-name="Trazado 724665" d="M128.816,164.706a7.1,7.1,0,1,1-.97,11.647l-2.106.332.5-2.2c-.02-.034-.044-.065-.064-.1A7.1,7.1,0,0,1,128.816,164.706Z" transform="translate(-125.241 -163.769)" fill="#12263f"/>
            </g>
            <path id="Trazado_724666" data-name="Trazado 724666" d="M129.712,162.292a7.036,7.036,0,0,0-5.111,4.232" transform="translate(-123.99 -162.292)" fill="none" stroke="#407bff" stroke-linecap="round" stroke-linejoin="round" stroke-width="0.5"/>
            <path id="Trazado_724667" data-name="Trazado 724667" d="M123.438,174.437a2.564,2.564,0,0,0-.255,1.017" transform="translate(-123.183 -169.208)" fill="none" stroke="#407bff" stroke-linecap="round" stroke-linejoin="round" stroke-width="0.5"/>
          </g>
          <g id="Grupo_1026877" data-name="Grupo 1026877" transform="translate(4.156 5.211)">
            <path id="Trazado_724668" data-name="Trazado 724668" d="M135.831,179.6l-3-2.734.954-1.045,2.009,1.833,3.338-3.259.989,1.012Z" transform="translate(-132.836 -174.394)" fill="#fff"/>
          </g>
        </g>
      </g>
      <g id="Character_3" data-name="Character 3" transform="translate(135.702 66.85)">
        <g id="Grupo_1026891" data-name="Grupo 1026891" transform="translate(0 0)">
          <g id="Grupo_1026879" data-name="Grupo 1026879">
            <path id="Trazado_724669" data-name="Trazado 724669" d="M336.429,87.272c-1.816.013-3.947.192-4.912,1.73-.884,1.411-.337,3.331-1.037,4.841-.716,1.546-2.563,2.253-4.266,2.317s-3.389-.361-5.093-.379-3.575.49-4.5,1.919a9.158,9.158,0,0,0-.784,1.834,7.4,7.4,0,0,1-2.739,3.723c-1.888,1.216-4.309,1.092-6.488,1.639,2.947,2.4,7.131,2.374,10.916,2.037a5.285,5.285,0,0,0,2.241-.547,15.8,15.8,0,0,0,1.422-1.159,4.167,4.167,0,0,1,4.06-.5c.72.306,1.341.814,2.06,1.124a7.375,7.375,0,0,0,4.94-.129,8.441,8.441,0,0,0,3.077-1.448,3.531,3.531,0,0,0,1.382-2.982,3.94,3.94,0,0,1-.11-1.42,1.935,1.935,0,0,1,.611-.882,6.484,6.484,0,0,1,4.381-1.715" transform="translate(-306.606 -85.737)" fill="#4db1f0"/>
            <path id="Trazado_724670" data-name="Trazado 724670" d="M355.968,115.79c-.168-.052-1.339-4.894,2.526-6.473a5.866,5.866,0,0,1,2.628-.542,7.037,7.037,0,0,1,4.733-4.195c3.446-.715,3.072.235,3.072.235s1.513,3.143,1.3,3.419-13.5,7.7-13.5,7.7Z" transform="translate(-334.545 -95.441)" opacity="0.3"/>
            <path id="Trazado_724671" data-name="Trazado 724671" d="M412.1,173.664l2.292-2.982a8.046,8.046,0,0,0,1.462-.454,3.08,3.08,0,0,0,1.729-1.65c.417-.991-.35-.78-.35-.78a.893.893,0,0,0-.636-1.227.952.952,0,0,0-.688-1.185,4.555,4.555,0,0,0-1.551-.422c-.518.047-1.724,1.48-1.724,1.48l-.417,1.836-3.151,2.872C409.123,171.2,412.1,173.664,412.1,173.664Z" transform="translate(-364.95 -129.975)" fill="#b97964"/>
            <line id="Línea_2535" data-name="Línea 2535" x1="27.852" y1="51.437" transform="translate(29.01)" fill="none" stroke="#263238" stroke-linecap="round" stroke-linejoin="round" stroke-width="0.75"/>
            <path id="Trazado_724672" data-name="Trazado 724672" d="M418.465,168.141a6.582,6.582,0,0,1,2.375,0,3.707,3.707,0,0,1,.911,1.03.32.32,0,0,1-.227.5,1.823,1.823,0,0,1-1.3-.356s.244,1.1-1.148,1.35" transform="translate(-370.301 -131.714)" opacity="0.3"/>
            <path id="Trazado_724673" data-name="Trazado 724673" d="M418.138,167.814a6.591,6.591,0,0,1,2.375,0,3.7,3.7,0,0,1,.912,1.031.319.319,0,0,1-.227.5,1.823,1.823,0,0,1-1.3-.356s.443.538-1.123,1.569" transform="translate(-370.115 -131.528)" fill="#b97964"/>
          </g>
          <path id="Trazado_724674" data-name="Trazado 724674" d="M390.951,151.341a7.811,7.811,0,0,1,3.447,4.952,46.588,46.588,0,0,1,.839,7.976l4.838-3.439,3.013,2.8s-5.03,6.058-8.211,8.286c-2.642,1.85-4.921-2.554-4.921-2.554l.8-18.147Z" transform="translate(-354.067 -122.148)" fill="#407bff"/>
          <g id="Grupo_1026882" data-name="Grupo 1026882" transform="translate(16.932 9.662)">
            <path id="Trazado_724675" data-name="Trazado 724675" d="M356.323,115.92A2.969,2.969,0,0,0,353.8,116a4.964,4.964,0,0,0-1.9,1.742,5.71,5.71,0,0,0-.6,1.124c-.907,2.337.189,5.08-.664,7.437a3.16,3.16,0,0,1-.6,1.046c-.9,1-2.4,1.051-3.707,1.368a.553.553,0,0,0-.357.2.5.5,0,0,0,.13.554,3.538,3.538,0,0,0,2.4.908,7.194,7.194,0,0,1-2.288,1.338c-.087.031-.185.07-.218.157a.286.286,0,0,0,.076.262,2.289,2.289,0,0,0,1.482.707,10.255,10.255,0,0,0,3.251.037q-.885,1.132-1.668,2.34a8.451,8.451,0,0,0,4.52-.5,7.982,7.982,0,0,0,4.227-3.215c1.263-2.14,1-4.8,1.137-7.283a42.142,42.142,0,0,1,.536-4.311Z" transform="translate(-345.931 -111.573)" fill="#263238"/>
            <path id="Trazado_724676" data-name="Trazado 724676" d="M387.611,108.126a5.812,5.812,0,0,1,2.158,5.223,36.927,36.927,0,0,1-2.078,5.17l-4-12.229A7.923,7.923,0,0,1,387.611,108.126Z" transform="translate(-367.435 -106.228)" fill="#263238"/>
            <path id="Trazado_724677" data-name="Trazado 724677" d="M376.167,106.725c-1.962-1.189-4.115-.278-5.385.381a5.977,5.977,0,0,0-2.58,4.163c-.175,1.586-.386,3.51.484,4.442a2.583,2.583,0,0,0,1.9.852l8.643-6.377A9.208,9.208,0,0,0,376.167,106.725Z" transform="translate(-358.523 -106.147)" fill="#263238"/>
            <path id="Trazado_724678" data-name="Trazado 724678" d="M374.871,143.379c-.672.556-.674.418-1.442,0-4.6-2.251-3.294-3.907-3.294-3.907,1.026-.966,1.206-2.238,1.089-4.219a1.143,1.143,0,0,1,.012-.171,1.264,1.264,0,0,1,.318-.7,1.292,1.292,0,0,1,1.822-.139h0l2.077.849h0l.008.094c-.111,1.064-.232,1.886-.3,2.537a1.593,1.593,0,0,1-.021.237h0a1.243,1.243,0,0,1-.017.241c-.013.259-.043.963-.043.963a4.265,4.265,0,0,0,1.582,1.5C377.015,140.922,377.149,141.506,374.871,143.379Z" transform="translate(-359.615 -121.971)" fill="#b97964"/>
            <path id="Trazado_724679" data-name="Trazado 724679" d="M377.186,135.079h0a.3.3,0,0,0,.009.1c-.112,1.064-.232,1.887-.3,2.537a1.623,1.623,0,0,0-.021.237h0a1.854,1.854,0,0,0,0,.25h0a8.309,8.309,0,0,1-3.875-3.129h0a1.32,1.32,0,0,1,.3-.694,1.3,1.3,0,0,1,1.822-.16Z" transform="translate(-361.348 -121.959)" opacity="0.2" style="isolation: isolate"/>
            <path id="Trazado_724680" data-name="Trazado 724680" d="M370.713,113.343c-.321,3.677-.538,5.221.985,7.4,2.295,3.28,6.777,2.966,8.184-.522,1.241-3.144,1.575-8.616-1.7-10.68A4.837,4.837,0,0,0,370.713,113.343Z" transform="translate(-359.911 -107.628)" fill="#b97964"/>
            <g id="Grupo_1026880" data-name="Grupo 1026880" transform="translate(8.735 6.664)">
              <path id="Trazado_724681" data-name="Trazado 724681" d="M366.315,123.638a2.992,2.992,0,0,0,1.5,1.727c.918.431,1.721-1.023,1.582-2.055a1.978,1.978,0,0,0-1.938-1.686A1.423,1.423,0,0,0,366.315,123.638Z" transform="translate(-366.217 -121.624)" fill="#b97964"/>
              <path id="Trazado_724682" data-name="Trazado 724682" d="M369.732,124.783a1.35,1.35,0,0,0-1.164-1.51" transform="translate(-367.556 -122.563)" fill="none" stroke="#000" stroke-linecap="round" stroke-linejoin="round" stroke-width="0.5" opacity="0.2"/>
            </g>
            <path id="Trazado_724683" data-name="Trazado 724683" d="M380.2,123.371c-.058.39.089.747.328.8s.479-.221.537-.611-.089-.747-.328-.8S380.263,122.982,380.2,123.371Z" transform="translate(-365.44 -115.604)" fill="#263238"/>
            <path id="Trazado_724684" data-name="Trazado 724684" d="M389.022,124.838c-.055.377.093.726.331.778s.476-.212.532-.59-.093-.726-.332-.777S389.077,124.46,389.022,124.838Z" transform="translate(-370.461 -116.451)" fill="#263238"/>
            <path id="Trazado_724685" data-name="Trazado 724685" d="M380.382,120.044a.168.168,0,0,0,.138-.016,1.341,1.341,0,0,1,1.268-.1.167.167,0,0,0,.234-.08.2.2,0,0,0-.089-.251,1.673,1.673,0,0,0-1.6.107.186.186,0,0,0-.053.254A.191.191,0,0,0,380.382,120.044Z" transform="translate(-365.471 -113.718)" fill="#263238"/>
            <path id="Trazado_724686" data-name="Trazado 724686" d="M391.731,121.229a.14.14,0,0,0,.1-.063.2.2,0,0,0-.045-.252,1.533,1.533,0,0,0-1.458-.387.168.168,0,0,0-.085.224.173.173,0,0,0,.211.118,1.23,1.23,0,0,1,1.153.32A.161.161,0,0,0,391.731,121.229Z" transform="translate(-371.155 -114.306)" fill="#263238"/>
            <path id="Trazado_724687" data-name="Trazado 724687" d="M387.328,125.065a12.6,12.6,0,0,0,.779,2.455.287.287,0,0,1-.217.4,1.839,1.839,0,0,1-.981-.176Z" transform="translate(-369.265 -116.92)" fill="#a24e3f"/>
            <path id="Trazado_724688" data-name="Trazado 724688" d="M381.143,122.7l.876-.033S381.438,123.2,381.143,122.7Z" transform="translate(-365.981 -115.553)" fill="#263238"/>
            <path id="Trazado_724689" data-name="Trazado 724689" d="M390.068,124.193l.876-.033S390.363,124.694,390.068,124.193Z" transform="translate(-371.063 -116.404)" fill="#263238"/>
            <g id="Grupo_1026881" data-name="Grupo 1026881" transform="translate(15.116 10.35)">
              <path id="Trazado_724690" data-name="Trazado 724690" d="M383.215,131.645a8.682,8.682,0,0,0-.826.952c-.066-.034-.133-.067-.2-.1-.887-.475-1.142-.988-1.155-1.414a1.3,1.3,0,0,1,.139-.6,1.258,1.258,0,0,1,.191-.295,4.745,4.745,0,0,0,1.548,1.292C383.1,131.586,383.215,131.645,383.215,131.645Z" transform="translate(-381.037 -130.186)" fill="#263238"/>
              <path id="Trazado_724691" data-name="Trazado 724691" d="M383.1,131.478l-.251.274c-.834-.45-1.362-.878-1.488-1.271a1.255,1.255,0,0,1,.191-.295A4.744,4.744,0,0,0,383.1,131.478Z" transform="translate(-381.222 -130.186)" fill="#fff"/>
              <path id="Trazado_724692" data-name="Trazado 724692" d="M382.193,133.674c-.887-.475-1.142-.988-1.155-1.414a3.243,3.243,0,0,1,.881.723A1.212,1.212,0,0,1,382.193,133.674Z" transform="translate(-381.038 -131.367)" fill="#de5753"/>
            </g>
            <path id="Trazado_724693" data-name="Trazado 724693" d="M371.667,114.068s2.359-2.163,2.649-4.2c0,0,7.681-.838,6.277,5.557,0,0,2.236-5.418-3.789-7.006s-8.169,6.273-5.7,9.367C371.119,117.754,370.206,115.425,371.667,114.068Z" transform="translate(-359.693 -107.319)" fill="#263238"/>
            <path id="Trazado_724694" data-name="Trazado 724694" d="M385.117,109.155a5.287,5.287,0,0,1,1.221,3.054c-.088.8-1.237,1.256-1.237,1.256l-1.135-1.886-.168,1.529a4.865,4.865,0,0,1-3.836-3.517l1.45-2.03S384.465,108.451,385.117,109.155Z" transform="translate(-365.308 -106.952)" fill="#263238"/>
          </g>
          <g id="Grupo_1026884" data-name="Grupo 1026884" transform="translate(19.587 25.718)">
            <g id="Grupo_1026883" data-name="Grupo 1026883" transform="translate(0 2.73)">
              <path id="Trazado_724695" data-name="Trazado 724695" d="M354.152,172.895a94.411,94.411,0,0,0-2-18.363c-.49-2.441,2.475-4.754,2.475-4.754s1.743.054,2.064.053c.352,0,.713,0,1.073.01a51.11,51.11,0,0,1,7.322.554c.6.1,1.213.221,1.816.339.194.042,1.466.2,1.654.242,0,0,3.006,4.417,2.878,7.288-.074,1.6.62,2.374.115,6.173-.3,2.585-2.592,6.147-3.163,9.764Z" transform="translate(-352.096 -149.778)" fill="#fff"/>
            </g>
            <path id="Trazado_724696" data-name="Trazado 724696" d="M376.99,147.223l-1.512-2.643-1.008,1.363-3.284-2.506-.533.825.846,3.8s2.982,1.622,3.147,1.64A29.243,29.243,0,0,0,376.99,147.223Z" transform="translate(-362.663 -143.437)" fill="#fff"/>
            <path id="Trazado_724697" data-name="Trazado 724697" d="M377.927,152.146,377,153.869l-1.614-2-1.467,1.982-1.743-1.1,1.793,1.771,1.391-2.2,1.863,2.186Z" transform="translate(-363.53 -148.237)" opacity="0.3"/>
            <path id="Trazado_724698" data-name="Trazado 724698" d="M379.571,152.917c3.027,6.947,1.885,15.422,1.3,22.659" transform="translate(-367.741 -148.835)" fill="none" stroke="#000" stroke-linecap="round" stroke-linejoin="round" stroke-width="0.5" opacity="0.2"/>
          </g>
          <path id="Trazado_724699" data-name="Trazado 724699" d="M387.346,172.436s2.936-10.622,2.77-13.38-3.477-9.762-3.477-9.762l-1.827-.329-2.081-1.123s4.361,6.622,5.114,11.136c.5,2.969-2.126,11.891-2.181,14.107l-1.3,13.476,4.729-.855Z" transform="translate(-349.953 -120.226)" fill="#407bff"/>
          <path id="Trazado_724700" data-name="Trazado 724700" d="M387.038,163.2a14.353,14.353,0,0,0,1.212-4.688c.1-2.3.25-4.013.25-4.013l-2.383-2.2.6-2.3s-1.166-.906-2.242-1.82a9.758,9.758,0,0,0-2.415-1.57s5.7,9.114,5.358,12.548C387.085,162.468,387.038,163.2,387.038,163.2Z" transform="translate(-349.571 -119.523)" fill="#407bff"/>
          <path id="Trazado_724701" data-name="Trazado 724701" d="M387.038,163.2a14.353,14.353,0,0,0,1.212-4.688c.1-2.3.25-4.013.25-4.013l-2.383-2.2.6-2.3s-1.166-.906-2.242-1.82a9.758,9.758,0,0,0-2.415-1.57s5.7,9.114,5.358,12.548C387.085,162.468,387.038,163.2,387.038,163.2Z" transform="translate(-349.571 -119.523)" opacity="0.3"/>
          <path id="Trazado_724702" data-name="Trazado 724702" d="M394.971,182.052s2.207-8.655,2.122-10.1a18.988,18.988,0,0,0-.435-2.894,7.818,7.818,0,0,1,.816,3.475c-.1,1.715-1.622,9.925-1.622,9.925Z" transform="translate(-356.923 -132.308)" opacity="0.2"/>
          <g id="Grupo_1026885" data-name="Grupo 1026885" transform="translate(14.519 111.103)">
            <path id="Trazado_724703" data-name="Trazado 724703" d="M341.92,349.345l3.727-.581,1.062-7.025-5.141.843Z" transform="translate(-341.033 -341.738)" fill="#9f5b53"/>
            <path id="Trazado_724704" data-name="Trazado 724704" d="M345.052,354.012l-1.3.335a.95.95,0,0,0-.639.576c-.485,1.215-1.147.974-2.208.223-.533.073-.519.7-.52.874l-.06,3.779a.573.573,0,0,0,.558.588.559.559,0,0,0,.167-.02l4.283-1.1,6-1.547c1.635-.422,1.549-2.157.836-2.136-3.2.112-5.576-.227-6.739-.867C345.215,354.6,345.364,354.441,345.052,354.012Z" transform="translate(-340.326 -348.727)" fill="#263238"/>
            <path id="Trazado_724705" data-name="Trazado 724705" d="M355.595,353.729a.548.548,0,0,0,.111-.481.245.245,0,0,0-.165-.2c-.481-.183-1.908.993-2.067,1.129a.075.075,0,0,0-.032.055.074.074,0,0,0,.067.081,6.11,6.11,0,0,0,1.256-.157A1.5,1.5,0,0,0,355.595,353.729Zm-.124-.533a.1.1,0,0,1,.068.087.439.439,0,0,1-.081.351c-.3.37-1.218.481-1.72.515C354.335,353.678,355.206,353.1,355.471,353.2Z" transform="translate(-347.794 -348.166)" fill="#407bff"/>
            <path id="Trazado_724706" data-name="Trazado 724706" d="M353.553,353.429c.435-.329,1.25-1.393,1.085-1.8-.031-.087-.122-.176-.35-.149-.916.128-.885,1.823-.868,1.891a.075.075,0,0,0,.041.071.091.091,0,0,0,.051-.013Zm.739-1.812c.169-.026.185.034.19.055.113.246-.457,1.1-.914,1.519.014-.4.1-1.417.663-1.563Z" transform="translate(-347.779 -347.281)" fill="#407bff"/>
            <path id="Trazado_724707" data-name="Trazado 724707" d="M352.779,355.8a1.625,1.625,0,0,0-.919.994" transform="translate(-346.893 -349.744)" fill="none" stroke="#407bff" stroke-linecap="round" stroke-linejoin="round" stroke-width="0.5"/>
            <path id="Trazado_724708" data-name="Trazado 724708" d="M355.015,356.725a1.624,1.624,0,0,0-.919.994" transform="translate(-348.167 -350.272)" fill="none" stroke="#407bff" stroke-linecap="round" stroke-linejoin="round" stroke-width="0.5"/>
            <path id="Trazado_724709" data-name="Trazado 724709" d="M357.651,357.309a1.625,1.625,0,0,0-.919.994" transform="translate(-349.668 -350.605)" fill="none" stroke="#407bff" stroke-linecap="round" stroke-linejoin="round" stroke-width="0.5"/>
          </g>
          <g id="Grupo_1026886" data-name="Grupo 1026886" transform="translate(50.498 97.768)">
            <path id="Trazado_724710" data-name="Trazado 724710" d="M425.727,320.984l3.745-.449-.373-9.765-5.214,4.074Z" transform="translate(-423.884 -310.77)" fill="#9f5b53"/>
            <path id="Trazado_724711" data-name="Trazado 724711" d="M430.746,329.417l-1.309.288a.951.951,0,0,0-.659.553c-.528,1.2-1.181.933-2.215.145-.535.054-.544.684-.551.854l-.194,3.774a.572.572,0,0,0,.7.593l4.319-.952,6.05-1.334c1.649-.363,1.625-2.1.912-2.1-3.2,0-5.565-.424-6.7-1.1C430.889,330.013,431.043,329.857,430.746,329.417Z" transform="translate(-424.985 -321.388)" fill="#263238"/>
            <path id="Trazado_724712" data-name="Trazado 724712" d="M441.508,329.378a.547.547,0,0,0,.128-.476.245.245,0,0,0-.158-.207c-.474-.2-1.942.925-2.106,1.056a.075.075,0,0,0-.034.053.074.074,0,0,0,.064.083,6.1,6.1,0,0,0,1.261-.112A1.5,1.5,0,0,0,441.508,329.378Zm-.105-.536a.1.1,0,0,1,.065.089.435.435,0,0,1-.094.347c-.31.36-1.234.438-1.737.455C440.251,329.284,441.141,328.733,441.4,328.841Z" transform="translate(-432.684 -320.963)" fill="#407bff"/>
            <path id="Trazado_724713" data-name="Trazado 724713" d="M439.45,328.958c.446-.313,1.3-1.348,1.148-1.762-.028-.088-.116-.181-.344-.161-.92.1-.949,1.79-.934,1.859a.075.075,0,0,0,.038.072.089.089,0,0,0,.051-.012Zm.8-1.785c.171-.02.183.04.188.061.1.251-.5,1.086-.967,1.486.028-.4.15-1.413.718-1.538Z" transform="translate(-432.672 -320.03)" fill="#407bff"/>
            <path id="Trazado_724714" data-name="Trazado 724714" d="M438.63,331.3a1.623,1.623,0,0,0-.953.961" transform="translate(-431.738 -322.459)" fill="none" stroke="#407bff" stroke-linecap="round" stroke-linejoin="round" stroke-width="0.5"/>
            <path id="Trazado_724715" data-name="Trazado 724715" d="M440.833,332.3a1.624,1.624,0,0,0-.954.961" transform="translate(-432.992 -323.031)" fill="none" stroke="#407bff" stroke-linecap="round" stroke-linejoin="round" stroke-width="0.5"/>
            <path id="Trazado_724716" data-name="Trazado 724716" d="M443.447,332.98a1.625,1.625,0,0,0-.954.961" transform="translate(-434.481 -323.417)" fill="none" stroke="#407bff" stroke-linecap="round" stroke-linejoin="round" stroke-width="0.5"/>
          </g>
          <g id="Grupo_1026887" data-name="Grupo 1026887" transform="translate(13.757 51.566)">
            <path id="Trazado_724717" data-name="Trazado 724717" d="M356.429,243.422l-10.112-6.79s-1.784,13.15-3.623,18.98S338.557,286,338.557,286h7.174s3.456-19.713,5.064-22.514,5.688-19.459,5.86-19.913Z" transform="translate(-338.557 -222.351)" fill="#263238"/>
            <path id="Trazado_724718" data-name="Trazado 724718" d="M355.821,239.554l9.626,8.642.927-3.583-10.294-6.849Z" transform="translate(-348.388 -222.997)" opacity="0.2"/>
            <path id="Trazado_724719" data-name="Trazado 724719" d="M363.465,214.326c.047.068,19.508,16.275,20.871,19.944s3.3,28.714,3.3,28.714l-5.784,1.122-5.06-25.332s-13.4-7.647-19.37-10.59c-5.371-2.647-8.035-8.877-7.89-9.715s2.834-5.027,2.834-5.027Z" transform="translate(-344.802 -209.147)" fill="#263238"/>
            <path id="Trazado_724720" data-name="Trazado 724720" d="M366.44,213.824l.49-9.05L352.7,203.466l-3.157,9.323Z" transform="translate(-344.81 -203.466)" fill="#263238"/>
            <path id="Trazado_724721" data-name="Trazado 724721" d="M385.455,213.116l-2.725-3.051.555-4.105,2.544.234Z" transform="translate(-363.71 -204.886)" opacity="0.2"/>
          </g>
          <g id="Grupo_1026890" data-name="Grupo 1026890" transform="translate(6.061 26.544)">
            <path id="Trazado_724722" data-name="Trazado 724722" d="M322.348,213.171l-.133,3.991a8.547,8.547,0,0,0-.981,1.3,3.273,3.273,0,0,0-.471,2.494c.253,1.113.785.457.785.457a.948.948,0,0,0,1.309.665,1.011,1.011,0,0,0,1.326.6,4.839,4.839,0,0,0,1.6-.6c.419-.361.572-2.344.572-2.344l-.776-1.842.943-4.427C326.442,213.452,322.348,213.171,322.348,213.171Z" transform="translate(-320.682 -183.97)" fill="#b97964"/>
            <path id="Trazado_724723" data-name="Trazado 724723" d="M323.1,179.028l2.564-15.7a3.91,3.91,0,0,1,.918-1.947c2.312-2.639,9.271-10.592,9.349-10.806.218-.6,3.345-2.8,5.227-.732s-.685,7.221-.685,7.221l-9.411,8.065-3.086,14.931Z" transform="translate(-322.058 -147.418)" fill="#407bff"/>
            <path id="Trazado_724724" data-name="Trazado 724724" d="M355.607,148.28a.723.723,0,0,0-.714-.67l-2.2.229c-2.167.35-2.163-.13-4.321,1.323a11.37,11.37,0,0,0-1.01,3.191,43.969,43.969,0,0,0,.467,4.838c.2,1.6.451,3.41.692,5.111.31,2.169.28,5.421.381,6.116l-5.028,14.254,7.281,1.838c.75-3.425,3.919-18.175,4.427-24.995A65.947,65.947,0,0,0,355.607,148.28Z" transform="translate(-333.889 -146.639)" fill="#407bff"/>
            <g id="Grupo_1026888" data-name="Grupo 1026888" transform="translate(18.37)">
              <path id="Trazado_724725" data-name="Trazado 724725" d="M366.536,145.45s1.771,4.714-.322,15.854l-2.869-8.49,1.6-2.057-1.408-3.806s2.068-1.03,2.952-1.6Z" transform="translate(-363.345 -145.354)" fill="#407bff"/>
            </g>
            <g id="Grupo_1026889" data-name="Grupo 1026889" transform="translate(18.37)" opacity="0.2">
              <path id="Trazado_724726" data-name="Trazado 724726" d="M366.536,145.45s1.771,4.714-.322,15.854l-2.869-8.49,1.6-2.057-1.408-3.806s2.068-1.03,2.952-1.6Z" transform="translate(-363.345 -145.354)"/>
            </g>
            <path id="Trazado_724727" data-name="Trazado 724727" d="M353.862,172.822l2.356-2.38-2.064,4.478Z" transform="translate(-339.576 -159.64)" opacity="0.2"/>
          </g>
        </g>
      </g>
      <g id="Character_2" data-name="Character 2" transform="translate(78.974 85.761)">
        <g id="Grupo_1026908" data-name="Grupo 1026908" transform="translate(0 0)">
          <g id="Grupo_1026892" data-name="Grupo 1026892" transform="translate(44.57 30.789)">
            <path id="Trazado_724728" data-name="Trazado 724728" d="M279.6,205.646l3.8-1.316a8.6,8.6,0,0,0,1.573.454,3.3,3.3,0,0,0,2.515-.458c.955-.64.146-.9.146-.9a.955.955,0,0,0,.153-1.47,1.017,1.017,0,0,0,.082-1.462,4.869,4.869,0,0,0-1.138-1.289c-.49-.264-2.41.308-2.41.308l-1.452,1.4-4.5.712C278.388,201.7,279.6,205.646,279.6,205.646Z" transform="translate(-278.369 -199.134)" fill="#e9b376"/>
            <path id="Trazado_724729" data-name="Trazado 724729" d="M293.538,200.351s1.283,1.407,1.323,1.972a3.7,3.7,0,0,1-.348,1.331.32.32,0,0,1-.539.087,1.823,1.823,0,0,1-.428-1.276s-.2.668-1.929-.058" transform="translate(-285.913 -199.827)" fill="none" stroke="#263238" stroke-linecap="round" stroke-linejoin="round" stroke-width="0.25"/>
          </g>
          <g id="Grupo_1026893" data-name="Grupo 1026893" transform="translate(29.873 21.479)">
            <path id="Trazado_724730" data-name="Trazado 724730" d="M245.322,177.512a11.148,11.148,0,0,1,2.581,2.642c1.2,1.714,2.5,10.4,2.5,10.4l11.277-2.215.989,5.675s-11.166,3.357-13.807,3.5-4.743-4.428-4.623-4.714S245.322,177.512,245.322,177.512Z" transform="translate(-244.237 -177.512)" fill="#263238"/>
            <path id="Trazado_724731" data-name="Trazado 724731" d="M284.893,203.159a9.525,9.525,0,0,1,.929-.221c.059.019.722,4.983.76,5s-.844.208-.844.208Z" transform="translate(-267.387 -191.989)" fill="#407bff"/>
            <path id="Trazado_724732" data-name="Trazado 724732" d="M284.893,203.159a9.525,9.525,0,0,1,.929-.221c.059.019.722,4.983.76,5s-.844.208-.844.208Z" transform="translate(-267.387 -191.989)" fill="#fff" opacity="0.8"/>
          </g>
          <g id="Grupo_1026894" data-name="Grupo 1026894" transform="translate(8.105 107.815)">
            <path id="Trazado_724733" data-name="Trazado 724733" d="M194.4,386.887l3.721.617,2.375-9.479-5.336,2.624Z" transform="translate(-194.088 -378.025)" fill="#263238"/>
            <path id="Trazado_724734" data-name="Trazado 724734" d="M198.427,394.945l-1.3.33a.951.951,0,0,0-.641.574c-.489,1.213-1.15.97-2.21.215-.533.071-.521.7-.523.872l-.073,3.779a.573.573,0,0,0,.723.57l4.286-1.09,6-1.526c1.637-.416,1.557-2.152.844-2.133-3.2.1-5.575-.245-6.736-.889C198.589,395.536,198.738,395.376,198.427,394.945Z" transform="translate(-193.681 -387.659)" fill="#263238"/>
            <path id="Trazado_724735" data-name="Trazado 724735" d="M208.992,394.685a.548.548,0,0,0,.113-.48.246.246,0,0,0-.164-.2c-.48-.185-1.911.987-2.071,1.123a.074.074,0,0,0,.034.136,6.08,6.08,0,0,0,1.256-.152A1.5,1.5,0,0,0,208.992,394.685Zm-.122-.533a.1.1,0,0,1,.067.087.436.436,0,0,1-.083.35c-.3.369-1.219.477-1.721.51C207.732,394.631,208.6,394.052,208.87,394.152Z" transform="translate(-201.172 -387.112)" fill="#407bff"/>
            <path id="Trazado_724736" data-name="Trazado 724736" d="M206.948,394.375c.436-.327,1.254-1.389,1.091-1.8-.031-.087-.122-.177-.35-.15-.916.124-.891,1.82-.874,1.888a.075.075,0,0,0,.04.071.093.093,0,0,0,.051-.013Zm.745-1.81c.17-.025.185.034.19.056.112.247-.46,1.1-.919,1.516.015-.4.1-1.417.669-1.56Z" transform="translate(-201.157 -386.222)" fill="#407bff"/>
            <path id="Trazado_724737" data-name="Trazado 724737" d="M206.169,396.741a1.624,1.624,0,0,0-.922.991" transform="translate(-200.267 -388.682)" fill="none" stroke="#407bff" stroke-linecap="round" stroke-linejoin="round" stroke-width="0.5"/>
            <path id="Trazado_724738" data-name="Trazado 724738" d="M208.4,397.675a1.624,1.624,0,0,0-.922.991" transform="translate(-201.539 -389.214)" fill="none" stroke="#407bff" stroke-linecap="round" stroke-linejoin="round" stroke-width="0.5"/>
            <path id="Trazado_724739" data-name="Trazado 724739" d="M211.037,398.269a1.623,1.623,0,0,0-.922.991" transform="translate(-203.039 -389.552)" fill="none" stroke="#407bff" stroke-linecap="round" stroke-linejoin="round" stroke-width="0.5"/>
          </g>
          <g id="Grupo_1026900" data-name="Grupo 1026900" transform="translate(24.132)">
            <g id="Grupo_1026899" data-name="Grupo 1026899" transform="translate(0 1.372)">
              <g id="Grupo_1026898" data-name="Grupo 1026898">
                <g id="Grupo_1026897" data-name="Grupo 1026897">
                  <g id="Grupo_1026895" data-name="Grupo 1026895" transform="translate(1.151 9.289)">
                    <path id="Trazado_724740" data-name="Trazado 724740" d="M233.578,161.03a16.316,16.316,0,0,0,.321-6.832s.243-.067.244-.071c-.071-.627-.161-1.211-.253-1.719a.076.076,0,0,1,0-.019l5.252,4.594a19.762,19.762,0,0,0-.208,5.238s.4,2.146-2.3,1.786C234.652,163.744,233.578,161.03,233.578,161.03Z" transform="translate(-233.578 -152.389)" fill="#e9b376"/>
                    <path id="Trazado_724741" data-name="Trazado 724741" d="M241.7,165.819l-3.243-1.321c.131,1.1.851,2.5,3.179,2.988A10.514,10.514,0,0,1,241.7,165.819Z" transform="translate(-236.355 -159.284)" opacity="0.2"/>
                  </g>
                  <g id="Grupo_1026896" data-name="Grupo 1026896">
                    <path id="Trazado_724742" data-name="Trazado 724742" d="M235.1,139.187c-.224,3.777-.426,5.9,1.241,8.04a4.955,4.955,0,0,0,8.589-1.557c1.216-3.281,1.378-8.907-2.123-10.81A5.221,5.221,0,0,0,235.1,139.187Z" transform="translate(-233.209 -132.75)" fill="#e9b376"/>
                    <path id="Trazado_724743" data-name="Trazado 724743" d="M233.894,131.885c1.591-2.15,4.943-.6,6.261.633.2.184-3.057,1.353-2.863,1.308l-.988.943a8.019,8.019,0,0,0-.488,2.388,5.758,5.758,0,0,1-1.229,2.831,14.74,14.74,0,0,1-2.157,2.193c-1.232-.8-1.032-3.085-1.281-4.492C230.78,135.593,230.553,131.636,233.894,131.885Z" transform="translate(-230.929 -130.815)" fill="#263238"/>
                    <path id="Trazado_724744" data-name="Trazado 724744" d="M230.936,149.91a3.549,3.549,0,0,0,1.513,2.281c1.051.691,1.617-.481,1.654-1.676.033-1.075-.12-2.408-1.334-2.62A1.633,1.633,0,0,0,230.936,149.91Z" transform="translate(-230.904 -140.526)" fill="#e9b376"/>
                    <path id="Trazado_724745" data-name="Trazado 724745" d="M247.446,148.935c-.047.384.12.718.372.746s.493-.261.54-.645-.12-.717-.371-.745S247.493,148.551,247.446,148.935Z" transform="translate(-240.319 -140.765)" fill="#263238"/>
                    <path id="Trazado_724746" data-name="Trazado 724746" d="M256.165,150.168c-.047.384.119.717.371.745s.493-.261.54-.644-.12-.717-.371-.745S256.212,149.784,256.165,150.168Z" transform="translate(-245.284 -141.467)" fill="#263238"/>
                    <path id="Trazado_724747" data-name="Trazado 724747" d="M253.119,150.184s.983,2.053,1.279,2.877a1.825,1.825,0,0,1-1.485.084Z" transform="translate(-243.436 -141.844)" fill="#d58745"/>
                    <path id="Trazado_724748" data-name="Trazado 724748" d="M245.665,144.54a.182.182,0,0,0,.183,0,1.458,1.458,0,0,1,1.306-.136.184.184,0,0,0,.243-.085.18.18,0,0,0-.084-.24,1.815,1.815,0,0,0-1.651.153.18.18,0,0,0-.062.248A.176.176,0,0,0,245.665,144.54Z" transform="translate(-239.257 -138.292)" fill="#263238"/>
                    <path id="Trazado_724749" data-name="Trazado 724749" d="M247.672,158.274a2.253,2.253,0,0,1-1.494-.961" transform="translate(-239.601 -145.903)" fill="none" stroke="#263238" stroke-linecap="round" stroke-linejoin="round" stroke-width="0.75"/>
                  </g>
                  <path id="Trazado_724750" data-name="Trazado 724750" d="M233.258,150.173a.689.689,0,0,1,.751-.154,1.184,1.184,0,0,1,.583.547,1.891,1.891,0,0,1,.242.938" transform="translate(-232.244 -141.723)" fill="none" stroke="#000" stroke-linecap="round" stroke-linejoin="round" stroke-width="0.5" opacity="0.2"/>
                </g>
                <path id="Trazado_724751" data-name="Trazado 724751" d="M258.471,146.41a.183.183,0,0,0,.127-.295,1.781,1.781,0,0,0-1.487-.7.183.183,0,0,0-.163.2.179.179,0,0,0,.2.162,1.39,1.39,0,0,1,1.172.567A.179.179,0,0,0,258.471,146.41Z" transform="translate(-245.734 -139.128)" fill="#263238"/>
              </g>
            </g>
            <path id="Trazado_724752" data-name="Trazado 724752" d="M237.791,130.071a6.4,6.4,0,0,1,6.158-2.348c3.259.532,5.1,2.761,5.314,5a4.54,4.54,0,0,1-.288,2.217.465.465,0,0,1-.868-.024,2.981,2.981,0,0,0-.149-.333q-.017.039-.036.077a.466.466,0,0,1-.879-.148,2.3,2.3,0,0,0-.079-.426l-.006.01a.462.462,0,0,1-.846-.1,3.354,3.354,0,0,0-4.582-1.966l-1.328.92A5.788,5.788,0,0,1,237.791,130.071Z" transform="translate(-234.826 -127.628)" fill="#263238"/>
          </g>
          <path id="Trazado_724753" data-name="Trazado 724753" d="M244.017,194.022c-.24.285-1.321,33.853-2.462,34.924s-6.4.786-6.534.571,1.791-19.64,1.731-19.426,4.622-20.211,4.622-20.211Z" transform="translate(-209.113 -163.076)" fill="#263238"/>
          <g id="Grupo_1026901" data-name="Grupo 1026901" transform="translate(18.462 16.603)">
            <path id="Trazado_724754" data-name="Trazado 724754" d="M229.9,169.762l.167,1.273,1.533,1.8s1.029,9.45,1.029,15.315-2.329,17.8-3.483,20.422-11.411-1.206-11.411-1.206l.944-34.065,3.356-4.063,2.727-3.049Z" transform="translate(-217.735 -166.187)" fill="#407bff"/>
            <path id="Trazado_724755" data-name="Trazado 724755" d="M229.9,169.762l.167,1.273,1.533,1.8s1.029,9.45,1.029,15.315-2.329,17.8-3.483,20.422-11.411-1.206-11.411-1.206l.944-34.065,3.356-4.063,2.727-3.049Z" transform="translate(-217.735 -166.187)" fill="#fff" opacity="0.8"/>
          </g>
          <g id="Grupo_1026902" data-name="Grupo 1026902" transform="translate(43.42 96.765)">
            <path id="Trazado_724756" data-name="Trazado 724756" d="M276.937,362.689l3.726-.583-.723-9.745-4.242,4.167Z" transform="translate(-275.698 -352.361)" fill="#263238"/>
            <path id="Trazado_724757" data-name="Trazado 724757" d="M281.243,370.951l-1.3.335a.951.951,0,0,0-.639.576c-.484,1.215-1.147.974-2.208.224-.533.073-.519.7-.52.874l-.059,3.779a.573.573,0,0,0,.558.588.591.591,0,0,0,.167-.02l4.282-1.107,6-1.55c1.635-.422,1.548-2.158.835-2.136-3.2.113-5.576-.224-6.74-.863C281.407,371.541,281.555,371.38,281.243,370.951Z" transform="translate(-276.166 -362.946)" fill="#263238"/>
            <path id="Trazado_724758" data-name="Trazado 724758" d="M291.783,370.664a.546.546,0,0,0,.111-.48.246.246,0,0,0-.165-.2c-.481-.183-1.907.995-2.067,1.131a.074.074,0,0,0,.035.136,6.109,6.109,0,0,0,1.256-.158A1.5,1.5,0,0,0,291.783,370.664Zm-.124-.533a.1.1,0,0,1,.068.086.437.437,0,0,1-.081.351c-.3.371-1.218.482-1.719.517C290.523,370.614,291.394,370.032,291.659,370.131Z" transform="translate(-283.631 -362.383)" fill="#407bff"/>
            <path id="Trazado_724759" data-name="Trazado 724759" d="M289.741,370.366c.434-.329,1.248-1.393,1.084-1.8-.031-.087-.122-.176-.35-.149-.916.128-.884,1.823-.867,1.891a.075.075,0,0,0,.041.071.092.092,0,0,0,.051-.013Zm.738-1.813c.169-.026.185.034.19.055.113.246-.456,1.1-.913,1.519.014-.4.1-1.418.662-1.563Z" transform="translate(-283.615 -361.499)" fill="#407bff"/>
            <path id="Trazado_724760" data-name="Trazado 724760" d="M288.967,372.736a1.623,1.623,0,0,0-.918.994" transform="translate(-282.731 -363.963)" fill="none" stroke="#407bff" stroke-linecap="round" stroke-linejoin="round" stroke-width="0.5"/>
            <path id="Trazado_724761" data-name="Trazado 724761" d="M291.2,373.661a1.624,1.624,0,0,0-.918.995" transform="translate(-284.005 -364.49)" fill="none" stroke="#407bff" stroke-linecap="round" stroke-linejoin="round" stroke-width="0.5"/>
            <path id="Trazado_724762" data-name="Trazado 724762" d="M293.841,374.245a1.621,1.621,0,0,0-.918.994" transform="translate(-285.506 -364.822)" fill="none" stroke="#407bff" stroke-linecap="round" stroke-linejoin="round" stroke-width="0.5"/>
          </g>
          <g id="Grupo_1026904" data-name="Grupo 1026904" transform="translate(6.563 43.889)">
            <path id="Trazado_724763" data-name="Trazado 724763" d="M210.44,286.1c-.18.428-4.442,16.141-6.123,18.783s-6.733,23.379-6.733,23.379l-7.484,1.291s3.831-26.6,5.752-32.1,3.786-17.9,3.786-17.9l10.566,6.405" transform="translate(-190.1 -258.026)" fill="#263238"/>
            <path id="Trazado_724764" data-name="Trazado 724764" d="M210.44,286.1c-.18.428-4.442,16.141-6.123,18.783s-6.733,23.379-6.733,23.379l-7.484,1.291s3.831-26.6,5.752-32.1,3.786-17.9,3.786-17.9l10.566,6.405" transform="translate(-190.1 -258.026)" fill="#fff" opacity="0.4"/>
            <path id="Trazado_724765" data-name="Trazado 724765" d="M224.029,256.96c.045.071,19.987,10.872,21.308,14.728s-1.032,29.851-1.032,29.851l-7.15,1.411.074-25.881s-17.095-6.326-22.978-9.111-4.7-8.855-4.525-9.712a49.725,49.725,0,0,1,2.745-5.285Z" transform="translate(-201.153 -242.884)" fill="#263238"/>
            <path id="Trazado_724766" data-name="Trazado 724766" d="M224.029,256.96c.045.071,19.987,10.872,21.308,14.728s-1.032,29.851-1.032,29.851l-7.15,1.411.074-25.881s-17.095-6.326-22.978-9.111-4.7-8.855-4.525-9.712a49.725,49.725,0,0,1,2.745-5.285Z" transform="translate(-201.153 -242.884)" fill="#fff" opacity="0.4"/>
            <g id="Grupo_1026903" data-name="Grupo 1026903" transform="translate(10.843 7.096)">
              <path id="Trazado_724767" data-name="Trazado 724767" d="M228.151,253.646s1.309-5.567,1.253-5.349-10.885-2.259-10.885-2.259l-3.237,5.145Z" transform="translate(-215.282 -246.038)" fill="#263238"/>
              <path id="Trazado_724768" data-name="Trazado 724768" d="M228.151,253.646s1.309-5.567,1.253-5.349-10.885-2.259-10.885-2.259l-3.237,5.145Z" transform="translate(-215.282 -246.038)" fill="#fff" opacity="0.4"/>
            </g>
            <path id="Trazado_724769" data-name="Trazado 724769" d="M217.735,286.693l7.371,7.17,1.07-3.7Z" transform="translate(-205.836 -262.092)" opacity="0.2"/>
            <path id="Trazado_724770" data-name="Trazado 724770" d="M211.006,250.847c-.086-.186,5.877,1.808,5.877,1.808s4.16-3.278,5.3-23.1L210.72,250.052Z" transform="translate(-201.841 -229.559)" opacity="0.2"/>
          </g>
          <path id="Trazado_724771" data-name="Trazado 724771" d="M244.178,176.835l-.413,1.046.53,1.22H245.5l.174-1.133-.956-1.133Z" transform="translate(-214.095 -155.648)" fill="#407bff"/>
          <g id="Grupo_1026905" data-name="Grupo 1026905" transform="translate(7.539 16.603)">
            <path id="Trazado_724772" data-name="Trazado 724772" d="M200.248,181.036c0,.5-.735,14.724-.735,14.724l-7.147,19.528,12.17,2.838s5.649-12.932,6.829-23.364c.574-5.072,1.462-15.627,1.827-20.059a6.911,6.911,0,0,0-.791-3.821l-2.5-4.7-1.678,2.121-6.608,2.121Z" transform="translate(-192.367 -166.187)" fill="#263238"/>
            <path id="Trazado_724773" data-name="Trazado 724773" d="M209.789,204.8l5.058-5.672c.141,0-5.235,9.181-5.235,9.181Z" transform="translate(-202.186 -184.947)" opacity="0.2"/>
            <path id="Trazado_724774" data-name="Trazado 724774" d="M229.184,168.308l2.914,5.06.416,4.36.661.76L232,180.465l.863,9.084,1.273-14.68a7.427,7.427,0,0,0-.846-4.137l-2.425-4.546Z" transform="translate(-213.331 -166.187)" opacity="0.2"/>
            <path id="Trazado_724775" data-name="Trazado 724775" d="M207.573,244.929l5.56,1.228-.607,2.5-6.418-1.532Z" transform="translate(-200.192 -211.024)" opacity="0.2"/>
          </g>
          <g id="Grupo_1026907" data-name="Grupo 1026907" transform="translate(0 20.035)">
            <path id="Trazado_724776" data-name="Trazado 724776" d="M176.535,257.392l-.133,4.019a8.577,8.577,0,0,0-.988,1.306,3.293,3.293,0,0,0-.474,2.512c.254,1.121.79.46.79.46a.955.955,0,0,0,1.318.67,1.017,1.017,0,0,0,1.336.6,4.872,4.872,0,0,0,1.611-.6c.422-.363.577-2.361.577-2.361l-.782-1.855.949-4.459C180.659,257.674,176.535,257.392,176.535,257.392Z" transform="translate(-174.858 -221.553)" fill="#e9b376"/>
            <path id="Trazado_724777" data-name="Trazado 724777" d="M174.862,212.652l4.51-21.212s11.957-16.6,12.271-16.471c0,0,5.153-1.822,6.5,0,2.135,2.882-2.045,8.781-2.045,8.781L185.77,195.308,181,213.439Z" transform="translate(-174.86 -174.159)" fill="#263238"/>
            <g id="Grupo_1026906" data-name="Grupo 1026906" transform="translate(0.327 38.558)">
              <path id="Trazado_724778" data-name="Trazado 724778" d="M175.795,263.708l-.177.938,5.254.674.147-.941Z" transform="translate(-175.618 -263.708)" fill="#407bff"/>
              <path id="Trazado_724779" data-name="Trazado 724779" d="M175.795,263.708l-.177.938,5.254.674.147-.941Z" transform="translate(-175.618 -263.708)" fill="#fff" opacity="0.8"/>
            </g>
          </g>
          <path id="Trazado_724780" data-name="Trazado 724780" d="M233.38,212.61c4.967-9.289,3.82-30.512,3.82-30.512h-1.208s-2.154,19.448-3.8,22.816c-1.932,3.949-3.008,4.936-3.008,4.936l.263,3.584Z" transform="translate(-205.792 -158.645)" fill="#407bff"/>
        </g>
      </g>
      <g id="Character_1" data-name="Character 1" transform="translate(20.422 109.948)">
        <g id="Grupo_1026916" data-name="Grupo 1026916">
          <g id="Grupo_1026909" data-name="Grupo 1026909" transform="translate(14.107)">
            <path id="Trazado_724781" data-name="Trazado 724781" d="M71.672,200.126c-.378-3.525,2.19-2.658,1.854-7.164a5.958,5.958,0,0,1,4.348-6.2,8.4,8.4,0,0,1,3.893-2.79c2.9-.782,10.3,1.126,8.6,7.4-1.013,3.739-.393,3.586.169,5.15.794,2.212-1.117,5.248.991,6.59,0,0-8.1-.166-16.752.334C74.773,203.439,71.9,202.278,71.672,200.126Z" transform="translate(-71.633 -183.801)" fill="#263238"/>
            <path id="Trazado_724782" data-name="Trazado 724782" d="M86.748,218.8a17.1,17.1,0,0,1,3.225,2.245,6.573,6.573,0,0,0,1.212.826c1.166.62,2.23.974,2.518.412a1.934,1.934,0,0,0,.15-.4,2.924,2.924,0,0,0-.617-2.872c-.859-.683-1.272-1.268-1.118-2.193a6.947,6.947,0,0,1,.493-1.592l-.992-.6-3.533-3.566C88.49,213.252,88.609,217.507,86.748,218.8Z" transform="translate(-80.24 -199.326)" fill="#eec1bb"/>
            <path id="Trazado_724783" data-name="Trazado 724783" d="M96.613,219.674c-.972-.577-2.038-1.577-1.91-2.721a5.336,5.336,0,0,1,.276-1.23l1.974,2.613A6.574,6.574,0,0,0,96.613,219.674Z" transform="translate(-84.763 -201.978)" opacity="0.2"/>
            <path id="Trazado_724784" data-name="Trazado 724784" d="M88.106,194.837c.332,3.631.4,5.17,2.27,7.074,2.818,2.863,7.154,1.9,7.9-1.7.672-3.239.015-8.632-3.549-10.158A4.67,4.67,0,0,0,88.106,194.837Z" transform="translate(-81 -187.118)" fill="#eec1bb"/>
            <path id="Trazado_724785" data-name="Trazado 724785" d="M99.185,203.565c.018.384.226.7.465.7s.418-.3.4-.686-.226-.7-.465-.7S99.167,203.181,99.185,203.565Z" transform="translate(-87.321 -194.664)" fill="#263238"/>
            <path id="Trazado_724786" data-name="Trazado 724786" d="M107.5,203.568c.018.372.226.678.464.683s.416-.293.4-.665-.226-.678-.464-.683S107.482,203.2,107.5,203.568Z" transform="translate(-92.056 -194.678)" fill="#263238"/>
            <path id="Trazado_724787" data-name="Trazado 724787" d="M97.2,200.351a.163.163,0,0,0,.129-.042,1.31,1.31,0,0,1,1.2-.334.164.164,0,0,0,.209-.121.193.193,0,0,0-.133-.223,1.634,1.634,0,0,0-1.517.4.182.182,0,0,0,0,.254A.189.189,0,0,0,97.2,200.351Z" transform="translate(-86.098 -192.788)" fill="#263238"/>
            <path id="Trazado_724788" data-name="Trazado 724788" d="M108.254,199.486a.135.135,0,0,0,.083-.08.2.2,0,0,0-.09-.233,1.5,1.5,0,0,0-1.471-.1.165.165,0,0,0-.039.23.17.17,0,0,0,.225.074,1.2,1.2,0,0,1,1.166.09A.157.157,0,0,0,108.254,199.486Z" transform="translate(-91.605 -192.418)" fill="#263238"/>
            <path id="Trazado_724789" data-name="Trazado 724789" d="M105.24,204.037a12.313,12.313,0,0,0,1.209,2.206.28.28,0,0,1-.131.428,1.8,1.8,0,0,1-.973.016Z" transform="translate(-90.77 -195.324)" fill="#d8847c"/>
            <path id="Trazado_724790" data-name="Trazado 724790" d="M99.8,202.655l.833-.2S100.176,203.079,99.8,202.655Z" transform="translate(-87.671 -194.425)" fill="#263238"/>
            <path id="Trazado_724791" data-name="Trazado 724791" d="M108.228,202.663l.833-.2S108.606,203.087,108.228,202.663Z" transform="translate(-92.471 -194.429)" fill="#263238"/>
            <path id="Trazado_724792" data-name="Trazado 724792" d="M88.556,195.092s1.873-2.819,1.776-5.1c0,0,3.585-.935,6.444,2.884a16.265,16.265,0,0,1,1.135,2.5s.684-6.908-5.446-7.474-7.323,8.039-4.337,10.935A4.5,4.5,0,0,1,88.556,195.092Z" transform="translate(-80.135 -186.119)" fill="#263238"/>
            <path id="Trazado_724793" data-name="Trazado 724793" d="M85.4,205.714a2.924,2.924,0,0,0,1.765,1.373c.961.241,1.458-1.3,1.129-2.267a1.932,1.932,0,0,0-2.175-1.252A1.39,1.39,0,0,0,85.4,205.714Z" transform="translate(-79.338 -195.036)" fill="#eec1bb"/>
            <path id="Trazado_724794" data-name="Trazado 724794" d="M89.483,206.523a1.319,1.319,0,0,0-1.4-1.228" transform="translate(-81 -196.039)" fill="none" stroke="#000" stroke-linecap="round" stroke-linejoin="round" stroke-width="0.5" opacity="0.2"/>
            <path id="Trazado_724795" data-name="Trazado 724795" d="M101.936,211.109a10.272,10.272,0,0,0-.65,1.334c-.086-.018-.171-.036-.255-.058-1.154-.27-1.6-.776-1.745-1.256a1.53,1.53,0,0,1-.023-.723,1.471,1.471,0,0,1,.127-.394,5.584,5.584,0,0,0,2.154,1C101.783,211.079,101.936,211.109,101.936,211.109Z" transform="translate(-87.348 -198.727)" fill="#263238"/>
            <path id="Trazado_724796" data-name="Trazado 724796" d="M101.738,210.947l-.214.411a3.734,3.734,0,0,1-2.2-1.051,1.576,1.576,0,0,1,.135-.417A5.908,5.908,0,0,0,101.738,210.947Z" transform="translate(-87.401 -198.657)" fill="#fff"/>
            <path id="Trazado_724797" data-name="Trazado 724797" d="M101.228,213.906c-1.221-.285-1.693-.763-1.846-1.27a4.027,4.027,0,0,1,1.293.586A1.394,1.394,0,0,1,101.228,213.906Z" transform="translate(-87.434 -200.22)" fill="#de5753"/>
          </g>
          <g id="Grupo_1026910" data-name="Grupo 1026910" transform="translate(7.96 99.485)">
            <path id="Trazado_724798" data-name="Trazado 724798" d="M58.8,424.969l3.756-.348-.109-9.771-4.5,3.892Z" transform="translate(-57.695 -414.85)" fill="#407bff"/>
            <path id="Trazado_724799" data-name="Trazado 724799" d="M62.438,433.525l-1.316.253a.952.952,0,0,0-.674.535c-.559,1.182-1.205.9-2.218.085-.536.04-.562.669-.574.839l-.3,3.768a.573.573,0,0,0,.688.612l4.343-.835,6.084-1.17c1.658-.319,1.681-2.056.968-2.079-3.2-.088-5.551-.574-6.673-1.285C62.565,434.125,62.723,433.973,62.438,433.525Z" transform="translate(-57.359 -425.484)" fill="#263238"/>
            <path id="Trazado_724800" data-name="Trazado 724800" d="M73.358,433.672a.546.546,0,0,0,.141-.472.245.245,0,0,0-.152-.211c-.468-.213-1.966.872-2.134,1a.077.077,0,0,0-.036.052.075.075,0,0,0,.062.085,6.1,6.1,0,0,0,1.264-.078A1.494,1.494,0,0,0,73.358,433.672Zm-.09-.539a.1.1,0,0,1,.062.091.437.437,0,0,1-.1.345c-.32.351-1.245.4-1.748.407C72.1,433.544,73.01,433.018,73.268,433.133Z" transform="translate(-65.227 -425.163)" fill="#407bff"/>
            <path id="Trazado_724801" data-name="Trazado 724801" d="M71.288,433.161c.454-.3,1.333-1.312,1.2-1.731-.026-.088-.111-.183-.341-.17-.922.07-1,1.764-.984,1.833a.074.074,0,0,0,.037.073.092.092,0,0,0,.051-.01Zm.85-1.763c.171-.015.183.045.186.066.1.253-.524,1.072-1.007,1.459.039-.4.188-1.408.759-1.518Z" transform="translate(-65.216 -424.193)" fill="#407bff"/>
            <path id="Trazado_724802" data-name="Trazado 724802" d="M70.437,435.476a1.624,1.624,0,0,0-.979.935" transform="translate(-64.248 -426.595)" fill="none" stroke="#407bff" stroke-linecap="round" stroke-linejoin="round" stroke-width="0.5"/>
            <path id="Trazado_724803" data-name="Trazado 724803" d="M72.611,436.541a1.623,1.623,0,0,0-.979.934" transform="translate(-65.486 -427.201)" fill="none" stroke="#407bff" stroke-linecap="round" stroke-linejoin="round" stroke-width="0.5"/>
            <path id="Trazado_724804" data-name="Trazado 724804" d="M75.206,437.288a1.626,1.626,0,0,0-.98.935" transform="translate(-66.963 -427.627)" fill="none" stroke="#407bff" stroke-linecap="round" stroke-linejoin="round" stroke-width="0.5"/>
          </g>
          <g id="Grupo_1026911" data-name="Grupo 1026911" transform="translate(44.243 89.097)">
            <path id="Trazado_724805" data-name="Trazado 724805" d="M143.6,401.009l3.734-.53-.584-9.755-5.125,4.186Z" transform="translate(-141.624 -390.724)" fill="#407bff"/>
            <path id="Trazado_724806" data-name="Trazado 724806" d="M148.845,409.34l-1.3.316a.952.952,0,0,0-.647.567c-.5,1.208-1.16.958-2.211.192-.534.066-.529.7-.532.866l-.112,3.778a.573.573,0,0,0,.55.6.585.585,0,0,0,.167-.018l4.3-1.045,6.019-1.464c1.641-.4,1.578-2.136.865-2.124-3.2.068-5.573-.3-6.727-.959C149,409.932,149.15,409.773,148.845,409.34Z" transform="translate(-142.999 -401.324)" fill="#263238"/>
            <path id="Trazado_724807" data-name="Trazado 724807" d="M159.474,409.152a.547.547,0,0,0,.118-.479.244.244,0,0,0-.162-.2c-.478-.19-1.922.967-2.083,1.1a.076.076,0,0,0-.033.054.075.075,0,0,0,.066.082,6.06,6.06,0,0,0,1.258-.14A1.5,1.5,0,0,0,159.474,409.152Zm-.117-.534a.1.1,0,0,1,.066.087.437.437,0,0,1-.086.35c-.3.366-1.224.464-1.726.492C158.215,409.084,159.093,408.515,159.357,408.617Z" transform="translate(-150.558 -400.817)" fill="#407bff"/>
            <path id="Trazado_724808" data-name="Trazado 724808" d="M157.426,408.8c.439-.323,1.269-1.375,1.11-1.787-.03-.087-.12-.178-.348-.154-.918.115-.911,1.811-.894,1.879a.074.074,0,0,0,.04.071.092.092,0,0,0,.051-.012Zm.764-1.8c.17-.023.184.036.189.058.11.248-.471,1.1-.935,1.506.019-.4.119-1.416.685-1.553Z" transform="translate(-150.544 -399.912)" fill="#407bff"/>
            <path id="Trazado_724809" data-name="Trazado 724809" d="M156.634,411.163a1.624,1.624,0,0,0-.933.981" transform="translate(-149.64 -402.362)" fill="none" stroke="#407bff" stroke-linecap="round" stroke-linejoin="round" stroke-width="0.5"/>
            <path id="Trazado_724810" data-name="Trazado 724810" d="M158.857,412.12a1.623,1.623,0,0,0-.932.981" transform="translate(-150.906 -402.907)" fill="none" stroke="#407bff" stroke-linecap="round" stroke-linejoin="round" stroke-width="0.5"/>
            <path id="Trazado_724811" data-name="Trazado 724811" d="M161.485,412.741a1.625,1.625,0,0,0-.933.981" transform="translate(-152.402 -403.261)" fill="none" stroke="#407bff" stroke-linecap="round" stroke-linejoin="round" stroke-width="0.5"/>
          </g>
          <g id="Grupo_1026912" data-name="Grupo 1026912" transform="translate(0 19.687)">
            <path id="Trazado_724812" data-name="Trazado 724812" d="M40.462,293.9l-.127,3.809a8.152,8.152,0,0,0-.936,1.238,3.12,3.12,0,0,0-.45,2.381c.241,1.063.749.436.749.436a.9.9,0,0,0,1.249.635.965.965,0,0,0,1.266.57,4.616,4.616,0,0,0,1.527-.569c.4-.345.546-2.237.546-2.237l-.741-1.759.9-4.226C44.37,294.168,40.462,293.9,40.462,293.9Z" transform="translate(-38.872 -266.181)" fill="#eec1bb"/>
            <path id="Trazado_724813" data-name="Trazado 724813" d="M40.9,259.651l2.564-15.7A3.909,3.909,0,0,1,44.382,242c2.312-2.639,9.218-10.62,9.349-10.806.683-.969,3.345-2.795,5.227-.732s-.684,7.221-.684,7.221l-9.411,8.065-3.086,14.931Z" transform="translate(-40.027 -229.524)" fill="#3076b6"/>
          </g>
          <g id="Grupo_1026913" data-name="Grupo 1026913" transform="translate(7.53 43.226)">
            <path id="Trazado_724814" data-name="Trazado 724814" d="M74.232,324.148l-10.112-6.79s-1.785,13.15-3.623,18.98-4.138,30.388-4.138,30.388l6.13-.188s4.5-19.525,6.109-22.326,5.688-19.459,5.86-19.913Z" transform="translate(-56.359 -303.077)" fill="#263238"/>
            <path id="Trazado_724815" data-name="Trazado 724815" d="M73.624,320.28l9.626,8.642.927-3.583-10.294-6.849Z" transform="translate(-66.19 -303.723)" opacity="0.2"/>
            <path id="Trazado_724816" data-name="Trazado 724816" d="M81.514,295.052c.046.068,19.508,16.275,20.871,19.944s3.241,28.191,3.241,28.191L99.9,344.832,94.84,319.5s-13.4-7.647-19.37-10.59c-5.371-2.647-7.849-8.216-7.7-9.054a59.446,59.446,0,0,1,2.648-5.688Z" transform="translate(-62.851 -289.873)" fill="#263238"/>
            <path id="Trazado_724817" data-name="Trazado 724817" d="M70.493,284.192,67.962,289.9a7.04,7.04,0,0,0-.3,5.014l.333.166,16.247-.533.49-9.05Z" transform="translate(-62.607 -284.192)" fill="#263238"/>
            <path id="Trazado_724818" data-name="Trazado 724818" d="M103.258,293.842l-2.725-3.051.555-4.105,2.544.234Z" transform="translate(-81.513 -285.612)" opacity="0.2"/>
          </g>
          <g id="Grupo_1026915" data-name="Grupo 1026915" transform="translate(13.35 17.138)">
            <g id="Grupo_1026914" data-name="Grupo 1026914" transform="translate(24.541 9.509)">
              <path id="Trazado_724819" data-name="Trazado 724819" d="M129.905,254.39l2.292-2.982a8.057,8.057,0,0,0,1.463-.454,3.083,3.083,0,0,0,1.729-1.65c.417-.991-.35-.78-.35-.78a.893.893,0,0,0-.637-1.227.951.951,0,0,0-.687-1.185,4.555,4.555,0,0,0-1.551-.422c-.519.047-1.724,1.48-1.724,1.48l-.417,1.836-3.151,2.872C126.926,251.928,129.905,254.39,129.905,254.39Z" transform="translate(-126.871 -245.687)" fill="#eec1bb"/>
              <path id="Trazado_724820" data-name="Trazado 724820" d="M136.213,248.644a6.592,6.592,0,0,1,2.375,0,3.709,3.709,0,0,1,.912,1.031.32.32,0,0,1-.227.5,1.824,1.824,0,0,1-1.3-.356s.443.539-1.123,1.569" transform="translate(-132.191 -247.3)" fill="none" stroke="#263238" stroke-linecap="round" stroke-linejoin="round" stroke-width="0.25"/>
            </g>
            <path id="Trazado_724821" data-name="Trazado 724821" d="M108.754,232.067a7.81,7.81,0,0,1,3.447,4.952,46.589,46.589,0,0,1,.839,7.976l4.838-3.439,3.014,2.8s-5.03,6.058-8.211,8.286c-2.642,1.85-4.921-2.554-4.921-2.554l.8-18.147Z" transform="translate(-91.447 -228.351)" fill="#3076b6"/>
            <path id="Trazado_724822" data-name="Trazado 724822" d="M109.871,257.389l1.1-15.009s2.63,4.1,2.326,7.954a27.66,27.66,0,0,1-2.326,8.125A5.637,5.637,0,0,1,109.871,257.389Z" transform="translate(-92.65 -234.295)" opacity="0.2"/>
            <path id="Trazado_724823" data-name="Trazado 724823" d="M88.823,235.362c-.924-2.721-1.838-6.618-1.838-6.618-.189-.041-3.172-1.289-3.366-1.331-.6-.118-.144,1.433-.744,1.331-1.821-.307-3.076-2.345-5-2.417L71.9,228.137s-2.454,2.3-1.964,4.741a94.413,94.413,0,0,1,2,18.363l14.234,1.307c.571-3.618,1.631-6.658,2.256-9.184C89.289,239.9,89.535,237.462,88.823,235.362Z" transform="translate(-69.876 -225.154)" fill="#3076b6"/>
            <path id="Trazado_724824" data-name="Trazado 724824" d="M93.769,226.509l-2.062-1.733L90.6,226.1l-3.257-2.5-1.653,1.565,2.038,3.3s2.981,1.622,3.147,1.64S93.769,226.509,93.769,226.509Z" transform="translate(-78.879 -223.604)" fill="#407bff"/>
            <path id="Trazado_724825" data-name="Trazado 724825" d="M72.473,252.832l2.356-2.38-2.064,4.478Z" transform="translate(-71.355 -238.892)" opacity="0.2"/>
            <path id="Trazado_724826" data-name="Trazado 724826" d="M85.449,227.238l3.3,3.157,1.664-2.087,1.546,1.736,1.267-1.822L91.954,231l-1.52-2.2-1.69,2.6Z" transform="translate(-78.744 -225.673)" opacity="0.2"/>
            <path id="Trazado_724827" data-name="Trazado 724827" d="M97.027,230.857a81.863,81.863,0,0,1,.38,24.171" transform="translate(-85.336 -227.734)" fill="none" stroke="#000" stroke-miterlimit="10" stroke-width="0.5" opacity="0.2"/>
          </g>
        </g>
      </g>
      <g id="Sun" transform="translate(49.324 54.103)">
        <g id="freepik--Sun--inject-5">
          <g id="Grupo_1026919" data-name="Grupo 1026919">
            <g id="Grupo_1026917" data-name="Grupo 1026917">
              <path id="Trazado_724828" data-name="Trazado 724828" d="M127.13,64.672c0,.894-1.293,1.6-1.513,2.428s.529,2.113.1,2.857-1.913.73-2.527,1.341-.586,2.091-1.341,2.527-2.006-.326-2.858-.1-1.536,1.513-2.427,1.513-1.6-1.293-2.428-1.513-2.11.532-2.857.1-.727-1.913-1.341-2.527-2.088-.583-2.527-1.341.326-2.014.1-2.863S106,65.561,106,64.667s1.293-1.6,1.513-2.425-.529-2.113-.1-2.857,1.913-.73,2.527-1.344.586-2.088,1.341-2.527,2.006.329,2.857.1,1.536-1.51,2.428-1.51,1.6,1.293,2.427,1.51,2.111-.529,2.858-.1.727,1.913,1.341,2.527,2.088.586,2.527,1.344-.326,2.006-.1,2.857S127.13,63.781,127.13,64.672Z" transform="translate(-105.996 -54.103)" fill="#407bff"/>
            </g>
            <g id="Grupo_1026918" data-name="Grupo 1026918" opacity="0.7" style="isolation: isolate">
              <path id="Trazado_724829" data-name="Trazado 724829" d="M127.13,64.672c0,.894-1.293,1.6-1.513,2.428s.529,2.113.1,2.857-1.913.73-2.527,1.341-.586,2.091-1.341,2.527-2.006-.326-2.858-.1-1.536,1.513-2.427,1.513-1.6-1.293-2.428-1.513-2.11.532-2.857.1-.727-1.913-1.341-2.527-2.088-.583-2.527-1.341.326-2.014.1-2.863S106,65.561,106,64.667s1.293-1.6,1.513-2.425-.529-2.113-.1-2.857,1.913-.73,2.527-1.344.586-2.088,1.341-2.527,2.006.329,2.857.1,1.536-1.51,2.428-1.51,1.6,1.293,2.427,1.51,2.111-.529,2.858-.1.727,1.913,1.341,2.527,2.088.586,2.527,1.344-.326,2.006-.1,2.857S127.13,63.781,127.13,64.672Z" transform="translate(-105.996 -54.103)" fill="#fff"/>
            </g>
          </g>
          <path id="Trazado_724830" data-name="Trazado 724830" d="M117.658,61.682a7.551,7.551,0,1,1-4.087,9.866A7.551,7.551,0,0,1,117.658,61.682Z" transform="translate(-109.981 -58.09)" fill="#407bff"/>
          <path id="Trazado_724831" data-name="Trazado 724831" d="M117.658,61.682a7.551,7.551,0,1,1-4.087,9.866A7.551,7.551,0,0,1,117.658,61.682Z" transform="translate(-109.981 -58.09)" fill="#fff" opacity="0.5" style="isolation: isolate"/>
        </g>
      </g>
    </g>
  </g>
</svg>
