<svg xmlns="http://www.w3.org/2000/svg" width="278.16" height="204.818" viewBox="0 0 278.16 204.818">
  <g id="Grupo_1026609" data-name="Grupo 1026609" transform="translate(-951.84 -3553.149)">
    <path id="Trazado_717261" data-name="Trazado 717261" d="M256.045,6.946c17.063-1.074,33.043,10.991,40.907,26.4s8.9,33.5,7.566,50.8c-1.55,20.065-6.345,40.492-18.157,56.663-10.291,14.089-25.385,24.1-41.614,30.118s-33.608,8.274-50.873,8.872a166.69,166.69,0,0,1-31.625-1.521c-21.419-3.372-41.515-12.526-60.782-22.6-10.065-5.265-20.115-10.9-28.347-18.793a96.232,96.232,0,0,1-13.794-17.23c-11.581-17.819-19.837-38.59-19.291-59.935S51.148,16.6,69.69,6.522c21.6-11.73,48.245-5.764,71.087,3.216,19.757,7.77,41.525,20.277,63.269,20.272,8.746,0,15.636-6.734,22.927-11.3,8.925-5.58,18.367-11.1,29.077-11.768Z" transform="translate(924.992 3578.02)" fill="#f5f9fd"/>
    <g id="Grupo_1026608" data-name="Grupo 1026608" transform="translate(898.733 2954.155)">
      <path id="Trazado_723986" data-name="Trazado 723986" d="M3821.879,2851.23l-1.089,5.935,5.919,2.433-1.625,13.444a8.529,8.529,0,0,0,3.814-.477c4.365-2.444,4.661-19.024,4.661-19.024l-11.685-2.31Z" transform="translate(-3549.523 -2121.825)" fill="#e98870"/>
      <path id="Trazado_723987" data-name="Trazado 723987" d="M3921.581,1699.807a17.316,17.316,0,0,0,7.875-3.7,8.926,8.926,0,0,0,3.08-7.849c-.278-1.607-1.11-3.115-1.13-4.746-.012-1,.284-1.973.369-2.969a7.061,7.061,0,0,0-2.242-5.712,6.359,6.359,0,0,0-5.452-1.976,14.408,14.408,0,0,0-16.5-6.075,8.345,8.345,0,0,0-4.25,2.723,6.414,6.414,0,0,1-1,1.224,5.47,5.47,0,0,1-2.553.761,6.513,6.513,0,0,0-3.78,2.014,4.473,4.473,0,0,0-1.016,4.064c.36,1.253,1.367,2.368,1.224,3.662a7.235,7.235,0,0,1-.3,1.145,5.661,5.661,0,0,0,6.854,7.056c5.75,4.45,12.823,6.286,18.828,10.378Z" transform="translate(-3619.284 -1005.341)"/>
      <path id="Trazado_723988" data-name="Trazado 723988" d="M4190.639,2152.641v-.931H4177.4v17.484c2.667-.067,5.714-.65,7.585-2.647,2.773-2.956,4.74-10.03,5.653-13.9Z" transform="translate(-3885.484 -1462.809)" fill="#e98870"/>
      <path id="Trazado_723989" data-name="Trazado 723989" d="M4184.985,2181.684c-1.871,2-4.918,2.582-7.585,2.647v7.319h13.239V2167.78C4189.726,2171.654,4187.758,2178.727,4184.985,2181.684Z" transform="translate(-3885.484 -1477.949)" fill="#f7a87e"/>
      <path id="Trazado_723990" data-name="Trazado 723990" d="M4012.122,1818.156c-.1,4.544-.22,9.176-1.736,13.458s-4.7,8.233-9.079,9.463a7.316,7.316,0,0,1-3.443.208,10.079,10.079,0,0,1-4.459-2.679,15.383,15.383,0,0,1-3.323-3.846c-1.525-2.758-1.479-6.07-1.81-9.2-.5-4.749-1.95-9.594-.714-14.208a26.653,26.653,0,0,1,14.366-3.683c3.511.17,7.355,1.326,9.111,4.371a12.376,12.376,0,0,1,1.089,6.122Z" transform="translate(-3706.177 -1138.662)" fill="#f7a87e"/>
      <path id="Trazado_723991" data-name="Trazado 723991" d="M3954.62,1766.31a82.425,82.425,0,0,0,24.162-.243,16,16,0,0,0-.512,7.351,9.919,9.919,0,0,0,3.818,6.505,28.918,28.918,0,0,0,1.08-8.113c.032-3.387-.6-6.991-2.875-9.5a12.252,12.252,0,0,0-4.842-3.062,20.35,20.35,0,0,0-15.42.559C3957.272,1761.073,3954.954,1763.295,3954.62,1766.31Z" transform="translate(-3675.604 -1091.893)"/>
      <path id="Trazado_723992" data-name="Trazado 723992" d="M3942.01,3323.281s-1.622,33.54-.9,41.292h45.619s.685-25.831-2.149-38.835l-17.868-8.587-24.7,6.131Z" transform="translate(-3662.702 -2560.767)" fill="#265e91"/>
      <path id="Trazado_723993" data-name="Trazado 723993" d="M4230.99,3619.82l.934.94a17.939,17.939,0,0,1,5.211,12.641v16.316h-3.071v-18.634a17.923,17.923,0,0,0-1.221-6.505l-1.851-4.757Z" transform="translate(-3935.972 -2845.912)" fill="#102a4e"/>
      <path id="Trazado_723994" data-name="Trazado 723994" d="M4491.8,3463.18l7.442,6.157a3.588,3.588,0,0,1,1.25,3.361l-.02.121-11.465-9.436,2.79-.2Z" transform="translate(-4179.051 -2698.341)" fill="#102a4e"/>
      <path id="Trazado_723995" data-name="Trazado 723995" d="M3179.709,2896.415c-.3-.554-.6-1.106-.928-1.646a6.357,6.357,0,0,0-1.821-2.108,8.59,8.59,0,0,0-3-1,5.606,5.606,0,0,1-2.86-1.28c-.269-.269-.527-.608-.9-.655-.527-.065-.925.506-.986,1.033a2.819,2.819,0,0,0,1.159,2.418,8.378,8.378,0,0,0,2.509,1.212c.328.114.653.228.981.346l-5.372,8.953s3.961,1.139,10.566-.021Z" transform="translate(-2934.993 -2158.089)" fill="#f7a87e"/>
      <path id="Trazado_723996" data-name="Trazado 723996" d="M4131.555,2445.168a15.657,15.657,0,0,0,10.856-3.367c-2.857-.653-5.8-1.171-8.151-1.54-.878-.141-1.668-.255-2.345-.352-.676.094-1.47.208-2.351.352-2.134.336-4.766.793-7.375,1.364,1.142,1.411,3.7,3.226,9.365,3.54Z" transform="translate(-3833.471 -1734.322)" fill="#f7a87e"/>
      <path id="Trazado_723997" data-name="Trazado 723997" d="M3807.863,2494.531s-6.892-18.072-11.825-21.507c-1.868-1.3-5.489-2.4-9.269-3.262a15.653,15.653,0,0,1-10.856,3.367c-5.668-.313-8.224-2.129-9.366-3.54-4.051.887-8.045,2.046-10.038,3.434-4.928,3.434-11.819,21.507-11.819,21.507l11.617,2.986-1.291,39.239,28.7.559a4.69,4.69,0,0,0,4.541-3.2,10.273,10.273,0,0,1,10.9-6.927l.548.061-2.907-29.88Z" transform="translate(-3477.83 -1762.283)" fill="#c8e4f6"/>
      <path id="Trazado_723998" data-name="Trazado 723998" d="M4029.522,1995.463a2.025,2.025,0,0,1,.9.1.848.848,0,0,1,.55.67c.038.451-.38.8-.77,1.028a9.654,9.654,0,0,1-3.773,1.276,1.632,1.632,0,0,1-1.019-.117c-1.089-.629.545-1.666,1.051-1.973a6.721,6.721,0,0,1,3.059-.981Z" transform="translate(-3741.949 -1315.601)"/>
      <path id="Trazado_723999" data-name="Trazado 723999" d="M4065.416,2076.227a1.227,1.227,0,1,1-1.218-1.376A1.3,1.3,0,0,1,4065.416,2076.227Z" transform="translate(-3777.689 -1390.4)"/>
      <path id="Trazado_724000" data-name="Trazado 724000" d="M4202.621,1995.463a2.02,2.02,0,0,0-.9.1.849.849,0,0,0-.551.67c-.038.451.381.8.77,1.028a9.657,9.657,0,0,0,3.773,1.276,1.634,1.634,0,0,0,1.02-.117c1.089-.629-.544-1.666-1.051-1.973a6.723,6.723,0,0,0-3.06-.981Z" transform="translate(-3907.877 -1315.601)"/>
      <path id="Trazado_724001" data-name="Trazado 724001" d="M4223.61,2076.227a1.227,1.227,0,1,0,1.218-1.376A1.3,1.3,0,0,0,4223.61,2076.227Z" transform="translate(-3929.019 -1390.4)"/>
      <path id="Trazado_724002" data-name="Trazado 724002" d="M4112.85,2234.347c3.2,0,4.157-5.027,4.157-5.027s-8.159.688-8.317.688c0,0,.96,4.339,4.157,4.339Z" transform="translate(-3820.753 -1535.926)" fill="#fff"/>
      <path id="Trazado_724003" data-name="Trazado 724003" d="M3019.306,807.2c-4.98.934-10.282,2.319-13.526,6.21-4.163,4.995-3.531,12.285-2.676,18.731.615,4.629,1.352,9.541,4.406,13.072,3.493,4.041,9.152,5.3,14.427,6.131a218.2,218.2,0,0,0,47.575,2.251,13.236,13.236,0,0,0,6.122-1.42c3.112-1.889,4.169-5.832,4.872-9.4,1.467-7.46,2.521-15.288.357-22.575-6.988-23.544-43.842-16.325-61.554-13Z" transform="translate(-2778.593 -192.662)" fill="#ffa031"/>
      <path id="Trazado_724004" data-name="Trazado 724004" d="M3417.373,1581.235a11.733,11.733,0,0,1-9.125-5.691,17.676,17.676,0,0,1-2.278-10.762c.038-.471.094-.94.146-1.411a57.674,57.674,0,0,1-13.236,1.49c1.125,5.5,3.622,10.519,8.353,13.543A21.268,21.268,0,0,0,3417.373,1581.235Z" transform="translate(-3146.39 -908.536)" fill="#ffa031"/>
      <path id="Trazado_724005" data-name="Trazado 724005" d="M4376.92,2093.231a6.353,6.353,0,0,0,4.189-1.233,5.19,5.19,0,0,0,2.043-3.806,2.561,2.561,0,0,0-.849-2.2,2.622,2.622,0,0,0-1.795-.39h-.026a2.753,2.753,0,0,0-2.421,2.184l-1.142,5.452Z" transform="translate(-4073.451 -1400.513)" fill="#f7a87e"/>
      <path id="Trazado_724006" data-name="Trazado 724006" d="M4404.576,2118.855a1.112,1.112,0,0,1,.205.158,1.427,1.427,0,0,1,.055,2,.137.137,0,0,1-.1.044.127.127,0,0,1-.091-.038.142.142,0,0,1-.009-.2,1.148,1.148,0,0,0-.046-1.607.655.655,0,0,0-.337-.187,2.843,2.843,0,0,0-1.15,1.373.136.136,0,0,1-.132.088.132.132,0,0,1-.047-.009.139.139,0,0,1-.079-.182,3.069,3.069,0,0,1,3.524-1.885.139.139,0,1,1-.061.272,2.846,2.846,0,0,0-1.727.17Z" transform="translate(-4097.861 -1431.372)" fill="#d26f61"/>
      <path id="Trazado_724007" data-name="Trazado 724007" d="M4391.69,2150.412a.139.139,0,0,1,.19-.053,2.378,2.378,0,0,0,2.334-.213,2.746,2.746,0,0,0,1.179-1.333.139.139,0,1,1,.26.1,2.992,2.992,0,0,1-1.3,1.472,3.145,3.145,0,0,1-1.652.477,2.014,2.014,0,0,1-.966-.258.139.139,0,0,1-.053-.19Z" transform="translate(-4087.346 -1459.995)" fill="#d26f61"/>
      <path id="Trazado_724008" data-name="Trazado 724008" d="M4254.652,2146.794a2.272,2.272,0,1,0-2.272-2.271A2.271,2.271,0,0,0,4254.652,2146.794Z" transform="translate(-3956.123 -1453.897)" fill="#f38e77" opacity="0.47" style="isolation: isolate"/>
      <path id="Trazado_724009" data-name="Trazado 724009" d="M4032.482,2146.794a2.272,2.272,0,1,0-2.272-2.271A2.272,2.272,0,0,0,4032.482,2146.794Z" transform="translate(-3746.817 -1453.897)" fill="#f38e77" opacity="0.47" style="isolation: isolate"/>
      <path id="Trazado_724010" data-name="Trazado 724010" d="M4141.3,2157.27v.015a1.733,1.733,0,0,0,3.466,0v-.015Z" transform="translate(-3851.474 -1468.048)" fill="#f17d6f"/>
      <path id="Trazado_724011" data-name="Trazado 724011" d="M4575.578,2907.261l2.922,7.272-7.17,24.162,5.578,4.664s10.964-25.615,10.964-28.782-2.226-9.907-2.226-9.907l-10.068,2.588Z" transform="translate(-4256.604 -2172.171)" fill="#f7a87e"/>
      <path id="Trazado_724012" data-name="Trazado 724012" d="M3370.119,2953.72l-1.221,6.646-25.675-3.979-.8,7.563s22.373,5.419,31.994,5.647l1.625-13.444Z" transform="translate(-3098.852 -2218.381)" fill="#f7a87e"/>
      <path id="Trazado_724013" data-name="Trazado 724013" d="M3178.734,2934.287a6.368,6.368,0,0,0-1.821-2.108,4.75,4.75,0,0,0-1.052-.51,15.036,15.036,0,0,0-2.19,2.538l.141.05-5.372,8.953s3.961,1.138,10.566-.021l.653-7.255c-.3-.554-.6-1.107-.928-1.646Z" transform="translate(-2934.946 -2197.607)" fill="#f7a87e"/>
      <path id="Trazado_724014" data-name="Trazado 724014" d="M2637.553,2723.024l7.1,20.116a1.876,1.876,0,0,0,2.07,1.227l26.908-4.38a1.876,1.876,0,0,0,1.449-2.524l-7.442-19.366a1.877,1.877,0,0,0-2-1.186l-26.566,3.63a1.874,1.874,0,0,0-1.513,2.479Z" transform="translate(-2434.7 -1995.268)" fill="#1a1d20"/>
      <path id="Trazado_724015" data-name="Trazado 724015" d="M2677.28,2749.1l7.173,20.33,26.29-4.28-7.53-19.595Z" transform="translate(-2472.226 -2022.264)" fill="#c9c8c5"/>
      <path id="Trazado_724016" data-name="Trazado 724016" d="M3187.5,2892.152a16.828,16.828,0,0,0-1.944-.489,5.606,5.606,0,0,1-2.86-1.28c-.269-.269-.527-.608-.9-.655-.527-.065-.925.506-.987,1.033a2.82,2.82,0,0,0,1.159,2.418,8.371,8.371,0,0,0,2.509,1.212l.84.3a14.845,14.845,0,0,1,2.19-2.539Z" transform="translate(-2946.581 -2158.089)" fill="#f7a87e"/>
      <path id="Trazado_724017" data-name="Trazado 724017" d="M3906.93,2702.819l.548-15.309-2.907,14.7Z" transform="translate(-3628.452 -1967.585)" fill="#4db1f0"/>
      <path id="Trazado_724018" data-name="Trazado 724018" d="M4586.1,2949.42l-3.6.565,3.823,3.115Z" transform="translate(-4267.128 -2214.33)" fill="#4db1f0"/>
      <path id="Trazado_724019" data-name="Trazado 724019" d="M4545.438,2714.621l-2.278-15.031,1.631,16.3h3.068Z" transform="translate(-4230.066 -1978.965)" fill="#198a93"/>
      <path id="Trazado_724020" data-name="Trazado 724020" d="M1067.237,2813.456l-1.56,10.586s5.247,27.061,8.107,31.918l-4.845.89s-10.563-16.116-12.258-25.664l4.043-19.855,6.514,2.129Z" transform="translate(-945.463 -2084.236)" fill="#f7a87e"/>
      <path id="Trazado_724021" data-name="Trazado 724021" d="M117.581,1710.55c-2.881-.934-4.365-4.368-3.95-7.366s2.292-5.586,4.348-7.808c2.181-2.363,4.722-4.62,5.662-7.7,1.563-5.12-1.97-10.519-6.326-13.629a11.431,11.431,0,0,1-2.907-2.485c-1.338-1.9-1.075-4.535-.146-6.666s2.424-3.961,3.534-6a18.456,18.456,0,0,0,1.233-14.533c-1.607-4.737-4.954-9.436-9.694-11.032a21.331,21.331,0,0,0-28.12,21.065c.141,3.534,1.063,7.451-.978,10.341a5.963,5.963,0,0,1-4.2,2.451c-1.7.172-3.455-.393-5.088.087-2.963.875-3.949,4.609-3.768,7.691s1.007,6.329-.249,9.152c-2.2,4.942-9.345,5.665-12.311,10.191a10.064,10.064,0,0,0-1.49,4.957,15.071,15.071,0,0,0,13,15.3c3.572.369,7.132-.589,10.592-1.54,9.65,6.547,22.593,7.463,33.554,3.487a13.233,13.233,0,0,0,7.3-5.952Z" transform="translate(0 -973.431)"/>
      <path id="Trazado_724022" data-name="Trazado 724022" d="M410.42,2517.381a12.819,12.819,0,0,1,1.906-9.456l1.824-2.884a10.422,10.422,0,0,0,1.388-7.738l5.472-2.067s-4.848-14.594-8.625-18.041a14.664,14.664,0,0,0-3.589-2.2c-1.654,1.9-5.167,4.552-11.924,4.538-8.288-.015-12.217-3.437-13.514-4.89a16.946,16.946,0,0,0-5.164,2.606c-3.6,3.262-10.519,18.187-10.519,18.187l8.118,4.005s2.3,18.254.606,23.568c-6.429,20.2-5.17,47.76-5.17,47.76l46.243.087-4.067-37.676-2.983-15.789Z" transform="translate(-296.352 -1767.04)" fill="#4db1f0"/>
      <path id="Trazado_724023" data-name="Trazado 724023" d="M650.488,2421.93c6.754,0,10.264-2.658,11.916-4.561a70.888,70.888,0,0,0-11.977-3.859,108.546,108.546,0,0,0-13.461,3.558C638.262,2418.517,642.2,2421.93,650.488,2421.93Z" transform="translate(-550.051 -1709.45)" fill="#f7a87e"/>
      <path id="Trazado_724024" data-name="Trazado 724024" d="M752.112,2167.227c-2.374-1.493-4.793-2.881-7.252-4.23a27.9,27.9,0,0,1-6.265-4.766c.337,1.531.609,3.074.834,4.623,1.063,4.207,3.4,10.088,8.394,12.325a13.623,13.623,0,0,0,4.582,1.221A47.322,47.322,0,0,1,752.112,2167.227Z" transform="translate(-645.796 -1468.952)" fill="#e98870"/>
      <path id="Trazado_724025" data-name="Trazado 724025" d="M1704.223,3403.26h-40.478l-1.335,42.392H1677.7l3.51-35.035h6.5l5.862,35.035h14.111Z" transform="translate(-1516.12 -2641.891)" fill="#265e91"/>
      <path id="Trazado_724026" data-name="Trazado 724026" d="M1874.65,2305.719a16.548,16.548,0,0,0,12.241-5.141c-4.257-.937-8.619-1.663-11.073-2.046l-.041-.3s-.357.05-.981.144c-.624-.094-.981-.144-.981-.144l-.041.3c-2.111.328-5.627.911-9.275,1.663,1.435,2.491,4.368,5.525,10.153,5.525Z" transform="translate(-1706.508 -1600.845)" fill="#f7a87e"/>
      <path id="Trazado_724027" data-name="Trazado 724027" d="M1921.431,2004.106c2.211,1.025,5.753.913,8.933.495V1984.95H1916.03v7.018C1916.849,1996.544,1918.477,2002.736,1921.431,2004.106Z" transform="translate(-1755.054 -1305.705)" fill="#e98870"/>
      <path id="Trazado_724028" data-name="Trazado 724028" d="M1921.431,2118.288c-2.954-1.37-4.582-7.562-5.4-12.138V2124.1h14.334v-5.322C1927.185,2119.2,1923.645,2119.313,1921.431,2118.288Z" transform="translate(-1755.054 -1419.887)" fill="#f7a87e"/>
      <path id="Trazado_724029" data-name="Trazado 724029" d="M1997.837,2323.788c.011-.026.017-.55,1-1.292-.278-.369-2.342,1.028-2.954.853a4.226,4.226,0,0,0-.949,1.156,7.627,7.627,0,0,0-.755,2.536,12.829,12.829,0,0,0-.138,1.777l8.3.779c.112-2.875-2.676-5.645-4.5-5.809Z" transform="translate(-1828.547 -1623.648)" fill="#e98870"/>
      <path id="Trazado_724030" data-name="Trazado 724030" d="M1577.6,2363.375s-3.548-24.206-8.192-27.35c-1.906-1.288-6.248-2.5-10.71-3.481a16.553,16.553,0,0,1-12.241,5.141c-5.849,0-8.718-3.033-10.153-5.525-5.047,1.04-10.346,2.4-12.507,3.865-4.646,3.145-7.665,20.892-7.665,20.892l8.71,9.155s-.269,29.432-.717,31.376h44.96c-.448-1.944-2.816-34.069-2.816-34.069H1577.6Z" transform="translate(-1378.31 -1632.811)" fill="#1f5d9a"/>
      <path id="Trazado_724031" data-name="Trazado 724031" d="M1780.977,1568.449a20.771,20.771,0,0,1-9.705-8.918,14.327,14.327,0,0,1-.334-12.91c1.189-2.308,3.414-4.331,6.011-4.3a9.423,9.423,0,0,1,1.063-4.427,13.61,13.61,0,0,1,2.337-3.51,5.187,5.187,0,0,1,3.765-1.657.392.392,0,0,1,.232.061.419.419,0,0,1,.111.19,4.651,4.651,0,0,1-.1,3.25c2.4-1.613,5.32-1.777,8.192-1.443a21.991,21.991,0,0,1,8.121,2.866,9.942,9.942,0,0,0,4.137,1.651c1.171.064,2.477-.311,3.431.372a2.5,2.5,0,0,1,.92,1.584,3.971,3.971,0,0,1-1.49,3.856,2.657,2.657,0,0,1,1.774,3.039,7.988,7.988,0,0,0-1.771,9.117,5.726,5.726,0,0,1-5.187,2.863,51.473,51.473,0,0,1-18.424,8.99c-.893.24-2.767.205-3.077-.667Z" transform="translate(-1617.062 -879.663)"/>
      <path id="Trazado_724032" data-name="Trazado 724032" d="M1722.813,2499.32s-7.36,12.361-8.373,13.848v4.494l6.786-7.351Z" transform="translate(-1565.137 -1790.292)" fill="#1c538a"/>
      <path id="Trazado_724033" data-name="Trazado 724033" d="M1860.729,1724.043q.026,6.578.056,13.159a31.8,31.8,0,0,1-.29,5.46,23.96,23.96,0,0,1-2.24,6.824c-2.72,5.372-19.346,6.772-24.053-10.759-.738-2.743-2.632-5.117-2.96-7.937-.354-3.056,2.149-5.814,4.541-7.746a13.818,13.818,0,0,1,6.063-2.48c6.456-1.3,13.7-.577,18.884,3.484Z" transform="translate(-1675.144 -1056.076)" fill="#f7a87e"/>
      <path id="Trazado_724034" data-name="Trazado 724034" d="M1807.665,1695.41a6.99,6.99,0,0,0,2.4-1.76,16.859,16.859,0,0,0,4.2-15.145,31.1,31.1,0,0,0,14.782,4.728,14.057,14.057,0,0,0,7.893-1.25c-.185-2.67-.709-5.486-2.86-7.079a11.457,11.457,0,0,0-3.672-1.566,31.332,31.332,0,0,0-8.106-1.625,29.36,29.36,0,0,0-8.584,1.493c-2.881.823-5.908,1.8-7.867,4.07-2.1,2.427-2.559,5.943-1.962,9.1s2.266,6.2,3.768,9.032Z" transform="translate(-1649.187 -1010.603)"/>
      <path id="Trazado_724035" data-name="Trazado 724035" d="M1948.74,2628.6l23.1-4.907,1.42-17.183,4.166,22.09Z" transform="translate(-1785.87 -1891.275)" fill="#1c538a"/>
      <path id="Trazado_724036" data-name="Trazado 724036" d="M1979.89,3068.831s12.448,5.536,25.166,7.217c-.342-4.157-.726-9.026-1.054-13.318Z" transform="translate(-1815.217 -2321.079)" fill="#1c538a"/>
      <path id="Trazado_724037" data-name="Trazado 724037" d="M1738.533,2996.731a20.265,20.265,0,0,1-10.379,2.459,7.4,7.4,0,0,1-2.36-.389,1.378,1.378,0,0,1-.65-.43,5.382,5.382,0,0,1-.3-.647c-.2-.383-.611-.618-.843-.987a2.377,2.377,0,0,1-.278-.849,16.509,16.509,0,0,1-.258-3.642,1.463,1.463,0,0,1,.225-.858,1.529,1.529,0,0,1,.77-.431q2.622-.838,5.3-1.487c-.416-.237-.741-.811-.434-1.177a1.035,1.035,0,0,1,.773-.269,17.49,17.49,0,0,1,7.144,1.133c.463,1.411.849,2.664,1.312,4.075a10.017,10.017,0,0,1-.02,3.5Z" transform="translate(-1573.631 -2250.677)" fill="#f7a87e"/>
      <path id="Trazado_724038" data-name="Trazado 724038" d="M1681.753,2441.384a64.405,64.405,0,0,1,2.348-7.931,36.84,36.84,0,0,1,3.215-5.586c1.838.369,3.469-1.593,3.5-3.467s-.878-2.989-1.882-4.57c-6.169,3.32-10.607,8.3-14.474,14.138-2.907,4.391-8.441,8.382-11.793,12.446-.219,2.521.079,12.372-.258,19.893C1671.146,2460.7,1678.9,2451.385,1681.753,2441.384Z" transform="translate(-1516.12 -1715.405)" fill="#1c538a"/>
      <path id="Trazado_724039" data-name="Trazado 724039" d="M1687.662,2627.49l-2.2,11.234,2.2-4Z" transform="translate(-1537.835 -1911.04)" fill="#1c538a"/>
      <path id="Trazado_724040" data-name="Trazado 724040" d="M733.326,1749.259q.233,6.768.468,13.532a23.27,23.27,0,0,1-.164,4.8,20.744,20.744,0,0,1-1.686,4.925,9.553,9.553,0,0,1-3.151,4.347,8.111,8.111,0,0,1-5.375.9,16.219,16.219,0,0,1-12.106-8.119c-2.7-4.968-3.487-11.341-3.466-16.957a11.147,11.147,0,0,1,3.791-8.08,17.451,17.451,0,0,1,8.5-4.07c3.8-.761,8.256-.38,10.794,2.456a10.368,10.368,0,0,1,2.392,6.271Z" transform="translate(-616.828 -1075.117)" fill="#f7a87e"/>
      <path id="Trazado_724041" data-name="Trazado 724041" d="M651.753,1736.7a6.273,6.273,0,0,0,3.338-3.326A18.938,18.938,0,0,0,656.967,1721c3.788.513,7.5-1.358,10.578-3.63,3.232-2.389,6.265-5.659,6.538-9.67a26.17,26.17,0,0,0,6.45,13.2c-.088-1.923-.255-3.6-.343-5.527a27.572,27.572,0,0,0-.767-6.262,9.3,9.3,0,0,0-3.4-5.188,12.187,12.187,0,0,0-4.508-1.689,20.868,20.868,0,0,0-7.22-.507,15.936,15.936,0,0,0-11.087,7.875,26.317,26.317,0,0,0-3.253,13.511c.012,4.69.949,8.977,1.8,13.588Z" transform="translate(-562.292 -1038.755)"/>
      <path id="Trazado_724042" data-name="Trazado 724042" d="M1147.629,2686.181l-2.819-11.011,5.454,10.01Z" transform="translate(-1028.49 -1955.959)" fill="#4badeb"/>
      <path id="Trazado_724043" data-name="Trazado 724043" d="M553.142,2812.332s-.132-.389-.363-1.052a51.009,51.009,0,0,1-19.384,6.57c-8.432,1.136-16.989.518-25.412-.828.214,1.768,1.057,9.026,1.192,15.206a30.8,30.8,0,0,1,8.256-4.614,29.827,29.827,0,0,1,14.548-1.028,52.9,52.9,0,0,1,10.642,2.983,12.789,12.789,0,0,1,1.865-4.529l1.818-2.886a10.425,10.425,0,0,0,1.373-7.741l5.466-2.078Z" transform="translate(-428.537 -2084.188)" fill="#4badeb"/>
      <path id="Trazado_724044" data-name="Trazado 724044" d="M1259.518,3572.986a5.512,5.512,0,0,1,.705,2.536,2.157,2.157,0,0,1-.714,1.271,1.124,1.124,0,0,0-.322.366.607.607,0,0,0,.331.738,1.146,1.146,0,0,0,.87,0,2.074,2.074,0,0,0-.088.99.713.713,0,0,0,.705.583c.068.5.223,1.11.715,1.232.144.036.293.021.436.059.413.108.7.638,1.122.557.316-.059.454-.421.559-.726.512-1.461,1.542-2.72,1.888-4.228a6.626,6.626,0,0,0-.641-4.28,19.7,19.7,0,0,0-2.477-3.639,1.327,1.327,0,0,0-.547-.474,1.23,1.23,0,0,0-.791.067c-2.084.67-2.424,3.089-1.748,4.954Z" transform="translate(-1136.21 -2797.022)" fill="#f69c7a"/>
      <path id="Trazado_724045" data-name="Trazado 724045" d="M1288.7,3550.653c-.917,2.6,1.78,5.425.943,8.051-.184.582-.486,1.344.009,1.7.363.26.873.043,1.233-.226a4.983,4.983,0,0,0,1.458-1.748,9.444,9.444,0,0,1-1.874,4.464c-.36.466-.729,1.218-.234,1.534.375.24.849-.085,1.168-.4,1.522-1.49,2.975-3.226,3.32-5.328a8.233,8.233,0,0,0-.714-4.491,13.785,13.785,0,0,0-3.615-4.983c-.545.448-1.142.975-1.687,1.423Z" transform="translate(-1163.871 -2779.409)" fill="#f7a87e"/>
      <path id="Trazado_724046" data-name="Trazado 724046" d="M752.954,2238.07a66.556,66.556,0,0,1,.392,15.988c2.822,1.862,6.371,2,9.752,1.982a5.705,5.705,0,0,0,3.452-.738c-.255-1.221-.457-2.45-.618-3.686a13.558,13.558,0,0,1-4.582-1.22c-4.992-2.237-7.331-8.119-8.394-12.325Z" transform="translate(-659.324 -1544.169)" fill="#f7a87e"/>
      <path id="Trazado_724047" data-name="Trazado 724047" d="M1381.44,1434.747a21.28,21.28,0,0,0,11.845-5.177,30.415,30.415,0,0,0,7.688-10.524.3.3,0,0,0-.219-.5,51.456,51.456,0,0,0-11.084-1.979c.237-.826.618-1.411,1.388-1.5-.322,3.458-2.368,7.3-3.914,10.405-.7,1.408-4.1,9.137-5.7,9.275Z" transform="translate(-1251.419 -768.823)" fill="#ffa031"/>
      <path id="Trazado_724048" data-name="Trazado 724048" d="M793.177,630.165c.5-5.083,1.607-10.713,4.491-14.823-.208-.307-.419-.615-.638-.913-11.626-16.105-35.791-19.735-52.739-10.288a38.108,38.108,0,0,0-12.437,11,22.964,22.964,0,0,0-4.4,10.1c-.849,6.295,2.146,12.683,6.731,17.08s10.584,7.035,16.673,8.842a78.045,78.045,0,0,0,22.452,3.217c8.71-.032,18.154-1.958,24.033-8.233a19.288,19.288,0,0,1-3.622-6.939,25,25,0,0,1-.553-9.046Z" transform="translate(-635.168)" fill="#ffa031"/>
      <path id="Trazado_724049" data-name="Trazado 724049" d="M1989.034,709c-4.8-9.208-26.545-19.261-48.1-5.126a13.718,13.718,0,0,0-3.706,3.657,29.693,29.693,0,0,1,5.182,14.225,22.179,22.179,0,0,1-4.476,15.409c-.325.41-.667.8-1.021,1.174a23.942,23.942,0,0,0,6.446,5.545,36.027,36.027,0,0,0,15.66,4.479c7.74.582,15.792-.585,22.479-4.535s11.807-10.935,12.363-18.685c.407-5.706-2.181-11.069-4.824-16.14Z" transform="translate(-1774.725 -92.185)" fill="#ffa031"/>
      <path id="Trazado_724050" data-name="Trazado 724050" d="M1871.741,895.618a29.686,29.686,0,0,0-5.182-14.225c-2.884,4.11-3.991,9.74-4.491,14.823a24.936,24.936,0,0,0,.553,9.046,19.292,19.292,0,0,0,3.622,6.938c.354-.378.694-.767,1.021-1.174A22.18,22.18,0,0,0,1871.741,895.618Z" transform="translate(-1704.059 -266.048)" fill="#ef9044"/>
      <path id="Trazado_724051" data-name="Trazado 724051" d="M2592.639,1388.83a8.636,8.636,0,0,1,.468,5.012,25.209,25.209,0,0,1-8.247,15.279,43.719,43.719,0,0,0,.384-17.651c2.623-1.031,4.769-1.607,7.4-2.638Z" transform="translate(-2385.157 -744.102)" fill="#ffa031"/>
      <path id="Trazado_724052" data-name="Trazado 724052" d="M890.39,2083.006a1.173,1.173,0,1,1-1.168-1.276A1.226,1.226,0,0,1,890.39,2083.006Z" transform="translate(-786.601 -1396.881)"/>
      <path id="Trazado_724053" data-name="Trazado 724053" d="M1070.6,2083.006a1.173,1.173,0,1,1-1.168-1.276A1.227,1.227,0,0,1,1070.6,2083.006Z" transform="translate(-956.373 -1396.881)"/>
      <path id="Trazado_724054" data-name="Trazado 724054" d="M858.7,2010.484a1.219,1.219,0,0,1,.55.093.467.467,0,0,1,.278.448.5.5,0,0,1-.152.275,1.683,1.683,0,0,1-.656.346q-1.458.5-2.942.937a10.56,10.56,0,0,1-1.493.349c-.445.061-1.338,0-1.092-.668.184-.5,1.2-.823,1.642-1.01a9.807,9.807,0,0,1,3.867-.77Z" transform="translate(-753.717 -1329.76)"/>
      <path id="Trazado_724055" data-name="Trazado 724055" d="M1059.786,2010.484a1.218,1.218,0,0,0-.55.093.468.468,0,0,0-.279.448.5.5,0,0,0,.152.275,1.684,1.684,0,0,0,.656.346q1.458.5,2.942.937a10.569,10.569,0,0,0,1.493.349c.445.061,1.338,0,1.092-.668-.185-.5-1.2-.823-1.643-1.01a9.8,9.8,0,0,0-3.867-.77Z" transform="translate(-947.607 -1329.76)"/>
      <path id="Trazado_724056" data-name="Trazado 724056" d="M2003.252,1923.673a2.259,2.259,0,0,1,.887.111.976.976,0,0,1,.606.621,1.149,1.149,0,0,1-.55,1.139,4.131,4.131,0,0,1-1.2.536,21.191,21.191,0,0,1-3.314.752,1.4,1.4,0,0,1-.884-.073.74.74,0,0,1-.366-.7c.079-.776,1.286-1.379,1.9-1.675a7.19,7.19,0,0,1,2.913-.712Z" transform="translate(-1832.682 -1247.974)"/>
      <path id="Trazado_724057" data-name="Trazado 724057" d="M2221.251,1923.673a2.257,2.257,0,0,0-.887.111.976.976,0,0,0-.605.621,1.148,1.148,0,0,0,.55,1.139,4.131,4.131,0,0,0,1.2.536,21.191,21.191,0,0,0,3.314.752,1.4,1.4,0,0,0,.884-.073.739.739,0,0,0,.366-.7c-.079-.776-1.285-1.379-1.9-1.675a7.19,7.19,0,0,0-2.913-.712Z" transform="translate(-2041.172 -1247.974)"/>
      <path id="Trazado_724058" data-name="Trazado 724058" d="M2041.144,2006.2a1.294,1.294,0,1,0-1.294-1.294A1.294,1.294,0,0,0,2041.144,2006.2Z" transform="translate(-1871.705 -1323.285)"/>
      <path id="Trazado_724059" data-name="Trazado 724059" d="M2235.963,2006.2a1.294,1.294,0,1,0-1.293-1.294A1.294,1.294,0,0,0,2235.963,2006.2Z" transform="translate(-2055.244 -1323.285)"/>
      <path id="Trazado_724060" data-name="Trazado 724060" d="M2101.693,2153.09c.152-.068,7.3,0,7.3,0a3.949,3.949,0,0,1-3.654,3.422c-3.279.234-3.654-3.422-3.654-3.422Z" transform="translate(-1929.964 -1464.081)" fill="#fff"/>
      <path id="Trazado_724061" data-name="Trazado 724061" d="M1864.428,1974.2a6.863,6.863,0,0,1-4.544-1.338,5.63,5.63,0,0,1-2.216-4.128,2.786,2.786,0,0,1,.922-2.389,2.843,2.843,0,0,1,1.947-.424h.029a2.984,2.984,0,0,1,2.626,2.368l1.239,5.911Z" transform="translate(-1700.068 -1287.758)" fill="#f7a87e"/>
      <path id="Trazado_724062" data-name="Trazado 724062" d="M1880.1,2002.029a1.238,1.238,0,0,0-.222.17,1.548,1.548,0,0,0-.062,2.169.158.158,0,0,0,.115.05.15.15,0,0,0,.1-.041.152.152,0,0,0,.009-.214,1.243,1.243,0,0,1,.05-1.742.744.744,0,0,1,.366-.205,3.074,3.074,0,0,1,1.247,1.488.15.15,0,0,0,.143.1.113.113,0,0,0,.053-.011.147.147,0,0,0,.085-.2,3.328,3.328,0,0,0-3.823-2.043.152.152,0,1,0,.067.3A3.071,3.071,0,0,1,1880.1,2002.029Z" transform="translate(-1719.265 -1321.271)" fill="#d26f61"/>
      <path id="Trazado_724063" data-name="Trazado 724063" d="M1887.915,2036.192a.153.153,0,0,0-.208-.056,2.562,2.562,0,0,1-2.529-.234,2.977,2.977,0,0,1-1.28-1.444.154.154,0,0,0-.193-.091.151.151,0,0,0-.09.193,3.267,3.267,0,0,0,1.405,1.6,3.425,3.425,0,0,0,1.792.518,2.18,2.18,0,0,0,1.048-.281.152.152,0,0,0,.056-.208Z" transform="translate(-1724.506 -1352.254)" fill="#d26f61"/>
      <path id="Trazado_724064" data-name="Trazado 724064" d="M2133.19,2074.9v.015a1.733,1.733,0,0,0,3.466,0v-.015Z" transform="translate(-1959.64 -1390.447)" fill="#f17d6f"/>
      <path id="Trazado_724065" data-name="Trazado 724065" d="M2242.451,2081.974a2.272,2.272,0,1,0-2.271-2.271A2.272,2.272,0,0,0,2242.451,2081.974Z" transform="translate(-2060.435 -1392.83)" fill="#f38e77" opacity="0.47" style="isolation: isolate"/>
      <path id="Trazado_724066" data-name="Trazado 724066" d="M2009.912,2081.974a2.272,2.272,0,1,0-2.272-2.271A2.272,2.272,0,0,0,2009.912,2081.974Z" transform="translate(-1841.36 -1392.83)" fill="#f38e77" opacity="0.47" style="isolation: isolate"/>
      <path id="Trazado_724067" data-name="Trazado 724067" d="M1877.511,2300.1a7.431,7.431,0,0,0,5.422-3.466.459.459,0,0,1,.231-.234.552.552,0,0,1,.24.012,1.728,1.728,0,0,0,1.716-.946,3.419,3.419,0,0,0,.284-2.038,13.834,13.834,0,0,0-.667-2.649,3.562,3.562,0,0,0-1.836-2.36,4.465,4.465,0,0,0-.819-.489,7.475,7.475,0,0,0-2.624-.495,6.18,6.18,0,0,1,2.316-1.59,8.4,8.4,0,0,1,2.395-.155,3.426,3.426,0,0,0,2.269-.641c.346-.3.559-.89.214-1.189a1,1,0,0,0-.577-.175,38.468,38.468,0,0,0-4.968-.111,4.175,4.175,0,0,0-3.554,1.666,40.305,40.305,0,0,0-7.082,9.966,16.593,16.593,0,0,0,4.637,3.786c.729.4,1.716.635,2.4,1.112Z" transform="translate(-1712.132 -1587.001)" fill="#f7a87e"/>
      <path id="Trazado_724068" data-name="Trazado 724068" d="M1984.282,2616.622s2.825,16.114.873,20.127-34.611,2.278-34.611,2.278l-1.8-10.428,24.947-3.572-.418-18.517,11.017,10.112Z" transform="translate(-1785.87 -1891.275)" fill="#1f5d9a"/>
      <path id="Trazado_724069" data-name="Trazado 724069" d="M1496.026,2484.339s-11.8,27.625,1.724,32.155,23.456-31.3,23.456-31.3l-8.059-5.141s-12.3,23.284-12.551,22.918c-.1-.146,1.35-10.765,1.35-10.765l-5.917-7.864Z" transform="translate(-1354.876 -1772.137)" fill="#1f5d9a"/>
      <path id="Trazado_724070" data-name="Trazado 724070" d="M693.772,2105.117a6.338,6.338,0,0,1-4.2-1.238,5.207,5.207,0,0,1-2.049-3.818,2.588,2.588,0,0,1,.852-2.211,2.633,2.633,0,0,1,1.8-.392h.026a2.758,2.758,0,0,1,2.427,2.19l1.145,5.466Z" transform="translate(-597.677 -1411.684)" fill="#f7a87e"/>
      <path id="Trazado_724071" data-name="Trazado 724071" d="M708.281,2130.859a1.111,1.111,0,0,0-.2.158,1.428,1.428,0,0,0-.058,2,.137.137,0,0,0,.105.044.125.125,0,0,0,.091-.038.142.142,0,0,0,.009-.2,1.184,1.184,0,0,1-.307-.817,1.159,1.159,0,0,1,.354-.8.653.653,0,0,1,.337-.187,2.84,2.84,0,0,1,1.154,1.376.138.138,0,0,0,.135.088.133.133,0,0,0,.047-.009.138.138,0,0,0,.079-.182,3.082,3.082,0,0,0-3.537-1.888.14.14,0,0,0,.062.272,2.864,2.864,0,0,1,1.733.17Z" transform="translate(-615.442 -1442.676)" fill="#d26f61"/>
      <path id="Trazado_724072" data-name="Trazado 724072" d="M715.628,2162.5a.14.14,0,0,0-.19-.053,2.37,2.37,0,0,1-2.339-.217,2.757,2.757,0,0,1-1.183-1.335.139.139,0,0,0-.26.1,3.03,3.03,0,0,0,1.3,1.479,3.183,3.183,0,0,0,1.654.48,2.037,2.037,0,0,0,.969-.26.139.139,0,0,0,.053-.19Z" transform="translate(-620.408 -1471.38)" fill="#d26f61"/>
      <path id="Trazado_724073" data-name="Trazado 724073" d="M971.078,2164.25v.015a1.733,1.733,0,0,0,3.466,0v-.015Z" transform="translate(-864.818 -1474.623)" fill="#f17d6f"/>
      <path id="Trazado_724074" data-name="Trazado 724074" d="M837.692,2158.984a2.272,2.272,0,1,0-2.272-2.272A2.272,2.272,0,0,0,837.692,2158.984Z" transform="translate(-737.015 -1465.381)" fill="#f38e77" opacity="0.47" style="isolation: isolate"/>
      <path id="Trazado_724075" data-name="Trazado 724075" d="M1079.832,2158.984a2.272,2.272,0,1,0-2.272-2.272A2.272,2.272,0,0,0,1079.832,2158.984Z" transform="translate(-965.134 -1465.381)" fill="#f38e77" opacity="0.47" style="isolation: isolate"/>
      <path id="Trazado_724076" data-name="Trazado 724076" d="M323.441,2846.32s-3.873,8.672-4.283,14.849,15.4,21.317,23.178,24.891c1.7.782,3.844-3.864,2.085-4.687-5.416-2.53-15.335-20.828-15.335-20.828l3.051-10.1Z" transform="translate(-250.639 -2117.2)" fill="#f7a87e"/>
      <path id="Trazado_724077" data-name="Trazado 724077" d="M582.623,2730.33l-2.793,11.453,2.026.418Z" transform="translate(-496.224 -2007.926)" fill="#4badeb"/>
      <path id="Trazado_724078" data-name="Trazado 724078" d="M823.588,3363l9.4-5.718a.973.973,0,0,1,1.095.059l4.16,3.2a.968.968,0,0,1,.044,1.5l-6.421,5.56L823.591,3363Z" transform="translate(-725.868 -2598.441)" fill="#1e3c66"/>
      <path id="Trazado_724079" data-name="Trazado 724079" d="M841.992,3377.709l9.4-5.718a.972.972,0,0,1,1.095.059l4.16,3.2a.968.968,0,0,1,.044,1.5l-6.42,5.56-8.277-4.6Z" transform="translate(-743.206 -2612.3)" fill="#265e91"/>
      <path id="Trazado_724080" data-name="Trazado 724080" d="M1055.459,3435.69a.58.58,0,1,1-.58-.58A.579.579,0,0,1,1055.459,3435.69Z" transform="translate(-943.221 -2671.897)" fill="#062043"/>
      <path id="Trazado_724081" data-name="Trazado 724081" d="M702.14,3413.4a19.1,19.1,0,0,0,10.051,4.151,27.944,27.944,0,0,0,4.084.068,2.227,2.227,0,0,0,1.241-.311.8.8,0,0,0,.214-1.127,2.068,2.068,0,0,0,1.209-.155.718.718,0,0,0,.258-1.045,2.964,2.964,0,0,0,1.479-.749c.184-.173.336-.5.131-.647a.483.483,0,0,0-.322-.05c-.521.041-1.042.085-1.566.126a3.143,3.143,0,0,0,2.079-.588c.328-.241.632-.647.48-1.025-.19-.486-.875-.451-1.391-.378-3.2.459-6.449-.814-9.4-2.125l1.215-.735a4.146,4.146,0,0,0,1.209-.955,1.414,1.414,0,0,0,.225-1.452,9.7,9.7,0,0,0-1.692.711,13.01,13.01,0,0,1-3.068.167c-1.669.164-3.057,1.3-4.333,2.383a.579.579,0,0,0-.4.222,13.2,13.2,0,0,0-1.7,3.511Z" transform="translate(-611.452 -2644.849)" fill="#f7a87e"/>
      <path id="Trazado_724082" data-name="Trazado 724082" d="M944.229,2240.85a25.965,25.965,0,0,0,7.179.409s-1.526,4.123-4.1,3.882S944.229,2240.85,944.229,2240.85Z" transform="translate(-839.524 -1546.788)" fill="#fff"/>
      <path id="Trazado_724083" data-name="Trazado 724083" d="M2556.95,1907.09h73.18v51.545h-18.374l-23.966,6.851,12.944-11.506h-42.167Z" transform="translate(-2358.863 -1232.354)" fill="#636363"/>
      <path id="Trazado_724084" data-name="Trazado 724084" d="M2719.884,1971.15H2657.46v37.483h62.424Z" transform="translate(-2453.553 -1292.704)" fill="#dddbce"/>
      <path id="Trazado_724085" data-name="Trazado 724085" d="M3364.126,2047.95h-21.2v29.76h21.2Z" transform="translate(-3099.333 -1365.057)" fill="#e8e7e2"/>
      <path id="Trazado_724086" data-name="Trazado 724086" d="M2745.019,2047.95H2710.1v29.76h34.918Z" transform="translate(-2503.146 -1365.057)" fill="#e8e7e2"/>
      <path id="Trazado_724087" data-name="Trazado 724087" d="M3203.314,2145.663c1.086,0,2.184,0,3.2.006a9.746,9.746,0,0,0-2.53-6.549c-.761.685-1.578,1.417-2.374,2.137A6.573,6.573,0,0,1,3203.314,2145.663Z" transform="translate(-2966.196 -1450.949)" fill="#ef9044"/>
      <path id="Trazado_724088" data-name="Trazado 724088" d="M3170.172,2105.523l2.374-2.137a9.793,9.793,0,0,0-2.866-2.2l-1.44,2.854a6.632,6.632,0,0,1,1.929,1.479Z" transform="translate(-2934.758 -1415.215)" fill="#ffa031"/>
      <path id="Trazado_724089" data-name="Trazado 724089" d="M3193.174,2252.087v-.011c-1.013,0-2.114,0-3.2-.006v.014a6.6,6.6,0,0,1-2.523,5.191l1.979,2.509a9.784,9.784,0,0,0,3.741-7.7Z" transform="translate(-2952.855 -1557.358)" fill="#008b8a"/>
      <path id="Trazado_724090" data-name="Trazado 724090" d="M2957.191,2123.566a6.609,6.609,0,0,1-3.5-12.217c-.559-.907-1.133-1.838-1.674-2.72a9.8,9.8,0,1,0,11.245,16.023l-1.979-2.509A6.573,6.573,0,0,1,2957.191,2123.566Z" transform="translate(-2726.686 -1422.224)" fill="#1f5d9a"/>
      <path id="Trazado_724091" data-name="Trazado 724091" d="M3032.6,2086.09a6.572,6.572,0,0,1,2.978.714l1.44-2.855a9.745,9.745,0,0,0-9.594.428c.542.881,1.116,1.812,1.675,2.72a6.557,6.557,0,0,1,3.5-1.01Z" transform="translate(-2802.092 -1397.974)" fill="#ee7b78"/>
      <path id="Trazado_724092" data-name="Trazado 724092" d="M2719.884,1954.62H2657.46v3.343h62.424Z" transform="translate(-2453.553 -1277.131)" fill="#0a3763"/>
      <path id="Trazado_724093" data-name="Trazado 724093" d="M2790.414,2528.59H2761.67v.149h28.744Z" transform="translate(-2551.729 -1817.867)" fill="#1f5d9a"/>
      <path id="Trazado_724094" data-name="Trazado 724094" d="M3058.367,2474.19h-1.917v3.15h1.917Z" transform="translate(-2829.44 -1766.617)" fill="#1f5d9a"/>
      <path id="Trazado_724095" data-name="Trazado 724095" d="M3126.268,2490.72h-1.918v2.19h1.918Z" transform="translate(-2893.409 -1782.19)" fill="#1f5d9a"/>
      <path id="Trazado_724096" data-name="Trazado 724096" d="M3194.168,2510.34h-1.918v1.057h1.918Z" transform="translate(-2957.377 -1800.674)" fill="#1f5d9a"/>
      <path id="Trazado_724097" data-name="Trazado 724097" d="M3377.7,2093.816h-19V2079.3h.3v14.22h18.7Z" transform="translate(-3114.19 -1394.592)" fill="#1f5d9a"/>
      <path id="Trazado_724098" data-name="Trazado 724098" d="M3410.747,2159.59h-2.237v9.866h2.237Z" transform="translate(-3161.115 -1470.233)" fill="#1f5d9a"/>
      <path id="Trazado_724099" data-name="Trazado 724099" d="M3505.7,2204.64h-2.237v7.258h2.237Z" transform="translate(-3250.567 -1512.675)" fill="#1f5d9a"/>
      <path id="Trazado_724100" data-name="Trazado 724100" d="M3600.606,2121.72h-2.236v12.062h2.236Z" transform="translate(-3339.982 -1434.556)" fill="#1f5d9a"/>
      <path id="Trazado_724101" data-name="Trazado 724101" d="M3379.9,2074.776a6.243,6.243,0,0,1-1.422-.158.148.148,0,1,1,.067-.289,8.557,8.557,0,0,0,5.267-.773c.813-.351,1.616-.773,2.392-1.18.826-.433,1.678-.881,2.553-1.25a8.541,8.541,0,0,1,5.463-.688.149.149,0,0,1,.105.181.151.151,0,0,1-.182.1,8.272,8.272,0,0,0-5.272.677c-.864.363-1.71.808-2.53,1.241-.779.41-1.586.834-2.409,1.189a10.278,10.278,0,0,1-4.028.945Z" transform="translate(-3132.711 -1386.058)" fill="#008b8a"/>
      <path id="Trazado_724102" data-name="Trazado 724102" d="M3389.7,2091.873a8.691,8.691,0,0,1-5.077-1.651.149.149,0,0,1,.176-.24,8.394,8.394,0,0,0,4.9,1.593h.006a16.9,16.9,0,0,0,5.512-1.28,21.824,21.824,0,0,1,4.45-1.229,1.639,1.639,0,0,1,1.267.219.148.148,0,1,1-.184.231,1.39,1.39,0,0,0-1.045-.155,21.7,21.7,0,0,0-4.389,1.215,17.028,17.028,0,0,1-5.609,1.3h-.009Z" transform="translate(-3138.552 -1403.763)" fill="#ee7b78"/>
      <path id="Trazado_724103" data-name="Trazado 724103" d="M3377.7,2356.58h-19v3.927h19Z" transform="translate(-3114.19 -1655.817)" fill="#ee7b78"/>
      <path id="Trazado_724104" data-name="Trazado 724104" d="M3372.741,2442.33h-8.631v1.292h8.631Z" transform="translate(-3119.286 -1736.602)" fill="#c2d7d7"/>
      <path id="Trazado_724105" data-name="Trazado 724105" d="M3372.741,2483.54h-8.631v1.292h8.631Z" transform="translate(-3119.286 -1775.426)" fill="#c2d7d7"/>
      <path id="Trazado_724106" data-name="Trazado 724106" d="M3372.741,2524.7h-8.631v1.291h8.631Z" transform="translate(-3119.286 -1814.202)" fill="#c2d7d7"/>
      <path id="Trazado_724107" data-name="Trazado 724107" d="M3554.57,2442.33h-8.13v1.292h8.13Z" transform="translate(-3291.059 -1736.602)" fill="#c2d7d7"/>
      <path id="Trazado_724108" data-name="Trazado 724108" d="M3554.57,2483.54h-8.13v1.292h8.13Z" transform="translate(-3291.059 -1775.426)" fill="#c2d7d7"/>
      <path id="Trazado_724109" data-name="Trazado 724109" d="M3554.57,2524.7h-8.13v1.291h8.13Z" transform="translate(-3291.059 -1814.202)" fill="#c2d7d7"/>
      <path id="Trazado_724110" data-name="Trazado 724110" d="M2744.773,2042.75h-2.213v2.213h2.213Z" transform="translate(-2533.726 -1360.159)" fill="#1f5d9a"/>
      <path id="Trazado_724111" data-name="Trazado 724111" d="M2744.773,2098.21h-2.213v2.214h2.213Z" transform="translate(-2533.726 -1412.407)" fill="#ee7b78"/>
      <path id="Trazado_724112" data-name="Trazado 724112" d="M2744.773,2153.68h-2.213v2.213h2.213Z" transform="translate(-2533.726 -1464.665)" fill="#ffa031"/>
      <path id="Trazado_724113" data-name="Trazado 724113" d="M2744.773,2209.14h-2.213v2.214h2.213Z" transform="translate(-2533.726 -1516.914)" fill="#ef9044"/>
      <path id="Trazado_724114" data-name="Trazado 724114" d="M2744.773,2264.56h-2.213v2.213h2.213Z" transform="translate(-2533.726 -1569.125)" fill="#008b8a"/>
      <path id="Trazado_724115" data-name="Trazado 724115" d="M2806.462,2053.21h-7.272v.805h7.272Z" transform="translate(-2587.077 -1370.013)" fill="#c2d7d7"/>
      <path id="Trazado_724116" data-name="Trazado 724116" d="M2806.462,2110.35h-7.272v.8h7.272Z" transform="translate(-2587.077 -1423.844)" fill="#c2d7d7"/>
      <path id="Trazado_724117" data-name="Trazado 724117" d="M2806.462,2167.53h-7.272v.806h7.272Z" transform="translate(-2587.077 -1477.714)" fill="#c2d7d7"/>
      <path id="Trazado_724118" data-name="Trazado 724118" d="M2806.462,2224.67h-7.272v.8h7.272Z" transform="translate(-2587.077 -1531.545)" fill="#c2d7d7"/>
      <path id="Trazado_724119" data-name="Trazado 724119" d="M2806.462,2281.8h-7.272v.806h7.272Z" transform="translate(-2587.077 -1585.367)" fill="#c2d7d7"/>
      <path id="Trazado_724120" data-name="Trazado 724120" d="M2786.748,2407.4h-1.918v3.5h1.918Z" transform="translate(-2573.548 -1703.694)" fill="#1f5d9a"/>
      <path id="Trazado_724121" data-name="Trazado 724121" d="M2854.648,2375.54h-1.918v5.343h1.918Z" transform="translate(-2637.517 -1673.679)" fill="#1f5d9a"/>
      <path id="Trazado_724122" data-name="Trazado 724122" d="M2922.557,2425.95h-1.917v2.425h1.917Z" transform="translate(-2701.494 -1721.17)" fill="#1f5d9a"/>
      <path id="Trazado_724123" data-name="Trazado 724123" d="M2990.458,2449.57h-1.918v1.057h1.918Z" transform="translate(-2765.463 -1743.422)" fill="#1f5d9a"/>
      <path id="Trazado_724124" data-name="Trazado 724124" d="M2737.06,1969.149a.82.82,0,1,0-.82-.819A.819.819,0,0,0,2737.06,1969.149Z" transform="translate(-2527.772 -1289.275)" fill="#ee7b78"/>
      <path id="Trazado_724125" data-name="Trazado 724125" d="M2793.639,1969.149a.82.82,0,1,0-.819-.819A.82.82,0,0,0,2793.639,1969.149Z" transform="translate(-2581.076 -1289.275)" fill="#ffa031"/>
      <path id="Trazado_724126" data-name="Trazado 724126" d="M2850.219,1969.149a.82.82,0,1,0-.819-.819A.819.819,0,0,0,2850.219,1969.149Z" transform="translate(-2634.38 -1289.275)" fill="#008b8a"/>
    </g>
  </g>
</svg>
