<svg xmlns="http://www.w3.org/2000/svg" xmlns:xlink="http://www.w3.org/1999/xlink" width="126.64" height="100" viewBox="0 0 126.64 100">
  <defs>
    <clipPath id="clip-path">
      <rect id="Rectángulo_346374" data-name="Rectángulo 346374" width="20.179" height="45.944" fill="none" stroke="#12263f" stroke-width="1"/>
    </clipPath>
  </defs>
  <g id="Grupo_1015395" data-name="Grupo 1015395" transform="translate(-874.333 -265)">
    <circle id="Elipse_8508" data-name="Elipse 8508" cx="50" cy="50" r="50" transform="translate(874.333 265)" fill="#ffa031"/>
    <g id="Grupo_1013752" data-name="Grupo 1013752" transform="translate(890.616 283.588)">
      <g id="Grupo_1013750" data-name="Grupo 1013750" transform="translate(1.245 20.71)">
        <path id="Trazado_717593" data-name="Trazado 717593" d="M21.933,194.128l-4.061-4.322a7.484,7.484,0,0,1-2.03-5.125V169.375a2.921,2.921,0,0,0-2.288-2.852h0A2.921,2.921,0,0,0,10,169.375v19.292a10.871,10.871,0,0,0,2.007,6.293l2.219,3.126,5.308,7.478,1.873,2.639H35.558l-2.038-9.716a17.176,17.176,0,0,0-7.226-10.726l-4.352-2.926a3.119,3.119,0,0,0-4.075.52h0a3.356,3.356,0,0,0,.071,4.529c2.383,2.525,5.929,6.3,5.929,6.3" transform="translate(-10 -166.453)" fill="#ffcdac"/>
        <path id="Trazado_717594" data-name="Trazado 717594" d="M310.206,194.128l4.061-4.322a7.484,7.484,0,0,0,2.03-5.125V169.375a2.921,2.921,0,0,1,2.288-2.852h0a2.921,2.921,0,0,1,3.554,2.852v19.292a10.872,10.872,0,0,1-2.007,6.293l-2.219,3.126-5.308,7.478-1.873,2.639H296.581l2.038-9.716a17.176,17.176,0,0,1,7.226-10.726l4.352-2.926a3.119,3.119,0,0,1,4.075.52h0a3.356,3.356,0,0,1-.071,4.529c-2.383,2.525-5.929,6.3-5.929,6.3" transform="translate(-260.925 -166.453)" fill="#ffcdac"/>
      </g>
      <g id="Grupo_1013751" data-name="Grupo 1013751" transform="translate(12.865 22.347)">
        <path id="Trazado_717595" data-name="Trazado 717595" d="M280.137,183.646a4.592,4.592,0,0,1,2.241-1.283l3.177-.761v-1.94h3.88v1.946h0l3.169.757a4.6,4.6,0,0,1,3.534,4.477v2.324h-7.024Z" transform="translate(-258.146 -179.656)" fill="#7d9bff"/>
        <path id="Trazado_717596" data-name="Trazado 717596" d="M119.39,183.595a4.592,4.592,0,0,0-2.241-1.283l-3.177-.761v-1.94h-3.88v1.946h0l-3.169.757a4.6,4.6,0,0,0-3.534,4.477v2.324h7.024Z" transform="translate(-103.39 -179.611)" fill="#7d9bff"/>
      </g>
      <path id="Trazado_717597" data-name="Trazado 717597" d="M168.566,211.07l-4.425,1.06a6.412,6.412,0,0,0-4.918,6.235v4.474H183.3v-4.47a6.412,6.412,0,0,0-4.922-6.236l-4.414-1.054" transform="translate(-139.412 -184.809)" fill="#78d2fa"/>
      <path id="Trazado_717598" data-name="Trazado 717598" d="M239.717,189.357v2.71l-2.7,6.141-2.7-6.15v-2.7" transform="translate(-205.159 -165.797)" fill="#ffb487"/>
      <path id="Trazado_717599" data-name="Trazado 717599" d="M219.762,114.551v3.742a6.023,6.023,0,0,1-6.023,6.023h0a6.023,6.023,0,0,1-6.023-6.023v-3.742" transform="translate(-181.871 -100.299)" fill="#ffcdac"/>
      <path id="Trazado_717600" data-name="Trazado 717600" d="M213.739,64h0a6.023,6.023,0,0,0-6.023,6.023v1.45h2.945a6.617,6.617,0,0,0,5.072-2.367h0l4.029,2.367v-1.45A6.023,6.023,0,0,0,213.739,64Z" transform="translate(-181.871 -56.037)" fill="#bebebe"/>
      <path id="Trazado_717601" data-name="Trazado 717601" d="M146.764,94.976V93.935a4.324,4.324,0,0,0-4.324-4.324h0a4.324,4.324,0,0,0-4.324,4.324v1.041H141.1a10.31,10.31,0,0,0,5.3-1.466h0" transform="translate(-120.93 -78.462)" fill="#f5b955"/>
      <path id="Trazado_717602" data-name="Trazado 717602" d="M146.764,125.9v2.686a4.324,4.324,0,0,1-4.324,4.324h0a4.324,4.324,0,0,1-4.324-4.324V125.9" transform="translate(-120.93 -110.239)" fill="#ffcdac"/>
      <path id="Trazado_717603" data-name="Trazado 717603" d="M304.5,95.027V93.986a4.324,4.324,0,0,1,4.324-4.324h0a4.324,4.324,0,0,1,4.324,4.324v1.041h-2.981a10.31,10.31,0,0,1-5.3-1.466h0" transform="translate(-266.613 -78.506)" fill="#f5b955"/>
      <path id="Trazado_717604" data-name="Trazado 717604" d="M304.5,125.955v2.686a4.324,4.324,0,0,0,4.324,4.324h0a4.324,4.324,0,0,0,4.324-4.324v-2.686" transform="translate(-266.613 -110.284)" fill="#ffcdac"/>
      <path id="Trazado_717605" data-name="Trazado 717605" d="M78.883,471.316a1.244,1.244,0,1,0-2.029,1.44l1.873,2.639a1.244,1.244,0,1,0,2.029-1.441Z" transform="translate(-67.09 -412.216)"/>
      <path id="Trazado_717606" data-name="Trazado 717606" d="M25.982,189.473a18.323,18.323,0,0,0-7.749-11.5l-4.352-2.927a4.378,4.378,0,0,0-5.55.566V160.617a4.165,4.165,0,0,0-6.772-3.249A4.145,4.145,0,0,0,0,160.617v19.292a12.052,12.052,0,0,0,2.236,7.014l2.219,3.126a1.244,1.244,0,1,0,2.029-1.441l-2.219-3.126a9.577,9.577,0,0,1-1.777-5.573V160.617a1.677,1.677,0,1,1,3.353,0v15.306a8.693,8.693,0,0,0,2.242,5.837c.062.074.126.148.193.219.826.876,1.8,1.907,2.713,2.88l1.281,1.363.013.012,1.921,2.044a1.244,1.244,0,1,0,1.814-1.7c-.023-.024-1.479-1.575-3.142-3.343L10.024,180.2,10,180.172a2.1,2.1,0,0,1,.041-2.752,1.881,1.881,0,0,1,2.449-.313l4.352,2.927a15.847,15.847,0,0,1,6.7,9.949l2.039,9.716a1.244,1.244,0,1,0,2.435-.511Z" transform="translate(0 -136.985)"/>
      <path id="Trazado_717607" data-name="Trazado 717607" d="M58.141,442.1a1.244,1.244,0,0,0-2.026,1.445l.008.011a1.244,1.244,0,0,0,2.026-1.445Z" transform="translate(-48.93 -386.635)"/>
      <path id="Trazado_717608" data-name="Trazado 717608" d="M313.068,157.371a4.165,4.165,0,0,0-6.772,3.249v14.992a4.378,4.378,0,0,0-5.55-.566l-4.352,2.926a18.323,18.323,0,0,0-7.749,11.5l-2.038,9.716a1.244,1.244,0,1,0,2.435.511l2.038-9.716a15.848,15.848,0,0,1,6.7-9.949l4.352-2.926a1.881,1.881,0,0,1,2.449.313,2.1,2.1,0,0,1,.043,2.749l-.024.026-6,6.379a1.244,1.244,0,1,0,1.814,1.7c.017-.018,5.1-5.424,5.927-6.3.067-.071.131-.145.193-.219a8.694,8.694,0,0,0,2.242-5.837V160.62a1.677,1.677,0,1,1,3.353,0v19.292a9.576,9.576,0,0,1-1.777,5.573l-9.4,13.242a1.244,1.244,0,1,0,2.029,1.441l9.4-13.242a12.052,12.052,0,0,0,2.236-7.014V160.62A4.147,4.147,0,0,0,313.068,157.371Z" transform="translate(-250.923 -136.988)"/>
      <path id="Trazado_717609" data-name="Trazado 717609" d="M125.663,86.557a1.244,1.244,0,0,0,1.244-1.244v-4.47c0-.154-.006-.307-.015-.459h5.734a1.244,1.244,0,0,0,1.244-1.244V76.815a5.829,5.829,0,0,0-4.489-5.687l-2.214-.529v-.4a5.565,5.565,0,0,0,2.382-4.563V62.762a5.564,5.564,0,0,0-9.181-4.232,7.265,7.265,0,0,0-13.464.01,5.564,5.564,0,0,0-9.193,4.222v2.878a5.565,5.565,0,0,0,2.382,4.563v.4l-2.214.529a5.829,5.829,0,0,0-4.489,5.687v2.324a1.244,1.244,0,0,0,1.244,1.244h5.717c-.009.151-.015.3-.015.456v4.474a1.244,1.244,0,0,0,1.244,1.244h7.479a1.244,1.244,0,0,0,0-2.488h-1.286V81.5a1.244,1.244,0,1,0-2.488,0v2.571h-2.461v-3.23a5.152,5.152,0,0,1,3.963-5.025l3.414-.818,2.285,5.2a1.244,1.244,0,0,0,1.139.744h0a1.244,1.244,0,0,0,1.139-.743L117.048,75l3.4.813a5.151,5.151,0,0,1,3.967,5.026v3.226h-2.461V81.5a1.244,1.244,0,1,0-2.488,0v2.571h-1.41a1.244,1.244,0,1,0,0,2.488ZM109.679,71.462a5.837,5.837,0,0,0-1-.336l-2.223-.533v-.388a5.614,5.614,0,0,0,1.078-.985,7.325,7.325,0,0,0,2.141,2.145Zm-9.48-5.823v-.593h1.737a11.558,11.558,0,0,0,4.424-.881v1.474a3.08,3.08,0,0,1-6.16,0Zm8.66-.364V63.961h1.7a7.839,7.839,0,0,0,5.287-2.042l2.566,1.507v2.031a4.778,4.778,0,0,1-9.553-.182Zm8.713,6.19v-.084a7.322,7.322,0,0,0,2.158-2.151,5.613,5.613,0,0,0,1.069.975v.388l-2.223.533A5.854,5.854,0,0,0,117.571,71.466Zm3.329-5.827v-.182c0-.061,0-.121,0-.182V64.167a11.557,11.557,0,0,0,4.419.879h1.737v.593a3.08,3.08,0,1,1-6.16,0Zm3.08-5.958a3.084,3.084,0,0,1,3.073,2.877h-1.73a9.069,9.069,0,0,1-4.172-1.017A3.085,3.085,0,0,1,123.98,59.681Zm-15.122,1.586a4.779,4.779,0,0,1,9.5-.759l-2.095-1.231a1.244,1.244,0,0,0-1.584.274,5.361,5.361,0,0,1-4.119,1.922h-1.7v-.206Zm-5.58-1.586a3.085,3.085,0,0,1,2.828,1.86,9.069,9.069,0,0,1-4.172,1.017h-1.73A3.084,3.084,0,0,1,103.279,59.681Zm2.93,13.712a7.63,7.63,0,0,0-5.287,4.5H95.878V76.815a3.348,3.348,0,0,1,2.579-3.267l3.169-.757a1.244,1.244,0,0,0,.955-1.21v-.418a5.4,5.4,0,0,0,1.391,0v.355c0,.019,0,.037,0,.056a1.246,1.246,0,0,0,1.011,1.224l1.856.445Zm7.418,3.208-1.459-3.32v-.888a7.292,7.292,0,0,0,2.915,0v.892Zm7.4-3.206-.625-.149,1.866-.447a1.246,1.246,0,0,0,1.017-1.225c0-.01,0-.02,0-.029v-.382a5.4,5.4,0,0,0,1.391,0v.418a1.244,1.244,0,0,0,.955,1.21l3.169.757a3.348,3.348,0,0,1,2.579,3.267v1.079h-5.06A7.629,7.629,0,0,0,121.03,73.4Z" transform="translate(-81.77 -47.281)"/>
      <path id="Trazado_717610" data-name="Trazado 717610" d="M247.244,295.67a1.243,1.243,0,1,0,.88.363A1.25,1.25,0,0,0,247.244,295.67Z" transform="translate(-215.392 -258.883)"/>
      <path id="Trazado_717611" data-name="Trazado 717611" d="M247.238,4.35a1.244,1.244,0,0,0,1.244-1.244V1.244a1.244,1.244,0,0,0-2.488,0V3.106A1.244,1.244,0,0,0,247.238,4.35Z" transform="translate(-215.387)"/>
      <path id="Trazado_717612" data-name="Trazado 717612" d="M193.27,22.641a1.244,1.244,0,1,0,1.759-1.76l-1.305-1.3a1.244,1.244,0,1,0-1.759,1.76Z" transform="translate(-167.76 -16.822)"/>
      <path id="Trazado_717613" data-name="Trazado 717613" d="M290.99,23.254a1.24,1.24,0,0,0,.88-.365l1.3-1.3a1.244,1.244,0,0,0-1.76-1.759l-1.3,1.3a1.244,1.244,0,0,0,.88,2.124Z" transform="translate(-253.695 -17.047)"/>
    </g>
    <g id="Grupo_1013757" data-name="Grupo 1013757" transform="translate(979.659 265.038) rotate(49)">
      <g id="Grupo_1002315" data-name="Grupo 1002315" transform="translate(32.487 0) rotate(45)">
        <g id="Grupo_1002212" data-name="Grupo 1002212" transform="translate(0)" clip-path="url(#clip-path)">
          <path id="Trazado_707910" data-name="Trazado 707910" d="M4.374,0C-1.147,11.043-.534,27.767,1.307,40.036" transform="translate(10.623 1.5)" fill="none" stroke="#12263f" stroke-linecap="round" stroke-linejoin="round" stroke-width="3"/>
          <path id="Trazado_707911" data-name="Trazado 707911" d="M0,1.227c3.681,3.681,7.976,6.135,11.656,9.2A34.1,34.1,0,0,1,17.178,0" transform="translate(1.5 34.015)" fill="none" stroke="#12263f" stroke-linecap="round" stroke-linejoin="round" stroke-width="3"/>
        </g>
      </g>
    </g>
  </g>
</svg>
