<svg xmlns="http://www.w3.org/2000/svg" xmlns:xlink="http://www.w3.org/1999/xlink" width="133.388" height="100" viewBox="0 0 133.388 100">
  <defs>
    <clipPath id="clip-path">
      <rect id="Rectángulo_346374" data-name="Rectángulo 346374" width="20.179" height="45.944" fill="none" stroke="#12263f" stroke-width="1"/>
    </clipPath>
  </defs>
  <g id="Grupo_1015394" data-name="Grupo 1015394" transform="translate(-1280.945 -230.552)">
    <circle id="Elipse_8509" data-name="Elipse 8509" cx="50" cy="50" r="50" transform="translate(1314.333 230.552)" fill="#ffa031"/>
    <g id="filled_outline" data-name="filled outline" transform="translate(1316.854 232.375)">
      <path id="Trazado_717632" data-name="Trazado 717632" d="M432.49,141.274a1.111,1.111,0,0,1-1.1-.973L430,129.193a1.111,1.111,0,0,1,2.2-.293l0,.018,1.388,11.108a1.112,1.112,0,0,1-1.1,1.249Z" transform="translate(-356.7 -96.573)" fill="#6ee7f5"/>
      <path id="Trazado_717633" data-name="Trazado 717633" d="M410.864,292.783a1.112,1.112,0,0,1-1.021-1.547l5.229-12.27a1.111,1.111,0,1,1,2.044.871h0l-5.229,12.27A1.111,1.111,0,0,1,410.864,292.783Z" transform="translate(-339.273 -226.052)" fill="#6ee7f5"/>
      <path id="Trazado_717634" data-name="Trazado 717634" d="M292.635,442.222H281.111a1.111,1.111,0,0,1,0-2.222h11.525a1.111,1.111,0,1,1,0,2.222Z" transform="translate(-227.535 -365.308)" fill="#2cbff4"/>
      <path id="Trazado_717635" data-name="Trazado 717635" d="M67.342,299.152a1.111,1.111,0,0,1-1.077-.842l-2.222-8.886a1.111,1.111,0,0,1,2.155-.539l2.222,8.886a1.112,1.112,0,0,1-1.078,1.38Z" transform="translate(-41.537 -234.457)" fill="#2cbff4"/>
      <path id="Trazado_717636" data-name="Trazado 717636" d="M145.107,61.572a1.111,1.111,0,0,1-.351-2.165l10-3.332a1.111,1.111,0,0,1,.7,2.107l-10,3.332a1.108,1.108,0,0,1-.351.057Z" transform="translate(-110.415 -34.644)" fill="#6ee7f5"/>
      <path id="Trazado_717637" data-name="Trazado 717637" d="M359.776,250.222h-6.665a1.111,1.111,0,0,1,0-2.222h6.665a1.111,1.111,0,1,1,0,2.222Z" transform="translate(-289.538 -199.967)" fill="#2cbff4"/>
      <path id="Trazado_717638" data-name="Trazado 717638" d="M249.111,98A1.111,1.111,0,0,1,248,96.886V89.111a1.111,1.111,0,1,1,2.222,0v7.776A1.111,1.111,0,0,1,249.111,98Z" transform="translate(-199.979 -62.183)" fill="#2cbff4"/>
      <path id="Trazado_717639" data-name="Trazado 717639" d="M126,127.108a1.107,1.107,0,0,1-.785-.325l-8.886-8.886a1.111,1.111,0,0,1,1.571-1.571l8.886,8.886a1.111,1.111,0,0,1-.785,1.9Z" transform="translate(-86.307 -86.295)" fill="#2cbff4"/>
      <path id="Trazado_717640" data-name="Trazado 717640" d="M103.776,250.222H97.111a1.111,1.111,0,1,1,0-2.222h6.665a1.111,1.111,0,1,1,0,2.222Z" transform="translate(-69.084 -199.967)" fill="#6ee7f5"/>
      <path id="Trazado_717641" data-name="Trazado 717641" d="M121.111,330a1.111,1.111,0,0,1-.785-1.9l7.776-7.776a1.111,1.111,0,0,1,1.571,1.571l-7.776,7.776a1.108,1.108,0,0,1-.785.325Z" transform="translate(-89.751 -261.97)" fill="#6ee7f5"/>
      <path id="Trazado_717642" data-name="Trazado 717642" d="M329.489,330.6a1.107,1.107,0,0,1-.785-.325l-8.378-8.378a1.111,1.111,0,0,1,1.571-1.571l8.379,8.378a1.111,1.111,0,0,1-.786,1.9Z" transform="translate(-261.981 -261.973)" fill="#6ee7f5"/>
      <path id="Trazado_717643" data-name="Trazado 717643" d="M321.111,126.553a1.111,1.111,0,0,1-.785-1.9l8.331-8.331a1.111,1.111,0,0,1,1.571,1.571l-8.331,8.331a1.107,1.107,0,0,1-.786.325Z" transform="translate(-261.981 -86.295)" fill="#6ee7f5"/>
      <circle id="Elipse_8495" data-name="Elipse 8495" cx="14.44" cy="14.44" r="14.44" transform="translate(34.692 34.703)" fill="#d18d28"/>
      <circle id="Elipse_8496" data-name="Elipse 8496" cx="8.886" cy="8.886" r="8.886" transform="translate(16.919 16.931)" fill="#0bafea"/>
      <path id="Trazado_717644" data-name="Trazado 717644" d="M59.108,115.332v.274a8.891,8.891,0,0,1-11.108,0v-.274A3.333,3.333,0,0,1,51.332,112h4.443A3.333,3.333,0,0,1,59.108,115.332Z" transform="translate(-27.748 -82.851)" fill="#0276b4"/>
      <circle id="Elipse_8497" data-name="Elipse 8497" cx="3.332" cy="3.332" r="3.332" transform="translate(22.473 22.485)" fill="#0296e5"/>
      <path id="Trazado_717645" data-name="Trazado 717645" d="M55.776,112H51.332A3.333,3.333,0,0,0,48,115.332v.274a8.891,8.891,0,0,0,11.108,0v-.274A3.333,3.333,0,0,0,55.776,112Z" transform="translate(-27.748 -82.851)" fill="#0296e5"/>
      <circle id="Elipse_8498" data-name="Elipse 8498" cx="8.886" cy="8.886" r="8.886" transform="translate(16.919 63.584)" fill="#02a437"/>
      <path id="Trazado_717646" data-name="Trazado 717646" d="M232.886,220.439a4.443,4.443,0,1,0-8.034,2.616,6.912,6.912,0,0,1,1.369,4.071h4.443A6.708,6.708,0,0,1,232,223.1a4.419,4.419,0,0,0,.886-2.661Z" transform="translate(-179.311 -172.406)" fill="#fbb540"/>
      <path id="Trazado_717647" data-name="Trazado 717647" d="M240,296.16h4.443v2.2a2.222,2.222,0,0,1-4.443,0v-2.2Z" transform="translate(-193.089 -241.44)" fill="#cbcbcb"/>
      <g id="Grupo_1013756" data-name="Grupo 1013756" transform="translate(16.919 18.041)">
        <path id="Trazado_717648" data-name="Trazado 717648" d="M249.111,172.443A1.111,1.111,0,0,1,248,171.332v-2.222a1.111,1.111,0,1,1,2.222,0v2.222A1.111,1.111,0,0,1,249.111,172.443Z" transform="translate(-216.898 -149.116)" fill="#fbb540"/>
        <path id="Trazado_717649" data-name="Trazado 717649" d="M210.222,187.332a1.107,1.107,0,0,1-.785-.325l-1.111-1.111a1.111,1.111,0,1,1,1.571-1.571l1.111,1.111a1.111,1.111,0,0,1-.785,1.9Z" transform="translate(-182.452 -162.895)" fill="#fbb540"/>
        <path id="Trazado_717650" data-name="Trazado 717650" d="M281.111,187.332a1.111,1.111,0,0,1-.785-1.9l1.111-1.111a1.111,1.111,0,1,1,1.571,1.571l-1.111,1.111a1.107,1.107,0,0,1-.785.325Z" transform="translate(-244.455 -162.895)" fill="#fbb540"/>
        <circle id="Elipse_8499" data-name="Elipse 8499" cx="5.554" cy="5.554" r="5.554" transform="translate(0 25.548)" fill="#fbb540"/>
        <circle id="Elipse_8500" data-name="Elipse 8500" cx="5.554" cy="5.554" r="5.554" transform="translate(53.318 25.548)" fill="#fbb540"/>
        <circle id="Elipse_8501" data-name="Elipse 8501" cx="4.443" cy="4.443" r="4.443" transform="translate(27.77 53.318)" fill="#fbb540"/>
        <circle id="Elipse_8502" data-name="Elipse 8502" cx="4.443" cy="4.443" r="4.443" transform="translate(27.77 0)" fill="#fbb540"/>
      </g>
      <path id="Trazado_717651" data-name="Trazado 717651" d="M240,296h4.443v1.111H240Z" transform="translate(-193.089 -241.302)" fill="#a8a8a8"/>
      <circle id="Elipse_8503" data-name="Elipse 8503" cx="8.886" cy="8.886" r="8.886" transform="translate(63.573 16.812)" fill="#4db1f0"/>
      <circle id="Elipse_8504" data-name="Elipse 8504" cx="3.332" cy="3.332" r="3.332" transform="translate(69.127 22.366)" fill="#3076b6"/>
      <path id="Trazado_717652" data-name="Trazado 717652" d="M391.776,111.147h-4.443A3.333,3.333,0,0,0,384,114.479v.274a8.891,8.891,0,0,0,11.108,0v-.274A3.333,3.333,0,0,0,391.776,111.147Z" transform="translate(-317.095 -82.116)" fill="#3076b6"/>
      <circle id="Elipse_8505" data-name="Elipse 8505" cx="3.332" cy="3.332" r="3.332" transform="translate(22.473 69.138)" fill="#027226"/>
      <path id="Trazado_717653" data-name="Trazado 717653" d="M59.108,451.332v.274a8.891,8.891,0,0,1-11.108,0v-.274A3.333,3.333,0,0,1,51.332,448h4.443A3.333,3.333,0,0,1,59.108,451.332Z" transform="translate(-27.748 -372.197)" fill="#027226"/>
      <circle id="Elipse_8506" data-name="Elipse 8506" cx="8.886" cy="8.886" r="8.886" transform="translate(63.573 63.584)" fill="#ffd6db"/>
      <path id="Trazado_717654" data-name="Trazado 717654" d="M395.108,451.332v.274a8.891,8.891,0,0,1-11.108,0v-.274A3.333,3.333,0,0,1,387.332,448h4.443A3.333,3.333,0,0,1,395.108,451.332Z" transform="translate(-317.095 -372.197)" fill="#faa6b2"/>
      <path id="Trazado_717655" data-name="Trazado 717655" d="M395.108,451.332v.274a8.891,8.891,0,0,1-11.108,0v-.274A3.333,3.333,0,0,1,387.332,448h4.443A3.333,3.333,0,0,1,395.108,451.332Z" transform="translate(-317.095 -372.197)" fill="#faa6b2"/>
      <circle id="Elipse_8507" data-name="Elipse 8507" cx="3.332" cy="3.332" r="3.332" transform="translate(69.127 69.138)" fill="#faa6b2"/>
      <path id="Trazado_717656" data-name="Trazado 717656" d="M225.341,209.485a5.554,5.554,0,0,0-8.277,7.333,5.777,5.777,0,0,1,1.155,3.416v2.2a3.332,3.332,0,0,0,6.665,0v-2.2a5.632,5.632,0,0,1,1.114-3.36,5.5,5.5,0,0,0,1.108-3.327A5.574,5.574,0,0,0,225.341,209.485Zm-2.678,12.947a1.111,1.111,0,1,1-2.222,0v-1.089h2.222Zm1.558-6.892a7.854,7.854,0,0,0-1.478,3.581H220.36a8.11,8.11,0,0,0-1.5-3.615,3.3,3.3,0,0,1-.631-2.2,3.332,3.332,0,1,1,5.993,2.23Z" transform="translate(-172.42 -165.513)"/>
      <path id="Trazado_717657" data-name="Trazado 717657" d="M249.111,172.443a1.111,1.111,0,0,0,1.111-1.111v-2.222a1.111,1.111,0,1,0-2.222,0v2.222A1.111,1.111,0,0,0,249.111,172.443Z" transform="translate(-199.979 -131.075)"/>
      <path id="Trazado_717658" data-name="Trazado 717658" d="M210.222,187.332a1.111,1.111,0,0,0,.785-1.9l-1.111-1.111a1.111,1.111,0,1,0-1.571,1.571l1.111,1.111A1.107,1.107,0,0,0,210.222,187.332Z" transform="translate(-165.533 -144.853)"/>
      <path id="Trazado_717659" data-name="Trazado 717659" d="M281.436,184.325l-1.111,1.111a1.111,1.111,0,1,0,1.571,1.571l1.111-1.111a1.111,1.111,0,1,0-1.571-1.571Z" transform="translate(-227.535 -144.853)"/>
      <path id="Trazado_717660" data-name="Trazado 717660" d="M82.456,49.144a6.675,6.675,0,0,0-5.675-6.591l-.917-7.337a10.007,10.007,0,1,0-11.211-3.164L59.31,37.395a15.486,15.486,0,0,0-9.067-3.763v-5.7a5.554,5.554,0,1,0-6.6-6.263l-7.95,2.649a10.011,10.011,0,1,0-3.649,9.309l5.2,5.2a1.123,1.123,0,0,0,.158.13,15.485,15.485,0,0,0-3.775,9.082H29.044a6.665,6.665,0,1,0-6.57,7.776c.081,0,.161,0,.242-.006l1.693,6.771a10.008,10.008,0,1,0,9.2,3.662l5.343-5.343a15.523,15.523,0,0,0,20.355,0l5.343,5.343a9.956,9.956,0,0,0-1.939,8.457H54.575a5.554,5.554,0,1,0,0,2.222h8.933A10,10,0,1,0,74.017,62.6L76.58,55.76a6.673,6.673,0,0,0,5.876-6.617ZM49.132,79.135A3.332,3.332,0,1,1,52.465,75.8,3.332,3.332,0,0,1,49.132,79.135ZM66.224,64.664l-5.343-5.343a15.486,15.486,0,0,0,3.763-9.067h4.578a6.682,6.682,0,0,0,5.035,5.373l-2.58,6.879a9.946,9.946,0,0,0-5.453,2.158ZM80.235,49.144A4.443,4.443,0,1,1,75.791,44.7,4.443,4.443,0,0,1,80.235,49.144ZM74.548,42.6a6.68,6.68,0,0,0-5.327,5.436H64.643a15.486,15.486,0,0,0-3.763-9.067l5.343-5.343a9.923,9.923,0,0,0,7.466,2.113Zm-4.31-16.78a2.222,2.222,0,1,1,2.222,2.222A2.222,2.222,0,0,1,70.237,25.817Zm0,4.443h4.443a2.224,2.224,0,0,1,2.2,1.946,7.751,7.751,0,0,1-8.848,0A2.224,2.224,0,0,1,70.237,30.26Zm2.222-12.219a7.771,7.771,0,0,1,6.2,12.463,4.466,4.466,0,0,0-2.509-2.216,4.443,4.443,0,1,0-7.38,0A4.466,4.466,0,0,0,66.26,30.5a7.771,7.771,0,0,1,6.2-12.462ZM49.132,19.152A3.332,3.332,0,1,1,45.8,22.485,3.332,3.332,0,0,1,49.132,19.152Zm-31.1,6.665A7.776,7.776,0,1,1,32,30.5,4.466,4.466,0,0,0,29.5,28.289a4.443,4.443,0,1,0-7.38,0A4.466,4.466,0,0,0,19.607,30.5a7.736,7.736,0,0,1-1.577-4.687Zm5.554,0a2.222,2.222,0,1,1,2.222,2.222A2.222,2.222,0,0,1,23.584,25.817Zm-2.2,6.389a2.224,2.224,0,0,1,2.2-1.946h4.443a2.224,2.224,0,0,1,2.2,1.946A7.751,7.751,0,0,1,21.381,32.206Zm12.23-.154a9.945,9.945,0,0,0,2.155-5.423l8.012-2.67a5.572,5.572,0,0,0,4.243,3.968v5.706a15.485,15.485,0,0,0-9.082,3.775,1.123,1.123,0,0,0-.13-.158ZM18.03,49.144a4.443,4.443,0,1,1,4.443,4.443A4.443,4.443,0,0,1,18.03,49.144Zm11.014,1.111h4.578a15.486,15.486,0,0,0,3.763,9.067l-5.343,5.343a9.944,9.944,0,0,0-5.358-2.15l-1.791-7.162A6.684,6.684,0,0,0,29.044,50.254Zm-7.662,28.6a2.224,2.224,0,0,1,2.2-1.946h4.443a2.224,2.224,0,0,1,2.2,1.946A7.751,7.751,0,0,1,21.381,78.859Zm2.2-6.389a2.222,2.222,0,1,1,2.222,2.222A2.222,2.222,0,0,1,23.584,72.47ZM32,77.158A4.466,4.466,0,0,0,29.5,74.942a4.443,4.443,0,1,0-7.38,0,4.466,4.466,0,0,0-2.509,2.215,7.776,7.776,0,1,1,12.4,0Zm3.8-28.014a13.33,13.33,0,1,1,13.33,13.33A13.33,13.33,0,0,1,35.8,49.144ZM68.035,78.859a2.224,2.224,0,0,1,2.2-1.946h4.443a2.224,2.224,0,0,1,2.2,1.946A7.751,7.751,0,0,1,68.035,78.859Zm2.2-6.389a2.222,2.222,0,1,1,2.222,2.222A2.221,2.221,0,0,1,70.237,72.47Zm10,0a7.736,7.736,0,0,1-1.577,4.687,4.466,4.466,0,0,0-2.509-2.216,4.443,4.443,0,1,0-7.38,0,4.466,4.466,0,0,0-2.509,2.215A7.774,7.774,0,1,1,80.235,72.47Z" transform="translate(0 0)"/>
    </g>
    <g id="Grupo_1002342" data-name="Grupo 1002342" transform="matrix(0.174, -0.985, 0.985, 0.174, 1278.468, 316.381)">
      <g id="Grupo_1002315" data-name="Grupo 1002315" transform="translate(46.755 32.487) rotate(135)">
        <g id="Grupo_1002212" data-name="Grupo 1002212" transform="translate(0 0)" clip-path="url(#clip-path)">
          <path id="Trazado_707910" data-name="Trazado 707910" d="M4.374,40.036C-1.147,28.993-.534,12.269,1.307,0" transform="translate(10.623 4.408)" fill="none" stroke="#12263f" stroke-linecap="round" stroke-linejoin="round" stroke-width="3"/>
          <path id="Trazado_707911" data-name="Trazado 707911" d="M0,9.2C3.681,5.521,7.976,3.067,11.656,0a34.1,34.1,0,0,0,5.522,10.429" transform="translate(1.5 1.5)" fill="none" stroke="#12263f" stroke-linecap="round" stroke-linejoin="round" stroke-width="3"/>
        </g>
      </g>
    </g>
  </g>
</svg>
