<svg xmlns="http://www.w3.org/2000/svg" xmlns:xlink="http://www.w3.org/1999/xlink" width="400" height="355.971" viewBox="0 0 400 355.971">
  <defs>
    <clipPath id="clip-path">
      <path id="Trazado_717977" data-name="Trazado 717977" d="M372.731,159.336c-10.762-51.406,11.31-94.668-98.014-107.828s-157.608,34.2-162.077,52.78c-6.169,25.65,62.678,29.99,51.636,52.505-6.107,12.454-21.595,25.945-31.123,41.637-7.7,12.678-11.5,26.8-3.329,42.966,4.246,8.4-55.027,141.429,89.807,160.745,66.945,8.928,153.024-26.5,215.947-78.619,123.668-102.438-52.084-112.781-62.847-164.187Z" transform="translate(-112.248 -49.231)" fill="none"/>
    </clipPath>
  </defs>
  <g id="Layer_1" transform="translate(-83.775 -47.769)">
    <g id="_187700000" data-name=" 187700000" transform="translate(83.775 47.769)">
      <g id="Grupo_1015412" data-name="Grupo 1015412">
        <g id="Grupo_1015398" data-name="Grupo 1015398" transform="translate(297.885)">
          <g id="Grupo_1015396" data-name="Grupo 1015396" transform="translate(48.462 56.524)">
            <path id="_186327680" data-name=" 186327680" d="M392.751,143.795c0-6.095-2.207-5.748-2.207-12.076,0-6.733,7.432-9.985,7.432-15.79s-1.395-19.042,10.45-19.042,10.449,13.236,10.449,19.042,7.431,9.057,7.431,15.79c0,6.328-2.2,5.982-2.2,12.076,0,8.592,8.011,8.186,8.011,23.222,0,18.81-23.686,19.506-23.686,19.506s-23.688-.7-23.688-19.506C384.738,151.98,392.751,152.387,392.751,143.795Z" transform="translate(-384.738 -96.886)" fill="#4db1f0"/>
            <path id="_186380968" data-name=" 186380968" d="M404.583,217.565a.52.52,0,0,0,.52-.52V114.107a.52.52,0,1,0-1.039,0V217.045a.52.52,0,0,0,.52.52Z" transform="translate(-381.824 -94.368)" fill="#31328c"/>
            <path id="_186381040" data-name=" 186381040" d="M405.475,129.04a.518.518,0,0,0,.367-.885l-8.359-8.362a.519.519,0,0,0-.734.733l8.359,8.363a.52.52,0,0,0,.367.151Z" transform="translate(-382.95 -93.455)" fill="#31328c"/>
            <path id="_186381112" data-name=" 186381112" d="M405.475,155.514a.518.518,0,0,0,.367-.885l-8.359-8.362a.52.52,0,0,0-.734.735l8.359,8.361a.52.52,0,0,0,.367.151Z" transform="translate(-382.95 -89.462)" fill="#31328c"/>
            <path id="_186381184" data-name=" 186381184" d="M404.683,143.614a.506.506,0,0,0,.366-.151l11.032-11.03a.519.519,0,0,0-.734-.734l-11.032,11.03a.518.518,0,0,0,0,.734.511.511,0,0,0,.367.151Z" transform="translate(-381.809 -91.659)" fill="#31328c"/>
          </g>
          <g id="Grupo_1015397" data-name="Grupo 1015397">
            <path id="_186381256" data-name=" 186381256" d="M354.055,114.687c0-8.7-3.147-8.2-3.147-17.226,0-9.607,10.6-14.245,10.6-22.527s-1.987-27.165,14.907-27.165,14.906,18.883,14.906,27.165,10.6,12.92,10.6,22.527c0,9.027-3.149,8.531-3.149,17.226,0,12.258,11.43,11.678,11.43,33.128,0,26.834-33.79,27.83-33.79,27.83s-33.791-1-33.791-27.83c0-21.45,11.43-20.87,11.429-33.128Z" transform="translate(-342.626 -47.769)" fill="#ffa031"/>
            <path id="_186381328" data-name=" 186381328" d="M370.905,219.677a.52.52,0,0,0,.519-.519V72.306a.52.52,0,0,0-1.039,0V219.158a.52.52,0,0,0,.52.519Z" transform="translate(-338.44 -44.147)" fill="#31328c"/>
            <path id="_186381400" data-name=" 186381400" d="M372.182,93.388a.52.52,0,0,0,.367-.886L360.622,80.575a.519.519,0,0,0-.734.734l11.925,11.926A.516.516,0,0,0,372.182,93.388Z" transform="translate(-340.046 -42.845)" fill="#31328c"/>
            <path id="_186381472" data-name=" 186381472" d="M372.182,131.155a.52.52,0,0,0,.367-.887l-11.927-11.926a.519.519,0,0,0-.734.734L371.813,131a.515.515,0,0,0,.369.152Z" transform="translate(-340.046 -37.15)" fill="#31328c"/>
            <path id="_186381496" data-name=" 186381496" d="M371.049,114.181a.516.516,0,0,0,.367-.152l15.736-15.736a.519.519,0,1,0-.733-.734L370.682,113.3a.52.52,0,0,0,0,.734.514.514,0,0,0,.367.152Z" transform="translate(-338.418 -40.284)" fill="#31328c"/>
          </g>
        </g>
        <path id="_184523544" data-name=" 184523544" d="M372.731,159.336c-10.762-51.406,11.31-94.668-98.014-107.828s-157.608,34.2-162.077,52.78c-6.169,25.65,62.678,29.99,51.636,52.505-6.107,12.454-21.595,25.945-31.123,41.637-7.7,12.678-11.5,26.8-3.329,42.966,4.246,8.4-55.027,141.429,89.807,160.745,66.945,8.928,153.024-26.5,215.947-78.619,123.668-102.438-52.084-112.781-62.847-164.187Z" transform="translate(-79.481 -47.549)" fill="#b2def9"/>
        <g id="Grupo_1015408" data-name="Grupo 1015408" transform="translate(32.767 1.682)">
          <g id="Grupo_1015407" data-name="Grupo 1015407" clip-path="url(#clip-path)">
            <g id="Grupo_1015406" data-name="Grupo 1015406" transform="translate(-19.177 -5.296)">
              <g id="Grupo_1015405" data-name="Grupo 1015405">
                <g id="Grupo_1015404" data-name="Grupo 1015404">
                  <g id="Grupo_1015399" data-name="Grupo 1015399" transform="translate(45.902)">
                    <path id="_1845237601" data-name=" 1845237601" d="M211.165,99.019l38.471,73.1c5.942,11.289,37.926,18.454,47.512,27.447h0c4.841,4.542,10.523,7.169,16.291,10.292a3.092,3.092,0,0,1,.99,4.592c-6.232,8.193-19.837,2.781-26.844-.978l-2.288-1.228c-13.2-7.082,2.215,17.973,3.337,20.065l14.795,26.9,8.515,21.986c4.061,7.382-5.382,14.352-10.327,6.209l-9.09-19.21-14.663-21.94a.789.789,0,0,0-1.382.746l14.34,33.767,6.92,18.781c2.477,7.741-8.831,11.36-12.235,4.657l-7.627-17.963-15.849-31.5c-.338-.672-1.646-.434-1.306.42L272,283.58l4.5,15.41c2.15,5.923-.555,8.68-2.793,9.5-3.776,1.39-6.79-1.113-8.782-4.792-1.916-3.539-2.854-8.923-5.892-15.3-6.249-13.108-13.278-28.567-14.555-31.383a.687.687,0,0,0-1.334.328l6.393,23.291,2.868,14.506a5.5,5.5,0,0,1-5.909,5.615h0c-2.554-.191-3.588-1.711-5.028-4.648a73.467,73.467,0,0,0-3.343-12.457c-3.932-10.646-9.152-25.043-10.548-29.284-10.067-26.711-16.294-29.223-19.551-59.326L169.3,120.768a7.444,7.444,0,0,1,1.58-9.792h0c5.006-4.061,34.209-23.66,40.284-11.957Z" transform="translate(-130.547 -36.982)" fill="#f9a872"/>
                    <path id="_184523784" data-name=" 184523784" d="M240.1,140.265c-13.784,15.475-31.24,23.721-51.619,26.211l-53.007-90.2L197.8,44.629Z" transform="translate(-135.471 -44.629)" fill="#ffa031"/>
                    <rect id="_185133000" data-name=" 185133000" width="70.258" height="30.522" rx="4.331" transform="translate(39.428 107.983) rotate(-24.57)" fill="#e38c26"/>
                  </g>
                  <g id="Grupo_1015400" data-name="Grupo 1015400" transform="translate(130.793 48.721)">
                    <path id="_184523664" data-name=" 184523664" d="M400.123,141.327,332.246,207.72c-9.12,8.921-5.29,41.844-10.727,53.811h0c-2.746,6.044-3.409,12.268-4.511,18.734a3.092,3.092,0,0,1-4.03,2.412c-9.761-3.268-9.008-17.891-7.7-25.734l.428-2.561c2.466-14.772-16.309,7.873-17.931,9.607L267.061,286.64l-18.084,15.126c-5.687,6.219-15.321-.484-9.2-7.784L255.05,279.2l16.066-20.935a.788.788,0,0,0-1.151-1.068L242.6,281.626l-15.562,12.586c-6.537,4.833-13.6-4.713-8.341-10.089l14.559-12.995L258,246c.528-.536-.119-1.7-.818-1.1l-23.293,19.816-13.148,9.211c-4.92,3.939-8.4,2.264-9.9.409-2.528-3.128-1.128-6.787,1.717-9.855,2.735-2.951,7.533-5.57,12.593-10.5,10.406-10.128,22.787-21.751,25.044-23.866a.687.687,0,0,0-.74-1.158l-20,13.538-12.816,7.375a5.5,5.5,0,0,1-7.216-3.792h0c-.64-2.479.467-3.947,2.786-6.255a73.5,73.5,0,0,0,10.723-7.168c8.819-7.144,20.774-16.713,24.342-19.4,22.062-18.116,22.439-24.819,49.9-37.576l68.91-67.012a7.444,7.444,0,0,1,9.781-1.649h0c5.455,3.435,33.4,24.793,24.266,34.306Z" transform="translate(-209.238 -84.115)" fill="#663636"/>
                    <path id="_184523688" data-name=" 184523688" d="M353.329,181.223c-19.083-8.082-32.5-21.962-41.4-40.461l44.733-53.8,50,48.858-53.327,45.4Z" transform="translate(-193.753 -86.966)" fill="#3076b6"/>
                    <path id="_184523568" data-name=" 184523568" d="M292.031,159.731l15.15-14.334c.1-.1.382.023.618.273l33.817,35.742c.236.25.343.533.238.632L326.7,196.377c-.1.1-.381-.023-.618-.274l-33.816-35.74C292.034,160.113,291.927,159.83,292.031,159.731Z" transform="translate(-196.759 -78.16)" fill="#1a1a1a"/>
                    <rect id="_185669112" data-name=" 185669112" width="28.172" height="27.872" rx="0.39" transform="translate(100.376 92.284) rotate(-43.416)" fill="#3076b6"/>
                  </g>
                  <path id="_184523472" data-name=" 184523472" d="M455.894,334.59,324.62,279.525c-11.763-4.935-40.746,10.89-53.88,10.372h0c-6.633-.262-12.646,1.473-19.051,2.891a3.091,3.091,0,0,1-3.754-2.822c-.656-10.272,13.17-15.094,20.927-16.84l2.533-.57c14.609-3.29-13.445-12.133-15.664-12.98L226.937,248.94,206.1,237.9c-7.9-2.92-5.332-14.37,3.739-11.455l19.45,8.564,25.45,6.98a.789.789,0,0,0,.556-1.47l-32.95-16.127L204.82,214.73c-6.942-4.229-.765-14.368,6.2-11.532l17.528,8.58,32.61,13.43c.7.287,1.526-.75.711-1.174l-27.139-14.094-13.493-8.7c-5.5-3.069-5.265-6.923-4.113-9.012,1.943-3.523,5.86-3.605,9.775-2.129,3.765,1.419,8,4.875,14.471,7.7,13.306,5.813,28.742,12.894,31.551,14.186a.687.687,0,0,0,.793-1.122L253.627,197.45l-11.667-9.086a5.5,5.5,0,0,1,.789-8.112h0c2.054-1.528,3.831-1.058,6.844.219a73.4,73.4,0,0,0,10.684,7.227c9.944,5.47,23.317,12.93,27.148,15.223,25.1,13.593,31.452,11.415,53.627,32.03l131.463,47.565a7.442,7.442,0,0,1,5.218,8.435h0c-1.122,6.348-9.584,48.505-21.84,43.638Z" transform="translate(-79.628 -24.322)" fill="#ffc38d"/>
                  <g id="Grupo_1015401" data-name="Grupo 1015401" transform="translate(123.493 154.973)">
                    <path id="Trazado_717960" data-name="Trazado 717960" d="M204.526,209.336a7.6,7.6,0,0,0-.879.433,7.558,7.558,0,0,0,.833.595l17.529,9.662,9.928,4.859c-4.078-6.565-11.956-16.629-21.913-16.629A14.633,14.633,0,0,0,204.526,209.336Z" transform="translate(-202.782 -174.927)" fill="#f9a872"/>
                    <path id="Trazado_717961" data-name="Trazado 717961" d="M287.2,202.921c-3.831-2.292-17.2-9.753-27.148-15.224a73.34,73.34,0,0,1-10.684-7.226c-3.013-1.276-4.79-1.747-6.844-.219a5.5,5.5,0,0,0-.789,8.112L253.4,197.45l20.084,13.415a.687.687,0,0,1-.793,1.122c-2.809-1.292-18.246-8.373-31.551-14.186a65.584,65.584,0,0,1-7.183-3.75l-.516,15.208,1.059.682,27.139,14.094c.815.423-.016,1.46-.711,1.174l-27.641-11.384-.053,1.546c-.01.239-.018.723-.025,1.394a118.063,118.063,0,0,1-.684,12.72l22.548,11.036a.789.789,0,0,1-.556,1.47l-25.45-6.98-19.45-8.564c-3-.966-5.288-.351-6.722,1a58.367,58.367,0,0,1,6.127,12.119l17.689,9.373L255.5,259.577c2.219.847,30.273,9.69,15.664,12.98l-2.533.57c-7.758,1.746-21.583,6.568-20.927,16.84a3.091,3.091,0,0,0,3.754,2.822c6.405-1.418,12.418-3.153,19.051-2.891,5.84.23,14.815-2.77,24.016-5.741,6.259-15.1,7.118-23.438,8.233-34.453.581-5.742,1.239-12.249,2.8-21.025.57-2.576,1.75-8.57,3.06-15.414C302.833,210.66,296.233,207.812,287.2,202.921Z" transform="translate(-202.895 -179.295)" fill="#e2e2e2" style="mix-blend-mode: multiply;isolation: isolate"/>
                  </g>
                  <g id="Grupo_1015402" data-name="Grupo 1015402" transform="translate(0 143.314)">
                    <path id="_184523856" data-name=" 184523856" d="M188.427,227.488l9.458-2.7c12.268-3.5,25.953-33.247,36.746-40.749h0c5.451-3.788,9.2-8.8,13.46-13.789a3.093,3.093,0,0,1,4.7-.012c6.715,7.8-1.413,19.982-6.551,26.051l-1.678,1.982c-9.675,11.43,18.041,1.58,20.321.918l29.388-8.865,23.277-3.746c8.067-2.433,12.915,8.255,3.921,11.394l-20.683,4.887-24.514,9.769a.788.788,0,0,0,.442,1.506l36.013-6.988,19.811-2.854c8.088-.809,9.27,11.005,2.006,12.937l-19.158,3.717-34.115,8.935c-.728.191-.768,1.519.138,1.365l30.152-5.108,16.011-1.188c6.241-.869,8.374,2.351,8.713,4.712.573,3.982-2.5,6.409-6.517,7.59-3.86,1.137-9.322.932-16.189,2.576-14.121,3.379-30.707,7.031-33.728,7.694a.687.687,0,0,0,.043,1.373L304,247.5l14.787.219a5.5,5.5,0,0,1,4.259,6.95h0c-.718,2.457-2.42,3.152-5.594,3.95a73.506,73.506,0,0,0-12.881.672c-11.232,1.627-26.4,3.733-30.839,4.214-28.223,4.28-31.977,9.845-62.1,6.759l-10.662,2.7a7.444,7.444,0,0,1-9.248-3.587h0c-2.929-5.742-16.011-38.387-3.3-41.89Z" transform="translate(-82.406 -169.163)" fill="#9f4743"/>
                    <path id="Trazado_717962" data-name="Trazado 717962" d="M257.084,253.887a107.689,107.689,0,0,1-34.895,2.986c-3.132-.246-6.649-.856-8.417-3.455a12.072,12.072,0,0,1-1.323-3.128c-.657-12.224-4.171-22.435-11.949-33.773a12.405,12.405,0,0,1-2.615,1.128l-9.458,2.7h0c-12.713,3.5.368,36.148,3.3,41.89a7.444,7.444,0,0,0,9.248,3.587l8.251-2.093h0l2.411-.611c27.237,2.791,32.917-1.493,54.627-5.5q.072-.665.125-1.327a4.16,4.16,0,0,1,.407-1.793Z" transform="translate(-82.407 -162.022)" fill="#f9e9e1" style="mix-blend-mode: multiply;isolation: isolate"/>
                    <path id="Trazado_717963" data-name="Trazado 717963" d="M278.641,229.883l28.9-7.57,5.212-1.365,19.158-3.717a6.366,6.366,0,0,0,4.7-5.234l-15.226,3.525c-1.57.364-3.143.727-4.74.932a24.361,24.361,0,0,1-3.863.186,3.3,3.3,0,0,1-2.592-.924,3.511,3.511,0,0,1-.537-1.88l-.151-1.7c.316-1.663.635-3.352.954-5.043l-.362.052-36.013,6.988a.788.788,0,0,1-.442-1.506l24.514-9.769,13.7-3.237,6.985-1.65c3.094-1.081,4.55-3.054,4.8-5.08a18.448,18.448,0,0,1-8.387,2.161c-.606.007-1.329-.085-1.6-.625-.221-.433-.064-.976-.2-1.434.873-2.979,1.661-4.974,1.672-5l.243-.606.053-.65c.008-.093.015-.192.023-.289-.173.041-.345.081-.522.134l-23.277,3.746-29.388,8.865c-2.28.662-30,10.511-20.321-.918l1.678-1.982c5.138-6.068,13.266-18.248,6.551-26.051a3.093,3.093,0,0,0-4.7.012c-3.3,3.866-6.3,7.735-10.014,11.045l-.791,4.683L233.613,216.9c-.01.239-.018.723-.025,1.394a113.934,113.934,0,0,1-.739,13.171c-3.943-6.524-12.022-17.313-22.332-17.313a14.419,14.419,0,0,0-2.75.267,48.8,48.8,0,0,1-7.385,7.555,7.41,7.41,0,0,0,1.043,3.948q.815,1.365,1.636,2.7c2.712,4.448,5.274,8.648,6.657,13.452,1.758,6.1,7.173,13.48,12.906,21.292,1.8,2.454,3.724,5.08,5.548,7.712,14.6-.566,22.113-4.419,42.935-7.577,4.44-.481,19.607-2.587,30.839-4.214.1-.015.2-.026.3-.04h0a73.662,73.662,0,0,1,12.579-.632c3-.755,4.678-1.436,5.458-3.59a38.109,38.109,0,0,1-12.349-.358,10.291,10.291,0,0,1-3.452-1.206,4.766,4.766,0,0,1-1.343-2.23c.121-1.192.247-2.429.382-3.7l-2.147-.031-24.112,1.4a.687.687,0,0,1-.043-1.373c2.282-.5,12.309-2.709,23.163-5.215h0l.185-.043q1.821-.421,3.662-.85h0c2.259-.528,4.517-1.059,6.717-1.585,6.868-1.643,12.33-1.439,16.189-2.576,3.319-.976,5.99-2.808,6.494-5.663a117.354,117.354,0,0,1-15.293,3.632c-3.311.551-6.775.949-9.969-.081a3.893,3.893,0,0,1-1.993-1.226,4.878,4.878,0,0,1-.71-2.108c.091-.533.176-1.051.274-1.6.192-.87.457-2.141.77-3.691l-27.931,4.732C277.874,231.4,277.913,230.074,278.641,229.883Z" transform="translate(-79.781 -169.163)" fill="#f9e9e1" style="mix-blend-mode: multiply;isolation: isolate"/>
                    <path id="Trazado_717964" data-name="Trazado 717964" d="M307.516,192.82a5.5,5.5,0,0,0-.486-7.186,3.241,3.241,0,0,0-2.817-.961c-1.3.181-2.6.406-3.879.7a1.76,1.76,0,0,0-.9.4,1.706,1.706,0,0,0-.34,1.2,18.092,18.092,0,0,0,.826,5.591,2.5,2.5,0,0,0,.873,1.428,2.585,2.585,0,0,0,1.455.278c.992-.013,1.983-.071,2.971-.17A3.325,3.325,0,0,0,307.516,192.82Z" transform="translate(-64.894 -166.829)" fill="#a85252"/>
                    <path id="Trazado_717965" data-name="Trazado 717965" d="M321.05,206.946c.451-2.9-1.543-6.426-4.784-6.2l-4.874.337a4.04,4.04,0,0,0-1.784.4c-1.282.749-1.342,2.547-1.243,4.028a9.79,9.79,0,0,0,.48,2.868,3.305,3.305,0,0,0,1.951,2.037,4.869,4.869,0,0,0,1.885.087c2.036-.176,4.261.007,6.209-.8A3.41,3.41,0,0,0,321.05,206.946Z" transform="translate(-63.501 -164.402)" fill="#a85252"/>
                    <path id="Trazado_717966" data-name="Trazado 717966" d="M317.171,225.457a5.563,5.563,0,0,0,.6-3.628,5.365,5.365,0,0,0-.414-1.394,3.586,3.586,0,0,0-3.414-2.02,43.635,43.635,0,0,0-6.068.616,2.3,2.3,0,0,0-1.474.658,2.009,2.009,0,0,0-.344,1.151,20.393,20.393,0,0,0,.025,2.529c.083,1.29.252,2.868,1.308,3.724a4.649,4.649,0,0,0,3.318.634c1.317-.1,2.627-.261,3.93-.478A3.58,3.58,0,0,0,317.171,225.457Z" transform="translate(-63.85 -161.736)" fill="#a85252"/>
                    <path id="Trazado_717967" data-name="Trazado 717967" d="M297.82,243.185a3.164,3.164,0,0,0,.542,1.773,2.66,2.66,0,0,0,2.112.671c1.877.018,4.457.585,5.746-1.12a2.887,2.887,0,0,0-.562-4.173,8,8,0,0,0-5.114-1.389C297.418,239.027,297.53,240.173,297.82,243.185Z" transform="translate(-65.108 -158.64)" fill="#a85252"/>
                    <path id="_185668848" data-name=" 185668848" d="M206.248,215.356c12.262,16.707,15.36,30.5,13.547,50.946L119.29,298.678l-16.635-62.556,103.593-20.766Z" transform="translate(-94.518 -162.197)" fill="#fff"/>
                    <path id="_184523880" data-name=" 184523880" d="M199.177,215.3c12.263,16.707,16.69,35.5,14.878,55.947L113.549,303.625l-17.965-67.56L199.177,215.3Z" transform="translate(-95.584 -162.206)" fill="#1a5182"/>
                  </g>
                  <g id="Grupo_1015403" data-name="Grupo 1015403" transform="translate(124.925 122.987)">
                    <path id="_185668896" data-name=" 185668896" d="M237.666,321.715l2.441-30.428c1.021-12.715-23.154-35.252-26.793-47.882h0c-1.838-6.379-5.377-11.541-8.737-17.174a3.092,3.092,0,0,1,1.5-4.452c9.546-3.854,18.47,7.755,22.567,14.568l1.338,2.226c7.718,12.833,7.288-16.578,7.394-18.95l1.04-30.678,3.927-23.247c.285-8.422,11.964-9.582,12.05-.055L252.378,186.8l1.381,26.353a.789.789,0,0,0,1.57.066l4.944-36.35,3.658-19.679c1.831-7.92,13.4-5.247,12.9,2.254L274.2,178.779,271.7,213.958c-.053.75,1.192,1.214,1.337.306l4.843-30.2,4.015-15.544c1.182-6.189,4.915-7.175,7.26-6.739,3.955.737,5.266,4.428,5.1,8.609-.165,4.021-2.112,9.127-2.76,16.16-1.334,14.459-3.2,31.339-3.542,34.412a.687.687,0,0,0,1.314.4l6.417-23.283,4.954-13.933a5.5,5.5,0,0,1,7.949-1.8h0c2.1,1.47,2.21,3.305,1.945,6.565a73.485,73.485,0,0,0-3.5,12.416c-2.065,11.159-4.94,26.2-5.911,30.558-5.008,28.1-.943,33.447-13.537,60.981l-2.824,31.566a7.443,7.443,0,0,1-6.365,7.607h0c-6.38.931-41.5,2.84-40.733-10.325Z" transform="translate(-204.139 -151.366)" fill="#ffc38d"/>
                    <path id="Trazado_717968" data-name="Trazado 717968" d="M304.911,179.086c-.131-.07-7.947,25.008-8.517,27.361a224.048,224.048,0,0,0-5.126,29.9c-.962,9.409-1.125,18.386-3.564,27.585a165,165,0,0,1-10.372,27.836c-1.392,2.96-3,5.947-5.568,7.969-4.6,3.617-10.841,1.037-16.134.77a76.7,76.7,0,0,0-21.13,1.9l-1.226,15.283c-.764,13.164,34.352,11.256,40.733,10.325a7.443,7.443,0,0,0,6.365-7.607l1.27-14.2,1.554-17.368c12.594-27.534,8.529-32.877,13.537-60.981,3.235-14.535,5.622-29.151,9.18-43.615C306.365,182.4,306.581,179.981,304.911,179.086Z" transform="translate(-199.748 -147.34)" fill="#f9e9e1" style="mix-blend-mode: multiply;isolation: isolate"/>
                    <path id="Trazado_717969" data-name="Trazado 717969" d="M277.4,223.6c.484-.2.634-.8.723-1.32.108-.631.223-1.261.333-1.892a.683.683,0,0,1-1.07-.733c.343-3.074,2.208-19.954,3.541-34.412.649-7.033,2.6-12.139,2.761-16.16.139-3.451-.733-6.564-3.266-7.961-1.756,13.407-5.459,26.574-6.072,40.083-.234,5.162-.014,10.333.207,15.5.089,2.068.2,4.233,1.264,6.012C276.156,223.275,276.788,223.848,277.4,223.6Z" transform="translate(-193.567 -150.05)" fill="#f9e9e1" style="mix-blend-mode: multiply;isolation: isolate"/>
                    <path id="Trazado_717970" data-name="Trazado 717970" d="M262.462,217.709c.765.329,1.608-.453,1.764-1.272a9.581,9.581,0,0,0,.467-2.294c-.145.908-1.39.444-1.337-.306l2.491-35.179,2.631-19.337a6.365,6.365,0,0,0-3.454-6.136c.427,8.888-1.793,17.715-3.276,26.519a161.713,161.713,0,0,0-2.25,26.589c-.007,3.707.183,7.637,2.246,10.715A1.791,1.791,0,0,0,262.462,217.709Z" transform="translate(-195.791 -151.246)" fill="#f9e9e1" style="mix-blend-mode: multiply;isolation: isolate"/>
                    <path id="Trazado_717971" data-name="Trazado 717971" d="M241.584,192.632a107.369,107.369,0,0,0,1.521,13.911,34.965,34.965,0,0,0,2.1,8.664,2.913,2.913,0,0,0,1.124,1.49,2.185,2.185,0,0,0,2.754-1.059,6.443,6.443,0,0,0,.559-3.181.783.783,0,0,1-1.529-.2l-1.381-26.353,2.013-21.157c-.033-3.665-1.784-5.742-3.939-6.439C244.752,169.758,241.329,181.134,241.584,192.632Z" transform="translate(-198.495 -150.473)" fill="#f9e9e1" style="mix-blend-mode: multiply;isolation: isolate"/>
                    <path id="Trazado_717972" data-name="Trazado 717972" d="M214.012,224.823a2.547,2.547,0,0,0-.092-1.427,15.49,15.49,0,0,0-3.578-6.639,4.382,4.382,0,0,0-3.563-1.344,3.343,3.343,0,0,0-2.212,1.409c2.222,3.719,4.505,7.244,6.332,11.047a9.857,9.857,0,0,0,2.558-2.154A2.583,2.583,0,0,0,214.012,224.823Z" transform="translate(-204.075 -141.867)" fill="#ffd5b3"/>
                    <path id="Trazado_717973" data-name="Trazado 717973" d="M248.042,159.911A5.5,5.5,0,0,0,241.1,158a3.237,3.237,0,0,0-1.834,2.343c-.258,1.289-.472,2.587-.617,3.893a1.755,1.755,0,0,0,.081.977,1.707,1.707,0,0,0,1.023.715,18.072,18.072,0,0,0,5.551,1.062,2.5,2.5,0,0,0,1.635-.354,2.578,2.578,0,0,0,.742-1.281c.315-.941.586-1.9.818-2.862A3.328,3.328,0,0,0,248.042,159.911Z" transform="translate(-198.94 -150.597)" fill="#ffd5b3"/>
                    <path id="Trazado_717974" data-name="Trazado 717974" d="M265.836,152.171c-2.594-1.383-6.577-.659-7.432,2.474q-.644,2.356-1.287,4.713a4.032,4.032,0,0,0-.207,1.817c.284,1.457,1.963,2.1,3.394,2.5a9.751,9.751,0,0,0,2.865.49,3.3,3.3,0,0,0,2.566-1.171,4.847,4.847,0,0,0,.7-1.75c.5-1.981,1.411-4.022,1.291-6.125A3.4,3.4,0,0,0,265.836,152.171Z" transform="translate(-196.188 -151.5)" fill="#ffd5b3"/>
                    <path id="Trazado_717975" data-name="Trazado 717975" d="M282.033,161.854a5.559,5.559,0,0,0-3.23-1.76,5.4,5.4,0,0,0-1.452-.067,3.584,3.584,0,0,0-3.03,2.559,43.355,43.355,0,0,0-1.418,5.932,2.3,2.3,0,0,0,.136,1.609,2.006,2.006,0,0,0,.974.7,20.361,20.361,0,0,0,2.4.809c1.246.348,2.792.707,3.948-.009a4.65,4.65,0,0,0,1.691-2.923c.341-1.276.619-2.567.844-3.869A3.577,3.577,0,0,0,282.033,161.854Z" transform="translate(-193.782 -150.217)" fill="#ffd5b3"/>
                    <path id="Trazado_717976" data-name="Trazado 717976" d="M292.465,185.641a3.153,3.153,0,0,0,1.853.07,2.656,2.656,0,0,0,1.329-1.772c.634-1.765,2.018-4.016.834-5.793a2.886,2.886,0,0,0-4.124-.845,7.989,7.989,0,0,0-3,4.372C288.407,184.65,289.525,184.922,292.465,185.641Z" transform="translate(-191.338 -147.688)" fill="#ffd5b3"/>
                    <path id="_183740848" data-name=" 183740848" d="M231.562,295.016c19.759-6.249,38.976-4.41,57.762,3.874l-1.389,91.349-69.751-4.677,13.378-90.546Z" transform="translate(-202.021 -130.419)" fill="#fff"/>
                  </g>
                  <rect id="_185668968" data-name=" 185668968" width="52.537" height="9.895" rx="1.392" transform="translate(248.874 259.815) rotate(-70.434)" fill="#1a5182"/>
                </g>
              </g>
            </g>
          </g>
        </g>
        <path id="Trazado_717978" data-name="Trazado 717978" d="M372.731,159.336c-10.762-51.406,11.31-94.668-98.014-107.828s-157.608,34.2-162.077,52.78c-6.169,25.65,62.678,29.99,51.636,52.505-6.107,12.454-21.595,25.945-31.123,41.637-7.7,12.678-11.5,26.8-3.329,42.966,4.246,8.4-55.027,141.429,89.807,160.745,66.945,8.928,153.024-26.5,215.947-78.619,123.668-102.438-52.084-112.781-62.847-164.187Z" transform="translate(-79.481 -47.549)" fill="none"/>
        <path id="_378593200" data-name=" 378593200" d="M97.142,143.748a33.2,33.2,0,0,1,29.723-6.856c4.92,1.284,10.045,4.374,10.982,9.371.948,5.065-2.7,9.7-5.871,13.762a120.5,120.5,0,0,0-12.95,20.6c-2.426,4.9-4.574,10.049-8.2,14.141s-9.183,7-14.515,5.789c-7.6-1.724-11.166-10.515-12.1-18.254a50.06,50.06,0,0,1,2.716-24.486A35.388,35.388,0,0,1,97.142,143.748Z" transform="translate(-83.775 -34.489)" fill="#b2def9"/>
        <path id="_378593200-2" data-name=" 378593200" d="M393.254,359.862a34.928,34.928,0,0,1-31.525-5.992c-4.192-3.321-7.817-8.468-6.6-13.676,1.231-5.279,6.71-8.194,11.484-10.763a126.8,126.8,0,0,0,21.2-14.35c4.412-3.689,8.662-7.738,13.888-10.141s11.807-2.847,16.429.577c6.589,4.882,6.3,14.856,3.916,22.7-2.535,8.354-6.761,16.31-12.989,22.426A37.241,37.241,0,0,1,393.254,359.862Z" transform="translate(-42.891 -9.274)" fill="#b2def9"/>
        <g id="Grupo_1015411" data-name="Grupo 1015411" transform="translate(8.73 186.423)">
          <g id="Grupo_1015409" data-name="Grupo 1015409" transform="translate(45.248 52.776)">
            <path id="_187700144" data-name=" 187700144" d="M138.161,299.42c0-5.691-2.061-5.367-2.061-11.274,0-6.288,6.939-9.324,6.939-14.744s-1.3-17.779,9.758-17.779,9.756,12.358,9.756,17.779,6.938,8.456,6.938,14.744c0,5.907-2.06,5.584-2.06,11.274,0,8.022,7.48,7.642,7.48,21.682,0,17.562-22.115,18.214-22.115,18.214s-22.117-.651-22.117-18.214C130.68,307.063,138.161,307.443,138.161,299.42Z" transform="translate(-130.68 -255.623)" fill="#4db1f0"/>
            <path id="_187700168" data-name=" 187700168" d="M149.209,368.3a.484.484,0,0,0,.484-.484V271.7a.485.485,0,1,0-.97,0v96.112a.485.485,0,0,0,.486.484Z" transform="translate(-127.959 -253.272)" fill="#31328c"/>
            <path id="_187700192" data-name=" 187700192" d="M150.042,285.644a.483.483,0,0,0,.343-.826l-7.8-7.806a.485.485,0,1,0-.686.685l7.8,7.807a.487.487,0,0,0,.343.14Z" transform="translate(-129.01 -252.419)" fill="#31328c"/>
            <path id="_187700216" data-name=" 187700216" d="M150.042,310.363a.483.483,0,0,0,.343-.826l-7.8-7.807a.485.485,0,0,0-.686.687l7.8,7.806A.487.487,0,0,0,150.042,310.363Z" transform="translate(-129.01 -248.692)" fill="#31328c"/>
            <path id="_187700240" data-name=" 187700240" d="M149.3,299.253a.48.48,0,0,0,.343-.14l10.3-10.3a.485.485,0,1,0-.686-.686l-10.3,10.3a.484.484,0,0,0,.343.826Z" transform="translate(-127.945 -250.743)" fill="#31328c"/>
          </g>
          <g id="Grupo_1015410" data-name="Grupo 1015410">
            <path id="_187700288" data-name=" 187700288" d="M102.032,272.243c0-8.119-2.939-7.655-2.939-16.084,0-8.97,9.9-13.3,9.9-21.033s-1.855-25.364,13.92-25.364,13.918,17.631,13.918,25.364,9.9,12.063,9.9,21.033c0,8.428-2.939,7.966-2.939,16.084,0,11.446,10.671,10.9,10.671,30.931,0,25.055-31.549,25.984-31.549,25.984s-31.55-.929-31.55-25.984C91.361,283.148,102.032,283.689,102.032,272.243Z" transform="translate(-91.361 -209.763)" fill="#ffa031"/>
            <path id="_187700312" data-name=" 187700312" d="M117.765,370.269a.485.485,0,0,0,.484-.484V232.671a.484.484,0,0,0-.969,0V369.784A.485.485,0,0,0,117.765,370.269Z" transform="translate(-87.453 -206.381)" fill="#31328c"/>
            <path id="_187700336" data-name=" 187700336" d="M118.956,252.357a.491.491,0,0,0,.343-.143.485.485,0,0,0,0-.685l-11.136-11.136a.485.485,0,0,0-.686.686l11.135,11.135A.485.485,0,0,0,118.956,252.357Z" transform="translate(-88.952 -205.165)" fill="#31328c"/>
            <path id="_187700360" data-name=" 187700360" d="M118.956,287.62a.486.486,0,0,0,.343-.83l-11.136-11.134a.485.485,0,0,0-.686.686l11.135,11.135A.481.481,0,0,0,118.956,287.62Z" transform="translate(-88.952 -199.848)" fill="#31328c"/>
            <path id="_187700384" data-name=" 187700384" d="M117.9,271.771a.483.483,0,0,0,.343-.142l14.693-14.693a.485.485,0,1,0-.686-.685l-14.693,14.693a.485.485,0,0,0,0,.685A.478.478,0,0,0,117.9,271.771Z" transform="translate(-87.432 -202.774)" fill="#31328c"/>
          </g>
        </g>
        <path id="_186382408" data-name=" 186382408" d="M154.518,358.385s.162-13-17.636-10.254c0,0-5.824-8.737-14.886-8.736-8.413,0-12.3,8.089-12.3,8.089s-6.634-.017-6.8,6.383a6.522,6.522,0,0,0-6.634,4.517Z" transform="translate(-81.891 -3.792)" fill="#88c8f0"/>
        <path id="_186382624" data-name=" 186382624" d="M210.192,359.193s.214-17.225-23.36-13.582c0,0-7.715-11.572-19.717-11.571-11.144,0-16.288,10.714-16.288,10.714s-8.785-.022-9,8.456c0,0-6.645-.58-8.786,5.983Z" transform="translate(-76.346 -4.6)" fill="#88c8f0"/>
        <path id="_382362040" data-name=" 382362040" d="M351.169,100.377s.3-24.162-32.767-19.053c0,0-10.822-16.233-27.657-16.232-15.632,0-22.847,15.029-22.847,15.029s-12.325-.03-12.625,11.861c0,0-9.32-.812-12.326,8.394Z" transform="translate(-59.772 -45.157)" fill="#fff"/>
        <path id="_382362040-2" data-name=" 382362040" d="M120.374,191.811s-.222-17.8,24.135-14.032c0,0,7.97-11.957,20.369-11.956,11.514,0,16.828,11.07,16.828,11.07s9.077-.022,9.3,8.736c0,0,6.865-.6,9.077,6.182Z" transform="translate(-78.256 -29.966)" fill="#fff"/>
        <path id="_186881608" data-name=" 186881608" d="M334.927,224.673s-.234-18.684,25.338-14.733c0,0,8.369-12.554,21.388-12.552,12.088,0,17.668,11.622,17.668,11.622s9.53-.024,9.763,9.172c0,0,7.206-.628,9.531,6.491Z" transform="translate(-45.902 -25.206)" fill="#fff"/>
      </g>
    </g>
  </g>
</svg>
