<svg xmlns="http://www.w3.org/2000/svg" width="181" height="181" viewBox="0 0 181 181">
  <g id="Grupo_1026567" data-name="Grupo 1026567" transform="translate(-1020 -2711)">
    <g id="Grupo_1004760" data-name="Grupo 1004760" transform="translate(0 1849)">
      <g id="Grupo_1004759" data-name="Grupo 1004759" transform="translate(621)">
        <circle id="Elipse_8399" data-name="Elipse 8399" cx="90.5" cy="90.5" r="90.5" transform="translate(399 862)" fill="#fff"/>
      </g>
    </g>
    <g id="Grupo_1026565" data-name="Grupo 1026565" transform="translate(1046.388 2737.395)">
      <path id="Trazado_723956" data-name="Trazado 723956" d="M256,317.616v-22.9a15.846,15.846,0,0,1,21.866-14.69l13.01-1.527a5.155,5.155,0,0,1,2.48,9.92l-12.577,4.925,15.884-9.887L307.2,259.28a5.428,5.428,0,1,1,9.952,4.336l-10.914,25.049a25.81,25.81,0,0,1-14.682,13.888l-14.848,5.51-.662,9.554Z" transform="translate(-191.888 -191.908)" fill="#cc9081"/>
      <g id="Grupo_1026563" data-name="Grupo 1026563" transform="translate(13.028 2.504)">
        <path id="Trazado_723957" data-name="Trazado 723957" d="M210.157,120.7H199.9A11.9,11.9,0,0,0,188,132.6v11.577h34.056V132.6A11.9,11.9,0,0,0,210.157,120.7Z" transform="translate(-153.944 -92.98)" fill="#4db1f0"/>
        <path id="Trazado_723958" data-name="Trazado 723958" d="M232.941,48.574a7.7,7.7,0,0,0-7.7,7.7v2.655a7.7,7.7,0,0,0,15.406,0V56.277A7.7,7.7,0,0,0,232.941,48.574Z" transform="translate(-181.857 -38.915)" fill="#cc9081"/>
        <path id="Trazado_723959" data-name="Trazado 723959" d="M164.941,10a7.7,7.7,0,0,0-7.7,7.7v2.655a7.7,7.7,0,0,0,15.406,0V17.7A7.7,7.7,0,0,0,164.941,10Z" transform="translate(-130.885 -10)" fill="#f2b394"/>
        <path id="Trazado_723960" data-name="Trazado 723960" d="M300.941,10a7.7,7.7,0,0,1,7.7,7.7v2.655a7.7,7.7,0,1,1-15.406,0V17.7A7.7,7.7,0,0,1,300.941,10Z" transform="translate(-232.829 -10)" fill="#ffd0c7"/>
        <path id="Trazado_723961" data-name="Trazado 723961" d="M74.157,120.7H63.9A11.9,11.9,0,0,0,52,132.6v11.577H86.056V132.6A11.9,11.9,0,0,0,74.157,120.7Z" transform="translate(-52 -92.98)" fill="#3076b6"/>
        <path id="Trazado_723962" data-name="Trazado 723962" d="M96.941,48.574a7.7,7.7,0,0,0-7.7,7.7v2.655a7.7,7.7,0,1,0,15.406,0V56.277A7.7,7.7,0,0,0,96.941,48.574Z" transform="translate(-79.913 -38.915)" fill="#ffd0c7"/>
        <path id="Trazado_723963" data-name="Trazado 723963" d="M335.9,120.7h10.257a11.9,11.9,0,0,1,11.9,11.9v11.577H324V132.6a11.9,11.9,0,0,1,11.9-11.9Z" transform="translate(-255.887 -92.98)" fill="#3076b6"/>
        <path id="Trazado_723964" data-name="Trazado 723964" d="M368.941,48.574a7.7,7.7,0,0,1,7.7,7.7v2.655a7.7,7.7,0,1,1-15.406,0V56.277A7.7,7.7,0,0,1,368.941,48.574Z" transform="translate(-283.801 -38.915)" fill="#f2b394"/>
      </g>
      <path id="Trazado_723965" data-name="Trazado 723965" d="M71.6,317.615v-22.9a15.846,15.846,0,0,0-21.866-14.69L36.726,278.5a5.155,5.155,0,0,0-2.48,9.92l12.577,4.925-15.884-9.887L20.4,259.279a5.428,5.428,0,0,0-9.952,4.336l10.914,25.049a25.81,25.81,0,0,0,14.682,13.888l14.848,5.51.662,9.554Z" transform="translate(-7.489 -191.907)" fill="#cc9081"/>
      <g id="Grupo_1026564" data-name="Grupo 1026564" transform="translate(0.008)">
        <path id="Trazado_723966" data-name="Trazado 723966" d="M44.5,56.206H146.673a2.5,2.5,0,0,0,2.5-2.5V42.125a14.426,14.426,0,0,0-11.009-14,10.145,10.145,0,0,0,1.684-5.607V19.867a10.2,10.2,0,0,0-17.028-7.586V10.207a10.207,10.207,0,1,0-20.415,0v2.073a10.185,10.185,0,0,0-13.642,0V10.207a10.207,10.207,0,1,0-20.415,0v2.073a10.2,10.2,0,0,0-17.028,7.586v2.655a10.145,10.145,0,0,0,1.684,5.607A14.426,14.426,0,0,0,42,42.125V53.7A2.5,2.5,0,0,0,44.5,56.206ZM70.056,28.129a10.145,10.145,0,0,0,1.684-5.607V20.449a10.185,10.185,0,0,0,13.642,0v2.073a10.145,10.145,0,0,0,1.684,5.607,14.446,14.446,0,0,0-8.5,5.891,14.444,14.444,0,0,0-8.5-5.891Zm11.009,14a9.406,9.406,0,0,1,9.4-9.4h10.257a9.406,9.406,0,0,1,9.4,9.4V51.2H81.065Zm24.731-19.6V20.449a10.185,10.185,0,0,0,13.642,0v2.073a10.145,10.145,0,0,0,1.684,5.607,14.446,14.446,0,0,0-8.5,5.891,14.444,14.444,0,0,0-8.5-5.891A10.147,10.147,0,0,0,105.8,22.522Zm38.373,19.6V51.2H115.121V42.125a9.406,9.406,0,0,1,9.4-9.4h10.257A9.406,9.406,0,0,1,144.169,42.125ZM124.446,19.867a5.2,5.2,0,1,1,10.4,0v2.655a5.2,5.2,0,1,1-10.4,0Zm-17.028-9.659a5.2,5.2,0,1,1,10.4,0v2.655a5.2,5.2,0,1,1-10.4,0ZM90.389,19.867a5.2,5.2,0,1,1,10.4,0v2.655a5.2,5.2,0,1,1-10.4,0ZM73.361,10.207a5.2,5.2,0,1,1,10.4,0v2.655a5.2,5.2,0,1,1-10.4,0ZM56.333,19.867a5.2,5.2,0,1,1,10.4,0v2.655a5.2,5.2,0,1,1-10.4,0ZM47.008,42.125a9.406,9.406,0,0,1,9.4-9.4H66.661a9.406,9.406,0,0,1,9.4,9.4V51.2H47.008Z" transform="translate(-31.485)"/>
        <path id="Trazado_723967" data-name="Trazado 723967" d="M123.453,246.671a7.932,7.932,0,0,0-10.44,4.1l-8.488,19.479A7.647,7.647,0,0,0,98.7,268.5l-12.39,1.454a18.33,18.33,0,0,0-22.193,7.993,18.329,18.329,0,0,0-22.193-7.993L29.529,268.5a7.638,7.638,0,0,0-5.83,1.748l-8.488-19.479A7.932,7.932,0,0,0,.668,257.11l10.914,25.048a28.454,28.454,0,0,0,16.107,15.235l13.333,4.948.55,7.942a2.5,2.5,0,0,0,2.5,2.331H84.155a2.5,2.5,0,0,0,2.5-2.331l.55-7.942,13.333-4.948a28.2,28.2,0,0,0,9.031-5.446,2.5,2.5,0,0,0-3.34-3.732,23.206,23.206,0,0,1-7.434,4.483l-14.848,5.51a2.5,2.5,0,0,0-1.627,2.175l-.5,7.223h-15.2v-20.4a13.342,13.342,0,0,1,18.409-12.374,2.5,2.5,0,0,0,1.245.171l13.01-1.527a2.651,2.651,0,0,1,1.276,5.1L87.978,283.5a2.5,2.5,0,1,0,1.826,4.663l12.577-4.925a7.711,7.711,0,0,0,4.845-6.65L117.6,252.774a2.924,2.924,0,0,1,5.361,2.336l-6.306,14.472a2.5,2.5,0,1,0,4.591,2l6.306-14.472a7.941,7.941,0,0,0-4.1-10.439ZM45.906,300.384a2.5,2.5,0,0,0-1.627-2.175L29.431,292.7a23.422,23.422,0,0,1-13.258-12.54L5.259,255.11a2.924,2.924,0,0,1,5.36-2.336L21,276.588a7.713,7.713,0,0,0,4.847,6.655l12.577,4.925a2.5,2.5,0,1,0,1.826-4.663L27.669,278.58a2.651,2.651,0,0,1,1.275-5.1l13.01,1.527a2.5,2.5,0,0,0,1.245-.171,13.342,13.342,0,0,1,18.409,12.374v20.4h-15.2Z" transform="translate(-0.008 -184.403)"/>
        <circle id="Elipse_8571" data-name="Elipse 8571" cx="2.504" cy="2.504" r="2.504" transform="translate(111.933 94.005)"/>
      </g>
    </g>
  </g>
</svg>
