<svg xmlns="http://www.w3.org/2000/svg" width="528" height="314.499" viewBox="0 0 528 314.499">
  <g id="Grupo_1027246" data-name="Grupo 1027246" transform="translate(-16.369 -37.495)">
    <g id="Background_Simple" data-name="Background Simple" transform="translate(16.369 38.839)">
      <g id="Grupo_1027219" data-name="Grupo 1027219">
        <path id="Trazado_725390" data-name="Trazado 725390" d="M501.858,327.866c26.656-21.37,42-53.813,42.477-87.974.3-21.533-1.249-48.585-8.482-71.728C511.994,91.815,444.589,50.4,395.277,41.572s-100.1,7.36-138.368,33.12-34.592,21.344-100.1,11.776-119.232,18.4-136.9,69.92S55.974,237.1,61.866,264.09s-4.413,74.825,97.891,86.6,133.216-45.632,184-29.44C384.622,334.282,445.5,373.046,501.858,327.866Z" transform="translate(-16.369 -39.142)" fill="#d1e6f3"/>
      </g>
    </g>
    <g id="Clouds" transform="translate(58.824 37.995)">
      <g id="Grupo_1027220" data-name="Grupo 1027220" transform="translate(0 27.338)">
        <path id="Trazado_725392" data-name="Trazado 725392" d="M107.974,77.29c-1.039-1.078-2.843-2.07-5.97-2.146-7.03-.171-5.145,4.8-7.03,6s-2.4-.686-4.287.514-1.029,3.6-2.572,3.944-3.6-1.543-5.488-.343S80.74,87.49,79.883,87.49s-2.572-.686-3.6,0-2.229,1.543-2.229,1.543H92.465" transform="translate(-74.053 -75.139)" fill="none" stroke="#263238" stroke-linecap="round" stroke-linejoin="round" stroke-width="1"/>
        <path id="Trazado_725393" data-name="Trazado 725393" d="M122.355,81.5c-.168-.082-.345-.163-.533-.244a4.628,4.628,0,0,0-.632-1.808" transform="translate(-86.497 -76.276)" fill="none" stroke="#263238" stroke-linecap="round" stroke-linejoin="round" stroke-width="1"/>
        <path id="Trazado_725394" data-name="Trazado 725394" d="M102.273,91.081h22.614a2.214,2.214,0,0,0-1.372-2.572c-1.886-1.029-2.744-.171-3.429-1.029-.611-.763,1.362-2.615-1.832-4.585" transform="translate(-81.503 -77.186)" fill="none" stroke="#263238" stroke-linecap="round" stroke-linejoin="round" stroke-width="1"/>
      </g>
      <g id="Grupo_1027221" data-name="Grupo 1027221" transform="translate(212.339 82.571)">
        <path id="Trazado_725395" data-name="Trazado 725395" d="M396.479,152.334c-1.04-1.078-2.844-2.07-5.97-2.147-7.031-.171-5.145,4.8-7.031,6s-2.4-.686-4.287.514-1.029,3.6-2.572,3.944-3.6-1.543-5.487-.343-1.886,2.229-2.744,2.229-2.572-.686-3.6,0-2.229,1.543-2.229,1.543H380.97" transform="translate(-362.557 -150.183)" fill="none" stroke="#263238" stroke-linecap="round" stroke-linejoin="round" stroke-width="1"/>
        <path id="Trazado_725396" data-name="Trazado 725396" d="M410.859,156.541c-.168-.081-.345-.163-.533-.244a4.614,4.614,0,0,0-.632-1.808" transform="translate(-375.001 -151.32)" fill="none" stroke="#263238" stroke-linecap="round" stroke-linejoin="round" stroke-width="1"/>
        <path id="Trazado_725397" data-name="Trazado 725397" d="M390.778,166.125h22.614a2.214,2.214,0,0,0-1.372-2.572c-1.886-1.029-2.744-.171-3.43-1.029-.611-.763,1.362-2.615-1.831-4.585" transform="translate(-370.007 -152.23)" fill="none" stroke="#263238" stroke-linecap="round" stroke-linejoin="round" stroke-width="1"/>
      </g>
      <g id="Grupo_1027222" data-name="Grupo 1027222" transform="translate(334.98 4.555)">
        <path id="Trazado_725398" data-name="Trazado 725398" d="M590.329,48.06c-1.873-1.944-5.125-3.732-10.76-3.869C566.9,43.882,570.3,52.845,566.9,55.009s-4.328-1.236-7.727.927-1.855,6.491-4.636,7.109-6.491-2.781-9.89-.618-3.4,4.018-4.945,4.018-4.636-1.236-6.49,0-4.019,2.781-4.019,2.781h33.186" transform="translate(-529.19 -44.183)" fill="none" stroke="#263238" stroke-linecap="round" stroke-linejoin="round" stroke-width="1"/>
        <path id="Trazado_725399" data-name="Trazado 725399" d="M616.249,55.642q-.454-.22-.96-.439a8.327,8.327,0,0,0-1.139-3.259" transform="translate(-551.62 -46.232)" fill="none" stroke="#263238" stroke-linecap="round" stroke-linejoin="round" stroke-width="1"/>
        <path id="Trazado_725400" data-name="Trazado 725400" d="M580.054,72.916h40.76s.927-2.781-2.473-4.636-4.945-.308-6.181-1.854c-1.1-1.376,2.455-4.713-3.3-8.265" transform="translate(-542.618 -47.874)" fill="none" stroke="#263238" stroke-linecap="round" stroke-linejoin="round" stroke-width="1"/>
      </g>
      <g id="Grupo_1027223" data-name="Grupo 1027223" transform="translate(66.189)">
        <path id="Trazado_725401" data-name="Trazado 725401" d="M272.295,79.259h44.839s1.528-4.584-4.074-7.639-8.148-.509-10.185-3.056,5.6-9.167-9.677-15.788c0,0-1.018-14.26-21.9-14.769-9.011-.219-13.09,2.406-15.265,5.749" transform="translate(-188.285 -37.995)" fill="none" stroke="#263238" stroke-linecap="round" stroke-linejoin="round" stroke-width="1"/>
        <line id="Línea_2579" data-name="Línea 2579" x2="7.463" transform="translate(70.327 41.265)" fill="none" stroke="#263238" stroke-linecap="round" stroke-linejoin="round" stroke-width="1"/>
        <path id="Trazado_725402" data-name="Trazado 725402" d="M229.012,55.379c-.638,2.171-1.328,4.046-2.9,5.043-5.6,3.565-7.13-2.037-12.732,1.528s-3.056,10.695-7.639,11.713-10.695-4.583-16.3-1.019-5.6,6.62-8.148,6.62-7.64-2.037-10.7,0-6.62,4.584-6.62,4.584h57.267" transform="translate(-163.984 -42.584)" fill="none" stroke="#263238" stroke-linecap="round" stroke-linejoin="round" stroke-width="1"/>
      </g>
    </g>
    <g id="Graphics" transform="translate(81.548 47.662)">
      <g id="Grupo_1027227" data-name="Grupo 1027227" transform="translate(197.604)">
        <g id="Grupo_1027224" data-name="Grupo 1027224" transform="translate(24.317)">
          <path id="Trazado_725403" data-name="Trazado 725403" d="M409.822,72.158A33.788,33.788,0,1,1,409.2,73.7" transform="translate(-406.598 -51.278)" fill="none" stroke="#263238" stroke-miterlimit="10" stroke-width="1"/>
          <path id="Trazado_725404" data-name="Trazado 725404" d="M409.291,71.87a34.189,34.189,0,1,1-.626,1.538" transform="translate(-406.45 -51.13)" fill="none" stroke="#263238" stroke-miterlimit="10" stroke-width="0.5"/>
        </g>
        <g id="Grupo_1027225" data-name="Grupo 1027225" transform="translate(33.444 9.126)">
          <path id="Trazado_725405" data-name="Trazado 725405" d="M421.647,78.665a25.149,25.149,0,1,1-.633,1.531" transform="translate(-418.998 -63.68)" fill="none" stroke="#263238" stroke-miterlimit="10" stroke-width="1"/>
          <path id="Trazado_725406" data-name="Trazado 725406" d="M421.117,78.368a25.314,25.314,0,1,1-2.267,10.473,25.048,25.048,0,0,1,1.634-8.942" transform="translate(-418.85 -63.53)" fill="none" stroke="#263238" stroke-miterlimit="10" stroke-width="0.5"/>
        </g>
        <g id="Grupo_1027226" data-name="Grupo 1027226" transform="translate(45.065 20.748)">
          <path id="Trazado_725407" data-name="Trazado 725407" d="M436.723,86.982a.056.056,0,0,1,.015-.029,13.121,13.121,0,1,1-.685,1.509c.007-.022.022-.044.029-.066" transform="translate(-434.788 -79.468)" fill="none" stroke="#263238" stroke-miterlimit="10" stroke-width="1"/>
          <path id="Trazado_725408" data-name="Trazado 725408" d="M436.046,86.967l.155-.309h.007a13.688,13.688,0,1,1-1.568,6.352,13.554,13.554,0,0,1,.883-4.836" transform="translate(-434.64 -79.32)" fill="none" stroke="#263238" stroke-miterlimit="10" stroke-width="0.5"/>
        </g>
        <path id="Trazado_725409" data-name="Trazado 725409" d="M420.632,81.51c-.037-.015-.074-.022-.11-.037l-.1-.037-.383-.147h-.007L409.5,77.314l-.383-.147-8.17-3.084-.383-.14-13.16-4.968.648-4.858a.415.415,0,0,0-.243-.434l-10.407-4.666a.42.42,0,0,0-.567.515l2.112,6.256L377.4,65.2a.83.83,0,1,0-.589,1.553l1.619.611L373.572,71.1a.411.411,0,0,0-.147.434.4.4,0,0,0,.339.3l11.666,1.8a.183.183,0,0,0,.059.007.422.422,0,0,0,.39-.265l1.1-2.782,12.968,4.894.383.14,8.162,3.076.383.147,10.488,3.96.383.14.309.118" transform="translate(-373.41 -53.203)" fill="none" stroke="#263238" stroke-miterlimit="10" stroke-width="1"/>
        <path id="Trazado_725410" data-name="Trazado 725410" d="M437.04,89.472c.037,0,.074.007.11.007s.074.022.11.037l7.5,2.834.824-2.473a.822.822,0,0,1,.78-.567h.015a.828.828,0,0,1,.78.589l1.5,4.872a.836.836,0,0,1-.42.986l-3.754,1.869a.832.832,0,0,1-.913-.11.845.845,0,0,1-.243-.891l.9-2.7-7.551-2.856a.742.742,0,0,1-.28-.184" transform="translate(-390.04 -61.21)" fill="none" stroke="#263238" stroke-miterlimit="10" stroke-width="1"/>
      </g>
      <g id="Grupo_1027228" data-name="Grupo 1027228" transform="translate(0 59.584)">
        <path id="Trazado_725411" data-name="Trazado 725411" d="M139.855,198.306l6.614,1.51,1.532-6.71-6.354-1.451c.007-.189.029-.375.029-.567a15.169,15.169,0,0,0-1.2-5.934l5.153-4.11-4.292-5.382-4.929,3.93a15.154,15.154,0,0,0-5.981-3.177V170h-6.883v6.165a15.123,15.123,0,0,0-6.247,2.807L112.313,175l-4.292,5.381,4.864,3.88a15.121,15.121,0,0,0-1.621,6.57l-6.338,1.447,1.532,6.71,6.254-1.427a15.243,15.243,0,0,0,4.027,5.224l-2.909,6.04,6.2,2.987,2.864-5.946a14.852,14.852,0,0,0,6.456.157l2.966,6.16,6.2-2.987-2.884-5.988A15.258,15.258,0,0,0,139.855,198.306Zm-20.144-7.218a6.753,6.753,0,1,1,6.754,6.754A6.753,6.753,0,0,1,119.711,191.088Z" transform="translate(-104.927 -142.096)" fill="none" stroke="#263238" stroke-linecap="round" stroke-linejoin="round" stroke-width="1"/>
        <path id="Trazado_725412" data-name="Trazado 725412" d="M689.633,294.714l4.483,1.023,1.039-4.548-4.307-.983c.005-.128.02-.254.02-.384a10.278,10.278,0,0,0-.815-4.021l3.493-2.786-2.909-3.648L687.3,282.03a10.27,10.27,0,0,0-4.054-2.153v-4.35h-4.665v4.178a10.245,10.245,0,0,0-4.234,1.9l-3.377-2.694-2.909,3.648,3.3,2.63a10.241,10.241,0,0,0-1.1,4.453l-4.3.98L667,295.173l4.239-.967a10.341,10.341,0,0,0,2.73,3.541l-1.972,4.094,4.2,2.025,1.941-4.03a10.069,10.069,0,0,0,4.376.106l2.011,4.175,4.2-2.024-1.955-4.059A10.34,10.34,0,0,0,689.633,294.714Zm-13.653-4.893a4.577,4.577,0,1,1,4.577,4.578A4.577,4.577,0,0,1,675.98,289.821Z" transform="translate(-253.04 -169.955)" fill="none" stroke="#263238" stroke-linecap="round" stroke-linejoin="round" stroke-width="1"/>
        <path id="Trazado_725413" data-name="Trazado 725413" d="M159.336,155.311l5.426,1.239,1.257-5.505-5.213-1.19c.005-.155.024-.308.024-.465a12.438,12.438,0,0,0-.986-4.868l4.228-3.372-3.521-4.415-4.044,3.224a12.418,12.418,0,0,0-4.907-2.606v-5.265h-5.647v5.058a12.391,12.391,0,0,0-5.125,2.3l-4.089-3.26-3.521,4.415,3.991,3.182a12.4,12.4,0,0,0-1.329,5.39l-5.2,1.186,1.256,5.506,5.131-1.171a12.524,12.524,0,0,0,3.3,4.286l-2.386,4.955,5.088,2.45,2.349-4.879a12.165,12.165,0,0,0,5.3.129l2.434,5.053,5.088-2.45-2.366-4.913A12.528,12.528,0,0,0,159.336,155.311Zm-16.528-5.922a5.541,5.541,0,1,1,5.541,5.541A5.54,5.54,0,0,1,142.809,149.389Z" transform="translate(-111.726 -132.087)" fill="none" stroke="#263238" stroke-linecap="round" stroke-linejoin="round" stroke-width="1"/>
      </g>
      <path id="Trazado_725414" data-name="Trazado 725414" d="M654.574,238.865l26.256-53.027,7.879,3.9-1.874-29.294L662.4,176.712l7.878,3.9L644.021,233.64" transform="translate(-247.248 -79.989)" fill="none" stroke="#263238" stroke-linecap="round" stroke-linejoin="round" stroke-width="1"/>
      <path id="Trazado_725415" data-name="Trazado 725415" d="M638.577,139.865l16.547-33.418,4.965,2.459-1.181-18.461-15.4,10.252,4.965,2.458-16.547,33.418" transform="translate(-244.055 -61.509)" fill="none" stroke="#263238" stroke-linecap="round" stroke-linejoin="round" stroke-width="1"/>
    </g>
    <g id="Character_3" data-name="Character 3" transform="translate(407.034 138.422)">
      <g id="Grupo_1027232" data-name="Grupo 1027232">
        <path id="Trazado_725416" data-name="Trazado 725416" d="M566.127,419.158s-4.566,2.922-5.479,3.653-5.114,1.643-4.566,2.922,5.844,2.009,7.305,2.009,7.124-2.922,8.585-3.288,1.461-2.009.913-3.288a15.5,15.5,0,0,0-2.192-3.1l-3.836,1.1Z" transform="translate(-549.506 -238.76)" fill="#fff" stroke="#263238" stroke-linecap="round" stroke-linejoin="round" stroke-width="1"/>
        <path id="Trazado_725417" data-name="Trazado 725417" d="M637.473,418.37s-3.47,4.2-4.018,5.114-3.654,2.374-3.654,3.835,5.3.731,6.94.548a6.612,6.612,0,0,0,4.749-3.288c.913-1.827,1.643-5.662.548-7.123S637.473,418.37,637.473,418.37Z" transform="translate(-568.981 -238.474)" fill="#fff" stroke="#263238" stroke-linecap="round" stroke-linejoin="round" stroke-width="1"/>
        <path id="Trazado_725418" data-name="Trazado 725418" d="M573.719,307.557l-.143,1.1-1.136,8.762s-10.155,14.338-13.875,21.81c-1.9,3.815-4.546,8.338-4.181,9.617s11.3,40.125,11.3,40.125a7.344,7.344,0,0,0,2.739.73,7.484,7.484,0,0,0,2.557-.548l-.521-37.139,15.681-17.244,2.008,2.557s5.206,18.454,7.4,21.377,21.1,30.311,21.1,30.311a7.823,7.823,0,0,0,3.105.731c1.643,0,2.374-2.192,2.374-2.192s-13.606-33.6-13.972-34.7-.091-27.953-.091-27.953l-2.192-12.968-2.557-8.22a45.927,45.927,0,0,1-12.786.913c-8.036-.365-15.707-.913-15.707-.913Z" transform="translate(-549.062 -208.574)" fill="#263238" stroke="#263238" stroke-linecap="round" stroke-linejoin="round" stroke-width="1"/>
        <path id="Trazado_725419" data-name="Trazado 725419" d="M550.27,188.272s-2.557,3.835-2.923,6.21a6.214,6.214,0,0,0,1.278,4.384l-1.461,3.105s4.931,10.046,7.854,14.612,7.671,12.237,10.593,13.7,8.585,7.488,8.585,7.488l3.288-7.123s-9.681-12.055-15.708-20.456a161.863,161.863,0,0,1-10.046-15.89,29.641,29.641,0,0,1,.365-4.749,24.419,24.419,0,0,0,.366-4.2Z" transform="translate(-547.165 -177.323)" fill="#263238" stroke="#263238" stroke-linecap="round" stroke-linejoin="round" stroke-width="1"/>
        <path id="Trazado_725420" data-name="Trazado 725420" d="M588.173,242.841s-7.489,8.949-8.95,14.794.365,23.926.365,26.483-1.461,5.3.548,7.123,8.036.913,10.228.73,12.6,0,15.707-.913,4.566-2.192,4.566-4.384-3.835-19.543-4.383-22.466,1.461-12.968-1.279-17.716S593.469,241.014,588.173,242.841Z" transform="translate(-555.479 -192.258)" fill="#fff" stroke="#263238" stroke-linecap="round" stroke-linejoin="round" stroke-width="1"/>
        <path id="Trazado_725421" data-name="Trazado 725421" d="M581.922,244.908s-9.132,9.315-10.411,14.246-5.845,14.429-7.306,18.63a84.559,84.559,0,0,1-4.384,9.681l1.644,6.575,4.2-4.566s4.2-14.429,6.393-20.456,2.557-11.69,2.923-13.333S581.922,244.908,581.922,244.908Z" transform="translate(-550.506 -193.047)" fill="#263238" stroke="#263238" stroke-linecap="round" stroke-linejoin="round" stroke-width="1"/>
        <g id="Grupo_1027229" data-name="Grupo 1027229" transform="translate(27.392 48.025)">
          <path id="Trazado_725422" data-name="Trazado 725422" d="M589.684,242.984s-5.48,14.977-5.3,16.073,2.739,41.644,2.739,41.644,2.558,6.21,14.064,5.3,20.456-2.557,20.456-2.557-3.47-13.7-6.575-19.908-4.749-9.863-4.749-12.786-1.279-22.465-2.009-25.57a16.506,16.506,0,0,0-1.643-4.566l-1.1-.913Z" transform="translate(-584.383 -239.696)" fill="#3076b6" stroke="#263238" stroke-linecap="round" stroke-linejoin="round" stroke-width="1"/>
          <path id="Trazado_725423" data-name="Trazado 725423" d="M585.63,286.35l8.95,21.917s-3.653,1.462-4.932,2.74-2.192,2.009-2.192,2.009Z" transform="translate(-584.712 -252.013)" fill="#3076b6" stroke="#263238" stroke-linecap="round" stroke-linejoin="round" stroke-width="1"/>
        </g>
        <g id="Grupo_1027231" data-name="Grupo 1027231" transform="translate(29.599 17.167)">
          <g id="Grupo_1027230" data-name="Grupo 1027230">
            <path id="Trazado_725424" data-name="Trazado 725424" d="M597.964,202.509s-5.662,4.566-5.662,5.845-1.461,3.1-1.461,3.1-2.923.366-3.105,1.462.913,3.288.913,3.288-1.826,6.21-1.1,7.671,6.027,1.644,6.027,1.644l.183,4.018,12.6-2.009-.183-3.1s6.758-7.306,10.046-10.411-.913-8.585-4.931-12.786-13.516-4.2-14.247-2.009A2.809,2.809,0,0,0,597.964,202.509Z" transform="translate(-587.381 -197.769)" fill="#fff" stroke="#263238" stroke-linecap="round" stroke-linejoin="round" stroke-width="1"/>
            <path id="Trazado_725425" data-name="Trazado 725425" d="M595.308,213.044a2.523,2.523,0,0,1,2.557.183" transform="translate(-589.474 -201.728)" fill="none" stroke="#263238" stroke-linecap="round" stroke-linejoin="round" stroke-width="1"/>
            <path id="Trazado_725426" data-name="Trazado 725426" d="M595.549,216.376c-.139.589-.053,1.114.192,1.172s.557-.372.7-.962.054-1.114-.192-1.171S595.688,215.788,595.549,216.376Z" transform="translate(-589.52 -202.426)" fill="#263238"/>
          </g>
          <path id="Trazado_725427" data-name="Trazado 725427" d="M614.7,201.23c-4.019-4.2-13.516-4.2-14.247-2.009a2.809,2.809,0,0,0,.913,3.287s6.21.731,5.3,2.375-4.019,1.643-3.288,2.739,3.288,3.47,2.374,4.019-1.461,1.643-.913,2.009,1.462-.548,3.654-.183,1.643,5.48-.366,6.21-2.922-.183.731,3.1a4.47,4.47,0,0,0,1.451.868c1.827-1.96,6.69-7.146,9.325-9.635C622.918,210.911,618.717,205.431,614.7,201.23Z" transform="translate(-590.782 -197.769)" fill="#263238" stroke="#263238" stroke-linecap="round" stroke-linejoin="round" stroke-width="1"/>
          <path id="Trazado_725428" data-name="Trazado 725428" d="M606.992,228.019l-3.288-.731-2.192,1.644" transform="translate(-591.112 -205.562)" fill="none" stroke="#263238" stroke-linecap="round" stroke-linejoin="round" stroke-width="1"/>
        </g>
        <path id="Trazado_725429" data-name="Trazado 725429" d="M607.748,235.229l-16.8,4.566-1.1,3.47,19.908-3.653Z" transform="translate(-558.434 -190.492)" fill="#3076b6" stroke="#263238" stroke-linecap="round" stroke-linejoin="round" stroke-width="1"/>
        <path id="Trazado_725430" data-name="Trazado 725430" d="M554.823,190.872l-.548-3.836s1.643-5.3,1.643-6.575-1.278-4.2-1.278-4.932-1.1-1.826-1.461-.365-1.1,6.94-1.1,6.94-2.374,4.019-2.192,6.027,2.009,6.21,2.009,6.21l3.288-2.009Z" transform="translate(-547.882 -174.445)" fill="#fff" stroke="#263238" stroke-linecap="round" stroke-linejoin="round" stroke-width="1"/>
        <path id="Trazado_725431" data-name="Trazado 725431" d="M557.4,199.687l-2.374-2.922-4.384,3.47,2.557,4.383Z" transform="translate(-548.082 -180.337)" fill="#fff" stroke="#263238" stroke-linecap="round" stroke-linejoin="round" stroke-width="1"/>
        <path id="Trazado_725432" data-name="Trazado 725432" d="M597.476,237.836a13.813,13.813,0,0,0-6.392-7.123,56.044,56.044,0,0,0-9.681-3.653l-24.84-28.31-4.931,4.931s10.411,21.735,12.42,25.388,25.205,28.676,25.205,28.676" transform="translate(-548.344 -180.861)" fill="#3076b6" stroke="#263238" stroke-linecap="round" stroke-linejoin="round" stroke-width="1"/>
      </g>
    </g>
    <g id="Character_2" data-name="Character 2" transform="translate(234.978 159.872)">
      <g id="Grupo_1027236" data-name="Grupo 1027236">
        <path id="Trazado_725433" data-name="Trazado 725433" d="M318.027,414.444s-3.5,4.968-4.232,7.728-.552,6.44,1.288,6.072,6.072-4.968,6.44-6.256,1.656-7.176,1.656-7.176l-4.416-.368Z" transform="translate(-313.392 -259.255)" fill="#fff" stroke="#263238" stroke-linecap="round" stroke-linejoin="round" stroke-width="1"/>
        <path id="Trazado_725434" data-name="Trazado 725434" d="M405.44,418.562s0,5.152,1.1,5.888,8.648,3.864,10.856,4.048,2.944-.184,1.656-2.76-8.648-7.544-8.648-7.544Z" transform="translate(-337.693 -260.245)" fill="#fff" stroke="#263238" stroke-linecap="round" stroke-linejoin="round" stroke-width="1"/>
        <path id="Trazado_725435" data-name="Trazado 725435" d="M337.34,300.444l-4.232,17.848L330.9,351.78s-8.1,13.984-8.832,19.136-3.128,15.64-3.128,15.64a28.785,28.785,0,0,0,3.864,1.472c.552,0,7.176-9.568,10.856-13.248s11.96-19.5,12.328-20.24,6.256-24.1,6.624-24.84,2.576-1.656,2.576-1.656,11.087,15.931,12.427,17.271a62.624,62.624,0,0,1,5.605,7.569s7.544,29.992,8.1,31.464a19.62,19.62,0,0,1,.736,4.232l6.808,1.472s.552-20.056.184-24.84-1.84-15.088-1.84-15.088S375.98,319.4,375.428,318.66s-3.864-8.1-3.864-8.1l-1.1-6.992a42.5,42.5,0,0,1-19.872.736C339.548,302.1,337.34,300.444,337.34,300.444Z" transform="translate(-314.857 -229.159)" fill="#263238" stroke="#263238" stroke-linecap="round" stroke-linejoin="round" stroke-width="1"/>
        <path id="Trazado_725436" data-name="Trazado 725436" d="M349.469,232.317a123.675,123.675,0,0,1-12.422,7.205c-5.642,2.7-6.992,5.4-6.992,6.747s-4.906,23.675-4.538,24.9,3.68,3.067,5.765,3.558a9.389,9.389,0,0,0,5.643-.614c.613-.49,2.576-8.832,2.576-8.832s-1.1,15.088-1.595,17.051,4.048,6.992,8.464,7.851,16.315.858,19.381-.123,5.152-1.227,6.134-3.067,1.594-14.965,1.717-15.824,1.1-8.709,1.1-8.709l3.189,10.795,1.227,2.208s.613-1.35,4.416-3.558,5.029-2.453,5.029-2.453-2.208-7.237-3.557-11.408-2.7-11.776-4.416-14.843-4.784-4.416-8.955-6.992-10.3-4.048-11.04-4.416S353.305,230.878,349.469,232.317Z" transform="translate(-316.588 -210.926)" fill="#fff" stroke="#263238" stroke-linecap="round" stroke-linejoin="round" stroke-width="1"/>
        <line id="Línea_2580" data-name="Línea 2580" y1="8.974" x2="2.59" transform="translate(22.913 45.383)" fill="none" stroke="#263238" stroke-linecap="round" stroke-linejoin="round" stroke-width="1"/>
        <line id="Línea_2581" data-name="Línea 2581" y1="2.034" x2="0.437" transform="translate(59.917 41.127)" fill="none" stroke="#263238" stroke-linecap="round" stroke-linejoin="round" stroke-width="1"/>
        <line id="Línea_2582" data-name="Línea 2582" y1="6.54" x2="1.405" transform="translate(58.118 44.996)" fill="none" stroke="#263238" stroke-linecap="round" stroke-linejoin="round" stroke-width="1"/>
        <g id="Grupo_1027235" data-name="Grupo 1027235" transform="translate(30.594)">
          <path id="Trazado_725437" data-name="Trazado 725437" d="M362.441,250.228l2.576,3.68,1.472,3.312-3.68,30.544,5.152,4.784,4.048-5.336-3.68-29.624,2.208-4.232,2.939-4.811-5.331-3.1Z" transform="translate(-356.935 -214.639)" fill="#3076b6" stroke="#263238" stroke-linecap="round" stroke-linejoin="round" stroke-width="1"/>
          <path id="Trazado_725438" data-name="Trazado 725438" d="M358.8,230.18s-2.56.668-3.116,2.225.222,10.9,1,12.907a35.469,35.469,0,0,0,2.184,4.364s6.829-4.364,8.053-4.587,8.234,3.45,8.234,3.45a27.264,27.264,0,0,0-2.225-10.459c-2.448-6.12-8.123-9.569-10.57-9.791A3.768,3.768,0,0,0,358.8,230.18Z" transform="translate(-355.101 -210.106)" fill="#fff" stroke="#263238" stroke-linecap="round" stroke-linejoin="round" stroke-width="1"/>
          <g id="Grupo_1027233" data-name="Grupo 1027233" transform="translate(2.695 18.175)">
            <path id="Trazado_725439" data-name="Trazado 725439" d="M358.622,229.4s.333,3.894.668,6.565,4.451,11.46,5.9,12.684,4.451-2.781,5.452-4.562a20.417,20.417,0,0,1,1.446-2.337s-7.121-3.449-9.346-7.455-2-5.9-3-6.008S358.622,229.4,358.622,229.4Z" transform="translate(-358.622 -228.284)" fill="#fff" stroke="#263238" stroke-linecap="round" stroke-linejoin="round" stroke-width="1"/>
            <path id="Trazado_725440" data-name="Trazado 725440" d="M363.5,242.809l5.471,8.825s2.517-2.325,2.956-3.708S363.5,242.809,363.5,242.809Z" transform="translate(-359.91 -232.119)" fill="#263238" stroke="#263238" stroke-linecap="round" stroke-linejoin="round" stroke-width="1"/>
          </g>
          <g id="Grupo_1027234" data-name="Grupo 1027234">
            <path id="Trazado_725441" data-name="Trazado 725441" d="M355.51,219.261a9.057,9.057,0,0,0-.522,4c.174,2.433,1.565,4.171,2.26,4.345a10.291,10.291,0,0,0,1.912.174,16.88,16.88,0,0,0,2.086,7.3c1.912,2.955,8.343,7.127,10.255,5.041s4.345-10.428,5.214-14.426a72.842,72.842,0,0,0,1.217-7.821s-10.6-2.434-12.862-2.955-6.084-1.391-6.084-1.391Z" transform="translate(-354.96 -206.212)" fill="#fff" stroke="#263238" stroke-linecap="round" stroke-linejoin="round" stroke-width="1"/>
            <path id="Trazado_725442" data-name="Trazado 725442" d="M363.059,214.9s.695,2.26-.7,3.651-1.912,1.39-1.912,1.39.348,2.26-.174,2.26a1.707,1.707,0,0,1-1.738-1.738,5.091,5.091,0,0,0-.868-2.607l-2.086-1.217a17.553,17.553,0,0,1,.174-7.648c1.043-4,8.517-5.562,14.774-5.388s7.821,8.169,7.821,8.169a30,30,0,0,1,3.824,2.086c.522.522,1.043,1.738-1.911,3.3s-8.17,2.086-11.3.869A33.069,33.069,0,0,1,363.059,214.9Z" transform="translate(-355.036 -203.589)" fill="#263238" stroke="#263238" stroke-linecap="round" stroke-linejoin="round" stroke-width="1"/>
            <path id="Trazado_725443" data-name="Trazado 725443" d="M371.13,231.074c-.2.645-.625,1.088-.947.987s-.422-.7-.222-1.35.624-1.088.947-.988S371.33,230.428,371.13,231.074Z" transform="translate(-358.893 -210.485)" fill="#263238"/>
            <path id="Trazado_725444" data-name="Trazado 725444" d="M380.956,231.83c-.2.646-.624,1.088-.947.988s-.422-.7-.222-1.35.624-1.088.947-.988S381.156,231.184,380.956,231.83Z" transform="translate(-361.487 -210.685)" fill="#263238"/>
            <path id="Trazado_725445" data-name="Trazado 725445" d="M367.995,228.18a3.279,3.279,0,0,1,3.672-1" transform="translate(-358.401 -209.775)" fill="none" stroke="#263238" stroke-linecap="round" stroke-linejoin="round" stroke-width="1"/>
            <path id="Trazado_725446" data-name="Trazado 725446" d="M378.728,228.068a2.27,2.27,0,0,1,3.339.222" transform="translate(-361.235 -209.885)" fill="none" stroke="#263238" stroke-linecap="round" stroke-linejoin="round" stroke-width="1"/>
            <path id="Trazado_725447" data-name="Trazado 725447" d="M371.746,239.178a10.962,10.962,0,0,0-3.115.556c-1.669.556-4.117-.111-3,1.335s3.227,1.892,5.452,1.892,4.228-.111,4.9-1.113,1.669-2,.89-2.114-3.783-.333-4.117-.333A4.576,4.576,0,0,1,371.746,239.178Z" transform="translate(-357.702 -212.985)" fill="#263238" stroke="#263238" stroke-linecap="round" stroke-linejoin="round" stroke-width="1"/>
            <path id="Trazado_725448" data-name="Trazado 725448" d="M376.216,230.41s-.222,6.12-.444,7.232a1.488,1.488,0,0,1-2.67.668,15.225,15.225,0,0,1-1.78-3" transform="translate(-359.279 -210.67)" fill="#fff" stroke="#263238" stroke-linecap="round" stroke-linejoin="round" stroke-width="1"/>
          </g>
        </g>
        <path id="Trazado_725449" data-name="Trazado 725449" d="M406.565,279.427s-5.3.865-7.506,2.337-2.982,2.754-2.43,4.165a20.877,20.877,0,0,0,1.84,3.986c.92,1.472,2.576.368,2.576.368a1.623,1.623,0,0,1,.184-2.392c1.288-1.288,6.072-3.128,6.072-3.128h1.656c.736,0,0-2.024-.552-2.944S407.853,279.059,406.565,279.427Z" transform="translate(-335.321 -223.598)" fill="#fff" stroke="#263238" stroke-linecap="round" stroke-linejoin="round" stroke-width="1"/>
        <path id="Trazado_725450" data-name="Trazado 725450" d="M325.44,291.444s0,5.336.368,10.672,4.784,20.24,4.784,20.24l4.416-1.1s-.184-13.984-.184-18.4-.184-9.752-.184-9.752Z" transform="translate(-316.573 -226.783)" fill="#fff" stroke="#263238" stroke-linecap="round" stroke-linejoin="round" stroke-width="1"/>
        <path id="Trazado_725451" data-name="Trazado 725451" d="M324.31,285.974a1.333,1.333,0,0,1,2.1-.922,9.6,9.6,0,0,0,4.034,1.511,18.911,18.911,0,0,0,5.338.17,1.071,1.071,0,0,1,1.167,1.37c-.459,1.529-1.159,3.6-1.722,4.164-.92.92-5.336.92-7.544.184s-2.76-1.288-3.312-3.128A9.656,9.656,0,0,1,324.31,285.974Z" transform="translate(-316.246 -225.03)" fill="#fff" stroke="#263238" stroke-linecap="round" stroke-linejoin="round" stroke-width="1"/>
        <path id="Trazado_725452" data-name="Trazado 725452" d="M440.676,308.961a8.052,8.052,0,0,1,2.208-3.5c1.656-1.472,2.392-1.84.736-2.024s-3.68,2.392-3.68,2.392Z" transform="translate(-346.801 -229.948)" fill="#fff" stroke="#263238" stroke-linecap="round" stroke-linejoin="round" stroke-width="1"/>
        <path id="Trazado_725453" data-name="Trazado 725453" d="M402.646,292.214a14.18,14.18,0,0,0,3.864,2.76c2.76,1.472,16.56,9.016,16.56,9.016l4.968-2.944s-7.728-3.5-11.224-7.176-6.256-7.176-6.256-7.176S401.358,287.246,402.646,292.214Z" transform="translate(-336.923 -225.529)" fill="#fff" stroke="#263238" stroke-linecap="round" stroke-linejoin="round" stroke-width="1"/>
        <path id="Trazado_725454" data-name="Trazado 725454" d="M427.19,306.517s.736,3.864,2.024,4.048,7.544-.368,8.1-1.472.92-4.968,0-5.152S427.19,306.517,427.19,306.517Z" transform="translate(-343.435 -230.08)" fill="#fff" stroke="#263238" stroke-linecap="round" stroke-linejoin="round" stroke-width="1"/>
        <path id="Trazado_725455" data-name="Trazado 725455" d="M331.238,337.967a8.05,8.05,0,0,0-3.3-2.491c-2.069-.793-2.888-.877-1.4-1.634s4.288.938,4.288.938Z" transform="translate(-316.662 -237.925)" fill="#fff" stroke="#263238" stroke-linecap="round" stroke-linejoin="round" stroke-width="1"/>
        <path id="Trazado_725456" data-name="Trazado 725456" d="M341.029,331.386s.676,3.874-.464,4.5-7.188,2.321-8.095,1.482-2.615-4.323-1.819-4.82S341.029,331.386,341.029,331.386Z" transform="translate(-317.894 -237.328)" fill="#fff" stroke="#263238" stroke-linecap="round" stroke-linejoin="round" stroke-width="1"/>
      </g>
    </g>
    <g id="Plants" transform="translate(33.799 266.267)">
      <g id="Grupo_1027237" data-name="Grupo 1027237">
        <path id="Trazado_725457" data-name="Trazado 725457" d="M90.316,367.728c.031.019.634-2.317.655-2.469.244-1.756-.315-5.293-2.1-6.157a2.35,2.35,0,0,0-3.2,1.416,4.914,4.914,0,0,0,.849,4.046C87.363,365.869,90.314,367.726,90.316,367.728Z" transform="translate(-52.049 -350.981)" fill="#263238"/>
        <path id="Trazado_725458" data-name="Trazado 725458" d="M43.061,367.754c1.425.623,4.911.544,4.913.544.037,0-.749-2.282-.815-2.42-.765-1.6-3.183-4.242-5.151-3.976a2.351,2.351,0,0,0-1.886,2.945A4.912,4.912,0,0,0,43.061,367.754Z" transform="translate(-40.051 -351.774)" fill="#263238"/>
        <path id="Trazado_725459" data-name="Trazado 725459" d="M44.37,374.224c1.478.216,4.589-.687,4.836-.759a41.514,41.514,0,0,0,1.886,5.22c.428.991.89,1.976,1.365,2.957-.284-.416-.541-.785-.582-.833-1.16-1.342-4.191-3.25-6.018-2.474a2.35,2.35,0,0,0-1.041,3.339,4.913,4.913,0,0,0,3.6,2.027,15.565,15.565,0,0,0,4.7-.721c.186.375.368.751.556,1.125.9,1.794,1.808,3.58,2.643,5.359.3.626.562,1.255.832,1.882-.253-.369-.468-.677-.506-.721-1.16-1.341-4.19-3.25-6.018-2.474a2.35,2.35,0,0,0-1.041,3.339,4.912,4.912,0,0,0,3.6,2.027,14.972,14.972,0,0,0,4.574-.686c.257.651.515,1.3.735,1.945.14.442.305.858.422,1.31s.247.885.369,1.321c.2.849.419,1.723.6,2.555.128.579.239,1.132.353,1.689-.286-.628-.872-1.844-.933-1.94-.944-1.5-3.65-3.848-5.574-3.357a2.35,2.35,0,0,0-1.535,3.142,4.911,4.911,0,0,0,3.254,2.549,16.126,16.126,0,0,0,4.867-.015c.185.923.356,1.822.5,2.673.313,1.777.553,3.377.739,4.751h1.3c-.222-1.423-.509-3.1-.88-4.967-.184-.938-.4-1.936-.63-2.959a25.531,25.531,0,0,0,2.715-1.277,17.224,17.224,0,0,0,3.958,2.553c-.354.871-.707,1.716-1.053,2.507-.676,1.557-1.32,2.944-1.9,4.143h1.4c.491-1.1,1.025-2.329,1.579-3.685.364-.883.735-1.835,1.107-2.815a16.152,16.152,0,0,0,4.854.378,4.914,4.914,0,0,0,3.435-2.3,2.349,2.349,0,0,0-1.3-3.248c-1.882-.632-4.755,1.505-5.809,2.932-.062.084-.634,1.073-.985,1.7.15-.4.3-.79.449-1.2.3-.818.576-1.645.876-2.533q.2-.65.393-1.315c.141-.436.234-.914.354-1.376.256-1.075.463-2.176.647-3.291a15.43,15.43,0,0,0,4.607,1.059,4.912,4.912,0,0,0,3.743-1.753,2.35,2.35,0,0,0-.79-3.407c-1.765-.91-4.929.768-6.186,2.019-.079.078-.88,1.077-1.309,1.634.105-.671.214-1.34.3-2.022.245-1.969.431-3.97.626-5.965.059-.612.125-1.22.19-1.829a16.319,16.319,0,0,0,4.763,1.117A4.913,4.913,0,0,0,81.76,381.8a2.35,2.35,0,0,0-.79-3.407c-1.765-.91-4.93.768-6.186,2.018-.095.094-1.245,1.534-1.52,1.914.142-1.341.3-2.677.5-3.987a41.418,41.418,0,0,1,1.144-5.245c.119.045,3.268,1.234,4.791,1.127a4.911,4.911,0,0,0,3.743-1.753,2.35,2.35,0,0,0-.79-3.407c-1.765-.91-4.929.768-6.186,2.019-.082.082-.96,1.177-1.365,1.708l-.1-.052a30.3,30.3,0,0,1,2.083-4.98c.452-.884.933-1.7,1.419-2.49a15.822,15.822,0,0,0,4.536,1.595,4.915,4.915,0,0,0,3.913-1.331,2.35,2.35,0,0,0-.411-3.473c-1.655-1.1-4.983.221-6.37,1.327-.075.06-.774.756-1.276,1.27.224-.352.45-.719.672-1.052.831-1.251,1.669-2.346,2.419-3.309.431-.544.831-1.027,1.211-1.476a15.707,15.707,0,0,0,4.735-.674,4.914,4.914,0,0,0,2.86-2.984,2.351,2.351,0,0,0-1.965-2.893c-1.975-.213-4.321,2.493-5.042,4.113-.062.141-.786,2.442-.749,2.441h.042c-.373.425-.769.884-1.192,1.394-.772.949-1.636,2.028-2.5,3.266A41.444,41.444,0,0,0,76.8,367.6a30.69,30.69,0,0,0-2.212,4.979c-.007.021-.011.043-.018.063.01-.581-.015-2.209-.032-2.334-.228-1.758-1.7-5.022-3.655-5.384a2.35,2.35,0,0,0-2.711,2.21,4.914,4.914,0,0,0,1.886,3.678,16.352,16.352,0,0,0,4.453,2.034,41.591,41.591,0,0,0-1.306,5.395c-.189,1.062-.347,2.138-.492,3.219-.007-.5-.018-.953-.026-1.016-.228-1.758-1.7-5.022-3.655-5.383a2.349,2.349,0,0,0-2.71,2.21,4.912,4.912,0,0,0,1.886,3.678,15.593,15.593,0,0,0,4.318,1.992c-.051.415-.107.829-.156,1.245-.238,1.992-.467,3.982-.751,5.927-.1.686-.224,1.357-.345,2.029-.007-.447-.016-.824-.024-.88-.228-1.759-1.7-5.023-3.655-5.384a2.35,2.35,0,0,0-2.711,2.21,4.913,4.913,0,0,0,1.886,3.678,15,15,0,0,0,4.194,1.952c-.145.684-.289,1.37-.46,2.027-.127.446-.219.884-.371,1.325s-.282.874-.421,1.306c-.3.82-.6,1.668-.913,2.46-.212.553-.425,1.075-.637,1.6.107-.681.289-2.019.292-2.132a9.127,9.127,0,0,0-1.224-4.44,2.794,2.794,0,0,0-.032-.52,2.351,2.351,0,0,0-2.873-1.994c-1.919.512-3.137,3.879-3.227,5.65-.006.1.063,1.245.118,1.964-.1-.418-.185-.824-.29-1.253-.2-.849-.427-1.69-.667-2.6l-.4-1.313c-.123-.441-.309-.891-.463-1.342-.38-1.037-.815-2.07-1.276-3.1a15.461,15.461,0,0,0,4.427-1.658,4.914,4.914,0,0,0,2.155-3.527,2.351,2.351,0,0,0-2.538-2.407c-1.974.215-3.687,3.36-4.046,5.1-.022.108-.139,1.383-.19,2.085-.283-.618-.561-1.236-.866-1.852-.882-1.777-1.831-3.548-2.77-5.319-.288-.542-.567-1.086-.851-1.63a16.315,16.315,0,0,0,4.59-1.7,4.913,4.913,0,0,0,2.155-3.527,2.35,2.35,0,0,0-2.538-2.406c-1.974.214-3.687,3.359-4.046,5.1-.027.131-.193,1.966-.212,2.435-.622-1.2-1.23-2.4-1.782-3.6a41.353,41.353,0,0,1-1.939-5.006c.124-.028,3.406-.774,4.617-1.7a4.91,4.91,0,0,0,2.155-3.528,2.35,2.35,0,0,0-2.538-2.406c-1.975.215-3.688,3.36-4.046,5.1-.024.114-.152,1.512-.2,2.179l-.113.012a30.282,30.282,0,0,1-1.011-5.3c-.11-.986-.161-1.936-.19-2.86a15.81,15.81,0,0,0,4.663-1.172,4.914,4.914,0,0,0,2.53-3.269,2.35,2.35,0,0,0-2.259-2.67c-1.986,0-4.034,2.934-4.581,4.621-.03.091-.229,1.058-.364,1.763-.007-.417-.021-.848-.019-1.248,0-1.5.1-2.877.191-4.094.06-.692.127-1.316.2-1.9a15.729,15.729,0,0,0,3.578-3.175,4.912,4.912,0,0,0,.738-4.067,2.35,2.35,0,0,0-3.235-1.328c-1.764.912-2.229,4.462-1.936,6.212.025.152.692,2.47.722,2.449l.035-.024c-.077.56-.155,1.161-.225,1.82-.121,1.217-.246,2.594-.281,4.1a41.661,41.661,0,0,0,.116,4.869,30.67,30.67,0,0,0,.9,5.374c.006.021.015.041.02.062-.312-.49-1.231-1.833-1.314-1.929-1.161-1.341-4.191-3.25-6.018-2.474a2.35,2.35,0,0,0-1.041,3.339A4.911,4.911,0,0,0,44.37,374.224Z" transform="translate(-40.156 -348.148)" fill="#263238"/>
        <path id="Trazado_725460" data-name="Trazado 725460" d="M43.061,367.754c1.425.623,4.911.544,4.913.544.037,0-.749-2.282-.815-2.42-.765-1.6-3.183-4.242-5.151-3.976a2.351,2.351,0,0,0-1.886,2.945A4.912,4.912,0,0,0,43.061,367.754Z" transform="translate(-40.051 -351.774)" fill="#263238" opacity="0.3"/>
        <path id="Trazado_725461" data-name="Trazado 725461" d="M90.316,367.728c.031.019.634-2.317.655-2.469.244-1.756-.315-5.293-2.1-6.157a2.35,2.35,0,0,0-3.2,1.416,4.914,4.914,0,0,0,.849,4.046C87.363,365.869,90.314,367.726,90.316,367.728Z" transform="translate(-52.049 -350.981)" fill="#263238" opacity="0.3"/>
        <path id="Trazado_725462" data-name="Trazado 725462" d="M44.37,374.224c1.478.216,4.589-.687,4.836-.759a41.514,41.514,0,0,0,1.886,5.22c.428.991.89,1.976,1.365,2.957-.284-.416-.541-.785-.582-.833-1.16-1.342-4.191-3.25-6.018-2.474a2.35,2.35,0,0,0-1.041,3.339,4.913,4.913,0,0,0,3.6,2.027,15.565,15.565,0,0,0,4.7-.721c.186.375.368.751.556,1.125.9,1.794,1.808,3.58,2.643,5.359.3.626.562,1.255.832,1.882-.253-.369-.468-.677-.506-.721-1.16-1.341-4.19-3.25-6.018-2.474a2.35,2.35,0,0,0-1.041,3.339,4.912,4.912,0,0,0,3.6,2.027,14.972,14.972,0,0,0,4.574-.686c.257.651.515,1.3.735,1.945.14.442.305.858.422,1.31s.247.885.369,1.321c.2.849.419,1.723.6,2.555.128.579.239,1.132.353,1.689-.286-.628-.872-1.844-.933-1.94-.944-1.5-3.65-3.848-5.574-3.357a2.35,2.35,0,0,0-1.535,3.142,4.911,4.911,0,0,0,3.254,2.549,16.126,16.126,0,0,0,4.867-.015c.185.923.356,1.822.5,2.673.313,1.777.553,3.377.739,4.751h1.3c-.222-1.423-.509-3.1-.88-4.967-.184-.938-.4-1.936-.63-2.959a25.531,25.531,0,0,0,2.715-1.277,17.224,17.224,0,0,0,3.958,2.553c-.354.871-.707,1.716-1.053,2.507-.676,1.557-1.32,2.944-1.9,4.143h1.4c.491-1.1,1.025-2.329,1.579-3.685.364-.883.735-1.835,1.107-2.815a16.152,16.152,0,0,0,4.854.378,4.914,4.914,0,0,0,3.435-2.3,2.349,2.349,0,0,0-1.3-3.248c-1.882-.632-4.755,1.505-5.809,2.932-.062.084-.634,1.073-.985,1.7.15-.4.3-.79.449-1.2.3-.818.576-1.645.876-2.533q.2-.65.393-1.315c.141-.436.234-.914.354-1.376.256-1.075.463-2.176.647-3.291a15.43,15.43,0,0,0,4.607,1.059,4.912,4.912,0,0,0,3.743-1.753,2.35,2.35,0,0,0-.79-3.407c-1.765-.91-4.929.768-6.186,2.019-.079.078-.88,1.077-1.309,1.634.105-.671.214-1.34.3-2.022.245-1.969.431-3.97.626-5.965.059-.612.125-1.22.19-1.829a16.319,16.319,0,0,0,4.763,1.117A4.913,4.913,0,0,0,81.76,381.8a2.35,2.35,0,0,0-.79-3.407c-1.765-.91-4.93.768-6.186,2.018-.095.094-1.245,1.534-1.52,1.914.142-1.341.3-2.677.5-3.987a41.418,41.418,0,0,1,1.144-5.245c.119.045,3.268,1.234,4.791,1.127a4.911,4.911,0,0,0,3.743-1.753,2.35,2.35,0,0,0-.79-3.407c-1.765-.91-4.929.768-6.186,2.019-.082.082-.96,1.177-1.365,1.708l-.1-.052a30.3,30.3,0,0,1,2.083-4.98c.452-.884.933-1.7,1.419-2.49a15.822,15.822,0,0,0,4.536,1.595,4.915,4.915,0,0,0,3.913-1.331,2.35,2.35,0,0,0-.411-3.473c-1.655-1.1-4.983.221-6.37,1.327-.075.06-.774.756-1.276,1.27.224-.352.45-.719.672-1.052.831-1.251,1.669-2.346,2.419-3.309.431-.544.831-1.027,1.211-1.476a15.707,15.707,0,0,0,4.735-.674,4.914,4.914,0,0,0,2.86-2.984,2.351,2.351,0,0,0-1.965-2.893c-1.975-.213-4.321,2.493-5.042,4.113-.062.141-.786,2.442-.749,2.441h.042c-.373.425-.769.884-1.192,1.394-.772.949-1.636,2.028-2.5,3.266A41.444,41.444,0,0,0,76.8,367.6a30.69,30.69,0,0,0-2.212,4.979c-.007.021-.011.043-.018.063.01-.581-.015-2.209-.032-2.334-.228-1.758-1.7-5.022-3.655-5.384a2.35,2.35,0,0,0-2.711,2.21,4.914,4.914,0,0,0,1.886,3.678,16.352,16.352,0,0,0,4.453,2.034,41.591,41.591,0,0,0-1.306,5.395c-.189,1.062-.347,2.138-.492,3.219-.007-.5-.018-.953-.026-1.016-.228-1.758-1.7-5.022-3.655-5.383a2.349,2.349,0,0,0-2.71,2.21,4.912,4.912,0,0,0,1.886,3.678,15.593,15.593,0,0,0,4.318,1.992c-.051.415-.107.829-.156,1.245-.238,1.992-.467,3.982-.751,5.927-.1.686-.224,1.357-.345,2.029-.007-.447-.016-.824-.024-.88-.228-1.759-1.7-5.023-3.655-5.384a2.35,2.35,0,0,0-2.711,2.21,4.913,4.913,0,0,0,1.886,3.678,15,15,0,0,0,4.194,1.952c-.145.684-.289,1.37-.46,2.027-.127.446-.219.884-.371,1.325s-.282.874-.421,1.306c-.3.82-.6,1.668-.913,2.46-.212.553-.425,1.075-.637,1.6.107-.681.289-2.019.292-2.132a9.127,9.127,0,0,0-1.224-4.44,2.794,2.794,0,0,0-.032-.52,2.351,2.351,0,0,0-2.873-1.994c-1.919.512-3.137,3.879-3.227,5.65-.006.1.063,1.245.118,1.964-.1-.418-.185-.824-.29-1.253-.2-.849-.427-1.69-.667-2.6l-.4-1.313c-.123-.441-.309-.891-.463-1.342-.38-1.037-.815-2.07-1.276-3.1a15.461,15.461,0,0,0,4.427-1.658,4.914,4.914,0,0,0,2.155-3.527,2.351,2.351,0,0,0-2.538-2.407c-1.974.215-3.687,3.36-4.046,5.1-.022.108-.139,1.383-.19,2.085-.283-.618-.561-1.236-.866-1.852-.882-1.777-1.831-3.548-2.77-5.319-.288-.542-.567-1.086-.851-1.63a16.315,16.315,0,0,0,4.59-1.7,4.913,4.913,0,0,0,2.155-3.527,2.35,2.35,0,0,0-2.538-2.406c-1.974.214-3.687,3.359-4.046,5.1-.027.131-.193,1.966-.212,2.435-.622-1.2-1.23-2.4-1.782-3.6a41.353,41.353,0,0,1-1.939-5.006c.124-.028,3.406-.774,4.617-1.7a4.91,4.91,0,0,0,2.155-3.528,2.35,2.35,0,0,0-2.538-2.406c-1.975.215-3.688,3.36-4.046,5.1-.024.114-.152,1.512-.2,2.179l-.113.012a30.282,30.282,0,0,1-1.011-5.3c-.11-.986-.161-1.936-.19-2.86a15.81,15.81,0,0,0,4.663-1.172,4.914,4.914,0,0,0,2.53-3.269,2.35,2.35,0,0,0-2.259-2.67c-1.986,0-4.034,2.934-4.581,4.621-.03.091-.229,1.058-.364,1.763-.007-.417-.021-.848-.019-1.248,0-1.5.1-2.877.191-4.094.06-.692.127-1.316.2-1.9a15.729,15.729,0,0,0,3.578-3.175,4.912,4.912,0,0,0,.738-4.067,2.35,2.35,0,0,0-3.235-1.328c-1.764.912-2.229,4.462-1.936,6.212.025.152.692,2.47.722,2.449l.035-.024c-.077.56-.155,1.161-.225,1.82-.121,1.217-.246,2.594-.281,4.1a41.661,41.661,0,0,0,.116,4.869,30.67,30.67,0,0,0,.9,5.374c.006.021.015.041.02.062-.312-.49-1.231-1.833-1.314-1.929-1.161-1.341-4.191-3.25-6.018-2.474a2.35,2.35,0,0,0-1.041,3.339A4.911,4.911,0,0,0,44.37,374.224Z" transform="translate(-40.156 -348.148)" fill="#263238" opacity="0.3"/>
      </g>
      <g id="Grupo_1027238" data-name="Grupo 1027238" transform="translate(446.952)">
        <path id="Trazado_725463" data-name="Trazado 725463" d="M697.588,367.728c.03.019.634-2.317.655-2.469.244-1.756-.316-5.293-2.1-6.157a2.35,2.35,0,0,0-3.2,1.416,4.911,4.911,0,0,0,.848,4.046C694.634,365.869,697.586,367.726,697.588,367.728Z" transform="translate(-659.321 -350.981)" fill="#263238"/>
        <path id="Trazado_725464" data-name="Trazado 725464" d="M650.332,367.754c1.425.623,4.911.544,4.914.544.036,0-.749-2.282-.815-2.42-.765-1.6-3.184-4.242-5.152-3.976a2.351,2.351,0,0,0-1.886,2.945A4.911,4.911,0,0,0,650.332,367.754Z" transform="translate(-647.323 -351.774)" fill="#263238"/>
        <path id="Trazado_725465" data-name="Trazado 725465" d="M651.641,374.224c1.478.216,4.589-.687,4.836-.759a41.526,41.526,0,0,0,1.887,5.22c.428.991.889,1.976,1.365,2.957-.283-.416-.54-.785-.581-.833-1.161-1.342-4.191-3.25-6.019-2.474a2.351,2.351,0,0,0-1.041,3.339,4.916,4.916,0,0,0,3.6,2.027,15.561,15.561,0,0,0,4.7-.721c.187.375.369.751.556,1.125.9,1.794,1.808,3.58,2.643,5.359.3.626.562,1.255.832,1.882-.253-.369-.468-.677-.506-.721-1.16-1.341-4.191-3.25-6.018-2.474a2.35,2.35,0,0,0-1.041,3.339,4.912,4.912,0,0,0,3.6,2.027,14.971,14.971,0,0,0,4.574-.686c.256.651.515,1.3.735,1.945.14.442.305.858.421,1.31s.247.885.369,1.321c.2.849.419,1.723.6,2.555.128.579.239,1.132.352,1.689-.286-.628-.872-1.844-.932-1.94-.944-1.5-3.649-3.848-5.574-3.357a2.349,2.349,0,0,0-1.535,3.142,4.912,4.912,0,0,0,3.254,2.549,16.125,16.125,0,0,0,4.867-.015c.185.923.356,1.822.5,2.673.314,1.777.553,3.377.74,4.751h1.3c-.222-1.423-.509-3.1-.88-4.967-.184-.938-.4-1.936-.631-2.959a25.456,25.456,0,0,0,2.716-1.277,17.208,17.208,0,0,0,3.958,2.553c-.355.871-.708,1.716-1.054,2.507-.676,1.557-1.32,2.944-1.9,4.143h1.4c.491-1.1,1.024-2.329,1.579-3.685.364-.883.735-1.835,1.106-2.815a16.16,16.16,0,0,0,4.855.378,4.916,4.916,0,0,0,3.435-2.3,2.35,2.35,0,0,0-1.3-3.248c-1.883-.632-4.756,1.505-5.808,2.932-.063.084-.634,1.073-.985,1.7.149-.4.3-.79.449-1.2.3-.818.576-1.645.876-2.533q.194-.65.393-1.315c.14-.436.233-.914.354-1.376.255-1.075.463-2.176.647-3.291a15.431,15.431,0,0,0,4.607,1.059,4.914,4.914,0,0,0,3.744-1.753,2.351,2.351,0,0,0-.79-3.407c-1.765-.91-4.929.768-6.186,2.019-.079.078-.88,1.077-1.309,1.634.106-.671.214-1.34.3-2.022.244-1.969.431-3.97.625-5.965.06-.612.126-1.22.19-1.829a16.325,16.325,0,0,0,4.763,1.117,4.912,4.912,0,0,0,3.743-1.753,2.35,2.35,0,0,0-.79-3.407c-1.765-.91-4.929.768-6.185,2.018-.095.094-1.245,1.534-1.52,1.914.141-1.341.3-2.677.5-3.987a41.413,41.413,0,0,1,1.145-5.245c.118.045,3.267,1.234,4.79,1.127a4.912,4.912,0,0,0,3.744-1.753,2.351,2.351,0,0,0-.79-3.407c-1.766-.91-4.929.768-6.186,2.019-.082.082-.96,1.177-1.365,1.708l-.1-.052a30.235,30.235,0,0,1,2.083-4.98c.452-.884.933-1.7,1.419-2.49a15.817,15.817,0,0,0,4.535,1.595,4.917,4.917,0,0,0,3.914-1.331,2.35,2.35,0,0,0-.411-3.473c-1.654-1.1-4.983.221-6.369,1.327-.076.06-.775.756-1.277,1.27.225-.352.45-.719.673-1.052.831-1.251,1.669-2.346,2.419-3.309.43-.544.831-1.027,1.21-1.476a15.709,15.709,0,0,0,4.736-.674,4.913,4.913,0,0,0,2.859-2.984,2.35,2.35,0,0,0-1.965-2.893c-1.974-.213-4.32,2.493-5.042,4.113-.063.141-.786,2.442-.749,2.441h.042c-.374.425-.769.884-1.192,1.394-.773.949-1.637,2.028-2.5,3.266a41.708,41.708,0,0,0-2.589,4.125,30.617,30.617,0,0,0-2.212,4.979c-.007.021-.012.043-.018.063.01-.581-.016-2.209-.032-2.334-.227-1.758-1.7-5.022-3.654-5.384a2.35,2.35,0,0,0-2.711,2.21,4.912,4.912,0,0,0,1.886,3.678,16.342,16.342,0,0,0,4.453,2.034,41.6,41.6,0,0,0-1.306,5.395c-.19,1.062-.347,2.138-.492,3.219-.007-.5-.018-.953-.026-1.016-.228-1.758-1.7-5.022-3.655-5.383a2.35,2.35,0,0,0-2.711,2.21,4.911,4.911,0,0,0,1.886,3.678,15.6,15.6,0,0,0,4.319,1.992c-.051.415-.107.829-.157,1.245-.238,1.992-.467,3.982-.751,5.927-.1.686-.224,1.357-.344,2.029-.007-.447-.017-.824-.024-.88-.228-1.759-1.7-5.023-3.655-5.384a2.35,2.35,0,0,0-2.71,2.21,4.911,4.911,0,0,0,1.886,3.678,14.993,14.993,0,0,0,4.194,1.952c-.145.684-.289,1.37-.46,2.027-.127.446-.219.884-.371,1.325l-.422,1.306c-.3.82-.6,1.668-.912,2.46-.213.553-.425,1.075-.637,1.6.107-.681.29-2.019.292-2.132a9.125,9.125,0,0,0-1.223-4.44,2.787,2.787,0,0,0-.033-.52,2.35,2.35,0,0,0-2.873-1.994c-1.919.512-3.136,3.879-3.227,5.65-.005.1.063,1.245.119,1.964-.1-.418-.186-.824-.291-1.253-.2-.849-.427-1.69-.666-2.6l-.4-1.313c-.123-.441-.31-.891-.464-1.342-.38-1.037-.815-2.07-1.276-3.1a15.446,15.446,0,0,0,4.427-1.658,4.915,4.915,0,0,0,2.156-3.527,2.351,2.351,0,0,0-2.538-2.407c-1.974.215-3.688,3.36-4.046,5.1-.023.108-.14,1.383-.19,2.085-.283-.618-.561-1.236-.867-1.852-.883-1.777-1.831-3.548-2.769-5.319-.288-.542-.568-1.086-.851-1.63a16.313,16.313,0,0,0,4.589-1.7,4.913,4.913,0,0,0,2.156-3.527,2.35,2.35,0,0,0-2.538-2.406c-1.975.214-3.687,3.359-4.046,5.1-.027.131-.193,1.966-.212,2.435-.622-1.2-1.231-2.4-1.782-3.6a41.315,41.315,0,0,1-1.938-5.006c.123-.028,3.405-.774,4.617-1.7a4.915,4.915,0,0,0,2.155-3.528,2.351,2.351,0,0,0-2.538-2.406c-1.974.215-3.687,3.36-4.046,5.1-.024.114-.151,1.512-.2,2.179l-.113.012a30.276,30.276,0,0,1-1.01-5.3c-.111-.986-.162-1.936-.19-2.86a15.8,15.8,0,0,0,4.663-1.172,4.914,4.914,0,0,0,2.53-3.269,2.35,2.35,0,0,0-2.259-2.67c-1.986,0-4.034,2.934-4.581,4.621-.029.091-.229,1.058-.364,1.763-.006-.417-.021-.848-.018-1.248,0-1.5.1-2.877.191-4.094.059-.692.126-1.316.2-1.9a15.729,15.729,0,0,0,3.578-3.175,4.913,4.913,0,0,0,.739-4.067,2.35,2.35,0,0,0-3.235-1.328c-1.764.912-2.228,4.462-1.936,6.212.025.152.691,2.47.721,2.449l.034-.024c-.077.56-.154,1.161-.224,1.82-.121,1.217-.246,2.594-.281,4.1a41.645,41.645,0,0,0,.115,4.869,30.687,30.687,0,0,0,.9,5.374c.005.021.014.041.02.062-.313-.49-1.232-1.833-1.314-1.929-1.161-1.341-4.191-3.25-6.019-2.474a2.35,2.35,0,0,0-1.041,3.339A4.912,4.912,0,0,0,651.641,374.224Z" transform="translate(-647.428 -348.148)" fill="#263238"/>
        <path id="Trazado_725466" data-name="Trazado 725466" d="M650.332,367.754c1.425.623,4.911.544,4.914.544.036,0-.749-2.282-.815-2.42-.765-1.6-3.184-4.242-5.152-3.976a2.351,2.351,0,0,0-1.886,2.945A4.911,4.911,0,0,0,650.332,367.754Z" transform="translate(-647.323 -351.774)" fill="#263238" opacity="0.3"/>
        <path id="Trazado_725467" data-name="Trazado 725467" d="M697.588,367.728c.03.019.634-2.317.655-2.469.244-1.756-.316-5.293-2.1-6.157a2.35,2.35,0,0,0-3.2,1.416,4.911,4.911,0,0,0,.848,4.046C694.634,365.869,697.586,367.726,697.588,367.728Z" transform="translate(-659.321 -350.981)" fill="#263238" opacity="0.3"/>
        <path id="Trazado_725468" data-name="Trazado 725468" d="M651.641,374.224c1.478.216,4.589-.687,4.836-.759a41.526,41.526,0,0,0,1.887,5.22c.428.991.889,1.976,1.365,2.957-.283-.416-.54-.785-.581-.833-1.161-1.342-4.191-3.25-6.019-2.474a2.351,2.351,0,0,0-1.041,3.339,4.916,4.916,0,0,0,3.6,2.027,15.561,15.561,0,0,0,4.7-.721c.187.375.369.751.556,1.125.9,1.794,1.808,3.58,2.643,5.359.3.626.562,1.255.832,1.882-.253-.369-.468-.677-.506-.721-1.16-1.341-4.191-3.25-6.018-2.474a2.35,2.35,0,0,0-1.041,3.339,4.912,4.912,0,0,0,3.6,2.027,14.971,14.971,0,0,0,4.574-.686c.256.651.515,1.3.735,1.945.14.442.305.858.421,1.31s.247.885.369,1.321c.2.849.419,1.723.6,2.555.128.579.239,1.132.352,1.689-.286-.628-.872-1.844-.932-1.94-.944-1.5-3.649-3.848-5.574-3.357a2.349,2.349,0,0,0-1.535,3.142,4.912,4.912,0,0,0,3.254,2.549,16.125,16.125,0,0,0,4.867-.015c.185.923.356,1.822.5,2.673.314,1.777.553,3.377.74,4.751h1.3c-.222-1.423-.509-3.1-.88-4.967-.184-.938-.4-1.936-.631-2.959a25.456,25.456,0,0,0,2.716-1.277,17.208,17.208,0,0,0,3.958,2.553c-.355.871-.708,1.716-1.054,2.507-.676,1.557-1.32,2.944-1.9,4.143h1.4c.491-1.1,1.024-2.329,1.579-3.685.364-.883.735-1.835,1.106-2.815a16.16,16.16,0,0,0,4.855.378,4.916,4.916,0,0,0,3.435-2.3,2.35,2.35,0,0,0-1.3-3.248c-1.883-.632-4.756,1.505-5.808,2.932-.063.084-.634,1.073-.985,1.7.149-.4.3-.79.449-1.2.3-.818.576-1.645.876-2.533q.194-.65.393-1.315c.14-.436.233-.914.354-1.376.255-1.075.463-2.176.647-3.291a15.431,15.431,0,0,0,4.607,1.059,4.914,4.914,0,0,0,3.744-1.753,2.351,2.351,0,0,0-.79-3.407c-1.765-.91-4.929.768-6.186,2.019-.079.078-.88,1.077-1.309,1.634.106-.671.214-1.34.3-2.022.244-1.969.431-3.97.625-5.965.06-.612.126-1.22.19-1.829a16.325,16.325,0,0,0,4.763,1.117,4.912,4.912,0,0,0,3.743-1.753,2.35,2.35,0,0,0-.79-3.407c-1.765-.91-4.929.768-6.185,2.018-.095.094-1.245,1.534-1.52,1.914.141-1.341.3-2.677.5-3.987a41.413,41.413,0,0,1,1.145-5.245c.118.045,3.267,1.234,4.79,1.127a4.912,4.912,0,0,0,3.744-1.753,2.351,2.351,0,0,0-.79-3.407c-1.766-.91-4.929.768-6.186,2.019-.082.082-.96,1.177-1.365,1.708l-.1-.052a30.235,30.235,0,0,1,2.083-4.98c.452-.884.933-1.7,1.419-2.49a15.817,15.817,0,0,0,4.535,1.595,4.917,4.917,0,0,0,3.914-1.331,2.35,2.35,0,0,0-.411-3.473c-1.654-1.1-4.983.221-6.369,1.327-.076.06-.775.756-1.277,1.27.225-.352.45-.719.673-1.052.831-1.251,1.669-2.346,2.419-3.309.43-.544.831-1.027,1.21-1.476a15.709,15.709,0,0,0,4.736-.674,4.913,4.913,0,0,0,2.859-2.984,2.35,2.35,0,0,0-1.965-2.893c-1.974-.213-4.32,2.493-5.042,4.113-.063.141-.786,2.442-.749,2.441h.042c-.374.425-.769.884-1.192,1.394-.773.949-1.637,2.028-2.5,3.266a41.708,41.708,0,0,0-2.589,4.125,30.617,30.617,0,0,0-2.212,4.979c-.007.021-.012.043-.018.063.01-.581-.016-2.209-.032-2.334-.227-1.758-1.7-5.022-3.654-5.384a2.35,2.35,0,0,0-2.711,2.21,4.912,4.912,0,0,0,1.886,3.678,16.342,16.342,0,0,0,4.453,2.034,41.6,41.6,0,0,0-1.306,5.395c-.19,1.062-.347,2.138-.492,3.219-.007-.5-.018-.953-.026-1.016-.228-1.758-1.7-5.022-3.655-5.383a2.35,2.35,0,0,0-2.711,2.21,4.911,4.911,0,0,0,1.886,3.678,15.6,15.6,0,0,0,4.319,1.992c-.051.415-.107.829-.157,1.245-.238,1.992-.467,3.982-.751,5.927-.1.686-.224,1.357-.344,2.029-.007-.447-.017-.824-.024-.88-.228-1.759-1.7-5.023-3.655-5.384a2.35,2.35,0,0,0-2.71,2.21,4.911,4.911,0,0,0,1.886,3.678,14.993,14.993,0,0,0,4.194,1.952c-.145.684-.289,1.37-.46,2.027-.127.446-.219.884-.371,1.325l-.422,1.306c-.3.82-.6,1.668-.912,2.46-.213.553-.425,1.075-.637,1.6.107-.681.29-2.019.292-2.132a9.125,9.125,0,0,0-1.223-4.44,2.787,2.787,0,0,0-.033-.52,2.35,2.35,0,0,0-2.873-1.994c-1.919.512-3.136,3.879-3.227,5.65-.005.1.063,1.245.119,1.964-.1-.418-.186-.824-.291-1.253-.2-.849-.427-1.69-.666-2.6l-.4-1.313c-.123-.441-.31-.891-.464-1.342-.38-1.037-.815-2.07-1.276-3.1a15.446,15.446,0,0,0,4.427-1.658,4.915,4.915,0,0,0,2.156-3.527,2.351,2.351,0,0,0-2.538-2.407c-1.974.215-3.688,3.36-4.046,5.1-.023.108-.14,1.383-.19,2.085-.283-.618-.561-1.236-.867-1.852-.883-1.777-1.831-3.548-2.769-5.319-.288-.542-.568-1.086-.851-1.63a16.313,16.313,0,0,0,4.589-1.7,4.913,4.913,0,0,0,2.156-3.527,2.35,2.35,0,0,0-2.538-2.406c-1.975.214-3.687,3.359-4.046,5.1-.027.131-.193,1.966-.212,2.435-.622-1.2-1.231-2.4-1.782-3.6a41.315,41.315,0,0,1-1.938-5.006c.123-.028,3.405-.774,4.617-1.7a4.915,4.915,0,0,0,2.155-3.528,2.351,2.351,0,0,0-2.538-2.406c-1.974.215-3.687,3.36-4.046,5.1-.024.114-.151,1.512-.2,2.179l-.113.012a30.276,30.276,0,0,1-1.01-5.3c-.111-.986-.162-1.936-.19-2.86a15.8,15.8,0,0,0,4.663-1.172,4.914,4.914,0,0,0,2.53-3.269,2.35,2.35,0,0,0-2.259-2.67c-1.986,0-4.034,2.934-4.581,4.621-.029.091-.229,1.058-.364,1.763-.006-.417-.021-.848-.018-1.248,0-1.5.1-2.877.191-4.094.059-.692.126-1.316.2-1.9a15.729,15.729,0,0,0,3.578-3.175,4.913,4.913,0,0,0,.739-4.067,2.35,2.35,0,0,0-3.235-1.328c-1.764.912-2.228,4.462-1.936,6.212.025.152.691,2.47.721,2.449l.034-.024c-.077.56-.154,1.161-.224,1.82-.121,1.217-.246,2.594-.281,4.1a41.645,41.645,0,0,0,.115,4.869,30.687,30.687,0,0,0,.9,5.374c.005.021.014.041.02.062-.313-.49-1.232-1.833-1.314-1.929-1.161-1.341-4.191-3.25-6.019-2.474a2.35,2.35,0,0,0-1.041,3.339A4.912,4.912,0,0,0,651.641,374.224Z" transform="translate(-647.428 -348.148)" fill="#263238" opacity="0.3"/>
      </g>
    </g>
    <g id="Character_1" data-name="Character 1" transform="translate(45.677 69.975)">
      <g id="Grupo_1027244" data-name="Grupo 1027244">
        <g id="Grupo_1027241" data-name="Grupo 1027241" transform="translate(47.65 87.767)">
          <path id="Trazado_725469" data-name="Trazado 725469" d="M177.94,332.4s.92-.184,8.464-2.392a32.872,32.872,0,0,0,12.88-7.728l-2.392-15.088L181.62,309.4Z" transform="translate(-135.982 -228.81)" fill="#92e3a9" stroke="#263238" stroke-linecap="round" stroke-linejoin="round" stroke-width="1"/>
          <path id="Trazado_725470" data-name="Trazado 725470" d="M125.872,410.944a31.711,31.711,0,0,0-2.944,9.936c-.368,4.784,2.392,6.44,3.312,5.152a25.006,25.006,0,0,0,2.576-7.912l.552-6.072Z" transform="translate(-121.45 -256.2)" fill="#fff" stroke="#263238" stroke-linecap="round" stroke-linejoin="round" stroke-width="1"/>
          <path id="Trazado_725471" data-name="Trazado 725471" d="M218.619,415.439s-.746,6.623-.934,9.751,3.671,6.077,4.223,6.262,1.1,0,2.027-2.205.931-7.543.381-9.2-1.65-4.235-1.65-4.235Z" transform="translate(-146.473 -257.387)" fill="#fff" stroke="#263238" stroke-linecap="round" stroke-linejoin="round" stroke-width="1"/>
          <path id="Trazado_725472" data-name="Trazado 725472" d="M168.694,283.694s-7.427,8.858-10,16.218-4.632,16.469-6.373,21.318a121.364,121.364,0,0,0-3.68,12.7s-4.784,4.784-6.072,9.016-16.376,35.512-16.376,35.512.92,1.288,1.656,1.472,2.392-.736,2.392-.736,26.68-34.96,28.336-37.536,6.882-8.543,7.434-9.463,4.71-13.72,6.182-15.56a30.387,30.387,0,0,0,2.856-4.668l1.1.736,1.288.184s5.792,11.66,7.264,16.444,5.7,30.912,6.808,35.7,2.576,17.3,2.576,17.3a20.2,20.2,0,0,0,2.024.552,10.927,10.927,0,0,0,3.312-.552s4.232-19.136,4.416-25.76-1.1-21.344-1.1-23.552-3.312-32.568-4.968-36.616-7.176-11.224-7.176-11.224Z" transform="translate(-122.32 -222.606)" fill="#263238" stroke="#263238" stroke-linecap="round" stroke-linejoin="round" stroke-width="1"/>
          <path id="Trazado_725473" data-name="Trazado 725473" d="M194.555,236.444l-11.04,3.5s0,21.344.184,24.1-1.288,7.36-.368,8.464,5.336,5.52,13.432,5.7,10.3-2.392,10.3-2.392l1.656-7.176s5.336-14.352,5.336-16.56-5.336-8.648-8.464-11.224S194.555,236.444,194.555,236.444Z" transform="translate(-137.325 -210.132)" fill="#fff" stroke="#263238" stroke-linecap="round" stroke-linejoin="round" stroke-width="1"/>
          <path id="Trazado_725474" data-name="Trazado 725474" d="M152.02,270.694a60.155,60.155,0,0,1-7.36,4.232l-14.72,7.36,1.656,3.5a93.464,93.464,0,0,1,10.856-1.288c4.784-.184,12.88-3.312,13.432-4.232s2.392-5.888,2.392-5.888Z" transform="translate(-123.31 -219.174)" fill="#fff" stroke="#263238" stroke-linecap="round" stroke-linejoin="round" stroke-width="1"/>
          <path id="Trazado_725475" data-name="Trazado 725475" d="M186.988,236.694s-7.912,21.712-8.28,24.84-3.5,11.04-3.68,12.144-5.336,12.328-5.336,12.328,5.52-17.3,6.072-20.792a13.738,13.738,0,0,0-.736-6.624s-3.733,7.915-4.285,8.467-4.3,6.872-4.3,6.872l-6.508-12.211s7.176-12.512,8.648-14.536,4.6-7.544,6.808-8.648S186.988,236.694,186.988,236.694Z" transform="translate(-131.23 -210.198)" fill="#3076b6" stroke="#263238" stroke-linecap="round" stroke-linejoin="round" stroke-width="1"/>
          <path id="Trazado_725476" data-name="Trazado 725476" d="M208.4,240.444s-5.7,23.92-5.7,27.784-.552,15.824-1.1,22.448-1.656,27.784-1.656,27.784a45.534,45.534,0,0,0,10.672.368c5.152-.552,13.984-4.048,13.984-4.048s-4.6-23.184-6.44-28.7a139.947,139.947,0,0,1-3.864-14.536c0-.552,4.968-16.744,4.968-18.952S210.428,241,208.4,240.444Z" transform="translate(-141.79 -211.188)" fill="#3076b6" stroke="#263238" stroke-linecap="round" stroke-linejoin="round" stroke-width="1"/>
          <path id="Trazado_725477" data-name="Trazado 725477" d="M122.658,286.048a8.05,8.05,0,0,0-.769-4.063c-1-1.978-1.549-2.59.059-2.153s2.544,3.576,2.544,3.576Z" transform="translate(-120.932 -221.551)" fill="#fff" stroke="#263238" stroke-linecap="round" stroke-linejoin="round" stroke-width="1"/>
          <path id="Trazado_725478" data-name="Trazado 725478" d="M133.634,287.925s-2.1,3.324-3.369,3.021-6.882-3.113-6.99-4.342.969-4.959,1.893-4.792S133.634,287.925,133.634,287.925Z" transform="translate(-121.548 -222.108)" fill="#fff" stroke="#263238" stroke-linecap="round" stroke-linejoin="round" stroke-width="1"/>
          <g id="Grupo_1027240" data-name="Grupo 1027240" transform="translate(46.949)">
            <g id="Grupo_1027239" data-name="Grupo 1027239" transform="translate(6.814 5.308)">
              <path id="Trazado_725479" data-name="Trazado 725479" d="M214.576,209.278a27.5,27.5,0,0,1,1.08,4.378,12.422,12.422,0,0,1-.5,2.676s3.01,2.675,3.177,3.344-1.672,1.672-1.672,1.672.167,7.024.167,7.526-8.194.836-8.194.836L200.1,239.744l-4.013-9.867,1.84-5.519s-5.519-3.177-3.512-8.027a13.886,13.886,0,0,1,11.037-8.195,26.527,26.527,0,0,1,8.8.33Z" transform="translate(-193.979 -207.907)" fill="#fff" stroke="#263238" stroke-linecap="round" stroke-linejoin="round" stroke-width="1"/>
              <path id="Trazado_725480" data-name="Trazado 725480" d="M212.3,237.244l-4.194-.8-.245,5.643Z" transform="translate(-197.643 -215.441)" fill="#263238" stroke="#263238" stroke-linecap="round" stroke-linejoin="round" stroke-width="1"/>
              <path id="Trazado_725481" data-name="Trazado 725481" d="M220.073,219.857c0,.581-.218,1.054-.486,1.054s-.486-.473-.486-1.054.217-1.054.486-1.054S220.073,219.275,220.073,219.857Z" transform="translate(-200.611 -210.783)" fill="#263238"/>
              <path id="Trazado_725482" data-name="Trazado 725482" d="M218.219,217.7s.487-.973,2.27-.486" transform="translate(-200.379 -210.327)" fill="none" stroke="#263238" stroke-linecap="round" stroke-linejoin="round" stroke-width="1"/>
              <path id="Trazado_725483" data-name="Trazado 725483" d="M222.68,228.205s-2.108.324-2.919-.811" transform="translate(-200.786 -213.051)" fill="none" stroke="#263238" stroke-linecap="round" stroke-linejoin="round" stroke-width="1"/>
            </g>
            <path id="Trazado_725484" data-name="Trazado 725484" d="M212.544,209.411s-5.519-1.337-6.522.669-.167,3.01-1,4.85-4.013,4.181-4.013,4.181-3.01-3.344-4.013-1.672-.669,4.18.334,5.017,3.846.335,3.846.335l-4.348,2.006s.167,2.508-3.846,3.512-8.864-1.673-8.195-5.017,6.188-5.351,6.188-5.351-5.853-7.191-1-12.542,14.381-2.842,14.381-2.842,1.338-1.505,5.184-1.84,5.519,3.512,5.519,5.686S212.544,209.411,212.544,209.411Z" transform="translate(-184.721 -200.694)" fill="#263238" stroke="#263238" stroke-linecap="round" stroke-linejoin="round" stroke-width="1"/>
          </g>
        </g>
        <g id="Grupo_1027242" data-name="Grupo 1027242">
          <path id="Trazado_725485" data-name="Trazado 725485" d="M456.6,123.408l-1.966-37.962L422,103.181l.736,2.944,12.341,6.3-58.081,113.8L192.67,276.342,65.246,189.382a5.152,5.152,0,1,0-5.808,8.51l129.386,88.3a5.153,5.153,0,0,0,4.256.716L381.9,235.57a5.158,5.158,0,0,0,3.238-2.629l59.118-115.832Z" transform="translate(-56.454 -82.502)" fill="#263238" stroke="#263238" stroke-linecap="round" stroke-linejoin="round" stroke-width="1"/>
          <path id="Trazado_725486" data-name="Trazado 725486" d="M455.6,119.408l-1.966-37.962-31.9,20.679,12.341,6.3-58.081,113.8L191.67,272.342,64.246,185.382a5.152,5.152,0,0,0-5.808,8.51l129.386,88.3a5.153,5.153,0,0,0,4.256.716L380.9,231.57a5.158,5.158,0,0,0,3.238-2.629l59.118-115.832Z" transform="translate(-56.19 -81.446)" fill="#4db1f0" stroke="#263238" stroke-linecap="round" stroke-linejoin="round" stroke-width="1"/>
          <path id="Trazado_725487" data-name="Trazado 725487" d="M451.606,90.351l-21.2,13.746,9.942,5.074L379.852,227.7,192.318,278.689,63.492,190.771a1.44,1.44,0,0,0-.825-.256,1.472,1.472,0,0,0-.834,2.688l129.386,88.3a1.466,1.466,0,0,0,.83.256,1.449,1.449,0,0,0,.386-.052l188.82-51.338a1.476,1.476,0,0,0,.924-.751l60.791-119.11,9.943,5.075Z" transform="translate(-57.51 -83.797)" fill="#fff"/>
        </g>
        <g id="Grupo_1027243" data-name="Grupo 1027243" transform="translate(99.352 124.863)">
          <path id="Trazado_725488" data-name="Trazado 725488" d="M210.049,294.689l-1.006,3.908a44.978,44.978,0,0,1-3.958,6.284c-2.432,3.22-11.155,12.192-11.155,12.192l-2.464,3.039-.287,2.664,2,.775s1,.388,1.819.807,2.939.8,3.6.312,2.214-4.489,2.214-4.489l.588-3.089s10.361-8.134,12.736-10.6,4.42-4.683,5.109-6.109.118-5.809.118-5.809Z" transform="translate(-191.179 -262.576)" fill="#fff" stroke="#263238" stroke-linecap="round" stroke-linejoin="round" stroke-width="1"/>
          <path id="Trazado_725489" data-name="Trazado 725489" d="M215.8,264.4l-1.858,19.552a41.932,41.932,0,0,0,5.3,1.513c2.907.619,8.978-.988,8.978-.988s-.938-16.269-2.15-22.221-4.6-10.411-6.778-11.156" transform="translate(-197.19 -251.097)" fill="#3076b6" stroke="#263238" stroke-linecap="round" stroke-linejoin="round" stroke-width="1"/>
        </g>
      </g>
    </g>
    <g id="Flor" transform="translate(28.75 327.573)">
      <g id="Grupo_1027245" data-name="Grupo 1027245">
        <line id="Línea_2583" data-name="Línea 2583" x2="133.216" transform="translate(368)" fill="none" stroke="#263238" stroke-linecap="round" stroke-linejoin="round" stroke-width="1"/>
        <line id="Línea_2584" data-name="Línea 2584" x2="9.568" transform="translate(351.808)" fill="none" stroke="#263238" stroke-linecap="round" stroke-linejoin="round" stroke-width="1"/>
        <line id="Línea_2585" data-name="Línea 2585" x2="232.576" transform="translate(111.136)" fill="none" stroke="#263238" stroke-linecap="round" stroke-linejoin="round" stroke-width="1"/>
        <line id="Línea_2586" data-name="Línea 2586" x2="104.512" fill="none" stroke="#263238" stroke-linecap="round" stroke-linejoin="round" stroke-width="1"/>
      </g>
    </g>
  </g>
</svg>
