<svg xmlns="http://www.w3.org/2000/svg" width="265" height="180.644" viewBox="0 0 265 180.644">
  <g id="Grupo_1027096" data-name="Grupo 1027096" transform="translate(-945 -4627.047)">
    <g id="Grupo_1026946" data-name="Grupo 1026946" transform="translate(0 -1050.746)">
      <g id="Grupo_1026945" data-name="Grupo 1026945">
        <g id="Grupo_1026611" data-name="Grupo 1026611" transform="translate(-20 2100.033)">
          <path id="Trazado_717261" data-name="Trazado 717261" d="M256.045,6.946c17.063-1.074,33.043,10.991,40.907,26.4s8.9,33.5,7.566,50.8c-1.55,20.065-6.345,40.492-18.157,56.663-10.291,14.089-25.385,24.1-41.614,30.118s-33.608,8.274-50.873,8.872a166.69,166.69,0,0,1-31.625-1.521c-21.419-3.372-41.515-12.526-60.782-22.6-10.065-5.265-20.115-10.9-28.347-18.793a96.232,96.232,0,0,1-13.794-17.23c-11.581-17.819-19.837-38.59-19.291-59.935S51.148,16.6,69.69,6.522c21.6-11.73,48.245-5.764,71.087,3.216,19.757,7.77,41.525,20.277,63.269,20.272,8.746,0,15.636-6.734,22.927-11.3,8.925-5.58,18.367-11.1,29.077-11.768Z" transform="translate(924.992 3578.02)" fill="#f5f9fd"/>
        </g>
        <g id="Grupo_1027095" data-name="Grupo 1027095" transform="translate(814.029 5596.485)">
          <g id="Grupo_1026950" data-name="Grupo 1026950" transform="translate(369.125 151.284)">
            <g id="Grupo_1026948" data-name="Grupo 1026948" transform="translate(0 0)">
              <g id="Grupo_1026947" data-name="Grupo 1026947" transform="translate(1.352 0.971)">
                <path id="Trazado_724900" data-name="Trazado 724900" d="M628.961,234.2a10.83,10.83,0,1,1-1.48,17.774l-3.213.506.764-3.351c-.031-.052-.067-.1-.1-.151A10.83,10.83,0,0,1,628.961,234.2Z" transform="translate(-623.505 -232.77)" fill="#12263f"/>
              </g>
              <path id="Trazado_724901" data-name="Trazado 724901" d="M630.407,230.694a10.735,10.735,0,0,0-7.8,6.458" transform="translate(-621.675 -230.694)" fill="none" stroke="#000" stroke-linecap="round" stroke-linejoin="round" stroke-width="0.5"/>
              <path id="Trazado_724902" data-name="Trazado 724902" d="M621,247.764a3.915,3.915,0,0,0-.389,1.552" transform="translate(-620.613 -239.784)" fill="none" stroke="#000" stroke-linecap="round" stroke-linejoin="round" stroke-width="0.5"/>
            </g>
            <g id="Grupo_1026949" data-name="Grupo 1026949" transform="translate(6.343 7.952)">
              <path id="Trazado_724903" data-name="Trazado 724903" d="M638.752,255.647l-4.571-4.172,1.456-1.6,3.065,2.8,5.093-4.974,1.509,1.545Z" transform="translate(-634.18 -247.704)" fill="#fff"/>
            </g>
          </g>
          <g id="Grupo_1026955" data-name="Grupo 1026955" transform="translate(258.702 81.567)">
            <g id="Grupo_1026953" data-name="Grupo 1026953">
              <g id="Grupo_1026952" data-name="Grupo 1026952">
                <g id="Grupo_1026951" data-name="Grupo 1026951" transform="translate(0 1.416)">
                  <path id="Trazado_724904" data-name="Trazado 724904" d="M390.1,86.144A11.424,11.424,0,1,1,388.67,104.9l-3.385.557.781-3.54c-.033-.055-.071-.1-.1-.159A11.424,11.424,0,0,1,390.1,86.144Z" transform="translate(-384.414 -84.596)" fill="#12263f"/>
                </g>
                <path id="Trazado_724905" data-name="Trazado 724905" d="M418.96,86.04a11.323,11.323,0,0,0-9.712-4.445" transform="translate(-397.638 -81.567)" fill="none" stroke="#407bff" stroke-linecap="round" stroke-linejoin="round" stroke-width="0.5"/>
                <path id="Trazado_724906" data-name="Trazado 724906" d="M403.741,82.016a4.137,4.137,0,0,0-1.653.342" transform="translate(-393.826 -81.806)" fill="none" stroke="#407bff" stroke-linecap="round" stroke-linejoin="round" stroke-width="0.5"/>
              </g>
            </g>
            <g id="Grupo_1026954" data-name="Grupo 1026954" transform="translate(5.708 9.929)">
              <rect id="Rectángulo_349211" data-name="Rectángulo 349211" width="10.671" height="2.668" transform="translate(0 1.27)" fill="#fff"/>
              <path id="Trazado_724907" data-name="Trazado 724907" d="M417.339,108.2v-5.39l2.628,2.695Z" transform="translate(-407.654 -102.806)" fill="#fff"/>
            </g>
          </g>
          <g id="Grupo_1026964" data-name="Grupo 1026964" transform="translate(293.07 95.8)">
            <g id="Grupo_1026956" data-name="Grupo 1026956" transform="translate(0 54.912)">
              <path id="Trazado_724908" data-name="Trazado 724908" d="M507.787,231.142a71.52,71.52,0,0,1-2.675,13.477,136.232,136.232,0,0,1-5.452,15.591c-1.193,2.87-2.561,5.918-4.133,9.123-.706,1.458-1.464,2.94-2.258,4.461-.915,25.97-15.49,52.368-15.49,52.368-.807.417-3.628-.037-3.609-.858,2.158-3.426,6.4-36.7,9.142-52.489.17-2.145.416-4.416.719-6.82.8-6.372,1.987-13.3,3.155-19.4,1.811-9.6,3.533-17.13,3.533-17.13l4.8.467Z" transform="translate(-466.578 -229.47)" fill="#eec1bb"/>
              <path id="Trazado_724909" data-name="Trazado 724909" d="M468.973,441.866h-.82l-.233-1.035-2.776,1.262h-7.035s-1.116-1.123,2.228-2.013a2.821,2.821,0,0,0,.473-.183,19.583,19.583,0,0,0,4.322-3.666h3.855a4.293,4.293,0,0,1,.316.561A4.877,4.877,0,0,1,468.973,441.866Z" transform="translate(-457.929 -339.571)" fill="#263238"/>
              <path id="Trazado_724910" data-name="Trazado 724910" d="M472.582,435.506h0c-.5-.568-2.82,1.925-4.518,2.776-1.514.751-3.218,1.086-3.975.322,1.785-.839,4.965-4.766,4.965-4.766l2.726.274S472.4,435.14,472.582,435.506Z" transform="translate(-461.209 -338.296)" fill="#eec1bb"/>
            </g>
            <g id="Grupo_1026957" data-name="Grupo 1026957" transform="translate(28.679 53.587)">
              <path id="Trazado_724911" data-name="Trazado 724911" d="M537.535,265.584h0q-.581,4.189-1.5,8.966c5.206,17.37-5.5,51.271-5.5,51.271a5.67,5.67,0,0,1-4.228-.486c2.019-10.215.568-36.772-1-52.64-.139-1.439-.316-3.022-.5-4.713-.322-2.865-.707-6.02-1.117-9.281-.694-5.458-1.47-11.2-2.171-16.291-.858-6.152-1.6-11.357-1.987-13.976-.158-1.148-.252-1.8-.252-1.8l15.029,1.628s3.824,4.284,4.417,17.666A109.461,109.461,0,0,1,537.535,265.584Z" transform="translate(-519.275 -226.636)" fill="#eec1bb"/>
              <path id="Trazado_724912" data-name="Trazado 724912" d="M531.576,441.866h-.839l-.234-1.035-2.769,1.262H520.7s-1.117-1.123,2.233-2.013a2.811,2.811,0,0,0,.474-.183,19.738,19.738,0,0,0,4.322-3.666h3.855a5.506,5.506,0,0,1,.316.561A4.92,4.92,0,0,1,531.576,441.866Z" transform="translate(-519.941 -338.246)" fill="#263238"/>
              <path id="Trazado_724913" data-name="Trazado 724913" d="M535.191,435.818h0c-.511-.568-2.827,1.925-4.524,2.776-1.514.751-3.218,1.086-3.969.322,1.779-.839,4.587-4.492,4.587-4.492h3.1S535.007,435.452,535.191,435.818Z" transform="translate(-523.228 -337.283)" fill="#eec1bb"/>
            </g>
            <g id="Grupo_1026962" data-name="Grupo 1026962" transform="translate(18.766)">
              <path id="Trazado_724914" data-name="Trazado 724914" d="M548.651,136.718c-.772-.667-2.019-.411-3.08-.536a4.883,4.883,0,0,1-3.6-2.674,13.994,13.994,0,0,1-1.142-4.242,9.669,9.669,0,0,0-1.451-4.146c-.885-1.225-3.015-2.743-4.563-1.815l-2.073,3.213a97.27,97.27,0,0,1,3.028,11.453c.345,1.726.688,3.551,1.941,4.895a7.617,7.617,0,0,0,5.076,2.081,6.5,6.5,0,0,0,2.849-.358,2.93,2.93,0,0,0,1.831-1.9,1.892,1.892,0,0,0-1.172-2.164,6.034,6.034,0,0,0,2.347-1.444A1.7,1.7,0,0,0,548.651,136.718Z" transform="translate(-516.532 -117.874)" fill="#263238"/>
              <g id="Grupo_1026961" data-name="Grupo 1026961">
                <path id="Trazado_724915" data-name="Trazado 724915" d="M500.5,115.041a7.467,7.467,0,0,0-2.292,6.889c.8,2.47,2,4.1,3.131,6.437l4.014-16.035A10.186,10.186,0,0,0,500.5,115.041Z" transform="translate(-498.07 -112.183)" fill="#263238"/>
                <path id="Trazado_724916" data-name="Trazado 724916" d="M518.55,112.131c4.626.094,9.27,3.962,9.633,7.715s-3.328,8.6-4.02,8.893l-2.191.805s2.417-5.587,1.414-7.08-1.73-1.509-1.73-1.509Z" transform="translate(-508.976 -112.076)" fill="#263238"/>
                <path id="Trazado_724917" data-name="Trazado 724917" d="M506.033,112.957c2.406-1.7,5.249-.728,6.935,0a7.679,7.679,0,0,1,3.683,5.1c.368,2.017.813,4.463-.218,5.737a3.318,3.318,0,0,1-2.359,1.264l-11.654-7.389A11.83,11.83,0,0,1,506.033,112.957Z" transform="translate(-500.386 -112.012)" fill="#263238"/>
                <g id="Grupo_1026960" data-name="Grupo 1026960" transform="translate(2.056 1.433)">
                  <path id="Trazado_724918" data-name="Trazado 724918" d="M516.787,157.513c.912.652,1.564.26,2.511-.345,5.693-3.3,3.354-5.914,3.354-5.914-1.4-1.146-1.749-2.759-1.778-5.308a1.572,1.572,0,0,0-.03-.219,1.626,1.626,0,0,0-.471-.863,1.66,1.66,0,0,0-2.348-.013l0,0-2.585,1.276h0c0,.039,0,.078,0,.121.239,1.354.469,2.4.61,3.224a2.014,2.014,0,0,0,.048.3h0a1.593,1.593,0,0,0,.043.307c.141,1.143-1.471,3.153-2.179,3.69C513.535,154.13,513.7,155.319,516.787,157.513Z" transform="translate(-508.495 -130.677)" fill="#eec1bb"/>
                  <path id="Trazado_724919" data-name="Trazado 724919" d="M517.327,146.048h0a.4.4,0,0,1,0,.127c.239,1.353.468,2.4.61,3.224a2.057,2.057,0,0,1,.049.3h0a2.371,2.371,0,0,1,.019.321h0a10.676,10.676,0,0,0,4.682-4.362h0a1.7,1.7,0,0,0-.446-.862,1.665,1.665,0,0,0-2.349-.04Z" transform="translate(-510.379 -130.634)" opacity="0.2" style="isolation: isolate"/>
                  <path id="Trazado_724920" data-name="Trazado 724920" d="M515.2,120.546c.745,4.683,1.163,6.642-.592,9.579-2.644,4.411-8.416,4.415-10.536.072-1.875-3.916-2.8-10.9,1.208-13.84A6.215,6.215,0,0,1,515.2,120.546Z" transform="translate(-502.467 -115.077)" fill="#eec1bb"/>
                  <path id="Trazado_724921" data-name="Trazado 724921" d="M531.134,131.689a3.845,3.845,0,0,1-1.768,2.35c-1.137.636-2.3-1.155-2.214-2.49a2.541,2.541,0,0,1,2.331-2.337A1.828,1.828,0,0,1,531.134,131.689Z" transform="translate(-515.61 -122.602)" fill="#eec1bb"/>
                  <path id="Trazado_724922" data-name="Trazado 724922" d="M529.979,133.159a1.734,1.734,0,0,1,1.354-2.041" transform="translate(-517.1 -123.619)" fill="none" stroke="#000" stroke-linecap="round" stroke-linejoin="round" stroke-width="0.5" opacity="0.2"/>
                  <g id="Grupo_1026959" data-name="Grupo 1026959" transform="translate(0.139 5.924)">
                    <g id="Grupo_1026958" data-name="Grupo 1026958">
                      <path id="Trazado_724923" data-name="Trazado 724923" d="M516.2,132.585c.109.494-.046.966-.348,1.054s-.634-.24-.744-.734.046-.966.348-1.054S516.091,132.091,516.2,132.585Z" transform="translate(-509.319 -129.925)" fill="#263238"/>
                      <path id="Trazado_724924" data-name="Trazado 724924" d="M506.477,135.219c.105.479-.053.939-.354,1.027s-.629-.228-.734-.707.053-.938.354-1.026S506.371,134.74,506.477,135.219Z" transform="translate(-504.144 -131.342)" fill="#263238"/>
                      <path id="Trazado_724925" data-name="Trazado 724925" d="M516.112,128.448a.214.214,0,0,1-.178-.008,1.722,1.722,0,0,0-1.633-.013.216.216,0,0,1-.307-.081.255.255,0,0,1,.091-.33,2.149,2.149,0,0,1,2.065-.009.24.24,0,0,1,.091.321A.249.249,0,0,1,516.112,128.448Z" transform="translate(-508.729 -127.748)" fill="#263238"/>
                      <path id="Trazado_724926" data-name="Trazado 724926" d="M502.941,130.767a.178.178,0,0,1-.133-.072.255.255,0,0,1,.034-.327,1.97,1.97,0,0,1,1.834-.628.216.216,0,0,1,.129.279.224.224,0,0,1-.26.171,1.579,1.579,0,0,0-1.448.515A.208.208,0,0,1,502.941,130.767Z" transform="translate(-502.764 -128.789)" fill="#263238"/>
                      <path id="Trazado_724927" data-name="Trazado 724927" d="M509.355,134.844a16.207,16.207,0,0,1-.776,3.217.369.369,0,0,0,.315.5,2.364,2.364,0,0,0,1.24-.315Z" transform="translate(-505.847 -131.527)" fill="#d4827d"/>
                    </g>
                    <path id="Trazado_724928" data-name="Trazado 724928" d="M514.994,131.809l-1.126.037S514.66,132.478,514.994,131.809Z" transform="translate(-508.677 -129.911)" fill="#263238"/>
                    <path id="Trazado_724929" data-name="Trazado 724929" d="M505.139,134.489l-1.125.036S504.806,135.158,505.139,134.489Z" transform="translate(-503.43 -131.338)" fill="#263238"/>
                  </g>
                </g>
                <path id="Trazado_724930" data-name="Trazado 724930" d="M512.953,121.631s-3.22-2.559-3.776-5.148c0,0-9.919-.379-7.541,7.69,0,0-3.357-6.74,4.221-9.321s11.038,7.3,8.153,11.488C513.99,126.306,514.949,123.238,512.953,121.631Z" transform="translate(-499.574 -113.299)" fill="#263238"/>
                <path id="Trazado_724931" data-name="Trazado 724931" d="M502.862,116.182a6.794,6.794,0,0,0-1.288,4.024c.185,1.015,1.7,1.5,1.7,1.5l1.284-2.52.354,1.944a6.251,6.251,0,0,0,4.6-4.855l-2.042-2.471S503.634,115.22,502.862,116.182Z" transform="translate(-499.936 -112.965)" fill="#263238"/>
              </g>
              <path id="Trazado_724932" data-name="Trazado 724932" d="M516.072,142.618a1.011,1.011,0,0,0,1.163-1.135" transform="translate(-507.656 -127.705)" fill="none" stroke="#263238" stroke-linecap="round" stroke-linejoin="round" stroke-width="0.5"/>
              <path id="Trazado_724933" data-name="Trazado 724933" d="M535.841,131.516s3.5-4.337.758-8.033a4.063,4.063,0,0,1,1.634,3.783A6.088,6.088,0,0,1,535.841,131.516Z" transform="translate(-518.183 -118.12)" opacity="0.2" style="isolation: isolate"/>
            </g>
            <path id="Trazado_724934" data-name="Trazado 724934" d="M524.757,283.544h0a46.608,46.608,0,0,1-12.732,2.4c-.322-2.865-.707-6.02-1.117-9.281-1.193,2.87-2.562,5.918-4.133,9.123a31.439,31.439,0,0,1-11.5-3.331c.8-6.373,1.987-13.3,3.155-19.4a18.814,18.814,0,0,1,5.111-2.064,22.7,22.7,0,0,1,5.212-.631,39.853,39.853,0,0,1,7.622.7,48.056,48.056,0,0,1,9.521,2.827A109.437,109.437,0,0,1,524.757,283.544Z" transform="translate(-477.818 -191.009)" opacity="0.2" style="isolation: isolate"/>
            <path id="Trazado_724935" data-name="Trazado 724935" d="M500.9,226.636h19.957l.542,2.574s7.332,10.146,3.616,35.447c0,0-16.058,1.855-31.181-1.388,0,0,3.394-25.995,6.94-34.481Z" transform="translate(-477.049 -173.049)" fill="#263238"/>
            <g id="Grupo_1026963" data-name="Grupo 1026963" transform="translate(18.907 21.218)">
              <path id="Trazado_724936" data-name="Trazado 724936" d="M522.267,181.922l1.419,10.613-21.878-.882c-.057-2.28,1.977-8.331,1.741-9.985-.664-2.044-4.025-5.128-4.92-7.6-.954-3.429,1.016-12.858,1.659-13.157.779-.362,1.749-.33,2.347-.592,2.322-.547,7.605-2.433,9.973-2.728.458-.043.913-.126,1.366-.178,0,0,8.951-.431,9.347,3.211A80.238,80.238,0,0,0,522.267,181.922Z" transform="translate(-498.373 -157.399)" fill="#407bff"/>
              <path id="Trazado_724937" data-name="Trazado 724937" d="M538.715,191.441l-.178-2.907-3.316-9.029,2.6,10.631-8.233,2.884Z" transform="translate(-514.994 -169.171)" opacity="0.2" style="isolation: isolate"/>
              <path id="Trazado_724938" data-name="Trazado 724938" d="M528.732,219.25a30.844,30.844,0,0,0,2.891-2.86l7.431.281-.359-2.687c.221-.174-8.684.232-8.684.232l-1.279,2.773Z" transform="translate(-514.539 -187.507)" opacity="0.2" style="isolation: isolate"/>
              <path id="Trazado_724939" data-name="Trazado 724939" d="M536.828,159.173c.383.048,1.939-.833,4.747,2.774s5.958,17.361,6.135,19.368a3.59,3.59,0,0,1-3.166,4.084,134.78,134.78,0,0,1-14.458,1.008v-4.32l9.357-2.118s-5.31-12.783-4.472-16.076A15.29,15.29,0,0,1,536.828,159.173Z" transform="translate(-515.261 -158.311)" fill="#407bff"/>
            </g>
            <path id="Trazado_724940" data-name="Trazado 724940" d="M521.116,157.361a9.508,9.508,0,0,1-7.038,7.486,4.554,4.554,0,0,1-3.689-1.228,5.5,5.5,0,0,1-1.906-3.34C512.887,158.543,516.876,157.054,521.116,157.361Z" transform="translate(-484.85 -136.139)" fill="#eec1bb"/>
            <path id="Trazado_724941" data-name="Trazado 724941" d="M549.863,203.092a2.913,2.913,0,0,1,2.166.743,1.9,1.9,0,0,0-2.375-1.255Z" transform="translate(-506.773 -160.215)" opacity="0.2" style="isolation: isolate"/>
          </g>
          <g id="Grupo_1026978" data-name="Grupo 1026978" transform="translate(275.681 118.226)">
            <path id="Trazado_724942" data-name="Trazado 724942" d="M468.834,208.152v-48.17h-48.1v19.246a10.888,10.888,0,0,0,4.587.227c1.518-.566.527-2.315,1.993-3.005,2.163-1.018,4.857.417,5.991,2.521a8.363,8.363,0,0,1,0,7.8c-1.133,2.1-3.828,3.539-5.991,2.521-1.466-.69-.273-2.4-1.792-2.962a11.826,11.826,0,0,0-4.788.183v21.642h21.51a3.4,3.4,0,0,1-.194,1.385c-.566,1.518-2.179,2.422-2.87,3.887-1.018,2.163.417,4.857,2.522,5.991a8.366,8.366,0,0,0,7.8,0c2.1-1.134,3.54-3.828,2.522-5.991-.69-1.466-2.3-2.369-2.87-3.887a3.4,3.4,0,0,1-.194-1.385Z" transform="translate(-420.732 -159.982)" fill="#407bff"/>
            <g id="Grupo_1026971" data-name="Grupo 1026971" transform="translate(2.388)">
              <path id="Trazado_724943" data-name="Trazado 724943" d="M473.942,208.152v-48.17h-48.1v19.246a3.826,3.826,0,0,0,2.693.091c1.518-.566,2.421-2.179,3.887-2.87,2.163-1.018,4.857.417,5.991,2.521a8.367,8.367,0,0,1,0,7.8c-1.134,2.1-3.828,3.539-5.991,2.521-1.466-.69-2.369-2.3-3.887-2.87a3.825,3.825,0,0,0-2.693.091v21.642h21.51a3.412,3.412,0,0,1-.194,1.385c-.566,1.518-2.179,2.422-2.87,3.887-1.018,2.163.417,4.857,2.521,5.991a8.367,8.367,0,0,0,7.8,0c2.1-1.134,3.539-3.828,2.521-5.991-.69-1.466-2.3-2.369-2.87-3.887a3.411,3.411,0,0,1-.194-1.385Z" transform="translate(-425.84 -159.982)" fill="#407bff"/>
              <path id="Trazado_724944" data-name="Trazado 724944" d="M473.942,208.152v-48.17h-48.1v19.246a3.826,3.826,0,0,0,2.693.091c1.518-.566,2.421-2.179,3.887-2.87,2.163-1.018,4.857.417,5.991,2.521a8.367,8.367,0,0,1,0,7.8c-1.134,2.1-3.828,3.539-5.991,2.521-1.466-.69-2.369-2.3-3.887-2.87a3.825,3.825,0,0,0-2.693.091v21.642h21.51a3.412,3.412,0,0,1-.194,1.385c-.566,1.518-2.179,2.422-2.87,3.887-1.018,2.163.417,4.857,2.521,5.991a8.367,8.367,0,0,0,7.8,0c2.1-1.134,3.539-3.828,2.521-5.991-.69-1.466-2.3-2.369-2.87-3.887a3.411,3.411,0,0,1-.194-1.385Z" transform="translate(-425.84 -159.982)" fill="#fff" opacity="0.3"/>
              <g id="Grupo_1026970" data-name="Grupo 1026970" transform="translate(44.036 20.852)">
                <g id="Grupo_1026969" data-name="Grupo 1026969">
                  <g id="Grupo_1026965" data-name="Grupo 1026965">
                    <path id="Trazado_724945" data-name="Trazado 724945" d="M524.1,207.147s-3.229.807-3.582,1.567.841.7.841.7-1.31.145-1.324.71c-.016.677,1.235.611,1.235.611s-1.065.162-1.043.665c.022.522,1.44.547,1.44.547s-.729.256-.516.6,3.221.453,4.107-.11.889-4.428.716-5.271-.812-1.3-1.872-2.579v2.561Z" transform="translate(-520.035 -204.586)" fill="#eec1bb"/>
                  </g>
                  <g id="Grupo_1026966" data-name="Grupo 1026966" transform="translate(1.268 4.404)">
                    <path id="Trazado_724946" data-name="Trazado 724946" d="M522.807,214.5h.005l2.273-.362a.062.062,0,0,0,.047-.072.059.059,0,0,0-.064-.054l-2.272.362a.062.062,0,0,0-.047.072A.059.059,0,0,0,522.807,214.5Z" transform="translate(-522.748 -214.007)" opacity="0.2"/>
                  </g>
                  <g id="Grupo_1026967" data-name="Grupo 1026967" transform="translate(1.244 5.91)">
                    <path id="Trazado_724947" data-name="Trazado 724947" d="M522.755,217.528h0l2.21-.174a.064.064,0,0,0-.009-.126l-2.21.174a.06.06,0,0,0-.051.067A.059.059,0,0,0,522.755,217.528Z" transform="translate(-522.696 -217.228)" opacity="0.2"/>
                  </g>
                  <g id="Grupo_1026968" data-name="Grupo 1026968" transform="translate(1.651 7.213)">
                    <path id="Trazado_724948" data-name="Trazado 724948" d="M523.625,220.224l1.646-.082a.064.064,0,0,0-.007-.127l-1.646.082a.06.06,0,0,0-.052.066A.059.059,0,0,0,523.625,220.224Z" transform="translate(-523.566 -220.015)" opacity="0.2"/>
                  </g>
                </g>
              </g>
            </g>
            <g id="Grupo_1026977" data-name="Grupo 1026977" transform="translate(11.836 20.331)">
              <g id="Grupo_1026976" data-name="Grupo 1026976">
                <g id="Grupo_1026972" data-name="Grupo 1026972">
                  <path id="Trazado_724949" data-name="Trazado 724949" d="M447.782,205.279s3.458.966,3.811,1.726-.841.7-.841.7,1.31.145,1.324.709c.016.678-1.235.611-1.235.611s1.065.162,1.044.665c-.022.522-1.44.547-1.44.547s.728.256.516.6-3.221.453-4.106-.11-.889-4.428-.717-5.271.243-.7,1.3-1.985l.193.717a3.425,3.425,0,0,1,.1.6Z" transform="translate(-446.05 -203.471)" fill="#eec1bb"/>
                </g>
                <g id="Grupo_1026973" data-name="Grupo 1026973" transform="translate(2.374 3.81)">
                  <path id="Trazado_724950" data-name="Trazado 724950" d="M453.454,212.11h-.006l-2.272-.362a.062.062,0,0,1-.047-.072.059.059,0,0,1,.064-.054l2.272.361a.062.062,0,0,1,.047.072A.06.06,0,0,1,453.454,212.11Z" transform="translate(-451.129 -211.621)" opacity="0.2"/>
                </g>
                <g id="Grupo_1026974" data-name="Grupo 1026974" transform="translate(2.461 5.316)">
                  <path id="Trazado_724951" data-name="Trazado 724951" d="M453.577,215.143h0l-2.21-.174a.064.064,0,0,1,.009-.126l2.21.174a.064.064,0,0,1-.007.127Z" transform="translate(-451.314 -214.842)" opacity="0.2"/>
                </g>
                <g id="Grupo_1026975" data-name="Grupo 1026975" transform="translate(2.618 6.619)">
                  <path id="Trazado_724952" data-name="Trazado 724952" d="M453.35,217.838l-1.646-.082a.06.06,0,0,1-.053-.066.061.061,0,0,1,.059-.061l1.646.082a.06.06,0,0,1,.053.066A.06.06,0,0,1,453.35,217.838Z" transform="translate(-451.651 -217.629)" opacity="0.2"/>
                </g>
              </g>
            </g>
          </g>
          <g id="Grupo_1027004" data-name="Grupo 1027004" transform="translate(216.167 90.628)">
            <g id="Grupo_1026980" data-name="Grupo 1026980" transform="translate(0 144.581)">
              <path id="Trazado_724953" data-name="Trazado 724953" d="M298.181,422.622l4.774.467L306.483,411l-7.263-.791Z" transform="translate(-295.96 -410.212)" fill="#eec1bb"/>
              <g id="Grupo_1026979" data-name="Grupo 1026979" transform="translate(0 9.989)">
                <path id="Trazado_724954" data-name="Trazado 724954" d="M301.117,433.248h-1.7a1.209,1.209,0,0,0-.97.506c-.983,1.343-1.722.835-2.791-.427-.68-.079-.863.7-.918.91l-1.274,4.635a.729.729,0,0,0,.712.929h13.5c2.148,0,2.593-2.165,1.708-2.365-3.978-.879-6.8-2.05-8.026-3.208C301.13,434.027,301.365,433.876,301.117,433.248Z" transform="translate(-293.43 -432.468)" fill="#263238"/>
                <path id="Trazado_724955" data-name="Trazado 724955" d="M314.575,434.994a.7.7,0,0,0,.289-.556.313.313,0,0,0-.139-.3c-.534-.378-2.666.618-2.9.735a.094.094,0,0,0,0,.178,7.761,7.761,0,0,0,1.6.206A1.9,1.9,0,0,0,314.575,434.994Zm.017-.7a.123.123,0,0,1,.056.128.557.557,0,0,1-.211.406,3.675,3.675,0,0,1-2.281.089C313.039,434.532,314.3,434.093,314.591,434.3Z" transform="translate(-303.19 -432.896)" fill="#407bff"/>
                <path id="Trazado_724956" data-name="Trazado 724956" d="M311.876,433.755c.64-.267,1.981-1.319,1.909-1.875-.011-.117-.095-.256-.384-.3-1.169-.133-1.669,1.964-1.669,2.053a.1.1,0,0,0,.028.1.117.117,0,0,0,.067,0Zm1.486-2c.217.022.217.1.217.128.061.339-.912,1.213-1.608,1.58.144-.49.573-1.714,1.313-1.714Z" transform="translate(-303.173 -431.579)" fill="#407bff"/>
                <path id="Trazado_724957" data-name="Trazado 724957" d="M310.754,436.062a2.067,2.067,0,0,0-1.448.932" transform="translate(-301.884 -433.966)" fill="none" stroke="#407bff" stroke-linecap="round" stroke-linejoin="round" stroke-width="0.5"/>
                <path id="Trazado_724958" data-name="Trazado 724958" d="M313.02,437.767a2.068,2.068,0,0,0-1.448.933" transform="translate(-303.091 -434.874)" fill="none" stroke="#407bff" stroke-linecap="round" stroke-linejoin="round" stroke-width="0.5"/>
                <path id="Trazado_724959" data-name="Trazado 724959" d="M315.839,439.2a2.066,2.066,0,0,0-1.448.932" transform="translate(-304.592 -435.638)" fill="none" stroke="#407bff" stroke-linecap="round" stroke-linejoin="round" stroke-width="0.5"/>
              </g>
              <path id="Trazado_724960" data-name="Trazado 724960" d="M305.058,424.889l-.433,1.482-5.619-.863.1-1.215Z" transform="translate(-296.4 -417.71)" opacity="0.3"/>
            </g>
            <g id="Grupo_1026982" data-name="Grupo 1026982" transform="translate(27.791 144.581)">
              <path id="Trazado_724961" data-name="Trazado 724961" d="M357.625,422.622l4.774.467L365.927,411l-7.263-.791Z" transform="translate(-355.405 -410.212)" fill="#eec1bb"/>
              <g id="Grupo_1026981" data-name="Grupo 1026981" transform="translate(0 9.989)">
                <path id="Trazado_724962" data-name="Trazado 724962" d="M360.561,433.248h-1.7a1.21,1.21,0,0,0-.971.506c-.983,1.343-1.721.835-2.791-.427-.68-.079-.863.7-.918.91l-1.274,4.635a.729.729,0,0,0,.712.929h13.5c2.148,0,2.593-2.165,1.708-2.365-3.978-.879-6.8-2.05-8.025-3.208C360.575,434.027,360.809,433.876,360.561,433.248Z" transform="translate(-352.875 -432.468)" fill="#263238"/>
                <path id="Trazado_724963" data-name="Trazado 724963" d="M374.019,434.994a.7.7,0,0,0,.289-.556.313.313,0,0,0-.139-.3c-.534-.378-2.665.618-2.9.735a.094.094,0,0,0,0,.178,7.761,7.761,0,0,0,1.6.206A1.9,1.9,0,0,0,374.019,434.994Zm.016-.7a.123.123,0,0,1,.056.128.558.558,0,0,1-.212.406,3.675,3.675,0,0,1-2.281.089C372.483,434.532,373.741,434.093,374.035,434.3Z" transform="translate(-362.634 -432.896)" fill="#407bff"/>
                <path id="Trazado_724964" data-name="Trazado 724964" d="M371.321,433.755c.64-.267,1.981-1.319,1.908-1.875-.011-.117-.094-.256-.384-.3-1.168-.133-1.669,1.964-1.669,2.053a.1.1,0,0,0,.028.1.117.117,0,0,0,.067,0Zm1.486-2c.217.022.217.1.217.128.061.339-.913,1.213-1.608,1.58.145-.49.573-1.714,1.313-1.714Z" transform="translate(-362.618 -431.579)" fill="#407bff"/>
                <path id="Trazado_724965" data-name="Trazado 724965" d="M370.2,436.062a2.065,2.065,0,0,0-1.447.932" transform="translate(-361.329 -433.966)" fill="none" stroke="#407bff" stroke-linecap="round" stroke-linejoin="round" stroke-width="0.5"/>
                <path id="Trazado_724966" data-name="Trazado 724966" d="M372.464,437.767a2.066,2.066,0,0,0-1.447.933" transform="translate(-362.536 -434.874)" fill="none" stroke="#407bff" stroke-linecap="round" stroke-linejoin="round" stroke-width="0.5"/>
                <path id="Trazado_724967" data-name="Trazado 724967" d="M375.283,439.2a2.064,2.064,0,0,0-1.447.932" transform="translate(-364.037 -435.638)" fill="none" stroke="#407bff" stroke-linecap="round" stroke-linejoin="round" stroke-width="0.5"/>
              </g>
              <path id="Trazado_724968" data-name="Trazado 724968" d="M364.5,424.889l-.433,1.482-5.619-.863.1-1.215Z" transform="translate(-355.845 -417.71)" opacity="0.3"/>
            </g>
            <g id="Grupo_1026990" data-name="Grupo 1026990" transform="translate(2.111 60.884)">
              <g id="Grupo_1026989" data-name="Grupo 1026989">
                <g id="Grupo_1026985" data-name="Grupo 1026985" transform="translate(19.572 5.022)">
                  <g id="Grupo_1026984" data-name="Grupo 1026984">
                    <g id="Grupo_1026983" data-name="Grupo 1026983">
                      <path id="Trazado_724969" data-name="Trazado 724969" d="M358.343,241.924s3.957,17.474,5.843,32.694a50.051,50.051,0,0,1-.331,15.409l-7.626,37.915-9.6-.961c1.508-16.352,3.61-36.521,4.212-45.1-2.111-10.055-6.609-22.227-11.032-34.333Z" transform="translate(-339.811 -241.924)" fill="#3076b6"/>
                    </g>
                  </g>
                </g>
                <g id="Grupo_1026988" data-name="Grupo 1026988" transform="translate(19.572 5.022)" opacity="0.2" style="isolation: isolate">
                  <g id="Grupo_1026987" data-name="Grupo 1026987">
                    <g id="Grupo_1026986" data-name="Grupo 1026986">
                      <path id="Trazado_724970" data-name="Trazado 724970" d="M358.343,241.924s3.957,17.474,5.843,32.694a50.051,50.051,0,0,1-.331,15.409l-7.626,37.915-9.6-.961c1.508-16.352,3.61-36.521,4.212-45.1-2.111-10.055-6.609-22.227-11.032-34.333Z" transform="translate(-339.811 -241.924)" fill="#3076b6"/>
                    </g>
                  </g>
                </g>
                <path id="Trazado_724971" data-name="Trazado 724971" d="M304.514,279.213c.217-.946.564-2.867.989-5.4l-.04-.009c.312-3.351.889-18.891,1.949-28.8.814-6.314,2.428-10.586,4.053-12.678.084-.108.161-.205.23-.292.27-.337.434-.523.434-.523q.463.116.921.216l.341.073a48.694,48.694,0,0,0,21.567-.617c1.056,2.608,1.845,8.169,2.615,13.936-1.2,1.316-6.466,3.025-12.507,4.157l-1.723,7.791c-.906,4.831-2.071,9.569-3.059,13.835l-1.033,4.672c-.063.307-.124.611-.183.909-.524,2.686-13,45.967-13,45.967l-8.127-.476S301.575,292.018,304.514,279.213Z" transform="translate(-297.945 -231.181)" fill="#3076b6"/>
                <path id="Trazado_724972" data-name="Trazado 724972" d="M304.514,279.213c.217-.946.564-2.867.989-5.4l-.04-.009c.312-3.351.889-18.891,1.949-28.8.814-6.314,2.428-10.586,4.053-12.678.084-.108.161-.205.23-.292.27-.337.434-.523.434-.523q.463.116.921.216l.341.073a48.694,48.694,0,0,0,21.567-.617c1.056,2.608,1.845,8.169,2.615,13.936-1.2,1.316-6.466,3.025-12.507,4.157l-1.723,7.791c-.906,4.831-2.071,9.569-3.059,13.835l-1.033,4.672c-.063.307-.124.611-.183.909-.524,2.686-13,45.967-13,45.967l-8.127-.476S301.575,292.018,304.514,279.213Z" transform="translate(-297.945 -231.181)" fill="#3076b6" opacity="0.2" style="isolation: isolate"/>
              </g>
              <path id="Trazado_724973" data-name="Trazado 724973" d="M352.037,272.732c-.032.159,3.721-13.484,3.721-13.484s3.16,12.18-1.648,19.8Z" transform="translate(-326.749 -246.127)" fill="#3076b6" opacity="0.2" style="isolation: isolate"/>
            </g>
            <g id="Grupo_1026993" data-name="Grupo 1026993" transform="translate(16.665)">
              <path id="Trazado_724974" data-name="Trazado 724974" d="M334.762,144.519s1.909,1.467,4.366,3.585a9.1,9.1,0,0,0,1.672,1.14c1.611.856,3.078,1.345,3.476.568a2.643,2.643,0,0,0,.207-.55c.338-1.3.2-3.128-.852-3.964-1.185-.943-1.756-1.75-1.542-3.026a9.565,9.565,0,0,1,.68-2.2l-.932-1.09-4.877-4.921C337.082,137.35,337.33,142.735,334.762,144.519Z" transform="translate(-332.104 -118.582)" fill="#eec1bb"/>
              <path id="Trazado_724975" data-name="Trazado 724975" d="M347.33,146.011c-1.341-.8-2.813-2.177-2.636-3.755a7.36,7.36,0,0,1,.381-1.7l2.724,3.606A9.082,9.082,0,0,0,347.33,146.011Z" transform="translate(-337.385 -122.041)" opacity="0.2"/>
              <path id="Trazado_724976" data-name="Trazado 724976" d="M336.475,114.579c.459,5.011.547,7.135,3.133,9.763,3.889,3.951,9.872,2.622,10.9-2.344.927-4.47.021-11.913-4.9-14.018A6.445,6.445,0,0,0,336.475,114.579Z" transform="translate(-333 -104.377)" fill="#eec1bb"/>
              <path id="Trazado_724977" data-name="Trazado 724977" d="M349.858,125.2c.026.469.314.855.644.862s.575-.367.549-.837-.314-.855-.644-.862S349.832,124.727,349.858,125.2Z" transform="translate(-340.142 -113.415)" fill="#263238"/>
              <path id="Trazado_724978" data-name="Trazado 724978" d="M360.965,125.075c.026.454.314.828.642.835s.574-.356.547-.811-.314-.828-.642-.835S360.938,124.62,360.965,125.075Z" transform="translate(-346.056 -113.364)" fill="#263238"/>
              <path id="Trazado_724979" data-name="Trazado 724979" d="M347.892,121.1a.225.225,0,0,0,.178-.057,1.806,1.806,0,0,1,1.651-.461.226.226,0,0,0,.289-.167.268.268,0,0,0-.183-.309,2.255,2.255,0,0,0-2.094.558.251.251,0,0,0,0,.35A.259.259,0,0,0,347.892,121.1Z" transform="translate(-338.972 -111.117)" fill="#263238"/>
              <path id="Trazado_724980" data-name="Trazado 724980" d="M362.22,119.924a.229.229,0,0,0,.176-.026.244.244,0,0,0,.064-.339,2.582,2.582,0,0,0-1.913-1.26.225.225,0,0,0-.237.235.267.267,0,0,0,.245.26,2.066,2.066,0,0,1,1.5,1.014A.262.262,0,0,0,362.22,119.924Z" transform="translate(-345.709 -110.187)" fill="#263238"/>
              <path id="Trazado_724981" data-name="Trazado 724981" d="M334.687,117.255s1.546-2.337.909-6.888a1.439,1.439,0,0,1,1.132-1.632c2.161-.42,5.051-3.147,8.578,2.269,0,0-1.682-6.488-11.527-3.874-8.761,2.326-2.763,9.752-1.859,10.516S334.687,117.255,334.687,117.255Z" transform="translate(-329.077 -103.91)" fill="#263238"/>
              <path id="Trazado_724982" data-name="Trazado 724982" d="M332.9,128.075a4.032,4.032,0,0,0,2.435,1.894c1.326.333,2.011-1.8,1.558-3.128a2.666,2.666,0,0,0-3-1.727A1.918,1.918,0,0,0,332.9,128.075Z" transform="translate(-330.937 -113.79)" fill="#eec1bb"/>
              <g id="Grupo_1026991" data-name="Grupo 1026991" transform="translate(9.905 15.09)">
                <path id="Trazado_724983" data-name="Trazado 724983" d="M354,134.742a14.159,14.159,0,0,0-.9,1.844c-.118-.024-.237-.049-.353-.079-1.6-.374-2.212-1.074-2.412-1.737a2.111,2.111,0,0,1-.032-1,2.046,2.046,0,0,1,.176-.544,7.725,7.725,0,0,0,2.978,1.38C353.793,134.7,354,134.742,354,134.742Z" transform="translate(-350.264 -133.226)" fill="#263238"/>
                <path id="Trazado_724984" data-name="Trazado 724984" d="M353.514,134.606l-.279.537c-1.5-.355-2.511-.807-2.875-1.373a2.046,2.046,0,0,1,.176-.544A7.725,7.725,0,0,0,353.514,134.606Z" transform="translate(-350.315 -133.226)" fill="#fff"/>
                <path id="Trazado_724985" data-name="Trazado 724985" d="M352.841,138.265c-1.6-.374-2.212-1.074-2.412-1.737a5.262,5.262,0,0,1,1.689.766A1.974,1.974,0,0,1,352.841,138.265Z" transform="translate(-350.352 -134.984)" fill="#dc5753"/>
              </g>
              <path id="Trazado_724986" data-name="Trazado 724986" d="M358.086,125.705a17,17,0,0,0,1.668,3.044.387.387,0,0,1-.181.591,2.479,2.479,0,0,1-1.343.022Z" transform="translate(-344.524 -114.131)" fill="#d4827d"/>
              <path id="Trazado_724987" data-name="Trazado 724987" d="M350.82,124.027l1.15-.272S351.341,124.612,350.82,124.027Z" transform="translate(-340.655 -113.093)" fill="#263238"/>
              <path id="Trazado_724988" data-name="Trazado 724988" d="M361.884,123.98l1.15-.272S362.405,124.566,361.884,123.98Z" transform="translate(-346.547 -113.068)" fill="#263238"/>
              <g id="Grupo_1026992" data-name="Grupo 1026992" transform="translate(2.806)">
                <path id="Trazado_724989" data-name="Trazado 724989" d="M349.379,110.162s3.035-3.589,1.01-6.549c-.761-1.112-2.158-1.278-3.39-1.821-2.845-1.253-5.151-1.506-8.782,2.052-3.777,3.7-4.46,4.949-.294,9.51,0,0-.45-.6,1.091-1.953s3.24-2.564,2.415-3.88a2.211,2.211,0,0,1,1.373,1.712l2.252-.615a4.264,4.264,0,0,0-.694-1.742,4.017,4.017,0,0,1,1.546,1.7l1.949.367a6.762,6.762,0,0,0-.836-2.43A11.391,11.391,0,0,1,349.379,110.162Z" transform="translate(-335.079 -100.948)" fill="#263238"/>
              </g>
            </g>
            <path id="Trazado_724990" data-name="Trazado 724990" d="M337.484,129.145a1.97,1.97,0,0,0-1.889-1.8" transform="translate(-315.883 -115.007)" fill="none" stroke="#000" stroke-linecap="round" stroke-linejoin="round" stroke-width="0.5" opacity="0.2"/>
            <g id="Grupo_1027000" data-name="Grupo 1027000" transform="translate(9.534 23.55)">
              <g id="Grupo_1026994" data-name="Grupo 1026994" transform="translate(0 1.995)">
                <path id="Trazado_724991" data-name="Trazado 724991" d="M372.909,188.854a7.2,7.2,0,0,1-.8-.719c-.213-.223-.361-.511-.309-.511a.868.868,0,0,0-.039-.094l-.09-.208-.219-.561c-.148-.4-.29-.841-.432-1.287-.3-.884-.574-1.805-.845-2.733-.548-1.863-1.071-3.747-1.6-5.638l-.97-3.965c-.141-.642-.359-1.578-.648-2.647v0h0c-.789-2.913-2.108-6.8-3.832-8.342-2.676-2.048-4.385.479-5.486,3.1-1.057,2.521,1.552,9.409,1.552,9.409l3.179-.23c.4,1.466.823,2.924,1.239,4.412.541,1.942,1.187,3.847,1.832,5.753.329.957.67,1.913,1.044,2.877.22.489.419.971.645,1.482.11.251.232.518.367.784l.239.446a4.563,4.563,0,0,0,.335.532,5.261,5.261,0,0,0,1.7,1.439,7.262,7.262,0,0,0,1.574.654,9.48,9.48,0,0,0,3.038.367l.574-2.776C374.277,189.89,373.522,189.358,372.909,188.854Z" transform="translate(-337.021 -158.683)" fill="#263238"/>
                <path id="Trazado_724992" data-name="Trazado 724992" d="M372.909,188.854a7.2,7.2,0,0,1-.8-.719c-.213-.223-.361-.511-.309-.511a.868.868,0,0,0-.039-.094l-.09-.208-.219-.561c-.148-.4-.29-.841-.432-1.287-.3-.884-.574-1.805-.845-2.733-.548-1.863-1.071-3.747-1.6-5.638l-.97-3.965c-.141-.642-.359-1.578-.648-2.647v0h0c-.789-2.913-2.108-6.8-3.832-8.342-2.676-2.048-4.385.479-5.486,3.1-1.057,2.521,1.552,9.409,1.552,9.409l3.179-.23c.4,1.466.823,2.924,1.239,4.412.541,1.942,1.187,3.847,1.832,5.753.329.957.67,1.913,1.044,2.877.22.489.419.971.645,1.482.11.251.232.518.367.784l.239.446a4.563,4.563,0,0,0,.335.532,5.261,5.261,0,0,0,1.7,1.439,7.262,7.262,0,0,0,1.574.654,9.48,9.48,0,0,0,3.038.367l.574-2.776C374.277,189.89,373.522,189.358,372.909,188.854Z" transform="translate(-337.021 -158.683)" fill="#fff" opacity="0.5"/>
                <path id="Trazado_724993" data-name="Trazado 724993" d="M370.745,172.572a10.289,10.289,0,0,1,1.058,2.5c.337,1.057.718,6.766-1.209,8.453v-3.958C370.664,177.139,370.675,175,370.745,172.572Z" transform="translate(-344.054 -164.632)" opacity="0.3"/>
                <path id="Trazado_724994" data-name="Trazado 724994" d="M316.808,170.749l-2.985-10.177c1.888-2.818,11.23-4.983,11.23-4.983l4.788,1.68,1.367-1.344s2.365.527,4.391,1.188c2.7.882,4.165,1.591,4.81,3.091,0,0,1.128,3.324.45,10.173a111.75,111.75,0,0,0,.551,14.91l3.186,10.083c-11.245,8.757-26.987.579-26.987.579.505-1.546,2.19-6.294,2.418-7.806-.165-1.928.065-4.9-.752-8.277C319.117,179.216,317.081,171.382,316.808,170.749Z" transform="translate(-313.823 -155.589)" fill="#263238"/>
                <path id="Trazado_724995" data-name="Trazado 724995" d="M316.808,170.749l-2.985-10.177c1.888-2.818,11.23-4.983,11.23-4.983l4.788,1.68,1.367-1.344s2.365.527,4.391,1.188c2.7.882,4.165,1.591,4.81,3.091,0,0,1.128,3.324.45,10.173a111.75,111.75,0,0,0,.551,14.91l3.186,10.083c-11.245,8.757-26.987.579-26.987.579.505-1.546,2.19-6.294,2.418-7.806-.165-1.928.065-4.9-.752-8.277C319.117,179.216,317.081,171.382,316.808,170.749Z" transform="translate(-313.823 -155.589)" fill="#fff" opacity="0.5"/>
              </g>
              <path id="Trazado_724996" data-name="Trazado 724996" d="M393.285,202.138a9,9,0,0,1,7.831-8.184l-.863,1.439,1.647-.978-7.551,9.471Z" transform="translate(-356.136 -174.024)" fill="#407bff"/>
              <path id="Trazado_724997" data-name="Trazado 724997" d="M393.285,202.138a9,9,0,0,1,7.831-8.184l-.863,1.439,1.647-.978-7.551,9.471Z" transform="translate(-356.136 -174.024)" fill="#fff" opacity="0.8" style="isolation: isolate"/>
              <path id="Trazado_724998" data-name="Trazado 724998" d="M358.5,194.741l2.6-.079,12.426,4.214-11.326,17.3-11.146-2.783a1.194,1.194,0,0,1-.832-1.469,1.215,1.215,0,0,1,.112-.271l4.5-8.14a.533.533,0,0,0,0-.518l-.611-1.086a.718.718,0,0,1,0-.719l3.02-5.66A1.541,1.541,0,0,1,358.5,194.741Z" transform="translate(-333.18 -174.401)" fill="#407bff"/>
              <path id="Trazado_724999" data-name="Trazado 724999" d="M387.214,198.5l7.076-4.545-11.635,17.287-6.767,4.559Z" transform="translate(-346.873 -174.024)" fill="#407bff"/>
              <path id="Trazado_725000" data-name="Trazado 725000" d="M387.214,198.5l7.076-4.545-11.635,17.287-6.767,4.559Z" transform="translate(-346.873 -174.024)" opacity="0.2" style="isolation: isolate"/>
              <g id="Grupo_1026999" data-name="Grupo 1026999" transform="translate(34.063 31.392)">
                <g id="Grupo_1026995" data-name="Grupo 1026995">
                  <path id="Trazado_725001" data-name="Trazado 725001" d="M391.574,219.594s-2.75-.721-3.354-.249.223.92.223.92-.947-.426-1.229.028c-.339.545.53,1.01.53,1.01s-.791-.31-1.02.108c-.237.434.7,1.043.7,1.043s-.611-.094-.634.272,1.935,1.7,2.8,1.614,2.738-3.235,3.031-3.993a1.537,1.537,0,0,0-.293-1.876l-.751,1.123Z" transform="translate(-386.684 -218.471)" fill="#eec1bb"/>
                </g>
                <g id="Grupo_1026996" data-name="Grupo 1026996" transform="translate(1.71 1.737)">
                  <path id="Trazado_725002" data-name="Trazado 725002" d="M390.362,222.3l0,0,1.7.648a.058.058,0,0,0,.066-.039c.014-.03.006-.063-.016-.071l-1.7-.648a.058.058,0,0,0-.066.039A.051.051,0,0,0,390.362,222.3Z" transform="translate(-390.342 -222.185)" opacity="0.2"/>
                </g>
                <g id="Grupo_1026997" data-name="Grupo 1026997" transform="translate(1.056 2.799)">
                  <path id="Trazado_725003" data-name="Trazado 725003" d="M388.963,224.568h0l1.562.776a.055.055,0,0,0,.067-.034.053.053,0,0,0-.012-.073l-1.562-.776a.055.055,0,0,0-.067.034A.053.053,0,0,0,388.963,224.568Z" transform="translate(-388.943 -224.458)" opacity="0.2"/>
                </g>
                <g id="Grupo_1026998" data-name="Grupo 1026998" transform="translate(0.741 3.954)">
                  <path id="Trazado_725004" data-name="Trazado 725004" d="M388.29,227.038l1.141.616c.021.012.051,0,.067-.032a.054.054,0,0,0-.01-.073l-1.141-.616a.063.063,0,0,0-.057.106Z" transform="translate(-388.27 -226.928)" opacity="0.2"/>
                </g>
              </g>
              <path id="Trazado_725005" data-name="Trazado 725005" d="M343.3,154.084l-2.075-2.01L340.17,155l-4.61-3.675-2.338,2.565,5.791,4.035,1.158-2.562,3.131,2.349Z" transform="translate(-324.153 -151.323)" fill="#263238"/>
              <path id="Trazado_725006" data-name="Trazado 725006" d="M343.56,157.23a29.708,29.708,0,0,1,0,3.625l-3.131-2.349-1.158,2.562-5.564-3.838,5.7,4.963,1.027-3.013,3.492,3.013Z" transform="translate(-324.411 -154.468)" opacity="0.3"/>
              <path id="Trazado_725007" data-name="Trazado 725007" d="M342.954,189.987,327,205.354v-3.037s14.357-13.151,14.531-13.17A8.642,8.642,0,0,1,342.954,189.987Z" transform="translate(-320.842 -171.464)" opacity="0.3"/>
              <path id="Trazado_725008" data-name="Trazado 725008" d="M326.72,185.429l-1.728-7.125-.342,8.27Z" transform="translate(-319.588 -165.69)" opacity="0.3"/>
            </g>
            <path id="Trazado_725009" data-name="Trazado 725009" d="M335.2,134.184a.958.958,0,1,0,.958-.958A.958.958,0,0,0,335.2,134.184Z" transform="translate(-315.673 -118.136)" fill="#407bff"/>
            <g id="Grupo_1027003" data-name="Grupo 1027003" transform="translate(6.021 30.527)">
              <g id="Grupo_1027001" data-name="Grupo 1027001">
                <path id="Trazado_725010" data-name="Trazado 725010" d="M309.822,166.247s-2.157,2.1-2.883,9.263c-.521,5.141-1.838,16.227,2.157,17.651s21.419-15.234,21.419-15.234l-2.828-4.855-12.8,7.083s1.305-11.743-.951-12.816A10.805,10.805,0,0,0,309.822,166.247Z" transform="translate(-306.309 -166.247)" fill="#263238"/>
                <path id="Trazado_725011" data-name="Trazado 725011" d="M309.822,166.247s-2.157,2.1-2.883,9.263c-.521,5.141-1.838,16.227,2.157,17.651s21.419-15.234,21.419-15.234l-2.828-4.855-12.8,7.083s1.305-11.743-.951-12.816A10.805,10.805,0,0,0,309.822,166.247Z" transform="translate(-306.309 -166.247)" fill="#fff" opacity="0.5"/>
              </g>
              <g id="Grupo_1027002" data-name="Grupo 1027002" transform="translate(21.773 0.568)">
                <path id="Trazado_725012" data-name="Trazado 725012" d="M353.581,173.358s1.681-3.366,2.478-3.514a2.781,2.781,0,0,1,1.44.118s5.432-3.2,5.794-2.358c.2.456-1.011,1.46-3.6,2.937,0,0,1.491.549.89,1.423a1.108,1.108,0,0,1,.512,1.594,1.428,1.428,0,0,1-.129,1.579,14.645,14.645,0,0,1-5.346,2.567c-1.728.254-2.736-3.105-2.736-3.105Z" transform="translate(-352.883 -167.462)" fill="#eec1bb"/>
              </g>
            </g>
          </g>
          <g id="Grupo_1027005" data-name="Grupo 1027005" transform="translate(221.38 192.683)">
            <path id="Trazado_725013" data-name="Trazado 725013" d="M346.21,350.357c1.466.69,2.369,2.3,3.887,2.87a3.812,3.812,0,0,0,2.653-.075V331.493H332.02a3.413,3.413,0,0,1,.194-1.385c.566-1.518,2.18-2.422,2.87-3.887,1.018-2.163-.417-4.857-2.521-5.991a8.363,8.363,0,0,0-7.8,0c-2.1,1.133-3.539,3.828-2.521,5.991.69,1.466,2.3,2.369,2.87,3.887a3.413,3.413,0,0,1,.194,1.385H304.58v48.17h48.17V360.4a3.815,3.815,0,0,0-2.653-.075c-1.518.566-2.427,2.167-3.887,2.87-1.947.937-4.848-.421-5.991-2.522a8.366,8.366,0,0,1,0-7.8C341.353,350.774,344.047,349.339,346.21,350.357Z" transform="translate(-304.58 -319.248)" fill="#407bff"/>
            <path id="Trazado_725014" data-name="Trazado 725014" d="M346.21,350.357c1.466.69,2.369,2.3,3.887,2.87a3.812,3.812,0,0,0,2.653-.075V331.493H332.02a3.413,3.413,0,0,1,.194-1.385c.566-1.518,2.18-2.422,2.87-3.887,1.018-2.163-.417-4.857-2.521-5.991a8.363,8.363,0,0,0-7.8,0c-2.1,1.133-3.539,3.828-2.521,5.991.69,1.466,2.3,2.369,2.87,3.887a3.413,3.413,0,0,1,.194,1.385H304.58v48.17h48.17V360.4a3.815,3.815,0,0,0-2.653-.075c-1.518.566-2.427,2.167-3.887,2.87-1.947.937-4.848-.421-5.991-2.522a8.366,8.366,0,0,1,0-7.8C341.353,350.774,344.047,349.339,346.21,350.357Z" transform="translate(-304.58 -319.248)" opacity="0.4"/>
            <path id="Trazado_725015" data-name="Trazado 725015" d="M351.262,350.357c1.466.69,2.369,2.3,3.887,2.87a3.812,3.812,0,0,0,2.653-.075V331.493H337.072a3.413,3.413,0,0,1,.194-1.385c.566-1.518,2.18-2.422,2.87-3.887,1.018-2.163-.417-4.857-2.521-5.991a8.363,8.363,0,0,0-7.8,0c-2.1,1.133-3.539,3.828-2.521,5.991.69,1.466,2.3,2.369,2.87,3.887a3.413,3.413,0,0,1,.194,1.385H309.632v48.17H357.8V360.4a3.815,3.815,0,0,0-2.653-.075c-1.518.566-2.427,2.167-3.887,2.87-1.947.937-4.848-.421-5.991-2.522a8.366,8.366,0,0,1,0-7.8C346.4,350.774,349.1,349.339,351.262,350.357Z" transform="translate(-307.27 -319.248)" fill="#4db1f0"/>
          </g>
          <path id="Trazado_725016" data-name="Trazado 725016" d="M395.56,410.705s1.668,2.989,4.533,2.74,3.465-1.495,3.465-1.495l-.04-4.11-6.392,2.447A2.01,2.01,0,0,1,395.56,410.705Z" transform="translate(-131.647 -173.74)" opacity="0.4"/>
          <g id="Grupo_1027036" data-name="Grupo 1027036" transform="translate(261.696 161.132)">
            <g id="Grupo_1027007" data-name="Grupo 1027007" transform="translate(61.534 29.808)">
              <g id="Grupo_1027006" data-name="Grupo 1027006">
                <path id="Trazado_725017" data-name="Trazado 725017" d="M522.442,336.117l16.465-6.327,9.5-9.214c.264-.306,3.02-5.058,3.02-5.058l4.665,9.992s-11.6,11.656-15.847,13.013c-3.434,1.1-15.59,4.075-15.59,4.075Z" transform="translate(-522.442 -315.518)" fill="#3076b6"/>
              </g>
              <path id="Trazado_725018" data-name="Trazado 725018" d="M544.032,357.9s1.985-7.782,6.423-9.4,10.174.92,10.01,1.029-4.97,4.583-5.134,4.638c-.122.041-6.231,2.194-9.392,3.238Z" transform="translate(-533.939 -332.792)" opacity="0.4"/>
            </g>
            <g id="Grupo_1027009" data-name="Grupo 1027009" transform="translate(0 44.045)">
              <g id="Grupo_1027008" data-name="Grupo 1027008">
                <path id="Trazado_725019" data-name="Trazado 725019" d="M432.553,345.971a3.411,3.411,0,0,0,.194,1.385c.566,1.518,2.179,2.422,2.87,3.887,1.018,2.163-.417,4.857-2.521,5.991a8.367,8.367,0,0,1-7.8,0c-2.1-1.134-3.54-3.828-2.521-5.991.69-1.466,2.3-2.369,2.87-3.887a3.412,3.412,0,0,0,.194-1.385h-21.47v21.642a3.825,3.825,0,0,1-2.693.091c-1.518-.566-2.421-2.179-3.887-2.87-2.163-1.019-4.857.417-5.991,2.521a8.366,8.366,0,0,0,0,7.8c1.134,2.1,3.828,3.54,5.991,2.522,1.466-.691,2.369-2.3,3.887-2.87a3.825,3.825,0,0,1,2.693.091v19.246l48,.215v-48.17Z" transform="translate(-390.819 -345.971)" fill="#263238"/>
                <path id="Trazado_725020" data-name="Trazado 725020" d="M432.553,345.971a3.411,3.411,0,0,0,.194,1.385c.566,1.518,2.179,2.422,2.87,3.887,1.018,2.163-.417,4.857-2.521,5.991a8.367,8.367,0,0,1-7.8,0c-2.1-1.134-3.54-3.828-2.521-5.991.69-1.466,2.3-2.369,2.87-3.887a3.412,3.412,0,0,0,.194-1.385h-21.47v21.642a3.825,3.825,0,0,1-2.693.091c-1.518-.566-2.421-2.179-3.887-2.87-2.163-1.019-4.857.417-5.991,2.521a8.366,8.366,0,0,0,0,7.8c1.134,2.1,3.828,3.54,5.991,2.522,1.466-.691,2.369-2.3,3.887-2.87a3.825,3.825,0,0,1,2.693.091v19.246l48,.215v-48.17Z" transform="translate(-390.819 -345.971)" opacity="0.4"/>
              </g>
              <path id="Trazado_725021" data-name="Trazado 725021" d="M437.1,345.971a3.4,3.4,0,0,0,.194,1.385c.566,1.518,2.179,2.422,2.87,3.887,1.018,2.163-.417,4.857-2.522,5.991a8.366,8.366,0,0,1-7.8,0c-2.1-1.134-3.54-3.828-2.521-5.991.69-1.466,2.3-2.369,2.87-3.887a3.411,3.411,0,0,0,.194-1.385h-21.47v21.642a3.825,3.825,0,0,1-2.693.091c-1.518-.566-2.421-2.179-3.887-2.87-2.163-1.019-4.857.417-5.991,2.521a8.366,8.366,0,0,0,0,7.8c1.134,2.1,3.828,3.54,5.991,2.522,1.466-.691,2.369-2.3,3.887-2.87a3.825,3.825,0,0,1,2.693.091v19.246l48,.215v-48.17Z" transform="translate(-393.239 -345.971)" fill="#263238"/>
            </g>
            <g id="Grupo_1027015" data-name="Grupo 1027015" transform="translate(66.74 45.512)">
              <g id="Grupo_1027014" data-name="Grupo 1027014" transform="translate(0 30.547)">
                <path id="Trazado_725022" data-name="Trazado 725022" d="M556.5,414.907l7.551-.457c-1.208,6.652-2.45,10.967-1.921,14.382l-3.043,2.035-2.818-2.771A75.923,75.923,0,0,1,556.5,414.907Z" transform="translate(-545.565 -414.45)" fill="#e9b376"/>
                <g id="Grupo_1027013" data-name="Grupo 1027013" transform="translate(0 8.978)">
                  <g id="Grupo_1027012" data-name="Grupo 1027012">
                    <g id="Grupo_1027011" data-name="Grupo 1027011">
                      <g id="Grupo_1027010" data-name="Grupo 1027010">
                        <path id="Trazado_725023" data-name="Trazado 725023" d="M543.824,433.654l2.744.032c1.327,2.3,2.246,1.757,3.653.136.8-.083,1,.832,1.062,1.078l1.428,5.443a.854.854,0,0,1-.847,1.078l-6.585-.078-9.222-.108c-2.514-.029-3.006-2.569-1.967-2.792,4.668-.974,7.983-2.306,9.437-3.644C543.8,434.566,543.525,434.385,543.824,433.654Z" transform="translate(-533.579 -433.654)" fill="#407bff"/>
                        <path id="Trazado_725024" data-name="Trazado 725024" d="M552.492,436.913a2.417,2.417,0,0,1,1.682,1.111" transform="translate(-543.65 -435.389)" fill="none" stroke="#263238" stroke-linecap="round" stroke-linejoin="round" stroke-width="0.5"/>
                        <path id="Trazado_725025" data-name="Trazado 725025" d="M549.816,438.878a2.418,2.418,0,0,1,1.682,1.111" transform="translate(-542.225 -436.436)" fill="none" stroke="#263238" stroke-linecap="round" stroke-linejoin="round" stroke-width="0.5"/>
                        <path id="Trazado_725026" data-name="Trazado 725026" d="M546.5,440.518a2.417,2.417,0,0,1,1.682,1.111" transform="translate(-540.457 -437.309)" fill="none" stroke="#263238" stroke-linecap="round" stroke-linejoin="round" stroke-width="0.5"/>
                      </g>
                    </g>
                  </g>
                  <path id="Trazado_725027" data-name="Trazado 725027" d="M552.226,448.332a.854.854,0,0,1-.248.03l-6.585-.078-9.222-.108a2.4,2.4,0,0,1-2.378-1.488c.382.008,18.708.365,18.95.286l.1.406A.85.85,0,0,1,552.226,448.332Z" transform="translate(-533.693 -440.595)" fill="#fff" opacity="0.7"/>
                </g>
              </g>
              <path id="Trazado_725028" data-name="Trazado 725028" d="M580.687,360.088s-20.621-10.649-24.635-10.952-7.853,1.871-8.62,10.185.767,29.695.767,29.695l11.123.191,1.379-24.77s17.227,12.584,17.738,12.456,7.236-.432,7.236-.432Z" transform="translate(-540.841 -349.109)" fill="#263238"/>
              <path id="Trazado_725029" data-name="Trazado 725029" d="M580.687,360.088s-20.621-10.649-24.635-10.952-7.853,1.871-8.62,10.185.767,29.695.767,29.695l11.123.191,1.379-24.77s17.227,12.584,17.738,12.456,7.236-.432,7.236-.432Z" transform="translate(-540.841 -349.109)" fill="#fff" opacity="0.3"/>
              <path id="Trazado_725030" data-name="Trazado 725030" d="M564.246,406.673s-9.087,3.183-9.184,10.677,7.918,6.068,7.918,6.068Z" transform="translate(-545.018 -379.762)" opacity="0.4"/>
            </g>
            <g id="Grupo_1027021" data-name="Grupo 1027021" transform="translate(78.371 60.55)">
              <g id="Grupo_1027020" data-name="Grupo 1027020" transform="translate(34.064 20.24)">
                <path id="Trazado_725031" data-name="Trazado 725031" d="M633.365,439.311l-2.044-7.432c7.146-.773,11.92.986,15.242-.582l2.991,2.49-1.976,3.708S642.311,439.285,633.365,439.311Z" transform="translate(-631.321 -428.152)" fill="#e9b376"/>
                <g id="Grupo_1027019" data-name="Grupo 1027019" transform="translate(9.807)">
                  <g id="Grupo_1027018" data-name="Grupo 1027018">
                    <g id="Grupo_1027017" data-name="Grupo 1027017">
                      <g id="Grupo_1027016" data-name="Grupo 1027016">
                        <path id="Trazado_725032" data-name="Trazado 725032" d="M654.127,435.782l-.794-2.807c1.944-2.046,1.115-2.819-.963-3.765-.325-.787.547-1.27.779-1.408l5.119-3.1a.907.907,0,0,1,1.354.538l1.905,6.737,2.669,9.436c.727,2.572-1.714,3.838-2.253,2.847-2.4-4.467-4.757-7.444-6.56-8.524C655.065,435.535,654.963,435.866,654.127,435.782Z" transform="translate(-652.299 -424.57)" fill="#407bff"/>
                        <path id="Trazado_725033" data-name="Trazado 725033" d="M660.41,448.3a2.568,2.568,0,0,1,.626-2.049" transform="translate(-656.605 -436.114)" fill="none" stroke="#263238" stroke-linecap="round" stroke-linejoin="round" stroke-width="0.5"/>
                        <path id="Trazado_725034" data-name="Trazado 725034" d="M663.22,450.432a2.573,2.573,0,0,1,.626-2.049" transform="translate(-658.102 -437.251)" fill="none" stroke="#263238" stroke-linecap="round" stroke-linejoin="round" stroke-width="0.5"/>
                        <path id="Trazado_725035" data-name="Trazado 725035" d="M665.892,453.323a2.57,2.57,0,0,1,.626-2.049" transform="translate(-659.524 -438.79)" fill="none" stroke="#263238" stroke-linecap="round" stroke-linejoin="round" stroke-width="0.5"/>
                      </g>
                    </g>
                  </g>
                  <path id="Trazado_725036" data-name="Trazado 725036" d="M665.985,425a.913.913,0,0,1,.105.244L668,431.985l2.669,9.436a2.547,2.547,0,0,1-.8,2.873c-.108-.393-5.267-19.183-5.42-19.407l.384-.222A.9.9,0,0,1,665.985,425Z" transform="translate(-658.767 -424.575)" fill="#fff" opacity="0.7"/>
                </g>
              </g>
              <path id="Trazado_725037" data-name="Trazado 725037" d="M609.272,381.277l.895,4.495s2.295,8.915-.921,13.393a12.907,12.907,0,0,1-7.608,5.041l.932,8.6-.932.581s-5.932,0-18.074-.554c-11.534-.527-21.449-1.078-23.5-4.659s-2.519-5.32.828-9.593c3.024-3.861,26.052-9.548,26.853-9.779l-.322-1.962-.374-1.389Z" transform="translate(-558.458 -381.277)" fill="#263238"/>
              <path id="Trazado_725038" data-name="Trazado 725038" d="M609.272,381.277l.895,4.495s2.295,8.915-.921,13.393a12.907,12.907,0,0,1-7.608,5.041l.932,8.6-.932.581s-5.932,0-18.074-.554c-11.534-.527-21.449-1.078-23.5-4.659s-2.519-5.32.828-9.593c3.024-3.861,26.052-9.548,26.853-9.779l-.322-1.962-.374-1.389Z" transform="translate(-558.458 -381.277)" fill="#fff" opacity="0.3"/>
              <path id="Trazado_725039" data-name="Trazado 725039" d="M621.523,429.613c-.708.185-25.722-.622-25.722-.622s7.394,1.268,12.861,1.729S621.523,429.613,621.523,429.613Z" transform="translate(-578.343 -406.685)" opacity="0.4"/>
              <path id="Trazado_725040" data-name="Trazado 725040" d="M621.114,394.5l14.4-2.512S625.135,391.823,621.114,394.5Z" transform="translate(-591.822 -386.981)" opacity="0.4"/>
            </g>
            <g id="Grupo_1027026" data-name="Grupo 1027026" transform="translate(56.69 54.356)">
              <g id="Grupo_1027025" data-name="Grupo 1027025">
                <g id="Grupo_1027024" data-name="Grupo 1027024">
                  <g id="Grupo_1027023" data-name="Grupo 1027023">
                    <g id="Grupo_1027022" data-name="Grupo 1027022">
                      <path id="Trazado_725041" data-name="Trazado 725041" d="M526.334,371.545a5.468,5.468,0,0,0-2.99-2.208c-1.788-.358-3.121-1.12-4.469-1.295s-.125,1.193.673,1.789,1.7,1.279,1.151,1.805-6.86,2.129-7.531,2.945.431.877.431.877-1.524.431-1.518,1.08c0,.169.279.559,1,.472,1.631-.2,5.033-.785,5.033-.785-.2.029-4.343,1.056-4.944,1.291-.785.307-1,.852-.806,1.3.274.64,5.459-.457,5.71-.351,0,0-3.006.532-3.294,1.383s1.623.619,3.269.1c1.509-.481,4.595-1.028,6.081-1.666,1.832-.785,2.885-1.724,2.925-3.592A6.349,6.349,0,0,0,526.334,371.545Z" transform="translate(-512.081 -368.027)" fill="#e9b376"/>
                    </g>
                  </g>
                </g>
              </g>
              <path id="Trazado_725042" data-name="Trazado 725042" d="M538.341,373.364l4.612-1.845,1.593,4.989-5.409,1.929Z" transform="translate(-526.065 -369.887)" fill="#e9b376"/>
            </g>
            <g id="Grupo_1027032" data-name="Grupo 1027032" transform="translate(84.747)">
              <g id="Grupo_1027031" data-name="Grupo 1027031" transform="translate(2.192 1.468)">
                <g id="Grupo_1027030" data-name="Grupo 1027030">
                  <g id="Grupo_1027029" data-name="Grupo 1027029" transform="translate(0.564)">
                    <g id="Grupo_1027027" data-name="Grupo 1027027" transform="translate(7.685 11.188)">
                      <path id="Trazado_725043" data-name="Trazado 725043" d="M601.666,289.5s-1.253-2.829-.987-8.43c0-.006-.307-.062-.308-.068.034-.782.095-1.512.164-2.15a.108.108,0,0,0,0-.024l-6.1,6.142a24.549,24.549,0,0,1,.711,6.466s-.313,2.692,3.006,2.012C600.571,292.952,601.666,289.5,601.666,289.5Z" transform="translate(-594.43 -278.828)" fill="#e9b376"/>
                      <path id="Trazado_725044" data-name="Trazado 725044" d="M595.372,294.882l3.9-1.916c-.068,1.372-.839,3.163-3.678,3.974A13.05,13.05,0,0,0,595.372,294.882Z" transform="translate(-594.932 -286.356)" opacity="0.2"/>
                    </g>
                    <g id="Grupo_1027028" data-name="Grupo 1027028">
                      <path id="Trazado_725045" data-name="Trazado 725045" d="M591,264.837c.6,4.657,1.037,7.272-.841,10.061-2.826,4.2-8.779,3.21-10.767-1.186-1.79-3.957-2.476-10.908,1.694-13.566A6.48,6.48,0,0,1,591,264.837Z" transform="translate(-577.992 -257.142)" fill="#e9b376"/>
                      <path id="Trazado_725046" data-name="Trazado 725046" d="M593.211,256.041c-2.156-2.524-6.171-.314-7.7,1.324-.228.245,3.9,1.411,3.657,1.372l1.3,1.082c.168-.073.516,1.528.811,2.914a7.151,7.151,0,0,0,1.766,3.4,18.32,18.32,0,0,0,2.86,2.529c1.456-1.093,1.011-3.908,1.2-5.672C597.388,260.361,597.327,255.444,593.211,256.041Z" transform="translate(-581.993 -254.898)" fill="#263238"/>
                      <path id="Trazado_725047" data-name="Trazado 725047" d="M606.836,276.083a4.407,4.407,0,0,1-1.676,2.955c-1.242.947-2.043-.457-2.192-1.932-.134-1.328-.059-2.991,1.425-3.359A2.027,2.027,0,0,1,606.836,276.083Z" transform="translate(-591.267 -264.902)" fill="#e9b376"/>
                      <path id="Trazado_725048" data-name="Trazado 725048" d="M590.979,276.05c.09.471-.087.9-.4.955s-.633-.28-.724-.751.086-.9.4-.955S590.888,275.578,590.979,276.05Z" transform="translate(-584.299 -265.758)" fill="#263238"/>
                      <path id="Trazado_725049" data-name="Trazado 725049" d="M581.136,278.149c.091.471-.086.9-.4.955s-.633-.28-.724-.751.086-.9.4-.955S581.045,277.677,581.136,278.149Z" transform="translate(-579.057 -266.876)" fill="#263238"/>
                      <path id="Trazado_725050" data-name="Trazado 725050" d="M584.024,277.833s-1.04,2.627-1.335,3.673a2.266,2.266,0,0,0,1.846-.025Z" transform="translate(-580.493 -267.111)" fill="#d58745"/>
                      <path id="Trazado_725051" data-name="Trazado 725051" d="M591.332,270.942a.226.226,0,0,1-.227.011,1.809,1.809,0,0,0-1.628-.055.227.227,0,0,1-.308-.084.223.223,0,0,1,.083-.3,2.252,2.252,0,0,1,2.057.047.223.223,0,0,1,.1.3A.221.221,0,0,1,591.332,270.942Z" transform="translate(-583.928 -263.092)" fill="#263238"/>
                      <path id="Trazado_725052" data-name="Trazado 725052" d="M590.558,286.708a2.8,2.8,0,0,0,1.767-1.319" transform="translate(-584.683 -271.134)" fill="none" stroke="#263238" stroke-linecap="round" stroke-linejoin="round" stroke-width="0.75"/>
                    </g>
                    <path id="Trazado_725053" data-name="Trazado 725053" d="M606.422,276.284a.854.854,0,0,0-.942-.126,1.471,1.471,0,0,0-.675.728,2.346,2.346,0,0,0-.219,1.182" transform="translate(-592.149 -266.173)" fill="none" stroke="#000" stroke-linecap="round" stroke-linejoin="round" stroke-width="0.5" opacity="0.2"/>
                  </g>
                  <path id="Trazado_725054" data-name="Trazado 725054" d="M577.006,274.062a.219.219,0,0,1-.123-.041.226.226,0,0,1-.059-.313,2.213,2.213,0,0,1,1.78-.995.227.227,0,0,1,.219.232.222.222,0,0,1-.228.217,1.723,1.723,0,0,0-1.4.8A.221.221,0,0,1,577.006,274.062Z" transform="translate(-576.786 -264.385)" fill="#263238"/>
                </g>
              </g>
              <path id="Trazado_725055" data-name="Trazado 725055" d="M586.071,254.369a7.945,7.945,0,0,0-7.826-2.374c-3.989.94-6.069,3.858-6.146,6.65a5.641,5.641,0,0,0,.547,2.72.577.577,0,0,0,1.072-.1,3.745,3.745,0,0,1,.156-.425c.016.031.033.063.051.093a.578.578,0,0,0,1.075-.259,2.916,2.916,0,0,1,.061-.535l.008.013a.574.574,0,0,0,1.038-.194,4.163,4.163,0,0,1,5.5-2.83l1.724,1.024A7.183,7.183,0,0,0,586.071,254.369Z" transform="translate(-572.096 -251.758)" fill="#263238"/>
            </g>
            <path id="Trazado_725056" data-name="Trazado 725056" d="M608.437,390.11l-.272,1.824-8.043,2.421,1.854,1.188,7.96-2.213.328-3.544Z" transform="translate(-502.273 -325.258)" opacity="0.4"/>
            <g id="Grupo_1027035" data-name="Grupo 1027035" transform="translate(70.404 21.487)">
              <g id="Grupo_1027033" data-name="Grupo 1027033" transform="translate(20.12 0.936)">
                <path id="Trazado_725057" data-name="Trazado 725057" d="M606.1,301.2c-3.611-2.316-9.976-1.215-9.976-1.215l-11.674,7.124,7.983,18.764s3.331,7.98,5.128,13.295c.445,1.316,1.3,3.153,2.675,2.973l22.173-4.009a1.871,1.871,0,0,0,1.474-2.338C621.746,328.059,609.337,303.271,606.1,301.2Z" transform="translate(-584.452 -299.72)" fill="#3076b6"/>
                <path id="Trazado_725058" data-name="Trazado 725058" d="M617.422,325.2a53.974,53.974,0,0,1-9.792,12.521,24.27,24.27,0,0,0-4.269,5.751l-1.564-4Z" transform="translate(-593.688 -313.289)" opacity="0.4"/>
              </g>
              <g id="Grupo_1027034" data-name="Grupo 1027034" transform="translate(0 4.013)">
                <path id="Trazado_725059" data-name="Trazado 725059" d="M574.277,309.983l-15.115,18.849-17.747,8.057,1.77,7.346s14.389-3.883,20.172-7.487,15.318-13.682,15.318-13.682,8.315-6.674,7.918-12.072S578.281,304.334,574.277,309.983Z" transform="translate(-541.415 -306.302)" fill="#3076b6"/>
              </g>
              <path id="Trazado_725060" data-name="Trazado 725060" d="M594.156,303.271s.561-2.879.834-2.763,2.974,1.738,2.974,1.738l3.022-4.527,1.814,1.2-4.174,8.655Z" transform="translate(-569.5 -297.719)" fill="#3076b6"/>
              <path id="Trazado_725061" data-name="Trazado 725061" d="M587.347,323l-3.486-4.784,2.816,7.491,1.371-1.459,9.625-12.167Z" transform="translate(-564.017 -305.367)" opacity="0.4"/>
              <path id="Trazado_725062" data-name="Trazado 725062" d="M594.156,304.457a21.892,21.892,0,0,1,2.519,1.77,15.9,15.9,0,0,1,1.053-2.019l2.654,1.009,2.178-5.272-2.144,6.073L597.9,304.8l-1.227,2.226Z" transform="translate(-569.5 -298.905)" opacity="0.4"/>
            </g>
          </g>
          <g id="Grupo_1027094" data-name="Grupo 1027094" transform="translate(148.335 83.347)">
            <g id="Grupo_1027038" data-name="Grupo 1027038" transform="translate(16.357 20.606)">
              <g id="Grupo_1027037" data-name="Grupo 1027037">
                <path id="Trazado_725063" data-name="Trazado 725063" d="M203.145,177.836a3.406,3.406,0,0,0-.194-1.385c-.566-1.518-2.179-2.421-2.87-3.887-1.018-2.163.417-4.857,2.522-5.991a8.366,8.366,0,0,1,7.8,0c2.1,1.134,3.54,3.828,2.522,5.991-.691,1.466-2.3,2.369-2.87,3.887a3.406,3.406,0,0,0-.194,1.385h21.47V156.194a3.825,3.825,0,0,1,2.693-.091c1.518.566,2.422,2.179,3.887,2.87,2.163,1.018,4.857-.417,5.991-2.521a8.363,8.363,0,0,0,0-7.8c-1.134-2.1-3.828-3.539-5.991-2.521-1.466.69-2.369,2.3-3.887,2.87a3.825,3.825,0,0,1-2.693-.091V129.667l-48-.215v48.17Z" transform="translate(-183.324 -129.452)" fill="#263238"/>
                <path id="Trazado_725064" data-name="Trazado 725064" d="M203.145,177.836a3.406,3.406,0,0,0-.194-1.385c-.566-1.518-2.179-2.421-2.87-3.887-1.018-2.163.417-4.857,2.522-5.991a8.366,8.366,0,0,1,7.8,0c2.1,1.134,3.54,3.828,2.522,5.991-.691,1.466-2.3,2.369-2.87,3.887a3.406,3.406,0,0,0-.194,1.385h21.47V156.194a3.825,3.825,0,0,1,2.693-.091c1.518.566,2.422,2.179,3.887,2.87,2.163,1.018,4.857-.417,5.991-2.521a8.363,8.363,0,0,0,0-7.8c-1.134-2.1-3.828-3.539-5.991-2.521-1.466.69-2.369,2.3-3.887,2.87a3.825,3.825,0,0,1-2.693-.091V129.667l-48-.215v48.17Z" transform="translate(-183.324 -129.452)" opacity="0.4"/>
              </g>
              <path id="Trazado_725065" data-name="Trazado 725065" d="M206.258,177.836a3.414,3.414,0,0,0-.194-1.385c-.566-1.518-2.179-2.421-2.87-3.887-1.018-2.163.417-4.857,2.521-5.991a8.367,8.367,0,0,1,7.8,0c2.1,1.134,3.539,3.828,2.521,5.991-.69,1.466-2.3,2.369-2.87,3.887a3.414,3.414,0,0,0-.194,1.385h21.47V156.194a3.824,3.824,0,0,1,2.692-.091c1.518.566,2.422,2.179,3.888,2.87,2.163,1.018,4.857-.417,5.991-2.521a8.367,8.367,0,0,0,0-7.8c-1.134-2.1-3.828-3.539-5.991-2.521-1.466.69-2.369,2.3-3.888,2.87a3.824,3.824,0,0,1-2.692-.091V129.667l-48-.215v48.17Z" transform="translate(-184.981 -129.452)" fill="#263238"/>
            </g>
            <g id="Grupo_1027093" data-name="Grupo 1027093">
              <path id="Trazado_725066" data-name="Trazado 725066" d="M158.273,177.8s-3.505,12.419-1.264,14.58,10.089.721,9.688.561,2-15.1,2.162-14.553S158.273,177.8,158.273,177.8Z" transform="translate(-152.555 -134.589)" fill="#b97964"/>
              <g id="Grupo_1027055" data-name="Grupo 1027055" transform="translate(9.449 154.79)">
                <g id="Grupo_1027042" data-name="Grupo 1027042" transform="translate(0.619)">
                  <g id="Grupo_1027041" data-name="Grupo 1027041">
                    <g id="Grupo_1027040" data-name="Grupo 1027040">
                      <g id="Grupo_1027039" data-name="Grupo 1027039">
                        <path id="Trazado_725067" data-name="Trazado 725067" d="M169.881,417.024,169.87,427.8l5,.389,1.758-10.121C174.343,416.413,172.091,416.018,169.881,417.024Z" transform="translate(-169.87 -416.475)" fill="#b97964"/>
                      </g>
                    </g>
                  </g>
                </g>
                <g id="Grupo_1027047" data-name="Grupo 1027047" transform="translate(0.05 8.908)">
                  <g id="Grupo_1027046" data-name="Grupo 1027046">
                    <g id="Grupo_1027045" data-name="Grupo 1027045">
                      <g id="Grupo_1027044" data-name="Grupo 1027044">
                        <g id="Grupo_1027043" data-name="Grupo 1027043">
                          <path id="Trazado_725068" data-name="Trazado 725068" d="M169.177,436.82c-.492,1.422-.524,7.239-.524,7.239l10.6.013c.63-2.1-.345-3.54-1.582-3.731a3.436,3.436,0,0,1-1.612-1.188c0-.067-.652-3.3-1.052-3.453,0,0-.276-.336-.511,0a5.7,5.7,0,0,0-.439,1.427C172.4,434.9,170.782,435.2,169.177,436.82Z" transform="translate(-168.653 -435.53)" fill="#263238"/>
                        </g>
                      </g>
                    </g>
                  </g>
                </g>
                <g id="Grupo_1027051" data-name="Grupo 1027051" transform="translate(0.235 11.247)">
                  <g id="Grupo_1027050" data-name="Grupo 1027050">
                    <g id="Grupo_1027049" data-name="Grupo 1027049">
                      <g id="Grupo_1027048" data-name="Grupo 1027048">
                        <path id="Trazado_725069" data-name="Trazado 725069" d="M169.26,441.173a3.543,3.543,0,0,1,3.529.5c.183.139.356-.186.175-.324a3.842,3.842,0,0,0-3.8-.536c-.208.083-.118.446.092.362Z" transform="translate(-169.05 -440.533)" fill="#fff"/>
                      </g>
                    </g>
                  </g>
                </g>
                <g id="Grupo_1027054" data-name="Grupo 1027054" transform="translate(0 16.211)">
                  <g id="Grupo_1027053" data-name="Grupo 1027053">
                    <g id="Grupo_1027052" data-name="Grupo 1027052">
                      <path id="Trazado_725070" data-name="Trazado 725070" d="M179.168,451.539h0l-10.447-.012a.188.188,0,0,1,0-.375h0l10.448.012a.188.188,0,0,1,0,.375Z" transform="translate(-168.547 -451.151)" fill="#fff"/>
                    </g>
                  </g>
                </g>
              </g>
              <g id="Grupo_1027072" data-name="Grupo 1027072" transform="translate(30.856 153.384)">
                <g id="Grupo_1027059" data-name="Grupo 1027059" transform="translate(0.791 0)">
                  <g id="Grupo_1027058" data-name="Grupo 1027058">
                    <g id="Grupo_1027057" data-name="Grupo 1027057">
                      <g id="Grupo_1027056" data-name="Grupo 1027056">
                        <path id="Trazado_725071" data-name="Trazado 725071" d="M216.041,414.018l-.012,12.159,4.813.4,2.368-11.382A6.719,6.719,0,0,0,216.041,414.018Z" transform="translate(-216.029 -413.469)" fill="#b97964"/>
                      </g>
                    </g>
                  </g>
                </g>
                <g id="Grupo_1027064" data-name="Grupo 1027064" transform="translate(0.049 10.339)">
                  <g id="Grupo_1027063" data-name="Grupo 1027063">
                    <g id="Grupo_1027062" data-name="Grupo 1027062">
                      <g id="Grupo_1027061" data-name="Grupo 1027061">
                        <g id="Grupo_1027060" data-name="Grupo 1027060">
                          <path id="Trazado_725072" data-name="Trazado 725072" d="M214.966,436.874c-.492,1.422-.525,7.239-.525,7.239l12.182.015a2.57,2.57,0,0,0-1.923-3.542,7.939,7.939,0,0,1-2.849-1.379c0-.067-.651-3.3-1.052-3.453,0,0-.276-.336-.511,0a5.7,5.7,0,0,0-.439,1.427C218.193,434.955,216.57,435.252,214.966,436.874Z" transform="translate(-214.441 -435.585)" fill="#263238"/>
                        </g>
                      </g>
                    </g>
                  </g>
                </g>
                <g id="Grupo_1027068" data-name="Grupo 1027068" transform="translate(0.235 12.678)">
                  <g id="Grupo_1027067" data-name="Grupo 1027067">
                    <g id="Grupo_1027066" data-name="Grupo 1027066">
                      <g id="Grupo_1027065" data-name="Grupo 1027065">
                        <path id="Trazado_725073" data-name="Trazado 725073" d="M215.049,441.226a3.544,3.544,0,0,1,3.529.5c.183.139.356-.186.175-.324a3.843,3.843,0,0,0-3.8-.536c-.208.083-.118.446.092.362Z" transform="translate(-214.839 -440.587)" fill="#fff"/>
                      </g>
                    </g>
                  </g>
                </g>
                <g id="Grupo_1027071" data-name="Grupo 1027071" transform="translate(0 17.642)">
                  <g id="Grupo_1027070" data-name="Grupo 1027070">
                    <g id="Grupo_1027069" data-name="Grupo 1027069">
                      <path id="Trazado_725074" data-name="Trazado 725074" d="M226.568,451.594h0l-12.059-.015a.188.188,0,0,1,0-.375h0l12.059.014a.188.188,0,0,1,0,.375Z" transform="translate(-214.336 -451.205)" fill="#fff"/>
                    </g>
                  </g>
                </g>
              </g>
              <g id="Grupo_1027083" data-name="Grupo 1027083" transform="translate(6.936 73.444)">
                <g id="Grupo_1027076" data-name="Grupo 1027076" transform="translate(0 1.064)">
                  <g id="Grupo_1027075" data-name="Grupo 1027075">
                    <g id="Grupo_1027074" data-name="Grupo 1027074">
                      <g id="Grupo_1027073" data-name="Grupo 1027073">
                        <path id="Trazado_725075" data-name="Trazado 725075" d="M164.24,330.89l10.66.568c2.391-7.751,4.755-35.542,5-43.886.292-9.969,3.862-34.99.705-40.2s-17.433-1.06-17.433-1.06,1.779,30.466,1.068,40.182C163.624,294.918,162.67,319.671,164.24,330.89Z" transform="translate(-163.172 -244.75)" fill="#263238"/>
                      </g>
                    </g>
                  </g>
                </g>
                <g id="Grupo_1027077" data-name="Grupo 1027077" transform="translate(0.21 84.729)">
                  <path id="Trazado_725076" data-name="Trazado 725076" d="M176.289,423.946l-.693,3.561-11.552-.375-.423-3.42Z" transform="translate(-163.621 -423.713)" fill="#407bff"/>
                </g>
                <g id="Grupo_1027081" data-name="Grupo 1027081" transform="translate(11.101)">
                  <g id="Grupo_1027080" data-name="Grupo 1027080">
                    <g id="Grupo_1027079" data-name="Grupo 1027079">
                      <g id="Grupo_1027078" data-name="Grupo 1027078">
                        <path id="Trazado_725077" data-name="Trazado 725077" d="M198.173,329.677l10.568.568c1.287-8.581,6.456-39.827,6.031-45.813-.518-7.311-6.639-38.958-8.915-41.4s-18.94,3.884-18.94,3.884,6.848,27.214,12.249,38.984C200.287,288.347,197.306,319.242,198.173,329.677Z" transform="translate(-186.917 -242.474)" fill="#263238"/>
                      </g>
                    </g>
                  </g>
                </g>
                <g id="Grupo_1027082" data-name="Grupo 1027082" transform="translate(21.614 84.322)">
                  <path id="Trazado_725078" data-name="Trazado 725078" d="M221.925,423.749l-.539,3.295-11.744-.753-.236-3.449Z" transform="translate(-209.405 -422.841)" fill="#407bff"/>
                </g>
                <path id="Trazado_725079" data-name="Trazado 725079" d="M191.372,289.442l-3.1-10.372-5.506-1.8,4.3,3.337,3.462,18.9Z" transform="translate(-173.604 -261.004)" opacity="0.3"/>
              </g>
              <g id="Grupo_1027086" data-name="Grupo 1027086" transform="translate(14.359)">
                <g id="Grupo_1027084" data-name="Grupo 1027084" transform="translate(15.233 7.211)">
                  <path id="Trazado_725080" data-name="Trazado 725080" d="M213.88,105.907c0,.447.2.785.479.832s.542-.33.565-.785-.188-.785-.471-.832S213.935,105.475,213.88,105.907Z" transform="translate(-212.829 -103.099)" fill="#263238"/>
                  <path id="Trazado_725081" data-name="Trazado 725081" d="M213.023,106.671a15.628,15.628,0,0,0,1.06,4.2,2.574,2.574,0,0,1-2.151-.173Z" transform="translate(-211.792 -103.926)" fill="#a24e3f"/>
                  <path id="Trazado_725082" data-name="Trazado 725082" d="M211.874,102.17a.226.226,0,0,1-.167-.406l0,0a2.574,2.574,0,0,1,2.167-.958.251.251,0,0,1,.228.273v0h0a.275.275,0,0,1-.29.228h0a2.04,2.04,0,0,0-1.7.785A.251.251,0,0,1,211.874,102.17Z" transform="translate(-211.632 -100.799)" fill="#263238"/>
                </g>
                <g id="Grupo_1027085" data-name="Grupo 1027085">
                  <path id="Trazado_725083" data-name="Trazado 725083" d="M198.337,103.286a6.317,6.317,0,0,1-.217.7,7.072,7.072,0,0,1-3.423,3.84,6.433,6.433,0,0,1-7.582-1.185c-2.537-2.518-2.471-5.428-2.76-10.352a6.73,6.73,0,0,1,.512-3.1,6.9,6.9,0,0,1,8.965-3.639h0C198.729,91.524,199.4,98.848,198.337,103.286Z" transform="translate(-181.865 -87.325)" fill="#b97964"/>
                  <path id="Trazado_725084" data-name="Trazado 725084" d="M201.121,126.961a6.87,6.87,0,0,1-.916.557,6.468,6.468,0,0,1-5.49.237,7.5,7.5,0,0,1,.9-1.671A10.062,10.062,0,0,1,201.121,126.961Z" transform="translate(-187.39 -107.012)" opacity="0.2" style="isolation: isolate"/>
                  <path id="Trazado_725085" data-name="Trazado 725085" d="M186.85,127.131c2.471,2.2,8.516,1.392,8.516,1.392s3.773-1.019,2.978-2.174c-2.218-.361-3.3-1.381-3.743-2.69a6.3,6.3,0,0,1-.223-2.495,12.27,12.27,0,0,1,.187-1.393l-7.473-5.439C188.067,117.923,189.267,124.53,186.85,127.131Z" transform="translate(-183.203 -100.794)" fill="#b97964"/>
                  <path id="Trazado_725086" data-name="Trazado 725086" d="M192.779,96.856l1.079.4-.536-2.169s1.579-2.37,0-4.426c0,0,4.364-1.3,1.9-3.556-.916-.841-2.055,0-5.069-1.286-1.633-.7-6.744-.758-7,1.286,0,0-3.683,0-4.08,6.163a12.23,12.23,0,0,0,3.9,9.742s4.448,1.031,6.63-.723S192.779,96.856,192.779,96.856Z" transform="translate(-179.048 -85.374)" fill="#263238"/>
                  <path id="Trazado_725087" data-name="Trazado 725087" d="M202.21,107.018a3.177,3.177,0,0,0,1.663,2.187c1.019.426,1.694-.984,1.543-2.465-.138-1.316-.832-3.165-1.922-2.915S201.854,105.69,202.21,107.018Z" transform="translate(-191.325 -95.187)" fill="#b97964"/>
                </g>
              </g>
              <g id="Grupo_1027090" data-name="Grupo 1027090" transform="translate(0 22.648)">
                <path id="Trazado_725088" data-name="Trazado 725088" d="M158.742,139.176s-1.736.528-2.6.844c-1.8.66-2.989,2.664-3.64,4.632-1.592,4.81-4.166,16.2-4.166,16.2l9.337,1.962,4.981-10.727Z" transform="translate(-148.335 -136.672)" fill="#407bff"/>
                <path id="Trazado_725089" data-name="Trazado 725089" d="M158.742,139.176a10.205,10.205,0,0,0-3.814,1.552,8.122,8.122,0,0,0-2.427,3.925c-1.592,4.81-4.166,16.2-4.166,16.2l9.337,1.962,4.981-10.727Z" transform="translate(-148.335 -136.672)" fill="#fff" opacity="0.5"/>
                <g id="Grupo_1027087" data-name="Grupo 1027087" transform="translate(6.391 1.835)">
                  <path id="Trazado_725090" data-name="Trazado 725090" d="M188.635,138.967c-2.754-.3-11.226-2.211-22.614-.552l-2.665,42.108a111.156,111.156,0,0,1-1.351,11.97c11.573,4.97,25.265,3.548,33.006-.629-.09.176-.343-4.419-.74-11.15-.7-11.86-1.845-30.353-3.323-41.06C190.909,139.39,188.909,139,188.635,138.967Z" transform="translate(-162.005 -137.746)" fill="#407bff"/>
                </g>
                <g id="Grupo_1027088" data-name="Grupo 1027088" transform="translate(6.391 1.835)" opacity="0.5">
                  <path id="Trazado_725091" data-name="Trazado 725091" d="M188.635,138.967c-2.754-.3-11.226-2.211-22.614-.552l-2.665,42.108a111.156,111.156,0,0,1-1.351,11.97c11.573,4.97,25.265,3.548,33.006-.629-.09.176-.343-4.419-.74-11.15-.7-11.86-1.845-30.353-3.323-41.06C190.909,139.39,188.909,139,188.635,138.967Z" transform="translate(-162.005 -137.746)" fill="#fff"/>
                </g>
                <g id="Grupo_1027089" data-name="Grupo 1027089" transform="translate(17.88)">
                  <path id="Trazado_725092" data-name="Trazado 725092" d="M186.582,135.886a3.888,3.888,0,0,1,1.374-2.066l6.342.489,2.974,1.961Z" transform="translate(-186.582 -133.82)" fill="#407bff"/>
                  <path id="Trazado_725093" data-name="Trazado 725093" d="M186.582,135.886a3.89,3.89,0,0,1,1.374-2.066l6.342.489,2.974,1.961Z" transform="translate(-186.582 -133.82)" fill="#fff" opacity="0.5"/>
                </g>
                <path id="Trazado_725094" data-name="Trazado 725094" d="M218.336,168.391c1.015,4.743,2.476,14.04,5.231,17.28l-.655-9.409Z" transform="translate(-185.61 -152.229)" opacity="0.2" style="isolation: isolate"/>
                <path id="Trazado_725095" data-name="Trazado 725095" d="M164.41,175.6l.246-12.161L162.1,175.021Z" transform="translate(-155.666 -149.592)" opacity="0.2" style="isolation: isolate"/>
              </g>
              <g id="Grupo_1027092" data-name="Grupo 1027092" transform="translate(31.284 26.098)">
                <path id="Trazado_725096" data-name="Trazado 725096" d="M228.72,172.054c-.356.137,6.512,15.589,9.308,15.727s15.924-5.836,15.924-5.836l-2.945-3.515-9.923.569-5.061-10.773Z" transform="translate(-222.417 -155.59)" fill="#b97964"/>
                <g id="Grupo_1027091" data-name="Grupo 1027091">
                  <path id="Trazado_725097" data-name="Trazado 725097" d="M218.1,141.335c-3.562,2.353-5.327,7.679,4.222,24.124l10.312-6.3c-2.086-3.848-4.3-6.647-6.752-12.22C220.934,139.814,218.1,141.335,218.1,141.335Z" transform="translate(-215.253 -141.199)" fill="#407bff"/>
                  <path id="Trazado_725098" data-name="Trazado 725098" d="M218.1,141.335c-3.562,2.353-5.327,7.679,4.222,24.124l10.312-6.3c-2.086-3.848-4.3-6.647-6.752-12.22C220.934,139.814,218.1,141.335,218.1,141.335Z" transform="translate(-215.253 -141.199)" fill="#fff" opacity="0.5"/>
                </g>
                <path id="Trazado_725099" data-name="Trazado 725099" d="M283.83,185.234c0-.9-.278-1.882-.763-1.912s-3.079,0-3.079,0h0c0-.727,1.365-1.524.92-2.021-.58-.648-3.941,2.122-4.153,2.688a6.721,6.721,0,0,1-.625,1.388l1.776,4.077s3.287,2.165,4.05,1.4a2.154,2.154,0,0,0,.694-1.578,3.537,3.537,0,0,0,.693-1.751C283.275,186.829,283.83,186.135,283.83,185.234Z" transform="translate(-247.671 -162.499)" fill="#b97964"/>
              </g>
            </g>
          </g>
        </g>
      </g>
    </g>
  </g>
</svg>
