<svg xmlns="http://www.w3.org/2000/svg" width="505" height="340.927" viewBox="0 0 505 340.927">
  <g id="Group_2" data-name="Group 2" transform="translate(0 -2)">
    <path id="Trazado_716172" data-name="Trazado 716172" d="M951.146,110.37H830.6a16.407,16.407,0,0,0-16.406,16.406v80.3A16.407,16.407,0,0,0,830.6,223.479H951.146a16.407,16.407,0,0,0,16.407-16.406v-80.3A16.407,16.407,0,0,0,951.146,110.37Z" transform="translate(-462.553 -61.567)" fill="#b0d3e9"/>
    <path id="Trazado_716173" data-name="Trazado 716173" d="M973.621,75.636c-9.614-9.324-32.746-17.115-51.256-17.115s-41.632,7.791-51.256,17.115c-8.024,13.855,18.628,22.655,33.094,26.351l18.162,1.077,18.161-1.077C954.994,98.291,981.646,89.481,973.621,75.636Z" transform="translate(-494.051 -32.111)" fill="#892b4f"/>
    <path id="Trazado_716174" data-name="Trazado 716174" d="M904.653,230.759l-10.1,3.095a28.228,28.228,0,0,0-18.56,18.405,28.667,28.667,0,0,0-1.009,4.288l-1.562,10.362V267l-2.212,14.563-1.552,10.323h52.382V264.251c-10.993-13.738-15.553-25.4-17.4-33.482Z" transform="translate(-494.064 -129.961)" fill="#a34262"/>
    <path id="Trazado_716175" data-name="Trazado 716175" d="M985.533,229.286l-2.6-.8v2.94A14.3,14.3,0,0,1,968.7,245.663h-.524a14.29,14.29,0,0,1-14.233-14.233v-2.94l-3.23.989c1.843,8.082,6.4,19.744,17.4,33.482,11.078-13.845,15.622-25.585,17.436-33.676Z" transform="translate(-540.112 -128.672)" fill="#fff"/>
    <path id="Trazado_716176" data-name="Trazado 716176" d="M1042.479,281.3l-2.172-14.447-.03-.2-1.563-10.362a27.164,27.164,0,0,0-1.006-4.288,28.24,28.24,0,0,0-18.562-18.405l-10.719-3.289c-1.814,8.092-6.357,19.831-17.436,33.677v27.632h53.053l-1.555-10.323Z" transform="translate(-562.995 -129.706)" fill="#a34262"/>
    <path id="Trazado_716177" data-name="Trazado 716177" d="M959.051,230.474a14.23,14.23,0,0,0,13.35,9.343h.524a14.283,14.283,0,0,0,14.232-14.233v-2.94L972.663,218.2l-14.495,4.444v2.94A14.1,14.1,0,0,0,959.051,230.474Z" transform="translate(-544.349 -122.827)" fill="#eba58e"/>
    <path id="Trazado_716178" data-name="Trazado 716178" d="M966.907,163.679v29.175a10.72,10.72,0,1,0,21.44,0V163.679Z" transform="translate(-549.313 -91.852)" fill="#eba58e"/>
    <path id="Trazado_716179" data-name="Trazado 716179" d="M966.907,163.679v18.648l1.795,1.494a13.4,13.4,0,0,0,17.853,0l1.792-1.494V163.679Z" transform="translate(-549.313 -91.852)" fill="#de7274"/>
    <path id="Trazado_716180" data-name="Trazado 716180" d="M949.894,234.709s-10.381-12.72-10.381-35.627V178.775a38.28,38.28,0,0,0-17.464,12.177,14.484,14.484,0,0,0,1.106,19.773C931.451,218.67,941.017,232,949.894,234.709Z" transform="translate(-521.91 -100.428)" fill="#eecda6"/>
    <path id="Trazado_716181" data-name="Trazado 716181" d="M990.966,234.709s10.38-12.72,10.38-35.627V178.775a38.276,38.276,0,0,1,17.465,12.177,14.483,14.483,0,0,1-1.106,19.773C1009.409,218.67,999.852,232,990.966,234.709Z" transform="translate(-562.982 -100.428)" fill="#eecda6"/>
    <path id="Trazado_716182" data-name="Trazado 716182" d="M920.389,156.617a8.072,8.072,0,1,0-8.072-8.072A8.072,8.072,0,0,0,920.389,156.617Z" transform="translate(-518.3 -78.668)" fill="#eba58e"/>
    <path id="Trazado_716183" data-name="Trazado 716183" d="M925.418,157.823a4.25,4.25,0,1,0-4.25-4.249A4.25,4.25,0,0,0,925.418,157.823Z" transform="translate(-523.328 -83.697)" fill="#de7274"/>
    <path id="Trazado_716184" data-name="Trazado 716184" d="M1041.856,156.617a8.072,8.072,0,1,0-8.076-8.072A8.073,8.073,0,0,0,1041.856,156.617Z" transform="translate(-587.305 -78.668)" fill="#eba58e"/>
    <path id="Trazado_716185" data-name="Trazado 716185" d="M1046.89,157.823a4.25,4.25,0,1,0-4.25-4.249A4.247,4.247,0,0,0,1046.89,157.823Z" transform="translate(-592.339 -83.697)" fill="#de7274"/>
    <path id="Trazado_716186" data-name="Trazado 716186" d="M956.556,52.3a26.741,26.741,0,0,0-26.739,26.739v1.348a26.7,26.7,0,0,0,.7,6.084l3.881,16.62a19.2,19.2,0,0,0,8.431,11.866l2.949,1.873a20.106,20.106,0,0,0,21.559,0l2.95-1.873a19.206,19.206,0,0,0,8.43-11.866L982.6,86.47a26.99,26.99,0,0,0,.7-6.084V79.038A26.74,26.74,0,0,0,956.556,52.3Z" transform="translate(-528.242 -28.575)" fill="#eba58e"/>
    <path id="Trazado_716187" data-name="Trazado 716187" d="M954.062,110.381a9.4,9.4,0,0,0-7.306,4.046l14.942-.67A9.388,9.388,0,0,0,954.062,110.381Z" transform="translate(-537.865 -61.567)" fill="#6a3649"/>
    <path id="Trazado_716188" data-name="Trazado 716188" d="M964.287,130.244a2.465,2.465,0,1,1-2.464-2.464A2.468,2.468,0,0,1,964.287,130.244Z" transform="translate(-545.025 -71.457)"/>
    <path id="Trazado_716189" data-name="Trazado 716189" d="M1009.766,110.381a9.394,9.394,0,0,1,7.307,4.046l-14.943-.67A9.373,9.373,0,0,1,1009.766,110.381Z" transform="translate(-569.324 -61.567)" fill="#6a3649"/>
    <path id="Trazado_716190" data-name="Trazado 716190" d="M1012.69,130.244a2.464,2.464,0,1,0,2.466-2.464A2.468,2.468,0,0,0,1012.69,130.244Z" transform="translate(-575.323 -71.457)"/>
    <path id="Trazado_716191" data-name="Trazado 716191" d="M990.435,156.67H982.16a12.179,12.179,0,0,0,2.086,1.514,4.264,4.264,0,0,0,2.513.621A7.337,7.337,0,0,0,990.435,156.67Z" transform="translate(-557.979 -87.87)" fill="#de7274"/>
    <path id="Trazado_716192" data-name="Trazado 716192" d="M988.794,168.2a20.255,20.255,0,0,1-18.675-.3,13.267,13.267,0,0,0,9.2,4.7C982.722,172.735,986.427,170.658,988.794,168.2Z" transform="translate(-551.138 -94.252)" fill="#fff"/>
    <path id="Trazado_716193" data-name="Trazado 716193" d="M990.472,182.1H982.43a6.528,6.528,0,0,0,3.968,1.543A6.874,6.874,0,0,0,990.472,182.1Z" transform="translate(-558.132 -102.317)" fill="#de7274"/>
    <path id="Trazado_716194" data-name="Trazado 716194" d="M978.917,70.167c3.2-8.315,1.883-22.975-2.881-30.5a28.4,28.4,0,0,0-45.756-3.2c-5.22.223-9.925,3.832-12.351,8.47s-2.8,10.11-2.038,15.281a80.44,80.44,0,0,0,4.414,15.669l5.977,12.477-3.425-14.825c5.152-4.463,7.995-13.118,7.771-19.928a23.472,23.472,0,0,1,4.046,5.026c1.242-2.387.98-6.025-.99-7.859a19.28,19.28,0,0,0,10.818,6.5,46.675,46.675,0,0,0,12.788.854c-3.688-1.708-7.374-3.211-11.168-4.647a214.321,214.321,0,0,1,23.157,3.939c-.881,5.462,1.469,11.691,4.785,16.125L970.6,88.369l8.323-18.191Z" transform="translate(-520.129 -13.845)" fill="#6a3649"/>
    <path id="Trazado_716195" data-name="Trazado 716195" d="M963.975,140.849a10.069,10.069,0,0,0-6.054,0A10.076,10.076,0,0,0,963.975,140.849Z" transform="translate(-544.208 -78.618)" fill="#de7274"/>
    <path id="Trazado_716196" data-name="Trazado 716196" d="M1011.54,140.849a10.072,10.072,0,0,1,6.055,0A10.079,10.079,0,0,1,1011.54,140.849Z" transform="translate(-574.67 -78.618)" fill="#de7274"/>
    <path id="Trazado_716197" data-name="Trazado 716197" d="M983.59,155.1c-2.863-1.688-9.933,2.61-14.6,2.61s-11.74-4.3-14.6-2.61-3.338,12.719-1.9,15.892,8.2,8.412,16.5,8.412,15.068-5.239,16.5-8.412S986.453,156.785,983.59,155.1Zm-5.083,15.058a3.708,3.708,0,0,1-1.861,2.193,9.068,9.068,0,0,1-3.157.892,3.65,3.65,0,0,1-3.52-1.882l-.97-1.747-.97,1.747a3.669,3.669,0,0,1-3.522,1.882,8.987,8.987,0,0,1-3.154-.892,3.669,3.669,0,0,1-1.863-2.193c-.757-2.377-2.037-7.355-.63-10.673,1.232.8,7.6,3.153,10.148,1.785,2.552,1.368,8.925-.98,10.147-1.785,1.408,3.318.13,8.305-.631,10.673Z" transform="translate(-540.674 -86.753)" fill="#6a3649"/>
    <path id="Trazado_716198" data-name="Trazado 716198" d="M924.306,45.919c-17.435,0-46.124,7.791-51.257,22.558,10.663-10.255,38.333-14.156,51.257-14.156s40.584,3.9,51.256,14.156C970.44,53.71,941.741,45.919,924.306,45.919Z" transform="translate(-495.991 -24.951)" fill="#cc6164"/>
    <path id="Trazado_716199" data-name="Trazado 716199" d="M981.126,28.089C977.684,13.158,963.946,2,947.508,2S917.334,13.158,913.89,28.089a82.808,82.808,0,0,1,67.236,0Z" transform="translate(-519.194)" fill="#a34262"/>
    <path id="Trazado_716200" data-name="Trazado 716200" d="M983.039,24.906a6.609,6.609,0,0,1-6.607-6.607V12.827l1.94-.718a13.436,13.436,0,0,1,9.335,0l1.939.718v5.462a6.608,6.608,0,0,1-6.608,6.607Z" transform="translate(-554.725 -5.268)" fill="#cc8027"/>
    <path id="Trazado_716201" data-name="Trazado 716201" d="M983.039,21.087a6.609,6.609,0,0,1-6.607-6.607V9.008l1.94-.718a13.436,13.436,0,0,1,9.335,0l1.939.718V14.47a6.608,6.608,0,0,1-6.608,6.607Z" transform="translate(-554.725 -3.098)" fill="#eecda6"/>
    <path id="Trazado_716202" data-name="Trazado 716202" d="M923.427,338.208h-50.17l-.66,4.4-.514,3.4h51.344Z" transform="translate(-495.443 -191.004)" fill="#cc8027"/>
    <path id="Trazado_716203" data-name="Trazado 716203" d="M925.418,314.935H876.761l-1.174,7.8h49.831Z" transform="translate(-497.433 -177.783)" fill="#cc8027"/>
    <path id="Trazado_716204" data-name="Trazado 716204" d="M990.966,322.735h50.489l-1.171-7.8H990.966Z" transform="translate(-562.982 -177.783)" fill="#cc8027"/>
    <path id="Trazado_716205" data-name="Trazado 716205" d="M990.966,346h52.005l-.505-3.4-.669-4.4h-50.83Z" transform="translate(-562.982 -191.004)" fill="#cc8027"/>
    <path id="Trazado_716206" data-name="Trazado 716206" d="M987.956,306.151l-1.048.922-1.048-.922L983.823,334.7h6.161Z" transform="translate(-558.924 -172.792)" fill="#eecda6"/>
    <path id="Trazado_716207" data-name="Trazado 716207" d="M902.126,317.054l1.737-21.316,1.5-20.656-9.741,41.972Z" transform="translate(-508.818 -155.142)" fill="#2e6a90" opacity="0.5"/>
    <path id="Trazado_716208" data-name="Trazado 716208" d="M1069.709,317.054l-1.745-21.316-1.494-20.656,9.73,41.972Z" transform="translate(-605.877 -155.142)" fill="#2e6a90" opacity="0.5"/>
    <path id="Trazado_716209" data-name="Trazado 716209" d="M136.957,110.37H16.406A16.407,16.407,0,0,0,0,126.777v80.3a16.407,16.407,0,0,0,16.406,16.406h120.55a16.407,16.407,0,0,0,16.406-16.406v-80.3A16.407,16.407,0,0,0,136.957,110.37Z" transform="translate(0 -61.567)" fill="#b0d3e9"/>
    <path id="Trazado_716210" data-name="Trazado 716210" d="M95.953,270.2l-6.015-30.834,2.581-10.042-6.52,2-2.755.844-2.882.883a28.226,28.226,0,0,0-18.56,18.4,28.726,28.726,0,0,0-1.009,4.289L59.443,264.7,59.23,266.1v.087l-.485,3.114-1.727,11.449-1.552,10.323H97.845l.786-8.111-2.687-12.749Z" transform="translate(-31.511 -129.144)" fill="#fff"/>
    <path id="Trazado_716211" data-name="Trazado 716211" d="M165.777,263.879l6.015-30.834-2.59-10.051-1.164-.359-14.5-4.434-14.495,4.434-1.164.359-2.59,10.051,6.015,30.834,2.688,12.749-.786,8.111h20.676l-.786-8.111Z" transform="translate(-76.856 -122.827)" fill="#73d3f3"/>
    <path id="Trazado_716212" data-name="Trazado 716212" d="M241.267,280.73l-1.727-11.448-.456-3-.029-.2-.213-1.407-1.348-8.955a27.289,27.289,0,0,0-1.009-4.288,28.228,28.228,0,0,0-18.56-18.405l-2.882-.883-2.755-.844-6.52-2,2.581,10.042-6.015,30.834-2.687,12.748.786,8.111H242.81l-1.552-10.323Z" transform="translate(-113.421 -129.131)" fill="#fff"/>
    <path id="Trazado_716213" data-name="Trazado 716213" d="M87.654,326.115l2.833-35.083-9.052,35.083Z" transform="translate(-46.264 -164.203)" fill="#2e6a90" opacity="0.25"/>
    <path id="Trazado_716214" data-name="Trazado 716214" d="M255.539,326.115l-2.833-35.083,9.052,35.083Z" transform="translate(-143.566 -164.203)" fill="#2e6a90" opacity="0.25"/>
    <path id="Trazado_716215" data-name="Trazado 716215" d="M129.31,270.2l-6.015-30.834,2.581-10.042-1.349.417-9.44,11.73a4.1,4.1,0,0,0,.466,5.627l4.153,3.706-4.4,5.433a4.912,4.912,0,0,0,.165,6.384l6.811,7.548a42.712,42.712,0,0,1,8.111,13.166l1.087,5.016.524-5.395-2.688-12.748Z" transform="translate(-64.868 -129.144)" fill="#2e6a90" opacity="0.25"/>
    <path id="Trazado_716216" data-name="Trazado 716216" d="M202.355,270.2l6.015-30.834-2.581-10.042,1.349.417,9.44,11.73a4.1,4.1,0,0,1-.466,5.627L211.96,250.8l4.4,5.433a4.912,4.912,0,0,1-.165,6.384l-6.811,7.548a42.7,42.7,0,0,0-8.111,13.166l-1.087,5.016-.524-5.395,2.688-12.748Z" transform="translate(-113.434 -129.144)" fill="#2e6a90" opacity="0.25"/>
    <path id="Trazado_716217" data-name="Trazado 716217" d="M118.992,245.572l5.1,4.56-5.394,6.646a3.266,3.266,0,0,0,.107,4.249l6.811,7.549a44.318,44.318,0,0,1,8.422,13.67l.087.213.641-9.276a18.35,18.35,0,0,0-.379-5.249l-6.083-28.069a18.7,18.7,0,0,1,.155-8.576l.718-2.824-2.523.776-8.189,12.206A3.156,3.156,0,0,0,118.992,245.572Z" transform="translate(-66.997 -128.659)" fill="#fff"/>
    <path id="Trazado_716218" data-name="Trazado 716218" d="M213.9,245.572l-5.1,4.56,5.394,6.646a3.266,3.266,0,0,1-.107,4.249l-6.811,7.549a44.318,44.318,0,0,0-8.422,13.67l-.087.213-.64-9.276a18.365,18.365,0,0,1,.378-5.249l6.084-28.069a18.7,18.7,0,0,0-.155-8.576l-.718-2.824,2.523.776,8.189,12.206A3.157,3.157,0,0,1,213.9,245.572Z" transform="translate(-112.529 -128.659)" fill="#fff"/>
    <path id="Trazado_716219" data-name="Trazado 716219" d="M143.745,212.2a17.008,17.008,0,0,0-12.875,14.282l-.242,1.766a86.263,86.263,0,0,0-.262,21.452l1.252,11.08,1.775-.2-1.252-11.08a83.621,83.621,0,0,1,.262-21.005l.242-1.766a15.253,15.253,0,0,1,11.526-12.788l1.1-.272-.427-1.737Z" transform="translate(-73.753 -119.266)"/>
    <path id="Trazado_716220" data-name="Trazado 716220" d="M135.091,325.015a5.879,5.879,0,1,1-5.88-5.88A5.876,5.876,0,0,1,135.091,325.015Z" transform="translate(-70.067 -180.169)" fill="#e4e4e0"/>
    <path id="Trazado_716221" data-name="Trazado 716221" d="M135.559,326.967a4.4,4.4,0,1,1-4.4-4.4A4.4,4.4,0,0,1,135.559,326.967Z" transform="translate(-72.019 -182.121)" fill="#d4cfbe"/>
    <path id="Trazado_716222" data-name="Trazado 716222" d="M136.141,329.393a2.552,2.552,0,1,1-2.552-2.552A2.555,2.555,0,0,1,136.141,329.393Z" transform="translate(-74.444 -184.547)" fill="#a59b95"/>
    <path id="Trazado_716223" data-name="Trazado 716223" d="M208.813,233.852l-.475-5.511a11.8,11.8,0,0,0-9.363-10.585l-.533-.117-.369,1.747.534.117a10.021,10.021,0,0,1,7.946,8.994l.476,5.482a10.143,10.143,0,0,0-8.547,9.993v2.979h1.795v-2.979a8.334,8.334,0,1,1,16.668,0v2.979h1.795v-2.979A10.144,10.144,0,0,0,208.813,233.852Z" transform="translate(-112.527 -122.508)"/>
    <path id="Trazado_716224" data-name="Trazado 716224" d="M204.141,305.951a4.254,4.254,0,0,1-4.249-4.249V285.528h.892V301.7a3.358,3.358,0,0,0,3.357,3.357Z" transform="translate(-113.561 -161.076)" fill="#d4cfbe"/>
    <path id="Trazado_716225" data-name="Trazado 716225" d="M210.857,329.9l-.97.116a.178.178,0,0,0-.155.175v1a.178.178,0,0,0,.155.174l.97.117a.792.792,0,1,0,0-1.572Z" transform="translate(-119.151 -186.282)" fill="#a59b95"/>
    <path id="Trazado_716226" data-name="Trazado 716226" d="M235.206,305.951a4.254,4.254,0,0,0,4.25-4.249V285.528h-.893V301.7a3.358,3.358,0,0,1-3.357,3.357Z" transform="translate(-133.624 -161.076)" fill="#d4cfbe"/>
    <path id="Trazado_716227" data-name="Trazado 716227" d="M231.449,329.9l.97.116a.178.178,0,0,1,.155.175v1a.177.177,0,0,1-.155.174l-.97.117a.792.792,0,1,1,0-1.572Z" transform="translate(-130.982 -186.282)" fill="#a59b95"/>
    <path id="Trazado_716228" data-name="Trazado 716228" d="M161.445,208.968c-2.668,0-8.926.582-12.234,2.843v5.948H173.69v-5.948c-3.309-2.251-9.567-2.843-12.234-2.843Z" transform="translate(-84.769 -117.581)" fill="#5aa5c7"/>
    <path id="Trazado_716229" data-name="Trazado 716229" d="M152.738,163.679v29.175a10.721,10.721,0,0,0,21.442,0V163.679Z" transform="translate(-86.773 -91.852)" fill="#bd6c67"/>
    <path id="Trazado_716230" data-name="Trazado 716230" d="M152.738,163.679v18.648l1.795,1.494a13.4,13.4,0,0,0,17.852,0l1.795-1.494V163.679Z" transform="translate(-86.773 -91.852)" fill="#9a4550"/>
    <path id="Trazado_716231" data-name="Trazado 716231" d="M145.77,215.528c2.4,5.811,9.644,11.138,9.644,11.138l-5.336,10.6c-9.227-12.37-6.568-16.154-6.568-16.154Z" transform="translate(-81.328 -121.308)" fill="#aaf1f7"/>
    <path id="Trazado_716232" data-name="Trazado 716232" d="M193.2,215.528c-2.4,5.811-9.644,11.138-9.644,11.138l5.336,10.6c9.227-12.37,6.569-16.154,6.569-16.154Z" transform="translate(-104.283 -121.308)" fill="#aaf1f7"/>
    <path id="Trazado_716233" data-name="Trazado 716233" d="M172.737,241.317l-2.6,6.355-2.59-6.355-3.037,6.045,5.627,3.668,5.637-3.668Z" transform="translate(-93.46 -135.959)" fill="#5aa5c7"/>
    <path id="Trazado_716234" data-name="Trazado 716234" d="M164.611,60.079a39.362,39.362,0,1,0-45.206,32.484A39.361,39.361,0,0,0,164.611,60.079Z" transform="translate(-49.085 -7.016)"/>
    <path id="Trazado_716235" data-name="Trazado 716235" d="M106.2,156.617a8.072,8.072,0,1,0-8.072-8.072A8.072,8.072,0,0,0,106.2,156.617Z" transform="translate(-55.747 -78.668)" fill="#bd6c67"/>
    <path id="Trazado_716236" data-name="Trazado 716236" d="M115.476,153.574a4.25,4.25,0,1,1-4.249-4.25A4.248,4.248,0,0,1,115.476,153.574Z" transform="translate(-60.775 -83.697)" fill="#a64f5a"/>
    <path id="Trazado_716237" data-name="Trazado 716237" d="M227.665,156.617a8.072,8.072,0,1,0-8.072-8.072A8.072,8.072,0,0,0,227.665,156.617Z" transform="translate(-124.754 -78.668)" fill="#bd6c67"/>
    <path id="Trazado_716238" data-name="Trazado 716238" d="M232.694,157.823a4.25,4.25,0,1,0-4.25-4.249A4.25,4.25,0,0,0,232.694,157.823Z" transform="translate(-129.782 -83.697)" fill="#a64f5a"/>
    <path id="Trazado_716239" data-name="Trazado 716239" d="M142.365,52.3a26.741,26.741,0,0,0-26.739,26.739v1.348a26.707,26.707,0,0,0,.7,6.084l3.881,16.62a19.2,19.2,0,0,0,8.431,11.866l2.95,1.873a20.106,20.106,0,0,0,21.558,0l2.949-1.873a19.2,19.2,0,0,0,8.431-11.866l3.881-16.62a26.791,26.791,0,0,0,.7-6.084V79.038A26.74,26.74,0,0,0,142.365,52.3Z" transform="translate(-65.689 -28.575)" fill="#bd6c67"/>
    <path id="Trazado_716240" data-name="Trazado 716240" d="M139.871,110.38a9.4,9.4,0,0,0-7.306,4.046l14.941-.669A9.376,9.376,0,0,0,139.871,110.38Z" transform="translate(-75.312 -61.567)"/>
    <path id="Trazado_716241" data-name="Trazado 716241" d="M150.119,130.244a2.464,2.464,0,1,1-2.464-2.464A2.468,2.468,0,0,1,150.119,130.244Z" transform="translate(-82.484 -71.457)"/>
    <path id="Trazado_716242" data-name="Trazado 716242" d="M195.576,110.38a9.4,9.4,0,0,1,7.306,4.046l-14.942-.669A9.39,9.39,0,0,1,195.576,110.38Z" transform="translate(-106.771 -61.567)"/>
    <path id="Trazado_716243" data-name="Trazado 716243" d="M198.5,130.244a2.464,2.464,0,1,0,2.464-2.464A2.468,2.468,0,0,0,198.5,130.244Z" transform="translate(-112.77 -71.457)"/>
    <path id="Trazado_716244" data-name="Trazado 716244" d="M175.767,154.9H164.532a16.36,16.36,0,0,0,2.833,2.057,5.886,5.886,0,0,0,3.405.844C172.594,157.612,174.409,156.127,175.767,154.9Z" transform="translate(-93.473 -86.862)" fill="#a64f5a"/>
    <path id="Trazado_716245" data-name="Trazado 716245" d="M173.816,169H150.065a35.535,35.535,0,0,0,5.986,4.346,12.321,12.321,0,0,0,7.209,1.785C167.121,174.747,170.944,171.613,173.816,169Z" transform="translate(-85.254 -94.877)" fill="#fff"/>
    <path id="Trazado_716246" data-name="Trazado 716246" d="M175.629,187.222H163.521a9.936,9.936,0,0,0,5.976,2.329A10.356,10.356,0,0,0,175.629,187.222Z" transform="translate(-92.899 -105.227)" fill="#a64f5a"/>
    <path id="Trazado_716247" data-name="Trazado 716247" d="M163.3,90.38a27.884,27.884,0,0,1-4.162-16.154,14.364,14.364,0,0,1-11.9-8.9,15.011,15.011,0,0,1-9.062,2.464,14.946,14.946,0,0,1-9.062-2.464,14.328,14.328,0,0,1-11.9,8.9,28.032,28.032,0,0,1-4.163,16.154l-4.8-4.8V52.3h57.7V84.9Z" transform="translate(-61.49 -28.575)"/>
    <path id="Trazado_716248" data-name="Trazado 716248" d="M544.041,110.37H423.491a16.407,16.407,0,0,0-16.406,16.406v80.3a16.407,16.407,0,0,0,16.406,16.406h120.55a16.407,16.407,0,0,0,16.406-16.406v-80.3A16.407,16.407,0,0,0,544.041,110.37Z" transform="translate(-231.27 -61.567)" fill="#b0d3e9"/>
    <path id="Trazado_716249" data-name="Trazado 716249" d="M544.041,529.36H423.491a16.407,16.407,0,0,0-16.406,16.406v80.3a16.407,16.407,0,0,0,16.406,16.406h120.55a16.407,16.407,0,0,0,16.406-16.406v-80.3A16.407,16.407,0,0,0,544.041,529.36Z" transform="translate(-231.27 -299.601)" fill="#b0d3e9"/>
    <path id="Trazado_716250" data-name="Trazado 716250" d="M568.709,688.5l-3.085-20.462a28.185,28.185,0,0,0-19.618-22.752l-27.894-8.548-27.894,8.548A28.17,28.17,0,0,0,470.6,668.042L467.515,688.5l15.7,2.542v12.419H553.03V691.046l15.7-2.542Z" transform="translate(-265.602 -360.606)" fill="#4db1f0"/>
    <path id="Trazado_716251" data-name="Trazado 716251" d="M464.509,756.592l-2.251,14.961h17.949V759.144Z" transform="translate(-262.615 -428.694)" fill="#f0bf9c"/>
    <path id="Trazado_716252" data-name="Trazado 716252" d="M681.172,756.592l-15.7,2.552v12.409h17.949Z" transform="translate(-378.065 -428.694)" fill="#f0bf9c"/>
    <path id="Trazado_716253" data-name="Trazado 716253" d="M480.207,739.311l-16.465-2.668-1.484,8.257,17.949,2.911Z" transform="translate(-262.615 -417.361)" fill="#22598b"/>
    <path id="Trazado_716254" data-name="Trazado 716254" d="M665.474,739.311l16.465-2.668,1.484,8.257-17.949,2.911Z" transform="translate(-378.065 -417.361)" fill="#22598b"/>
    <path id="Trazado_716255" data-name="Trazado 716255" d="M564.41,659.468,554.136,671.1l-4.909-21.083a7.743,7.743,0,0,1,.184-4.153l1.068-3.24a7.714,7.714,0,0,1,6.694-5.269l7.238-.592v22.7Z" transform="translate(-311.91 -360.619)" fill="#22598b"/>
    <path id="Trazado_716256" data-name="Trazado 716256" d="M584.646,659.468,594.921,671.1l4.909-21.083a7.739,7.739,0,0,0-.184-4.153l-1.067-3.24a7.714,7.714,0,0,0-6.694-5.269l-7.238-.592v22.7Z" transform="translate(-332.146 -360.619)" fill="#22598b"/>
    <path id="Trazado_716257" data-name="Trazado 716257" d="M581.353,689.332l-2.5,44.01h4.24Z" transform="translate(-328.853 -390.483)" fill="#2e6a90" opacity="0.5"/>
    <path id="Trazado_716258" data-name="Trazado 716258" d="M497.015,738.983V699.262l-5.171,39.721Z" transform="translate(-279.423 -396.124)" fill="#2e6a90" opacity="0.5"/>
    <path id="Trazado_716259" data-name="Trazado 716259" d="M665.474,738.983V699.262l5.162,39.721Z" transform="translate(-378.065 -396.124)" fill="#2e6a90" opacity="0.5"/>
    <path id="Trazado_716260" data-name="Trazado 716260" d="M516.567,649.059l-3.26,4.8a2.22,2.22,0,0,1-1.271.9l-13.253,3.483a.89.89,0,0,1-.97-.369l-.786-1.193a.661.661,0,0,1,.136-.873l3.24-2.629a2.782,2.782,0,0,1,.931-.495l14.65-4.4a.515.515,0,0,1,.573.786Z" transform="translate(-282.307 -367.15)" fill="#454f6b"/>
    <path id="Trazado_716261" data-name="Trazado 716261" d="M527.74,648.487l-3.725,4.929,2.464-.66,3.735-4.938Z" transform="translate(-297.7 -366.898)" fill="#eecda6"/>
    <path id="Trazado_716262" data-name="Trazado 716262" d="M517.909,651.016l-3.735,4.938,2.464-.669,3.735-4.929Z" transform="translate(-292.109 -368.34)" fill="#eecda6"/>
    <path id="Trazado_716263" data-name="Trazado 716263" d="M508.069,653.555l-3.735,4.939,2.474-.669,3.725-4.929Z" transform="translate(-286.519 -369.783)" fill="#eecda6"/>
    <path id="Trazado_716264" data-name="Trazado 716264" d="M626.758,649.059l3.26,4.8a2.222,2.222,0,0,0,1.271.9l13.253,3.483a.89.89,0,0,0,.97-.369l.786-1.193a.662.662,0,0,0-.136-.873l-3.24-2.629a2.785,2.785,0,0,0-.932-.495l-14.641-4.4a.515.515,0,0,0-.573.786Z" transform="translate(-356.027 -367.15)" fill="#454f6b"/>
    <path id="Trazado_716265" data-name="Trazado 716265" d="M633.388,648.487l3.735,4.929-2.464-.66-3.735-4.938Z" transform="translate(-358.436 -366.898)" fill="#eecda6"/>
    <path id="Trazado_716266" data-name="Trazado 716266" d="M643.227,651.016l3.726,4.938-2.464-.669-3.726-4.929Z" transform="translate(-364.026 -368.34)" fill="#eecda6"/>
    <path id="Trazado_716267" data-name="Trazado 716267" d="M653.054,653.555l3.725,4.939-2.464-.669L650.58,652.9Z" transform="translate(-369.604 -369.783)" fill="#eecda6"/>
    <path id="Trazado_716268" data-name="Trazado 716268" d="M627.7,724.449l-3.173-2.95-1.378.99a3.432,3.432,0,0,1-4.269-.213l-1.465-1.291-1.465,1.291a3.432,3.432,0,0,1-4.269.213l-1.378-.99-3.173,2.95.747.893a5.174,5.174,0,0,1,.932,5.045,5.108,5.108,0,0,0,2.076,6l6.539,4.172,6.54-4.172a5.118,5.118,0,0,0,2.076-6,5.172,5.172,0,0,1,.932-5.045l.747-.893Z" transform="translate(-344.921 -408.465)" fill="#eecda6"/>
    <path id="Trazado_716269" data-name="Trazado 716269" d="M538.1,727.972h-21.19v3.347H538.1Z" transform="translate(-293.667 -412.435)" fill="#454f6b"/>
    <path id="Trazado_716270" data-name="Trazado 716270" d="M581.255,591.992h-21.5v24.974a10.718,10.718,0,0,0,2.1,6.365h-.01l.174.213c.117.146.223.291.349.427l8.15,10.071,8.15-10.071c.117-.136.233-.281.349-.427l.165-.213h-.01a10.715,10.715,0,0,0,2.1-6.365V591.992Z" transform="translate(-318.005 -335.183)" fill="#f0bf9c"/>
    <path id="Trazado_716271" data-name="Trazado 716271" d="M559.729,591.992v18.7l1.795,1.494a13.424,13.424,0,0,0,17.891,0l1.795-1.494v-18.7H559.729Z" transform="translate(-317.979 -335.183)" fill="#b96b6c"/>
    <path id="Trazado_716272" data-name="Trazado 716272" d="M517.639,582.967a8.092,8.092,0,1,0-11.443,0A8.091,8.091,0,0,0,517.639,582.967Z" transform="translate(-286.23 -322.208)" fill="#f0bf9c"/>
    <path id="Trazado_716273" data-name="Trazado 716273" d="M512.691,582.278a4.259,4.259,0,1,0,4.259-4.259A4.259,4.259,0,0,0,512.691,582.278Z" transform="translate(-291.267 -327.244)" fill="#e78882"/>
    <path id="Trazado_716274" data-name="Trazado 716274" d="M641.822,582.947a8.092,8.092,0,1,0-11.443,0A8.091,8.091,0,0,0,641.822,582.947Z" transform="translate(-356.78 -322.196)" fill="#f0bf9c"/>
    <path id="Trazado_716275" data-name="Trazado 716275" d="M645.4,582.278a4.259,4.259,0,1,1-4.259-4.259A4.259,4.259,0,0,1,645.4,582.278Z" transform="translate(-361.819 -327.244)" fill="#e78882"/>
    <path id="Trazado_716276" data-name="Trazado 716276" d="M549.37,480.724a26.817,26.817,0,0,0-26.817,26.817v1.348a26.354,26.354,0,0,0,.708,6.1l3.891,16.659a19.3,19.3,0,0,0,8.45,11.9l2.959,1.872a20.205,20.205,0,0,0,21.617,0l2.959-1.872a19.26,19.26,0,0,0,8.45-11.9l3.891-16.659a26.905,26.905,0,0,0,.708-6.1v-1.348A26.817,26.817,0,0,0,549.37,480.724Z" transform="translate(-296.87 -271.97)" fill="#f0bf9c"/>
    <path id="Trazado_716277" data-name="Trazado 716277" d="M546.862,538.963a9.4,9.4,0,0,0-7.325,4.056l14.98-.669A9.406,9.406,0,0,0,546.862,538.963Z" transform="translate(-306.519 -305.051)"/>
    <path id="Trazado_716278" data-name="Trazado 716278" d="M554.671,561.337a2.464,2.464,0,1,0-2.464-2.464A2.464,2.464,0,0,0,554.671,561.337Z" transform="translate(-313.717 -314.967)"/>
    <path id="Trazado_716279" data-name="Trazado 716279" d="M602.725,538.963a9.4,9.4,0,0,1,7.325,4.056l-14.98-.669A9.406,9.406,0,0,1,602.725,538.963Z" transform="translate(-338.068 -305.051)"/>
    <path id="Trazado_716280" data-name="Trazado 716280" d="M608.115,561.337a2.464,2.464,0,1,0-2.464-2.464A2.464,2.464,0,0,0,608.115,561.337Z" transform="translate(-344.079 -314.967)"/>
    <path id="Trazado_716281" data-name="Trazado 716281" d="M583.326,585.388h-8.3a12.446,12.446,0,0,0,2.1,1.523,4.282,4.282,0,0,0,2.513.621A7.32,7.32,0,0,0,583.326,585.388Z" transform="translate(-326.683 -331.431)" fill="#e78882"/>
    <path id="Trazado_716282" data-name="Trazado 716282" d="M583.363,616.142H575.3a6.649,6.649,0,0,0,3.978,1.552A6.835,6.835,0,0,0,583.363,616.142Z" transform="translate(-326.837 -348.903)" fill="#e78882"/>
    <path id="Trazado_716283" data-name="Trazado 716283" d="M580.995,602.3H557.913a18.9,18.9,0,0,0,11.391,4.443C573.485,606.854,577.628,604.788,580.995,602.3Z" transform="translate(-316.958 -341.041)" fill="#fff"/>
    <path id="Trazado_716284" data-name="Trazado 716284" d="M577.233,563.919a58.653,58.653,0,0,0,.2-13.554c.563,1.824.864,3.134,1.31,4.686a13.979,13.979,0,0,1,.728,4.754,5.185,5.185,0,0,1-2.231,4.114Z" transform="translate(-327.934 -311.534)" fill="#e78882"/>
    <path id="Trazado_716285" data-name="Trazado 716285" d="M541.38,448.15c2.891,0,6.617,2.736,7.723,5.385.553,1.329.6,2.823,1.087,4.191s1.659,2.688,3.095,2.571c2.785-.233,2.93-4.948,5.6-5.783,1.446-.456,2.988.534,3.832,1.785a32.327,32.327,0,0,1,1.873,4.123,4.621,4.621,0,0,0,3.279,2.853c1.892.233,4.046-1.358,5.559-.194,1.193.912.9,2.755.563,4.22-1.941,8.4-1.2,9.673-1.523,18.289s-2.523,18.4-8.227,24.867l3.58-15.543c-4.677-5.307-8.208-14.806-8.131-21.879l-8.664,1.553a54.782,54.782,0,0,1-19.269,0l-8.664-1.553c.078,7.073-3.454,16.571-8.131,21.879l3.58,15.543c-5.7-6.471-7.907-16.242-8.227-24.867s.417-9.887-1.523-18.289c-.339-1.465-.641-3.309.563-4.22,1.513-1.155,3.667.427,5.559.194a4.642,4.642,0,0,0,3.279-2.853,32.267,32.267,0,0,1,1.873-4.123c.844-1.252,2.387-2.232,3.832-1.785,2.659.834,2.814,5.559,5.6,5.783,1.436.117,2.619-1.2,3.095-2.571s.524-2.853,1.087-4.191c1.106-2.639,4.54-5.385,7.723-5.385Z" transform="translate(-288.88 -253.464)"/>
    <path id="Trazado_716286" data-name="Trazado 716286" d="M556.292,431.916c-10.934,2.406-12.914-10.634-26.817-10.634s-15.883,13.04-26.817,10.634-23.169,3.328-8.091,16.125c9.343,8.063,34.908,7.034,34.908,7.034s25.566,1.029,34.909-7.034C579.461,435.244,567.226,429.51,556.292,431.916Z" transform="translate(-276.974 -238.2)" fill="#4db1f0"/>
    <path id="Trazado_716287" data-name="Trazado 716287" d="M581.425,443.594l-3.173-2.949-1.378.99a3.432,3.432,0,0,1-4.269-.214l-1.465-1.29-1.465,1.29a3.432,3.432,0,0,1-4.269.214l-1.378-.99-3.173,2.949.747.893a5.174,5.174,0,0,1,.931,5.045,5.113,5.113,0,0,0,2.076,6l6.539,4.172,6.539-4.172a5.117,5.117,0,0,0,2.077-6,5.174,5.174,0,0,1,.931-5.045l.747-.893Z" transform="translate(-318.63 -248.908)" fill="#eecda6"/>
    <path id="Trazado_716288" data-name="Trazado 716288" d="M543.4,509.994l-31.358-1.009c8.839,12.943,25.478,13.331,31.358,13.331s22.519-.388,31.358-13.331Z" transform="translate(-290.897 -288.025)" fill="#454f6b"/>
    <path id="Trazado_716289" data-name="Trazado 716289" d="M538.727,485.986a216.3,216.3,0,0,1-34.909-2.746l2.008,10.837a169.127,169.127,0,0,0,65.8,0l2.008-10.837A216.294,216.294,0,0,1,538.727,485.986Z" transform="translate(-286.226 -273.399)" fill="#3076b6"/>
    <path id="Trazado_716290" data-name="Trazado 716290" d="M136.957,529.361H16.406A16.407,16.407,0,0,0,0,545.768v80.3a16.407,16.407,0,0,0,16.406,16.406h120.55a16.407,16.407,0,0,0,16.406-16.406v-80.3A16.407,16.407,0,0,0,136.957,529.361Z" transform="translate(0 -299.601)" fill="#b0d3e9"/>
    <path id="Trazado_716291" data-name="Trazado 716291" d="M168.345,559.666H115.177v47.716h53.168Z" transform="translate(-65.434 -316.818)" fill="#636363"/>
    <path id="Trazado_716292" data-name="Trazado 716292" d="M239.66,628.94a25.673,25.673,0,0,0,5.472,15.834l4.414,5.618-19.036-6.384V626.117l9.14,2.823Z" transform="translate(-130.957 -354.57)"/>
    <path id="Trazado_716293" data-name="Trazado 716293" d="M88.783,628.94a25.673,25.673,0,0,1-5.472,15.834L78.9,650.392l19.036-6.384V626.117l-9.14,2.823Z" transform="translate(-44.822 -354.57)"/>
    <path id="Trazado_716294" data-name="Trazado 716294" d="M173.33,642.242,160.2,638.225l-12.564,3.852,12.913,14.457Z" transform="translate(-83.876 -361.448)" fill="#f0bf9c"/>
    <path id="Trazado_716295" data-name="Trazado 716295" d="M158.669,699.174l-.951-6.277-1.223-8.082-.029-.2-1.242-8.256-.311-2.047a28.452,28.452,0,0,0-1-4.269,28.042,28.042,0,0,0-18.454-18.289l-13.244-4.055-1.29-.4-12.768,14.291L95.236,647.121l-1.844.563-13.243,4.055a28.043,28.043,0,0,0-18.454,18.289,28.181,28.181,0,0,0-1,4.269l-.31,2.047L59.143,684.6v.087l-1.252,8.2-.951,6.277L55.4,709.419H160.211l-1.543-10.256Z" transform="translate(-31.472 -366.502)" fill="#f0f0f0"/>
    <path id="Trazado_716296" data-name="Trazado 716296" d="M161.445,625.757c-2.668,0-8.926.582-12.234,2.843v5.948H173.69V628.6c-3.309-2.251-9.567-2.843-12.234-2.843Z" transform="translate(-84.769 -354.365)" fill="#e4e4e0"/>
    <path id="Trazado_716297" data-name="Trazado 716297" d="M152.052,584.017v29a10.653,10.653,0,0,0,21.306,0v-29H152.052Z" transform="translate(-86.377 -330.652)" fill="#f0bf9c"/>
    <path id="Trazado_716298" data-name="Trazado 716298" d="M152.064,584.017v18.541l1.785,1.484a13.33,13.33,0,0,0,17.755,0l1.785-1.484V584.017H152.064Z" transform="translate(-86.39 -330.652)" fill="#b66365"/>
    <path id="Trazado_716299" data-name="Trazado 716299" d="M145.77,632.339c2.4,5.812,9.644,11.138,9.644,11.138l-5.336,10.6c-9.227-12.37-6.568-16.154-6.568-16.154Z" transform="translate(-81.328 -358.104)" fill="#fff"/>
    <path id="Trazado_716300" data-name="Trazado 716300" d="M193.2,632.339c-2.4,5.812-9.644,11.138-9.644,11.138l5.336,10.6c9.227-12.37,6.569-16.154,6.569-16.154Z" transform="translate(-104.283 -358.104)" fill="#fff"/>
    <path id="Trazado_716301" data-name="Trazado 716301" d="M172.393,658.129l-2.6,6.355-2.59-6.355-3.3,6.559,5.889,3.153,5.637-3.667Z" transform="translate(-93.116 -372.756)" fill="#e4e4e0"/>
    <path id="Trazado_716302" data-name="Trazado 716302" d="M105.813,577.017a8.024,8.024,0,1,0-8.024-8.024A8.024,8.024,0,0,0,105.813,577.017Z" transform="translate(-55.555 -317.558)" fill="#f0bf9c"/>
    <path id="Trazado_716303" data-name="Trazado 716303" d="M115.036,574a4.221,4.221,0,1,1-4.22-4.22A4.224,4.224,0,0,1,115.036,574Z" transform="translate(-60.558 -322.561)" fill="#e78882"/>
    <path id="Trazado_716304" data-name="Trazado 716304" d="M226.561,577.017a8.024,8.024,0,1,0-8.024-8.024A8.024,8.024,0,0,0,226.561,577.017Z" transform="translate(-124.154 -317.558)" fill="#f0bf9c"/>
    <path id="Trazado_716305" data-name="Trazado 716305" d="M231.564,578.216a4.221,4.221,0,1,0-4.22-4.221A4.221,4.221,0,0,0,231.564,578.216Z" transform="translate(-129.157 -322.561)" fill="#e78882"/>
    <path id="Trazado_716306" data-name="Trazado 716306" d="M141.761,473.311A26.587,26.587,0,0,0,115.177,499.9v1.339a26.536,26.536,0,0,0,.7,6.054l3.861,16.523a19.156,19.156,0,0,0,8.383,11.8l2.93,1.863a20.011,20.011,0,0,0,21.442,0l2.93-1.863a19.154,19.154,0,0,0,8.382-11.8l3.862-16.523a26.451,26.451,0,0,0,.7-6.054V499.9a26.588,26.588,0,0,0-26.584-26.584Z" transform="translate(-65.434 -267.758)" fill="#f0bf9c"/>
    <path id="Trazado_716307" data-name="Trazado 716307" d="M139.283,531.046a9.3,9.3,0,0,0-7.257,4.026l14.854-.66a9.318,9.318,0,0,0-7.587-3.357Z" transform="translate(-75.006 -300.558)"/>
    <path id="Trazado_716308" data-name="Trazado 716308" d="M194.639,531.046a9.3,9.3,0,0,1,7.257,4.026l-14.854-.66a9.318,9.318,0,0,1,7.587-3.357Z" transform="translate(-106.261 -300.558)"/>
    <path id="Trazado_716309" data-name="Trazado 716309" d="M175.647,582.4h-6.869a9.675,9.675,0,0,0,1.737,1.261,3.521,3.521,0,0,0,2.086.514,6.116,6.116,0,0,0,3.056-1.776Z" transform="translate(-95.885 -329.733)" fill="#e78882"/>
    <path id="Trazado_716310" data-name="Trazado 716310" d="M176.033,609.111h-4.492a3.689,3.689,0,0,0,2.222.863,3.86,3.86,0,0,0,2.28-.863Z" transform="translate(-97.455 -344.908)" fill="#e78882"/>
    <path id="Trazado_716311" data-name="Trazado 716311" d="M173.9,596.845h-18a14.726,14.726,0,0,0,8.877,3.464c3.26.078,6.491-1.523,9.11-3.464Z" transform="translate(-88.572 -337.94)" fill="#fff"/>
    <path id="Trazado_716312" data-name="Trazado 716312" d="M144.323,547.628a2.423,2.423,0,0,0-1.746.738,28.372,28.372,0,0,1-2.755-1.281,5.47,5.47,0,0,0,2.115,2.455,2.518,2.518,0,0,0-.068.543,2.445,2.445,0,1,0,2.445-2.445Z" transform="translate(-79.434 -309.67)"/>
    <path id="Trazado_716313" data-name="Trazado 716313" d="M200.035,547.628a2.425,2.425,0,0,1,1.747.738,28.372,28.372,0,0,0,2.755-1.281,5.471,5.471,0,0,1-2.115,2.455,2.518,2.518,0,0,1,.068.543,2.445,2.445,0,1,1-2.445-2.445Z" transform="translate(-112.259 -309.67)"/>
    <path id="Trazado_716314" data-name="Trazado 716314" d="M137.958,460.551h-7.587a28.583,28.583,0,0,0-28.583,28.583V534.88l9.14-2.823V494.131A18.576,18.576,0,0,1,114,492.18a25.59,25.59,0,0,1,1.62-8.577,37.238,37.238,0,0,0-.2,7.917,35.365,35.365,0,0,1,8.655-2.358,32.556,32.556,0,0,1,2.2-10.847,54.575,54.575,0,0,0-.4,10.6,69.456,69.456,0,0,1,8.286-.456,71.523,71.523,0,0,1,8.286.456,53.865,53.865,0,0,0-.4-10.6,32.556,32.556,0,0,1,2.2,10.847,35.37,35.37,0,0,1,8.655,2.358,37.239,37.239,0,0,0-.2-7.917,26.094,26.094,0,0,1,1.62,8.577,18.574,18.574,0,0,1,3.075,1.95v37.926l9.14,2.823V489.134A28.583,28.583,0,0,0,137.958,460.551Z" transform="translate(-57.827 -260.509)"/>
    <path id="Trazado_716315" data-name="Trazado 716315" d="M148.333,561.483a12.649,12.649,0,0,0-7.636-.786A12.65,12.65,0,0,0,148.333,561.483Z" transform="translate(-79.932 -317.247)" fill="#e78882"/>
    <path id="Trazado_716316" data-name="Trazado 716316" d="M195.084,561.483a12.649,12.649,0,0,1,7.636-.786A12.65,12.65,0,0,1,195.084,561.483Z" transform="translate(-110.83 -317.247)" fill="#e78882"/>
    <path id="Trazado_716317" data-name="Trazado 716317" d="M137.449,438.76H126.99a28.414,28.414,0,0,0-28.292,25.8l-.931,10.061,34.443-.65,34.443.65-.932-10.061a28.414,28.414,0,0,0-28.292-25.8Z" transform="translate(-55.543 -248.129)" fill="#ffa031"/>
    <path id="Trazado_716318" data-name="Trazado 716318" d="M173.588,469.1h-20l2.639-35.51h14.718Z" transform="translate(-87.258 -245.194)" fill="#f5d896"/>
    <path id="Trazado_716319" data-name="Trazado 716319" d="M131.883,507.188c-11.186,0-23.673,1.543-34.093,6.306,12.739,7.209,27.632,5.152,34.093,5.152s21.355,2.057,34.094-5.152C155.556,508.731,143.069,507.188,131.883,507.188Z" transform="translate(-55.555 -287.004)" fill="#ffa031"/>
    <path id="Trazado_716320" data-name="Trazado 716320" d="M164.977,514.009c.33-.175.669-.33,1-.514-10.42-4.764-22.907-6.306-34.094-6.306s-23.673,1.543-34.093,6.306c.33.184.669.339,1,.514a162.619,162.619,0,0,1,33.094-3.114A162.62,162.62,0,0,1,164.977,514.009Z" transform="translate(-55.555 -287.004)" fill="#cc8027"/>
    <path id="Trazado_716321" data-name="Trazado 716321" d="M108.9,648.447l2.008,61.735H83.725l-.718-51.6a4.624,4.624,0,0,1,3.493-4.54Z" transform="translate(-47.157 -367.256)" fill="#ffa031"/>
    <path id="Trazado_716322" data-name="Trazado 716322" d="M83.948,736.49l26.778-1.6-.213-6.423-26.652,1.6Z" transform="translate(-47.643 -412.716)" fill="#fbd7ac"/>
    <path id="Trazado_716323" data-name="Trazado 716323" d="M110.024,706.5l-26.477,1.582.1,6.423,26.594-1.591Z" transform="translate(-47.464 -400.234)" fill="#fbd7ac"/>
    <path id="Trazado_716324" data-name="Trazado 716324" d="M209.493,648.447l-2.008,61.735h27.186l.718-51.6a4.623,4.623,0,0,0-3.493-4.54Z" transform="translate(-117.875 -367.256)" fill="#ffa031"/>
    <path id="Trazado_716325" data-name="Trazado 716325" d="M235.813,736.49l-26.778-1.6.213-6.423,26.652,1.6Z" transform="translate(-118.756 -412.716)" fill="#fbd7ac"/>
    <path id="Trazado_716326" data-name="Trazado 716326" d="M209.957,706.5l26.487,1.582-.1,6.423-26.594-1.591Z" transform="translate(-119.164 -400.234)" fill="#fbd7ac"/>
    <path id="Trazado_716327" data-name="Trazado 716327" d="M951.146,529.361H830.6a16.407,16.407,0,0,0-16.406,16.406v80.3A16.407,16.407,0,0,0,830.6,642.469H951.146a16.407,16.407,0,0,0,16.407-16.406v-80.3A16.407,16.407,0,0,0,951.146,529.361Z" transform="translate(-462.553 -299.601)" fill="#b0d3e9"/>
    <path id="Trazado_716328" data-name="Trazado 716328" d="M981.673,565.273a27.748,27.748,0,1,0-33.44,20.533A27.745,27.745,0,0,0,981.673,565.273Z" transform="translate(-526.603 -300.569)"/>
    <path id="Trazado_716329" data-name="Trazado 716329" d="M971.711,680.747l-1.231-8.15-.3-2.018a26.656,26.656,0,0,0-.989-4.211,27.718,27.718,0,0,0-8.957-13.127c-.544-.447-1.106-.864-1.689-1.271a27.488,27.488,0,0,0-7.584-3.687l-27.333-8.373L896.3,648.283a27.657,27.657,0,0,0-7.587,3.687c-.747.514-1.465,1.077-2.164,1.659a27.187,27.187,0,0,0-3.813,3.949,27.524,27.524,0,0,0-4.676,8.781,27.974,27.974,0,0,0-.99,4.211l-.3,2.018-4.929,32.687H975.408Z" transform="translate(-495.302 -362.406)" fill="#fff"/>
    <path id="Trazado_716330" data-name="Trazado 716330" d="M899.9,721.48l-2.1,30.135H891.65Z" transform="translate(-506.559 -408.747)" fill="#2e6a90" opacity="0.25"/>
    <path id="Trazado_716331" data-name="Trazado 716331" d="M1072.74,721.48l2.095,30.135h6.141Z" transform="translate(-609.439 -408.747)" fill="#2e6a90" opacity="0.25"/>
    <path id="Trazado_716332" data-name="Trazado 716332" d="M975.05,628.61c-3.134,0-10.527.708-12.681,5.919v4.7l12.681,3.639,12.68-3.639v-4.7C985.575,629.318,978.183,628.61,975.05,628.61Z" transform="translate(-546.735 -355.986)" fill="#99a3b0"/>
    <path id="Trazado_716333" data-name="Trazado 716333" d="M967.343,586.354V615a10.526,10.526,0,1,0,21.052,0V586.354H967.343Z" transform="translate(-549.555 -331.98)" fill="#bd6c67"/>
    <path id="Trazado_716334" data-name="Trazado 716334" d="M967.356,586.354v18.318l1.766,1.465a13.164,13.164,0,0,0,17.541,0l1.766-1.465V586.354H967.356Z" transform="translate(-549.568 -331.98)" fill="#9d5254"/>
    <path id="Trazado_716335" data-name="Trazado 716335" d="M926.692,577.587a7.927,7.927,0,1,0-11.157-1.084A7.926,7.926,0,0,0,926.692,577.587Z" transform="translate(-519.102 -319.019)" fill="#bd6c67"/>
    <path id="Trazado_716336" data-name="Trazado 716336" d="M926.6,580.59a4.172,4.172,0,1,0-4.172-4.172A4.172,4.172,0,0,0,926.6,580.59Z" transform="translate(-524.043 -323.965)" fill="#a64f5a"/>
    <path id="Trazado_716337" data-name="Trazado 716337" d="M1042.216,579.368a7.927,7.927,0,1,0-9.091-6.559A7.926,7.926,0,0,0,1042.216,579.368Z" transform="translate(-586.874 -319.062)" fill="#bd6c67"/>
    <path id="Trazado_716338" data-name="Trazado 716338" d="M1045.912,580.59a4.172,4.172,0,1,0-4.172-4.172A4.174,4.174,0,0,0,1045.912,580.59Z" transform="translate(-591.827 -323.965)" fill="#a64f5a"/>
    <path id="Trazado_716339" data-name="Trazado 716339" d="M957.169,476.95A26.275,26.275,0,0,0,930.9,503.224v1.319a26.385,26.385,0,0,0,.689,5.976l3.813,16.319a18.9,18.9,0,0,0,8.276,11.652l2.891,1.834a19.748,19.748,0,0,0,21.168,0l2.894-1.834a18.878,18.878,0,0,0,8.275-11.652l3.814-16.319a26.3,26.3,0,0,0,.691-5.976v-1.319a26.276,26.276,0,0,0-26.276-26.274Z" transform="translate(-528.855 -269.826)" fill="#bd6c67"/>
    <path id="Trazado_716340" data-name="Trazado 716340" d="M953.409,532.034a9.2,9.2,0,0,0-7.17,3.978l14.67-.65a9.214,9.214,0,0,0-7.5-3.318Z" transform="translate(-537.572 -301.12)"/>
    <path id="Trazado_716341" data-name="Trazado 716341" d="M1010.778,532.034a9.2,9.2,0,0,1,7.169,3.978l-14.667-.65a9.209,9.209,0,0,1,7.5-3.318Z" transform="translate(-569.977 -301.12)"/>
    <path id="Trazado_716342" data-name="Trazado 716342" d="M990.333,584.107h-8.869a12.669,12.669,0,0,0,2.241,1.62,4.728,4.728,0,0,0,2.688.669C987.838,586.251,989.265,585.078,990.333,584.107Z" transform="translate(-557.583 -330.703)" fill="#a64f5a"/>
    <path id="Trazado_716343" data-name="Trazado 716343" d="M992.15,609.9h-7.519a6.12,6.12,0,0,0,3.716,1.446,6.437,6.437,0,0,0,3.811-1.446Z" transform="translate(-559.383 -345.355)" fill="#a64f5a"/>
    <path id="Trazado_716344" data-name="Trazado 716344" d="M959.714,550.369a2.411,2.411,0,0,0-1.727.728,27.63,27.63,0,0,1-2.717-1.271,5.405,5.405,0,0,0,2.1,2.425,2.411,2.411,0,1,0,2.348-1.882Z" transform="translate(-542.702 -311.228)"/>
    <path id="Trazado_716345" data-name="Trazado 716345" d="M1014.744,550.369a2.406,2.406,0,0,1,1.728.728,27.293,27.293,0,0,0,2.717-1.271,5.4,5.4,0,0,1-2.095,2.425,2.411,2.411,0,1,1-2.349-1.882Z" transform="translate(-575.119 -311.228)"/>
    <path id="Trazado_716346" data-name="Trazado 716346" d="M988.89,591.576a22.33,22.33,0,0,1-17.8.378c2.105,3.134,5.395,5.443,8.742,5.424s6.985-2.658,9.063-5.811Z" transform="translate(-551.687 -334.941)" fill="#fff"/>
    <path id="Trazado_716347" data-name="Trazado 716347" d="M977.2,471.3c-5.589-7.635-15.738-11.148-25.188-10.818-9.46-.32-19.6,3.192-25.187,10.818-4.667,6.375-5.714,14.835-4.56,22.645s4.744,15.708,7.869,22.965l-3.425-19.424c3.318-3.735,2.454-9.683,5.016-13.971,1.873-3.154,5.424-5.026,9.033-5.725a41.306,41.306,0,0,1,11.264-.174,41.3,41.3,0,0,1,11.263.174c3.611.689,7.161,2.562,9.035,5.725,2.548,4.3,1.689,10.236,5.014,13.971l-3.425,19.424c3.123-7.257,6.716-15.155,7.869-22.965s.108-16.27-4.561-22.645Z" transform="translate(-523.706 -260.456)"/>
    <path id="Trazado_716348" data-name="Trazado 716348" d="M973.869,658.96v-4.4a3.146,3.146,0,0,0-2.212-2.959c-4.192-1.407-8.256-5.588-9.266-9.314v5.21c0,10.226,11.478,11.448,11.478,11.448Z" transform="translate(-546.748 -363.758)" fill="#c7d2d7"/>
    <path id="Trazado_716349" data-name="Trazado 716349" d="M994.516,658.96v-4.4a3.146,3.146,0,0,1,2.212-2.959c4.19-1.407,8.259-5.588,9.265-9.314v5.21c0,10.226-11.477,11.448-11.477,11.448Z" transform="translate(-564.998 -363.758)" fill="#c7d2d7"/>
    <path id="Trazado_716350" data-name="Trazado 716350" d="M955.361,683.2l-14.117,3.522a9.27,9.27,0,0,0-7.025,8.994v34.162h3.173v-34.7a7.212,7.212,0,0,1,4.57-6.7Z" transform="translate(-530.743 -386.999)" fill="#2e6a90" opacity="0.25"/>
    <path id="Trazado_716351" data-name="Trazado 716351" d="M950.828,708.755a2.1,2.1,0,1,0-2.1-2.1A2.1,2.1,0,0,0,950.828,708.755Z" transform="translate(-538.988 -399.137)" fill="#a5bed4"/>
    <path id="Trazado_716352" data-name="Trazado 716352" d="M1027.145,708.755a2.1,2.1,0,1,0-2.095-2.1A2.095,2.095,0,0,0,1027.145,708.755Z" transform="translate(-582.345 -399.137)" fill="#a5bed4"/>
    <path id="Trazado_716353" data-name="Trazado 716353" d="M952.9,739.3a2.1,2.1,0,1,1-2.1-2.1A2.093,2.093,0,0,1,952.9,739.3Z" transform="translate(-538.975 -417.68)" fill="#a5bed4"/>
    <path id="Trazado_716354" data-name="Trazado 716354" d="M1025.05,739.3a2.095,2.095,0,1,0,2.095-2.1A2.091,2.091,0,0,0,1025.05,739.3Z" transform="translate(-582.345 -417.68)" fill="#a5bed4"/>
    <path id="Trazado_716355" data-name="Trazado 716355" d="M952.9,771.942a2.1,2.1,0,1,1-2.1-2.1A2.093,2.093,0,0,1,952.9,771.942Z" transform="translate(-538.975 -436.224)" fill="#a5bed4"/>
    <path id="Trazado_716356" data-name="Trazado 716356" d="M1025.05,771.942a2.095,2.095,0,1,0,2.095-2.1A2.091,2.091,0,0,0,1025.05,771.942Z" transform="translate(-582.345 -436.224)" fill="#a5bed4"/>
    <path id="Trazado_716357" data-name="Trazado 716357" d="M1039.24,450.8a9.892,9.892,0,0,1,12.516,3.008c2.695,3.978,1.892,9.712-1.231,13.35s-8.141,5.326-12.944,5.161c-2.816-2.727-3.986-6.927-3.766-10.837s1.991-8.8,5.424-10.692Z" transform="translate(-587.31 -254.345)" fill="#e1f3fe"/>
    <path id="Trazado_716358" data-name="Trazado 716358" d="M1051.862,453.8a9.881,9.881,0,0,0-12.516-3.008c-3.3,1.814-5.053,6.4-5.386,10.226a20.063,20.063,0,0,0,13.613-7.354,12.361,12.361,0,0,1,4.358,9.382,17.012,17.012,0,0,1-.164,2.523C1053.909,461.988,1054.189,457.243,1051.862,453.8Z" transform="translate(-587.407 -254.339)" fill="#2e6a90" opacity="0.25"/>
    <path id="Trazado_716359" data-name="Trazado 716359" d="M982.125,480.507s-3.084-1.048-8.059-2.164a27.035,27.035,0,0,1-6.124,3.59c-5.83,2.464-12.292,3.066-18.628,2.969-8.276-.126-18.231-2.455-26.39-4.948-.155.048-.3.087-.436.126-.854.262-1.32.417-1.32.417a38.919,38.919,0,0,1,.6,8.548,36.817,36.817,0,0,1-.6,5.608s17.115,2.445,30.485,2.445,30.485-2.445,30.485-2.445a40.148,40.148,0,0,1,0-14.156Z" transform="translate(-523.328 -270.617)" fill="#e1f3fe"/>
    <path id="Trazado_716360" data-name="Trazado 716360" d="M962.268,412.456c-4.742-3.774-11.592-3.823-17.327-1.853s-10.691,5.646-15.795,8.916-10.692,6.248-16.746,6.52c-2.979.136-5.976-.4-8.946-.107s-6.112,1.649-7.335,4.376c-1.552,3.434.495,7.345,2.484,10.546a29.965,29.965,0,0,0,5.1,6.733,12.25,12.25,0,0,0,3.531,2.241,38.359,38.359,0,0,0-.6-8.548s.466-.155,1.319-.417c.136-.039.281-.087.437-.126,8.169,2.494,18.124,4.822,26.39,4.948,6.335.1,12.8-.5,18.627-2.969a27.14,27.14,0,0,0,6.124-3.59,21.112,21.112,0,0,0,7.014-9.392c2.125-5.967.678-13.341-4.267-17.289Z" transform="translate(-508.788 -231.402)" fill="#e1f3fe"/>
    <path id="Trazado_716361" data-name="Trazado 716361" d="M898.244,441.959c1.484-2.3,4.22-3.493,6.918-3.968s5.462-.369,8.169-.728a32.057,32.057,0,0,0,14.612-6.4,61.658,61.658,0,0,0,5.938-5.084c-1.591,1.038-3.163,2.086-4.754,3.1-5.1,3.27-10.692,6.248-16.746,6.52-2.978.136-5.977-.4-8.945-.107s-6.113,1.649-7.335,4.376c-1.135,2.523-.34,5.288.951,7.859a8.956,8.956,0,0,1,1.2-5.559Z" transform="translate(-508.777 -240.753)" fill="#2e6a90" opacity="0.25"/>
    <path id="Trazado_716362" data-name="Trazado 716362" d="M972.737,412.465a15.406,15.406,0,0,0-9.467-3.134,14.733,14.733,0,0,1-6.327,28.612c-1.978-.223-3.93-.844-5.918-.776-3.279.116-6.18,2.057-9.276,3.153a18.848,18.848,0,0,1-14.02-.611c-1.659-.757-3.2-1.756-4.9-2.416a7.191,7.191,0,0,0-5.326-.233c-2.426,1.028-3.629,3.919-3.493,6.559a14.435,14.435,0,0,0,1.29,4.89,11.351,11.351,0,0,0,2.368,1.319,38.348,38.348,0,0,0-.6-8.547s.466-.155,1.319-.417c.136-.039.282-.087.437-.126,8.169,2.493,18.124,4.822,26.39,4.948,6.335.1,12.8-.5,18.627-2.969a27.16,27.16,0,0,0,6.124-3.59,21.112,21.112,0,0,0,7.014-9.392c2.125-5.967.678-13.341-4.267-17.29Z" transform="translate(-519.257 -231.41)" fill="#2e6a90" opacity="0.25"/>
    <path id="Trazado_716363" data-name="Trazado 716363" d="M981.953,485.8a24.032,24.032,0,0,0-2.155,11.351,153.3,153.3,0,0,1-55.894.078,16.631,16.631,0,0,0-2.3-9.333,42.055,42.055,0,0,1,.165,5.4,36.806,36.806,0,0,1-.6,5.608s17.115,2.445,30.485,2.445,30.485-2.445,30.485-2.445a40.282,40.282,0,0,1-.177-13.1Z" transform="translate(-523.328 -274.855)" fill="#2e6a90" opacity="0.25"/>
    <path id="Trazado_716364" data-name="Trazado 716364" d="M566.467,280.257l-2.173-14.447-.029-.2L562.7,255.245a27.3,27.3,0,0,0-1.009-4.288,28.228,28.228,0,0,0-18.56-18.405l-10.721-3.289-2.6-.8v2.94a14.288,14.288,0,0,1-14.233,14.233h-.524a14.288,14.288,0,0,1-14.233-14.233v-2.94l-3.231.99-10.1,3.095a28.228,28.228,0,0,0-18.56,18.405,28.727,28.727,0,0,0-1.009,4.288l-1.562,10.362v.088l-2.212,14.563L462.6,290.581H568.029l-1.553-10.323Z" transform="translate(-262.807 -128.659)" fill="#eecda6"/>
    <g id="Grupo_1013248" data-name="Grupo 1013248" transform="translate(199.778 100.711)" opacity="0.25">
      <path id="Trazado_716365" data-name="Trazado 716365" d="M592.059,262.559V307.8h7.005V258.8A14.17,14.17,0,0,1,592.059,262.559Z" transform="translate(-536.135 -246.599)" fill="#cc6164"/>
      <path id="Trazado_716366" data-name="Trazado 716366" d="M624.97,230.557v61.2h7.005V232.7Z" transform="translate(-554.833 -230.557)" fill="#cc6164"/>
      <path id="Trazado_716367" data-name="Trazado 716367" d="M661.814,243.646a28.824,28.824,0,0,0-3.91-2.26V297.91h7V246.139A26.349,26.349,0,0,0,661.814,243.646Z" transform="translate(-573.543 -236.709)" fill="#cc6164"/>
      <path id="Trazado_716368" data-name="Trazado 716368" d="M696.109,307.876l-2.173-14.447-.029-.2-1.562-10.362a27.3,27.3,0,0,0-1.009-4.288c-.165-.5-.349-1-.543-1.494v41.108h6.879l-1.553-10.323Z" transform="translate(-592.227 -256.988)" fill="#cc6164"/>
      <path id="Trazado_716369" data-name="Trazado 716369" d="M559.62,257.38v49.627h7.005V261.629A14.176,14.176,0,0,1,559.62,257.38Z" transform="translate(-517.706 -245.796)" fill="#cc6164"/>
      <path id="Trazado_716370" data-name="Trazado 716370" d="M527.159,232.97v58.941h7.015V230.826Z" transform="translate(-499.265 -230.71)" fill="#cc6164"/>
      <path id="Trazado_716371" data-name="Trazado 716371" d="M498.008,243.773a27.389,27.389,0,0,0-3.289,2.678v51.6h7.005V241.609a27.812,27.812,0,0,0-3.716,2.174Z" transform="translate(-480.835 -236.836)" fill="#cc6164"/>
      <path id="Trazado_716372" data-name="Trazado 716372" d="M468.908,278.588a28.682,28.682,0,0,0-1.009,4.288l-1.562,10.362v.087l-2.212,14.563-1.553,10.323h6.879V277.1c-.184.495-.378.989-.543,1.494Z" transform="translate(-462.572 -257.001)" fill="#cc6164"/>
    </g>
    <g id="Grupo_1013249" data-name="Grupo 1013249" transform="translate(199.856 99.818)" opacity="0.25">
      <path id="Trazado_716373" data-name="Trazado 716373" d="M528.634,231.43v-2.94l-3.231.989-10.1,3.1a27.094,27.094,0,0,0-3.735,1.465h17.309a13.5,13.5,0,0,1-.252-2.6Z" transform="translate(-490.485 -228.49)" fill="#cc6164"/>
      <path id="Trazado_716374" data-name="Trazado 716374" d="M620.477,229.286l-2.6-.8v2.94a13.5,13.5,0,0,1-.252,2.6h17.309a27.646,27.646,0,0,0-3.735-1.465l-10.721-3.289Z" transform="translate(-550.737 -228.49)" fill="#cc6164"/>
      <path id="Trazado_716375" data-name="Trazado 716375" d="M525.383,262.165h-.524a14.154,14.154,0,0,1-10.478-4.628H484.314a28.034,28.034,0,0,0-4.444,7h90.5a28.033,28.033,0,0,0-4.444-7H535.862A14.153,14.153,0,0,1,525.383,262.165Z" transform="translate(-472.477 -244.992)" fill="#cc6164"/>
      <path id="Trazado_716376" data-name="Trazado 716376" d="M473.552,290.189l-1.028,6.8h96.838l-1.028-6.8c-.01-.068-.029-.136-.039-.213h-94.7C473.582,290.044,473.562,290.112,473.552,290.189Z" transform="translate(-468.304 -263.421)" fill="#cc6164"/>
      <path id="Trazado_716377" data-name="Trazado 716377" d="M467.649,329.442H568.708l-1.058-7.005H468.707Z" transform="translate(-465.534 -281.863)" fill="#cc6164"/>
      <path id="Trazado_716378" data-name="Trazado 716378" d="M462.752,361.892H568.041l-1.058-7.015H463.81Z" transform="translate(-462.752 -300.292)" fill="#cc6164"/>
    </g>
    <path id="Trazado_716379" data-name="Trazado 716379" d="M551.944,230.474a14.23,14.23,0,0,0,13.351,9.343h.524a14.288,14.288,0,0,0,14.233-14.233v-2.94l-14.5-4.444-14.495,4.444v2.94A14.1,14.1,0,0,0,551.944,230.474Z" transform="translate(-313.065 -122.827)" fill="#f2c9ad"/>
    <path id="Trazado_716380" data-name="Trazado 716380" d="M495.042,317.054l1.737-21.316,1.494-20.656-9.731,41.972Z" transform="translate(-277.548 -155.142)" fill="#2e6a90" opacity="0.5"/>
    <path id="Trazado_716381" data-name="Trazado 716381" d="M662.6,317.054l-1.737-21.316-1.5-20.656,9.741,41.972Z" transform="translate(-374.594 -155.142)" fill="#2e6a90" opacity="0.5"/>
    <path id="Trazado_716382" data-name="Trazado 716382" d="M573.146,327.2l-2.368-.757a12.635,12.635,0,0,1-8.247-8.354L557.826,302.6H519.337l-4.706,15.485a12.614,12.614,0,0,1-8.247,8.354l-2.367.757-.446,5.5h70.021Z" transform="translate(-286.086 -170.776)" fill="#35618e"/>
    <path id="Trazado_716383" data-name="Trazado 716383" d="M539.934,311.983a6.017,6.017,0,0,0,4.754-7.054l-.456-2.329h-7.257l-2.358,7.781a6,6,0,0,0,4.172,1.717,6.649,6.649,0,0,0,1.154-.107Z" transform="translate(-303.723 -170.776)" fill="#1f3a70"/>
    <path id="Trazado_716384" data-name="Trazado 716384" d="M531.461,269.283a4.075,4.075,0,0,1-4.774-3.221l-6.335-32.687,7.8-2.571,6.54,33.7a4.074,4.074,0,0,1-3.221,4.774Z" transform="translate(-295.619 -129.987)" fill="#35618e"/>
    <path id="Trazado_716385" data-name="Trazado 716385" d="M542.041,310.149a1.853,1.853,0,1,0-1.853-1.853A1.853,1.853,0,0,0,542.041,310.149Z" transform="translate(-306.888 -172.958)" fill="#5aa5c7"/>
    <path id="Trazado_716386" data-name="Trazado 716386" d="M615.939,311.983a6.017,6.017,0,0,1-4.754-7.054l.456-2.329H618.9l2.358,7.781a6,6,0,0,1-4.172,1.717,6.649,6.649,0,0,1-1.155-.107Z" transform="translate(-347.159 -170.776)" fill="#1f3a70"/>
    <path id="Trazado_716387" data-name="Trazado 716387" d="M618.87,269.283a4.074,4.074,0,0,0,4.774-3.221l6.335-32.687-7.8-2.571-6.539,33.7a4.075,4.075,0,0,0,3.221,4.774Z" transform="translate(-349.711 -129.987)" fill="#35618e"/>
    <path id="Trazado_716388" data-name="Trazado 716388" d="M622.353,310.149A1.853,1.853,0,1,0,620.5,308.3,1.853,1.853,0,0,0,622.353,310.149Z" transform="translate(-352.515 -172.958)" fill="#5aa5c7"/>
    <path id="Trazado_716389" data-name="Trazado 716389" d="M566.778,213.933c-2.959,0-9.906.65-13.583,3.153v6.6h27.156v-6.6c-3.677-2.5-10.624-3.153-13.583-3.153Z" transform="translate(-314.278 -120.402)" fill="#5aa5c7"/>
    <path id="Trazado_716390" data-name="Trazado 716390" d="M557.1,163.679v32.366a11.9,11.9,0,0,0,23.79,0V163.679Z" transform="translate(-316.499 -91.852)" fill="#422c4f"/>
    <path id="Trazado_716391" data-name="Trazado 716391" d="M549.368,221.234c2.659,6.452,10.692,12.361,10.692,12.361l-5.918,11.769c-10.246-13.729-7.286-17.92-7.286-17.92l2.513-6.2Z" transform="translate(-310.451 -124.55)" fill="#f5d896"/>
    <path id="Trazado_716392" data-name="Trazado 716392" d="M602.01,221.234c-2.658,6.452-10.692,12.361-10.692,12.361l5.918,11.769c10.246-13.729,7.286-17.92,7.286-17.92l-2.513-6.2Z" transform="translate(-335.936 -124.55)" fill="#f5d896"/>
    <path id="Trazado_716393" data-name="Trazado 716393" d="M579.3,249.831l-2.882,7.054-2.882-7.054-3.376,6.7,6.258,4.075,6.248-4.075Z" transform="translate(-323.914 -140.796)" fill="#cc8027"/>
    <path id="Trazado_716394" data-name="Trazado 716394" d="M565.138,108c0-8.305-27.661-15.038-61.774-15.038S441.59,99.693,441.59,108s27.651,15.039,61.774,15.039S565.138,116.3,565.138,108Z" transform="translate(-250.874 -51.676)" fill="#636363"/>
    <path id="Trazado_716395" data-name="Trazado 716395" d="M513.305,156.617a8.072,8.072,0,1,0-8.072-8.072A8.072,8.072,0,0,0,513.305,156.617Z" transform="translate(-287.03 -78.668)" fill="#f2c9ad"/>
    <path id="Trazado_716396" data-name="Trazado 716396" d="M518.334,157.823a4.25,4.25,0,1,0-4.25-4.249A4.249,4.249,0,0,0,518.334,157.823Z" transform="translate(-292.058 -83.697)" fill="#eba58e"/>
    <path id="Trazado_716397" data-name="Trazado 716397" d="M634.75,156.617a8.072,8.072,0,1,0-8.072-8.072A8.072,8.072,0,0,0,634.75,156.617Z" transform="translate(-356.025 -78.668)" fill="#f2c9ad"/>
    <path id="Trazado_716398" data-name="Trazado 716398" d="M639.778,157.823a4.25,4.25,0,1,0-4.249-4.249A4.249,4.249,0,0,0,639.778,157.823Z" transform="translate(-361.053 -83.697)" fill="#eba58e"/>
    <path id="Trazado_716399" data-name="Trazado 716399" d="M549.472,52.3a26.741,26.741,0,0,0-26.739,26.739v1.348a26.727,26.727,0,0,0,.7,6.084l3.881,16.62a19.2,19.2,0,0,0,8.431,11.866l2.95,1.873a20.1,20.1,0,0,0,21.558,0l2.95-1.873a19.2,19.2,0,0,0,8.431-11.866l3.881-16.62a26.768,26.768,0,0,0,.7-6.084V79.038A26.741,26.741,0,0,0,549.472,52.3Z" transform="translate(-296.972 -28.575)" fill="#f2c9ad"/>
    <path id="Trazado_716400" data-name="Trazado 716400" d="M546.955,110.38a9.4,9.4,0,0,0-7.306,4.046l14.942-.669A9.377,9.377,0,0,0,546.955,110.38Z" transform="translate(-306.582 -61.567)" fill="#8e5a61"/>
    <path id="Trazado_716401" data-name="Trazado 716401" d="M557.2,130.244a2.464,2.464,0,1,1-2.464-2.464A2.468,2.468,0,0,1,557.2,130.244Z" transform="translate(-313.755 -71.457)"/>
    <path id="Trazado_716402" data-name="Trazado 716402" d="M602.66,110.38a9.4,9.4,0,0,1,7.306,4.046l-14.941-.669A9.376,9.376,0,0,1,602.66,110.38Z" transform="translate(-338.042 -61.567)" fill="#8e5a61"/>
    <path id="Trazado_716403" data-name="Trazado 716403" d="M605.606,130.244a2.464,2.464,0,1,0,2.464-2.464A2.468,2.468,0,0,0,605.606,130.244Z" transform="translate(-344.053 -71.457)"/>
    <path id="Trazado_716404" data-name="Trazado 716404" d="M583.329,156.67h-8.276a12.157,12.157,0,0,0,2.086,1.513,4.265,4.265,0,0,0,2.513.621A7.344,7.344,0,0,0,583.329,156.67Z" transform="translate(-326.696 -87.87)" fill="#eba58e"/>
    <path id="Trazado_716405" data-name="Trazado 716405" d="M581.689,168.2a20.258,20.258,0,0,1-18.677-.3,13.267,13.267,0,0,0,9.2,4.7C575.615,172.734,579.322,170.657,581.689,168.2Z" transform="translate(-319.855 -94.251)" fill="#fff"/>
    <path id="Trazado_716406" data-name="Trazado 716406" d="M583.366,182.1h-8.043a6.53,6.53,0,0,0,3.968,1.543A6.884,6.884,0,0,0,583.366,182.1Z" transform="translate(-326.849 -102.317)" fill="#eba58e"/>
    <path id="Trazado_716407" data-name="Trazado 716407" d="M556.891,140.849a10.077,10.077,0,0,0-6.055,0A10.07,10.07,0,0,0,556.891,140.849Z" transform="translate(-312.938 -78.617)" fill="#eba58e"/>
    <path id="Trazado_716408" data-name="Trazado 716408" d="M604.437,140.849a10.076,10.076,0,0,1,6.054,0A10.069,10.069,0,0,1,604.437,140.849Z" transform="translate(-343.389 -78.617)" fill="#eba58e"/>
    <path id="Trazado_716409" data-name="Trazado 716409" d="M577.35,37.434a92.744,92.744,0,0,0-3.862-9.275c-.019-.049-.048-.087-.068-.136l-.019-.029c-1.63-2.988-9.6-5.259-19.181-5.259s-17.862,2.358-19.279,5.424a95.523,95.523,0,0,0-3.852,9.275,116.045,116.045,0,0,1,46.26,0Z" transform="translate(-301.72 -11.78)" fill="#ceb49d"/>
    <path id="Trazado_716410" data-name="Trazado 716410" d="M572.6,53.706a116.044,116.044,0,0,0-46.26,0c-1.892,5.045-3.609,10.032-3.609,10.032H535.7c4.434-.243,9.033-.378,13.768-.378s9.344.136,13.767.378h12.972S574.495,58.751,572.6,53.706Z" transform="translate(-296.972 -28.052)" fill="#636363"/>
    <path id="Trazado_716411" data-name="Trazado 716411" d="M572.627,107.52a26.89,26.89,0,0,0,.8-20.064H567.4l-.8,9.207a18.752,18.752,0,0,0,1.067,8.043l1.853,5.084-2,8.528a3.488,3.488,0,0,1-1.824,2.328l-3.367,1.717a3.628,3.628,0,0,1-4.036-.494l-2.688-2.338a2.748,2.748,0,0,0-2.717-.534,27.871,27.871,0,0,1-17.25,0,2.748,2.748,0,0,0-2.717.534l-2.688,2.338a3.628,3.628,0,0,1-4.036.494l-3.367-1.717a3.488,3.488,0,0,1-1.824-2.328l-2-8.528,1.853-5.084a18.754,18.754,0,0,0,1.067-8.043l-.8-9.207h-6.025a26.938,26.938,0,0,0,.8,20.064c-1.911,6.685-.272,14.146,3.658,19.88a9.345,9.345,0,0,0,4.395,12.3,9.331,9.331,0,0,0,1.63,7.519,9.869,9.869,0,0,0,7.092,3.561,13.259,13.259,0,0,0,23.15,0,9.886,9.886,0,0,0,7.093-3.561,9.294,9.294,0,0,0,1.63-7.519,9.345,9.345,0,0,0,4.395-12.3c3.939-5.734,5.569-13.2,3.658-19.88ZM554.581,131.8c-3.338,3.212-10.3,2.057-10.3,2.057s-6.976,1.154-10.3-2.057c-3.037-2.93-1.795-6.413.33-9.44a1.427,1.427,0,0,1,1.61-.534c1.853.612,5.938,1.853,8.363,1.669,2.426.184,6.51-1.048,8.364-1.669a1.427,1.427,0,0,1,1.611.534C556.375,125.382,557.618,128.865,554.581,131.8Z" transform="translate(-291.767 -48.549)" fill="#8e5a61"/>
    <path id="Trazado_716412" data-name="Trazado 716412" d="M503.387,71.222c34.113,0,61.774,6.733,61.774,15.039V82.8c0-8.305-27.651-23.557-61.774-23.557S441.613,74.492,441.613,82.8v3.464C441.613,77.956,469.274,71.222,503.387,71.222Z" transform="translate(-250.886 -32.519)" fill="#ceb49d"/>
    <path id="Trazado_716413" data-name="Trazado 716413" d="M503.387,88.4c34.113,0,61.774,6.733,61.774,15.038V99.978c0-8.305-27.651-15.038-61.774-15.038s-61.774,6.733-61.774,15.038v3.464C441.613,95.137,469.274,88.4,503.387,88.4Z" transform="translate(-250.886 -47.119)" fill="#e8e8e8"/>
  </g>
</svg>
