<svg xmlns="http://www.w3.org/2000/svg" width="427.286" height="408.982" viewBox="0 0 427.286 408.982">
  <g id="Grupo_1027484" data-name="Grupo 1027484" transform="translate(-18.234 -25.447)">
    <g id="Background_Simple" data-name="Background Simple" transform="translate(18.234 25.447)">
      <g id="Grupo_1027414" data-name="Grupo 1027414">
        <path id="Trazado_725780" data-name="Trazado 725780" d="M423.825,123.347C399.4,76.687,353.032,44.36,303.033,32.112,255.335,20.426,197.914,21,162.011,59.481c-23.641,25.337-33.108,60.61-53.972,87.97-10.37,13.6-23.349,19.82-36.936,29.338-33.116,23.2-57.471,60.531-52.134,102.754,8.924,70.6,73.319,108.509,138.039,112.767,85.527,5.627,146.524-5.809,198.336-38.921,26.909-17.2,53.749-37.6,70.176-65.848,24.843-42.715,23.823-96.579,7.751-142.443A163.316,163.316,0,0,0,423.825,123.347Z" transform="translate(-18.234 -25.447)" fill="#d1e6f3"/>
      </g>
    </g>
    <g id="Signs" transform="translate(141.878 46.724)">
      <g id="Grupo_1027416" data-name="Grupo 1027416">
        <g id="Grupo_1027415" data-name="Grupo 1027415" transform="translate(77.265)">
          <path id="Trazado_725782" data-name="Trazado 725782" d="M245.336,435.291h-8.785V52.96a4.392,4.392,0,0,1,4.392-4.392h0a4.392,4.392,0,0,1,4.392,4.392Z" transform="translate(-236.551 -48.568)" fill="#4db1f0" stroke="#263238" stroke-linecap="round" stroke-linejoin="round" stroke-width="1"/>
        </g>
        <rect id="Rectángulo_349319" data-name="Rectángulo 349319" width="77.017" height="27.119" transform="translate(0 50.927)" fill="#263238" stroke="#263238" stroke-linecap="round" stroke-linejoin="round" stroke-width="1"/>
        <rect id="Rectángulo_349320" data-name="Rectángulo 349320" width="77.017" height="27.119" transform="translate(86.199 21.858)" fill="#263238" stroke="#263238" stroke-linecap="round" stroke-linejoin="round" stroke-width="1"/>
        <path id="Trazado_725783" data-name="Trazado 725783" d="M246.259,150.7l43.006,5.464V118.12l-43.006,5.464Z" transform="translate(-160.061 -54.114)" fill="#263238" stroke="#263238" stroke-linecap="round" stroke-linejoin="round" stroke-width="1"/>
        <path id="Trazado_725784" data-name="Trazado 725784" d="M281.033,138.676l-9.492-10.466v4.564l-19.823.78V143.5l19.823.984v4.564Z" transform="translate(-160.496 -54.919)" fill="#4db1f0" stroke="#263238" stroke-linecap="round" stroke-linejoin="round" stroke-width="1"/>
        <path id="Trazado_725785" data-name="Trazado 725785" d="M312.578,84.182l-14.636-8.45v3.7H259.358v9.5h38.584v3.7Z" transform="translate(-161.105 -50.734)" fill="#4db1f0" stroke="#263238" stroke-linecap="round" stroke-linejoin="round" stroke-width="1"/>
        <path id="Trazado_725786" data-name="Trazado 725786" d="M166.01,118.127l14.636-8.45v3.7H219.23v9.5H180.646v3.7Z" transform="translate(-153.662 -53.441)" fill="#4db1f0" stroke="#263238" stroke-linecap="round" stroke-linejoin="round" stroke-width="1"/>
      </g>
    </g>
    <g id="Graphics" transform="translate(69.539 61.043)">
      <g id="Grupo_1027417" data-name="Grupo 1027417" transform="translate(241.736)">
        <circle id="Elipse_8604" data-name="Elipse 8604" cx="31.912" cy="31.912" r="31.912" fill="none" stroke="#263238" stroke-linecap="round" stroke-linejoin="round" stroke-width="1"/>
        <path id="Trazado_725787" data-name="Trazado 725787" d="M393.517,121.7a29.821,29.821,0,0,1-7.265,5.321" transform="translate(-340.62 -68.718)" fill="none" stroke="#263238" stroke-linecap="round" stroke-linejoin="round" stroke-width="1"/>
        <path id="Trazado_725788" data-name="Trazado 725788" d="M378.232,124.428a29.738,29.738,0,1,1,16.1-13" transform="translate(-336.854 -64.316)" fill="none" stroke="#263238" stroke-linecap="round" stroke-linejoin="round" stroke-width="1"/>
        <circle id="Elipse_8605" data-name="Elipse 8605" cx="2.354" cy="2.354" r="2.354" transform="translate(29.558 29.558)" fill="#263238" stroke="#263238" stroke-linecap="round" stroke-linejoin="round" stroke-width="1"/>
        <path id="Trazado_725789" data-name="Trazado 725789" d="M374.731,110.854l-3.387-13.223,19.764-13.538" transform="translate(-339.431 -65.719)" fill="none" stroke="#263238" stroke-linecap="round" stroke-linejoin="round" stroke-width="1"/>
      </g>
      <g id="Grupo_1027422" data-name="Grupo 1027422" transform="translate(0 95.989)">
        <path id="Trazado_725790" data-name="Trazado 725790" d="M140.406,188.775v47.154H105.288" transform="translate(-76.48 -170.055)" fill="none" stroke="#263238" stroke-linecap="round" stroke-linejoin="round" stroke-width="1"/>
        <path id="Trazado_725791" data-name="Trazado 725791" d="M73.984,227.41V174.8h63.925v8.7" transform="translate(-73.984 -168.941)" fill="none" stroke="#263238" stroke-linecap="round" stroke-linejoin="round" stroke-width="1"/>
        <path id="Trazado_725792" data-name="Trazado 725792" d="M97.749,239.681H73.984v-3.845" transform="translate(-73.984 -173.808)" fill="none" stroke="#263238" stroke-linecap="round" stroke-linejoin="round" stroke-width="1"/>
        <g id="Grupo_1027418" data-name="Grupo 1027418" transform="translate(3.886 20.633)">
          <rect id="Rectángulo_349321" data-name="Rectángulo 349321" width="6.239" height="6.239" fill="none" stroke="#263238" stroke-linecap="round" stroke-linejoin="round" stroke-width="1"/>
          <rect id="Rectángulo_349322" data-name="Rectángulo 349322" width="6.239" height="6.239" transform="translate(8.319)" fill="none" stroke="#263238" stroke-linecap="round" stroke-linejoin="round" stroke-width="1"/>
          <rect id="Rectángulo_349323" data-name="Rectángulo 349323" width="6.239" height="6.239" transform="translate(16.638)" fill="none" stroke="#263238" stroke-linecap="round" stroke-linejoin="round" stroke-width="1"/>
          <rect id="Rectángulo_349324" data-name="Rectángulo 349324" width="6.239" height="6.239" transform="translate(24.957)" fill="none" stroke="#263238" stroke-linecap="round" stroke-linejoin="round" stroke-width="1"/>
          <rect id="Rectángulo_349325" data-name="Rectángulo 349325" width="6.239" height="6.239" transform="translate(33.276)" fill="none" stroke="#263238" stroke-linecap="round" stroke-linejoin="round" stroke-width="1"/>
          <rect id="Rectángulo_349326" data-name="Rectángulo 349326" width="6.239" height="6.239" transform="translate(41.595)" fill="none" stroke="#263238" stroke-linecap="round" stroke-linejoin="round" stroke-width="1"/>
          <rect id="Rectángulo_349327" data-name="Rectángulo 349327" width="6.239" height="6.239" transform="translate(49.914)" fill="none" stroke="#263238" stroke-linecap="round" stroke-linejoin="round" stroke-width="1"/>
        </g>
        <g id="Grupo_1027419" data-name="Grupo 1027419" transform="translate(3.886 30.48)">
          <rect id="Rectángulo_349328" data-name="Rectángulo 349328" width="6.239" height="6.239" fill="none" stroke="#263238" stroke-linecap="round" stroke-linejoin="round" stroke-width="1"/>
          <rect id="Rectángulo_349329" data-name="Rectángulo 349329" width="6.239" height="6.239" transform="translate(8.319)" fill="none" stroke="#263238" stroke-linecap="round" stroke-linejoin="round" stroke-width="1"/>
          <rect id="Rectángulo_349330" data-name="Rectángulo 349330" width="6.239" height="6.239" transform="translate(16.638)" fill="none" stroke="#263238" stroke-linecap="round" stroke-linejoin="round" stroke-width="1"/>
          <rect id="Rectángulo_349331" data-name="Rectángulo 349331" width="6.239" height="6.239" transform="translate(24.957)" fill="none" stroke="#263238" stroke-linecap="round" stroke-linejoin="round" stroke-width="1"/>
          <rect id="Rectángulo_349332" data-name="Rectángulo 349332" width="6.239" height="6.239" transform="translate(33.276)" fill="none" stroke="#263238" stroke-linecap="round" stroke-linejoin="round" stroke-width="1"/>
          <rect id="Rectángulo_349333" data-name="Rectángulo 349333" width="6.239" height="6.239" transform="translate(41.595)" fill="none" stroke="#263238" stroke-linecap="round" stroke-linejoin="round" stroke-width="1"/>
          <rect id="Rectángulo_349334" data-name="Rectángulo 349334" width="6.239" height="6.239" transform="translate(49.914)" fill="none" stroke="#263238" stroke-linecap="round" stroke-linejoin="round" stroke-width="1"/>
        </g>
        <g id="Grupo_1027420" data-name="Grupo 1027420" transform="translate(3.886 40.326)">
          <rect id="Rectángulo_349335" data-name="Rectángulo 349335" width="6.239" height="6.239" fill="none" stroke="#263238" stroke-linecap="round" stroke-linejoin="round" stroke-width="1"/>
          <rect id="Rectángulo_349336" data-name="Rectángulo 349336" width="6.239" height="6.239" transform="translate(8.319)" fill="none" stroke="#263238" stroke-linecap="round" stroke-linejoin="round" stroke-width="1"/>
          <rect id="Rectángulo_349337" data-name="Rectángulo 349337" width="6.239" height="6.239" transform="translate(16.638)" fill="none" stroke="#263238" stroke-linecap="round" stroke-linejoin="round" stroke-width="1"/>
          <rect id="Rectángulo_349338" data-name="Rectángulo 349338" width="6.239" height="6.239" transform="translate(24.957)" fill="none" stroke="#263238" stroke-linecap="round" stroke-linejoin="round" stroke-width="1"/>
          <rect id="Rectángulo_349339" data-name="Rectángulo 349339" width="6.239" height="6.239" transform="translate(33.276)" fill="none" stroke="#263238" stroke-linecap="round" stroke-linejoin="round" stroke-width="1"/>
          <rect id="Rectángulo_349340" data-name="Rectángulo 349340" width="6.239" height="6.239" transform="translate(41.595)" fill="none" stroke="#263238" stroke-linecap="round" stroke-linejoin="round" stroke-width="1"/>
          <rect id="Rectángulo_349341" data-name="Rectángulo 349341" width="6.239" height="6.239" transform="translate(49.914)" fill="none" stroke="#263238" stroke-linecap="round" stroke-linejoin="round" stroke-width="1"/>
        </g>
        <g id="Grupo_1027421" data-name="Grupo 1027421" transform="translate(3.886 50.173)">
          <rect id="Rectángulo_349342" data-name="Rectángulo 349342" width="6.239" height="6.239" fill="none" stroke="#263238" stroke-linecap="round" stroke-linejoin="round" stroke-width="1"/>
          <rect id="Rectángulo_349343" data-name="Rectángulo 349343" width="6.239" height="6.239" transform="translate(8.319)" fill="none" stroke="#263238" stroke-linecap="round" stroke-linejoin="round" stroke-width="1"/>
          <rect id="Rectángulo_349344" data-name="Rectángulo 349344" width="6.239" height="6.239" transform="translate(16.638)" fill="none" stroke="#263238" stroke-linecap="round" stroke-linejoin="round" stroke-width="1"/>
          <rect id="Rectángulo_349345" data-name="Rectángulo 349345" width="6.239" height="6.239" transform="translate(24.957)" fill="none" stroke="#263238" stroke-linecap="round" stroke-linejoin="round" stroke-width="1"/>
          <rect id="Rectángulo_349346" data-name="Rectángulo 349346" width="6.239" height="6.239" transform="translate(33.276)" fill="none" stroke="#263238" stroke-linecap="round" stroke-linejoin="round" stroke-width="1"/>
          <rect id="Rectángulo_349347" data-name="Rectángulo 349347" width="6.239" height="6.239" transform="translate(41.595)" fill="none" stroke="#263238" stroke-linecap="round" stroke-linejoin="round" stroke-width="1"/>
          <rect id="Rectángulo_349348" data-name="Rectángulo 349348" width="6.239" height="6.239" transform="translate(49.914)" fill="none" stroke="#263238" stroke-linecap="round" stroke-linejoin="round" stroke-width="1"/>
        </g>
        <path id="Trazado_725793" data-name="Trazado 725793" d="M86.033,178.531H83.28v-10.1h2.753Zm11.016-10.1H94.3v10.1H97.05Zm11.016,0h-2.754v10.1h2.754Zm11.016,0h-2.754v10.1h2.754Zm11.016,0h-2.754v10.1H130.1Z" transform="translate(-74.726 -168.433)" fill="#263238" stroke="#263238" stroke-linecap="round" stroke-linejoin="round" stroke-width="1"/>
      </g>
      <g id="Grupo_1027423" data-name="Grupo 1027423" transform="translate(7.58 202.202)">
        <path id="Trazado_725794" data-name="Trazado 725794" d="M106.6,283.85a24.382,24.382,0,1,0,24.382,24.382A24.382,24.382,0,0,0,106.6,283.85Zm0,39.808a15.425,15.425,0,1,1,15.425-15.425A15.425,15.425,0,0,1,106.6,323.658Z" transform="translate(-82.221 -283.85)" fill="none" stroke="#263238" stroke-linecap="round" stroke-linejoin="round" stroke-width="1"/>
        <path id="Trazado_725795" data-name="Trazado 725795" d="M109.257,283.864v8.969a15.409,15.409,0,0,1,10.478,26.233l7.035,5.6a24.376,24.376,0,0,0-17.513-40.8Z" transform="translate(-84.377 -283.851)" fill="none" stroke="#263238" stroke-linecap="round" stroke-linejoin="round" stroke-width="1"/>
        <line id="Línea_2728" data-name="Línea 2728" x2="17.416" transform="translate(15.426 23.387)" fill="none" stroke="#263238" stroke-linecap="round" stroke-linejoin="round" stroke-width="1"/>
        <line id="Línea_2729" data-name="Línea 2729" x2="17.416" transform="translate(15.426 27.866)" fill="none" stroke="#263238" stroke-linecap="round" stroke-linejoin="round" stroke-width="1"/>
      </g>
      <g id="Grupo_1027424" data-name="Grupo 1027424" transform="translate(234.244 111.922)">
        <line id="Línea_2730" data-name="Línea 2730" x2="47.438" transform="translate(18.905 5.211)" fill="none" stroke="#263238" stroke-linecap="round" stroke-linejoin="round" stroke-width="1"/>
        <line id="Línea_2731" data-name="Línea 2731" x2="4.885" transform="translate(0 5.211)" fill="none" stroke="#263238" stroke-linecap="round" stroke-linejoin="round" stroke-width="1"/>
        <line id="Línea_2732" data-name="Línea 2732" x2="31.64" transform="translate(34.703 12.737)" fill="none" stroke="#263238" stroke-linecap="round" stroke-linejoin="round" stroke-width="1"/>
        <line id="Línea_2733" data-name="Línea 2733" x2="5.27" transform="translate(0 12.737)" fill="none" stroke="#263238" stroke-linecap="round" stroke-linejoin="round" stroke-width="1"/>
        <line id="Línea_2734" data-name="Línea 2734" x2="16.421" transform="translate(49.922 20.264)" fill="none" stroke="#263238" stroke-linecap="round" stroke-linejoin="round" stroke-width="1"/>
        <line id="Línea_2735" data-name="Línea 2735" x2="4.885" transform="translate(0 20.264)" fill="none" stroke="#263238" stroke-linecap="round" stroke-linejoin="round" stroke-width="1"/>
        <line id="Línea_2736" data-name="Línea 2736" x2="2.935" transform="translate(63.408 27.79)" fill="none" stroke="#263238" stroke-linecap="round" stroke-linejoin="round" stroke-width="1"/>
        <line id="Línea_2737" data-name="Línea 2737" x2="4.885" transform="translate(0 27.79)" fill="none" stroke="#263238" stroke-linecap="round" stroke-linejoin="round" stroke-width="1"/>
        <line id="Línea_2738" data-name="Línea 2738" x2="2.935" transform="translate(63.408 36.549)" fill="none" stroke="#263238" stroke-linecap="round" stroke-linejoin="round" stroke-width="1"/>
        <line id="Línea_2739" data-name="Línea 2739" x2="4.885" transform="translate(0 36.549)" fill="none" stroke="#263238" stroke-linecap="round" stroke-linejoin="round" stroke-width="1"/>
        <line id="Línea_2740" data-name="Línea 2740" x2="2.935" transform="translate(63.408 45.308)" fill="none" stroke="#263238" stroke-linecap="round" stroke-linejoin="round" stroke-width="1"/>
        <line id="Línea_2741" data-name="Línea 2741" x2="4.885" transform="translate(0 45.308)" fill="none" stroke="#263238" stroke-linecap="round" stroke-linejoin="round" stroke-width="1"/>
        <rect id="Rectángulo_349349" data-name="Rectángulo 349349" width="11" height="46.109" transform="translate(6.131)" fill="none" stroke="#263238" stroke-linecap="round" stroke-linejoin="round" stroke-width="1"/>
        <rect id="Rectángulo_349350" data-name="Rectángulo 349350" width="11" height="37.425" transform="translate(21.184 8.684)" fill="none" stroke="#263238" stroke-linecap="round" stroke-linejoin="round" stroke-width="1"/>
        <rect id="Rectángulo_349351" data-name="Rectángulo 349351" width="11" height="29.319" transform="translate(36.237 16.79)" fill="none" stroke="#263238" stroke-linecap="round" stroke-linejoin="round" stroke-width="1"/>
        <rect id="Rectángulo_349352" data-name="Rectángulo 349352" width="11" height="18.898" transform="translate(51.29 27.211)" fill="none" stroke="#263238" stroke-linecap="round" stroke-linejoin="round" stroke-width="1"/>
      </g>
      <g id="Grupo_1027425" data-name="Grupo 1027425" transform="translate(4.943 3.155)">
        <path id="Trazado_725796" data-name="Trazado 725796" d="M122.519,72.908a27.029,27.029,0,1,0,3.631,3.256" transform="translate(-79.356 -67.556)" fill="none" stroke="#263238" stroke-linecap="round" stroke-linejoin="round" stroke-width="1"/>
        <path id="Trazado_725797" data-name="Trazado 725797" d="M94.449,107.757a17.726,17.726,0,1,0-2.1-2.606" transform="translate(-80.159 -68.359)" fill="none" stroke="#263238" stroke-linecap="round" stroke-linejoin="round" stroke-width="1"/>
        <circle id="Elipse_8606" data-name="Elipse 8606" cx="9.264" cy="9.264" r="9.264" transform="translate(17.756 17.756)" fill="none" stroke="#263238" stroke-linecap="round" stroke-linejoin="round" stroke-width="1"/>
      </g>
      <g id="Grupo_1027427" data-name="Grupo 1027427" transform="translate(240.417 200.431)">
        <g id="Grupo_1027426" data-name="Grupo 1027426" transform="translate(20.639 12.082)">
          <path id="Trazado_725798" data-name="Trazado 725798" d="M364.311,297.013c2.974.421,4.339,2.73,4.339,6.02v.665H366.1v-.84c0-2.171-.874-3.5-2.835-3.5-1.924,0-2.8,1.33-2.8,3.5,0,5.495,8.224,5.53,8.224,12.424,0,3.291-1.4,5.636-4.374,6.055v1.855H362.07v-1.855c-3.045-.42-4.41-2.73-4.41-6.055v-1.5h2.556v1.68c0,2.2.909,3.465,2.869,3.465,2,0,2.87-1.26,2.87-3.465,0-5.46-8.19-5.531-8.19-12.425,0-3.36,1.366-5.565,4.3-6.02v-1.959h2.241Z" transform="translate(-357.66 -295.054)" fill="#263238"/>
        </g>
        <path id="Trazado_725799" data-name="Trazado 725799" d="M373.381,332.616a22.545,22.545,0,0,0,4.83-2.851" transform="translate(-338.275 -285.74)" fill="none" stroke="#263238" stroke-linecap="round" stroke-linejoin="round" stroke-width="1"/>
        <path id="Trazado_725800" data-name="Trazado 725800" d="M353.711,287.395a22.578,22.578,0,0,0,12.556,43.226" transform="translate(-335.543 -282.362)" fill="none" stroke="#263238" stroke-linecap="round" stroke-linejoin="round" stroke-width="1"/>
        <path id="Trazado_725801" data-name="Trazado 725801" d="M379.8,323.652A22.58,22.58,0,0,0,357.63,286.5" transform="translate(-337.019 -282.236)" fill="none" stroke="#263238" stroke-linecap="round" stroke-linejoin="round" stroke-width="1"/>
        <circle id="Elipse_8607" data-name="Elipse 8607" cx="18.505" cy="18.505" r="18.505" transform="matrix(0.734, -0.68, 0.68, 0.734, 0, 25.151)" fill="none" stroke="#263238" stroke-linecap="round" stroke-linejoin="round" stroke-width="1"/>
      </g>
    </g>
    <g id="Character" transform="translate(165.012 162.739)">
      <g id="Grupo_1027429" data-name="Grupo 1027429">
        <path id="Trazado_725802" data-name="Trazado 725802" d="M265.01,229.31s.225-.025.633-.075c2.666-.329,13.126-1.731,19.115-4.1,6.9-2.729,22.638-1.284,22.638-1.284l6.9,4.977-7.867,5.138s-11.078-3.693-18.784-3.372-11.4,2.569-16.216,2.248-10.758-3.533-10.758-3.533Z" transform="translate(-184.344 -178.529)" fill="#263238" stroke="#263238" stroke-linecap="round" stroke-linejoin="round" stroke-width="1"/>
        <path id="Trazado_725803" data-name="Trazado 725803" d="M233.329,212.7v10.332h17.025V211.067Z" transform="translate(-182.164 -177.54)" fill="#fff" stroke="#263238" stroke-linecap="round" stroke-linejoin="round" stroke-width="1"/>
        <path id="Trazado_725804" data-name="Trazado 725804" d="M228.019,201.877s-4.033-2.689-2.689,2.017,2.689,6.5,4.705,6.274,3.138-.9,2.465-2.689S228.019,201.877,228.019,201.877Z" transform="translate(-181.504 -176.746)" fill="#fff" stroke="#263238" stroke-linecap="round" stroke-linejoin="round" stroke-width="1"/>
        <path id="Trazado_725805" data-name="Trazado 725805" d="M257.147,201.877s4.034-2.689,2.69,2.017-2.69,6.5-4.706,6.274-3.137-.9-2.465-2.689S257.147,201.877,257.147,201.877Z" transform="translate(-183.69 -176.746)" fill="#fff" stroke="#263238" stroke-linecap="round" stroke-linejoin="round" stroke-width="1"/>
        <path id="Trazado_725806" data-name="Trazado 725806" d="M236.909,178.253s-6.723,2.241-8.964,8.515-.224,13.893.9,17.03,6.5,9.188,6.5,9.188h12.1a34.768,34.768,0,0,0,6.947-9.86c2.465-5.6,2.465-13.446,2.465-13.446s2.016.673,2.016-2.016-6.274-7.843-6.274-7.843,2.914-1.12.9-2.689-9.188-.9-9.188-.9S243.406,171.53,236.909,178.253Z" transform="translate(-181.654 -174.635)" fill="#263238" stroke="#263238" stroke-linecap="round" stroke-linejoin="round" stroke-width="1"/>
        <path id="Trazado_725807" data-name="Trazado 725807" d="M265.3,458.317l1.841,1.15a5.177,5.177,0,0,1,3.221,1.15c1.15,1.15.723,6.867.723,6.867s-.918.677-5.29.677-14,1.068-14.918-.542.159-8.383.159-8.383Z" transform="translate(-183.533 -197.255)" fill="#858585" stroke="#263238" stroke-linecap="round" stroke-linejoin="round" stroke-width="1"/>
        <g id="Grupo_1027428" data-name="Grupo 1027428" transform="translate(26.943 112.313)">
          <path id="Trazado_725808" data-name="Trazado 725808" d="M211.445,300.717s-1.38,10.123-1.38,12.193-.46,20.016-.46,20.016.23,47.163.23,48.084-3.911,13.8-2.531,22.546,4.141,42.332,4.141,42.332-.92,7.362-.23,8.052,9.2,1.61,11.043.69.69-9.893.69-9.893a29.719,29.719,0,0,0,1.15-6.672V430.7c0-2.3,1.15-22.776,2.3-30.829s1.841-18.865,1.841-18.865l4.831-49.694,3.681-.23s4.6,53.375,4.831,57.286-.69,11.733,1.38,20.706,3.221,33.359,3.221,33.359-.46,2.3,0,3.221,1.61,3.681,1.61,3.681a26.6,26.6,0,0,0,4.832,0,17.82,17.82,0,0,0,7.4-2.014,4.98,4.98,0,0,0,1.491-5.712c-1.377-3.366-1.99-4.007-1.99-4.007s2.071-28.988,2.071-36.12-1.15-15.874-1.15-16.565,1.38-52.455,1.38-57.746-.46-19.556-2.761-25.767-39.111-4.6-42.792-4.371A5.646,5.646,0,0,0,211.445,300.717Z" transform="translate(-207.008 -296.68)" fill="#263238" stroke="#263238" stroke-linecap="round" stroke-linejoin="round" stroke-width="1"/>
          <line id="Línea_2742" data-name="Línea 2742" y1="0.92" x2="19.786" transform="translate(18.01 33.368)" fill="none" stroke="#757575" stroke-linecap="round" stroke-linejoin="round" stroke-width="1"/>
        </g>
        <path id="Trazado_725809" data-name="Trazado 725809" d="M234.492,223.567l-12.424,2.991S204.123,235.3,200.212,237.6s-19.326,33.359-18.635,34.97,3.681,3.681,6.672,4.141,18.175-16.795,18.175-16.795,4.371,21.626,4.371,22.546-2.531,11.963-1.38,13.8,45.323,0,45.323,0,3.221.23,3.681-2.761-.92-11.733-.92-11.733l5.061-26.457s9.668,14.665,11.836,17.025c3.768,4.1,8.443,2.384,10.94-.69,2.176-2.678.23-7.822-.46-9.433s-12.884-28.988-16.565-30.139-19.1-6.672-19.1-6.672Z" transform="translate(-178.035 -178.537)" fill="#fff" stroke="#263238" stroke-linecap="round" stroke-linejoin="round" stroke-width="1"/>
        <path id="Trazado_725810" data-name="Trazado 725810" d="M225.579,226.232s15.205-.314,17.736-.314,11.769-.079,11.769-.079l-2.337-4.982a48.728,48.728,0,0,0-12.193-1.38,36.849,36.849,0,0,0-12.884,2.3Z" transform="translate(-181.546 -178.21)" fill="#fff" stroke="#263238" stroke-linecap="round" stroke-linejoin="round" stroke-width="1"/>
        <path id="Trazado_725811" data-name="Trazado 725811" d="M203.2,249.885l4.679,12.131-8.052-8.052" transform="translate(-179.493 -180.635)" fill="none" stroke="#263238" stroke-linecap="round" stroke-linejoin="round" stroke-width="1"/>
        <line id="Línea_2743" data-name="Línea 2743" x2="0.559" y2="1.448" transform="translate(22.177 65.276)" fill="none" stroke="#263238" stroke-linecap="round" stroke-linejoin="round" stroke-width="1"/>
        <path id="Trazado_725812" data-name="Trazado 725812" d="M229.754,285.388a23.051,23.051,0,0,1-2.425,1.775" transform="translate(-181.685 -183.466)" fill="none" stroke="#263238" stroke-linecap="round" stroke-linejoin="round" stroke-width="1"/>
        <path id="Trazado_725813" data-name="Trazado 725813" d="M251.124,247.567s-8.412,23-19.677,33.6" transform="translate(-182.014 -180.45)" fill="none" stroke="#263238" stroke-linecap="round" stroke-linejoin="round" stroke-width="1"/>
        <path id="Trazado_725814" data-name="Trazado 725814" d="M274.871,243.817l-5.292,13.114,8.512-9.2" transform="translate(-185.054 -180.151)" fill="none" stroke="#263238" stroke-linecap="round" stroke-linejoin="round" stroke-width="1"/>
        <path id="Trazado_725815" data-name="Trazado 725815" d="M179.329,282.908a20.447,20.447,0,0,0,6.672,9.2c5.061,3.911,18.635,16.795,18.635,16.795a5.194,5.194,0,0,0,0,2.071c.23,1.15,3.911,4.141,3.911,4.141v-2.3l.92-1.841.92-2.3a27.187,27.187,0,0,0,2.991-1.38,4.7,4.7,0,0,0,1.15-1.15,29.877,29.877,0,0,0,4.141.46c1.61,0,3.911-1.61,2.531-2.071s-2.761,0-4.6-.92-2.761-1.841-4.6-1.841h-4.831l-12.654-20.706Z" transform="translate(-177.858 -183.122)" fill="#fff" stroke="#263238" stroke-linecap="round" stroke-linejoin="round" stroke-width="1"/>
        <path id="Trazado_725816" data-name="Trazado 725816" d="M184.647,267.7a12.464,12.464,0,0,0-3.375,1.487c-.69.69-4.141,5.982-3.451,8.742s1.61,6.672,7.592,7.822,9.2-1.38,9.663-2.071,1.595-8.83.675-8.83-3.435,3.078-3.435,3.078-6.853-1.552-8.234-2.7S184.647,267.7,184.647,267.7Z" transform="translate(-177.73 -182.056)" fill="#fff" stroke="#263238" stroke-linecap="round" stroke-linejoin="round" stroke-width="1"/>
        <path id="Trazado_725817" data-name="Trazado 725817" d="M296.276,282.908a20.447,20.447,0,0,1-6.672,9.2c-5.061,3.911-18.635,16.795-18.635,16.795a5.194,5.194,0,0,1,0,2.071c-.23,1.15-5.3,4.69-5.3,4.69v-3.353l-.352-2.118-.1-1.518a27.186,27.186,0,0,1-2.991-1.38,4.7,4.7,0,0,1-1.15-1.15,29.877,29.877,0,0,1-4.141.46c-1.61,0-3.911-1.61-2.531-2.071s2.761,0,4.6-.92,2.761-1.841,4.6-1.841h4.831l12.654-20.706Z" transform="translate(-183.811 -183.122)" fill="#fff" stroke="#263238" stroke-linecap="round" stroke-linejoin="round" stroke-width="1"/>
        <path id="Trazado_725818" data-name="Trazado 725818" d="M294.032,268.921s1.725-.332,2.416.358,4.141,5.982,3.451,8.742-1.61,6.672-7.592,7.822-9.2-1.38-9.663-2.071-.832-8.519-.23-7.822a9.6,9.6,0,0,0,2.991,2.071s7.133-.363,8.251-4.4A20.15,20.15,0,0,0,294.032,268.921Z" transform="translate(-186.053 -182.147)" fill="#fff" stroke="#263238" stroke-linecap="round" stroke-linejoin="round" stroke-width="1"/>
        <path id="Trazado_725819" data-name="Trazado 725819" d="M222.611,467.55c1.453-.726,1.043-6.467.805-8.855a17.059,17.059,0,0,1-5.176,1.493,9.684,9.684,0,0,1-6.442-1.38s-.738,7.957-.113,8.708C212.362,468.328,220.77,468.47,222.611,467.55Z" transform="translate(-180.418 -197.286)" fill="#858585" stroke="#263238" stroke-linecap="round" stroke-linejoin="round" stroke-width="1"/>
      </g>
    </g>
    <g id="Floor" transform="translate(38.264 433.631)">
      <g id="Grupo_1027483" data-name="Grupo 1027483">
        <line id="Línea_2744" data-name="Línea 2744" x2="6.221" transform="translate(400.535)" fill="none" stroke="#263238" stroke-linecap="round" stroke-linejoin="round" stroke-width="1"/>
        <line id="Línea_2745" data-name="Línea 2745" x2="320.366" transform="translate(71.677)" fill="none" stroke="#263238" stroke-linecap="round" stroke-linejoin="round" stroke-width="1"/>
        <line id="Línea_2746" data-name="Línea 2746" x2="63.185" fill="none" stroke="#263238" stroke-linecap="round" stroke-linejoin="round" stroke-width="1"/>
      </g>
    </g>
  </g>
</svg>
