<svg xmlns="http://www.w3.org/2000/svg" xmlns:xlink="http://www.w3.org/1999/xlink" width="400" height="382.365" viewBox="0 0 400 382.365">
  <defs>
    <clipPath id="clip-path">
      <rect id="Rectángulo_33845" data-name="Rectángulo 33845" width="387.271" height="265.602" transform="translate(0 0)" fill="none"/>
    </clipPath>
    <clipPath id="clip-path-2">
      <rect id="Rectángulo_33841" data-name="Rectángulo 33841" width="334.205" height="273.37" fill="none"/>
    </clipPath>
  </defs>
  <g id="Grupo_1022941" data-name="Grupo 1022941" transform="translate(-176 -10695)">
    <g id="Grupo_1002335" data-name="Grupo 1002335" transform="translate(176 10695)">
      <g id="Grupo_80327" data-name="Grupo 80327" transform="translate(0 0)" clip-path="url(#clip-path)">
        <path id="Trazado_113636" data-name="Trazado 113636" d="M232.622,265.329A116.311,116.311,0,1,1,116.311,149.018,116.311,116.311,0,0,1,232.622,265.329" transform="translate(0 -116.039)" fill="#0078bb"/>
        <path id="Trazado_113637" data-name="Trazado 113637" d="M1156.8,522.76a84.28,84.28,0,1,1-84.28-84.28,84.28,84.28,0,0,1,84.28,84.28" transform="translate(-769.527 -341.438)" fill="#008b8a"/>
        <path id="Trazado_113638" data-name="Trazado 113638" d="M1198.65,581.231a67.661,67.661,0,1,1-67.662-67.662,67.661,67.661,0,0,1,67.662,67.662" transform="translate(-827.998 -399.909)" fill="#fff"/>
        <path id="Trazado_113639" data-name="Trazado 113639" d="M633.519,674.591a41.127,41.127,0,1,1-41.127-41.127,41.127,41.127,0,0,1,41.127,41.127" transform="translate(-429.262 -493.27)" fill="#fff"/>
        <path id="Trazado_113665" data-name="Trazado 113665" d="M128.674,380.727a2.6,2.6,0,1,1-2.6-2.6,2.6,2.6,0,0,1,2.6,2.6" transform="translate(-96.149 -294.443)" fill="#fff"/>
        <path id="Trazado_113666" data-name="Trazado 113666" d="M180.349,380.727a2.6,2.6,0,1,1-2.6-2.6,2.6,2.6,0,0,1,2.6,2.6" transform="translate(-136.388 -294.443)" fill="#fff"/>
        <path id="Trazado_113667" data-name="Trazado 113667" d="M232.025,380.727a2.6,2.6,0,1,1-2.6-2.6,2.6,2.6,0,0,1,2.6,2.6" transform="translate(-176.626 -294.443)" fill="#fff"/>
        <path id="Trazado_113668" data-name="Trazado 113668" d="M283.7,380.727a2.6,2.6,0,1,1-2.6-2.6,2.6,2.6,0,0,1,2.6,2.6" transform="translate(-216.865 -294.443)" fill="#fff"/>
        <path id="Trazado_113669" data-name="Trazado 113669" d="M335.374,380.727a2.6,2.6,0,1,1-2.6-2.6,2.6,2.6,0,0,1,2.6,2.6" transform="translate(-257.103 -294.443)" fill="#fff"/>
        <path id="Trazado_113670" data-name="Trazado 113670" d="M128.674,430.053a2.6,2.6,0,1,1-2.6-2.6,2.6,2.6,0,0,1,2.6,2.6" transform="translate(-96.149 -332.853)" fill="#fff"/>
        <path id="Trazado_113671" data-name="Trazado 113671" d="M180.349,430.053a2.6,2.6,0,1,1-2.6-2.6,2.6,2.6,0,0,1,2.6,2.6" transform="translate(-136.388 -332.853)" fill="#fff"/>
        <path id="Trazado_113672" data-name="Trazado 113672" d="M232.025,430.053a2.6,2.6,0,1,1-2.6-2.6,2.6,2.6,0,0,1,2.6,2.6" transform="translate(-176.626 -332.853)" fill="#fff"/>
        <path id="Trazado_113673" data-name="Trazado 113673" d="M283.7,430.053a2.6,2.6,0,1,1-2.6-2.6,2.6,2.6,0,0,1,2.6,2.6" transform="translate(-216.865 -332.853)" fill="#fff"/>
        <path id="Trazado_113674" data-name="Trazado 113674" d="M335.374,430.053a2.6,2.6,0,1,1-2.6-2.6,2.6,2.6,0,0,1,2.6,2.6" transform="translate(-257.103 -332.853)" fill="#fff"/>
        <path id="Trazado_113675" data-name="Trazado 113675" d="M128.674,479.38a2.6,2.6,0,1,1-2.6-2.6,2.6,2.6,0,0,1,2.6,2.6" transform="translate(-96.149 -371.263)" fill="#fff"/>
        <path id="Trazado_113676" data-name="Trazado 113676" d="M180.349,479.38a2.6,2.6,0,1,1-2.6-2.6,2.6,2.6,0,0,1,2.6,2.6" transform="translate(-136.388 -371.263)" fill="#fff"/>
        <path id="Trazado_113677" data-name="Trazado 113677" d="M232.025,479.38a2.6,2.6,0,1,1-2.6-2.6,2.6,2.6,0,0,1,2.6,2.6" transform="translate(-176.626 -371.263)" fill="#fff"/>
        <path id="Trazado_113678" data-name="Trazado 113678" d="M283.7,479.38a2.6,2.6,0,1,1-2.6-2.6,2.6,2.6,0,0,1,2.6,2.6" transform="translate(-216.865 -371.263)" fill="#fff"/>
        <path id="Trazado_113679" data-name="Trazado 113679" d="M335.374,479.38a2.6,2.6,0,1,1-2.6-2.6,2.6,2.6,0,0,1,2.6,2.6" transform="translate(-257.103 -371.263)" fill="#fff"/>
        <path id="Trazado_113680" data-name="Trazado 113680" d="M128.674,528.706a2.6,2.6,0,1,1-2.6-2.6,2.6,2.6,0,0,1,2.6,2.6" transform="translate(-96.149 -409.672)" fill="#fff"/>
        <path id="Trazado_113681" data-name="Trazado 113681" d="M180.349,528.706a2.6,2.6,0,1,1-2.6-2.6,2.6,2.6,0,0,1,2.6,2.6" transform="translate(-136.388 -409.672)" fill="#fff"/>
        <path id="Trazado_113682" data-name="Trazado 113682" d="M232.025,528.706a2.6,2.6,0,1,1-2.6-2.6,2.6,2.6,0,0,1,2.6,2.6" transform="translate(-176.626 -409.672)" fill="#fff"/>
        <path id="Trazado_113683" data-name="Trazado 113683" d="M283.7,528.706a2.6,2.6,0,1,1-2.6-2.6,2.6,2.6,0,0,1,2.6,2.6" transform="translate(-216.865 -409.672)" fill="#fff"/>
        <path id="Trazado_113684" data-name="Trazado 113684" d="M335.374,528.706a2.6,2.6,0,1,1-2.6-2.6,2.6,2.6,0,0,1,2.6,2.6" transform="translate(-257.103 -409.672)" fill="#fff"/>
        <path id="Trazado_113685" data-name="Trazado 113685" d="M128.674,578.032a2.6,2.6,0,1,1-2.6-2.6,2.6,2.6,0,0,1,2.6,2.6" transform="translate(-96.149 -448.082)" fill="#fff"/>
        <path id="Trazado_113686" data-name="Trazado 113686" d="M180.349,578.032a2.6,2.6,0,1,1-2.6-2.6,2.6,2.6,0,0,1,2.6,2.6" transform="translate(-136.388 -448.082)" fill="#fff"/>
        <path id="Trazado_113687" data-name="Trazado 113687" d="M232.025,578.032a2.6,2.6,0,1,1-2.6-2.6,2.6,2.6,0,0,1,2.6,2.6" transform="translate(-176.626 -448.082)" fill="#fff"/>
        <path id="Trazado_113688" data-name="Trazado 113688" d="M283.7,578.032a2.6,2.6,0,1,1-2.6-2.6,2.6,2.6,0,0,1,2.6,2.6" transform="translate(-216.865 -448.082)" fill="#fff"/>
        <path id="Trazado_113689" data-name="Trazado 113689" d="M335.374,578.032a2.6,2.6,0,1,1-2.6-2.6,2.6,2.6,0,0,1,2.6,2.6" transform="translate(-257.103 -448.082)" fill="#fff"/>
        <rect id="Rectángulo_33843" data-name="Rectángulo 33843" width="45.66" height="10.681" transform="translate(191.49 42.726)" fill="#ffa031"/>
      </g>
    </g>
    <g id="Grupo_1002336" data-name="Grupo 1002336" transform="translate(207.462 10717.363)" opacity="0.251">
      <g id="Grupo_80323" data-name="Grupo 80323" transform="translate(0 0)" clip-path="url(#clip-path-2)">
        <path id="Trazado_113615" data-name="Trazado 113615" d="M213.553,269.069c-3.157-.24-6.378-.377-9.677-.352-17.454.129-34.525,4.826-52.087,4.645-37.21-.384-75.507-4.241-107.666-28.073-71.249-52.8-47.894-165.906,11.17-212.34C86.678,8.275,125.769.731,163.222.033c48.213-.9,110.053,14.352,144.6,54.938,24.067,28.278,30.051,94.162,24.425,131.493-4.478,29.715-21.285,57.737-42.517,74.048-26.478,20.341-48.928,10.624-76.174,8.556" transform="translate(0 0.004)" fill="#e0f4fe"/>
      </g>
    </g>
    <g id="Table" transform="translate(179 11076.287)">
      <g id="Grupo_1019865" data-name="Grupo 1019865">
        <g id="Grupo_1019864" data-name="Grupo 1019864">
          <path id="Trazado_721091" data-name="Trazado 721091" d="M431.632,471.439c0,.124-88.878.226-198.491.226-109.65,0-198.509-.1-198.509-.226s88.859-.225,198.509-.225C342.754,471.214,431.632,471.315,431.632,471.439Z" transform="translate(-34.632 -471.214)" fill="#263238"/>
        </g>
      </g>
    </g>
    <g id="Grupo_1022940" data-name="Grupo 1022940" transform="translate(105.337 10553.948)">
      <g id="Grupo_1022939" data-name="Grupo 1022939" transform="translate(179.663 153.252)">
        <g id="Grupo_1022902" data-name="Grupo 1022902" transform="translate(0 17.234)">
          <path id="Trazado_723250" data-name="Trazado 723250" d="M251.909,206.443a8.694,8.694,0,0,0,.436-17.293,9.043,9.043,0,0,0-10.612-13.493,10.823,10.823,0,0,0-17.7-5.641,12.171,12.171,0,0,0-14.774,2.523A8.655,8.655,0,0,0,204.52,188.4" transform="translate(-174.949 -167.329)" fill="#263238"/>
          <path id="Trazado_723251" data-name="Trazado 723251" d="M256.1,205.028a36.883,36.883,0,0,0-42.462-26.445l-1.877.357c-20.006,5.033-26.909,24.836-21.324,44.7l14,72.11h0l41.217,31.813L256.321,301l-4.2-24s18.874-6.727,15.412-26.219C265.86,241.37,260.84,222.265,256.1,205.028Z" transform="translate(-177.667 -164.953)" fill="#c17560"/>
          <path id="Trazado_723252" data-name="Trazado 723252" d="M245.534,259.285a48.014,48.014,0,0,1-26.9-2.606s8.429,13.283,27.5,7.838Z" transform="translate(-170.925 -147.294)" fill="#7c4236"/>
          <path id="Trazado_723253" data-name="Trazado 723253" d="M243.326,215.679a2.826,2.826,0,0,1-2.144,3.312,2.7,2.7,0,0,1-3.34-1.959,2.829,2.829,0,0,1,2.141-3.313A2.706,2.706,0,0,1,243.326,215.679Z" transform="translate(-166.632 -156.946)" fill="#263238"/>
          <path id="Trazado_723254" data-name="Trazado 723254" d="M243.809,208.857c-.275.427-2.675-.73-5.662-.153-2.992.534-4.893,2.489-5.286,2.184-.191-.131.035-.852.858-1.729a7.761,7.761,0,0,1,4.146-2.2,7.458,7.458,0,0,1,4.593.574C243.513,208.066,243.947,208.662,243.809,208.857Z" transform="translate(-167.749 -158.471)" fill="#263238"/>
          <path id="Trazado_723255" data-name="Trazado 723255" d="M221.181,220.365a2.825,2.825,0,0,1-2.145,3.31,2.7,2.7,0,0,1-3.338-1.959,2.829,2.829,0,0,1,2.141-3.313A2.706,2.706,0,0,1,221.181,220.365Z" transform="translate(-171.598 -155.896)" fill="#263238"/>
          <path id="Trazado_723256" data-name="Trazado 723256" d="M219.9,213.879c-.275.428-2.679-.727-5.663-.151-2.992.533-4.892,2.488-5.286,2.183-.19-.131.033-.851.859-1.729a7.747,7.747,0,0,1,4.145-2.2,7.45,7.45,0,0,1,4.593.573C219.6,213.089,220.039,213.685,219.9,213.879Z" transform="translate(-173.11 -157.345)" fill="#263238"/>
          <path id="Trazado_723257" data-name="Trazado 723257" d="M231.312,234.439c-.047-.168,1.749-.842,4.686-1.8.748-.224,1.442-.513,1.472-1.059a3.959,3.959,0,0,0-.94-2.164q-1.6-2.565-3.363-5.382c-4.71-7.676-8.272-14.047-7.961-14.234s4.379,5.884,9.087,13.561q1.715,2.844,3.275,5.433a4.491,4.491,0,0,1,.966,2.92,1.95,1.95,0,0,1-1.042,1.355,5.268,5.268,0,0,1-1.262.426C233.232,234.234,231.356,234.605,231.312,234.439Z" transform="translate(-169.455 -157.807)" fill="#263238"/>
          <path id="Trazado_723258" data-name="Trazado 723258" d="M219.305,205.455c-.25.832-2.968.5-6.14,1-3.184.427-5.728,1.527-6.166.795-.195-.351.235-1.139,1.256-1.961a9.617,9.617,0,0,1,4.542-1.9,9.294,9.294,0,0,1,4.832.53C218.81,204.423,219.412,205.06,219.305,205.455Z" transform="translate(-173.544 -159.266)" fill="#263238"/>
          <path id="Trazado_723259" data-name="Trazado 723259" d="M242.7,200.174c-.5.8-3.1.563-6.073,1.094-2.986.444-5.39,1.5-6.1.9-.32-.3-.054-1.053.922-1.9a9.824,9.824,0,0,1,4.717-2.051,9.664,9.664,0,0,1,5.1.444C242.435,199.156,242.912,199.789,242.7,200.174Z" transform="translate(-168.288 -160.436)" fill="#263238"/>
          <path id="Trazado_723260" data-name="Trazado 723260" d="M197.9,231.011a5.371,5.371,0,0,0-6.667-4c-3.561,1.034-7.2,3.862-5.538,11.312,2.955,13.213,15.613,7.52,15.55,7.136C201.2,245.2,199.184,236.529,197.9,231.011Z" transform="translate(-178.405 -153.993)" fill="#c17560"/>
          <path id="Trazado_723261" data-name="Trazado 723261" d="M196.38,240.326c-.067-.028-.195.214-.544.479a2.357,2.357,0,0,1-1.713.42c-1.511-.2-3.182-2.153-3.778-4.521a7.785,7.785,0,0,1-.093-3.439,2.722,2.722,0,0,1,1.336-2.153,1.2,1.2,0,0,1,1.5.326c.261.331.235.613.311.621.044.024.234-.285,0-.808a1.5,1.5,0,0,0-.705-.711,1.777,1.777,0,0,0-1.348-.051,3.318,3.318,0,0,0-1.947,2.587,8.021,8.021,0,0,0,.026,3.861c.681,2.643,2.6,4.831,4.635,4.956a2.53,2.53,0,0,0,2.027-.821C196.427,240.651,196.431,240.34,196.38,240.326Z" transform="translate(-177.529 -153.191)" fill="#7c4236"/>
          <path id="Trazado_723262" data-name="Trazado 723262" d="M241.765,180.769a5.1,5.1,0,0,0-.645-.859,8.72,8.72,0,0,0-7.336-2.51,33.206,33.206,0,0,0-5.032-1.07,11.786,11.786,0,0,0-19.814,2.914c-.53.181-1.058.377-1.585.578a12.037,12.037,0,0,0-17,8.506,8.74,8.74,0,0,0-7.3,14.331c-2.13,1.82-3.723,4.585-3.249,7.345.447,2.6,3.3,4.689,5.737,3.908.743,6.459,2.856,13.831,4.45,20.383,1.121,4.612,7.576,6.25,8.584,9.334,5.143,15.737,8.719,5.816,4.388-27.963.285-.322.572-.662.858-1.041a18.794,18.794,0,0,0,1.064-2.424c.564-.992,1.954-.979,3.091-1.072a8.639,8.639,0,0,0,7.649-7.762c1.267,1.288,3.555.787,4.864-.459s1.97-3,2.883-4.563,2.325-3.067,4.129-3.151c1.009-.048,2.041.362,3.013.087,1.716-.488,2.179-2.695,2.114-4.478-.056-1.5-.181-3.2.553-4.424a10,10,0,0,1,3.2-1.607c.676-.051,1.371-.044,2.033-.072a6.259,6.259,0,0,0,.946-.121,9.845,9.845,0,0,1,1.3.256c6.413,1.725,13.861,12.927,13.861,12.927C253.454,189.967,248.036,184.334,241.765,180.769Z" transform="translate(-179.652 -166.247)" fill="#263238"/>
          <path id="Trazado_723263" data-name="Trazado 723263" d="M181.138,201.719c-.01,0,.02-.078.086-.217a6.713,6.713,0,0,1,.326-.6,7.419,7.419,0,0,1,1.789-1.9,8.582,8.582,0,0,1,3.774-1.594,7.909,7.909,0,0,1,5.287.9l-.338.18a10.7,10.7,0,0,1,4.231-7.7,13.538,13.538,0,0,1,4.492-2.363,16.44,16.44,0,0,1,5.32-.627,27,27,0,0,1,9.7,2.491l-.367.193a12.072,12.072,0,0,1,4.8-7.429,11.673,11.673,0,0,1,11.177-1.235,8.368,8.368,0,0,1,1.1.547,1.537,1.537,0,0,1,.351.239c-.021.038-.522-.256-1.516-.621a12.1,12.1,0,0,0-4.442-.724,11.342,11.342,0,0,0-6.406,2.158,11.679,11.679,0,0,0-4.544,7.162l-.062.326-.306-.132a26.9,26.9,0,0,0-9.509-2.419,16.054,16.054,0,0,0-5.139.6,13.082,13.082,0,0,0-4.322,2.25,10.293,10.293,0,0,0-4.115,7.31l-.02.37-.32-.191a7.583,7.583,0,0,0-5-.932,8.509,8.509,0,0,0-3.681,1.445A9.106,9.106,0,0,0,181.138,201.719Z" transform="translate(-179.333 -164.279)" fill="#455a64"/>
          <path id="Trazado_723264" data-name="Trazado 723264" d="M233.157,183.052a3.211,3.211,0,0,1-.131.558,11.352,11.352,0,0,0-.209,1.631c-.047.719-.048,1.6-.082,2.643a8.4,8.4,0,0,1-.681,3.521,2.784,2.784,0,0,1-1.68,1.349,9.95,9.95,0,0,1-2.287.285,4.56,4.56,0,0,0-2.228.594,6.122,6.122,0,0,0-1.65,1.868c-.469.743-.884,1.567-1.339,2.392a9.544,9.544,0,0,1-1.588,2.5,6.328,6.328,0,0,1-2.728,1.53,5.024,5.024,0,0,1-1.629.2,2.314,2.314,0,0,1-1.606-.7l.473-.171a8.267,8.267,0,0,1-.46,2.411,8.116,8.116,0,0,1-1.261,2.189,9.337,9.337,0,0,1-4.286,2.844,11.237,11.237,0,0,1-2.114.481,4.57,4.57,0,0,0-1.931.37,2.767,2.767,0,0,0-1.213,1.4,13.807,13.807,0,0,1-1.071,1.757,10.626,10.626,0,0,1-6.235,4.506,9.745,9.745,0,0,1-6.745-1.489,10.079,10.079,0,0,1-3.87-4.508l.252.1a5.329,5.329,0,0,1-4.521-.214,5.139,5.139,0,0,1-2.669-4.657,3.56,3.56,0,0,1,.062-.555c.024-.124.042-.185.05-.184a5.864,5.864,0,0,0,.468,2.772,4.845,4.845,0,0,0,2.227,2.357,5.029,5.029,0,0,0,4.23.131l.175-.076.077.176a9.742,9.742,0,0,0,3.761,4.273,9.328,9.328,0,0,0,6.405,1.372,10.161,10.161,0,0,0,5.887-4.32,13.2,13.2,0,0,0,1.027-1.693,3.325,3.325,0,0,1,1.438-1.637,3.046,3.046,0,0,1,1.083-.346l1.044-.089a10.765,10.765,0,0,0,2.007-.457,8.815,8.815,0,0,0,4.034-2.668,7.559,7.559,0,0,0,1.174-2.026,7.755,7.755,0,0,0,.435-2.235l.038-.643.433.471a2.729,2.729,0,0,0,2.691.345,5.833,5.833,0,0,0,2.512-1.387,9.233,9.233,0,0,0,1.513-2.37c.463-.824.884-1.643,1.377-2.411a6.5,6.5,0,0,1,1.8-1.987,4.944,4.944,0,0,1,2.441-.635,9.8,9.8,0,0,0,2.2-.236,2.431,2.431,0,0,0,1.491-1.158,8.322,8.322,0,0,0,.711-3.363c.06-1.032.091-1.923.165-2.646a9.054,9.054,0,0,1,.3-1.64A2.221,2.221,0,0,1,233.157,183.052Z" transform="translate(-179.663 -163.804)" fill="#455a64"/>
          <path id="Trazado_723265" data-name="Trazado 723265" d="M223.412,235.638c-.55,3.634,1.031,7.194,4.484,8.451a5.34,5.34,0,0,0,6.692-3.543,9.625,9.625,0,0,0,.082-4.592C231.5,235.77,226.58,235.822,223.412,235.638Z" transform="translate(-169.877 -152.012)" fill="#7c4236"/>
          <g id="Grupo_1022901" data-name="Grupo 1022901" transform="translate(53.141 83.087)">
            <path id="Trazado_723266" data-name="Trazado 723266" d="M234.012,242.123c.018.013-.028.1-.133.258a3.432,3.432,0,0,1-.534.638,5.073,5.073,0,0,1-2.74,1.356,6.55,6.55,0,0,1-4.451-.9,6.908,6.908,0,0,1-3-4.663,7.1,7.1,0,0,1-.076-1.5,3.186,3.186,0,0,1,.386-1.485,1.307,1.307,0,0,1,.681-.535,2.338,2.338,0,0,1,.755-.1l1.3.039c1.685.082,3.185.251,4.445.377,2.515.274,4.073.348,4.074.438a17.583,17.583,0,0,1-4.111.011c-1.266-.07-2.768-.191-4.432-.24l-1.273-.017c-.432,0-.739.07-.913.364a2.657,2.657,0,0,0-.278,1.185,6.659,6.659,0,0,0,.072,1.355,6.443,6.443,0,0,0,2.687,4.274,6.27,6.27,0,0,0,4.067.946,5.214,5.214,0,0,0,2.639-1.1C233.729,242.408,233.959,242.081,234.012,242.123Z" transform="translate(-223.071 -235.198)" fill="#263238"/>
          </g>
        </g>
        <g id="Grupo_1022921" data-name="Grupo 1022921" transform="translate(106.907)">
          <g id="Grupo_1022904" data-name="Grupo 1022904" transform="translate(31.105)">
            <g id="Grupo_1022903" data-name="Grupo 1022903">
              <path id="Trazado_723267" data-name="Trazado 723267" d="M292.4,218.251s15.51-1.928,38.828-20.474,35.936-44.9,38.54-44.522,14.532-3.849,31.81,45.475,7.683,59.5,3.367,59-32.91-11.447-51.448-11.09-43.015,7.7-43.015,7.7Z" transform="translate(-292.397 -153.252)" fill="#cb7612"/>
            </g>
          </g>
          <g id="Grupo_1022906" data-name="Grupo 1022906" transform="translate(0 89.164)">
            <g id="Grupo_1022905" data-name="Grupo 1022905">
              <path id="Trazado_723268" data-name="Trazado 723268" d="M270.191,238.754l8.289-1.77L274,226.084l-7.008,3.491Z" transform="translate(-266.989 -226.084)" fill="#455a64"/>
            </g>
          </g>
          <g id="Grupo_1022908" data-name="Grupo 1022908" transform="translate(3.202 57.937)">
            <g id="Grupo_1022907" data-name="Grupo 1022907">
              <path id="Trazado_723269" data-name="Trazado 723269" d="M270.578,231.5l3.063,9.206,1.906,4.634a12.919,12.919,0,0,0,16.23,7.276l33.633-9.455-14.45-42.587-33.413,14.09A12.922,12.922,0,0,0,270.578,231.5Z" transform="translate(-269.604 -200.577)" fill="#263238"/>
            </g>
          </g>
          <g id="Grupo_1022910" data-name="Grupo 1022910" transform="translate(16.231 94.567)">
            <g id="Grupo_1022909" data-name="Grupo 1022909">
              <path id="Trazado_723270" data-name="Trazado 723270" d="M280.247,238.942l11.265,19.978,5.148-1.664,35.161,26.251,8.73-19s-20.458-7.822-24.474-14.834.213-8.817.213-8.817L306.383,230.5Z" transform="translate(-280.247 -230.498)" fill="#263238"/>
            </g>
          </g>
          <g id="Grupo_1022912" data-name="Grupo 1022912" transform="translate(108.136 1.334)">
            <g id="Grupo_1022911" data-name="Grupo 1022911">
              <path id="Trazado_723271" data-name="Trazado 723271" d="M385.628,199.182c9.154,26.7,11.818,49.974,5.951,51.986s-18.043-18-27.2-44.7-11.818-49.974-5.951-51.985S376.475,172.483,385.628,199.182Z" transform="translate(-355.319 -154.341)" fill="#263238"/>
            </g>
          </g>
          <g id="Grupo_1022914" data-name="Grupo 1022914" transform="translate(115.402 36.983)">
            <g id="Grupo_1022913" data-name="Grupo 1022913">
              <path id="Trazado_723272" data-name="Trazado 723272" d="M361.254,184.736s13.977-6.944,19.52,11.578-8.627,20.146-8.627,20.146A119.406,119.406,0,0,1,361.254,184.736Z" transform="translate(-361.254 -183.46)" fill="#fafafa"/>
            </g>
          </g>
          <g id="Grupo_1022916" data-name="Grupo 1022916" transform="translate(103.33 15.672)">
            <g id="Grupo_1022915" data-name="Grupo 1022915">
              <path id="Trazado_723273" data-name="Trazado 723273" d="M351.424,166.053a19.984,19.984,0,0,0,.2,3.457c.212,2.22.5,5.439.984,9.4.378,1.966.792,4.113,1.235,6.415q.338,1.732.7,3.575.182.922.368,1.868c.14.628.34,1.25.512,1.888.72,2.544,1.475,5.213,2.257,7.98l.6,2.092c.193.706.5,1.381.741,2.081q.78,2.088,1.58,4.232t1.588,4.232c.275.689.492,1.4.809,2.057l.926,1.971c1.225,2.6,2.41,5.109,3.538,7.5.29.594.547,1.194.853,1.759q.483.839.952,1.654.94,1.629,1.823,3.16c1.18,2.029,2.28,3.922,3.287,5.655,2.237,3.3,4.127,5.911,5.423,7.722a20.093,20.093,0,0,0,2.125,2.74,20.221,20.221,0,0,0-1.758-2.987c-1.241-1.92-2.982-4.615-5.122-7.924-.962-1.742-2.014-3.643-3.141-5.683l-1.757-3.159q-.455-.812-.921-1.649c-.3-.566-.546-1.167-.828-1.759l-3.455-7.48q-.452-.971-.91-1.96c-.313-.655-.525-1.36-.8-2.046l-1.571-4.2q-.8-2.126-1.576-4.2c-.245-.7-.548-1.366-.742-2.065l-.6-2.075-2.306-7.907c-.177-.632-.384-1.247-.531-1.869q-.2-.938-.389-1.851c-.257-1.216-.507-2.4-.749-3.54-.49-2.28-.946-4.407-1.365-6.354-.558-3.893-1.014-7.063-1.338-9.32A20.412,20.412,0,0,0,351.424,166.053Z" transform="translate(-351.393 -166.053)" fill="#263238"/>
            </g>
          </g>
          <g id="Grupo_1022917" data-name="Grupo 1022917" transform="translate(20.072 100.514)">
            <path id="Trazado_723274" data-name="Trazado 723274" d="M322.32,235.366a7.629,7.629,0,0,1-1.512.479l-4.172,1.093c-3.525.911-8.384,2.2-13.738,3.675s-10.2,2.829-13.743,3.706c-1.768.441-3.206.771-4.2.978a7.626,7.626,0,0,1-1.566.257,7.559,7.559,0,0,1,1.506-.5l4.149-1.174L302.729,240c5.36-1.48,10.246-2.7,13.8-3.5,1.778-.4,3.221-.708,4.222-.9A7.639,7.639,0,0,1,322.32,235.366Z" transform="translate(-283.385 -235.355)" fill="#455a64"/>
          </g>
          <g id="Grupo_1022918" data-name="Grupo 1022918" transform="translate(15.95 93.559)">
            <path id="Trazado_723275" data-name="Trazado 723275" d="M303.309,229.686a18.37,18.37,0,0,1-3.286,1.4c-2.064.772-4.946,1.759-8.167,2.723s-6.175,1.716-8.325,2.2a18.285,18.285,0,0,1-3.514.632,21.606,21.606,0,0,1,3.4-1.068c2.117-.6,5.04-1.418,8.254-2.376s6.105-1.876,8.2-2.538A21.5,21.5,0,0,1,303.309,229.686Z" transform="translate(-280.018 -229.675)" fill="#455a64"/>
          </g>
          <g id="Grupo_1022919" data-name="Grupo 1022919" transform="translate(12.967 83.831)">
            <path id="Trazado_723276" data-name="Trazado 723276" d="M298.514,221.743c.05.168-4.595,1.721-10.374,3.468s-10.509,3.028-10.559,2.859,4.593-1.721,10.374-3.469S298.463,221.574,298.514,221.743Z" transform="translate(-277.581 -221.728)" fill="#455a64"/>
          </g>
          <g id="Grupo_1022920" data-name="Grupo 1022920" transform="translate(10.759 74.464)">
            <path id="Trazado_723277" data-name="Trazado 723277" d="M293.7,214.088c.071.162-3.886,2.049-8.834,4.215s-9.02,3.793-9.091,3.631,3.884-2.048,8.835-4.215S293.632,213.928,293.7,214.088Z" transform="translate(-275.777 -214.077)" fill="#455a64"/>
          </g>
        </g>
        <g id="Grupo_1022928" data-name="Grupo 1022928" transform="translate(4.871 143.21)">
          <path id="Trazado_723278" data-name="Trazado 723278" d="M276.527,306.862,256.1,272.411l-52.8-2.18.055,4.8s-14.5,14.585-19.175,34.458c-3.537,15.043,11.344,72.461,15.532,92.362C204.862,426.323,212,457.3,212,457.3c-1.059,5.482-8.1,9.922-7.615,17.245l117.356-1.287-6.029-23.784Z" transform="translate(-183.642 -270.231)" fill="#ffa031"/>
          <g id="Grupo_1022922" data-name="Grupo 1022922" transform="translate(29.281 188.033)">
            <path id="Trazado_723279" data-name="Trazado 723279" d="M311.872,424.144c0,.175-23.353.318-52.153.318s-52.158-.143-52.158-.318,23.347-.32,52.158-.32S311.872,423.967,311.872,424.144Z" transform="translate(-207.56 -423.824)" fill="#fff"/>
          </g>
          <g id="Grupo_1022923" data-name="Grupo 1022923" transform="translate(22.117 158.591)">
            <path id="Trazado_723280" data-name="Trazado 723280" d="M305.075,400.094c0,.176-23.142.318-51.681.318s-51.686-.142-51.686-.318,23.137-.32,51.686-.32S305.075,399.917,305.075,400.094Z" transform="translate(-201.708 -399.774)" fill="#fff"/>
          </g>
          <g id="Grupo_1022924" data-name="Grupo 1022924" transform="translate(16.361 126.581)">
            <path id="Trazado_723281" data-name="Trazado 723281" d="M298.165,373.947c0,.176-22.647.318-50.578.318s-50.582-.142-50.582-.318,22.642-.319,50.582-.319S298.165,373.77,298.165,373.947Z" transform="translate(-197.006 -373.627)" fill="#fff"/>
          </g>
          <g id="Grupo_1022925" data-name="Grupo 1022925" transform="translate(7.753 94.371)">
            <path id="Trazado_723282" data-name="Trazado 723282" d="M294.173,347.635c0,.176-23.327.32-52.1.32s-52.1-.143-52.1-.32,23.323-.318,52.1-.318S294.173,347.46,294.173,347.635Z" transform="translate(-189.975 -347.317)" fill="#fff"/>
          </g>
          <g id="Grupo_1022926" data-name="Grupo 1022926" transform="translate(1.031 54.41)">
            <path id="Trazado_723283" data-name="Trazado 723283" d="M283.08,314.993c0,.176-22.073.32-49.3.32s-49.3-.143-49.3-.32,22.068-.318,49.3-.318S283.08,314.818,283.08,314.993Z" transform="translate(-184.484 -314.675)" fill="#fff"/>
          </g>
          <g id="Grupo_1022927" data-name="Grupo 1022927" transform="translate(9.993 17.809)">
            <path id="Trazado_723284" data-name="Trazado 723284" d="M264.632,285.1c0,.176-16.3.318-36.411.318s-36.416-.142-36.416-.318,16.3-.32,36.416-.32S264.632,284.921,264.632,285.1Z" transform="translate(-191.805 -284.778)" fill="#fff"/>
          </g>
        </g>
        <g id="Grupo_1022938" data-name="Grupo 1022938" transform="translate(15.497 105.678)">
          <g id="Grupo_1022934" data-name="Grupo 1022934">
            <path id="Trazado_723285" data-name="Trazado 723285" d="M196.306,317.506s7.47,13.18,19.261,22.964,47.667,27.346,47.667,27.346l2.987-6.195,26.767,6.248-4.959-16.47Z" transform="translate(-191.428 -222.099)" opacity="0.3"/>
            <path id="Trazado_723286" data-name="Trazado 723286" d="M317.873,283.551l-9.331,50.728L228.522,296.24l-12.894,45.12c31.447,15.38,95.114,40.982,103.309,40.242,11.651-1.053,19.7-8.011,23.329-25.081,2.245-10.563,1.184-81.414,1.184-81.414Z" transform="translate(-187.096 -231.606)" fill="#c17560"/>
            <g id="Grupo_1022930" data-name="Grupo 1022930" transform="translate(0 50.69)">
              <path id="Trazado_723287" data-name="Trazado 723287" d="M238.934,288.074s-29.929-18.488-42.982,4.809c-9.329,22.719,1,40.867,24.033,52.134,11.109,5.433,26.239,12.142,41.522,18.514l22.266-49.414Z" transform="translate(-192.274 -280.949)" fill="#ffa031"/>
              <g id="Grupo_1022929" data-name="Grupo 1022929">
                <path id="Trazado_723288" data-name="Trazado 723288" d="M238.981,288.105s.285.137.824.435l2.373,1.337,9.037,5.169,32.733,18.885.2.114-.094.208c-6.343,14.119-13.935,31.02-22.211,49.438l-.125.277-.28-.116c-7.834-3.264-15.914-6.731-24.131-10.41q-5.461-2.446-10.762-4.928c-3.531-1.655-7-3.313-10.352-5.132-1.649-.946-3.27-1.924-4.833-2.953-1.519-1.1-3.088-2.106-4.471-3.331a45.488,45.488,0,0,1-7.577-7.749l-1.522-2.173a22.685,22.685,0,0,1-1.331-2.259,35.4,35.4,0,0,1-2.173-4.677c-.293-.8-.492-1.622-.741-2.424l-.354-1.2c-.1-.4-.151-.819-.228-1.227q-.211-1.225-.42-2.435c-.073-.813-.1-1.626-.153-2.431a33.629,33.629,0,0,1,.092-4.76c.124-1.56.455-3.07.667-4.57.387-1.464.747-2.911,1.151-4.317q.751-2.062,1.474-4.051l0-.011.009-.016a24.5,24.5,0,0,1,7.081-8.015,21.692,21.692,0,0,1,8.9-3.5,35.25,35.25,0,0,1,15.225,1.483,55.547,55.547,0,0,1,9.032,3.659c.994.511,1.737.929,2.232,1.219s.731.469.731.469-.264-.132-.768-.4-1.259-.667-2.26-1.156a58.775,58.775,0,0,0-9.047-3.522,35.2,35.2,0,0,0-15.083-1.358,21.287,21.287,0,0,0-8.7,3.479,24.083,24.083,0,0,0-6.906,7.89l.013-.027q-.709,1.972-1.443,4.017c-.394,1.392-.744,2.823-1.123,4.271-.2,1.48-.528,2.974-.644,4.509a33.369,33.369,0,0,0-.077,4.688c.054.792.083,1.591.157,2.391q.209,1.188.42,2.392c.077.4.127.807.226,1.2l.35,1.184c.246.786.444,1.6.733,2.379a34.776,34.776,0,0,0,2.145,4.59,22.42,22.42,0,0,0,1.312,2.22l1.5,2.136a44.967,44.967,0,0,0,7.489,7.634c1.367,1.21,2.923,2.2,4.427,3.29,1.55,1.017,3.157,1.984,4.793,2.922,3.315,1.8,6.79,3.455,10.317,5.106s7.115,3.291,10.754,4.92c8.21,3.676,16.285,7.146,24.11,10.414l-.4.159c8.315-18.4,15.946-35.284,22.32-49.389l.1.323c-13.642-7.976-24.826-14.517-32.626-19.076L242.1,290l-2.336-1.4C239.241,288.286,238.981,288.105,238.981,288.105Z" transform="translate(-192.322 -280.98)" fill="#263238"/>
              </g>
            </g>
            <g id="Grupo_1022932" data-name="Grupo 1022932" transform="translate(124.302)">
              <g id="Grupo_1022931" data-name="Grupo 1022931">
                <path id="Trazado_723289" data-name="Trazado 723289" d="M299.136,300.2l1.8-18.9s-7.222-14.546-7.082-16,.564-9.471.564-9.471l18.057-16.254s5.848,0,6,5.787c0,0,5.629-1.185,5.7,5.556,0,0,6.092.224,6.251,5.152h0s3.671-.485,3.544,4.663c-.093,3.7-1.709,17.892-1.709,17.892l-7.552,13.135-.622,13.136Z" transform="translate(-293.856 -239.574)" fill="#c17560"/>
              </g>
            </g>
            <g id="Grupo_1022933" data-name="Grupo 1022933" transform="translate(121.44 102.67)">
              <path id="Trazado_723290" data-name="Trazado 723290" d="M301.531,341.981c-.208.07-1.539-4.519-4.274-9.668s-5.9-8.739-5.732-8.872a12.086,12.086,0,0,1,2.136,2.278,40.2,40.2,0,0,1,4.157,6.294,43.9,43.9,0,0,1,2.945,6.94A12.739,12.739,0,0,1,301.531,341.981Z" transform="translate(-291.519 -323.439)" fill="#7c4236"/>
            </g>
          </g>
          <g id="Grupo_1022935" data-name="Grupo 1022935" transform="translate(4.953 51.54)">
            <path id="Trazado_723291" data-name="Trazado 723291" d="M219.947,281.674a10.772,10.772,0,0,1-.8,1.718c-.547,1.087-1.367,2.646-2.4,4.559-2.065,3.829-5.011,9.068-8.314,14.823-3.281,5.7-6.25,10.861-8.474,14.727-1.044,1.806-1.912,3.305-2.578,4.459a10.6,10.6,0,0,1-1.012,1.6,10.735,10.735,0,0,1,.795-1.718c.547-1.087,1.369-2.644,2.4-4.558,2.065-3.829,5.012-9.069,8.315-14.825l8.474-14.725,2.577-4.459A10.713,10.713,0,0,1,219.947,281.674Z" transform="translate(-196.367 -281.674)" fill="#fff"/>
          </g>
          <g id="Grupo_1022936" data-name="Grupo 1022936" transform="translate(25.664 62.226)">
            <path id="Trazado_723292" data-name="Trazado 723292" d="M240.551,290.4a2.04,2.04,0,0,1-.195.552l-.672,1.53c-.595,1.325-1.486,3.226-2.614,5.563-2.253,4.675-5.482,11.078-9.248,18.044s-7.363,13.175-10.041,17.619c-1.339,2.223-2.442,4.009-3.226,5.231l-.913,1.4a2.064,2.064,0,0,1-.355.465,2.054,2.054,0,0,1,.246-.533c.22-.4.488-.88.809-1.46l3.05-5.332c2.578-4.5,6.1-10.735,9.87-17.694s7.05-13.322,9.4-17.941c1.145-2.242,2.089-4.089,2.794-5.471l.78-1.478A2.047,2.047,0,0,1,240.551,290.4Z" transform="translate(-213.285 -290.403)" fill="#fff"/>
          </g>
          <g id="Grupo_1022937" data-name="Grupo 1022937" transform="translate(53.633 77.503)">
            <path id="Trazado_723293" data-name="Trazado 723293" d="M262.726,302.882a13.606,13.606,0,0,1-.736,2.024c-.508,1.289-1.29,3.135-2.3,5.4-2.014,4.528-5,10.7-8.682,17.3S243.644,340,240.852,344.1c-1.4,2.047-2.554,3.684-3.384,4.793a13.9,13.9,0,0,1-1.334,1.691,13.9,13.9,0,0,1,1.131-1.833l3.211-4.9c2.692-4.15,6.3-9.957,9.976-16.547s6.715-12.711,8.83-17.183l2.48-5.308A14.052,14.052,0,0,1,262.726,302.882Z" transform="translate(-236.131 -302.882)" fill="#fff"/>
          </g>
        </g>
      </g>
      <path id="Trazado_723294" data-name="Trazado 723294" d="M199.746,459.993,202.3,437.33,314.251,436.1l2.855,23.89Z" transform="translate(4.503 63.424)" fill="#263238"/>
    </g>
  </g>
</svg>
