<svg xmlns="http://www.w3.org/2000/svg" width="88" height="88" viewBox="0 0 88 88">
  <g id="Grupo_1013412" data-name="Grupo 1013412" transform="translate(-224 -409)">
    <path id="Trazado_710239" data-name="Trazado 710239" d="M44,0A44,44,0,1,1,0,44,44,44,0,0,1,44,0Z" transform="translate(224 409)" fill="#d2e1f1"/>
    <g id="Grupo_1022989" data-name="Grupo 1022989" transform="translate(233 414)">
      <g id="Grupo_1022987" data-name="Grupo 1022987" transform="translate(8.887 8.887)">
        <g id="Grupo_1022943" data-name="Grupo 1022943" transform="translate(7.185 5.323)">
          <path id="Trazado_723295" data-name="Trazado 723295" d="M89.494,67.548H80.8a4.437,4.437,0,0,1,8.694,0Z" transform="translate(-80.8 -64)" fill="#656d78"/>
        </g>
        <g id="Grupo_1022944" data-name="Grupo 1022944" transform="translate(22.266 0)">
          <path id="Trazado_723296" data-name="Trazado 723296" d="M225.494,19.548H216.8a4.437,4.437,0,0,1,8.694,0Z" transform="translate(-216.8 -16)" fill="#b27946"/>
        </g>
        <g id="Grupo_1022945" data-name="Grupo 1022945" transform="translate(37.347 5.323)">
          <path id="Trazado_723297" data-name="Trazado 723297" d="M358.406,64.177a4.442,4.442,0,0,1,3.087,3.371H352.8A4.436,4.436,0,0,1,357.147,64,4.549,4.549,0,0,1,358.406,64.177Z" transform="translate(-352.8 -64)" fill="#e6e9ed"/>
        </g>
        <g id="Grupo_1022946" data-name="Grupo 1022946" transform="translate(42.953 3.548)">
          <path id="Trazado_723298" data-name="Trazado 723298" d="M410.084,51.548a3.547,3.547,0,0,1-3.548,3.548h-.089a4.481,4.481,0,0,0,0-1.774,4.442,4.442,0,0,0-3.087-3.371,3.553,3.553,0,0,1,6.724,1.6Z" transform="translate(-403.36 -48)" fill="#e6e9ed"/>
        </g>
        <g id="Grupo_1022947" data-name="Grupo 1022947" transform="translate(5.411 14.282)">
          <path id="Trazado_723299" data-name="Trazado 723299" d="M68.26,145.6a2.658,2.658,0,0,0,2.661,2.661H64.8a4.432,4.432,0,0,1,3.46-3.46Z" transform="translate(-64.8 -144.8)" fill="#4db1f0"/>
        </g>
        <g id="Grupo_1022948" data-name="Grupo 1022948" transform="translate(11.532 14.282)">
          <path id="Trazado_723300" data-name="Trazado 723300" d="M126.183,148.677a9.42,9.42,0,0,0-.692,2.227,5.345,5.345,0,0,0-4.6-2.644H120a2.665,2.665,0,0,0,2.661-2.661v-.8a4.441,4.441,0,0,1,3.522,3.877Z" transform="translate(-120 -144.8)" fill="#4db1f0"/>
        </g>
        <g id="Grupo_1022949" data-name="Grupo 1022949" transform="translate(41.694 14.282)">
          <path id="Trazado_723301" data-name="Trazado 723301" d="M398.21,149.147V150A5.954,5.954,0,0,0,394,148.26h-2a2.665,2.665,0,0,0,2.661-2.661v-.8A4.436,4.436,0,0,1,398.21,149.147Z" transform="translate(-392 -144.8)" fill="#4db1f0"/>
        </g>
        <g id="Grupo_1022950" data-name="Grupo 1022950" transform="translate(35.51 14.282)">
          <path id="Trazado_723302" data-name="Trazado 723302" d="M342.423,148.26H342.2a5.971,5.971,0,0,0-5.2,3.025h-.009a9.6,9.6,0,0,0-.754-2.608,4.441,4.441,0,0,1,3.522-3.877v.8a2.658,2.658,0,0,0,2.661,2.661Z" transform="translate(-336.24 -144.8)" fill="#4db1f0"/>
        </g>
        <g id="Grupo_1022951" data-name="Grupo 1022951" transform="translate(20.403 8.96)">
          <path id="Trazado_723303" data-name="Trazado 723303" d="M203.548,97.6a2.658,2.658,0,0,0,2.661,2.661,9.714,9.714,0,0,0-6.21,2.227v-1.34a4.436,4.436,0,0,1,3.548-4.347Z" transform="translate(-200 -96.8)" fill="#ff826e"/>
        </g>
        <g id="Grupo_1022952" data-name="Grupo 1022952" transform="translate(26.613 8.96)">
          <path id="Trazado_723304" data-name="Trazado 723304" d="M262.21,101.147v1.34A9.714,9.714,0,0,0,256,100.26a2.665,2.665,0,0,0,2.661-2.661v-.8a4.418,4.418,0,0,1,3.548,4.347Z" transform="translate(-256 -96.8)" fill="#ff826e"/>
        </g>
        <g id="Grupo_1022953" data-name="Grupo 1022953" transform="translate(0 35.244)">
          <path id="Trazado_723305" data-name="Trazado 723305" d="M22.5,337.034l2.076,3.85,2.067,3.841v7.1H16V339.792a6.1,6.1,0,0,1,2.44-4.879,6,6,0,0,1,2.342-1.073Z" transform="translate(-16 -333.84)" fill="#4db1f0"/>
        </g>
        <g id="Grupo_1022954" data-name="Grupo 1022954" transform="translate(10.645 42.838)">
          <path id="Trazado_723306" data-name="Trazado 723306" d="M115.548,405.611v7.1H112v-7.1l1.774-3.291v2.4a.89.89,0,0,0,.887.887Z" transform="translate(-112 -402.32)" fill="#4db1f0"/>
        </g>
        <g id="Grupo_1022955" data-name="Grupo 1022955" transform="translate(8.578 39.919)">
          <path id="Trazado_723307" data-name="Trazado 723307" d="M94.54,376h2.954a9.246,9.246,0,0,0-.293,2.289v.63l-1.774,3.291-2.067-3.841Z" transform="translate(-93.36 -376)" fill="#e6e9ed"/>
        </g>
        <g id="Grupo_1022956" data-name="Grupo 1022956" transform="translate(8.871 36.371)">
          <path id="Trazado_723308" data-name="Trazado 723308" d="M97.774,344l2.927,1.464a8.583,8.583,0,0,0-.852,2.085H96.887L96,344.887Z" transform="translate(-96 -344)" fill="#ccd1d9"/>
        </g>
        <g id="Grupo_1022957" data-name="Grupo 1022957" transform="translate(6.502 37.258)">
          <path id="Trazado_723309" data-name="Trazado 723309" d="M77.9,354.661l-1.18,2.369-2.076-3.85L77.009,352Z" transform="translate(-74.64 -352)" fill="#fcd770"/>
        </g>
        <g id="Grupo_1022958" data-name="Grupo 1022958" transform="translate(10.645 34.597)">
          <path id="Trazado_723310" data-name="Trazado 723310" d="M114.661,328l2.644.532a8.688,8.688,0,0,0-2.377,2.706L112,329.774Z" transform="translate(-112 -328)" fill="#ffc729"/>
        </g>
        <g id="Grupo_1022959" data-name="Grupo 1022959" transform="translate(4.781 34.597)">
          <path id="Trazado_723311" data-name="Trazado 723311" d="M64.984,329.774l-1.774.887-2.369,1.18-1.721-3.194a.653.653,0,0,1,.124-.035L62.322,328Z" transform="translate(-59.12 -328)" fill="#ffc729"/>
        </g>
        <g id="Grupo_1022960" data-name="Grupo 1022960" transform="translate(3.548 17.742)">
          <path id="Trazado_723312" data-name="Trazado 723312" d="M61.306,185.35a6.652,6.652,0,0,1-1.233,1.579l-.63.6a4.18,4.18,0,0,0,.089-.887v-1.668a3.556,3.556,0,0,0-2.688-3.442l-.585-.142-.009-.009a3.03,3.03,0,0,1-2.014,1.2l-2.049.293a1.783,1.783,0,0,0-1.526,1.756v2.014a4.18,4.18,0,0,0,.089.887l-.63-.6A6.776,6.776,0,0,1,48,181.988v-4.214A1.779,1.779,0,0,1,49.774,176h7.1a5.345,5.345,0,0,1,4.6,2.644,9.227,9.227,0,0,0-.169,1.792Z" transform="translate(-48 -176)" fill="#b27946"/>
        </g>
        <g id="Grupo_1022961" data-name="Grupo 1022961" transform="translate(36.265 17.742)">
          <path id="Trazado_723313" data-name="Trazado 723313" d="M353.792,184.631a1.783,1.783,0,0,0-1.526-1.756l-2.049-.293a3.03,3.03,0,0,1-2.014-1.2l-.009.009-.585.142a3.556,3.556,0,0,0-2.688,3.442v1.668a4.182,4.182,0,0,0,.089.887l-.63-.6a6.651,6.651,0,0,1-1.233-1.579v-4.915a9.265,9.265,0,0,0-.106-1.41h.009a5.971,5.971,0,0,1,5.2-3.025h2.218a6,6,0,0,1,5.988,5.988,6.776,6.776,0,0,1-2.12,4.941l-.63.6a4.18,4.18,0,0,0,.089-.887Z" transform="translate(-343.04 -176)" fill="#b27946"/>
        </g>
        <g id="Grupo_1022962" data-name="Grupo 1022962" transform="translate(42.581 35.244)">
          <path id="Trazado_723314" data-name="Trazado 723314" d="M407.1,351.821H400v-7.1l2.067-3.841,2.076-3.85,1.721-3.194A6.081,6.081,0,0,1,410,337.06a6.132,6.132,0,0,1,.648,2.732v12.029Z" transform="translate(-400 -333.84)" fill="#e6e9ed"/>
        </g>
        <g id="Grupo_1022963" data-name="Grupo 1022963" transform="translate(39.032 42.838)">
          <path id="Trazado_723315" data-name="Trazado 723315" d="M371.548,405.611v7.1H368v-7.1h.887a.89.89,0,0,0,.887-.887v-2.4Z" transform="translate(-368 -402.32)" fill="#e6e9ed"/>
        </g>
        <g id="Grupo_1022964" data-name="Grupo 1022964" transform="translate(40.514 39.919)">
          <path id="Trazado_723316" data-name="Trazado 723316" d="M384.314,376l1.18,2.369-2.067,3.841-1.774-3.291v-.63A9.246,9.246,0,0,0,381.36,376Z" transform="translate(-381.36 -376)" fill="#ffa031"/>
        </g>
        <g id="Grupo_1022965" data-name="Grupo 1022965" transform="translate(39.653 36.371)">
          <path id="Trazado_723317" data-name="Trazado 723317" d="M378.3,344.887l-.887,2.661h-2.963a8.584,8.584,0,0,0-.852-2.085L376.527,344Z" transform="translate(-373.6 -344)" fill="#ffa031"/>
        </g>
        <g id="Grupo_1022966" data-name="Grupo 1022966" transform="translate(43.468 37.258)">
          <path id="Trazado_723318" data-name="Trazado 723318" d="M411.256,353.18l-2.076,3.85L408,354.661l.887-2.661Z" transform="translate(-408 -352)" fill="#ffa031"/>
        </g>
        <g id="Grupo_1022967" data-name="Grupo 1022967" transform="translate(42.581 34.597)">
          <path id="Trazado_723319" data-name="Trazado 723319" d="M405.864,328.648l-1.721,3.194-2.369-1.18L400,329.774,402.661,328l3.078.612a.653.653,0,0,1,.124.035Z" transform="translate(-400 -328)" fill="#ffa031"/>
        </g>
        <g id="Grupo_1022968" data-name="Grupo 1022968" transform="translate(37.276 34.597)">
          <path id="Trazado_723320" data-name="Trazado 723320" d="M357.465,329.774l-2.927,1.464a8.688,8.688,0,0,0-2.377-2.706L354.8,328Z" transform="translate(-352.16 -328)" fill="#ffa031"/>
        </g>
        <g id="Grupo_1022969" data-name="Grupo 1022969" transform="translate(14.194 46.129)">
          <path id="Trazado_723321" data-name="Trazado 723321" d="M149.323,436.435V439.1H144V432h3.735a10.645,10.645,0,0,0,.532,1.792Z" transform="translate(-144 -432)" fill="#f0d0b4"/>
        </g>
        <g id="Grupo_1022970" data-name="Grupo 1022970" transform="translate(33.71 46.129)">
          <path id="Trazado_723322" data-name="Trazado 723322" d="M325.323,432v7.1H320v-2.661l1.056-2.644a10.643,10.643,0,0,0,.532-1.792Z" transform="translate(-320 -432)" fill="#f0d0b4"/>
        </g>
        <g id="Grupo_1022971" data-name="Grupo 1022971" transform="translate(12.419 33.328)">
          <path id="Trazado_723323" data-name="Trazado 723323" d="M133.509,329.361h-4.622a.89.89,0,0,1-.887-.887V325.44a9.246,9.246,0,0,1,.293-2.289h.009a8.582,8.582,0,0,1,.852-2.085,8.688,8.688,0,0,1,2.377-2.706,6.206,6.206,0,0,1,.914-.594,8.916,8.916,0,0,1,3.078-1.091l.736-.115,2.59,4.817,3.344,6.21v8.871h-7.1V333.8l-1.056-2.644a10.646,10.646,0,0,1-.532-1.792Z" transform="translate(-128 -316.56)" fill="#008b8a"/>
        </g>
        <g id="Grupo_1022972" data-name="Grupo 1022972" transform="translate(26.613 33.328)">
          <path id="Trazado_723324" data-name="Trazado 723324" d="M264.685,329.361a10.646,10.646,0,0,1-.532,1.792L263.1,333.8v2.661H256v-8.871l3.344-6.21,2.59-4.817.736.115a8.916,8.916,0,0,1,3.078,1.091,6.206,6.206,0,0,1,.914.594,8.688,8.688,0,0,1,2.377,2.706,8.582,8.582,0,0,1,.852,2.085h.009a9.246,9.246,0,0,1,.293,2.289v3.034a.89.89,0,0,1-.887.887h-4.622Z" transform="translate(-256 -316.56)" fill="#008b8a"/>
        </g>
        <g id="Grupo_1022973" data-name="Grupo 1022973" transform="translate(23.269 38.145)">
          <path id="Trazado_723325" data-name="Trazado 723325" d="M232.529,360l-3.344,6.21L225.84,360Z" transform="translate(-225.84 -360)" fill="#ffeaa7"/>
        </g>
        <g id="Grupo_1022974" data-name="Grupo 1022974" transform="translate(16.855 12.419)">
          <path id="Trazado_723326" data-name="Trazado 723326" d="M177.758,133.323a7.746,7.746,0,0,1-4.915,3.291l-1.3.257v3.548a6.213,6.213,0,0,0,3.548,5.606v.1a2.653,2.653,0,0,1-2.253,2.626l-1.02.16-.736.115a8.916,8.916,0,0,0-3.078,1.091l-.009-.009V137.758a9.226,9.226,0,0,1,.169-1.792,9.42,9.42,0,0,1,.692-2.227,9.768,9.768,0,0,1,15.107-3.513,9.227,9.227,0,0,1,.692.63,9.755,9.755,0,0,1,2,2.883,9.6,9.6,0,0,1,.754,2.608,9.263,9.263,0,0,1,.106,1.41v12.348l-.009.009a8.916,8.916,0,0,0-3.078-1.091l-.736-.115-1.02-.16a2.653,2.653,0,0,1-2.253-2.626V146.1a6.03,6.03,0,0,0,3.548-5.491v-3.735l-1.3-.257a7.776,7.776,0,0,1-4.915-3.291Z" transform="translate(-168 -128)" fill="#656d78"/>
        </g>
        <g id="Grupo_1022975" data-name="Grupo 1022975" transform="translate(8.871 14.194)">
          <path id="Trazado_723327" data-name="Trazado 723327" d="M101.323,144.089v.8a2.661,2.661,0,1,1-5.323,0v-.8a4.18,4.18,0,0,1,.887-.089h3.548a4.18,4.18,0,0,1,.887.089Z" transform="translate(-96 -144)" fill="#f0d0b4"/>
        </g>
        <g id="Grupo_1022976" data-name="Grupo 1022976" transform="translate(7.097 8.871)">
          <path id="Trazado_723328" data-name="Trazado 723328" d="M88.782,96a4.18,4.18,0,0,1,.089.887,4.435,4.435,0,0,1-8.871,0A4.18,4.18,0,0,1,80.089,96Z" transform="translate(-80 -96)" fill="#f0d0b4"/>
        </g>
        <g id="Grupo_1022977" data-name="Grupo 1022977" transform="translate(23.952 8.871)">
          <path id="Trazado_723329" data-name="Trazado 723329" d="M237.323,96.089v.8a2.661,2.661,0,1,1-5.323,0v-.8a4.18,4.18,0,0,1,.887-.089h3.548A4.18,4.18,0,0,1,237.323,96.089Z" transform="translate(-232 -96)" fill="#f0d0b4"/>
        </g>
        <g id="Grupo_1022978" data-name="Grupo 1022978" transform="translate(22.177 3.548)">
          <path id="Trazado_723330" data-name="Trazado 723330" d="M224.782,48a4.18,4.18,0,0,1,.089.887,4.435,4.435,0,0,1-8.871,0,4.18,4.18,0,0,1,.089-.887Z" transform="translate(-216 -48)" fill="#f0d0b4"/>
        </g>
        <g id="Grupo_1022979" data-name="Grupo 1022979" transform="translate(39.032 14.194)">
          <path id="Trazado_723331" data-name="Trazado 723331" d="M373.323,144.089v.8a2.661,2.661,0,1,1-5.323,0v-.8a4.18,4.18,0,0,1,.887-.089h3.548a4.18,4.18,0,0,1,.887.089Z" transform="translate(-368 -144)" fill="#f0d0b4"/>
        </g>
        <g id="Grupo_1022980" data-name="Grupo 1022980" transform="translate(37.258 8.871)">
          <path id="Trazado_723332" data-name="Trazado 723332" d="M360.782,97.774A4.436,4.436,0,0,1,352,96.887a4.182,4.182,0,0,1,.089-.887h8.694a4.478,4.478,0,0,1,0,1.774Z" transform="translate(-352 -96)" fill="#f0d0b4"/>
        </g>
        <g id="Grupo_1022981" data-name="Grupo 1022981" transform="translate(39.919 32.299)">
          <path id="Trazado_723333" data-name="Trazado 723333" d="M378.661,307.8a4.352,4.352,0,0,0,2.085-.523l.577,2.3-2.661,1.774L376,309.578l.577-2.3Z" transform="translate(-376 -307.28)" fill="#f0d0b4"/>
        </g>
        <g id="Grupo_1022982" data-name="Grupo 1022982" transform="translate(38.145 23.127)">
          <path id="Trazado_723334" data-name="Trazado 723334" d="M363.282,224.56a3.03,3.03,0,0,0,2.014,1.2l2.049.293a1.783,1.783,0,0,1,1.526,1.756v2.014a4.18,4.18,0,0,1-.089.887,4.42,4.42,0,0,1-2.262,3.025,4.351,4.351,0,0,1-2.085.523l-2.085-.523a4.31,4.31,0,0,1-1.056-.772,4.476,4.476,0,0,1-1.206-2.253,4.182,4.182,0,0,1-.089-.887v-1.668a3.556,3.556,0,0,1,2.688-3.442l.585-.142Z" transform="translate(-360 -224.56)" fill="#f0d0b4"/>
        </g>
        <g id="Grupo_1022983" data-name="Grupo 1022983" transform="translate(7.984 32.299)">
          <path id="Trazado_723335" data-name="Trazado 723335" d="M93.323,309.578l-2.661,1.774L88,309.578l.577-2.3a4.352,4.352,0,0,0,2.085.523l2.085-.523Z" transform="translate(-88 -307.28)" fill="#f0d0b4"/>
        </g>
        <g id="Grupo_1022984" data-name="Grupo 1022984" transform="translate(6.21 23.127)">
          <path id="Trazado_723336" data-name="Trazado 723336" d="M78.183,224.711a3.556,3.556,0,0,1,2.688,3.442v1.668a4.18,4.18,0,0,1-.089.887,4.476,4.476,0,0,1-1.206,2.253,4.31,4.31,0,0,1-1.056.772l-2.085.523a4.352,4.352,0,0,1-2.085-.523,4.42,4.42,0,0,1-2.262-3.025A4.18,4.18,0,0,1,72,229.82v-2.014a1.783,1.783,0,0,1,1.526-1.756l2.049-.293a3.03,3.03,0,0,0,2.014-1.2l.009.009Z" transform="translate(-72 -224.56)" fill="#f0d0b4"/>
        </g>
        <g id="Grupo_1022985" data-name="Grupo 1022985" transform="translate(20.678 30.445)">
          <path id="Trazado_723337" data-name="Trazado 723337" d="M214.349,293.443l-2.59,4.817H205.07l-2.59-4.817,1.02-.16a2.653,2.653,0,0,0,2.253-2.626v-.1a6.188,6.188,0,0,0,2.688.6h.16a5.93,5.93,0,0,0,2.475-.532v.027a2.653,2.653,0,0,0,2.253,2.626Z" transform="translate(-202.48 -290.56)" fill="#f0d0b4"/>
        </g>
        <g id="Grupo_1022986" data-name="Grupo 1022986" transform="translate(20.403 17.742)">
          <path id="Trazado_723338" data-name="Trazado 723338" d="M212.419,179.548v3.735a6.03,6.03,0,0,1-3.548,5.491,5.931,5.931,0,0,1-2.475.532h-.16A6.221,6.221,0,0,1,200,183.1v-3.548l1.3-.257A7.746,7.746,0,0,0,206.21,176a7.776,7.776,0,0,0,4.915,3.291Z" transform="translate(-200 -176)" fill="#f0d0b4"/>
        </g>
      </g>
      <g id="Grupo_1022988" data-name="Grupo 1022988" transform="translate(8 8)">
        <path id="Trazado_723339" data-name="Trazado 723339" d="M60.2,44.492a7.045,7.045,0,0,0-2.824-1.262l-2.528-.506L54.57,41.59a5.332,5.332,0,0,0,2.039-2.96l.451-.429a7.707,7.707,0,0,0,2.392-5.582,6.841,6.841,0,0,0-1.774-4.594v-.508a5.325,5.325,0,0,0-3.472-4.984,5.331,5.331,0,0,0,1.41-2.173,4.426,4.426,0,1,0-4.2-6.964,5.312,5.312,0,0,0-4.464,9.135,5.291,5.291,0,0,0-2.781,2.384A10.743,10.743,0,0,0,42.6,23.153v-.959a5.325,5.325,0,0,0-3.472-4.984,5.323,5.323,0,1,0-7.249,0A5.325,5.325,0,0,0,28.4,22.194v.959a10.737,10.737,0,0,0-1.576,1.761,5.3,5.3,0,0,0-2.782-2.384,5.322,5.322,0,1,0-7.25,0,5.334,5.334,0,0,0-3.176,3.281,2.662,2.662,0,0,0-2.07,2.59v4.215A7.71,7.71,0,0,0,13.94,38.2l.452.43a5.335,5.335,0,0,0,2.039,2.96l-.283,1.134-2.528.506A6.991,6.991,0,0,0,8,50.083V63H63V50.083a7.027,7.027,0,0,0-2.8-5.591ZM24.673,38.631l.182-.174V42.91c-.08.051-.162.1-.24.153l-1.7-.339-.283-1.134a5.335,5.335,0,0,0,2.039-2.96Zm-2.293,5.8.559.112a9.526,9.526,0,0,0-.812,1.026l-.83-.415Zm-3.1,3.493-.442-1.324.689-.345,1.731.865q-.174.394-.314.8H19.285ZM17.24,47.4l.447,1.342-.254.507-.826-1.534Zm1.953,2.3h1.333a9.991,9.991,0,0,0-.107,1.4v.4l-.887,1.647-1.07-1.988Zm1.226,5.546L20.6,54.9a1.771,1.771,0,0,0,1.591,1v5.323H20.419Zm3.548.664h2.153a10.991,10.991,0,0,0,.4,1.23l1,2.488v1.6H23.968Zm4.2.571a9.118,9.118,0,0,1-.185-6.266l.374-1.122-1.682-.562L26.3,49.647a10.9,10.9,0,0,0-.558,3.443q0,.523.05,1.039h-3.6V51.094a7.942,7.942,0,0,1,6.77-7.892l.114-.018,5.535,10.281v7.76H29.29V59.281Zm7.332-28.4a8.544,8.544,0,0,0,4.736,2.709l.586.117v3.006a5.143,5.143,0,0,1-5.136,5.137H35.53a5.344,5.344,0,0,1-5.353-5.324V30.9l.586-.117A8.544,8.544,0,0,0,35.5,28.079ZM33.54,40.536a7.153,7.153,0,0,0,1.99.287h.156a6.9,6.9,0,0,0,1.786-.242,3.511,3.511,0,0,0,2.6,2.3l-1.757,3.264H32.686l-1.757-3.264a3.507,3.507,0,0,0,2.612-2.345ZM35.5,51.371l-1.858-3.452h3.717Zm.887,2.1,5.536-10.281.114.018a7.941,7.941,0,0,1,6.769,7.891v3.035h-3.6q.048-.516.049-1.039a10.873,10.873,0,0,0-.559-3.443l-.374-1.122-1.682.562.373,1.121a9.113,9.113,0,0,1-.185,6.266L41.71,59.281v1.945H36.387Zm9.758-15.01.182.173a5.335,5.335,0,0,0,2.039,2.96l-.283,1.134-1.7.339c-.078-.054-.161-.1-.24-.153Zm5.57,9.463H50.051q-.14-.411-.314-.8l1.731-.866.689.345Zm-2.842-2.356a9.751,9.751,0,0,0-.812-1.026l.559-.112,1.084.722ZM43.484,59.622l1-2.488a10.755,10.755,0,0,0,.4-1.23h2.153v5.323H43.484ZM48.806,55.9a1.771,1.771,0,0,0,1.591-1l.184.341v5.986H48.806Zm2.661-2.759L50.581,51.5v-.4a9.859,9.859,0,0,0-.108-1.4h1.333l.732,1.464Zm2.1-3.9-.254-.507L53.76,47.4l.633.317Zm2.416-4.487-.749,1.39-2-1,1.084-.722Zm-2.866-1.667-1.649,1.1-1.649-1.1L50,42.385a5.22,5.22,0,0,0,2.945,0Zm1.9-5.818a3.548,3.548,0,0,1-7.1,0V35.609a2.657,2.657,0,0,1,2.016-2.581l.073-.019A3.933,3.933,0,0,0,52.2,34.093l2.052.294a.89.89,0,0,1,.762.877ZM57.373,34.5a5.931,5.931,0,0,1-.583,1.235v-.467a2.673,2.673,0,0,0-2.284-2.634l-2.052-.294a2.191,2.191,0,0,1-1.874-2.159H48.806a3.918,3.918,0,0,0,.215,1.279,4.429,4.429,0,0,0-2.876,4.153V31.065a10.627,10.627,0,0,0-.072-1.194,5.112,5.112,0,0,1,4.287-2.354h2.214a5.109,5.109,0,0,1,5.1,5.1,5.913,5.913,0,0,1-.3,1.877ZM52.355,23.968a1.774,1.774,0,0,1-3.548,0Zm3.389,2.554a6.818,6.818,0,0,0-2.154-.7,3.508,3.508,0,0,0,.491-1.39A3.54,3.54,0,0,1,55.744,26.522Zm-5.163-4.328a3.552,3.552,0,0,1-3.548-3.548h7.1A3.552,3.552,0,0,1,50.581,22.194Zm4.435-8.871a2.648,2.648,0,0,1,.878,5.151,5.321,5.321,0,0,0-2.677-4.446A2.647,2.647,0,0,1,55.016,13.323ZM50.581,15.1a3.537,3.537,0,0,1,3.055,1.774H47.526A3.534,3.534,0,0,1,50.581,15.1Zm-3.5,9.329a3.514,3.514,0,0,0,.785,1.8,6.926,6.926,0,0,0-2.279,1.459c-.083-.248-.169-.5-.27-.735a3.523,3.523,0,0,1,1.764-2.522Zm-6.292-2.588A10.58,10.58,0,0,0,38.3,20.8,3.506,3.506,0,0,0,39,19.113,3.531,3.531,0,0,1,40.786,21.838Zm-7.06-3.193h3.548a1.774,1.774,0,0,1-3.548,0ZM35.5,16.871a3.552,3.552,0,0,1-3.548-3.548h7.1A3.552,3.552,0,0,1,35.5,16.871Zm0-7.1a3.537,3.537,0,0,1,3.055,1.774H32.446A3.534,3.534,0,0,1,35.5,9.774ZM32,19.113A3.506,3.506,0,0,0,32.7,20.8a10.58,10.58,0,0,0-2.491,1.033A3.533,3.533,0,0,1,32,19.113Zm3.5,3.081a8.881,8.881,0,0,1,8.871,8.871V42.009a9.887,9.887,0,0,0-2.064-.559l-1.754-.27A1.76,1.76,0,0,1,39.118,39.9a6.91,6.91,0,0,0,3.477-5.99V29.45l-2.013-.4a6.775,6.775,0,0,1-4.2-2.709v-2.37H34.612v2.37a6.78,6.78,0,0,1-4.2,2.709l-2.012.4v4.274a7.089,7.089,0,0,0,3.5,6.1,1.76,1.76,0,0,1-1.456,1.357l-1.754.27a9.887,9.887,0,0,0-2.064.559V31.065A8.881,8.881,0,0,1,35.5,22.194Zm-9.816,4.754c-.063.149-.111.3-.168.456a6.241,6.241,0,0,0-2.258-1.331,3.509,3.509,0,0,0,.662-1.648,3.518,3.518,0,0,1,1.764,2.523Zm-7.039-2.98h3.548a1.774,1.774,0,0,1-3.548,0Zm1.774-1.774a3.552,3.552,0,0,1-3.548-3.548h7.1A3.552,3.552,0,0,1,20.419,22.194Zm0-7.1a3.537,3.537,0,0,1,3.055,1.774H17.365A3.534,3.534,0,0,1,20.419,15.1Zm-3.5,9.325a3.5,3.5,0,0,0,.448,1.32H15.578A3.56,3.56,0,0,1,16.917,24.422Zm-3.29,10.073a5.9,5.9,0,0,1-.3-1.876V28.4a.888.888,0,0,1,.887-.887h7.1a4.45,4.45,0,0,1,3.678,1.973,10.724,10.724,0,0,0-.13,1.575v4.545a4.428,4.428,0,0,0-2.876-4.153,3.918,3.918,0,0,0,.215-1.279H20.419a2.193,2.193,0,0,1-1.873,2.16l-2.052.294a2.672,2.672,0,0,0-2.285,2.633v.467a5.937,5.937,0,0,1-.583-1.236Zm2.357.769a.892.892,0,0,1,.761-.878l2.052-.294a3.942,3.942,0,0,0,2.194-1.084l.074.019a2.659,2.659,0,0,1,2.016,2.582v1.665a3.548,3.548,0,0,1-7.1,0ZM19.532,42.6A5.28,5.28,0,0,0,21,42.385l.177.707-1.649,1.1-1.649-1.1.177-.707A5.28,5.28,0,0,0,19.532,42.6Zm-2.848,1.829,1.084.722-2,1-.75-1.39Zm-6.91,5.657a5.177,5.177,0,0,1,3.455-4.9l5.416,10.059v5.985H13.323V51.468H11.548v9.758H9.774ZM61.226,61.226H59.452V51.468H57.677v9.758H52.355V55.241l5.416-10.058a5.174,5.174,0,0,1,3.455,4.9Z" transform="translate(-8 -8)"/>
        <path id="Trazado_723340" data-name="Trazado 723340" d="M228.3,247.475a3.736,3.736,0,0,0,3.361-2.078l.093-.187-1.587-.794-.093.188a1.984,1.984,0,0,1-3.548,0l-.093-.187-1.587.794.093.186A3.736,3.736,0,0,0,228.3,247.475Z" transform="translate(-200.802 -218.201)"/>
      </g>
    </g>
  </g>
</svg>
