<svg xmlns="http://www.w3.org/2000/svg" width="821" height="656" viewBox="0 0 821 656">
  <g id="Grupo_1027599" data-name="Grupo 1027599" transform="translate(-390 -6679)">
    <g id="Grupo_1022883" data-name="Grupo 1022883" transform="translate(1 54)">
      <path id="Sustracción_1" data-name="Sustracción 1" d="M9035.5,12269a286.512,286.512,0,0,1-57.336-5.78,282.967,282.967,0,0,1-101.731-42.808,285.336,285.336,0,0,1-103.076-125.172,283.008,283.008,0,0,1-16.577-53.4,287.26,287.26,0,0,1,0-114.673,282.932,282.932,0,0,1,42.809-101.73,285.318,285.318,0,0,1,125.173-103.074,282.947,282.947,0,0,1,53.4-16.577,287.255,287.255,0,0,1,114.672,0,282.967,282.967,0,0,1,101.731,42.808,285.329,285.329,0,0,1,103.076,125.171,283.043,283.043,0,0,1,16.577,53.4,287.26,287.26,0,0,1,0,114.673,282.926,282.926,0,0,1-42.809,101.731,285.313,285.313,0,0,1-125.173,103.075,283.026,283.026,0,0,1-53.4,16.577A286.512,286.512,0,0,1,9035.5,12269Zm.5-538c-140.058,0-254,113.945-254,254s113.944,254,254,254,254-113.943,254-254S9176.057,11731,9036,11731Z" transform="translate(-8235 -4994)" fill="#ffa031"/>
      <rect id="Rectángulo_347316" data-name="Rectángulo 347316" width="296" height="172" rx="8" transform="translate(389 6893)" fill="#7dc7f5"/>
      <g id="Grupo_1022879" data-name="Grupo 1022879" transform="translate(178 6625)">
        <rect id="Rectángulo_347315" data-name="Rectángulo 347315" width="376" height="162" rx="8" transform="translate(434)" fill="#3076b6"/>
        <text id="Establecer_los_puntos_fundamentales_que_se_quieren_aclarar._Estos_temas_no_son_preguntas_que_van_a_servir_de_guía_para_recordar_los_temas_pueden_anotarlos_si_es_posible_._" data-name="Establecer los puntos fundamentales que se quieren aclarar. Estos temas (no son preguntas) que van a servir de guía para recordar los temas (pueden anotarlos si es posible). 
" transform="translate(466 22)" fill="#fff" font-size="16" font-family="Roboto-Regular, Roboto"><tspan x="0" y="17">Establecer los puntos fundamentales que </tspan><tspan x="0" y="41">se quieren aclarar. Estos temas (no son </tspan><tspan x="0" y="65">preguntas) que van a servir de guía para </tspan><tspan x="0" y="89">recordar los temas (pueden anotarlos si es </tspan><tspan x="0" y="113">posible). </tspan></text>
      </g>
      <text id="La_información_obtenida_debe_ser_comparada_con_otras_fuentes:_otras_entrevistas_resultados_de_otros_ejercicios_sobre_el_mismo_tema._Esto_es_la_triangulación." data-name="La información obtenida debe ser comparada con otras fuentes: otras entrevistas, resultados de otros ejercicios sobre el mismo tema. Esto es la triangulación." transform="translate(415 6909)" fill="#12263f" font-size="16" font-family="Roboto-Regular, Roboto"><tspan x="0" y="17">La información obtenida debe </tspan><tspan x="0" y="41">ser comparada con otras </tspan><tspan x="0" y="65">fuentes: otras entrevistas, </tspan><tspan x="0" y="89">resultados de otros ejercicios </tspan><tspan x="0" y="113">sobre el mismo tema. Esto es la </tspan><tspan x="0" y="137">triangulación.</tspan></text>
      <g id="Grupo_1022880" data-name="Grupo 1022880">
        <rect id="Rectángulo_347317" data-name="Rectángulo 347317" width="295" height="167" rx="8" transform="translate(915 6898)" fill="#d8fdfd"/>
        <text id="Determinar_cómo_se_va_a_hacer_la_selección_de_las_personas_y_o_grupos_a_entrevistar._La_selección_es_muy_importante_para_evitar_al_máximo_los_sesgos." data-name="Determinar cómo se va a hacer la selección de las personas y/o grupos a entrevistar. La selección es muy importante para evitar al máximo los sesgos." transform="translate(941 6923)" fill="#12263f" font-size="16" font-family="Roboto-Regular, Roboto"><tspan x="0" y="17">Determinar cómo se va a hacer la </tspan><tspan x="0" y="41">selección de las personas y/o </tspan><tspan x="0" y="65">grupos a entrevistar. La selección </tspan><tspan x="0" y="89">es muy importante para evitar al </tspan><tspan x="0" y="113">máximo los sesgos.</tspan></text>
      </g>
      <g id="Grupo_1022881" data-name="Grupo 1022881" transform="translate(-20 -13)">
        <rect id="Rectángulo_347318" data-name="Rectángulo 347318" width="212" height="84" rx="8" transform="translate(495 7204)" fill="#008b8a"/>
        <text id="Analizar_los_resultados." data-name="Analizar los resultados." transform="translate(521 7223)" fill="#fff" font-size="16" font-family="Roboto-Regular, Roboto"><tspan x="38" y="17">Analizar los </tspan><tspan x="39.809" y="41">resultados.</tspan></text>
      </g>
      <g id="Grupo_1022882" data-name="Grupo 1022882" transform="translate(398 -7)">
        <rect id="Rectángulo_347318-2" data-name="Rectángulo 347318" width="212" height="84" rx="8" transform="translate(495 7204)" fill="#7dc7f5"/>
        <text id="Realización_de_las_charlas." data-name="Realización de las charlas." transform="translate(521 7223)" fill="#12263f" font-size="16" font-family="Roboto-Regular, Roboto"><tspan x="15.551" y="17">Realización de las </tspan><tspan x="51.324" y="41">charlas.</tspan></text>
      </g>
      <path id="Polígono_34" data-name="Polígono 34" d="M31.849,0,63.7,26.55H0Z" transform="translate(1086 6920) rotate(177)" fill="#df8822"/>
      <path id="Polígono_35" data-name="Polígono 35" d="M31.849,0,63.7,26.55H0Z" transform="translate(988.883 7228.293) rotate(-139)" fill="#df8822"/>
      <path id="Polígono_36" data-name="Polígono 36" d="M31.849,0,63.7,26.55H0Z" transform="matrix(0.276, -0.961, 0.961, 0.276, 661.921, 7255.25)" fill="#df8822"/>
      <path id="Polígono_37" data-name="Polígono 37" d="M31.849,0,63.7,26.55H0Z" transform="translate(502.564 7054.896) rotate(-19)" fill="#df8822"/>
      <path id="Polígono_38" data-name="Polígono 38" d="M31.849,0,63.7,26.55H0Z" transform="translate(602.58 6753.949) rotate(29)" fill="#df8822"/>
      <path id="Trazado_723248" data-name="Trazado 723248" d="M-8120.575-4932.425l10.15,28.5L-8094.7-4919Z" transform="translate(8751 11700)" fill="#3076b6"/>
      <path id="Trazado_723249" data-name="Trazado 723249" d="M-7810.19-4499.8l20.857-16.466,3.134,24.466Z" transform="translate(8751 11700)" fill="#7dc7f5"/>
    </g>
  </g>
</svg>
