<svg xmlns="http://www.w3.org/2000/svg" width="297" height="264.619" viewBox="0 0 297 264.619">
  <g id="Grupo_1027193" data-name="Grupo 1027193" transform="translate(-119.333 -63.146)">
    <g id="Shield" transform="translate(120.333 63.146)">
      <g id="Grupo_1027177" data-name="Grupo 1027177">
        <circle id="Elipse_8575" data-name="Elipse 8575" cx="127.032" cy="127.032" r="127.032" transform="translate(18.266 3.556)" fill="none" stroke="#263238" stroke-miterlimit="10" stroke-width="1" stroke-dasharray="3"/>
        <g id="Grupo_1027145" data-name="Grupo 1027145" transform="translate(44.082 18.376)">
          <path id="Trazado_725260" data-name="Trazado 725260" d="M367.678,147.225S324.6,141.66,266.122,81.447v-.828c-.136.14-.269.274-.4.413-.135-.139-.268-.273-.4-.413v.828c-58.482,60.213-101.557,65.779-101.557,65.779-15.346,126.112,91.225,169.349,101.557,173.232v.3s.145-.05.4-.145c.259.095.4.145.4.145v-.3C276.453,316.575,383.025,273.337,367.678,147.225Z" transform="translate(-162.249 -80.619)" fill="#263238"/>
          <path id="Trazado_725261" data-name="Trazado 725261" d="M359.347,150.927s-39.721-5.132-93.652-60.659V89.5c-.125.129-.248.253-.372.382-.124-.128-.247-.252-.372-.382v.764c-53.931,55.527-93.652,60.659-93.652,60.659-14.153,116.3,84.124,156.17,93.652,159.751v.272s.134-.046.372-.134c.239.087.372.134.372.134v-.272C275.222,307.1,373.5,267.224,359.347,150.927Z" transform="translate(-161.853 -80.16)" fill="#3076b6"/>
          <path id="Trazado_725262" data-name="Trazado 725262" d="M338.925,160s-31.5-4.071-74.277-48.11v-.6l-.3.3-.3-.3v.6C221.283,155.93,189.779,160,189.779,160c-11.225,92.236,66.721,123.86,74.277,126.7v.217s.106-.037.3-.107c.189.07.3.107.3.107V286.7C272.2,283.861,350.148,252.237,338.925,160Z" transform="translate(-160.883 -79.034)" fill="#fff" opacity="0.5"/>
        </g>
        <g id="Grupo_1027165" data-name="Grupo 1027165" transform="translate(50.481 3.737)">
          <circle id="Elipse_8576" data-name="Elipse 8576" cx="22" cy="22" r="22" transform="translate(-0.481 4.403)" fill="#fff" stroke="#263238" stroke-miterlimit="10" stroke-width="2"/>
          <g id="Grupo_1027163" data-name="Grupo 1027163" transform="translate(0.823 9.359)">
            <g id="Grupo_1027146" data-name="Grupo 1027146" transform="translate(17.349 2.697)">
              <path id="Trazado_725263" data-name="Trazado 725263" d="M191.04,86.846h-5.428V80.876a2.713,2.713,0,0,1,2.713-2.713h0a2.714,2.714,0,0,1,2.714,2.713Z" transform="translate(-185.612 -78.163)" fill="#263238"/>
            </g>
            <g id="Grupo_1027147" data-name="Grupo 1027147" transform="translate(14.11)">
              <path id="Trazado_725264" data-name="Trazado 725264" d="M187.671,82.62a.513.513,0,0,1-.245-.061l-4.614-2.442a.528.528,0,0,1-.28-.465V76.125a.526.526,0,1,1,1.052,0v3.211l4.333,2.294a.526.526,0,0,1-.246.991Z" transform="translate(-182.532 -75.599)" fill="#263238"/>
            </g>
            <g id="Grupo_1027148" data-name="Grupo 1027148" transform="translate(20.35)">
              <path id="Trazado_725265" data-name="Trazado 725265" d="M188.993,82.62a.526.526,0,0,1-.247-.991l4.333-2.294V76.125a.526.526,0,1,1,1.052,0v3.527a.526.526,0,0,1-.28.465l-4.613,2.442A.519.519,0,0,1,188.993,82.62Z" transform="translate(-188.466 -75.599)" fill="#263238"/>
            </g>
            <circle id="Elipse_8577" data-name="Elipse 8577" cx="11.397" cy="11.397" r="11.397" transform="translate(8.937 7.581)" fill="#4db1f0" stroke="#263238" stroke-miterlimit="10" stroke-width="1"/>
            <g id="Grupo_1027149" data-name="Grupo 1027149" transform="translate(0 11.125)">
              <path id="Trazado_725266" data-name="Trazado 725266" d="M169.642,91.3a.526.526,0,0,1-.372-.9l4.07-4.07a.523.523,0,0,1,.521-.133l5.56,1.636a.526.526,0,1,1-.3,1.009L173.862,87.3l-3.849,3.849A.521.521,0,0,1,169.642,91.3Z" transform="translate(-169.116 -86.177)" fill="#263238"/>
            </g>
            <g id="Grupo_1027150" data-name="Grupo 1027150" transform="translate(0.814 18.452)">
              <path id="Trazado_725267" data-name="Trazado 725267" d="M170.415,97.723a.526.526,0,0,1-.4-.866L173,93.33a.528.528,0,0,1,.4-.186h4.613a.526.526,0,0,1,0,1.052h-4.369l-2.828,3.341A.524.524,0,0,1,170.415,97.723Z" transform="translate(-169.89 -93.144)" fill="#263238"/>
            </g>
            <g id="Grupo_1027151" data-name="Grupo 1027151" transform="translate(4.07 22.233)">
              <path id="Trazado_725268" data-name="Trazado 725268" d="M173.512,105.135a.462.462,0,0,1-.065,0,.526.526,0,0,1-.456-.587l.543-4.341a.524.524,0,0,1,.219-.365l4.27-3a.526.526,0,0,1,.6.861l-4.078,2.868-.514,4.11A.526.526,0,0,1,173.512,105.135Z" transform="translate(-172.986 -96.739)" fill="#263238"/>
            </g>
            <g id="Grupo_1027152" data-name="Grupo 1027152" transform="translate(29.968 11.125)">
              <path id="Trazado_725269" data-name="Trazado 725269" d="M207.785,91.3a.521.521,0,0,1-.371-.155L203.566,87.3l-5.276,1.6a.526.526,0,0,1-.3-1.008l5.577-1.686a.525.525,0,0,1,.525.131l4.07,4.07a.526.526,0,0,1-.372.9Z" transform="translate(-197.611 -86.177)" fill="#263238"/>
            </g>
            <g id="Grupo_1027153" data-name="Grupo 1027153" transform="translate(31.205 18.452)">
              <path id="Trazado_725270" data-name="Trazado 725270" d="M206.911,97.723a.527.527,0,0,1-.4-.186L203.682,94.2h-4.369a.526.526,0,0,1,0-1.052h4.613a.528.528,0,0,1,.4.186l2.985,3.527a.526.526,0,0,1-.4.866Z" transform="translate(-198.787 -93.144)" fill="#263238"/>
            </g>
            <g id="Grupo_1027154" data-name="Grupo 1027154" transform="translate(30.766 22.182)">
              <path id="Trazado_725271" data-name="Trazado 725271" d="M203.676,105.137a.526.526,0,0,1-.522-.461l-.514-4.114-4.051-2.918a.526.526,0,1,1,.614-.853l4.237,3.052a.524.524,0,0,1,.215.362l.543,4.341a.526.526,0,0,1-.456.587A.462.462,0,0,1,203.676,105.137Z" transform="translate(-198.37 -96.691)" fill="#263238"/>
            </g>
            <g id="Grupo_1027155" data-name="Grupo 1027155" transform="translate(19.808 12.309)">
              <path id="Trazado_725272" data-name="Trazado 725272" d="M189,105.368h-1.052V89.807l3.474-2.5.615.853L189,90.345Z" transform="translate(-187.951 -87.303)" fill="#263238"/>
            </g>
            <g id="Grupo_1027156" data-name="Grupo 1027156" transform="translate(20.37 14.365)">
              <path id="Trazado_725273" data-name="Trazado 725273" d="M188.955,98.14l-.47-.941,5.679-2.84v-5.1h1.052v5.752Z" transform="translate(-188.485 -89.258)" fill="#263238"/>
            </g>
            <g id="Grupo_1027157" data-name="Grupo 1027157" transform="translate(15.467 11.922)">
              <path id="Trazado_725274" data-name="Trazado 725274" d="M188.411,94.436l-4.589-2.867V86.935h1.052v4.05l4.095,2.559Z" transform="translate(-183.822 -86.935)" fill="#263238"/>
            </g>
            <g id="Grupo_1027158" data-name="Grupo 1027158" transform="translate(13.839 19.249)">
              <path id="Trazado_725275" data-name="Trazado 725275" d="M188.487,101.943l-6.213-3.954V93.9h1.052v3.51l5.726,3.644Z" transform="translate(-182.274 -93.902)" fill="#263238"/>
            </g>
            <g id="Grupo_1027159" data-name="Grupo 1027159" transform="translate(14.842 10.895)">
              <circle id="Elipse_8578" data-name="Elipse 8578" cx="1.072" cy="1.072" r="1.072" fill="#263238"/>
            </g>
            <g id="Grupo_1027160" data-name="Grupo 1027160" transform="translate(22.718 11.593)">
              <circle id="Elipse_8579" data-name="Elipse 8579" cx="1.072" cy="1.072" r="1.072" fill="#263238"/>
            </g>
            <g id="Grupo_1027161" data-name="Grupo 1027161" transform="translate(25.41 13.188)">
              <path id="Trazado_725276" data-name="Trazado 725276" d="M195.42,89.211a1.072,1.072,0,1,1-1.072-1.072A1.071,1.071,0,0,1,195.42,89.211Z" transform="translate(-193.277 -88.139)" fill="#263238"/>
            </g>
            <g id="Grupo_1027162" data-name="Grupo 1027162" transform="translate(13.297 18.023)">
              <path id="Trazado_725277" data-name="Trazado 725277" d="M183.9,93.808a1.072,1.072,0,1,1-1.072-1.072A1.072,1.072,0,0,1,183.9,93.808Z" transform="translate(-181.759 -92.736)" fill="#263238"/>
            </g>
          </g>
          <g id="Grupo_1027164" data-name="Grupo 1027164" transform="translate(28.13)">
            <circle id="Elipse_8580" data-name="Elipse 8580" cx="8.063" cy="8.063" r="8.063" transform="translate(0 15.035) rotate(-68.809)" fill="#fff" stroke="#263238" stroke-miterlimit="10" stroke-width="2"/>
            <line id="Línea_2536" data-name="Línea 2536" y1="9.816" x2="11.919" transform="translate(4.473 5.524)" fill="none" stroke="#263238" stroke-miterlimit="10" stroke-width="2"/>
          </g>
        </g>
        <g id="Grupo_1027169" data-name="Grupo 1027169" transform="translate(201.07)">
          <g id="Grupo_1027167" data-name="Grupo 1027167" transform="translate(0 8.56)">
            <circle id="Elipse_8581" data-name="Elipse 8581" cx="21.56" cy="21.56" r="21.56" fill="#4db1f0"/>
            <g id="Grupo_1027166" data-name="Grupo 1027166" transform="translate(0.087)">
              <path id="Trazado_725278" data-name="Trazado 725278" d="M343.447,108.863c-.05.034-.105.061-.156.094" transform="translate(-309.967 -69.344)" fill="none" stroke="#fff" stroke-miterlimit="10" stroke-width="1"/>
              <path id="Trazado_725279" data-name="Trazado 725279" d="M320.92,108.952a21.433,21.433,0,0,0,11.763,3.506" transform="translate(-311.124 -69.339)" fill="none" stroke="#fff" stroke-miterlimit="10" stroke-width="1"/>
              <path id="Trazado_725280" data-name="Trazado 725280" d="M350.836,83.288a21.594,21.594,0,0,0-5.157-6.836" transform="translate(-309.844 -71.019)" fill="none" stroke="#fff" stroke-miterlimit="10" stroke-width="1"/>
              <path id="Trazado_725281" data-name="Trazado 725281" d="M343.869,108.952a21.434,21.434,0,0,1-11.764,3.506" transform="translate(-310.546 -69.339)" fill="none" stroke="#fff" stroke-miterlimit="10" stroke-width="1"/>
              <path id="Trazado_725282" data-name="Trazado 725282" d="M343.439,109.194a21.651,21.651,0,0,0,6.466-6.742" transform="translate(-309.96 -69.675)" fill="none" stroke="#fff" stroke-miterlimit="10" stroke-width="1"/>
              <path id="Trazado_725283" data-name="Trazado 725283" d="M349.587,102.788a21.394,21.394,0,0,0,2.727-6.836" transform="translate(-309.642 -70.011)" fill="none" stroke="#fff" stroke-miterlimit="10" stroke-width="1"/>
              <path id="Trazado_725284" data-name="Trazado 725284" d="M321.245,109.288a21.631,21.631,0,0,1-6.621-6.836" transform="translate(-311.449 -69.675)" fill="none" stroke="#fff" stroke-miterlimit="10" stroke-width="1"/>
              <path id="Trazado_725285" data-name="Trazado 725285" d="M318.531,76.719a21.459,21.459,0,0,1,14.276-5.433" transform="translate(-311.247 -71.286)" fill="none" stroke="#fff" stroke-miterlimit="10" stroke-width="1"/>
              <path id="Trazado_725286" data-name="Trazado 725286" d="M346.381,76.719a21.455,21.455,0,0,0-14.276-5.433" transform="translate(-310.546 -71.286)" fill="none" stroke="#fff" stroke-miterlimit="10" stroke-width="1"/>
              <path id="Trazado_725287" data-name="Trazado 725287" d="M352.18,96.288a21.157,21.157,0,0,0,.3-6.836" transform="translate(-309.508 -70.347)" fill="none" stroke="#fff" stroke-miterlimit="10" stroke-width="1"/>
              <path id="Trazado_725288" data-name="Trazado 725288" d="M350.583,82.952a21.354,21.354,0,0,1,1.977,6.836" transform="translate(-309.59 -70.683)" fill="none" stroke="#fff" stroke-miterlimit="10" stroke-width="1"/>
              <path id="Trazado_725289" data-name="Trazado 725289" d="M312.053,96.288a21.127,21.127,0,0,1-.3-6.836" transform="translate(-311.605 -70.347)" fill="none" stroke="#fff" stroke-miterlimit="10" stroke-width="1"/>
              <path id="Trazado_725290" data-name="Trazado 725290" d="M318.784,76.452a21.607,21.607,0,0,0-5.156,6.836" transform="translate(-311.5 -71.019)" fill="none" stroke="#fff" stroke-miterlimit="10" stroke-width="1"/>
              <path id="Trazado_725291" data-name="Trazado 725291" d="M313.725,82.952a21.381,21.381,0,0,0-1.978,6.836" transform="translate(-311.598 -70.683)" fill="none" stroke="#fff" stroke-miterlimit="10" stroke-width="1"/>
              <path id="Trazado_725292" data-name="Trazado 725292" d="M312.031,95.952a21.394,21.394,0,0,0,2.727,6.836" transform="translate(-311.583 -70.011)" fill="none" stroke="#fff" stroke-miterlimit="10" stroke-width="1"/>
              <line id="Línea_2537" data-name="Línea 2537" x2="14.276" transform="translate(21.56 5.434)" fill="none" stroke="#fff" stroke-miterlimit="10" stroke-width="1"/>
              <line id="Línea_2538" data-name="Línea 2538" x2="14.276" transform="translate(7.284 5.434)" fill="none" stroke="#fff" stroke-miterlimit="10" stroke-width="1"/>
              <line id="Línea_2539" data-name="Línea 2539" x1="38.865" transform="translate(2.127 12.27)" fill="none" stroke="#fff" stroke-miterlimit="10" stroke-width="1"/>
              <line id="Línea_2540" data-name="Línea 2540" x1="42.82" transform="translate(0.15 19.106)" fill="none" stroke="#fff" stroke-miterlimit="10" stroke-width="1"/>
              <line id="Línea_2541" data-name="Línea 2541" x2="9.193" transform="translate(33.479 25.942)" fill="none" stroke="#fff" stroke-miterlimit="10" stroke-width="1"/>
              <line id="Línea_2542" data-name="Línea 2542" x1="9.631" transform="translate(0.448 25.942)" fill="none" stroke="#fff" stroke-miterlimit="10" stroke-width="1"/>
              <line id="Línea_2543" data-name="Línea 2543" x1="23.4" transform="translate(10.079 25.942)" fill="none" stroke="#fff" stroke-miterlimit="10" stroke-width="1"/>
              <line id="Línea_2544" data-name="Línea 2544" x1="36.771" transform="translate(3.175 32.778)" fill="none" stroke="#fff" stroke-miterlimit="10" stroke-width="1"/>
              <line id="Línea_2545" data-name="Línea 2545" x2="0.155" transform="translate(33.324 39.613)" fill="none" stroke="#fff" stroke-miterlimit="10" stroke-width="1"/>
              <line id="Línea_2546" data-name="Línea 2546" x2="11.764" transform="translate(21.56 39.613)" fill="none" stroke="#fff" stroke-miterlimit="10" stroke-width="1"/>
              <line id="Línea_2547" data-name="Línea 2547" x1="0.283" transform="translate(9.796 39.613)" fill="none" stroke="#fff" stroke-miterlimit="10" stroke-width="1"/>
              <line id="Línea_2548" data-name="Línea 2548" x1="11.481" transform="translate(10.079 39.613)" fill="none" stroke="#fff" stroke-miterlimit="10" stroke-width="1"/>
              <line id="Línea_2549" data-name="Línea 2549" y1="5.434" transform="translate(21.56)" fill="none" stroke="#fff" stroke-miterlimit="10" stroke-width="1"/>
              <line id="Línea_2550" data-name="Línea 2550" y2="6.31" transform="translate(33.479 5.96)" fill="none" stroke="#fff" stroke-miterlimit="10" stroke-width="1"/>
              <line id="Línea_2551" data-name="Línea 2551" y2="6.31" transform="translate(10.079 5.96)" fill="none" stroke="#fff" stroke-miterlimit="10" stroke-width="1"/>
              <line id="Línea_2552" data-name="Línea 2552" y2="6.495" transform="translate(21.56 12.533)" fill="none" stroke="#fff" stroke-miterlimit="10" stroke-width="1"/>
              <line id="Línea_2553" data-name="Línea 2553" y1="6.285" transform="translate(33.479 19.656)" fill="none" stroke="#fff" stroke-miterlimit="10" stroke-width="1"/>
              <line id="Línea_2554" data-name="Línea 2554" y2="6.285" transform="translate(10.079 19.656)" fill="none" stroke="#fff" stroke-miterlimit="10" stroke-width="1"/>
              <line id="Línea_2555" data-name="Línea 2555" y2="6.495" transform="translate(21.56 26.204)" fill="none" stroke="#fff" stroke-miterlimit="10" stroke-width="1"/>
              <line id="Línea_2556" data-name="Línea 2556" y2="3.506" transform="translate(21.56 39.613)" fill="none" stroke="#fff" stroke-miterlimit="10" stroke-width="1"/>
              <line id="Línea_2557" data-name="Línea 2557" y1="6.191" transform="translate(33.479 33.328)" fill="none" stroke="#fff" stroke-miterlimit="10" stroke-width="1"/>
              <line id="Línea_2558" data-name="Línea 2558" y2="0.094" transform="translate(33.479 39.519)" fill="none" stroke="#fff" stroke-miterlimit="10" stroke-width="1"/>
              <line id="Línea_2559" data-name="Línea 2559" y2="6.285" transform="translate(10.079 33.328)" fill="none" stroke="#fff" stroke-miterlimit="10" stroke-width="1"/>
            </g>
            <circle id="Elipse_8582" data-name="Elipse 8582" cx="21.56" cy="21.56" r="21.56" fill="none" stroke="#263238" stroke-miterlimit="10" stroke-width="2"/>
          </g>
          <g id="Grupo_1027168" data-name="Grupo 1027168" transform="translate(31.341)">
            <path id="Trazado_725293" data-name="Trazado 725293" d="M361.13,91.34c-3.391,3.322-9.258,4.735-13.837,2.5-3.611-1.767-6.513-4.741-5.884-9.113.648-4.5,4.544-6.8,6.193-10.76,1.752-4.207,1.863-10.817,1.863-10.817s3.045,3.455,3.4,5.558a26.22,26.22,0,0,1,.35,3.857l2.28-6.085c.515,2.116.909,4.31,1.566,6.384,1.15,3.628,4.423,5.453,6.061,8.636C364.818,84.8,363.655,88.865,361.13,91.34Z" transform="translate(-341.323 -63.146)" fill="#263238"/>
            <path id="Trazado_725294" data-name="Trazado 725294" d="M352.116,92.452s-3.436-2.549-2.771-6.1,2.882-4.212,2.882-4.212a6.709,6.709,0,0,1,2.217,5.319A7.2,7.2,0,0,1,352.116,92.452Z" transform="translate(-340.913 -62.164)" fill="#4db1f0" stroke="#263238" stroke-linecap="round" stroke-linejoin="round" stroke-width="1"/>
          </g>
        </g>
        <g id="Grupo_1027173" data-name="Grupo 1027173" transform="translate(0 127.926)">
          <g id="Grupo_1027171" data-name="Grupo 1027171">
            <circle id="Elipse_8583" data-name="Elipse 8583" cx="21.56" cy="21.56" r="21.56" fill="#4db1f0"/>
            <g id="Grupo_1027170" data-name="Grupo 1027170">
              <ellipse id="Elipse_8584" data-name="Elipse 8584" cx="16.652" cy="21.56" rx="16.652" ry="21.56" transform="translate(4.908)" fill="none" stroke="#fff" stroke-miterlimit="10" stroke-width="1"/>
              <ellipse id="Elipse_8585" data-name="Elipse 8585" cx="7.888" cy="21.56" rx="7.888" ry="21.56" transform="translate(13.672)" fill="none" stroke="#fff" stroke-miterlimit="10" stroke-width="1"/>
              <line id="Línea_2560" data-name="Línea 2560" x2="22.122" transform="translate(10.323 3.155)" fill="none" stroke="#fff" stroke-miterlimit="10" stroke-width="1"/>
              <line id="Línea_2561" data-name="Línea 2561" x2="40.556" transform="translate(1.106 14.139)" fill="none" stroke="#fff" stroke-miterlimit="10" stroke-width="1"/>
              <line id="Línea_2562" data-name="Línea 2562" x2="42.769" transform="translate(0 25.124)" fill="none" stroke="#fff" stroke-miterlimit="10" stroke-width="1"/>
              <line id="Línea_2563" data-name="Línea 2563" x2="33.92" transform="translate(4.424 36.108)" fill="none" stroke="#fff" stroke-miterlimit="10" stroke-width="1"/>
            </g>
            <circle id="Elipse_8586" data-name="Elipse 8586" cx="21.56" cy="21.56" r="21.56" fill="none" stroke="#263238" stroke-miterlimit="10" stroke-width="2"/>
          </g>
          <g id="Grupo_1027172" data-name="Grupo 1027172" transform="translate(28.439 18.316)">
            <path id="Trazado_725295" data-name="Trazado 725295" d="M155,202.2a7.634,7.634,0,0,0-7.625,7.625v17.353h15.249V209.827A7.634,7.634,0,0,0,155,202.2Zm-5.521,9.728v-2.1a5.521,5.521,0,0,1,11.043,0v2.1Z" transform="translate(-147.375 -202.202)" fill="#263238"/>
            <path id="Trazado_725296" data-name="Trazado 725296" d="M156.785,217.071a2.119,2.119,0,1,0-2.973,1.936l-.558,4.621h2.825l-.557-4.621A2.117,2.117,0,0,0,156.785,217.071Z" transform="translate(-147.108 -201.543)" fill="#fff"/>
          </g>
        </g>
        <g id="Grupo_1027176" data-name="Grupo 1027176" transform="translate(251.881 127.926)">
          <circle id="Elipse_8587" data-name="Elipse 8587" cx="21.56" cy="21.56" r="21.56" fill="#fff" stroke="#263238" stroke-miterlimit="10" stroke-width="2"/>
          <g id="Grupo_1027174" data-name="Grupo 1027174" transform="translate(5.14 6.085)">
            <path id="Trazado_725297" data-name="Trazado 725297" d="M390.438,200.974H364.723v-10.4H386.97Z" transform="translate(-364.723 -190.572)" fill="#4db1f0" stroke="#263238" stroke-miterlimit="10" stroke-width="1"/>
            <rect id="Rectángulo_349220" data-name="Rectángulo 349220" width="32.938" height="22.537" transform="translate(0 6.068)" fill="#4db1f0" stroke="#263238" stroke-miterlimit="10" stroke-width="1"/>
          </g>
          <g id="Grupo_1027175" data-name="Grupo 1027175" transform="translate(26.793 18.842)">
            <path id="Trazado_725298" data-name="Trazado 725298" d="M392.937,202.7a7.634,7.634,0,0,0-7.625,7.625v17.353h15.249V210.327A7.634,7.634,0,0,0,392.937,202.7Zm-5.521,9.728v-2.1a5.521,5.521,0,1,1,11.043,0v2.1Z" transform="translate(-385.312 -202.702)" fill="#263238"/>
            <path id="Trazado_725299" data-name="Trazado 725299" d="M394.722,217.571a2.119,2.119,0,1,0-2.973,1.936l-.557,4.621h2.825l-.557-4.621A2.117,2.117,0,0,0,394.722,217.571Z" transform="translate(-385.045 -202.043)" fill="#fff"/>
          </g>
        </g>
      </g>
    </g>
    <g id="Character_1" data-name="Character 1" transform="translate(182.031 117.357)">
      <g id="Grupo_1027191" data-name="Grupo 1027191">
        <g id="Grupo_1027186" data-name="Grupo 1027186" transform="translate(0 87.212)">
          <g id="Grupo_1027180" data-name="Grupo 1027180" transform="translate(39.206)">
            <path id="Trazado_725300" data-name="Trazado 725300" d="M253.5,201.476s-36.459,19.281-37.16,21.384,5.258,41.717,7.362,55.739a275.527,275.527,0,0,1,2.455,31.9v5.96h96.755s7.011-102.715,4.557-103.766-45.222-15.074-45.222-15.074Z" transform="translate(-216.279 -197.619)" fill="#fff" stroke="#263238" stroke-linecap="round" stroke-linejoin="round" stroke-width="1"/>
            <g id="Grupo_1027178" data-name="Grupo 1027178" transform="translate(55.724 40.383)">
              <path id="Trazado_725301" data-name="Trazado 725301" d="M288.781,243s-3.883-.5-9.153-5.928V237l-.037.038-.037-.038v.075C274.283,242.5,270.4,243,270.4,243c-1.383,11.367,8.222,15.263,9.153,15.613v.026l.037-.013.037.013v-.026C280.559,258.262,290.164,254.366,288.781,243Z" transform="translate(-269.212 -235.967)" fill="#4db1f0"/>
              <path id="Trazado_725302" data-name="Trazado 725302" d="M279.66,259.738a.99.99,0,0,1-.2-.02,1.07,1.07,0,0,1-.357-.122c-1.645-.651-11.122-4.938-9.693-16.673a1.053,1.053,0,0,1,.91-.916c.026,0,3.589-.574,8.425-5.508a1.04,1.04,0,0,1,.46-.386,1.259,1.259,0,0,1,.312-.083,1.019,1.019,0,0,1,.547.064,1.11,1.11,0,0,1,.538.466c4.805,4.877,8.339,5.443,8.375,5.449a1.061,1.061,0,0,1,.9.914c1.42,11.674-7.956,15.979-9.669,16.664A1.089,1.089,0,0,1,279.66,259.738ZM271.424,243.9a13.306,13.306,0,0,0,8.219,13.647,13.313,13.313,0,0,0,8.219-13.647c-1.406-.414-4.454-1.669-8.219-5.325C275.878,242.229,272.83,243.484,271.424,243.9Z" transform="translate(-269.264 -236.017)" fill="#263238"/>
            </g>
            <g id="Grupo_1027179" data-name="Grupo 1027179" transform="translate(39.356 24.794)">
              <path id="Trazado_725303" data-name="Trazado 725303" d="M254,221.2s-.691,34.1.011,51.628,2.8,42.418,2.8,42.418" transform="translate(-253.701 -221.195)" fill="none" stroke="#263238" stroke-linecap="round" stroke-linejoin="round" stroke-width="1"/>
              <circle id="Elipse_8588" data-name="Elipse 8588" cx="1.402" cy="1.402" r="1.402" transform="translate(2.067 10.963)" fill="none" stroke="#263238" stroke-linecap="round" stroke-linejoin="round" stroke-width="1"/>
              <circle id="Elipse_8589" data-name="Elipse 8589" cx="1.402" cy="1.402" r="1.402" transform="translate(2.067 43.565)" fill="#fff" stroke="#263238" stroke-linecap="round" stroke-linejoin="round" stroke-width="1"/>
              <path id="Trazado_725304" data-name="Trazado 725304" d="M260.138,288.355a1.4,1.4,0,1,1-1.4-1.4A1.4,1.4,0,0,1,260.138,288.355Z" transform="translate(-253.513 -217.796)" fill="#fff" stroke="#263238" stroke-linecap="round" stroke-linejoin="round" stroke-width="1"/>
            </g>
          </g>
          <g id="Grupo_1027183" data-name="Grupo 1027183" transform="translate(65.693 14.022)">
            <g id="Grupo_1027181" data-name="Grupo 1027181" transform="translate(0 83.395)">
              <path id="Trazado_725305" data-name="Trazado 725305" d="M298.468,297.462,287.6,303.071s-13.672-8.764-18.229-9.115-10.167.351-13.322,3.155-4.907,4.908-8.413,4.908-7.712.35-5.609,3.155,9.465,2.8,12.27,1.753,7.011-2.1,7.011-2.1a11.4,11.4,0,0,0,5.96,4.207,33.24,33.24,0,0,0,7.712,1.052s6.661,4.207,10.868,3.855a25.153,25.153,0,0,0,7.362-1.752l12.97-3.857S302.675,299.916,298.468,297.462Z" transform="translate(-241.464 -290.061)" fill="#ebcdcd" stroke="#263238" stroke-linecap="round" stroke-linejoin="round" stroke-width="1"/>
              <path id="Trazado_725306" data-name="Trazado 725306" d="M265.42,291.34s-4.207-2.455-6.31,0-2.8,15.074-1.753,16.476,1.753-1.752,3.155-2.8S265.42,291.34,265.42,291.34Z" transform="translate(-240.667 -290.249)" fill="#ebcdcd" stroke="#263238" stroke-linecap="round" stroke-linejoin="round" stroke-width="1"/>
              <path id="Trazado_725307" data-name="Trazado 725307" d="M272.612,292.714s-5.258-3.155-7.362-1.4-5.96,15.775-4.908,17.177,4.207,0,4.558-1.753,6.31-10.867,6.31-10.867Z" transform="translate(-240.497 -290.221)" fill="#ebcdcd" stroke="#263238" stroke-linecap="round" stroke-linejoin="round" stroke-width="1"/>
              <path id="Trazado_725308" data-name="Trazado 725308" d="M280.881,298.23s-6.66-6.31-8.413-5.609S260.9,308.047,263.352,309.8s10.868-8.764,10.868-8.764l3.155,2.454" transform="translate(-240.353 -290.129)" fill="#ebcdcd" stroke="#263238" stroke-linecap="round" stroke-linejoin="round" stroke-width="1"/>
              <path id="Trazado_725309" data-name="Trazado 725309" d="M289.77,306.119s-6.31-10.167-8.413-10.167-14.023,10.868-14.023,10.868,3.506,2.8,4.558,2.1,7.011-4.558,7.011-4.558,1.052,5.61,4.908,6.661" transform="translate(-240.127 -289.954)" fill="#ebcdcd" stroke="#263238" stroke-linecap="round" stroke-linejoin="round" stroke-width="1"/>
            </g>
            <g id="Grupo_1027182" data-name="Grupo 1027182" transform="translate(57.005)">
              <path id="Trazado_725310" data-name="Trazado 725310" d="M317.752,210.952s8.062,0,8.764,3.506,1.4,11.217,1.4,11.217,30.85,72.216,29.8,75.371-48.027,18.58-49.429,18.58-12.62-17.879-12.62-17.879l22.786-14.373-11.919-31.9" transform="translate(-295.667 -210.952)" fill="#fff" stroke="#263238" stroke-linecap="round" stroke-linejoin="round" stroke-width="1"/>
              <path id="Trazado_725311" data-name="Trazado 725311" d="M312.867,232.286S302.7,241.05,302,252.268" transform="translate(-295.34 -209.849)" fill="none" stroke="#263238" stroke-linecap="round" stroke-linejoin="round" stroke-width="1"/>
              <path id="Trazado_725312" data-name="Trazado 725312" d="M304.609,231.952S299,240.717,299,251.234" transform="translate(-295.495 -209.867)" fill="none" stroke="#263238" stroke-linecap="round" stroke-linejoin="round" stroke-width="1"/>
              <path id="Trazado_725313" data-name="Trazado 725313" d="M317.333,283.912s6.661-5.96,9.465-5.96,9.115,1.4,10.517,7.362" transform="translate(-294.547 -207.489)" fill="none" stroke="#263238" stroke-linecap="round" stroke-linejoin="round" stroke-width="1"/>
              <path id="Trazado_725314" data-name="Trazado 725314" d="M321.667,277.472s9.465-5.61,12.62-3.155a18.733,18.733,0,0,1,4.907,6.66" transform="translate(-294.323 -207.709)" fill="none" stroke="#263238" stroke-linecap="round" stroke-linejoin="round" stroke-width="1"/>
            </g>
          </g>
          <g id="Grupo_1027185" data-name="Grupo 1027185" transform="translate(0 25.24)">
            <path id="Trazado_725315" data-name="Trazado 725315" d="M217.257,221.619,206.74,288.927s-11.569,8.413-7.362,21.034c1.663,4.988,6.31,7.362,27.7,5.258a224.4,224.4,0,0,0,0-38.211C225.32,254.571,217.257,221.619,217.257,221.619Z" transform="translate(-177.994 -221.619)" fill="#fff" stroke="#263238" stroke-linecap="round" stroke-linejoin="round" stroke-width="1"/>
            <g id="Grupo_1027184" data-name="Grupo 1027184" transform="translate(0 69.548)">
              <path id="Trazado_725316" data-name="Trazado 725316" d="M215.833,294.465s7.205.168,7.708,1.005.5,12.065-1.174,13.238-2.848,1.675-3.519,0-1.843-5.194-1.843-5.194-4.524,5.027-8.88,4.022-4.86-3.016-6.2-3.519-3.183.167-6.2-1.005-6.368-5.7-6.368-5.7-8.042,7.038-9.718,6.2.167-3.519,2.848-6.368,4.524-5.7,7.205-6.367,13.4-2.011,16.755-1.005,6.2,2.514,6.535,3.016A13.67,13.67,0,0,0,215.833,294.465Z" transform="translate(-178.999 -287.663)" fill="#ababab" stroke="#263238" stroke-linecap="round" stroke-linejoin="round" stroke-width="1"/>
              <path id="Trazado_725317" data-name="Trazado 725317" d="M193.4,288.646s-4.524-.838-5.027,2.178.671,14.746,1.844,15.751a2.9,2.9,0,0,0,4.356-1.508c.671-2.011.5-12.567.5-12.567S195.582,289.652,193.4,288.646Z" transform="translate(-178.521 -287.708)" fill="#ababab" stroke="#263238" stroke-linecap="round" stroke-linejoin="round" stroke-width="1"/>
              <path id="Trazado_725318" data-name="Trazado 725318" d="M201.562,290.52s-6.7-4.19-8.378-1.844.167,16.588,1.005,18.432,4.022,2.514,4.692.5.838-10.39,1.005-10.891" transform="translate(-178.301 -287.738)" fill="#ababab" stroke="#263238" stroke-linecap="round" stroke-linejoin="round" stroke-width="1"/>
              <path id="Trazado_725319" data-name="Trazado 725319" d="M205.12,292.876c-.167.5,0,15.248-2.011,16.254s-4.859,1-4.859-5.7.334-14.913,2.178-15.584,7.037,2.179,8.88,3.854" transform="translate(-178.004 -287.749)" fill="#ababab" stroke="#263238" stroke-linecap="round" stroke-linejoin="round" stroke-width="1"/>
              <line id="Línea_2564" data-name="Línea 2564" x1="1.508" y1="6.702" transform="translate(36.498 9.149)" fill="#ababab" stroke="#263238" stroke-linecap="round" stroke-linejoin="round" stroke-width="1"/>
            </g>
          </g>
        </g>
        <g id="Grupo_1027190" data-name="Grupo 1027190" transform="translate(54.801)">
          <g id="Grupo_1027188" data-name="Grupo 1027188" transform="translate(12.429 61.308)">
            <path id="Trazado_725320" data-name="Trazado 725320" d="M242.926,201.175v19.116l9.7-6.926Z" transform="translate(-242.926 -171.531)" fill="#bababa" stroke="#263238" stroke-linecap="round" stroke-linejoin="round" stroke-width="1"/>
            <path id="Trazado_725321" data-name="Trazado 725321" d="M254.561,222.625l-11.636-21.055,11.359-8.034Z" transform="translate(-242.926 -171.926)" fill="#fff" stroke="#263238" stroke-linecap="round" stroke-linejoin="round" stroke-width="1"/>
            <g id="Grupo_1027187" data-name="Grupo 1027187" transform="translate(8.034)">
              <path id="Trazado_725322" data-name="Trazado 725322" d="M250.565,189.888s2.216,19.115,2.77,24.657.832,9.142.832,9.142,17.176-19.947,20.5-24.379,4.156-5.819,4.156-5.819l.831-20.5Z" transform="translate(-250.565 -172.988)" fill="#ebcdcd" stroke="#263238" stroke-linecap="round" stroke-linejoin="round" stroke-width="1"/>
              <path id="Trazado_725323" data-name="Trazado 725323" d="M251.028,193.9a12.815,12.815,0,0,0,11.843,1.958c7.315-2.71,9.45-7.348,11.076-8.974,1.033-1.032,3.267-2.5,5.314-4.2l.393-9.693-29.09,16.9S250.751,191.491,251.028,193.9Z" transform="translate(-250.565 -172.988)" fill="#263238" stroke="#263238" stroke-linecap="round" stroke-linejoin="round" stroke-width="1"/>
            </g>
            <path id="Trazado_725324" data-name="Trazado 725324" d="M261.747,204.336l-7.757,17.731,13.575-8.865Z" transform="translate(-242.354 -171.368)" fill="#bababa" stroke="#263238" stroke-linecap="round" stroke-linejoin="round" stroke-width="1"/>
            <path id="Trazado_725325" data-name="Trazado 725325" d="M261.366,205.248l6.372,17.177,18.839-24.38-5.541-11.359Z" transform="translate(-241.973 -172.28)" fill="#fff" stroke="#263238" stroke-linecap="round" stroke-linejoin="round" stroke-width="1"/>
          </g>
          <g id="Grupo_1027189" data-name="Grupo 1027189">
            <path id="Trazado_725326" data-name="Trazado 725326" d="M243.284,120.145a29.51,29.51,0,0,0-11.047,16.393c-2.557,10.712,2.849,22.35,3.24,25.937s-1.126,8.25.566,12.679,9.177,11.442,10.379,14.762,7.9,9.19,15.206,6.525,9.59-7.351,11.255-8.983,6.3-4.33,8.555-7.333,3.67-5.188,3.67-5.188,5.907-14.528,6.419-27.47-7.172-27.638-21.677-31.675S243.284,120.145,243.284,120.145Z" transform="translate(-231.084 -114.693)" fill="#ebcdcd" stroke="#263238" stroke-linecap="round" stroke-linejoin="round" stroke-width="1"/>
            <path id="Trazado_725327" data-name="Trazado 725327" d="M231.531,153.206s.2,8.542,3.307,10.785,9.784,2.05,12.493.981,4.269-6.835,5.4-8.473,4.829-.767,4.829-.767,2.638,7.471,4.737,8.323,8.708,2.312,13.335-.11,5.532-11.777,5.532-11.777,2.687-.518,1.941-1.9-21.276-1.366-23.707-.57-2.741,1.9-4.073,1.878-3.143-1.417-4.476-1.432-19.742.306-19.742.306Z" transform="translate(-231.107 -112.912)" fill="#fff" opacity="0.5"/>
            <path id="Trazado_725328" data-name="Trazado 725328" d="M269.766,115.791c-14.5-4.036-26.568,4.354-26.568,4.354a29.89,29.89,0,0,0-9.987,13.024c.571-1.365,2.954-6.412,7.37-7.547,5.117-1.314,5.2,3.371,11.66,1.8s16.528-6.682,20.961-4.148,7.956,7.813,6.14,13.3-1.98,9.618-.169,11.017,4.035,5.836,4.193,8.592c.129,2.266,3.17,3.82,6.356,3.411a68.767,68.767,0,0,0,1.721-12.126C291.955,134.524,284.271,119.827,269.766,115.791Z" transform="translate(-230.998 -114.693)" fill="#263238" stroke="#263238" stroke-linecap="round" stroke-linejoin="round" stroke-width="1"/>
            <path id="Trazado_725329" data-name="Trazado 725329" d="M247.777,165.781s-1.7,2.459-.142,3.58a2.261,2.261,0,0,0,2.921.311" transform="translate(-230.287 -112.052)" fill="none" stroke="#263238" stroke-linecap="round" stroke-linejoin="round" stroke-width="1"/>
            <path id="Trazado_725330" data-name="Trazado 725330" d="M249.418,168.168a8.468,8.468,0,0,0,4.188,1.98c2.387.3,4.884-2.143,4.884-2.143" transform="translate(-230.161 -111.938)" fill="none" stroke="#263238" stroke-linecap="round" stroke-linejoin="round" stroke-width="1"/>
            <path id="Trazado_725331" data-name="Trazado 725331" d="M257.242,169.256s.756,1.112,2.943-.239c0,0,2.965-.79,1.229-4.117" transform="translate(-229.756 -112.098)" fill="none" stroke="#263238" stroke-linecap="round" stroke-linejoin="round" stroke-width="1"/>
            <path id="Trazado_725332" data-name="Trazado 725332" d="M247.892,174.762s8.142,3.131,15.256-1.464" transform="translate(-230.24 -111.664)" fill="none" stroke="#263238" stroke-linecap="round" stroke-linejoin="round" stroke-width="1"/>
            <path id="Trazado_725333" data-name="Trazado 725333" d="M266.747,156.845c-.057,1.444-.759,2.607-1.569,2.6s-1.42-1.189-1.362-2.634.759-2.607,1.569-2.6S266.8,155.4,266.747,156.845Z" transform="translate(-229.417 -112.65)" fill="#263238"/>
            <path id="Trazado_725334" data-name="Trazado 725334" d="M246.967,156.993c-.058,1.444-.76,2.607-1.569,2.6s-1.42-1.189-1.363-2.634.76-2.608,1.569-2.6S247.024,155.548,246.967,156.993Z" transform="translate(-230.439 -112.643)" fill="#263238"/>
            <path id="Trazado_725335" data-name="Trazado 725335" d="M231.531,153.206s.2,8.542,3.307,10.785,9.784,2.05,12.493.981,4.269-6.835,5.4-8.473,4.829-.767,4.829-.767,2.638,7.471,4.737,8.323,8.708,2.312,13.335-.11,5.532-11.777,5.532-11.777,2.687-.518,1.941-1.9-21.276-1.366-23.707-.57-2.741,1.9-4.073,1.878-3.143-1.417-4.476-1.432-19.742.306-19.742.306Z" transform="translate(-231.107 -112.912)" fill="none" stroke="#263238" stroke-linecap="round" stroke-linejoin="round" stroke-width="1"/>
            <path id="Trazado_725336" data-name="Trazado 725336" d="M280.646,150.209l8.631,4.239-.587,1.37-9.985-3.705Z" transform="translate(-228.647 -112.857)" fill="#263238" stroke="#263238" stroke-linecap="round" stroke-linejoin="round" stroke-width="1"/>
            <path id="Trazado_725337" data-name="Trazado 725337" d="M259.4,149.694c-2.43.8-2.741,1.9-4.073,1.878s-3.143-1.417-4.476-1.432-19.742.306-19.742.306l.252,1.641,19.3-.3s2.821-.226,2.443,1.959c-.526,3.045-.375,2.75-.375,2.75,1.132-1.64,4.829-.767,4.829-.767s.1.268.263.708c-.18-1.391-.322-3.562.412-4.281,1.109-1.087,6.162-.75,10.7-.969a79.887,79.887,0,0,1,12.226.977l1.844-2C281.364,148.879,261.771,148.918,259.4,149.694Z" transform="translate(-231.107 -112.912)" fill="#263238" stroke="#263238" stroke-linecap="round" stroke-linejoin="round" stroke-width="1"/>
            <path id="Trazado_725338" data-name="Trazado 725338" d="M280.959,159.467s6.477-8.735,9.6-6.769.631,11.028-1.4,15.135-6.87,5.149-7.8,1.832" transform="translate(-228.53 -112.744)" fill="#ebcdcd" stroke="#263238" stroke-linecap="round" stroke-linejoin="round" stroke-width="1"/>
          </g>
        </g>
      </g>
    </g>
    <g id="Device" transform="translate(154.485 266.618)">
      <g id="Grupo_1027192" data-name="Grupo 1027192">
        <path id="Trazado_725339" data-name="Trazado 725339" d="M247.36,313.059h-81.33l-10.223-56.44h81.33Z" transform="translate(-152.651 -256.619)" fill="#263238" stroke="#263238" stroke-linecap="round" stroke-linejoin="round" stroke-width="1"/>
        <path id="Trazado_725340" data-name="Trazado 725340" d="M244.36,313.059h-81.33l-10.223-56.44h81.33Z" transform="translate(-152.806 -256.619)" fill="#4db1f0" stroke="#263238" stroke-linecap="round" stroke-linejoin="round" stroke-width="1"/>
        <path id="Trazado_725341" data-name="Trazado 725341" d="M165.527,312.329H243.7l-7.53-41.572Z" transform="translate(-152.149 -255.888)" fill="#263238" stroke="#263238" stroke-linecap="round" stroke-linejoin="round" stroke-width="1"/>
        <rect id="Rectángulo_349221" data-name="Rectángulo 349221" width="127.867" height="3.414" transform="translate(10.223 56.44)" fill="#4db1f0" stroke="#263238" stroke-linecap="round" stroke-linejoin="round" stroke-width="1"/>
        <rect id="Rectángulo_349222" data-name="Rectángulo 349222" width="45.444" height="3.414" transform="translate(92.646 56.44)" fill="#263238" stroke="#263238" stroke-linecap="round" stroke-linejoin="round" stroke-width="1"/>
      </g>
    </g>
  </g>
</svg>
