<svg xmlns="http://www.w3.org/2000/svg" xmlns:xlink="http://www.w3.org/1999/xlink" width="505" height="353" viewBox="0 0 505 353">
  <defs>
    <clipPath id="clip-path">
      <rect id="Rectángulo_347323" data-name="Rectángulo 347323" width="505" height="353" transform="translate(0 0.985)" fill="#fff"/>
    </clipPath>
  </defs>
  <g id="Recurso_1_1" data-name="Recurso 1 1" transform="translate(0 -0.985)" clip-path="url(#clip-path)">
    <path id="Trazado_717261" data-name="Trazado 717261" d="M421.7,12.272c30.147-1.9,58.38,19.418,72.274,46.64s15.72,59.2,13.368,89.761c-2.739,35.451-11.21,71.542-32.079,100.111-18.182,24.893-44.85,42.572-73.524,53.213s-59.378,14.618-89.883,15.674c-18.664.641-37.419.216-55.875-2.687-37.844-5.957-73.349-22.13-107.39-39.935-17.782-9.3-35.539-19.26-50.084-33.2-9.386-9-17.266-19.5-24.372-30.442-20.461-31.482-35.048-68.18-34.083-105.894S59.69,29.327,92.45,11.523C130.61-9.2,177.69,1.34,218.047,17.205,252.953,30.933,291.413,53.03,329.83,53.022c15.452,0,27.626-11.9,40.507-19.959,15.768-9.859,32.452-19.61,51.373-20.791Z" transform="translate(-21.405 0.005)" fill="#f5f9fd"/>
    <path id="Trazado_717262" data-name="Trazado 717262" d="M143.306,738.713c31.19,0,56.475-3.751,56.475-8.378s-25.285-8.378-56.475-8.378-56.474,3.751-56.474,8.378S112.116,738.713,143.306,738.713Z" transform="translate(-46.458 -386.268)" fill="#e0e6f2"/>
    <path id="Trazado_717263" data-name="Trazado 717263" d="M152.581,507.066c.083,7.014.807,46.873,1.14,52.19,0,0,1.772,26.515,4.343,50.492l12.032.025c1.689-29.527,6.44-92.241,7.364-102.732" transform="translate(-81.636 -271.28)" fill="#ffcdaa"/>
    <path id="Trazado_717264" data-name="Trazado 717264" d="M231.886,610.992c1.307-16.032,3.287-33.437,3.67-48.271l1.464-20.009c1.157-15.491,1.922-23.719,2.214-33.287L213,509.367c.8,9.751,3.986,65.759,6.84,101.659L231.87,611Z" transform="translate(-113.962 -272.525)" fill="#ffcdaa"/>
    <path id="Trazado_717265" data-name="Trazado 717265" d="M259.408,297.406q2.584,5.453,4.785,11.081a197.762,197.762,0,0,0,17.016-16.215,7.338,7.338,0,0,1,.416-2.429,1.941,1.941,0,0,1,.707-1.065.833.833,0,0,1,1.148.2c.3.574-.374,1.356.008,1.88.757,1.031,2.638.424,3.811-.075a14.525,14.525,0,0,1,3.561-1.373.724.724,0,0,1,.441.042c.308.158.291.6.158.915a2.859,2.859,0,0,1-1.381,1.381,8.285,8.285,0,0,1-1.9.607,4.5,4.5,0,0,0,2.2-.807,4.327,4.327,0,0,1,.741-.483.9.9,0,0,1,.849.025.825.825,0,0,1,.241.948,1.852,1.852,0,0,1-.657.8,5.3,5.3,0,0,1-3.278,1.1,8.257,8.257,0,0,0,3.553-1.09c.366-.166.874-.291,1.107.033.208.291.017.691-.225.965a7.3,7.3,0,0,1-4.111,1.864c.949-.208,1.906-.424,2.854-.632a.8.8,0,0,1,.707.067.583.583,0,0,1,.175.441c0,.616-.566,1.073-1.1,1.373a10.072,10.072,0,0,1-5.25,1.157l-.092.116c-3.1,4.2-4.618,7.454-7.772,11.614-4.5,5.932-9.253,12.014-15.835,15.516a2.832,2.832,0,0,1-1.747.466,2.887,2.887,0,0,1-1.606-1.173,51.127,51.127,0,0,1-9.893-18.528" transform="translate(-133.245 -154.427)" fill="#ffcdaa"/>
    <path id="Trazado_717266" data-name="Trazado 717266" d="M326.5,301.8a2.137,2.137,0,0,0-2.18-.416.139.139,0,0,1-.175-.075.14.14,0,0,1,.042-.15,1.784,1.784,0,0,1,2.5.5.121.121,0,0,1-.041.166.141.141,0,0,1-.15-.017Z" transform="translate(-173.424 -160.956)" fill="#222221"/>
    <path id="Trazado_717267" data-name="Trazado 717267" d="M106.546,297.406q-2.584,5.453-4.785,11.081a197.755,197.755,0,0,1-17.016-16.215,7.344,7.344,0,0,0-.416-2.429,1.943,1.943,0,0,0-.707-1.065.833.833,0,0,0-1.148.2c-.3.574.374,1.356-.008,1.88-.757,1.031-2.638.424-3.811-.075a14.527,14.527,0,0,0-3.561-1.373.723.723,0,0,0-.441.042c-.308.158-.291.6-.158.915a2.857,2.857,0,0,0,1.381,1.381,8.277,8.277,0,0,0,1.9.607,4.5,4.5,0,0,1-2.2-.807,4.338,4.338,0,0,0-.741-.483.9.9,0,0,0-.849.025.825.825,0,0,0-.241.948,1.855,1.855,0,0,0,.657.8,5.3,5.3,0,0,0,3.278,1.1,8.257,8.257,0,0,1-3.553-1.09c-.366-.166-.874-.291-1.107.033-.208.291-.017.691.225.965a7.3,7.3,0,0,0,4.111,1.864c-.949-.208-1.905-.424-2.854-.632a.8.8,0,0,0-.707.067.582.582,0,0,0-.175.441c0,.616.566,1.073,1.1,1.373a10.073,10.073,0,0,0,5.251,1.157l.091.116c3.1,4.2,4.618,7.454,7.772,11.614,4.5,5.932,9.253,12.014,15.835,15.516a2.832,2.832,0,0,0,1.747.466,2.887,2.887,0,0,0,1.606-1.173c4.535-5.4,7.922-13.52,9.893-20.292" transform="translate(-39.021 -154.427)" fill="#ffcdaa"/>
    <path id="Trazado_717268" data-name="Trazado 717268" d="M86.928,301.638a1.783,1.783,0,0,1,2.5-.5.142.142,0,0,1,.025.192.119.119,0,0,1-.15.041,2.14,2.14,0,0,0-2.18.416.129.129,0,0,1-.175,0,.125.125,0,0,1-.017-.15Z" transform="translate(-46.505 -160.947)" fill="#222221"/>
    <path id="Trazado_717269" data-name="Trazado 717269" d="M200.728,178.557a16.049,16.049,0,0,1,3.278,5.549,24.253,24.253,0,0,1,1.747,8.736,40.594,40.594,0,0,0-.034,5.948,13.953,13.953,0,0,0,3.811,7.139,19.582,19.582,0,0,1,2.879,3.453,8.62,8.62,0,0,1,1.007,3.794A11.264,11.264,0,0,1,200.5,224.857c-1.148.25-2.372.823-3.52,1.065a18.073,18.073,0,0,0-3.62,1.057c-2.063.932-3.695,2.612-5.642,3.777a12.96,12.96,0,0,1-18.531-16.365c1.174-2.646,3.287-5.208,2.738-8.053a18.579,18.579,0,0,0-1.44-3.453,18.279,18.279,0,0,1-.949-6.955c-.008-1.331-.358-13.137,7.147-20.092l24.04,2.7Z" transform="translate(-89.959 -94.074)" fill="#674032"/>
    <path id="Trazado_717270" data-name="Trazado 717270" d="M204.709,442.108a4.577,4.577,0,0,0,.075-1.747,222.821,222.821,0,0,0-2.23-31.923,75.954,75.954,0,0,0-3.171-17.022c-3.928-13.594-9.378-19.734-9.5-20.017,0,0-10.443,2.222-15.976,1.839s-16.492-2.7-16.492-2.7c-.125.283-6.89,12.937-9.877,24.56-.283,1.007-.55,2.08-.791,3.186l-.025.125q-.262,1.21-.5,2.5a171.8,171.8,0,0,0-3.262,41.174,4.384,4.384,0,0,0,.765,2.762,3.088,3.088,0,0,0,1.772.907c2.613.491,5.151-1.023,7.78-1.389,4.285-.591,8.4,1.88,12.723,2.147,3.886.241,7.572-1.306,11.267-2.787h.125c1.764.166,3.2,1.589,4.935,1.913,3.07.582,5.849-2.313,8.978-2.263,3,.05,5.459,2.787,8.462,2.87a4.008,4.008,0,0,0,1.373-.2,3.667,3.667,0,0,0,2.272-.874,4.632,4.632,0,0,0,1.29-3.079Z" transform="translate(-76.408 -198.244)" fill="#006f6e"/>
    <path id="Trazado_717271" data-name="Trazado 717271" d="M251.577,448.36c2.679,0,2.679-4.16,0-4.16S248.9,448.36,251.577,448.36Z" transform="translate(-133.528 -237.658)" fill="#fff"/>
    <path id="Trazado_717272" data-name="Trazado 717272" d="M233.86,478.975c2.679,0,2.679-4.16,0-4.16S231.181,478.975,233.86,478.975Z" transform="translate(-124.049 -254.038)" fill="#fff"/>
    <path id="Trazado_717273" data-name="Trazado 717273" d="M204.4,451.957c2.68,0,2.68-4.16,0-4.16S201.725,451.957,204.4,451.957Z" transform="translate(-108.288 -239.583)" fill="#fff"/>
    <path id="Trazado_717274" data-name="Trazado 717274" d="M187.96,473.434v-.208a1.548,1.548,0,0,0-.183-.8,1.474,1.474,0,0,0-.433-.666,1.6,1.6,0,0,0-.666-.432,1.567,1.567,0,0,0-.8-.183l-.549.075a2.083,2.083,0,0,0-.915.532l-.325.424a2.022,2.022,0,0,0-.283,1.048v.208a1.55,1.55,0,0,0,.183.8,1.471,1.471,0,0,0,.433.665,1.587,1.587,0,0,0,.665.432,1.564,1.564,0,0,0,.8.183l.549-.075a2.08,2.08,0,0,0,.916-.532l.325-.425A2.02,2.02,0,0,0,187.96,473.434Z" transform="translate(-98.344 -252.075)" fill="#fff"/>
    <path id="Trazado_717275" data-name="Trazado 717275" d="M166.342,436.635v.208a1.545,1.545,0,0,0,.183.8,1.47,1.47,0,0,0,.432.665,1.592,1.592,0,0,0,.666.433,1.568,1.568,0,0,0,.8.183l.549-.075a2.076,2.076,0,0,0,.916-.532l.324-.424a2.024,2.024,0,0,0,.283-1.048v-.208a1.545,1.545,0,0,0-.183-.8,1.469,1.469,0,0,0-.432-.665,1.593,1.593,0,0,0-.666-.433,1.569,1.569,0,0,0-.8-.183l-.549.075a2.076,2.076,0,0,0-.916.532l-.325.424A2.028,2.028,0,0,0,166.342,436.635Z" transform="translate(-88.999 -232.497)" fill="#fff"/>
    <path id="Trazado_717276" data-name="Trazado 717276" d="M155.387,464.088c2.68,0,2.68-4.16,0-4.16S152.708,464.088,155.387,464.088Z" transform="translate(-82.063 -246.073)" fill="#fff"/>
    <path id="Trazado_717277" data-name="Trazado 717277" d="M227.4,430.64v.208a1.546,1.546,0,0,0,.183.8,1.471,1.471,0,0,0,.432.665,1.594,1.594,0,0,0,.666.433,1.568,1.568,0,0,0,.8.183l.549-.075a2.076,2.076,0,0,0,.915-.532l.325-.424a2.021,2.021,0,0,0,.283-1.048v-.208a1.545,1.545,0,0,0-.183-.8,1.473,1.473,0,0,0-.432-.666,1.6,1.6,0,0,0-.666-.432,1.57,1.57,0,0,0-.8-.183l-.549.075a2.084,2.084,0,0,0-.916.532l-.325.424A2.026,2.026,0,0,0,227.4,430.64Z" transform="translate(-121.668 -229.29)" fill="#fff"/>
    <path id="Trazado_717278" data-name="Trazado 717278" d="M257.056,496.165v.208a1.555,1.555,0,0,0,.183.8,1.469,1.469,0,0,0,.433.665,1.591,1.591,0,0,0,.665.433,1.57,1.57,0,0,0,.8.183l.55-.075a2.077,2.077,0,0,0,.915-.532l.325-.424a2.024,2.024,0,0,0,.283-1.049v-.208a1.554,1.554,0,0,0-.183-.8,1.47,1.47,0,0,0-.433-.666,1.6,1.6,0,0,0-.665-.432,1.57,1.57,0,0,0-.8-.183l-.55.075a2.082,2.082,0,0,0-.915.533l-.325.424A2.024,2.024,0,0,0,257.056,496.165Z" transform="translate(-137.534 -264.348)" fill="#fff"/>
    <path id="Trazado_717279" data-name="Trazado 717279" d="M229.565,513.08c2.679,0,2.679-4.16,0-4.16S226.886,513.08,229.565,513.08Z" transform="translate(-121.751 -272.286)" fill="#fff"/>
    <path id="Trazado_717280" data-name="Trazado 717280" d="M190.466,506.722v.208a1.551,1.551,0,0,0,.183.8,1.47,1.47,0,0,0,.433.665,1.59,1.59,0,0,0,.666.433,1.567,1.567,0,0,0,.8.183l.549-.075a2.077,2.077,0,0,0,.915-.532l.325-.424a2.023,2.023,0,0,0,.283-1.048v-.208a1.549,1.549,0,0,0-.183-.8,1.47,1.47,0,0,0-.433-.666,1.6,1.6,0,0,0-.665-.432,1.574,1.574,0,0,0-.8-.183l-.549.075a2.081,2.081,0,0,0-.916.533l-.325.424A2.023,2.023,0,0,0,190.466,506.722Z" transform="translate(-101.906 -269.997)" fill="#fff"/>
    <path id="Trazado_717281" data-name="Trazado 717281" d="M155.479,505.613v.208a1.544,1.544,0,0,0,.183.8,1.473,1.473,0,0,0,.432.666,1.6,1.6,0,0,0,.666.432,1.566,1.566,0,0,0,.8.183l.549-.075a2.085,2.085,0,0,0,.915-.532l.325-.425a2.026,2.026,0,0,0,.283-1.048v-.208a1.544,1.544,0,0,0-.183-.8,1.474,1.474,0,0,0-.432-.666,1.6,1.6,0,0,0-.666-.432,1.563,1.563,0,0,0-.8-.183l-.549.075a2.085,2.085,0,0,0-.916.532l-.325.424A2.026,2.026,0,0,0,155.479,505.613Z" transform="translate(-83.187 -269.403)" fill="#fff"/>
    <path id="Trazado_717282" data-name="Trazado 717282" d="M204.4,412.878c2.68,0,2.68-4.16,0-4.16S201.725,412.878,204.4,412.878Z" transform="translate(-108.288 -218.674)" fill="#fff"/>
    <path id="Trazado_717283" data-name="Trazado 717283" d="M172.549,406.007c2.68,0,2.68-4.16,0-4.16S169.87,406.007,172.549,406.007Z" transform="translate(-91.245 -214.998)" fill="#fff"/>
    <path id="Trazado_717284" data-name="Trazado 717284" d="M246.763,406.114c2.679,0,2.679-4.16,0-4.16S244.084,406.114,246.763,406.114Z" transform="translate(-130.952 -215.055)" fill="#fff"/>
    <path id="Trazado_717285" data-name="Trazado 717285" d="M205.145,278.042c-.516-1.331-1.131-2.862-1.922-4.85a12.585,12.585,0,0,0-3.9-5.308c-2.413-1.864-5.633-2.188-8.662-2.438h-26.1c-3.037.258-6.257.583-8.662,2.438a15.628,15.628,0,0,0-3.9,5.308c-1.023,1.922-1.9,3.6-2.721,5.283" transform="translate(-79.865 -142.018)" fill="#95c5c5"/>
    <path id="Trazado_717286" data-name="Trazado 717286" d="M190.125,249.307l-1.2,7.5h-7.14a15.865,15.865,0,0,0,10.609,8.628c4.635,1.007,13.214-1.681,15.91-8.6l-7.58-.308-1.132-7.213Z" transform="translate(-97.263 -133.383)" fill="#ffcdaa"/>
    <path id="Trazado_717287" data-name="Trazado 717287" d="M180.082,180.292c-1.073,6.024.075,15.117,1.4,19.893a14.948,14.948,0,0,0,2.38,5.516c6.241,7.754,14.47,5.242,17.174,3.436a12.627,12.627,0,0,0,4.768-5.7,40.6,40.6,0,0,0,2.846-19.094s-.466-14.676-15.735-13.536c0,0-11.034-.582-12.823,9.476Z" transform="translate(-96.124 -91.35)" fill="#ffcdaa"/>
    <path id="Trazado_717288" data-name="Trazado 717288" d="M222.518,216.585a1,1,0,1,0,.965-1.24A1.13,1.13,0,0,0,222.518,216.585Z" transform="translate(-119.055 -115.213)" fill="#222221"/>
    <path id="Trazado_717289" data-name="Trazado 717289" d="M195.764,216.925a1,1,0,1,0,.965-1.24A1.13,1.13,0,0,0,195.764,216.925Z" transform="translate(-104.741 -115.395)" fill="#222221"/>
    <path id="Trazado_717290" data-name="Trazado 717290" d="M221.363,207.473a3.68,3.68,0,0,1,1.289-.258,5.2,5.2,0,0,1,1.3.116,4.406,4.406,0,0,1,2.3,1.207.4.4,0,0,1-.016.566.377.377,0,0,1-.4.083h-.025a19.9,19.9,0,0,0-2.122-.632,17.438,17.438,0,0,0-2.189-.383h-.017a.369.369,0,0,1-.1-.707Z" transform="translate(-118.324 -110.86)" fill="#222221"/>
    <path id="Trazado_717291" data-name="Trazado 717291" d="M194.15,208.055a17.137,17.137,0,0,0-2.18.45c-.716.2-1.406.432-2.105.7h-.025a.4.4,0,0,1-.441-.632,4.408,4.408,0,0,1,2.255-1.281,5.159,5.159,0,0,1,1.29-.158,3.661,3.661,0,0,1,1.3.208.373.373,0,0,1,.216.474.361.361,0,0,1-.292.233h-.016Z" transform="translate(-101.28 -110.818)" fill="#222221"/>
    <path id="Trazado_717292" data-name="Trazado 717292" d="M210.714,218.625a11.736,11.736,0,0,1,.208,1.614c.05.541.058,1.082.058,1.622v.025a.336.336,0,0,1-.316.333c-.624.033-1.248.066-1.872.058a.238.238,0,0,1-.233-.233.232.232,0,0,1,.183-.225c.616-.125,1.232-.208,1.856-.283l-.316.358c-.042-.541-.075-1.081-.075-1.623a13.25,13.25,0,0,1,.075-1.622.219.219,0,0,1,.233-.191.212.212,0,0,1,.183.175Z" transform="translate(-111.587 -116.878)" fill="#222221"/>
    <path id="Trazado_717293" data-name="Trazado 717293" d="M240.976,217.5a1.575,1.575,0,0,0,1.714.491,2.51,2.51,0,0,0,1.115-.948,4.4,4.4,0,0,0,.916-3.661,1.582,1.582,0,0,0-.474-.832,1.449,1.449,0,0,0-1.531-.075,9.226,9.226,0,0,0-1.764,1.689l.017,3.336Z" transform="translate(-128.918 -113.578)" fill="#ffcdaa"/>
    <path id="Trazado_717294" data-name="Trazado 717294" d="M243.855,215.131a4.719,4.719,0,0,0-2.3,2.429.076.076,0,0,1-.1.041.068.068,0,0,1-.042-.092,3.835,3.835,0,0,1,2.4-2.513.063.063,0,0,1,.092.042.079.079,0,0,1-.033.092Z" transform="translate(-129.159 -115.024)" fill="#2e6a90"/>
    <path id="Trazado_717295" data-name="Trazado 717295" d="M243.2,217.613a2.474,2.474,0,0,1,.6,2.271.086.086,0,0,1-.1.058.072.072,0,0,1-.058-.083,3.37,3.37,0,0,0-.558-2.155.069.069,0,0,1,.016-.1.074.074,0,0,1,.092.008Z" transform="translate(-130.05 -116.415)" fill="#2e6a90"/>
    <path id="Trazado_717296" data-name="Trazado 717296" d="M177.458,217.514a1.575,1.575,0,0,1-1.714.491,2.511,2.511,0,0,1-1.115-.949,4.4,4.4,0,0,1-.916-3.661,1.579,1.579,0,0,1,.474-.832,1.448,1.448,0,0,1,1.531-.075,9.238,9.238,0,0,1,1.764,1.689l-.017,3.337Z" transform="translate(-92.883 -113.587)" fill="#ffcdaa"/>
    <path id="Trazado_717297" data-name="Trazado 717297" d="M176.253,215.029a3.888,3.888,0,0,1,2.4,2.513.084.084,0,0,1-.05.1.072.072,0,0,1-.092-.05,4.755,4.755,0,0,0-2.3-2.429.077.077,0,0,1-.033-.1.083.083,0,0,1,.091-.042Z" transform="translate(-94.258 -115.038)" fill="#2e6a90"/>
    <path id="Trazado_717298" data-name="Trazado 717298" d="M178.9,217.72a3.4,3.4,0,0,0-.557,2.155.077.077,0,0,1-.075.083.082.082,0,0,1-.083-.059,2.473,2.473,0,0,1,.6-2.271.069.069,0,0,1,.1,0,.067.067,0,0,1,.008.092Z" transform="translate(-95.295 -116.422)" fill="#2e6a90"/>
    <path id="Trazado_717299" data-name="Trazado 717299" d="M209.206,254.976s-6.133,2.2-10.31-.516c0,0,1.181,2.72,5.034,2.62S209.206,254.976,209.206,254.976Z" transform="translate(-106.417 -136.141)" fill="#222221"/>
    <path id="Trazado_717300" data-name="Trazado 717300" d="M210.868,231.657a2.434,2.434,0,0,1-1.123.583,2.333,2.333,0,0,1-1.265-.033.244.244,0,0,1-.15-.308.235.235,0,0,1,.158-.15h.008c.374-.108.724-.141,1.081-.233.358-.058.7-.166,1.082-.233a.218.218,0,0,1,.2.366Z" transform="translate(-111.458 -123.738)" fill="#222221"/>
    <path id="Trazado_717301" data-name="Trazado 717301" d="M204.141,173.055A18.465,18.465,0,0,1,209,187.764a31.513,31.513,0,0,1-16.767-11.3c.333,1.622.657,3.237.99,4.859.083.4.125.907-.192,1.131a.891.891,0,0,1-.641.083,18.1,18.1,0,0,1-10.168-4.917,46.253,46.253,0,0,1-1.464,11.282,2.272,2.272,0,0,1-.408,1,1.4,1.4,0,0,1-1.831.016,3.687,3.687,0,0,1-1.323-2.171,11.617,11.617,0,0,1-.216-2.637c0-.882,0-1.764-.008-2.646a18.454,18.454,0,0,1,2.03-7.571s3.694-7.288,13.854-6.2c9.012.973,11.283,4.351,11.283,4.351Z" transform="translate(-94.687 -90.194)" fill="#674032"/>
    <path id="Trazado_717302" data-name="Trazado 717302" d="M239.624,727.923a57.552,57.552,0,0,1,5.733,5.4,4.02,4.02,0,0,1,1.29,2.313,2.664,2.664,0,0,1-1.922,2.546,6.363,6.363,0,0,1-3.254-.108,44.747,44.747,0,0,1-11.216-3.852,5.545,5.545,0,0,1-1.864-1.356c-1.107-1.373-1.007-3.112-.8-4.925l12.032-.025Z" transform="translate(-121.7 -389.456)" fill="#222221"/>
    <path id="Trazado_717303" data-name="Trazado 717303" d="M156.306,727.923a57.494,57.494,0,0,0-5.733,5.4,4.015,4.015,0,0,0-1.29,2.313,2.664,2.664,0,0,0,1.922,2.546,6.362,6.362,0,0,0,3.253-.108,44.757,44.757,0,0,0,11.217-3.852,5.545,5.545,0,0,0,1.864-1.356c1.107-1.373,1.007-3.112.8-4.925l-12.032-.025Z" transform="translate(-79.87 -389.456)" fill="#222221"/>
    <path id="Trazado_717304" data-name="Trazado 717304" d="M191.744,326.59c-.957-1.015-1.015-2.047-1.44-3.2a8.456,8.456,0,0,1,.1-1.714h-.05c.84-4.717.949-10.358,1.789-20.026,3.944-.682,6.981-.507,11.383-4.592-2.987-9.684-2.313-8.336-4.035-12.762l-52.106-2.188c-1.947,3.977-3.428,5.749-6.723,14.559,3.312,2.246,8.537,3.494,12.482,4.185,1.556,10.924,1.831,19.826,1.947,20.342.041.241.075.491.116.741.008.158.017.308.017.466a4.467,4.467,0,0,1-1.057,2.271,6.739,6.739,0,0,0-1.356,2.3,1.933,1.933,0,0,0,.907,2.288c1.082.441,2.4-.557,3.437-.025.666.341.932,1.2,1.581,1.589.874.532,1.964.008,2.946-.266a4.7,4.7,0,0,1,3.536.316,28,28,0,0,0,2.422,1.689,5.343,5.343,0,0,0,4.169-.441,10.309,10.309,0,0,1,4.086-1.273,22.535,22.535,0,0,1,3.644.823,6.634,6.634,0,0,0,4.152-.591,17.822,17.822,0,0,1,2.3-1.207c1.922-.632,3.969.35,5.991.483a1.791,1.791,0,0,0,.866-.108,1.455,1.455,0,0,0,.416-1.988,8.517,8.517,0,0,0-1.514-1.681Z" transform="translate(-75.259 -150.932)" fill="#95c5c5"/>
    <path id="Trazado_717305" data-name="Trazado 717305" d="M500.252,741.719c23.892,0,43.261-3.751,43.261-8.378s-19.369-8.378-43.261-8.378-43.261,3.751-43.261,8.378S476.36,741.719,500.252,741.719Z" transform="translate(-244.507 -387.877)" fill="#e0e6f2"/>
    <path id="Trazado_717306" data-name="Trazado 717306" d="M564.149,716.882h14.545l.416-8.112-15.352.3Z" transform="translate(-301.631 -379.213)" fill="#f7ae8c"/>
    <path id="Trazado_717307" data-name="Trazado 717307" d="M579.154,724.73c2.322,2.429,5.65,4.634,7.971,7.064.682.716,1.423,1.605,1.232,2.579a2.092,2.092,0,0,1-1.506,1.472,5.733,5.733,0,0,1-2.2.083,60.3,60.3,0,0,1-14.869-3.569,8.307,8.307,0,0,1-4.269-2.762,8.89,8.89,0,0,1-1.023-4.776Z" transform="translate(-302.024 -387.752)" fill="#222221"/>
    <path id="Trazado_717308" data-name="Trazado 717308" d="M515.131,717.836H500.594l-.366-7.214,15.261-.457Z" transform="translate(-267.64 -379.959)" fill="#f7ae8c"/>
    <path id="Trazado_717309" data-name="Trazado 717309" d="M490.247,725.178c-2.322,2.43-5.65,4.634-7.971,7.063-.683.716-1.423,1.606-1.232,2.579a2.091,2.091,0,0,0,1.506,1.473,5.739,5.739,0,0,0,2.2.083,60.308,60.308,0,0,0,14.87-3.569,8.3,8.3,0,0,0,4.268-2.762,8.89,8.89,0,0,0,1.024-4.775Z" transform="translate(-257.359 -387.992)" fill="#222221"/>
    <path id="Trazado_717310" data-name="Trazado 717310" d="M489.43,391.415c-1.481,53.063.366,103.289,3.528,151.835l17.907-.175c-.882-38.82.749-87.681,2.5-126.468,1.989,38.528,6.49,88.022,8.479,126.559l18.248.05c-.092-55.127.324-103.023-1.506-151.718Z" transform="translate(-261.585 -209.416)" fill="#d0d5e3"/>
    <path id="Trazado_717311" data-name="Trazado 717311" d="M475.558,295.365a10.511,10.511,0,0,1-1.54-.99,15.024,15.024,0,0,1-4.077-5.508c-3.253-6.855-3.32-12.738-2.413-20.4C471.24,237.044,497.692,232.327,518,241.8c5.941,2.771,11.234,10.458,13.2,17.214s2.588,13.885,3.037,20.957c.183,2.9.308,6-1.007,8.527a9.686,9.686,0,0,1-6.424,4.568l.075.69q1.037,8.761,2.08,17.521a3.9,3.9,0,0,1-.258,2.5,3.074,3.074,0,0,1-2.4,1.156,42.653,42.653,0,0,1-8.737-.25,115.5,115.5,0,0,0-23.124.375c-5.741.665-11.658,1.755-17.2,0a4.036,4.036,0,0,1-2.2-1.356,5.183,5.183,0,0,1-.532-3.328c.391-6.223,1.023-15.017,1.023-15.017Z" transform="translate(-249.877 -127.036)" fill="#3076b6"/>
    <path id="Trazado_717312" data-name="Trazado 717312" d="M511.77,239.311c6.907-2.446,14.77-2.388,22.317-.366A15.652,15.652,0,0,1,523.4,243.4C514.275,243.4,511.77,239.311,511.77,239.311Z" transform="translate(-273.815 -127.04)" fill="#f7ae8c"/>
    <path id="Trazado_717313" data-name="Trazado 717313" d="M574.12,355.18a18.826,18.826,0,0,1-4.76.732,37.056,37.056,0,0,1-4.8-.116,38.049,38.049,0,0,1-4.743-.749,33.875,33.875,0,0,1-4.593-1.381.244.244,0,0,1-.141-.308.232.232,0,0,1,.291-.141q2.272.674,4.585,1.14a45.952,45.952,0,0,0,9.378.882,21.442,21.442,0,0,0,4.668-.474.218.218,0,0,1,.258.166.223.223,0,0,1-.15.258Z" transform="translate(-296.981 -188.972)" fill="#222221"/>
    <path id="Trazado_717314" data-name="Trazado 717314" d="M578.231,318.671a6.452,6.452,0,0,1,1.331-.508c1.881-.682,4,.849,5.892.175a.754.754,0,0,0,.549-.507c.083-.424-.374-.716-.757-.849a27.044,27.044,0,0,0-3.919-1.065,10.357,10.357,0,0,0,4.369.35,1.965,1.965,0,0,0,.865-.275.852.852,0,0,0,.391-.815c-.066-.4-.458-.632-.807-.782a8.385,8.385,0,0,0-3.686-.641,7.1,7.1,0,0,0,2.929.116,1.676,1.676,0,0,0,.89-.358.82.82,0,0,0,.241-.915,1.123,1.123,0,0,0-.608-.474,16.472,16.472,0,0,0-3.894-1.14,7.949,7.949,0,0,0,3.353.341,1.24,1.24,0,0,0,.649-.283.607.607,0,0,0,.15-.683.8.8,0,0,0-.341-.3c-2.055-1.2-4.51-2.13-6.715-1.289a8.309,8.309,0,0,0-1.747,1,18.018,18.018,0,0,0-1.814,1.381,24.954,24.954,0,0,1,1.714,4.06c.608,2.013.965,3.453.965,3.453Z" transform="translate(-307.941 -165.026)" fill="#f7ae8c"/>
    <path id="Trazado_717315" data-name="Trazado 717315" d="M577.8,280.552c.174,1.123.316,2.263.416,3.394s.166,2.271.233,3.411c.042,1.14.067,2.279.059,3.419s-.059,2.28-.141,3.419a.242.242,0,0,1-.483-.008l-.092-3.4c-.033-1.132-.059-2.263-.108-3.395-.033-1.131-.092-2.263-.15-3.394l-.175-3.395a.228.228,0,0,1,.208-.233.218.218,0,0,1,.225.183Z" transform="translate(-308.908 -150.003)" fill="#222221"/>
    <path id="Trazado_717316" data-name="Trazado 717316" d="M496.678,286.37c-.241,1.1-.449,2.2-.632,3.319s-.333,2.222-.433,3.344c-.116,1.115-.183,2.238-.216,3.361s-.041,2.246-.017,3.378a.235.235,0,0,1-.233.241.243.243,0,0,1-.241-.208,27.657,27.657,0,0,1-.208-3.419c0-1.14.058-2.288.166-3.428a32.847,32.847,0,0,1,.524-3.386,28.557,28.557,0,0,1,.882-3.312.222.222,0,0,1,.275-.141.218.218,0,0,1,.141.258Z" transform="translate(-264.681 -153.075)" fill="#222221"/>
    <path id="Trazado_717317" data-name="Trazado 717317" d="M490.536,322.033a4.3,4.3,0,0,0-2.513-.058,6.963,6.963,0,0,1-2.9-.15,2.488,2.488,0,0,1-1.456-2.787,4.511,4.511,0,0,1,2.38-2.371c4.518-2.313,10.825-.949,14.711,2.612l-10.219,2.762Z" transform="translate(-258.731 -168.812)" fill="#f7ae8c"/>
    <path id="Trazado_717318" data-name="Trazado 717318" d="M535.916,230.713l-1.123-7.155H525.4L524.208,231" transform="translate(-280.47 -119.607)" fill="#f7ae8c"/>
    <path id="Trazado_717319" data-name="Trazado 717319" d="M507.3,155.1c-1.065,5.973.075,15,1.389,19.734a14.849,14.849,0,0,0,2.355,5.474c6.191,7.7,14.362,5.2,17.041,3.411a12.486,12.486,0,0,0,4.726-5.657,40.3,40.3,0,0,0,2.821-18.944s-.466-14.559-15.61-13.428c0,0-10.951-.582-12.723,9.4Z" transform="translate(-271.197 -77.909)" fill="#f7ae8c"/>
    <path id="Trazado_717320" data-name="Trazado 717320" d="M549.388,191.1a.994.994,0,1,0,.965-1.232A1.122,1.122,0,0,0,549.388,191.1Z" transform="translate(-293.942 -101.58)" fill="#222221"/>
    <path id="Trazado_717321" data-name="Trazado 717321" d="M522.848,191.437a.994.994,0,1,0,.965-1.232A1.122,1.122,0,0,0,522.848,191.437Z" transform="translate(-279.743 -101.762)" fill="#222221"/>
    <path id="Trazado_717322" data-name="Trazado 717322" d="M548.241,182.074a3.617,3.617,0,0,1,1.281-.25,5.085,5.085,0,0,1,1.281.117,4.4,4.4,0,0,1,2.28,1.2.4.4,0,0,1-.016.566.4.4,0,0,1-.4.083h-.025a21.071,21.071,0,0,0-2.105-.632,17.143,17.143,0,0,0-2.172-.374h-.016a.371.371,0,0,1-.325-.408.384.384,0,0,1,.225-.3Z" transform="translate(-293.212 -97.275)" fill="#222221"/>
    <path id="Trazado_717323" data-name="Trazado 717323" d="M521.241,182.648a16.976,16.976,0,0,0-2.164.449c-.707.192-1.389.425-2.089.69h-.025a.388.388,0,0,1-.516-.216.384.384,0,0,1,.075-.4,4.347,4.347,0,0,1,2.238-1.273,5.094,5.094,0,0,1,1.281-.158,3.614,3.614,0,0,1,1.29.208.361.361,0,0,1,.208.474.366.366,0,0,1-.291.233h-.017Z" transform="translate(-276.305 -97.233)" fill="#222221"/>
    <path id="Trazado_717324" data-name="Trazado 717324" d="M537.3,189.967q.175,1.274.25,2.546c.059.849.083,1.7.108,2.546v.017a.329.329,0,0,1-.308.333c-.616.033-1.24.058-1.856.05a.231.231,0,0,1-.225-.233.223.223,0,0,1,.183-.216c.607-.117,1.223-.2,1.839-.283l-.308.35c-.05-.849-.1-1.7-.116-2.546s-.017-1.7.025-2.555a.206.206,0,0,1,.216-.2.2.2,0,0,1,.191.175Z" transform="translate(-286.388 -101.532)" fill="#222221"/>
    <path id="Trazado_717325" data-name="Trazado 717325" d="M536.17,229.192s-6.083,2.18-10.226-.516c0,0,1.173,2.7,4.993,2.6s5.234-2.088,5.234-2.088Z" transform="translate(-281.399 -122.345)" fill="#222221"/>
    <path id="Trazado_717326" data-name="Trazado 717326" d="M538.132,206.781a7.752,7.752,0,0,1-1.115.174,6.384,6.384,0,0,1-1.132.025.237.237,0,0,1-.208-.266.229.229,0,0,1,.125-.183,3.081,3.081,0,0,1,1.156-.3,3.263,3.263,0,0,1,1.2.133.219.219,0,0,1,.133.283.251.251,0,0,1-.15.141Z" transform="translate(-286.605 -110.334)" fill="#222221"/>
    <path id="Trazado_717327" data-name="Trazado 717327" d="M534.9,152.83a21.858,21.858,0,0,1-20.81-5.175c.84,1.781.99,3.594,1.839,5.367.075.166.15.374.025.516a.544.544,0,0,1-.216.116,6,6,0,0,1-6.665-2.6c.383,1.364-2,7.862-2.521,9.518a6.1,6.1,0,0,1-1.839,3.228.38.38,0,0,1-.624-.083c-1.34-1.6-1.456-3.868-1.415-5.957.1-4.742.832-9.826,4.061-13.311,3.961-4.285,11-5.233,16.567-3.486a17.6,17.6,0,0,1,11.6,11.881Z" transform="translate(-268.944 -74.969)" fill="#4e2e28"/>
    <path id="Trazado_717328" data-name="Trazado 717328" d="M504.678,192.018a1.56,1.56,0,0,1-1.706.483,2.474,2.474,0,0,1-1.107-.94,4.374,4.374,0,0,1-.907-3.636,1.587,1.587,0,0,1,.474-.823,1.42,1.42,0,0,1,1.514-.075,9.311,9.311,0,0,1,1.747,1.672l-.017,3.311Z" transform="translate(-267.971 -99.964)" fill="#f7ae8c"/>
    <path id="Trazado_717329" data-name="Trazado 717329" d="M503.471,189.561a3.826,3.826,0,0,1,2.38,2.5.084.084,0,0,1-.05.1.075.075,0,0,1-.092-.042,4.723,4.723,0,0,0-2.288-2.413.076.076,0,0,1-.034-.1.07.07,0,0,1,.092-.034Z" transform="translate(-269.327 -101.417)" fill="#2e6a90"/>
    <path id="Trazado_717330" data-name="Trazado 717330" d="M506.115,192.222a3.3,3.3,0,0,0-.549,2.138.076.076,0,0,1-.075.083.083.083,0,0,1-.083-.058,2.458,2.458,0,0,1,.591-2.255.067.067,0,0,1,.1,0,.075.075,0,0,1,.008.092Z" transform="translate(-270.374 -102.78)" fill="#2e6a90"/>
    <path id="Trazado_717331" data-name="Trazado 717331" d="M567.4,170.975a9.219,9.219,0,0,1-1.323,4.842,10.544,10.544,0,0,1-2.18-4.975c-.216-1.2-1.123-8.021,1.023-7.754C566.2,163.246,567.461,165.11,567.4,170.975Z" transform="translate(-301.506 -87.249)" fill="#4e2e28"/>
    <path id="Trazado_717332" data-name="Trazado 717332" d="M567.712,192a1.559,1.559,0,0,0,1.706.483,2.472,2.472,0,0,0,1.107-.94,4.375,4.375,0,0,0,.907-3.636,1.589,1.589,0,0,0-.474-.824,1.437,1.437,0,0,0-1.514-.075,9.307,9.307,0,0,0-1.748,1.672l.017,3.311Z" transform="translate(-303.737 -99.958)" fill="#f7ae8c"/>
    <path id="Trazado_717333" data-name="Trazado 717333" d="M570.548,189.669a4.724,4.724,0,0,0-2.288,2.413.076.076,0,0,1-.1.042.074.074,0,0,1-.042-.092,3.821,3.821,0,0,1,2.388-2.5.065.065,0,0,1,.092.042.078.078,0,0,1-.034.091Z" transform="translate(-303.961 -101.4)" fill="#2e6a90"/>
    <path id="Trazado_717334" data-name="Trazado 717334" d="M569.889,192.115a2.436,2.436,0,0,1,.591,2.255.086.086,0,0,1-.1.058.08.08,0,0,1-.059-.083,3.361,3.361,0,0,0-.549-2.138.069.069,0,0,1,.017-.1.074.074,0,0,1,.092.008Z" transform="translate(-304.841 -102.773)" fill="#2e6a90"/>
    <path id="Trazado_717335" data-name="Trazado 717335" d="M540.982,446.46a12.063,12.063,0,0,1-1.9.141,9.558,9.558,0,0,1-1.889-.166.236.236,0,0,1-.183-.291.261.261,0,0,1,.191-.191,10.37,10.37,0,0,1,1.9-.125,11.113,11.113,0,0,1,1.889.183.228.228,0,0,1,.175.266.223.223,0,0,1-.175.175Z" transform="translate(-287.318 -238.529)" fill="#222221"/>
    <path id="Trazado_717336" data-name="Trazado 717336" d="M576.367,403.933a13.345,13.345,0,0,0,1.14,3.236,11.576,11.576,0,0,0,1.947,2.788,14.836,14.836,0,0,0,2.613,2.213c.948.657,1.947,1.248,2.971,1.822a.235.235,0,0,1,.091.325.239.239,0,0,1-.308.1,23.153,23.153,0,0,1-3.145-1.655,14.035,14.035,0,0,1-2.78-2.288A11.455,11.455,0,0,1,575.943,404a.219.219,0,0,1,.433-.066Z" transform="translate(-308.149 -216.02)" fill="#222221"/>
    <path id="Trazado_717337" data-name="Trazado 717337" d="M500.5,405.159a16.992,16.992,0,0,1-1.631,3.045,19.264,19.264,0,0,1-2.172,2.7,18.8,18.8,0,0,1-2.638,2.246,16.513,16.513,0,0,1-3.02,1.681.241.241,0,0,1-.316-.125.232.232,0,0,1,.108-.3,23.23,23.23,0,0,0,2.813-1.822,21.078,21.078,0,0,0,2.5-2.213,22.7,22.7,0,0,0,2.164-2.554,25.1,25.1,0,0,0,1.789-2.846.222.222,0,0,1,.3-.092.218.218,0,0,1,.1.275Z" transform="translate(-262.543 -216.604)" fill="#222221"/>
    <path id="Trazado_717338" data-name="Trazado 717338" d="M540.01,400.854l-.059,4.409c-.008,1.473-.033,2.937-.008,4.41l.025,4.409c0,.383,0,.732.108.8a2.936,2.936,0,0,0,.89.241,8.749,8.749,0,0,0,2.138.133.24.24,0,0,1,.25.225.244.244,0,0,1-.208.25,9.42,9.42,0,0,1-2.271,0c-.192-.025-.374-.058-.566-.092a1.443,1.443,0,0,1-.657-.258,1.061,1.061,0,0,1-.349-.7c-.025-.225-.025-.4-.033-.583-.058-1.473-.083-2.953-.1-4.426.008-1.473.025-2.953.092-4.426s.167-2.946.308-4.418a.224.224,0,0,1,.241-.2A.219.219,0,0,1,540.01,400.854Z" transform="translate(-288.475 -214.346)" fill="#222221"/>
    <path id="Trazado_717339" data-name="Trazado 717339" d="M490.065,318.857l17.108-4.451L524.3,310a.357.357,0,0,1,.208.008,6.705,6.705,0,0,1,3.054,2.92,20.73,20.73,0,0,1,1.723,3.761c.458,1.3.823,2.612,1.148,3.943s.583,2.662.783,4.027a.383.383,0,0,1-.241.408l-11.125,4.376-5.559,2.188-2.779,1.09c-.949.341-1.889.674-2.854.965a52.686,52.686,0,0,1-11.791,2.213,43.952,43.952,0,0,1-6.016.025,15.042,15.042,0,0,1-5.833-1.539.243.243,0,0,1-.1-.325.236.236,0,0,1,.316-.1,14.548,14.548,0,0,0,5.658,1.414,42.735,42.735,0,0,0,5.925-.1,52.832,52.832,0,0,0,11.641-2.238c.948-.291,1.881-.624,2.8-.965l2.779-1.1,5.55-2.2,11.108-4.418-.241.408a44.3,44.3,0,0,0-1.864-7.829,19.364,19.364,0,0,0-1.639-3.636,6.024,6.024,0,0,0-2.7-2.637h.208L507.323,315l-17.149,4.277a.219.219,0,0,1-.266-.158.226.226,0,0,1,.158-.266Z" transform="translate(-259.433 -165.853)" fill="#222221"/>
    <path id="Trazado_717340" data-name="Trazado 717340" d="M804.2,739.733c27.233,0,49.31-3.751,49.31-8.378s-22.077-8.378-49.31-8.378-49.31,3.751-49.31,8.378S776.964,739.733,804.2,739.733Z" transform="translate(-403.892 -386.814)" fill="#e0e6f2"/>
    <path id="Trazado_717341" data-name="Trazado 717341" d="M856.442,182.351c2.6,4.892-.89,11.215,1.173,16.356,2,4.967,8.338,6.9,10.842,11.631a9.265,9.265,0,0,1-.3,8.977,9.489,9.489,0,0,1-7.83,4.434c-2.671.033-5.292-1.057-7.955-.849a12.174,12.174,0,0,0-6.507,2.97c-1.88,1.522-3.52,3.328-5.359,4.892a9.379,9.379,0,0,1-2.413,1.581,8.835,8.835,0,0,1-3.329.507c-4.293,0-8.729-1.24-11.857-4.168s-4.685-7.721-3.112-11.714c.982-2.5,3.062-4.576,3.387-7.23.275-2.23-.757-4.385-1.381-6.548a11.016,11.016,0,0,1,.175-7.471c.757-1.706,1.556-2.072,1.872-3.91.765-4.459.366-10.907,3.32-14.035,3.312-3.5,7.414-3.985,12.232-4.152a24.032,24.032,0,0,1,13.647,4.06C854.877,178.865,855.418,180.429,856.442,182.351Z" transform="translate(-438.288 -92.884)" fill="#222221"/>
    <path id="Trazado_717342" data-name="Trazado 717342" d="M900.517,723.128c2.879,2.346,5.717,5.042,8.4,7.621a2.756,2.756,0,0,1,.949,1.414,1.886,1.886,0,0,1-1.174,1.889,4.952,4.952,0,0,1-2.322.258,81.512,81.512,0,0,1-16.8-2.637,4.933,4.933,0,0,1-1.822-.774c-1.123-.89-1.315-2.521-1.414-3.977-.092-1.265-.175-2.537-.266-3.8H900.51Z" transform="translate(-474.076 -386.891)" fill="#222221"/>
    <path id="Trazado_717343" data-name="Trazado 717343" d="M813.972,723.178c-.092,1.265-.175,2.538-.266,3.8-.1,1.448-.291,3.087-1.414,3.977a4.793,4.793,0,0,1-1.822.774,80.889,80.889,0,0,1-16.8,2.637,4.984,4.984,0,0,1-2.322-.258,1.874,1.874,0,0,1-1.173-1.889,2.753,2.753,0,0,1,.949-1.414c2.687-2.579,5.891-5.341,8.778-7.687l14.062.058Z" transform="translate(-422.761 -386.891)" fill="#222221"/>
    <path id="Trazado_717344" data-name="Trazado 717344" d="M806.473,539.318h17.133c4.6-42.015,9.411-92.815,12.79-132.342,1.256,38.462,3.753,90.643,5.3,132.342h17.74c1.981-19.709,2.172-44.419,3.337-60.143,2.388-32.247,6.032-75.934-6.532-99.7H820.02c-16.6,20.974-11.383,68.122-11.374,97.091,0,15.966-2.63,42.3-2.172,62.739Z" transform="translate(-431.464 -203.031)" fill="#2e6a90"/>
    <path id="Trazado_717345" data-name="Trazado 717345" d="M870.4,438.07a10.721,10.721,0,0,1-1.789.075,9.15,9.15,0,0,1-1.772-.216.226.226,0,0,1-.166-.275.243.243,0,0,1,.183-.174,10.955,10.955,0,0,1,3.561.174.2.2,0,0,1,.15.25.226.226,0,0,1-.175.158Z" transform="translate(-463.697 -234.024)" fill="#222221"/>
    <path id="Trazado_717346" data-name="Trazado 717346" d="M902.289,385.953A12.486,12.486,0,0,0,903.363,389a11.062,11.062,0,0,0,1.831,2.621,14.407,14.407,0,0,0,2.455,2.088c.891.616,1.839,1.173,2.8,1.714a.224.224,0,0,1-.2.4,21.9,21.9,0,0,1-2.962-1.564,13.211,13.211,0,0,1-2.613-2.155,10.808,10.808,0,0,1-2.788-6.082.2.2,0,0,1,.183-.225.21.21,0,0,1,.225.167Z" transform="translate(-482.538 -206.409)" fill="#222221"/>
    <path id="Trazado_717347" data-name="Trazado 717347" d="M833.9,385.133a18.39,18.39,0,0,1-2.9,5.017,12.333,12.333,0,0,1-4.718,3.4.217.217,0,0,1-.292-.125.228.228,0,0,1,.1-.283,15.425,15.425,0,0,0,4.369-3.461,26.677,26.677,0,0,0,3.079-4.725.215.215,0,0,1,.283-.083.2.2,0,0,1,.091.258Z" transform="translate(-441.924 -205.905)" fill="#222221"/>
    <path id="Trazado_717348" data-name="Trazado 717348" d="M869.258,392.148c-.041,2.962-.116,5.924-.108,8.877-.008,1.481,0,2.962.008,4.434a3.555,3.555,0,0,0,.058.965c.033.075.083.108.241.158s.341.083.516.116a8.407,8.407,0,0,0,2.147.15.231.231,0,0,1,.241.208.227.227,0,0,1-.2.233,8.767,8.767,0,0,1-2.288-.017c-.192-.033-.366-.058-.574-.108a.954.954,0,0,1-.641-.466,1.582,1.582,0,0,1-.141-.674l-.025-.557c-.05-1.481-.067-2.97-.058-4.46s.041-2.97.116-4.451.166-2.962.3-4.443a.2.2,0,0,1,.407.025Z" transform="translate(-464.643 -209.692)" fill="#222221"/>
    <path id="Trazado_717349" data-name="Trazado 717349" d="M844.036,267l-28.158,1.672c-4.51,0-8.121,3.345-9.86,6.048a23.976,23.976,0,0,0-2.288,5.009,90.592,90.592,0,0,0-3.744,13.919c3.062.083,13.5,1.464,13.5,1.464,1.032,5.724,1.939,10.883,2.4,15.749-.641,5.425-1.281,6.09-1.54,7.055a3.08,3.08,0,0,0-.066,1.913c.516,1.331,2.338,1.29,3.72,1.065.84-.142,1.681-.258,2.521-.358a82.29,82.29,0,0,0,23.823.832,26.535,26.535,0,0,0,5.966-.316c.823-.15,1.764-.466,2.022-1.281a2.628,2.628,0,0,0-.233-1.656c-.258-.682-.507-1.364-.765-2.038-.258-4.7-1.148-9.726,1.531-24.851,1.681,1.814,2.937,2.471,4.393,4.06l9.511-11.265c-7.214-9.118-13.231-17.006-22.725-17.006Z" transform="translate(-428.021 -142.851)" fill="#ffa031"/>
    <path id="Trazado_717350" data-name="Trazado 717350" d="M846.41,250.953l-1.19,7.438h-7.081a15.756,15.756,0,0,0,10.526,8.561c4.593,1,13.106-1.664,15.785-8.536l-7.522-.308-1.123-7.155Z" transform="translate(-448.435 -134.264)" fill="#f7c5b4"/>
    <path id="Trazado_717351" data-name="Trazado 717351" d="M836.456,182.49c-1.065,5.974.075,15,1.381,19.734a14.854,14.854,0,0,0,2.355,5.474c6.191,7.7,14.362,5.2,17.041,3.411a12.483,12.483,0,0,0,4.726-5.657,40.288,40.288,0,0,0,2.821-18.944s-.466-14.56-15.61-13.428c0,0-10.942-.583-12.723,9.4Z" transform="translate(-447.309 -92.566)" fill="#f7c5b4"/>
    <path id="Trazado_717352" data-name="Trazado 717352" d="M878.548,218.831a.994.994,0,1,0,.965-1.231A1.122,1.122,0,0,0,878.548,218.831Z" transform="translate(-470.055 -116.419)" fill="#222221"/>
    <path id="Trazado_717353" data-name="Trazado 717353" d="M852.973,220.062a1.268,1.268,0,1,0-.965-1.231A1.123,1.123,0,0,0,852.973,220.062Z" transform="translate(-455.855 -116.419)" fill="#222221"/>
    <path id="Trazado_717354" data-name="Trazado 717354" d="M877.4,210.775a3.618,3.618,0,0,1,1.281-.25,5.089,5.089,0,0,1,1.281.116,4.411,4.411,0,0,1,2.28,1.2.4.4,0,0,1-.017.566.394.394,0,0,1-.4.083H881.8a21.063,21.063,0,0,0-2.105-.632,17.159,17.159,0,0,0-2.171-.374h-.017a.371.371,0,0,1-.324-.408.384.384,0,0,1,.225-.3Z" transform="translate(-469.324 -112.631)" fill="#222221"/>
    <path id="Trazado_717355" data-name="Trazado 717355" d="M850.419,211.366a16.886,16.886,0,0,0-2.164.449c-.707.192-1.389.425-2.089.69h-.025a.389.389,0,0,1-.516-.216.384.384,0,0,1,.075-.4,4.352,4.352,0,0,1,2.238-1.273,5.116,5.116,0,0,1,1.281-.158,3.614,3.614,0,0,1,1.29.208.362.362,0,0,1,.208.474.367.367,0,0,1-.291.233h-.017Z" transform="translate(-452.427 -112.598)" fill="#222221"/>
    <path id="Trazado_717356" data-name="Trazado 717356" d="M865.69,216.128a21.45,21.45,0,0,1,.141,2.729c0,.907-.025,1.8,0,2.688v.025a.329.329,0,0,1-.308.332c-.616.033-1.24.067-1.856.059a.226.226,0,0,1-.224-.233.24.24,0,0,1,.183-.225c.608-.116,1.223-.2,1.839-.283l-.308.358a23.036,23.036,0,0,1,0-2.729c.033-.907.092-1.8.142-2.7a.2.2,0,0,1,.216-.2.212.212,0,0,1,.2.183Z" transform="translate(-461.973 -115.538)" fill="#222221"/>
    <path id="Trazado_717357" data-name="Trazado 717357" d="M863.125,237.176c-.366-.058-.683-.166-1.023-.216-.333-.083-.666-.116-1.015-.216a.226.226,0,0,1-.158-.283.213.213,0,0,1,.142-.15,2.219,2.219,0,0,1,1.19-.033,2.271,2.271,0,0,1,1.056.549.2.2,0,0,1,0,.291.213.213,0,0,1-.183.058Z" transform="translate(-460.623 -126.378)" fill="#222221"/>
    <path id="Trazado_717358" data-name="Trazado 717358" d="M917.645,320.24c-2.571,4.859-7.9,13.9-11.683,18.087-1.148-.2-2.446-.283-3.595-.474-.49.175-.341.849.025,1.2s.89.624.99,1.081c.158.707-.757,1.19-1.523,1.414s-1.706.574-1.731,1.289c-.016.541.566.974,1.165,1.065a4.2,4.2,0,0,0,1.781-.233c-.683.765-2.355.7-2.588,1.655-.15.616.541,1.207,1.248,1.281a4.3,4.3,0,0,0,2.047-.449c-.292.79-1.872.923-1.822,1.755.033.566.823.816,1.456.816a5.309,5.309,0,0,0,2.222-.483.924.924,0,0,0-.034,1.564,2.014,2.014,0,0,0,1.956.075,5.082,5.082,0,0,0,1.514-1.231c.374-.4,2.737-3.819,2.737-3.819,12.482-15.766,8.413-10.366,12.482-15.766,9.9-13.145-.374-18.087-4.36-24.435L912.1,313.9l5.55,6.339Z" transform="translate(-481.602 -162.985)" fill="#f7c5b4"/>
    <path id="Trazado_717359" data-name="Trazado 717359" d="M864.383,256.658s-6.083,2.18-10.227-.516c0,0,1.173,2.7,4.992,2.6s5.234-2.089,5.234-2.089Z" transform="translate(-457.004 -137.04)" fill="#222221"/>
    <path id="Trazado_717360" data-name="Trazado 717360" d="M814.2,278.831l-8.18,21.157h-6.357l-.616,3.237c-2.155,11.589,9.087,18.461,13.663,7.554,3.586-8.545,7.122-22.78,9.061-31.233" transform="translate(-427.373 -149.18)" fill="#f7c5b4"/>
    <path id="Trazado_717361" data-name="Trazado 717361" d="M835,267.485c.741-3.178,3.171-11.756,4.211-12.546.5-.383,1.073-.416,1.581-.79s1.165-.183,1.19-1.772c.008-.674-1.207-1.2-1.606-.69.683-.325,1.49-.874,1.431-1.705a1.2,1.2,0,0,0-1.165-1.049,3.189,3.189,0,0,0-1.565.541c.816-.491,1.781-1.414,1.406-2.354s-1.6-.666-2.447-.258c.774-1.5,1.548-3,2.322-4.5a2.009,2.009,0,0,0,.316-1.115,1.041,1.041,0,0,0-1.306-.816,3.374,3.374,0,0,0-1.406,1.065c-5.25,5.516-10.543,22.089-10.543,22.089" transform="translate(-442.699 -128.616)" fill="#f7c5b4"/>
    <path id="Trazado_717362" data-name="Trazado 717362" d="M844.814,244.535c.674-.924,1.331-1.864,2.03-2.779a6.354,6.354,0,0,1,1.223-1.231,1.5,1.5,0,0,1,.841-.308,1.246,1.246,0,0,1,.849.325,1.034,1.034,0,0,1,.308.857,2.57,2.57,0,0,1-.283.84L849,243.769l-1.564,3.062-.158-.158a3.635,3.635,0,0,1,1.423-.391,1.382,1.382,0,0,1,.757.183,1.11,1.11,0,0,1,.466.632,1.577,1.577,0,0,1-.374,1.439,4.089,4.089,0,0,1-1.123.949l-.117-.2a4.425,4.425,0,0,1,1.24-.516,1.477,1.477,0,0,1,1.314.358,1.036,1.036,0,0,1,.325.632,1.163,1.163,0,0,1-.158.691,4.479,4.479,0,0,1-.89,1l-.075-.158a1.257,1.257,0,0,1,1.065.516,1.353,1.353,0,0,1,.216,1.165,1.623,1.623,0,0,1-.732.923c-.349.2-.69.333-1.023.524a.092.092,0,0,1-.108-.033.091.091,0,0,1,.034-.108c.333-.183.7-.341,1.007-.516a1.475,1.475,0,0,0,.658-.832,1.173,1.173,0,0,0-.2-1.007,1.09,1.09,0,0,0-.915-.441.093.093,0,0,1-.1-.083.116.116,0,0,1,.025-.075,4.353,4.353,0,0,0,.848-.956.845.845,0,0,0-.133-1.081,1.292,1.292,0,0,0-1.132-.3,4.373,4.373,0,0,0-1.173.5.107.107,0,0,1-.15-.041.111.111,0,0,1,.041-.15,3.892,3.892,0,0,0,1.049-.9,1.328,1.328,0,0,0,.324-1.223.91.91,0,0,0-.982-.641,3.277,3.277,0,0,0-1.323.358.131.131,0,0,1-.158-.05.123.123,0,0,1,0-.108l1.589-3.045.79-1.522a2.274,2.274,0,0,0,.275-.774.828.828,0,0,0-.25-.707.993.993,0,0,0-.716-.275,1.424,1.424,0,0,0-.749.275,5.973,5.973,0,0,0-1.19,1.19c-.7.9-1.365,1.838-2.038,2.762a.072.072,0,1,1-.117-.083Z" transform="translate(-451.989 -128.52)" fill="#2e6a90"/>
    <path id="Trazado_717363" data-name="Trazado 717363" d="M810.49,330.348a12.056,12.056,0,0,1,.549-3.112,11.892,11.892,0,0,1,1.256-2.9,11.742,11.742,0,0,1-.549,3.112A12.238,12.238,0,0,1,810.49,330.348Z" transform="translate(-433.641 -173.525)" fill="#222221"/>
    <path id="Trazado_717364" data-name="Trazado 717364" d="M859.043,185.723a24.2,24.2,0,0,1-16.184-10.25,8.871,8.871,0,0,1-4.876,7.978,2.353,2.353,0,0,0-.907.608,2.4,2.4,0,0,0-.325,1.256,9.518,9.518,0,0,1-3.145,6.24,17.338,17.338,0,0,1-1.082-5.083c-.291-2.97-.525-6.09.541-8.878,3.462-9,19.13-12.3,28.25-1.605,1.473,1.722,2.962,5.882,2.529,8.153C863.4,186.472,860.932,186.014,859.043,185.723Z" transform="translate(-445.299 -90.574)" fill="#222221"/>
    <path id="Trazado_717365" data-name="Trazado 717365" d="M895.14,202.737c-.616-.183-.691-1.007-.7-1.647a13.8,13.8,0,0,0-.5-3.644,35.207,35.207,0,0,1-1.406-4.892c-.125-1.032,0-3.744,1.356-4.06,1.439-.341,1.989,2.837,2.2,3.761a17,17,0,0,1-.948,10.491Z" transform="translate(-477.519 -100.833)" fill="#222221"/>
    <path id="Trazado_717366" data-name="Trazado 717366" d="M896.872,219.4a1.559,1.559,0,0,0,1.706.482,2.473,2.473,0,0,0,1.107-.94,4.371,4.371,0,0,0,.907-3.636,1.587,1.587,0,0,0-.474-.823,1.437,1.437,0,0,0-1.514-.075,9.339,9.339,0,0,0-1.748,1.672l.017,3.311Z" transform="translate(-479.85 -114.615)" fill="#f7c5b4"/>
    <path id="Trazado_717367" data-name="Trazado 717367" d="M899.709,217.064a4.725,4.725,0,0,0-2.289,2.413.076.076,0,0,1-.1.042.074.074,0,0,1-.041-.092,3.826,3.826,0,0,1,2.38-2.5.065.065,0,0,1,.092.041.079.079,0,0,1-.033.092Z" transform="translate(-480.074 -116.057)" fill="#2e6a90"/>
    <path id="Trazado_717368" data-name="Trazado 717368" d="M899.067,219.509a2.437,2.437,0,0,1,.591,2.255.08.08,0,0,1-.158-.025,3.362,3.362,0,0,0-.549-2.138.069.069,0,0,1,.017-.1.076.076,0,0,1,.092.008Z" transform="translate(-480.963 -117.43)" fill="#2e6a90"/>
    <path id="Trazado_717369" data-name="Trazado 717369" d="M833.838,219.416a1.558,1.558,0,0,1-1.706.483,2.473,2.473,0,0,1-1.107-.94,4.373,4.373,0,0,1-.907-3.636,1.586,1.586,0,0,1,.474-.823,1.437,1.437,0,0,1,1.514-.075,9.307,9.307,0,0,1,1.747,1.672l-.017,3.312Z" transform="translate(-444.084 -114.625)" fill="#f7c5b4"/>
    <path id="Trazado_717370" data-name="Trazado 717370" d="M832.631,216.956a3.827,3.827,0,0,1,2.38,2.5.085.085,0,0,1-.05.1.075.075,0,0,1-.091-.041,4.722,4.722,0,0,0-2.288-2.413.077.077,0,0,1-.034-.1.07.07,0,0,1,.092-.033Z" transform="translate(-445.44 -116.075)" fill="#2e6a90"/>
    <path id="Trazado_717371" data-name="Trazado 717371" d="M835.275,219.634a3.3,3.3,0,0,0-.549,2.138.076.076,0,0,1-.075.083.082.082,0,0,1-.083-.058,2.46,2.46,0,0,1,.591-2.255.068.068,0,0,1,.1,0,.076.076,0,0,1,.008.092Z" transform="translate(-446.486 -117.447)" fill="#2e6a90"/>
    <path id="Trazado_717372" data-name="Trazado 717372" d="M848.342,211.627a6.136,6.136,0,0,1-6.141,6.239,6.244,6.244,0,1,1-.008-12.488,6.171,6.171,0,0,1,4.393,1.855,6.245,6.245,0,0,1,1.772,4.393Zm-.424,0a5.682,5.682,0,0,0-5.717-5.633,5.642,5.642,0,0,0-3.969,9.593,5.7,5.7,0,0,0,9.7-3.96Z" transform="translate(-447.238 -109.88)" fill="#222221"/>
    <path id="Trazado_717373" data-name="Trazado 717373" d="M862.173,214.734s2.546-2.055,4.493.083" transform="translate(-461.294 -114.41)" fill="none" stroke="#222221" stroke-miterlimit="10" stroke-width="0.79"/>
    <path id="Trazado_717374" data-name="Trazado 717374" d="M883.561,211.627a6.137,6.137,0,0,1-6.141,6.239,6.244,6.244,0,1,1-.008-12.488,6.17,6.17,0,0,1,4.393,1.855,6.245,6.245,0,0,1,1.772,4.393Zm-.425,0a5.681,5.681,0,0,0-5.717-5.633,5.642,5.642,0,0,0-3.969,9.593,5.7,5.7,0,0,0,9.7-3.96Z" transform="translate(-466.081 -109.88)" fill="#222221"/>
    <path id="Trazado_717375" data-name="Trazado 717375" d="M884.908,318.969a.621.621,0,0,1,.041.191l-.025.333-.041.69c-.017.458-.025.923-.017,1.381a15.453,15.453,0,0,0,.275,2.712,5.049,5.049,0,0,0,1.023,2.355c.158.125.274.308.449.383l.25.15a2.911,2.911,0,0,0,.283.083,5.255,5.255,0,0,0,1.281.166,3.233,3.233,0,0,0,2.321-.666,3.444,3.444,0,0,0,.707-2.338l.383-5.549.35.366c-2.4-.042-4.8-.158-7.265-.258h-.016Zm-.3-.391c2.488-.033,5.034-.092,7.589-.067a.339.339,0,0,1,.341.349v.017l-.3,5.6a8.3,8.3,0,0,1-.167,1.448,2.781,2.781,0,0,1-.774,1.406,3.981,3.981,0,0,1-2.9.865,5.728,5.728,0,0,1-1.473-.208c-.125-.041-.266-.075-.383-.125l-.349-.208a2.582,2.582,0,0,1-.6-.524,5.7,5.7,0,0,1-1.132-2.729,13.619,13.619,0,0,1-.191-2.845c.008-.474.041-.94.075-1.414l.075-.707.05-.358a2.376,2.376,0,0,1,.133-.491v-.017Z" transform="translate(-473.111 -170.407)" fill="#222221"/>
    <path id="Trazado_717376" data-name="Trazado 717376" d="M359.427,85.7a27.841,27.841,0,0,0-10.384,17.771C347.2,115,351.023,127.549,359.76,135.3s22.333,9.942,32.61,4.385A9.64,9.64,0,0,1,396,138.223a9.233,9.233,0,0,1,3.42.665,35.57,35.57,0,0,0,11.408,1.639c-.491.017-3.936-12.014-4.21-13.27-.849-3.794.516-5.774.932-9.609,4.4-41.174-32.6-43.745-48.112-31.948Z" transform="translate(-186.509 -42.575)" fill="#fff"/>
    <path id="Trazado_717377" data-name="Trazado 717377" d="M390.472,108.309v-.121a10.253,10.253,0,0,1,.385-3.071,4.663,4.663,0,0,1,1.079-1.854,8.822,8.822,0,0,1,1.688-1.313,5.3,5.3,0,0,0,1.065-.864,3.819,3.819,0,0,0,.74-1.166,3.642,3.642,0,0,0,.274-1.455,3.057,3.057,0,0,0-1.724-2.826,3.766,3.766,0,0,0-1.729-.383,3.865,3.865,0,0,0-1.593.353,3.089,3.089,0,0,0-1.275,1.088,3.759,3.759,0,0,0-.583,1.932l-2.544.015a5.71,5.71,0,0,1,.87-2.943,5.35,5.35,0,0,1,2.139-1.881,6.781,6.781,0,0,1,2.974-.664,6.423,6.423,0,0,1,3.093.688,5.063,5.063,0,0,1,2.051,1.926,5.419,5.419,0,0,1,.744,2.8,5.593,5.593,0,0,1-.331,2.011,4.943,4.943,0,0,1-.959,1.611,6.636,6.636,0,0,1-1.506,1.261,6.26,6.26,0,0,0-1.416,1.18,3.7,3.7,0,0,0-.769,1.448,8.119,8.119,0,0,0-.25,2.091v.121Zm1.328,5.968a1.813,1.813,0,1,1,1.806-1.828,1.71,1.71,0,0,1-.246.91,1.888,1.888,0,0,1-.652.67A1.734,1.734,0,0,1,391.8,114.277Z" transform="translate(-206.659 -49.836)" fill="#3076b6"/>
    <path id="Trazado_717378" data-name="Trazado 717378" d="M993.946,129.213l.094-.18a17.294,17.294,0,0,1,3-4.255,7.791,7.791,0,0,1,3.069-1.9,14.8,14.8,0,0,1,3.543-.614,8.923,8.923,0,0,0,2.264-.441,6.437,6.437,0,0,0,2.023-1.145,6.149,6.149,0,0,0,1.558-1.944,5.13,5.13,0,0,0-.325-5.559,6.33,6.33,0,0,0-2.264-1.936,6.478,6.478,0,0,0-2.641-.736,5.205,5.205,0,0,0-2.757.606,6.348,6.348,0,0,0-2.395,2.406l-3.79-1.989a9.633,9.633,0,0,1,3.622-3.681,9,9,0,0,1,4.664-1.1,11.425,11.425,0,0,1,4.943,1.366,10.807,10.807,0,0,1,4.045,3.468,8.483,8.483,0,0,1,1.525,4.481,9.1,9.1,0,0,1-1.116,4.748,9.36,9.36,0,0,1-2.078,2.723,8.348,8.348,0,0,1-2.7,1.633,11.2,11.2,0,0,1-3.236.681,10.5,10.5,0,0,0-3.031.631,6.169,6.169,0,0,0-2.288,1.542,13.68,13.68,0,0,0-2.027,2.907l-.093.18Zm-2.749,9.911a3.049,3.049,0,1,1,4.127-1.286,2.857,2.857,0,0,1-1.086,1.156,3.17,3.17,0,0,1-1.5.479A2.911,2.911,0,0,1,991.2,139.124Z" transform="translate(-529.449 -57.106)" fill="#3076b6"/>
    <path id="Trazado_717379" data-name="Trazado 717379" d="M917.654,137.21l.014-.091a7.8,7.8,0,0,1,.659-2.266,3.559,3.559,0,0,1,1.036-1.266,6.7,6.7,0,0,1,1.428-.785,4.059,4.059,0,0,0,.906-.523,2.912,2.912,0,0,0,.7-.789,2.764,2.764,0,0,0,.381-1.062,2.329,2.329,0,0,0-.957-2.335,2.877,2.877,0,0,0-1.255-.5,2.945,2.945,0,0,0-1.242.074,2.352,2.352,0,0,0-1.091.665,2.868,2.868,0,0,0-.672,1.384l-1.917-.294a4.353,4.353,0,0,1,1.01-2.111,4.078,4.078,0,0,1,1.837-1.158,5.164,5.164,0,0,1,2.319-.143,4.9,4.9,0,0,1,2.246.89,3.858,3.858,0,0,1,1.312,1.7,4.13,4.13,0,0,1,.223,2.2,4.27,4.27,0,0,1-.491,1.474,3.771,3.771,0,0,1-.916,1.1,5.065,5.065,0,0,1-1.286.768,4.766,4.766,0,0,0-1.208.718,2.817,2.817,0,0,0-.753,1,6.22,6.22,0,0,0-.439,1.544l-.014.091Zm.282,4.653a1.382,1.382,0,1,1,1.58-1.159,1.305,1.305,0,0,1-.3.656,1.434,1.434,0,0,1-.572.426A1.319,1.319,0,0,1,917.937,141.863Z" transform="translate(-489.902 -67.381)" fill="#3076b6"/>
    <path id="Trazado_717380" data-name="Trazado 717380" d="M750.626,208.975l-.033-.087a7.879,7.879,0,0,1-.546-2.316,3.588,3.588,0,0,1,.28-1.625,6.786,6.786,0,0,1,.865-1.4,4.053,4.053,0,0,0,.535-.908,2.929,2.929,0,0,0,.221-1.038,2.8,2.8,0,0,0-.193-1.122,2.35,2.35,0,0,0-2-1.574,2.9,2.9,0,0,0-1.348.187,2.973,2.973,0,0,0-1.053.681,2.375,2.375,0,0,0-.627,1.126,2.888,2.888,0,0,0,.1,1.548l-1.829.693a4.39,4.39,0,0,1-.162-2.354,4.111,4.111,0,0,1,1.037-1.928,5.212,5.212,0,0,1,1.965-1.275,4.936,4.936,0,0,1,2.413-.333,3.891,3.891,0,0,1,1.994.838,4.163,4.163,0,0,1,1.287,1.819,4.3,4.3,0,0,1,.3,1.538,3.813,3.813,0,0,1-.259,1.418,5.1,5.1,0,0,1-.748,1.312,4.816,4.816,0,0,0-.7,1.229,2.844,2.844,0,0,0-.165,1.249,6.25,6.25,0,0,0,.38,1.574l.033.087Zm2.556,3.944a1.394,1.394,0,1,1,.811-1.8,1.311,1.311,0,0,1,.066.722,1.447,1.447,0,0,1-.29.657A1.329,1.329,0,0,1,753.183,212.92Z" transform="translate(-398.464 -105.512)" fill="#3076b6"/>
    <path id="Trazado_717381" data-name="Trazado 717381" d="M791.779,157.394l-.011-.058a4.974,4.974,0,0,1-.081-1.5,2.256,2.256,0,0,1,.354-.975,4.242,4.242,0,0,1,.691-.77,2.58,2.58,0,0,0,.433-.5,1.85,1.85,0,0,0,.252-.619,1.759,1.759,0,0,0,.005-.716,1.48,1.48,0,0,0-1.064-1.2,1.826,1.826,0,0,0-.856-.034,1.87,1.87,0,0,0-.728.305,1.492,1.492,0,0,0-.514.628,1.815,1.815,0,0,0-.112.97l-1.21.226a2.76,2.76,0,0,1,.161-1.476,2.585,2.585,0,0,1,.857-1.08,3.276,3.276,0,0,1,1.359-.572,3.1,3.1,0,0,1,1.533.061,2.453,2.453,0,0,1,1.142.741,2.622,2.622,0,0,1,.6,1.271,2.7,2.7,0,0,1,.015.986,2.4,2.4,0,0,1-.318.849,3.225,3.225,0,0,1-.609.73,3.023,3.023,0,0,0-.573.684,1.789,1.789,0,0,0-.242.756,3.938,3.938,0,0,0,.061,1.017l.011.058Zm1.146,2.728a.877.877,0,1,1,.7-1.026.832.832,0,0,1-.039.455.917.917,0,0,1-.253.375A.837.837,0,0,1,792.926,160.123Z" transform="translate(-422.093 -80.229)" fill="#3076b6"/>
    <path id="Trazado_717382" data-name="Trazado 717382" d="M632.968,165.572a18.2,18.2,0,0,1,6.773,11.589c1.2,7.521-1.29,15.708-6.99,20.766s-14.57,6.489-21.268,2.862a6.361,6.361,0,0,0-2.371-.957,5.985,5.985,0,0,0-2.23.441,23.018,23.018,0,0,1-7.439,1.065c.325.008,2.563-7.837,2.746-8.653.55-2.479-.341-3.769-.607-6.273C598.711,159.548,622.85,157.876,632.968,165.572Z" transform="translate(-320.724 -86.446)" fill="#fff"/>
    <path id="Trazado_717383" data-name="Trazado 717383" d="M631.7,184.8v-.065a5.458,5.458,0,0,1,.206-1.64,2.486,2.486,0,0,1,.576-.99,4.7,4.7,0,0,1,.9-.7,2.836,2.836,0,0,0,.569-.462,2.041,2.041,0,0,0,.4-.622,1.943,1.943,0,0,0,.146-.777,1.631,1.631,0,0,0-.92-1.509,2.013,2.013,0,0,0-.923-.2,2.066,2.066,0,0,0-.85.188,1.65,1.65,0,0,0-.681.581,2.009,2.009,0,0,0-.312,1.032l-1.358.008a3.047,3.047,0,0,1,.464-1.572,2.858,2.858,0,0,1,1.143-1,3.62,3.62,0,0,1,1.588-.355,3.43,3.43,0,0,1,1.652.367,2.707,2.707,0,0,1,1.1,1.029,2.893,2.893,0,0,1,.4,1.5,2.977,2.977,0,0,1-.177,1.074,2.651,2.651,0,0,1-.512.86,3.557,3.557,0,0,1-.8.674,3.341,3.341,0,0,0-.756.63,1.98,1.98,0,0,0-.411.774,4.335,4.335,0,0,0-.133,1.117v.065Zm.709,3.187a.968.968,0,1,1,.965-.976.916.916,0,0,1-.132.486,1,1,0,0,1-.348.358A.929.929,0,0,1,632.407,187.983Z" transform="translate(-336.776 -94.538)" fill="#3076b6"/>
    <path id="Trazado_717384" data-name="Trazado 717384" d="M22.746,96.4l-.057-.254a22.056,22.056,0,0,1-.589-6.628,10.022,10.022,0,0,1,1.423-4.386,18.919,18.919,0,0,1,2.949-3.525,11.4,11.4,0,0,0,1.844-2.3,8.2,8.2,0,0,0,1.024-2.785,7.817,7.817,0,0,0-.087-3.182,6.569,6.569,0,0,0-4.907-5.153,8.094,8.094,0,0,0-3.806-.019,8.308,8.308,0,0,0-3.186,1.466A6.636,6.636,0,0,0,15.171,72.5a8.078,8.078,0,0,0-.347,4.324l-5.337,1.19a12.27,12.27,0,0,1,.489-6.579,11.5,11.5,0,0,1,3.637-4.924,14.57,14.57,0,0,1,5.946-2.748,13.805,13.805,0,0,1,6.812.038,10.877,10.877,0,0,1,5.185,3.113,11.644,11.644,0,0,1,2.838,5.548,12.019,12.019,0,0,1,.22,4.375,10.64,10.64,0,0,1-1.282,3.821A14.285,14.285,0,0,1,30.739,84,13.483,13.483,0,0,0,28.3,87.118a7.95,7.95,0,0,0-.955,3.392,17.46,17.46,0,0,0,.427,4.507l.057.254Zm5.507,11.934a3.9,3.9,0,1,1,2.962-4.662,3.679,3.679,0,0,1-.1,2.024,4.052,4.052,0,0,1-1.065,1.705A3.726,3.726,0,0,1,28.253,108.338Z" transform="translate(-4.953 -33.895)" fill="#3076b6"/>
    <path id="Trazado_717385" data-name="Trazado 717385" d="M166.9,94.038l.03-.082a7.411,7.411,0,0,1,1.028-1.984,3.365,3.365,0,0,1,1.195-.987,6.359,6.359,0,0,1,1.472-.468,3.827,3.827,0,0,0,.937-.32,2.75,2.75,0,0,0,.792-.6,2.623,2.623,0,0,0,.549-.918,2.206,2.206,0,0,0-.461-2.345,2.718,2.718,0,0,0-1.075-.691,2.792,2.792,0,0,0-1.168-.159,2.23,2.23,0,0,0-1.136.419,2.713,2.713,0,0,0-.878,1.163l-1.727-.625a4.124,4.124,0,0,1,1.325-1.777,3.865,3.865,0,0,1,1.919-.74,4.894,4.894,0,0,1,2.181.293A4.635,4.635,0,0,1,173.8,85.45a3.652,3.652,0,0,1,.909,1.817,3.909,3.909,0,0,1-.2,2.084,4.034,4.034,0,0,1-.727,1.28,3.573,3.573,0,0,1-1.053.852,4.78,4.78,0,0,1-1.336.478,4.537,4.537,0,0,0-1.254.446,2.668,2.668,0,0,0-.882.789,5.866,5.866,0,0,0-.692,1.354l-.03.082Zm-.591,4.376a1.309,1.309,0,1,1,1.68-.788,1.242,1.242,0,0,1-.395.555,1.362,1.362,0,0,1-.61.292A1.255,1.255,0,0,1,166.307,98.413Z" transform="translate(-88.516 -44.882)" fill="#3076b6"/>
  </g>
</svg>
