<svg xmlns="http://www.w3.org/2000/svg" width="265" height="201.358" viewBox="0 0 265 201.358">
  <g id="Grupo_1026922" data-name="Grupo 1026922" transform="translate(-945 -5656.642)">
    <g id="Grupo_1026945" data-name="Grupo 1026945">
      <g id="Grupo_1026611" data-name="Grupo 1026611" transform="translate(-20 2100.033)">
        <path id="Trazado_717261" data-name="Trazado 717261" d="M256.045,6.946c17.063-1.074,33.043,10.991,40.907,26.4s8.9,33.5,7.566,50.8c-1.55,20.065-6.345,40.492-18.157,56.663-10.291,14.089-25.385,24.1-41.614,30.118s-33.608,8.274-50.873,8.872a166.69,166.69,0,0,1-31.625-1.521c-21.419-3.372-41.515-12.526-60.782-22.6-10.065-5.265-20.115-10.9-28.347-18.793a96.232,96.232,0,0,1-13.794-17.23c-11.581-17.819-19.837-38.59-19.291-59.935S51.148,16.6,69.69,6.522c21.6-11.73,48.245-5.764,71.087,3.216,19.757,7.77,41.525,20.277,63.269,20.272,8.746,0,15.636-6.734,22.927-11.3,8.925-5.58,18.367-11.1,29.077-11.768Z" transform="translate(924.992 3578.02)" fill="#f5f9fd"/>
      </g>
      <g id="Grupo_1026944" data-name="Grupo 1026944" transform="translate(889.8 5589.064)">
        <g id="People" transform="translate(91.497 103.872)">
          <g id="Grupo_1026927" data-name="Grupo 1026927" transform="translate(0 0)">
            <g id="Grupo_1026923" data-name="Grupo 1026923" transform="translate(129.913 13.811)">
              <path id="Trazado_724832" data-name="Trazado 724832" d="M386.588,208.25l-3.4,1.091c-1.018-.416-2.042-.852-3.033-1.331a43.5,43.5,0,0,1-3.949-2.075,28.691,28.691,0,0,1-3.558-2.455,17.22,17.22,0,0,1-1.5-1.4,11.031,11.031,0,0,1-1.163-1.506l-.226-.384-.184-.386c-.128-.287-.263-.654-.394-.976s-.258-.669-.371-1.012-.244-.677-.341-1.028c-.436-1.382-.754-2.812-1.071-4.244-.224-1.052-.394-2.121-.545-3.193l1.5-.513c-.187-3.732-.66-8.483-4.8-10.132a3.473,3.473,0,0,0-.576-.169c-1.032-.3-3.311-.928-5.621-1.4-.472-.1-.949-.19-1.417-.27h0v0c-2.184-.713-2.673-2-2.331-3.959V172.9h0c2.085.7,5.421.427,8.288-.505-1.257-.591-2.46-3.482-1.814-8.937.7-5.888-2.472-8.969-6.418-8.587-.11-.024-.221-.047-.34-.069-7.17-1.326-10.915,2.161-10.018,8.941.72,5.446-.443,8.353-1.692,8.96a16.042,16.042,0,0,0,7.487.617,4.967,4.967,0,0,1-1.444,2.875c-.41-.015-.817-.019-1.225-.022a56.132,56.132,0,0,0-6.044.349c-.136.009-.278.027-.421.05l-.138.017h0c-2.232.407-5.33,6.834-5.33,6.834l1.233,1.1c-.148.216-.3.426-.449.644q-1.317,2.014-2.453,4.151a38.632,38.632,0,0,0-2.014,4.427c-.155.376-.277.772-.416,1.156s-.27.773-.38,1.173-.235.768-.348,1.21l-.159.711-.1.7a15.622,15.622,0,0,0,.429,5.245,28.4,28.4,0,0,0,1.606,4.648,46.408,46.408,0,0,0,2.176,4.268c.672,1.119,1.353,2.2,2.113,3.272a7.777,7.777,0,0,0,1.6,2.884l.6.565a117.54,117.54,0,0,1-3.624,32.769c-1.973,7.973-9.583,24.372-11.864,29.2l-.781-.387-.9,2.993,1.448.665-.725,1.258,0,0-1.537,2.672-.271-.126a.357.357,0,0,0-.456.128l-2.207,3.391a.723.723,0,0,0,.318,1.03c1.614.715,2.429.979,4.449,1.915,1.242.576,3.906,2.033,5.621,2.828,1.678.778,2.594-.858,1.951-1.343a13.691,13.691,0,0,1-4.152-4.525,1.579,1.579,0,0,0,.944.233.6.6,0,0,0,.07-.018.606.606,0,0,0,.4-.44.363.363,0,0,0-.066-.361c-.2-.236-.767-.277-1.271-.262.422-.21.822-.505.89-.79a.373.373,0,0,0-.2-.421.554.554,0,0,0-.47-.06,2.2,2.2,0,0,0-.975.99,1.155,1.155,0,0,0-.252-.165l-.256-.119,2.27-3.945,1.556.714,1.655-2.363-.907-.449c3.223-4.122,15.4-20.262,18.278-32.254,1.531-6.382,3.061-14.528,4.381-22.243a171.162,171.162,0,0,1,2.788,22.3c.335,8.892-1.52,30.164-2.2,37.539l-.42-.022-.556,2.951,2.438.067-.376,1.323h0l-1.042,3.672h-.4a.444.444,0,0,0-.422.325l-1.162,4.229a.665.665,0,0,0,.652.846c1.883.017,2.777.009,5.127.009h7.184c1.953,0,2.362-1.974,1.554-2.154a16.514,16.514,0,0,1-6.24-2.473,6.2,6.2,0,0,0,1.024.1,1.778,1.778,0,0,0,1.044-.25.664.664,0,0,0,.271-.513.308.308,0,0,0-.134-.29c-.275-.186-.981,0-1.606.227.441-.37.817-.8.779-1.09-.015-.111-.091-.25-.365-.282-.891-.105-1.349,1.229-1.485,1.713-.039-.035-.08-.069-.116-.1a1.1,1.1,0,0,0-.757-.293h-.411l1.383-4.872,2.053.056,1.3-2.7-1.338-.068c1.268-6.655,4.846-25.761,6.167-36.437,1.536-12.413-5.444-42.279-6.711-47.544a.2.2,0,0,0,.154-.137l.3-1.619c.021-.112-.114-.22-.294-.234l-.062-.005c1.382-5.652,2.35-10.057,3.023-13.495l.014-.005c.161.89.339,1.778.549,2.663a38.58,38.58,0,0,0,1.4,4.658c.13.385.3.762.448,1.143s.305.76.485,1.134.33.732.536,1.139l.348.639.388.6a15.627,15.627,0,0,0,3.778,3.664,28.468,28.468,0,0,0,4.269,2.44,46.866,46.866,0,0,0,4.448,1.778c1.243.4,2.47.767,3.745,1.07a7.782,7.782,0,0,0,3.1,1.119l3.019-.665,1.143-3.367ZM326.4,291.6a.151.151,0,0,1,.024.16.4.4,0,0,1-.259.3,1.65,1.65,0,0,1-1.137-.371c-.043-.085-.084-.169-.123-.253C325.514,291.386,326.223,291.4,326.4,291.6Zm-.829-1.469.043-.011a.342.342,0,0,1,.253.048c.116.073.118.139.105.19-.066.274-.687.659-1.2.831a1.175,1.175,0,0,0-.084-.115C324.908,290.7,325.247,290.229,325.57,290.132Zm34.494,7.756a.388.388,0,0,1,.21.046.1.1,0,0,1,.04.1.455.455,0,0,1-.187.356,2.973,2.973,0,0,1-2.009.092A6.628,6.628,0,0,1,360.064,297.889Zm-.961-1.069a.613.613,0,0,1,.072,0c.112.013.172.047.179.1.04.293-.8,1.063-1.415,1.4C358.08,297.857,358.464,296.82,359.1,296.82Zm-25.539-93.641a17.178,17.178,0,0,1-.211-2.04,10.936,10.936,0,0,1,.117-1.9l.082-.438.116-.412c.092-.3.232-.664.345-.994s.247-.673.388-1.006.263-.67.421-1c.582-1.327,1.284-2.613,1.989-3.9s1.509-2.528,2.339-3.749c.023-.035.048-.068.071-.1l1.253,1.122s.311-.391.751-1.007c.179,2,.282,3.737.324,5.313a64.47,64.47,0,0,1-.548,9.808l-.023,0a.333.333,0,0,0-.308.113l-.954,1.566c-.074.122.065.263.276.28l.264.021c-1.9,2.66-2.312,5.708-2.358,9.789l-.272-.118c-.49-.98-.967-1.987-1.394-2.994a43.482,43.482,0,0,1-1.606-4.163A28.675,28.675,0,0,1,333.565,203.179Z" transform="translate(-316.921 -154.521)" fill="#407bff"/>
              <path id="Trazado_724833" data-name="Trazado 724833" d="M386.588,208.25l-3.4,1.091c-1.018-.416-2.042-.852-3.033-1.331a43.5,43.5,0,0,1-3.949-2.075,28.691,28.691,0,0,1-3.558-2.455,17.22,17.22,0,0,1-1.5-1.4,11.031,11.031,0,0,1-1.163-1.506l-.226-.384-.184-.386c-.128-.287-.263-.654-.394-.976s-.258-.669-.371-1.012-.244-.677-.341-1.028c-.436-1.382-.754-2.812-1.071-4.244-.224-1.052-.394-2.121-.545-3.193l1.5-.513c-.187-3.732-.66-8.483-4.8-10.132a3.473,3.473,0,0,0-.576-.169c-1.032-.3-3.311-.928-5.621-1.4-.472-.1-.949-.19-1.417-.27h0v0c-2.184-.713-2.673-2-2.331-3.959V172.9h0c2.085.7,5.421.427,8.288-.505-1.257-.591-2.46-3.482-1.814-8.937.7-5.888-2.472-8.969-6.418-8.587-.11-.024-.221-.047-.34-.069-7.17-1.326-10.915,2.161-10.018,8.941.72,5.446-.443,8.353-1.692,8.96a16.042,16.042,0,0,0,7.487.617,4.967,4.967,0,0,1-1.444,2.875c-.41-.015-.817-.019-1.225-.022a56.132,56.132,0,0,0-6.044.349c-.136.009-.278.027-.421.05l-.138.017h0c-2.232.407-5.33,6.834-5.33,6.834l1.233,1.1c-.148.216-.3.426-.449.644q-1.317,2.014-2.453,4.151a38.632,38.632,0,0,0-2.014,4.427c-.155.376-.277.772-.416,1.156s-.27.773-.38,1.173-.235.768-.348,1.21l-.159.711-.1.7a15.622,15.622,0,0,0,.429,5.245,28.4,28.4,0,0,0,1.606,4.648,46.408,46.408,0,0,0,2.176,4.268c.672,1.119,1.353,2.2,2.113,3.272a7.777,7.777,0,0,0,1.6,2.884l.6.565a117.54,117.54,0,0,1-3.624,32.769c-1.973,7.973-9.583,24.372-11.864,29.2l-.781-.387-.9,2.993,1.448.665-.725,1.258,0,0-1.537,2.672-.271-.126a.357.357,0,0,0-.456.128l-2.207,3.391a.723.723,0,0,0,.318,1.03c1.614.715,2.429.979,4.449,1.915,1.242.576,3.906,2.033,5.621,2.828,1.678.778,2.594-.858,1.951-1.343a13.691,13.691,0,0,1-4.152-4.525,1.579,1.579,0,0,0,.944.233.6.6,0,0,0,.07-.018.606.606,0,0,0,.4-.44.363.363,0,0,0-.066-.361c-.2-.236-.767-.277-1.271-.262.422-.21.822-.505.89-.79a.373.373,0,0,0-.2-.421.554.554,0,0,0-.47-.06,2.2,2.2,0,0,0-.975.99,1.155,1.155,0,0,0-.252-.165l-.256-.119,2.27-3.945,1.556.714,1.655-2.363-.907-.449c3.223-4.122,15.4-20.262,18.278-32.254,1.531-6.382,3.061-14.528,4.381-22.243a171.162,171.162,0,0,1,2.788,22.3c.335,8.892-1.52,30.164-2.2,37.539l-.42-.022-.556,2.951,2.438.067-.376,1.323h0l-1.042,3.672h-.4a.444.444,0,0,0-.422.325l-1.162,4.229a.665.665,0,0,0,.652.846c1.883.017,2.777.009,5.127.009h7.184c1.953,0,2.362-1.974,1.554-2.154a16.514,16.514,0,0,1-6.24-2.473,6.2,6.2,0,0,0,1.024.1,1.778,1.778,0,0,0,1.044-.25.664.664,0,0,0,.271-.513.308.308,0,0,0-.134-.29c-.275-.186-.981,0-1.606.227.441-.37.817-.8.779-1.09-.015-.111-.091-.25-.365-.282-.891-.105-1.349,1.229-1.485,1.713-.039-.035-.08-.069-.116-.1a1.1,1.1,0,0,0-.757-.293h-.411l1.383-4.872,2.053.056,1.3-2.7-1.338-.068c1.268-6.655,4.846-25.761,6.167-36.437,1.536-12.413-5.444-42.279-6.711-47.544a.2.2,0,0,0,.154-.137l.3-1.619c.021-.112-.114-.22-.294-.234l-.062-.005c1.382-5.652,2.35-10.057,3.023-13.495l.014-.005c.161.89.339,1.778.549,2.663a38.58,38.58,0,0,0,1.4,4.658c.13.385.3.762.448,1.143s.305.76.485,1.134.33.732.536,1.139l.348.639.388.6a15.627,15.627,0,0,0,3.778,3.664,28.468,28.468,0,0,0,4.269,2.44,46.866,46.866,0,0,0,4.448,1.778c1.243.4,2.47.767,3.745,1.07a7.782,7.782,0,0,0,3.1,1.119l3.019-.665,1.143-3.367ZM326.4,291.6a.151.151,0,0,1,.024.16.4.4,0,0,1-.259.3,1.65,1.65,0,0,1-1.137-.371c-.043-.085-.084-.169-.123-.253C325.514,291.386,326.223,291.4,326.4,291.6Zm-.829-1.469.043-.011a.342.342,0,0,1,.253.048c.116.073.118.139.105.19-.066.274-.687.659-1.2.831a1.175,1.175,0,0,0-.084-.115C324.908,290.7,325.247,290.229,325.57,290.132Zm34.494,7.756a.388.388,0,0,1,.21.046.1.1,0,0,1,.04.1.455.455,0,0,1-.187.356,2.973,2.973,0,0,1-2.009.092A6.628,6.628,0,0,1,360.064,297.889Zm-.961-1.069a.613.613,0,0,1,.072,0c.112.013.172.047.179.1.04.293-.8,1.063-1.415,1.4C358.08,297.857,358.464,296.82,359.1,296.82Zm-25.539-93.641a17.178,17.178,0,0,1-.211-2.04,10.936,10.936,0,0,1,.117-1.9l.082-.438.116-.412c.092-.3.232-.664.345-.994s.247-.673.388-1.006.263-.67.421-1c.582-1.327,1.284-2.613,1.989-3.9s1.509-2.528,2.339-3.749c.023-.035.048-.068.071-.1l1.253,1.122s.311-.391.751-1.007c.179,2,.282,3.737.324,5.313a64.47,64.47,0,0,1-.548,9.808l-.023,0a.333.333,0,0,0-.308.113l-.954,1.566c-.074.122.065.263.276.28l.264.021c-1.9,2.66-2.312,5.708-2.358,9.789l-.272-.118c-.49-.98-.967-1.987-1.394-2.994a43.482,43.482,0,0,1-1.606-4.163A28.675,28.675,0,0,1,333.565,203.179Z" transform="translate(-316.921 -154.521)" fill="#fff" opacity="0.7"/>
            </g>
            <g id="Grupo_1026924" data-name="Grupo 1026924" transform="translate(0 4.341)">
              <path id="Trazado_724834" data-name="Trazado 724834" d="M147.841,184.485c-.032-.248-.089-.524-.14-.786l-.121-.441-.065-.22-.051-.149a38.9,38.9,0,0,0-3.219-7.058l.779-.7c-.01-.1-3.258-8.767-7.423-9.7l-.025,0c-.01,0-.018-.008-.029-.01-1.006-.248-2.63-.619-4.381-.9-.422-.068-.856-.126-1.287-.182-.147-.02-.292-.046-.439-.063h0c-1.637-1.8-1.19-5.941-.538-8.929a1.875,1.875,0,0,0,.212-.054,3.812,3.812,0,0,0,2.21-1.894,1.762,1.762,0,0,0-.628-2.362,8.448,8.448,0,0,1,2.468-3.261c1.574-1.411-.195-4.265-2.163-4.236,0,0,.513-1.512-1.712-3.652s-4.48,1.683-5.187.8-2.2-3.624-4.714-2.169.885,3.795.131,4.537-3.356-.97-3.926,1.655c-.415,1.91,1.616,1.917,3,1.451a2.551,2.551,0,0,0-.011,2.938,14.31,14.31,0,0,0-.179,5.27A5.547,5.547,0,0,0,125.4,159c.009.074.018.148.026.222.022.229.038.457.04.682.028,1.752-.612,3.3-3.184,3.727h0l-.087,0c-.345.006-.691.019-1.027.038a1.082,1.082,0,0,0-.129.01h0a42.317,42.317,0,0,0-5.029.629h0a6.924,6.924,0,0,0-5.255,4.307c-1.376,4.8-2.175,7.825-2.175,7.825l1.26.469c-.006.028-.012.056-.018.083-.306,1.385-.657,2.746-1.033,4.054a20.767,20.767,0,0,1-1.308,3.469c-.115.22-.222.384-.3.5a4.3,4.3,0,0,1-.472.521c-.426.413-.941.877-1.475,1.319-1.077.889-2.215,1.792-3.37,2.679-2.308,1.782-4.667,3.584-6.98,5.425l.035.059-1.8,1.089L91.5,198.6l2.08,3.39,1.646-1.692a23.133,23.133,0,0,0,1.642-2.513c2.7-1.156,5.3-2.429,7.879-3.846,1.324-.739,2.645-1.5,3.959-2.363.66-.437,1.324-.875,2.016-1.436a10.885,10.885,0,0,0,1.124-1.026c.255-.285.471-.563.67-.836a103.162,103.162,0,0,0,.824,10.843h0s-7.665,33.433-8.478,45.732c-.682,10.3-2.4,28.918-3.037,35.772l-.753-.186.052,2.865,1.8.441-.612,4.836a1.528,1.528,0,0,0-.32-.024,2.141,2.141,0,0,0-.271-1.258.7.7,0,0,0-.477-.286c-.26-.036-.367.076-.41.175-.1.244.1.7.362,1.112-.471-.338-1.043-.681-1.347-.6a.3.3,0,0,0-.214.21.536.536,0,0,0,.063.494,1.557,1.557,0,0,0,.913.477c-2.721.679-5.088.222-8.048.149-.71-.017-.662,1.72.949,2.114,2.663.652,4.655,1.009,6.926,1.566,1.942.475,4.153,1.113,5.692,1.518a.588.588,0,0,0,.735-.56l.079-3.677a.353.353,0,0,0-.268-.35l-.441-.108.513-4.056h0l.1-.773,1.773.435,1-2.595-.834-.206c1.438-6.522,5.245-24.186,6.874-35.662.538-3.79,2.279-9.034,3.546-14.714.843-3.77,1.8-7.7,2.754-11.463.531,9.647,1.241,20.164,2.038,25.639,1.521,10.45,4.941,30.608,6.156,37.71l-1.69.115,1.259,2.674,2.658-.226.929,4.773-.281.024a1.017,1.017,0,0,0-.257.07,2.138,2.138,0,0,0-.613-1.138.526.526,0,0,0-.417-.088.312.312,0,0,0-.282.276c-.027.259.248.631.568.941-.437-.165-.934-.3-1.163-.153a.3.3,0,0,0-.141.283.578.578,0,0,0,.24.487,1.22,1.22,0,0,0,.792.139c.045,0,.09-.012.135-.018a10.509,10.509,0,0,1-5.712,2.559c-.7.107-.878,1.809.78,1.809a53.9,53.9,0,0,0,7.183-.782c1.988-.17,3.148-.176,4.729-.284a.594.594,0,0,0,.528-.766l-1.1-3.509a.352.352,0,0,0-.366-.246l-.6.051-.781-4.01h0l-.149-.764,1.995-.17-.221-2.593-.359.024c-.395-6.675-1.567-25.389-2.873-35.538-1.836-14.275-.058-47.168-.058-47.168l0,0c.188-1.64.049-6.48.385-12.828.114-2.165.287-4.511.546-6.961h0c.044-.45.1-.907.152-1.364.873,1.489,1.477,2.472,1.477,2.472l1.7-1.532c.254.413.509.826.753,1.241.632,1.134,1.241,2.269,1.739,3.405l.044.1.013.033a.477.477,0,0,0,.036.065c.02.082.05.15.074.249.048.2.089.442.126.707a13.756,13.756,0,0,1,.1,1.772c0,1.26-.066,2.6-.188,3.948-.231,2.673-.565,5.438-.908,8.154l-2.017,2.5-.07,3.373,4.182.854.889-2.959s1.063-2.151.565-3.495a57.133,57.133,0,0,0,2.467-7.574,37.174,37.174,0,0,0,.832-4.446,19.766,19.766,0,0,0,.149-2.455A11.413,11.413,0,0,0,147.841,184.485ZM101.368,288.667c-.116.037-.229.069-.343.1a1.866,1.866,0,0,1-1.174-.473.35.35,0,0,1-.039-.326.113.113,0,0,1,.083-.085l.027-.005a3.238,3.238,0,0,1,1.447.787Zm.424-.1c-.05.007-.1.013-.149.023-.371-.435-.732-1.105-.636-1.332.006-.015.022-.052.1-.063a.407.407,0,0,1,.111,0,.5.5,0,0,1,.349.211A1.966,1.966,0,0,1,101.792,288.572Zm30.349,3.2a1.529,1.529,0,0,1-1.07-.038.392.392,0,0,1-.159-.335.116.116,0,0,1,.051-.117.266.266,0,0,1,.122-.035,3.343,3.343,0,0,1,1.228.352C132.257,291.653,132.2,291.71,132.14,291.77Zm.362-.338c-.416-.305-.882-.838-.857-1.082,0-.025.009-.082.131-.108a.362.362,0,0,1,.043-.007.341.341,0,0,1,.226.065,2.032,2.032,0,0,1,.546,1.067A1.083,1.083,0,0,0,132.5,291.432Z" transform="translate(-91.497 -138.089)" fill="#407bff"/>
              <path id="Trazado_724835" data-name="Trazado 724835" d="M147.841,184.485c-.032-.248-.089-.524-.14-.786l-.121-.441-.065-.22-.051-.149a38.9,38.9,0,0,0-3.219-7.058l.779-.7c-.01-.1-3.258-8.767-7.423-9.7l-.025,0c-.01,0-.018-.008-.029-.01-1.006-.248-2.63-.619-4.381-.9-.422-.068-.856-.126-1.287-.182-.147-.02-.292-.046-.439-.063h0c-1.637-1.8-1.19-5.941-.538-8.929a1.875,1.875,0,0,0,.212-.054,3.812,3.812,0,0,0,2.21-1.894,1.762,1.762,0,0,0-.628-2.362,8.448,8.448,0,0,1,2.468-3.261c1.574-1.411-.195-4.265-2.163-4.236,0,0,.513-1.512-1.712-3.652s-4.48,1.683-5.187.8-2.2-3.624-4.714-2.169.885,3.795.131,4.537-3.356-.97-3.926,1.655c-.415,1.91,1.616,1.917,3,1.451a2.551,2.551,0,0,0-.011,2.938,14.31,14.31,0,0,0-.179,5.27A5.547,5.547,0,0,0,125.4,159c.009.074.018.148.026.222.022.229.038.457.04.682.028,1.752-.612,3.3-3.184,3.727h0l-.087,0c-.345.006-.691.019-1.027.038a1.082,1.082,0,0,0-.129.01h0a42.317,42.317,0,0,0-5.029.629h0a6.924,6.924,0,0,0-5.255,4.307c-1.376,4.8-2.175,7.825-2.175,7.825l1.26.469c-.006.028-.012.056-.018.083-.306,1.385-.657,2.746-1.033,4.054a20.767,20.767,0,0,1-1.308,3.469c-.115.22-.222.384-.3.5a4.3,4.3,0,0,1-.472.521c-.426.413-.941.877-1.475,1.319-1.077.889-2.215,1.792-3.37,2.679-2.308,1.782-4.667,3.584-6.98,5.425l.035.059-1.8,1.089L91.5,198.6l2.08,3.39,1.646-1.692a23.133,23.133,0,0,0,1.642-2.513c2.7-1.156,5.3-2.429,7.879-3.846,1.324-.739,2.645-1.5,3.959-2.363.66-.437,1.324-.875,2.016-1.436a10.885,10.885,0,0,0,1.124-1.026c.255-.285.471-.563.67-.836a103.162,103.162,0,0,0,.824,10.843h0s-7.665,33.433-8.478,45.732c-.682,10.3-2.4,28.918-3.037,35.772l-.753-.186.052,2.865,1.8.441-.612,4.836a1.528,1.528,0,0,0-.32-.024,2.141,2.141,0,0,0-.271-1.258.7.7,0,0,0-.477-.286c-.26-.036-.367.076-.41.175-.1.244.1.7.362,1.112-.471-.338-1.043-.681-1.347-.6a.3.3,0,0,0-.214.21.536.536,0,0,0,.063.494,1.557,1.557,0,0,0,.913.477c-2.721.679-5.088.222-8.048.149-.71-.017-.662,1.72.949,2.114,2.663.652,4.655,1.009,6.926,1.566,1.942.475,4.153,1.113,5.692,1.518a.588.588,0,0,0,.735-.56l.079-3.677a.353.353,0,0,0-.268-.35l-.441-.108.513-4.056h0l.1-.773,1.773.435,1-2.595-.834-.206c1.438-6.522,5.245-24.186,6.874-35.662.538-3.79,2.279-9.034,3.546-14.714.843-3.77,1.8-7.7,2.754-11.463.531,9.647,1.241,20.164,2.038,25.639,1.521,10.45,4.941,30.608,6.156,37.71l-1.69.115,1.259,2.674,2.658-.226.929,4.773-.281.024a1.017,1.017,0,0,0-.257.07,2.138,2.138,0,0,0-.613-1.138.526.526,0,0,0-.417-.088.312.312,0,0,0-.282.276c-.027.259.248.631.568.941-.437-.165-.934-.3-1.163-.153a.3.3,0,0,0-.141.283.578.578,0,0,0,.24.487,1.22,1.22,0,0,0,.792.139c.045,0,.09-.012.135-.018a10.509,10.509,0,0,1-5.712,2.559c-.7.107-.878,1.809.78,1.809a53.9,53.9,0,0,0,7.183-.782c1.988-.17,3.148-.176,4.729-.284a.594.594,0,0,0,.528-.766l-1.1-3.509a.352.352,0,0,0-.366-.246l-.6.051-.781-4.01h0l-.149-.764,1.995-.17-.221-2.593-.359.024c-.395-6.675-1.567-25.389-2.873-35.538-1.836-14.275-.058-47.168-.058-47.168l0,0c.188-1.64.049-6.48.385-12.828.114-2.165.287-4.511.546-6.961h0c.044-.45.1-.907.152-1.364.873,1.489,1.477,2.472,1.477,2.472l1.7-1.532c.254.413.509.826.753,1.241.632,1.134,1.241,2.269,1.739,3.405l.044.1.013.033a.477.477,0,0,0,.036.065c.02.082.05.15.074.249.048.2.089.442.126.707a13.756,13.756,0,0,1,.1,1.772c0,1.26-.066,2.6-.188,3.948-.231,2.673-.565,5.438-.908,8.154l-2.017,2.5-.07,3.373,4.182.854.889-2.959s1.063-2.151.565-3.495a57.133,57.133,0,0,0,2.467-7.574,37.174,37.174,0,0,0,.832-4.446,19.766,19.766,0,0,0,.149-2.455A11.413,11.413,0,0,0,147.841,184.485ZM101.368,288.667c-.116.037-.229.069-.343.1a1.866,1.866,0,0,1-1.174-.473.35.35,0,0,1-.039-.326.113.113,0,0,1,.083-.085l.027-.005a3.238,3.238,0,0,1,1.447.787Zm.424-.1c-.05.007-.1.013-.149.023-.371-.435-.732-1.105-.636-1.332.006-.015.022-.052.1-.063a.407.407,0,0,1,.111,0,.5.5,0,0,1,.349.211A1.966,1.966,0,0,1,101.792,288.572Zm30.349,3.2a1.529,1.529,0,0,1-1.07-.038.392.392,0,0,1-.159-.335.116.116,0,0,1,.051-.117.266.266,0,0,1,.122-.035,3.343,3.343,0,0,1,1.228.352C132.257,291.653,132.2,291.71,132.14,291.77Zm.362-.338c-.416-.305-.882-.838-.857-1.082,0-.025.009-.082.131-.108a.362.362,0,0,1,.043-.007.341.341,0,0,1,.226.065,2.032,2.032,0,0,1,.546,1.067A1.083,1.083,0,0,0,132.5,291.432Z" transform="translate(-91.497 -138.089)" fill="#fff" opacity="0.7"/>
            </g>
            <g id="Grupo_1026925" data-name="Grupo 1026925" transform="translate(24.468)">
              <path id="Trazado_724836" data-name="Trazado 724836" d="M195.665,293.279l-1.263-4.357a.434.434,0,0,0-.445-.312l-.693.123c-.311-1.3-.747-2.939-1.069-4.123l.579-.08c-3.341-14.357-8.787-37.634-10.289-49.8-1.523-12.35-2.355-40.1-2.482-44.6a5.2,5.2,0,0,0,1.37-.628c.537-.376.644-1.517.544-2.863.315-.041.632-.09.953-.154,4.054-.809,7.04-3.015,6.008-8.967.16-.267.318-.543.467-.838a9.216,9.216,0,0,0,.948-3.071,16.822,16.822,0,0,0,.1-2.623,18.54,18.54,0,0,0-.92-4.984,24.065,24.065,0,0,0-1.962-4.389,28.84,28.84,0,0,0-2.619-3.815c-.479-.594-.977-1.169-1.505-1.724-.263-.278-.531-.555-.813-.825l-.433-.407-.289-.258c-.028-.028-.061-.055-.092-.082l-.13-.116-.008.009c-1.036-.771-3.185-1.04-4.986-1.136a3.98,3.98,0,0,0-.172-2.189c-.342-.863-1.593-.746-2.711-.369-.159.054-.3.1-.437.156a3.514,3.514,0,0,0-.556-2.018c-.044-.085-.077-.169-.115-.254a26.8,26.8,0,0,1,.36-3.982,1.5,1.5,0,0,0,.428-.165,4,4,0,0,0,1.781-2.214,1.907,1.907,0,0,0-.231-1.731c1.037-.863,3.016-2.832,1.339-4.144a1.709,1.709,0,0,0,.143-1.88c0,.31-.4.686-.642.82-.244-.953-1.484-2.591-4.96-3.366-4.276-.953-5.732.753-6.985.111s.651-1.395.651-1.395-2.159-.5-2.856,1.129a3.036,3.036,0,0,0,.966,3.69,5.314,5.314,0,0,0-.474,2.149,1.212,1.212,0,0,0,.337.648,2.012,2.012,0,0,0-.413.514.189.189,0,0,0,.071.258.179.179,0,0,0,.082.024.188.188,0,0,0,.176-.1c.01-.018.022-.031.033-.048a14.09,14.09,0,0,0,.037,5.865,5.125,5.125,0,0,0,1.208,4.253c.947,1.022,1.052,1.576,1.007,2.136a3.691,3.691,0,0,0-1.143-.335c-.73-.112-1.369.906-1.355,1.824a2.862,2.862,0,0,0,.135.864c-.3.066-.6.138-.886.215-.216-.081-.785.139-1.006.211-.011,0-.027.035-.045.091a11.021,11.021,0,0,0-1.078.391,4.3,4.3,0,0,0-1.981,2.233l-.136.127-.41.4c-.266.264-.5.537-.745.808a19.889,19.889,0,0,0-1.323,1.693,21.3,21.3,0,0,0-2.106,3.745,19.4,19.4,0,0,0-1.615,8.552,16.836,16.836,0,0,0,.737,4.276c.2.655.421,1.279.654,1.889.25.6.5,1.192.774,1.763a34.5,34.5,0,0,0,1.786,3.3c.529.863,1.078,1.684,1.694,2.5.01,1.841.569,4.16,1.5,4.549.082.035.165.062.247.092-1.271,5.112-7.921,32.1-9.392,43.014-1.694,12.567-5.04,48.608-5.04,48.608l.341.088c-.054.463-.107.96-.154,1.469a9.157,9.157,0,0,0-1.158-.425c-1.32-.4-1.735.548-1.827,1.57-.109-.5-.347-.986-.861-1.045-.277-.032-.384.087-.425.192-.1.266.143.761.465,1.207-.535-.355-1.17-.7-1.485-.6a.315.315,0,0,0-.207.241.618.618,0,0,0,.115.543,1.716,1.716,0,0,0,.963.485,6.027,6.027,0,0,0,.822.119,22.512,22.512,0,0,1-5.852-.333c-.864-.146-1.34,1.891.557,2.655,1.94.781,5.768,1.739,7.209,2.2,2.343.755,3.3,1.152,5.178,1.707a.742.742,0,0,0,.97-.613l.455-4.514a.434.434,0,0,0-.3-.456l-.681-.143c.245-1.022.5-2.167.71-3.115l.678.174s8.981-34.794,11.38-47.01c.7-3.566,1.87-8.582,3.209-14.016v0c.727-2.953,1.5-6.029,2.282-9.062l.032-.124q.359-1.4.716-2.777l.1-.369.3-1.16.029-.113c.755,9.222,1.783,19.417,2.963,24.842,2.726,12.525,16.293,51.767,16.293,51.767l.689-.1c.178.485.383,1.027.608,1.6-.236.037-.49.086-.766.149-1.245.286-1.241,1.19-.9,2.065a1.543,1.543,0,0,0-.773-.51.617.617,0,0,0-.534.153.316.316,0,0,0-.115.3c.052.328.658.726,1.222,1.031-.545-.074-1.1-.059-1.285.157-.073.086-.129.236.03.466.414.6,1.332.314,1.881.066a13.558,13.558,0,0,1-5.433,2.208c-.856.187-.537,2.255,1.508,2.255,2.091,0,5.112-.53,6.622-.637,2.455-.174,3.5-.165,5.441-.35A.741.741,0,0,0,195.665,293.279Zm-55.581-9.394c.007-.02.031-.08.206-.06a.572.572,0,0,1,.065.011c.616.141.7,1.217.7,1.681C140.562,285.065,139.976,284.163,140.085,283.884Zm-1.143,1.192a.414.414,0,0,1-.076-.368.107.107,0,0,1,.072-.09c.3-.1,1.24.5,1.9,1A2.877,2.877,0,0,1,138.942,285.077Zm34.093-134.12c-.07.028-.142.057-.206.085a12.952,12.952,0,0,1-.172-1.831A2.742,2.742,0,0,1,173.035,150.957Zm-9.134-2.124a4.6,4.6,0,0,1-1.189-3.359,5.474,5.474,0,0,0,5.047,3.593c.014.072.028.145.04.217.038.225.069.45.086.671a3.236,3.236,0,0,1-1.372,3.288,2.062,2.062,0,0,0-1.169-1.72c-.135-.086-.257-.164-.376-.235C165.04,150.643,164.989,150.008,163.9,148.833Zm21.313,140.148a.105.105,0,0,1,.046-.106.413.413,0,0,1,.361-.105c.369.066.872.59,1.37,1.422C186.233,289.842,185.263,289.3,185.213,288.981Zm-.027,1.62a.527.527,0,0,1-.04-.052c-.1-.145-.058-.194-.044-.21.2-.227,1.267-.132,1.9.092C186.587,290.643,185.6,291.078,185.187,290.6Z" transform="translate(-133.953 -130.556)" fill="#407bff"/>
              <path id="Trazado_724837" data-name="Trazado 724837" d="M195.665,293.279l-1.263-4.357a.434.434,0,0,0-.445-.312l-.693.123c-.311-1.3-.747-2.939-1.069-4.123l.579-.08c-3.341-14.357-8.787-37.634-10.289-49.8-1.523-12.35-2.355-40.1-2.482-44.6a5.2,5.2,0,0,0,1.37-.628c.537-.376.644-1.517.544-2.863.315-.041.632-.09.953-.154,4.054-.809,7.04-3.015,6.008-8.967.16-.267.318-.543.467-.838a9.216,9.216,0,0,0,.948-3.071,16.822,16.822,0,0,0,.1-2.623,18.54,18.54,0,0,0-.92-4.984,24.065,24.065,0,0,0-1.962-4.389,28.84,28.84,0,0,0-2.619-3.815c-.479-.594-.977-1.169-1.505-1.724-.263-.278-.531-.555-.813-.825l-.433-.407-.289-.258c-.028-.028-.061-.055-.092-.082l-.13-.116-.008.009c-1.036-.771-3.185-1.04-4.986-1.136a3.98,3.98,0,0,0-.172-2.189c-.342-.863-1.593-.746-2.711-.369-.159.054-.3.1-.437.156a3.514,3.514,0,0,0-.556-2.018c-.044-.085-.077-.169-.115-.254a26.8,26.8,0,0,1,.36-3.982,1.5,1.5,0,0,0,.428-.165,4,4,0,0,0,1.781-2.214,1.907,1.907,0,0,0-.231-1.731c1.037-.863,3.016-2.832,1.339-4.144a1.709,1.709,0,0,0,.143-1.88c0,.31-.4.686-.642.82-.244-.953-1.484-2.591-4.96-3.366-4.276-.953-5.732.753-6.985.111s.651-1.395.651-1.395-2.159-.5-2.856,1.129a3.036,3.036,0,0,0,.966,3.69,5.314,5.314,0,0,0-.474,2.149,1.212,1.212,0,0,0,.337.648,2.012,2.012,0,0,0-.413.514.189.189,0,0,0,.071.258.179.179,0,0,0,.082.024.188.188,0,0,0,.176-.1c.01-.018.022-.031.033-.048a14.09,14.09,0,0,0,.037,5.865,5.125,5.125,0,0,0,1.208,4.253c.947,1.022,1.052,1.576,1.007,2.136a3.691,3.691,0,0,0-1.143-.335c-.73-.112-1.369.906-1.355,1.824a2.862,2.862,0,0,0,.135.864c-.3.066-.6.138-.886.215-.216-.081-.785.139-1.006.211-.011,0-.027.035-.045.091a11.021,11.021,0,0,0-1.078.391,4.3,4.3,0,0,0-1.981,2.233l-.136.127-.41.4c-.266.264-.5.537-.745.808a19.889,19.889,0,0,0-1.323,1.693,21.3,21.3,0,0,0-2.106,3.745,19.4,19.4,0,0,0-1.615,8.552,16.836,16.836,0,0,0,.737,4.276c.2.655.421,1.279.654,1.889.25.6.5,1.192.774,1.763a34.5,34.5,0,0,0,1.786,3.3c.529.863,1.078,1.684,1.694,2.5.01,1.841.569,4.16,1.5,4.549.082.035.165.062.247.092-1.271,5.112-7.921,32.1-9.392,43.014-1.694,12.567-5.04,48.608-5.04,48.608l.341.088c-.054.463-.107.96-.154,1.469a9.157,9.157,0,0,0-1.158-.425c-1.32-.4-1.735.548-1.827,1.57-.109-.5-.347-.986-.861-1.045-.277-.032-.384.087-.425.192-.1.266.143.761.465,1.207-.535-.355-1.17-.7-1.485-.6a.315.315,0,0,0-.207.241.618.618,0,0,0,.115.543,1.716,1.716,0,0,0,.963.485,6.027,6.027,0,0,0,.822.119,22.512,22.512,0,0,1-5.852-.333c-.864-.146-1.34,1.891.557,2.655,1.94.781,5.768,1.739,7.209,2.2,2.343.755,3.3,1.152,5.178,1.707a.742.742,0,0,0,.97-.613l.455-4.514a.434.434,0,0,0-.3-.456l-.681-.143c.245-1.022.5-2.167.71-3.115l.678.174s8.981-34.794,11.38-47.01c.7-3.566,1.87-8.582,3.209-14.016v0c.727-2.953,1.5-6.029,2.282-9.062l.032-.124q.359-1.4.716-2.777l.1-.369.3-1.16.029-.113c.755,9.222,1.783,19.417,2.963,24.842,2.726,12.525,16.293,51.767,16.293,51.767l.689-.1c.178.485.383,1.027.608,1.6-.236.037-.49.086-.766.149-1.245.286-1.241,1.19-.9,2.065a1.543,1.543,0,0,0-.773-.51.617.617,0,0,0-.534.153.316.316,0,0,0-.115.3c.052.328.658.726,1.222,1.031-.545-.074-1.1-.059-1.285.157-.073.086-.129.236.03.466.414.6,1.332.314,1.881.066a13.558,13.558,0,0,1-5.433,2.208c-.856.187-.537,2.255,1.508,2.255,2.091,0,5.112-.53,6.622-.637,2.455-.174,3.5-.165,5.441-.35A.741.741,0,0,0,195.665,293.279Zm-55.581-9.394c.007-.02.031-.08.206-.06a.572.572,0,0,1,.065.011c.616.141.7,1.217.7,1.681C140.562,285.065,139.976,284.163,140.085,283.884Zm-1.143,1.192a.414.414,0,0,1-.076-.368.107.107,0,0,1,.072-.09c.3-.1,1.24.5,1.9,1A2.877,2.877,0,0,1,138.942,285.077Zm34.093-134.12c-.07.028-.142.057-.206.085a12.952,12.952,0,0,1-.172-1.831A2.742,2.742,0,0,1,173.035,150.957Zm-9.134-2.124a4.6,4.6,0,0,1-1.189-3.359,5.474,5.474,0,0,0,5.047,3.593c.014.072.028.145.04.217.038.225.069.45.086.671a3.236,3.236,0,0,1-1.372,3.288,2.062,2.062,0,0,0-1.169-1.72c-.135-.086-.257-.164-.376-.235C165.04,150.643,164.989,150.008,163.9,148.833Zm21.313,140.148a.105.105,0,0,1,.046-.106.413.413,0,0,1,.361-.105c.369.066.872.59,1.37,1.422C186.233,289.842,185.263,289.3,185.213,288.981Zm-.027,1.62a.527.527,0,0,1-.04-.052c-.1-.145-.058-.194-.044-.21.2-.227,1.267-.132,1.9.092C186.587,290.643,185.6,291.078,185.187,290.6Z" transform="translate(-133.953 -130.556)" fill="#fff" opacity="0.65"/>
            </g>
            <g id="Grupo_1026926" data-name="Grupo 1026926" transform="translate(112.639 0.769)">
              <path id="Trazado_724838" data-name="Trazado 724838" d="M350,287.391a32.526,32.526,0,0,1-10.85-2.134L337.4,273.99a.638.638,0,0,0-.472-.517c-1.623-11.557-4.357-30.718-5.8-39.148-2.059-12-11.142-43.571-11.142-43.571.314-1.932.558-3.781.751-5.557a.145.145,0,0,0,.25-.08l.164-1.325a.476.476,0,0,0-.02-.21c-.036-.108-.1-.312-.178-.588.164-1.919.262-3.738.305-5.457.007.031.013.062.02.092a29.237,29.237,0,0,0,.99,3.311,7.377,7.377,0,0,0,.49,1.04,3.636,3.636,0,0,0,.333.475,3.013,3.013,0,0,0,.507.488,3.293,3.293,0,0,0,.3.2c.069.04.16.088.241.126a2.64,2.64,0,0,0,.3.12,2.939,2.939,0,0,0,.393.1,2.847,2.847,0,0,0,.545.044,2.708,2.708,0,0,0,1.182-.3,2.606,2.606,0,0,0,.789-.624,2.658,2.658,0,0,0,.2-.259,2.541,2.541,0,0,0,.141-.236,2.834,2.834,0,0,0,.234-.6,3.473,3.473,0,0,0,.1-.56c.023-.245.024-.392.025-.528a10.32,10.32,0,0,0-.063-1.13c-.029-.319-.067-.609-.118-.893-.183-1.16-.4-2.245-.647-3.337-.4-1.78-.853-3.524-1.33-5.258l1.725-.956a50.579,50.579,0,0,0-4.928-9.291,7.383,7.383,0,0,0-4.187-3.111l0-.011-.02-.006c-.028-.059-.051-.1-.064-.126a.1.1,0,0,0-.042-.044,10.909,10.909,0,0,0-3.335-.742.117.117,0,0,0-.113.156c-.8-.135-1.679-.259-2.571-.341-2.514-.595-3.093-2.156-3.008-3.872.009-.22.032-.443.061-.667.01-.071.021-.142.033-.214a5.206,5.206,0,0,0,5.057-4.2,13.83,13.83,0,0,0,.167-3.977,5.889,5.889,0,0,0,0-3.234l.029.005a.3.3,0,0,0,.341-.385l-.393-1.421a.321.321,0,0,0-.208-.217c-.011-.981-.312-2.667-3.233-4.171-3.889-2-10.644-1.271-11.582,2.193a5.268,5.268,0,0,0,.645,3.552l-.175.058a.311.311,0,0,0-.189.377l.411,1.486a.319.319,0,0,0,.409.22c.121-.043.236-.077.355-.119a11.314,11.314,0,0,0,.638,1.127,1.739,1.739,0,0,0-.4,2.167,3.949,3.949,0,0,0,2.172,1.939,1.608,1.608,0,0,0,.554.1c.6,3,1.057,7.506-.715,9.257-.275.013-.55.031-.825.051a.375.375,0,0,0-.315-.179,27.006,27.006,0,0,0-4,.388.335.335,0,0,0-.261.341c-1.013.164-1.668.3-1.668.3-3.734.546-7.557,13.558-7.557,13.558l.892.493c-.232.893-.454,1.793-.654,2.709a35.429,35.429,0,0,0-.754,4.549c-.025.175-.032.482-.043.726a7.308,7.308,0,0,0,.012.749c.006.251.036.483.063.717a6.653,6.653,0,0,0,.108.687,15.645,15.645,0,0,0,.7,2.508,26.059,26.059,0,0,0,2.1,4.307,41.234,41.234,0,0,0,4.675,6.263,5.308,5.308,0,0,0,1.579,2.515l1.344,3.152.089-.029c.02,10.313-.08,27.541-.878,36.537-.75,8.456-4.763,29.168-7.207,41.327l-.131-.012a.567.567,0,0,0-.614.469l-2.3,13.626-.7,2.759a.767.767,0,0,0,.7.924c1.94.183,2.973.174,5.418.347,1.5.107,4.525.633,6.6.633,2.031,0,2.273-2.054,1.415-2.24a13.173,13.173,0,0,1-6.043-2.626l3.866-12.431a.612.612,0,0,0-.374-.745c3.5-12.309,9.648-34.4,11.232-43.161.975-5.388,1.623-15.516,2.037-24.677.01.033.02.067.03.1q.176.591.352,1.188c.035.115.069.232.1.348q.4,1.365.81,2.751l.038.13c.883,3.012,1.768,6.066,2.6,9v0c1.529,5.4,2.875,10.381,3.7,13.923,1.886,8.09,6.818,26.19,9.9,37.362a.588.588,0,0,0-.244.636l3.02,12.339.175,4.239a.75.75,0,0,0,.881.744c1.9-.369,4.635-.968,7.033-1.391,2.8-.494,5.259-.768,8.547-1.348C350.751,289.548,350.873,287.427,350,287.391ZM294.034,181.53a9.932,9.932,0,0,1-.287-1.69,3.7,3.7,0,0,1-.019-.381,2.666,2.666,0,0,1,0-.353,2.35,2.35,0,0,1,.025-.32c.021-.11.015-.162.054-.337.21-1.172.566-2.486.935-3.783.126-.43.258-.863.389-1.3l1.6.886s.754-1.44,1.709-3.444c.377,4.946.4,9.449.362,12.971a1.431,1.431,0,0,1-.182.093.411.411,0,0,0-.256.4l.036.991a.455.455,0,0,0,.372.429c-.044,2.413-.1,4.185-.025,5.053,0,0,.005.46.012,1.287-.574-1.01-1.157-2.049-1.681-3.088-.643-1.243-1.247-2.493-1.773-3.741A25.255,25.255,0,0,1,294.034,181.53Z" transform="translate(-286.946 -131.89)" fill="#407bff"/>
              <path id="Trazado_724839" data-name="Trazado 724839" d="M350,287.391a32.526,32.526,0,0,1-10.85-2.134L337.4,273.99a.638.638,0,0,0-.472-.517c-1.623-11.557-4.357-30.718-5.8-39.148-2.059-12-11.142-43.571-11.142-43.571.314-1.932.558-3.781.751-5.557a.145.145,0,0,0,.25-.08l.164-1.325a.476.476,0,0,0-.02-.21c-.036-.108-.1-.312-.178-.588.164-1.919.262-3.738.305-5.457.007.031.013.062.02.092a29.237,29.237,0,0,0,.99,3.311,7.377,7.377,0,0,0,.49,1.04,3.636,3.636,0,0,0,.333.475,3.013,3.013,0,0,0,.507.488,3.293,3.293,0,0,0,.3.2c.069.04.16.088.241.126a2.64,2.64,0,0,0,.3.12,2.939,2.939,0,0,0,.393.1,2.847,2.847,0,0,0,.545.044,2.708,2.708,0,0,0,1.182-.3,2.606,2.606,0,0,0,.789-.624,2.658,2.658,0,0,0,.2-.259,2.541,2.541,0,0,0,.141-.236,2.834,2.834,0,0,0,.234-.6,3.473,3.473,0,0,0,.1-.56c.023-.245.024-.392.025-.528a10.32,10.32,0,0,0-.063-1.13c-.029-.319-.067-.609-.118-.893-.183-1.16-.4-2.245-.647-3.337-.4-1.78-.853-3.524-1.33-5.258l1.725-.956a50.579,50.579,0,0,0-4.928-9.291,7.383,7.383,0,0,0-4.187-3.111l0-.011-.02-.006c-.028-.059-.051-.1-.064-.126a.1.1,0,0,0-.042-.044,10.909,10.909,0,0,0-3.335-.742.117.117,0,0,0-.113.156c-.8-.135-1.679-.259-2.571-.341-2.514-.595-3.093-2.156-3.008-3.872.009-.22.032-.443.061-.667.01-.071.021-.142.033-.214a5.206,5.206,0,0,0,5.057-4.2,13.83,13.83,0,0,0,.167-3.977,5.889,5.889,0,0,0,0-3.234l.029.005a.3.3,0,0,0,.341-.385l-.393-1.421a.321.321,0,0,0-.208-.217c-.011-.981-.312-2.667-3.233-4.171-3.889-2-10.644-1.271-11.582,2.193a5.268,5.268,0,0,0,.645,3.552l-.175.058a.311.311,0,0,0-.189.377l.411,1.486a.319.319,0,0,0,.409.22c.121-.043.236-.077.355-.119a11.314,11.314,0,0,0,.638,1.127,1.739,1.739,0,0,0-.4,2.167,3.949,3.949,0,0,0,2.172,1.939,1.608,1.608,0,0,0,.554.1c.6,3,1.057,7.506-.715,9.257-.275.013-.55.031-.825.051a.375.375,0,0,0-.315-.179,27.006,27.006,0,0,0-4,.388.335.335,0,0,0-.261.341c-1.013.164-1.668.3-1.668.3-3.734.546-7.557,13.558-7.557,13.558l.892.493c-.232.893-.454,1.793-.654,2.709a35.429,35.429,0,0,0-.754,4.549c-.025.175-.032.482-.043.726a7.308,7.308,0,0,0,.012.749c.006.251.036.483.063.717a6.653,6.653,0,0,0,.108.687,15.645,15.645,0,0,0,.7,2.508,26.059,26.059,0,0,0,2.1,4.307,41.234,41.234,0,0,0,4.675,6.263,5.308,5.308,0,0,0,1.579,2.515l1.344,3.152.089-.029c.02,10.313-.08,27.541-.878,36.537-.75,8.456-4.763,29.168-7.207,41.327l-.131-.012a.567.567,0,0,0-.614.469l-2.3,13.626-.7,2.759a.767.767,0,0,0,.7.924c1.94.183,2.973.174,5.418.347,1.5.107,4.525.633,6.6.633,2.031,0,2.273-2.054,1.415-2.24a13.173,13.173,0,0,1-6.043-2.626l3.866-12.431a.612.612,0,0,0-.374-.745c3.5-12.309,9.648-34.4,11.232-43.161.975-5.388,1.623-15.516,2.037-24.677.01.033.02.067.03.1q.176.591.352,1.188c.035.115.069.232.1.348q.4,1.365.81,2.751l.038.13c.883,3.012,1.768,6.066,2.6,9v0c1.529,5.4,2.875,10.381,3.7,13.923,1.886,8.09,6.818,26.19,9.9,37.362a.588.588,0,0,0-.244.636l3.02,12.339.175,4.239a.75.75,0,0,0,.881.744c1.9-.369,4.635-.968,7.033-1.391,2.8-.494,5.259-.768,8.547-1.348C350.751,289.548,350.873,287.427,350,287.391ZM294.034,181.53a9.932,9.932,0,0,1-.287-1.69,3.7,3.7,0,0,1-.019-.381,2.666,2.666,0,0,1,0-.353,2.35,2.35,0,0,1,.025-.32c.021-.11.015-.162.054-.337.21-1.172.566-2.486.935-3.783.126-.43.258-.863.389-1.3l1.6.886s.754-1.44,1.709-3.444c.377,4.946.4,9.449.362,12.971a1.431,1.431,0,0,1-.182.093.411.411,0,0,0-.256.4l.036.991a.455.455,0,0,0,.372.429c-.044,2.413-.1,4.185-.025,5.053,0,0,.005.46.012,1.287-.574-1.01-1.157-2.049-1.681-3.088-.643-1.243-1.247-2.493-1.773-3.741A25.255,25.255,0,0,1,294.034,181.53Z" transform="translate(-286.946 -131.89)" fill="#fff" opacity="0.65"/>
            </g>
          </g>
        </g>
        <g id="Character" transform="translate(147.469 96.286)">
          <g id="Grupo_1026930" data-name="Grupo 1026930" transform="translate(0)">
            <path id="Trazado_724840" data-name="Trazado 724840" d="M243.985,401.891h-4.341l.047-10.052h4.341Z" transform="translate(-210.238 -233.674)" fill="#ffb573"/>
            <path id="Trazado_724841" data-name="Trazado 724841" d="M287.957,401.891h-4.341l-1.7-10.052h4.341Z" transform="translate(-228.148 -233.674)" fill="#ffb573"/>
            <path id="Trazado_724842" data-name="Trazado 724842" d="M278.66,408.409h4.877a.357.357,0,0,1,.356.3l.673,3.858a.673.673,0,0,1-.673.772c-1.7-.029-2.523-.129-4.668-.129-1.319,0-4.878.137-6.7.137-1.783,0-1.974-1.8-1.221-1.965,3.379-.732,5.522-1.74,6.638-2.7A1.1,1.1,0,0,1,278.66,408.409Z" transform="translate(-223.476 -240.695)" fill="#263238"/>
            <path id="Trazado_724843" data-name="Trazado 724843" d="M232.491,408.409h4.741a.356.356,0,0,1,.355.3l.674,3.858a.666.666,0,0,1-.662.772c-1.709-.029-4.175-.13-6.324-.13-2.513,0-3.894.137-6.841.137-1.782,0-2.191-1.8-1.437-1.965,3.431-.743,5.411-.822,8.432-2.632A2.092,2.092,0,0,1,232.491,408.409Z" transform="translate(-203.033 -240.695)" fill="#263238"/>
            <path id="Trazado_724844" data-name="Trazado 724844" d="M226.679,173.436l-5.931-1.732S214.7,186.059,212.658,187c-2.782,1.277-8.147,2.154-11.753,2.669a6.258,6.258,0,0,0-1.109,3.021c4.921,1.58,15.35.661,17.381-1.287C221.81,186.959,226.679,173.436,226.679,173.436Z" transform="translate(-193.351 -140.404)" fill="#ffb573"/>
            <path id="Trazado_724845" data-name="Trazado 724845" d="M240.607,166.18c1.686,3.754-3.311,11.728-3.311,11.728l-8.873-3.851a56.307,56.307,0,0,1,4.333-10.726C235.512,158.415,238.757,162.06,240.607,166.18Z" transform="translate(-205.483 -135.855)" fill="#407bff"/>
            <path id="Trazado_724846" data-name="Trazado 724846" d="M240.607,166.18c1.686,3.754-3.311,11.728-3.311,11.728l-8.873-3.851a56.307,56.307,0,0,1,4.333-10.726C235.512,158.415,238.757,162.06,240.607,166.18Z" transform="translate(-205.483 -135.855)" opacity="0.2"/>
            <path id="Trazado_724847" data-name="Trazado 724847" d="M199.32,201.3l-3.219-2.026-1.782,5.29s1.14.534,4.278.014Z" transform="translate(-191.034 -152.087)" fill="#ffb573"/>
            <path id="Trazado_724848" data-name="Trazado 724848" d="M188.619,198.638v3.512L191.9,204.3l1.782-5.29Z" transform="translate(-188.619 -151.816)" fill="#ffb573"/>
            <g id="Grupo_1026928" data-name="Grupo 1026928" transform="translate(29.429 158.167)">
              <path id="Trazado_724849" data-name="Trazado 724849" d="M239.709,391.843l-.025,5.182h4.343l.025-5.182Z" transform="translate(-239.684 -391.843)" opacity="0.2"/>
              <path id="Trazado_724850" data-name="Trazado 724850" d="M286.256,391.843h-4.343l.879,5.182h4.343Z" transform="translate(-257.576 -391.843)" opacity="0.2"/>
            </g>
            <path id="Trazado_724851" data-name="Trazado 724851" d="M237.547,160.123s-5.791,14.916-2.089,39.327h23.217c.33-3.564-1.037-22.758,3.2-39.551a59.414,59.414,0,0,0-7.725-.981,85.255,85.255,0,0,0-9.87,0A44.751,44.751,0,0,0,237.547,160.123Z" transform="translate(-207.941 -134.926)" fill="#407bff"/>
            <path id="Trazado_724852" data-name="Trazado 724852" d="M237.547,160.123s-5.791,14.916-2.089,39.327h23.217c.33-3.564-1.037-22.758,3.2-39.551a59.414,59.414,0,0,0-7.725-.981,85.255,85.255,0,0,0-9.87,0A44.751,44.751,0,0,0,237.547,160.123Z" transform="translate(-207.941 -134.926)" opacity="0.2"/>
            <path id="Trazado_724853" data-name="Trazado 724853" d="M254.67,171.58h-1.787a.145.145,0,0,1-.144-.148,34.553,34.553,0,0,1,.735-6.262.144.144,0,1,1,.28.066,34.11,34.11,0,0,0-.722,6.055h1.5c.059-.779.356-4.588.666-5.855a.144.144,0,0,1,.28.069c-.334,1.36-.665,5.9-.669,5.941A.144.144,0,0,1,254.67,171.58Z" transform="translate(-215.786 -137.589)" fill="#fff"/>
            <path id="Trazado_724854" data-name="Trazado 724854" d="M272.981,166.042c-.518,2.763.038,9.376,2.305,17.017a112.089,112.089,0,0,1,2.534-19.492l0-.033C276.3,163.377,273.475,163.451,272.981,166.042Z" transform="translate(-224.287 -136.922)" opacity="0.2"/>
            <path id="Trazado_724855" data-name="Trazado 724855" d="M260.143,143.008c-.775,3.175-1.271,7.112.849,9.231,0,0-1.43,3.221-7.331,3.221-5.392,0-2.539-3.221-2.539-3.221,3.582-.845,3.606-5.225,3.107-7.692Z" transform="translate(-214.782 -128.246)" fill="#ffb573"/>
            <path id="Trazado_724856" data-name="Trazado 724856" d="M256.09,161.3c.55,2.2,4.168,2.2,4.168,2.2s4.329-1.759,4.166-5.579c0,0-1.019-.622-1.661-1.129C262.763,156.8,262.384,159.771,256.09,161.3Z" transform="translate(-217.206 -134.088)" fill="#fff"/>
            <path id="Trazado_724857" data-name="Trazado 724857" d="M253.061,161.8a4.345,4.345,0,0,1-3.43,1.472s-1.4-.917-.214-4.693a13.077,13.077,0,0,1,1.921-.6S250.769,160.986,253.061,161.8Z" transform="translate(-214.177 -134.59)" fill="#fff"/>
            <path id="Trazado_724858" data-name="Trazado 724858" d="M256.863,144.549a9.543,9.543,0,0,1-.273,5.214,5.871,5.871,0,0,0,1.605-.486c2.041-.942,3.1-2.423,4.225-4.621.1-.562.225-1.114.357-1.647Z" transform="translate(-217.418 -128.246)" opacity="0.2"/>
            <g id="Grupo_1026929" data-name="Grupo 1026929" transform="translate(34.409 10.24)">
              <path id="Trazado_724859" data-name="Trazado 724859" d="M248.421,137.751a3.84,3.84,0,0,0,2,2.312c1.274.6,2.2-.521,2.085-1.875-.1-1.218-.889-3-2.283-3.027A1.932,1.932,0,0,0,248.421,137.751Z" transform="translate(-248.325 -135.161)" fill="#ffb573"/>
              <path id="Trazado_724860" data-name="Trazado 724860" d="M248.421,137.751a3.84,3.84,0,0,0,2,2.312c1.274.6,2.2-.521,2.085-1.875-.1-1.218-.889-3-2.283-3.027A1.932,1.932,0,0,0,248.421,137.751Z" transform="translate(-248.325 -135.161)" opacity="0.2"/>
            </g>
            <path id="Trazado_724861" data-name="Trazado 724861" d="M254.161,124.637a4.473,4.473,0,0,0-1.832,5.559C253.629,133.073,257.115,124.127,254.161,124.637Z" transform="translate(-215.455 -120.453)" fill="#263238"/>
            <path id="Trazado_724862" data-name="Trazado 724862" d="M262.485,130.738c-1.351,4.163-1.935,6.659-4.593,8.366a5.487,5.487,0,0,1-8.509-4.91c.095-3.985,2.289-10.123,6.785-10.914A5.612,5.612,0,0,1,262.485,130.738Z" transform="translate(-214.364 -119.846)" fill="#ffb573"/>
            <path id="Trazado_724863" data-name="Trazado 724863" d="M254.992,122.552c2.812,2.086,5.428,1.778,6.967,1.89.888.064,1.55.334.645,1.43s-.516,3.287-.516,3.287l-1.947,1.971,1.947,1.777,2.873-1.85a7.431,7.431,0,0,1,2.463-3.424c2.348-1.618,1.542-3.743-.7-4.1-3.458-2.707-6.483-7.252-10.36-5.887C254.263,118.384,253.407,121.376,254.992,122.552Z" transform="translate(-216.394 -117.393)" fill="#263238"/>
            <path id="Trazado_724864" data-name="Trazado 724864" d="M255.666,143.274a3.078,3.078,0,0,0,2.262-.723.1.1,0,0,0,.005-.145.1.1,0,0,0-.145,0,2.933,2.933,0,0,1-2.479.613.1.1,0,0,0-.123.081.1.1,0,0,0,.078.12A3.234,3.234,0,0,0,255.666,143.274Z" transform="translate(-216.822 -127.977)" fill="#263238"/>
            <path id="Trazado_724865" data-name="Trazado 724865" d="M270.125,142.726a4.265,4.265,0,0,1-2.922,1.236c-1.431.006-1.705-1.374-.938-2.535.691-1.045,2.268-2.308,3.527-1.757A1.827,1.827,0,0,1,270.125,142.726Z" transform="translate(-221.34 -126.775)" fill="#ffb573"/>
            <path id="Trazado_724866" data-name="Trazado 724866" d="M249.956,229.356s-.588,5.457-1.347,12.857c-.864,8.384-1.94,19.266-2.625,27.561,0,.041-.007.077-.008.112-.131,1.576-.249,3.052-.345,4.4-.972,13.526-3.242,52.889-3.242,52.889h-7.353s-2.771-40.169-2.605-53.938c.159-13.235,2.263-43.884,2.263-43.884Z" transform="translate(-207.179 -164.831)" fill="#263238"/>
            <path id="Trazado_724867" data-name="Trazado 724867" d="M244.29,393.882c.034,0-.129,3.027-.129,3.027h-8.476l-.213-3.324Z" transform="translate(-208.47 -234.415)" fill="#407bff"/>
            <path id="Trazado_724868" data-name="Trazado 724868" d="M257.283,247.2c-.864,8.384-1.94,19.266-2.624,27.561,0,.041-.008.077-.008.112-1.619-7.862-2.121-17.644-1.492-33.746Z" transform="translate(-215.853 -169.819)" opacity="0.2"/>
            <path id="Trazado_724869" data-name="Trazado 724869" d="M250.658,229.356s3.385,31.365,5.5,43.793c2.312,13.61,11.421,54.027,11.421,54.027h7.95s-5.36-39.319-6.407-52.794c-1.137-14.624-3.479-45.027-3.479-45.027Z" transform="translate(-214.905 -164.831)" fill="#263238"/>
            <path id="Trazado_724870" data-name="Trazado 724870" d="M287.313,394.172c.034,0,.276,2.846.276,2.846H278.85l-.637-3.175Z" transform="translate(-226.58 -234.523)" fill="#407bff"/>
            <path id="Trazado_724871" data-name="Trazado 724871" d="M260.061,135.426c-.089.343-.341.583-.561.535s-.327-.366-.238-.709.341-.583.561-.534S260.15,135.083,260.061,135.426Z" transform="translate(-218.537 -124.731)" fill="#263238"/>
            <path id="Trazado_724872" data-name="Trazado 724872" d="M253.438,133.979c-.089.343-.341.583-.561.534s-.327-.365-.238-.709.341-.583.561-.535S253.527,133.635,253.438,133.979Z" transform="translate(-215.731 -124.117)" fill="#263238"/>
            <path id="Trazado_724873" data-name="Trazado 724873" d="M254.33,135.262a13.44,13.44,0,0,1-2.377,2.585,1.918,1.918,0,0,0,1.533.66Z" transform="translate(-215.453 -124.964)" fill="#ed893e"/>
            <path id="Trazado_724874" data-name="Trazado 724874" d="M262.2,133.131a.192.192,0,0,1-.138-.115,1.534,1.534,0,0,0-1.095-.951.2.2,0,0,1-.163-.233.216.216,0,0,1,.24-.175,1.909,1.909,0,0,1,1.4,1.185.215.215,0,0,1-.112.274A.206.206,0,0,1,262.2,133.131Z" transform="translate(-219.204 -123.435)" fill="#263238"/>
            <path id="Trazado_724875" data-name="Trazado 724875" d="M251.592,130.686a.2.2,0,0,1-.078-.044.207.207,0,0,1,0-.292,2.106,2.106,0,0,1,1.763-.715.194.194,0,0,1,.161.235.218.218,0,0,1-.24.174h0a1.681,1.681,0,0,0-1.391.581A.211.211,0,0,1,251.592,130.686Z" transform="translate(-215.241 -122.576)" fill="#263238"/>
            <path id="Trazado_724876" data-name="Trazado 724876" d="M282.643,171.014l-5.485,3.315s6.846,13.4,6.088,15.5c-1.032,2.853-2.6,9.114-4.428,12.26a5.824,5.824,0,0,0,1.776,2.589c4.359-3,9.163-12.646,9.159-15.374C289.742,183.088,282.643,171.014,282.643,171.014Z" transform="translate(-226.133 -140.112)" fill="#ffb573"/>
            <path id="Trazado_724877" data-name="Trazado 724877" d="M277.551,160.669c4.079.6,8.1,14.828,8.1,14.828L276.8,180.37a100.144,100.144,0,0,1-5.11-11.795C269.974,163.309,273.176,160.029,277.551,160.669Z" transform="translate(-223.615 -135.695)" fill="#407bff"/>
            <path id="Trazado_724878" data-name="Trazado 724878" d="M277.551,160.669c4.079.6,8.1,14.828,8.1,14.828L276.8,180.37a100.144,100.144,0,0,1-5.11-11.795C269.974,163.309,273.176,160.029,277.551,160.669Z" transform="translate(-223.615 -135.695)" opacity="0.2"/>
            <path id="Trazado_724879" data-name="Trazado 724879" d="M281.072,408.916a1.269,1.269,0,0,1-.825-.221.591.591,0,0,1-.187-.543.346.346,0,0,1,.19-.291c.487-.245,1.851.614,2,.712a.1.1,0,0,1,.042.1.11.11,0,0,1-.081.083A5.2,5.2,0,0,1,281.072,408.916Zm-.6-.9a.3.3,0,0,0-.135.026.133.133,0,0,0-.07.12.4.4,0,0,0,.122.373,2.063,2.063,0,0,0,1.537.078A3.956,3.956,0,0,0,280.471,408.018Z" transform="translate(-227.36 -240.444)" fill="#407bff"/>
            <path id="Trazado_724880" data-name="Trazado 724880" d="M282.876,408.015a.1.1,0,0,1-.048-.012c-.438-.244-1.261-1.2-1.146-1.68a.356.356,0,0,1,.34-.269.539.539,0,0,1,.432.131c.485.412.528,1.665.53,1.718a.107.107,0,0,1-.051.094A.1.1,0,0,1,282.876,408.015Zm-.792-1.76a.439.439,0,0,0-.047,0c-.135.016-.149.078-.156.1-.068.286.451,1.005.882,1.344a2.372,2.372,0,0,0-.448-1.361A.349.349,0,0,0,282.084,406.255Z" transform="translate(-228.045 -239.695)" fill="#407bff"/>
            <path id="Trazado_724881" data-name="Trazado 724881" d="M235.645,408.917a1.588,1.588,0,0,1-1.041-.267.551.551,0,0,1-.169-.5.346.346,0,0,1,.183-.273c.541-.3,2.244.59,2.437.692a.1.1,0,0,1,.049.106.11.11,0,0,1-.086.087A7.5,7.5,0,0,1,235.645,408.917Zm-.742-.9a.412.412,0,0,0-.194.038.131.131,0,0,0-.07.11.362.362,0,0,0,.108.331,2.748,2.748,0,0,0,1.934.118A5.439,5.439,0,0,0,234.9,408.018Z" transform="translate(-208.028 -240.444)" fill="#407bff"/>
            <path id="Trazado_724882" data-name="Trazado 724882" d="M237.818,408.014a.1.1,0,0,1-.042-.009c-.512-.235-1.506-1.173-1.4-1.665.024-.115.112-.259.4-.286a.71.71,0,0,1,.562.176,2.808,2.808,0,0,1,.594,1.672.109.109,0,0,1-.047.093A.108.108,0,0,1,237.818,408.014Zm-.975-1.76c-.02,0-.041,0-.062,0-.186.019-.2.091-.206.115-.062.3.609,1.032,1.128,1.354a2.3,2.3,0,0,0-.509-1.338A.522.522,0,0,0,236.843,406.254Z" transform="translate(-208.849 -239.695)" fill="#407bff"/>
            <path id="Trazado_724883" data-name="Trazado 724883" d="M278.283,224.365l-4.117-.318,1.959,4.565s3.614.158,4.35-2.607Z" transform="translate(-224.865 -162.582)" fill="#ffb573"/>
            <path id="Trazado_724884" data-name="Trazado 724884" d="M268.168,226.129l1.982,4.038,3.434-1.554-1.959-4.565Z" transform="translate(-222.323 -162.582)" fill="#ffb573"/>
          </g>
        </g>
        <g id="Dartboard" transform="translate(171.846 67.577)">
          <g id="Grupo_1026943" data-name="Grupo 1026943">
            <g id="Grupo_1026941" data-name="Grupo 1026941" transform="translate(7.824)">
              <g id="Grupo_1026933" data-name="Grupo 1026933" transform="translate(9.319 2.017)">
                <g id="Grupo_1026931" data-name="Grupo 1026931">
                  <path id="Trazado_724885" data-name="Trazado 724885" d="M273.294,84c.029-.17.054-.342.077-.514.005-.042.013-.083.018-.126l0-.027q.038-.311.062-.627c.02-.263.029-.523.033-.782,0-.032,0-.065,0-.1s0-.067,0-.1c0-.259,0-.516-.019-.77v-.016c-.015-.259-.04-.513-.071-.766,0-.031,0-.063-.009-.094s-.013-.077-.018-.117c-.018-.134-.04-.268-.062-.4-.013-.073-.024-.147-.038-.22-.029-.151-.061-.3-.1-.45-.012-.05-.021-.1-.033-.152-.048-.2-.1-.392-.157-.584-.013-.045-.029-.088-.043-.133-.046-.148-.093-.293-.144-.437-.008-.021-.013-.043-.021-.064s-.024-.055-.034-.084c-.085-.231-.176-.458-.275-.679-.009-.019-.017-.039-.025-.059-.1-.232-.219-.456-.338-.677-.025-.047-.05-.093-.076-.139-.12-.215-.246-.425-.38-.629l-.065-.1q-.191-.285-.4-.554c-.014-.019-.027-.04-.042-.058l-.023-.028c-.118-.149-.239-.294-.364-.435-.022-.025-.046-.049-.069-.074-.1-.115-.21-.227-.319-.336-.045-.044-.091-.088-.137-.131-.091-.088-.183-.173-.278-.257-.051-.044-.1-.088-.152-.131-.1-.083-.2-.163-.3-.241-.033-.026-.065-.054-.1-.08-.012-.009-.024-.016-.036-.025-.179-.133-.363-.259-.55-.379-.04-.026-.081-.05-.122-.075-.173-.107-.35-.208-.53-.3-.02-.01-.039-.023-.058-.033l-.024-.012q-.259-.131-.528-.246c-.045-.019-.091-.036-.135-.054-.138-.056-.278-.109-.419-.157-.031-.011-.059-.024-.089-.034s-.064-.018-.1-.028c-.122-.039-.246-.075-.371-.109-.059-.016-.118-.033-.177-.048q-.247-.061-.5-.108l-.051-.011h-.007c-.187-.034-.376-.06-.567-.081-.058-.006-.116-.01-.175-.015q-.2-.019-.409-.029l-.092-.006c-.1,0-.2-.005-.3-.005h-1.776c.133,0,.263.006.394.012s.274.016.41.028c.058.005.116.009.174.016.191.021.38.047.568.081l.057.012q.252.047.5.108c.059.014.118.032.177.048q.187.05.37.109l.184.061c.141.049.281.1.419.158.045.018.091.035.135.054q.269.114.528.246l.082.044q.271.141.53.3l.122.075q.282.179.55.379c.046.034.09.07.135.1.1.078.2.158.3.241.051.043.1.088.152.132q.142.125.278.257c.046.044.092.086.136.131.109.109.216.221.32.336.022.025.047.049.069.074q.188.211.364.435c.022.028.043.057.065.085q.208.269.4.554c.022.032.044.063.066.1.133.2.259.414.38.629.025.046.051.092.076.139.119.22.233.445.338.677.009.019.017.039.025.059.1.221.19.448.275.679.018.049.037.1.055.148.051.144.1.29.144.437.014.044.029.088.042.133q.086.289.158.585c.012.05.022.1.033.152.034.149.066.3.095.45.014.073.026.146.038.22q.035.2.062.4c.01.07.018.141.026.211.031.252.056.508.071.766v.016c.014.254.019.511.018.769q0,.1,0,.2c0,.259-.013.519-.033.782q-.023.316-.062.627c-.006.051-.014.1-.021.153-.023.172-.048.344-.077.514-.013.076-.028.152-.042.227q-.041.218-.089.433-.026.118-.054.233-.055.227-.118.451c-.018.065-.035.131-.054.2-.062.212-.127.421-.2.627,0,.01-.008.021-.012.031-.074.212-.154.421-.237.627-.025.063-.052.126-.079.189q-.1.244-.215.482c-.025.054-.05.108-.076.161q-.178.367-.378.719c-.026.048-.055.1-.082.143-.138.239-.281.473-.433.7-.016.025-.034.048-.05.073-.1.15-.206.3-.314.444-.041.056-.084.11-.126.165q-.131.171-.266.337c-.047.057-.093.114-.141.171q-.143.168-.292.331c-.042.046-.082.093-.125.138-.141.15-.285.3-.433.44l-.051.047q-.2.188-.4.367c-.05.044-.1.085-.152.129q-.161.135-.326.264c-.056.044-.112.088-.169.13q-.171.129-.347.25c-.05.035-.1.071-.15.1-.167.112-.335.22-.507.322l-.044.025q-.237.138-.478.264c-.057.029-.115.057-.172.085q-.184.092-.372.176l-.19.083q-.193.081-.388.154c-.056.021-.113.044-.17.064-.186.066-.373.128-.562.182l-.026.007c-.18.051-.363.1-.546.137-.061.013-.123.025-.184.037q-.2.041-.4.073l-.206.029c-.137.018-.274.032-.412.044-.062.005-.124.012-.186.016-.2.013-.4.021-.6.021h1.776c.2,0,.4-.009.6-.021.062,0,.124-.011.186-.016.138-.012.275-.027.413-.044l.206-.029c.135-.021.27-.046.4-.073.062-.012.123-.024.184-.037.183-.041.366-.086.546-.137l.025-.007c.189-.054.376-.116.563-.182.057-.02.113-.043.17-.064.13-.049.259-.1.387-.154l.191-.083c.125-.056.248-.115.372-.176.057-.028.115-.056.171-.085q.242-.126.478-.264l.045-.025c.172-.1.34-.21.507-.322l.15-.1c.117-.081.232-.164.347-.25l.169-.13c.11-.086.218-.174.325-.264.051-.043.1-.085.153-.129q.2-.178.4-.367l.051-.047c.148-.142.291-.29.432-.44.043-.045.084-.092.126-.138.1-.108.2-.218.292-.331.047-.056.094-.112.141-.169.091-.111.18-.224.267-.339.042-.054.084-.108.125-.164q.162-.22.315-.447c.014-.021.029-.04.043-.061l.005-.009c.152-.228.295-.462.433-.7l.082-.143q.2-.353.377-.719c.007-.016.017-.031.024-.047.018-.037.033-.077.051-.115q.112-.238.215-.482c.027-.063.054-.126.08-.189.084-.206.164-.415.237-.626l.01-.026v0c.071-.207.137-.416.2-.628.019-.065.036-.13.054-.2.041-.149.081-.3.117-.451.009-.036.02-.072.028-.108s.016-.084.025-.124q.048-.216.089-.434C273.266,84.151,273.281,84.076,273.294,84Z" transform="translate(-260.663 -71.077)" fill="#407bff"/>
                </g>
                <g id="Grupo_1026932" data-name="Grupo 1026932" opacity="0.3">
                  <path id="Trazado_724886" data-name="Trazado 724886" d="M273.294,84c.029-.17.054-.342.077-.514.005-.042.013-.083.018-.126l0-.027q.038-.311.062-.627c.02-.263.029-.523.033-.782,0-.032,0-.065,0-.1s0-.067,0-.1c0-.259,0-.516-.019-.77v-.016c-.015-.259-.04-.513-.071-.766,0-.031,0-.063-.009-.094s-.013-.077-.018-.117c-.018-.134-.04-.268-.062-.4-.013-.073-.024-.147-.038-.22-.029-.151-.061-.3-.1-.45-.012-.05-.021-.1-.033-.152-.048-.2-.1-.392-.157-.584-.013-.045-.029-.088-.043-.133-.046-.148-.093-.293-.144-.437-.008-.021-.013-.043-.021-.064s-.024-.055-.034-.084c-.085-.231-.176-.458-.275-.679-.009-.019-.017-.039-.025-.059-.1-.232-.219-.456-.338-.677-.025-.047-.05-.093-.076-.139-.12-.215-.246-.425-.38-.629l-.065-.1q-.191-.285-.4-.554c-.014-.019-.027-.04-.042-.058l-.023-.028c-.118-.149-.239-.294-.364-.435-.022-.025-.046-.049-.069-.074-.1-.115-.21-.227-.319-.336-.045-.044-.091-.088-.137-.131-.091-.088-.183-.173-.278-.257-.051-.044-.1-.088-.152-.131-.1-.083-.2-.163-.3-.241-.033-.026-.065-.054-.1-.08-.012-.009-.024-.016-.036-.025-.179-.133-.363-.259-.55-.379-.04-.026-.081-.05-.122-.075-.173-.107-.35-.208-.53-.3-.02-.01-.039-.023-.058-.033l-.024-.012q-.259-.131-.528-.246c-.045-.019-.091-.036-.135-.054-.138-.056-.278-.109-.419-.157-.031-.011-.059-.024-.089-.034s-.064-.018-.1-.028c-.122-.039-.246-.075-.371-.109-.059-.016-.118-.033-.177-.048q-.247-.061-.5-.108l-.051-.011h-.007c-.187-.034-.376-.06-.567-.081-.058-.006-.116-.01-.175-.015q-.2-.019-.409-.029l-.092-.006c-.1,0-.2-.005-.3-.005h-1.776c.133,0,.263.006.394.012s.274.016.41.028c.058.005.116.009.174.016.191.021.38.047.568.081l.057.012q.252.047.5.108c.059.014.118.032.177.048q.187.05.37.109l.184.061c.141.049.281.1.419.158.045.018.091.035.135.054q.269.114.528.246l.082.044q.271.141.53.3l.122.075q.282.179.55.379c.046.034.09.07.135.1.1.078.2.158.3.241.051.043.1.088.152.132q.142.125.278.257c.046.044.092.086.136.131.109.109.216.221.32.336.022.025.047.049.069.074q.188.211.364.435c.022.028.043.057.065.085q.208.269.4.554c.022.032.044.063.066.1.133.2.259.414.38.629.025.046.051.092.076.139.119.22.233.445.338.677.009.019.017.039.025.059.1.221.19.448.275.679.018.049.037.1.055.148.051.144.1.29.144.437.014.044.029.088.042.133q.086.289.158.585c.012.05.022.1.033.152.034.149.066.3.095.45.014.073.026.146.038.22q.035.2.062.4c.01.07.018.141.026.211.031.252.056.508.071.766v.016c.014.254.019.511.018.769q0,.1,0,.2c0,.259-.013.519-.033.782q-.023.316-.062.627c-.006.051-.014.1-.021.153-.023.172-.048.344-.077.514-.013.076-.028.152-.042.227q-.041.218-.089.433-.026.118-.054.233-.055.227-.118.451c-.018.065-.035.131-.054.2-.062.212-.127.421-.2.627,0,.01-.008.021-.012.031-.074.212-.154.421-.237.627-.025.063-.052.126-.079.189q-.1.244-.215.482c-.025.054-.05.108-.076.161q-.178.367-.378.719c-.026.048-.055.1-.082.143-.138.239-.281.473-.433.7-.016.025-.034.048-.05.073-.1.15-.206.3-.314.444-.041.056-.084.11-.126.165q-.131.171-.266.337c-.047.057-.093.114-.141.171q-.143.168-.292.331c-.042.046-.082.093-.125.138-.141.15-.285.3-.433.44l-.051.047q-.2.188-.4.367c-.05.044-.1.085-.152.129q-.161.135-.326.264c-.056.044-.112.088-.169.13q-.171.129-.347.25c-.05.035-.1.071-.15.1-.167.112-.335.22-.507.322l-.044.025q-.237.138-.478.264c-.057.029-.115.057-.172.085q-.184.092-.372.176l-.19.083q-.193.081-.388.154c-.056.021-.113.044-.17.064-.186.066-.373.128-.562.182l-.026.007c-.18.051-.363.1-.546.137-.061.013-.123.025-.184.037q-.2.041-.4.073l-.206.029c-.137.018-.274.032-.412.044-.062.005-.124.012-.186.016-.2.013-.4.021-.6.021h1.776c.2,0,.4-.009.6-.021.062,0,.124-.011.186-.016.138-.012.275-.027.413-.044l.206-.029c.135-.021.27-.046.4-.073.062-.012.123-.024.184-.037.183-.041.366-.086.546-.137l.025-.007c.189-.054.376-.116.563-.182.057-.02.113-.043.17-.064.13-.049.259-.1.387-.154l.191-.083c.125-.056.248-.115.372-.176.057-.028.115-.056.171-.085q.242-.126.478-.264l.045-.025c.172-.1.34-.21.507-.322l.15-.1c.117-.081.232-.164.347-.25l.169-.13c.11-.086.218-.174.325-.264.051-.043.1-.085.153-.129q.2-.178.4-.367l.051-.047c.148-.142.291-.29.432-.44.043-.045.084-.092.126-.138.1-.108.2-.218.292-.331.047-.056.094-.112.141-.169.091-.111.18-.224.267-.339.042-.054.084-.108.125-.164q.162-.22.315-.447c.014-.021.029-.04.043-.061l.005-.009c.152-.228.295-.462.433-.7l.082-.143q.2-.353.377-.719c.007-.016.017-.031.024-.047.018-.037.033-.077.051-.115q.112-.238.215-.482c.027-.063.054-.126.08-.189.084-.206.164-.415.237-.626l.01-.026v0c.071-.207.137-.416.2-.628.019-.065.036-.13.054-.2.041-.149.081-.3.117-.451.009-.036.02-.072.028-.108s.016-.084.025-.124q.048-.216.089-.434C273.266,84.151,273.281,84.076,273.294,84Z" transform="translate(-260.663 -71.077)"/>
                </g>
              </g>
              <g id="Grupo_1026940" data-name="Grupo 1026940">
                <g id="Grupo_1026939" data-name="Grupo 1026939" style="isolation: isolate">
                  <g id="Grupo_1026934" data-name="Grupo 1026934" transform="translate(2.035 4.34)">
                    <path id="Trazado_724887" data-name="Trazado 724887" d="M256.865,75.108c4.487,0,7.813,4.168,7.431,9.3s-4.328,9.3-8.815,9.3-7.809-4.168-7.427-9.308S252.382,75.106,256.865,75.108Zm-1.211,16.279c3.365,0,6.323-3.12,6.61-6.976s-2.207-6.974-5.572-6.976-6.319,3.12-6.606,6.972,2.207,6.978,5.568,6.98" transform="translate(-248.024 -75.108)" fill="#fff"/>
                  </g>
                  <g id="Grupo_1026935" data-name="Grupo 1026935">
                    <path id="Trazado_724888" data-name="Trazado 724888" d="M246.231,73.726l-.474-.328a14.988,14.988,0,0,1,1.389-1.721l.42.395A14.406,14.406,0,0,0,246.231,73.726Zm2.742-2.958-.36-.45a11.883,11.883,0,0,1,7.461-2.741v.576A11.317,11.317,0,0,0,248.973,70.767Z" transform="translate(-245.029 -67.577)" fill="#407bff"/>
                    <path id="Trazado_724889" data-name="Trazado 724889" d="M255.541,71.077c5.609,0,9.763,5.207,9.286,11.628s-5.407,11.626-11.016,11.624-9.759-5.212-9.281-11.633S249.937,71.075,255.541,71.077Zm-1.557,20.929c4.487,0,8.432-4.161,8.815-9.3s-2.944-9.3-7.431-9.3-8.428,4.162-8.811,9.3S249.5,92,253.985,92.006" transform="translate(-244.493 -69.06)" fill="#407bff"/>
                  </g>
                  <g id="Grupo_1026936" data-name="Grupo 1026936" transform="translate(6.109 8.99)">
                    <path id="Trazado_724890" data-name="Trazado 724890" d="M259.514,83.177c2.244,0,3.9,2.086,3.714,4.653s-2.162,4.65-4.405,4.648-3.905-2.082-3.714-4.652S257.275,83.176,259.514,83.177Zm-.519,6.978a2.4,2.4,0,0,0,2.2-2.327,2.008,2.008,0,0,0-1.859-2.324,2.4,2.4,0,0,0-2.2,2.322,2.012,2.012,0,0,0,1.855,2.328" transform="translate(-255.094 -83.177)" fill="#fff"/>
                  </g>
                  <g id="Grupo_1026937" data-name="Grupo 1026937" transform="translate(8.148 11.318)">
                    <path id="Trazado_724891" data-name="Trazado 724891" d="M260.84,87.216A2.008,2.008,0,0,1,262.7,89.54a2.4,2.4,0,0,1-2.2,2.327,2.012,2.012,0,0,1-1.855-2.328A2.4,2.4,0,0,1,260.84,87.216Z" transform="translate(-258.632 -87.216)" fill="#407bff"/>
                  </g>
                  <g id="Grupo_1026938" data-name="Grupo 1026938" transform="translate(4.074 6.667)">
                    <path id="Trazado_724892" data-name="Trazado 724892" d="M258.191,79.146c3.365,0,5.859,3.125,5.572,6.976s-3.245,6.977-6.61,6.976-5.855-3.125-5.568-6.98S254.829,79.145,258.191,79.146Zm-.864,11.624c2.243,0,4.214-2.079,4.405-4.648s-1.47-4.651-3.714-4.653-4.215,2.083-4.405,4.649,1.474,4.651,3.714,4.652" transform="translate(-251.562 -79.146)" fill="#407bff"/>
                  </g>
                </g>
              </g>
            </g>
            <g id="Grupo_1026942" data-name="Grupo 1026942" transform="translate(0 6.016)">
              <path id="Trazado_724893" data-name="Trazado 724893" d="M249.113,87.315a.288.288,0,0,1-.087-.013l-17.364-5.458a.288.288,0,0,1,.173-.55L249.2,86.752a.288.288,0,0,1-.086.563Z" transform="translate(-231.147 -79.4)" fill="#263238"/>
              <path id="Trazado_724894" data-name="Trazado 724894" d="M232.988,80.936a.286.286,0,0,1-.229-.114l-1.783-2.343a.288.288,0,1,1,.458-.349l1.783,2.343a.288.288,0,0,1-.229.463Z" transform="translate(-230.917 -78.016)" fill="#263238"/>
              <path id="Trazado_724895" data-name="Trazado 724895" d="M236.086,81.91a.286.286,0,0,1-.229-.114l-1.783-2.343a.288.288,0,1,1,.458-.349l1.783,2.343a.288.288,0,0,1-.055.4A.291.291,0,0,1,236.086,81.91Z" transform="translate(-232.23 -78.429)" fill="#263238"/>
              <path id="Trazado_724896" data-name="Trazado 724896" d="M239.185,82.884a.288.288,0,0,1-.229-.114l-1.783-2.343a.288.288,0,1,1,.458-.349l1.783,2.343a.288.288,0,0,1-.229.463Z" transform="translate(-233.543 -78.842)" fill="#263238"/>
              <path id="Trazado_724897" data-name="Trazado 724897" d="M231.205,83.881a.288.288,0,0,1-.163-.526l1.783-1.223a.288.288,0,0,1,.327.475l-1.783,1.222A.285.285,0,0,1,231.205,83.881Z" transform="translate(-230.917 -79.739)" fill="#263238"/>
              <path id="Trazado_724898" data-name="Trazado 724898" d="M234.3,84.856a.289.289,0,0,1-.164-.526l1.783-1.222a.288.288,0,0,1,.327.475L234.467,84.8A.291.291,0,0,1,234.3,84.856Z" transform="translate(-232.23 -80.152)" fill="#263238"/>
              <path id="Trazado_724899" data-name="Trazado 724899" d="M237.4,85.829a.288.288,0,0,1-.163-.526l1.783-1.222a.288.288,0,0,1,.326.475l-1.783,1.223A.3.3,0,0,1,237.4,85.829Z" transform="translate(-233.543 -80.565)" fill="#263238"/>
            </g>
          </g>
        </g>
      </g>
    </g>
  </g>
</svg>
