<svg xmlns="http://www.w3.org/2000/svg" width="588.379" height="277.282" viewBox="0 0 588.379 277.282">
  <g id="Group" transform="translate(0 -0.013)">
    <path id="Trazado_716840" data-name="Trazado 716840" d="M1025.721,68.239l14.256,8.1-7.118,2.942,7.775,9.808L1025.02,78.4l7.334-2.785Z" transform="translate(-522.855 -34.802)" fill="#ffa031"/>
    <path id="Trazado_716841" data-name="Trazado 716841" d="M1055.9,53.838l-8.941-13.765,7.662.665-2.391-12.285,8.951,16.666-7.79-.889Z" transform="translate(-534.046 -14.507)" fill="#ffa031"/>
    <path id="Trazado_716842" data-name="Trazado 716842" d="M1138.915,408.69h-17.406l-12-97.657h-5.938l-.216,97.657h-16.843c-3.743-55.374-3.625-90.675-3.312-105.221.073-3.616.167-5.943.206-6.991.02-.424.034-.64.034-.64l7.657-.183,37.4-.9.681,7.4,9.74,106.543Z" transform="translate(-552.462 -150.347)" fill="#265e91"/>
    <g id="Grupo_1013266" data-name="Grupo 1013266" transform="translate(540.74 159.231)" opacity="0.2">
      <path id="Trazado_716843" data-name="Trazado 716843" d="M1114.136,326.464l-.215,97.658h-1.734l-8.426-99.112Z" transform="translate(-1103.76 -325.009)" fill="#782c55"/>
    </g>
    <g id="Grupo_1013267" data-name="Grupo 1013267" transform="translate(530.751 144.402)" opacity="0.2">
      <path id="Trazado_716844" data-name="Trazado 716844" d="M1129.338,302.139c-18.739,2.053-40.687,1.488-45.968,1.313.074-3.616.167-5.943.206-6.99l7.682-.823,37.4-.9Z" transform="translate(-1083.37 -294.741)" fill="#782c55"/>
    </g>
    <path id="Trazado_716845" data-name="Trazado 716845" d="M1148.565,515.542l2.337,16.075s-11.312,1.787-11.312,8.478h30.085l-.607-24.554h-20.5Z" transform="translate(-581.296 -262.968)" fill="#ffa031"/>
    <path id="Trazado_716846" data-name="Trazado 716846" d="M1075.27,515.542l1.132,16.075s-11.312,1.787-11.312,8.478h30.085l.593-24.554Z" transform="translate(-543.294 -262.968)" fill="#ffa031"/>
    <path id="Trazado_716847" data-name="Trazado 716847" d="M1112.411,528.636a4.336,4.336,0,1,0-4.336,4.339A4.341,4.341,0,0,0,1112.411,528.636Z" transform="translate(-563.01 -267.434)" fill="#fff"/>
    <path id="Trazado_716848" data-name="Trazado 716848" d="M1185.887,528.636a4.333,4.333,0,1,0-4.331,4.339A4.337,4.337,0,0,0,1185.887,528.636Z" transform="translate(-600.491 -267.434)" fill="#fff"/>
    <path id="Trazado_716849" data-name="Trazado 716849" d="M1118.749,210.084l2.484,16.832-48.937,1.8.666-13.939.6-12.368,1.328-27.945-9.607-2.552c2.219-14.4,20.277-16.358,20.277-16.358l15.5-2.045s15.917,0,20.9,14.239l-8.887,3.9.348,2.36,5.33,36.066Z" transform="translate(-543.391 -78.299)" fill="#4db1f0"/>
    <g id="Grupo_1013268" data-name="Grupo 1013268" transform="translate(527.993 86.36)" opacity="0.1">
      <path id="Trazado_716850" data-name="Trazado 716850" d="M1077.74,184.634l4.233-8.37,1.239,9.359Z" transform="translate(-1077.74 -176.264)" fill="#d52c55"/>
    </g>
    <g id="Grupo_1013269" data-name="Grupo 1013269" transform="translate(529.57 88.371)" opacity="0.1">
      <path id="Trazado_716851" data-name="Trazado 716851" d="M1126.747,223.784c-8.858-.025-20.826-4.372-20.826-4.372l-24.961,9.069.6-12.368a71.058,71.058,0,0,1,15.261-6.1c13.928-3.99,17.118-29.64,17.118-29.64l2.871,6.359,4.61.989Z" transform="translate(-1080.96 -180.37)" fill="#d52c55"/>
    </g>
    <path id="Trazado_716852" data-name="Trazado 716852" d="M1098.71,220.575s-2.778,1.147-6.766,2.618c-8.314,3.042-20.3,6.01-25.044,4.148-4.669-1.837-2.278-36.265-2.278-36.265l11.6,2.1v23.864l12.85-1.679.549-.117.417.241,8.686,5.087Z" transform="translate(-542.744 -97.46)" fill="#f29e8e"/>
    <g id="Grupo_1013270" data-name="Grupo 1013270" transform="translate(532.867 116.781)" opacity="0.2">
      <path id="Trazado_716853" data-name="Trazado 716853" d="M1110.789,244.7s-2.778,1.147-6.766,2.618l-11.861-4.78-4.473-1.164,5.183-3.009,8.27,1.122.97.124,8.686,5.087Z" transform="translate(-1087.69 -238.361)" fill="#d52c55"/>
    </g>
    <path id="Trazado_716854" data-name="Trazado 716854" d="M1131.478,182.576s6.286,29.948,1.866,36.282c-4.184,6-42.779-6.034-42.779-6.034l-6.158,1.255s-1.053-2.5.083-3.5,6.188-3.608,9-3.5c4.125.158,27.288-.108,27.288-.108l-2.445-19.118,13.149-5.269Z" transform="translate(-552.921 -93.124)" fill="#f29e8e"/>
    <path id="Trazado_716855" data-name="Trazado 716855" d="M1126.1,229.943a50.866,50.866,0,0,1,5-3.4c1.161-.507,8.671-.449,11.17,2.718-3.454,1.114-16.167.674-16.167.674Z" transform="translate(-574.415 -115.43)" fill="#f29e8e"/>
    <path id="Trazado_716856" data-name="Trazado 716856" d="M1077.5,90.955a7.907,7.907,0,0,1-2.944-9.567c2.273-6.375,19.062-13.382,27.832-4.222s5.482,24.08-4.639,25.643S1077.5,90.947,1077.5,90.947Z" transform="translate(-547.827 -37.112)"/>
    <path id="Trazado_716857" data-name="Trazado 716857" d="M1106.694,102.594a3.336,3.336,0,0,1-2.606,2.917l4.5,17.771s-7.687,7.431-15.491,2.045l-.573-5.312s-6.668,1.8-10.131-4.255a13.129,13.129,0,0,1-1.166-3.092,31.717,31.717,0,0,1-.926-5.3,46.6,46.6,0,0,1-.211-6.043s-.122-4.1,2-6.01c2.454,1.9,10.352,2.386,13.958-1.064-1.073,7.8,5.987,8.013,5.987,8.013l-.039-1.637a2.362,2.362,0,0,1,1.96-2.012c1.416-.183,3.243,1.056,2.729,3.981Z" transform="translate(-550.933 -48.069)" fill="#f29e8e"/>
    <path id="Trazado_716860" data-name="Trazado 716860" d="M1087.715,118.01a.568.568,0,1,1-.647-.474A.564.564,0,0,1,1087.715,118.01Z" transform="translate(-554.259 -59.944)" fill="#1c466d"/>
    <path id="Trazado_716861" data-name="Trazado 716861" d="M1101.125,115.261a.568.568,0,1,1-.647-.474A.564.564,0,0,1,1101.125,115.261Z" transform="translate(-561.099 -58.542)" fill="#1c466d"/>
    <path id="Trazado_716862" data-name="Trazado 716862" d="M1127.39,106.209l.578,3.665s1.622-1.579,1.627-2.635S1128.806,105.3,1127.39,106.209Z" transform="translate(-575.073 -53.979)" fill="#f2776c"/>
    <path id="Trazado_716863" data-name="Trazado 716863" d="M1096.582,110.756a.84.84,0,0,1-.823-.7.82.82,0,0,1,.691-.947,4.134,4.134,0,0,0,2.067-1.147.829.829,0,1,1,1.22,1.122,5.74,5.74,0,0,1-3.028,1.663c-.044,0-.093.008-.132.008Z" transform="translate(-558.933 -54.926)" fill="#090909"/>
    <path id="Trazado_716864" data-name="Trazado 716864" d="M1084.623,113.39a4.633,4.633,0,0,1-2-.4.828.828,0,1,1,.745-1.48,4.035,4.035,0,0,0,1.974.174.829.829,0,1,1,.26,1.638,5.941,5.941,0,0,1-.98.075Z" transform="translate(-552.006 -56.829)" fill="#090909"/>
    <path id="Trazado_716865" data-name="Trazado 716865" d="M1113.894,66.918a5.539,5.539,0,0,0,1.886,2.211,7.306,7.306,0,0,0,2.43.84,12.023,12.023,0,0,0,5.375.266,7.121,7.121,0,0,0,5.031-5.1,8.226,8.226,0,0,0-1.626-7.073,9.646,9.646,0,0,0-6.486-3.416,6.566,6.566,0,0,0-2.449.15C1113.057,56.2,1111.788,62.787,1113.894,66.918Z" transform="translate(-567.691 -27.845)"/>
    <path id="Trazado_716866" data-name="Trazado 716866" d="M1088.895,129.767s-.191-3.865,3.253-4.746a5.543,5.543,0,0,1,5.58,2,2.461,2.461,0,0,1-2.1.649,1.63,1.63,0,0,1-2.327.615c-.093,1.48-2.087,1.064-2.415.69-.558,1.114-2.009.79-2.009.79Z" transform="translate(-555.43 -63.68)" fill="#090909"/>
    <path id="Trazado_716867" data-name="Trazado 716867" d="M1091.842,111.605c-.671.133-.847,6.6-.416,7.655s3.008-.249,3.008-.249,1.078.042.921-.881-2.557-.49-2.557-.49l-.965-6.035Z" transform="translate(-556.608 -56.922)" fill="#f2776c"/>
    <path id="Trazado_716868" data-name="Trazado 716868" d="M943.281,133.252c-.3-1.945-1.429-3.657-1.727-5.6-.315-2.062.332-4.14.382-6.226a10.94,10.94,0,0,0-2.259-6.949c-1.021-1.3-2.4-2.46-2.616-4.139-.224-1.712.88-3.358.8-5.087-.166-3.366-4.351-4.746-5.638-7.821-.889-2.145-.2-4.7-.888-6.932a5.515,5.515,0,0,0-5.879-3.8c-2.3.349-4.6,2.178-6.735,1.205-1.121-.515-1.86-1.7-2.931-2.311-1.7-.981-3.8-.332-5.564.507s-3.587,1.887-5.506,1.637c-1.619-.208-3.421-1.272-4.716-.216a3.543,3.543,0,0,0-1.021,2.311,11.787,11.787,0,0,0-.025,3.009,20.4,20.4,0,0,1-1.561,3.466c-.8,1.131-2.042,1.845-2.773,3.017-1.577,2.527-.274,5.86.05,8.877a5.468,5.468,0,0,1-.191,2.46,28.064,28.064,0,0,1-1.636,2.693c-.922,1.829-.507,4.09.1,6.068s1.387,4,1.129,6.067c-.423,3.308-4.841,6.359-3.355,10.831,2.541,7.664,13.636,5.237,17.123,5.935,2.989.6,5.871,1.754,8.877,2.261,6.294,1.047,12.689-.856,18.617-3.358a14.672,14.672,0,0,1,3.8-1.238,5.658,5.658,0,0,0,1.4-.249,3.114,3.114,0,0,0,1.013-.74,6.8,6.8,0,0,0,1.736-5.644Z" transform="translate(-454.192 -43.402)" fill="#ffa031"/>
    <path id="Trazado_716869" data-name="Trazado 716869" d="M864.348,287.194s-10.787,9.576-11.493,9.335c-1.212-.416,2.442-5.27,2.442-5.27s-5.173,4.563-6.087,3.474c-.664-.8,3.529-5.337,3.529-5.337s-5.688,3.865-6.469,2.942c-.839-.989,4.866-5.078,4.866-5.078s-5.556,2.768-5.581,1.38,8.786-5.86,8.786-5.86-3.047-2.942-2-3.857c1.213-1.056,4.5,2.1,4.5,2.1l2.234-1.746,5.265,7.913Z" transform="translate(-431.312 -142.16)" fill="#ffbdb2"/>
    <path id="Trazado_716870" data-name="Trazado 716870" d="M927.316,536.328H901.458l.291-2.136a.625.625,0,0,1,.141-.316c.656-.989,3.6-2.36,6.66-3.574a54.14,54.14,0,0,0,6.137-2.818l-.589-2.8L912,514.725l12.066-6.7,1.918,16.657.88,7.606.183,1.587.282,2.452Z" transform="translate(-459.827 -259.134)" fill="#ffbdb2"/>
    <path id="Trazado_716871" data-name="Trazado 716871" d="M975.7,536.328H949.24l.282-2.136a.99.99,0,0,1,.1-.316,4.658,4.658,0,0,1,1.611-1.587,19.814,19.814,0,0,1,3.886-1.987c3.861-1.529,7.938-2.818,7.938-2.818l-.589-2.8-2.093-9.957,12.066-6.7,1.916,16.657,1.058,9.193Z" transform="translate(-484.2 -259.134)" fill="#ffbdb2"/>
    <g id="Grupo_1013271" data-name="Grupo 1013271" transform="translate(452.168 248.892)" opacity="0.1">
      <path id="Trazado_716872" data-name="Trazado 716872" d="M935.033,508.026l1.918,16.649H925.06l-2.093-9.958Z" transform="translate(-922.967 -508.026)" fill="#d52c55"/>
    </g>
    <g id="Grupo_1013272" data-name="Grupo 1013272" transform="translate(476.175 248.892)" opacity="0.1">
      <path id="Trazado_716873" data-name="Trazado 716873" d="M985.947,524.675H974.063l-2.093-9.958,12.058-6.691Z" transform="translate(-971.97 -508.026)" fill="#d52c55"/>
    </g>
    <path id="Trazado_716874" data-name="Trazado 716874" d="M950.591,410.018s-4.194.075-15.6-.075c-1.81-.017-3.811-.05-6-.083q-4.534-.075-10.23-.183-2.591-.05-5.448-.116c-3.039-.067-6.294-.142-9.79-.224-11.052-33.381-9.774-76.645-8.445-96.187.44-6.508.889-10.39.889-10.39l35.458-11c3.629,4.8,6.2,11.221,8.038,18.1,2.923,10.955,3.986,23.024,4.559,31.386C944.946,354.843,950.591,410.018,950.591,410.018Z" transform="translate(-456.132 -148.816)" fill="#ffa031"/>
    <g id="Grupo_1013273" data-name="Grupo 1013273" transform="translate(447.349 191.406)" opacity="0.1">
      <path id="Trazado_716875" data-name="Trazado 716875" d="M915.283,390.686A250.037,250.037,0,0,0,928.4,460.141q-2.591-.05-5.448-.116c-5.107-19.633-9.641-39.5-9.824-59.738C913.1,396.945,913.274,393.354,915.283,390.686Z" transform="translate(-913.129 -390.686)" fill="#d52c55"/>
    </g>
    <g id="Grupo_1013274" data-name="Grupo 1013274" transform="translate(463.661 176.794)" opacity="0.1">
      <path id="Trazado_716876" data-name="Trazado 716876" d="M961.622,445.192c-1.81-.017-3.812-.05-6-.083-5.115-24.587-9.849-49.365-9.118-74.409.1-3.5.448-7.339,2.906-9.841.349,1.746.689,3.483,1,5.237,3.413,19.359,2.433,39.316,6.079,58.633C957.786,431.644,959.679,438.435,961.622,445.192Z" transform="translate(-946.426 -360.859)" fill="#d52c55"/>
    </g>
    <g id="Grupo_1013275" data-name="Grupo 1013275" transform="translate(438.94 142.931)" opacity="0.1">
      <path id="Trazado_716877" data-name="Trazado 716877" d="M940.351,309.842c-17.911,9.168-37.359,5.228-44.385,3.3.44-6.508.888-10.39.888-10.39l35.458-11.013c3.629,4.8,6.2,11.229,8.038,18.1Z" transform="translate(-895.966 -291.738)" fill="#d52c55"/>
    </g>
    <path id="Trazado_716878" data-name="Trazado 716878" d="M964.779,162.09s-1.984,7.821-4.443,15.809c-2.5,8.137-5.487,16.432-7.373,16.84-6.55,1.421-20.02-7.323-19.837-6.226,0,0-1.029,18.22-.913,21.137.108,2.552,6.809,24.845,6.809,24.845a51.721,51.721,0,0,1-11.974,5.752,34.829,34.829,0,0,1-8.129,1.654c-10.38.731-24.206-.906-25.294-3.1-.465-.931,2.35-22.966,2.01-26.64-.3-3.225-2.01-28.294-.183-34.029a19.747,19.747,0,0,1,12.614-12.609l12.846-1.671c9.807-1.529,26.6,13.557,26.6,13.557l8.916-18.586L964.8,162.1Z" transform="translate(-455.804 -81.008)" fill="#1c466d"/>
    <path id="Trazado_716879" data-name="Trazado 716879" d="M931.482,117.61a3.327,3.327,0,0,1-3.3,2.112l-1.844,16.158s1.112,6.085-8.919,10.457c-6.909-2.552-3.928-8.786-3.928-8.786l.241-6.8s-7.49-.216-9.192-6.982a13.233,13.233,0,0,1-.291-3.291,31.29,31.29,0,0,1,.523-5.362c.573-3.3,2.242-8.412,4.966-11.13,9.467,8.3,17.754,10.465,17.754,10.465a2.365,2.365,0,0,1,2.425-1.413C931.333,113.247,932.769,114.926,931.482,117.61Z" transform="translate(-461.252 -53.037)" fill="#ffbdb2"/>
    <path id="Trazado_716882" data-name="Trazado 716882" d="M912.872,125.84a.569.569,0,1,1-1.13-.133.569.569,0,1,1,1.13.133Z" transform="translate(-465.071 -63.86)" fill="#1c466d"/>
    <path id="Trazado_716883" data-name="Trazado 716883" d="M926.517,126.808a.569.569,0,1,1-.5-.632A.571.571,0,0,1,926.517,126.808Z" transform="translate(-472.032 -64.353)" fill="#1c466d"/>
    <path id="Trazado_716884" data-name="Trazado 716884" d="M953.884,125.254l-.423,3.69s1.985-1.089,2.275-2.1S955.5,124.763,953.884,125.254Z" transform="translate(-486.353 -63.822)" fill="#ffa031"/>
    <path id="Trazado_716885" data-name="Trazado 716885" d="M923.027,121.032a.628.628,0,0,1,.05-1.23,23.329,23.329,0,0,0,4.152-1.114.626.626,0,0,1,.44,1.172,24.719,24.719,0,0,1-4.41,1.189.59.59,0,0,1-.241-.008Z" transform="translate(-470.584 -60.514)"/>
    <path id="Trazado_716886" data-name="Trazado 716886" d="M911.406,121.016a.436.436,0,0,1-.133-.05,22.022,22.022,0,0,1-3.554-2.128.624.624,0,1,1,.839-.923,21.289,21.289,0,0,0,3.263,1.929.627.627,0,0,1-.423,1.172Z" transform="translate(-462.916 -60.058)"/>
    <path id="Trazado_716887" data-name="Trazado 716887" d="M916.064,129.133c.066.64,2.018.815,2.067.233s-.382-3.931-.7-4.148S915.972,128.319,916.064,129.133Z" transform="translate(-467.275 -63.861)" fill="#ffa031"/>
    <path id="Trazado_716888" data-name="Trazado 716888" d="M914.882,138.751s2.956-1.862,5.315-.648Z" transform="translate(-466.674 -70.229)" fill="#fff"/>
    <path id="Trazado_716889" data-name="Trazado 716889" d="M1021.82,143.159s.225-5.469,1.842-7.473,3.8-4.821,4.527-4.505,0,4.322,0,4.322,5-6.941,6.134-7.3,1.5,1.056,1.5,1.056l-1.1,1.862s1.636-.565,1.823.175-1.1,2.568-1.1,2.568a2.235,2.235,0,0,1,.181,2.718c-.911,1.638-5.463,9.842-5.463,9.842l-8.372-3.283Z" transform="translate(-521.213 -65.361)" fill="#ffbdb2"/>
    <path id="Trazado_716890" data-name="Trazado 716890" d="M951.322,563.243H901.458l.291-2.136a.625.625,0,0,1,.141-.316h49.153Z" transform="translate(-459.827 -286.049)" fill="#1c466d"/>
    <path id="Trazado_716891" data-name="Trazado 716891" d="M921.933,550l2.9,5.752h1.993l-2.964-6.667S922.174,549.167,921.933,550Z" transform="translate(-470.271 -280.077)" fill="#1c466d"/>
    <path id="Trazado_716892" data-name="Trazado 716892" d="M968.885,550l2.9,5.752h1.993l-2.964-6.667S969.126,549.167,968.885,550Z" transform="translate(-494.221 -280.077)" fill="#1c466d"/>
    <path id="Trazado_716893" data-name="Trazado 716893" d="M890.1,238.361l-19.157,20.722,5.854,9.068,18.319-15.975" transform="translate(-444.264 -121.58)" fill="#1c466d"/>
    <g id="Grupo_1013276" data-name="Grupo 1013276" transform="translate(468.275 96.891)" opacity="0.1">
      <path id="Trazado_716894" data-name="Trazado 716894" d="M992.095,197.761c-2.5,8.129-5.492,16.424-7.373,16.832-6.555,1.421-20.023-7.323-19.84-6.226,0,0-1.029,18.22-.913,21.137.108,2.552,6.809,24.845,6.809,24.845A51.719,51.719,0,0,1,958.8,260.1c-8.279-23.473,3.438-60.021,3.438-60.021s10.388,5.3,17.1,6.5c6.619,1.18,12.591-8.52,12.762-8.811Z" transform="translate(-955.843 -197.761)" fill="#d52c55"/>
    </g>
    <path id="Trazado_716895" data-name="Trazado 716895" d="M928.329,201.352a1.787,1.787,0,1,0-1.785-1.787A1.786,1.786,0,0,0,928.329,201.352Z" transform="translate(-472.623 -100.879)" fill="#fff"/>
    <path id="Trazado_716896" data-name="Trazado 716896" d="M928.329,218.3a1.787,1.787,0,1,0-1.785-1.787A1.786,1.786,0,0,0,928.329,218.3Z" transform="translate(-472.623 -109.524)" fill="#fff"/>
    <path id="Trazado_716897" data-name="Trazado 716897" d="M485.476,122.481s-9.541,3.317-12.838-4.148c-3.346-7.573,4.974-11.2,4.418-15.834s-3.313-14.712,4.417-16.233c-.415-5.527,18.751-11.055,25.253-3.591,4.841-1.662,8.844,10.922,2.5,15.618,2.624,6.217,6.9,19.591.274,23.132s-15.869.5-15.869.5" transform="translate(-240.683 -40.319)" fill="#181b1c"/>
    <path id="Trazado_716898" data-name="Trazado 716898" d="M459.024,536.579h-9.575l2.491-17.339h14.316Z" transform="translate(-229.261 -264.854)" fill="#4db1f0"/>
    <path id="Trazado_716899" data-name="Trazado 716899" d="M474.412,553.435c.058,1.887-1.187,2.178-1.187,2.178H446.6l.124-2.178.755-4.871s7.532,1.147,13.477-2.6c3.239,1.512,12.622,3.873,13.228,6.034a5.813,5.813,0,0,1,.232,1.438Z" transform="translate(-227.808 -278.485)" fill="#265e91"/>
    <path id="Trazado_716900" data-name="Trazado 716900" d="M474.412,561.215c.058,1.887-1.187,2.178-1.187,2.178H446.6l.124-2.178Z" transform="translate(-227.808 -286.265)" fill="#c8d0df"/>
    <path id="Trazado_716901" data-name="Trazado 716901" d="M470.35,545.57s-1.37-3.682-.515-5.054,4.111-1.288,4.625-.34,0,4.887,0,4.887" transform="translate(-239.516 -275.175)" fill="#265e91"/>
    <path id="Trazado_716902" data-name="Trazado 716902" d="M558.783,536.579h-9.566l-.83-17.339h14.308Z" transform="translate(-279.728 -264.854)" fill="#4db1f0"/>
    <path id="Trazado_716903" data-name="Trazado 716903" d="M575.027,553.435c.058,1.887-1.188,2.178-1.188,2.178H547.217l.125-2.178.755-4.871s7.532,1.147,13.477-2.6c3.239,1.512,12.622,3.873,13.228,6.034a5.812,5.812,0,0,1,.232,1.438Z" transform="translate(-279.131 -278.485)" fill="#265e91"/>
    <path id="Trazado_716904" data-name="Trazado 716904" d="M575.027,561.215c.058,1.887-1.188,2.178-1.188,2.178H547.217l.125-2.178Z" transform="translate(-279.131 -286.265)" fill="#c8d0df"/>
    <path id="Trazado_716905" data-name="Trazado 716905" d="M570.966,545.57s-1.37-3.682-.515-5.054,4.11-1.288,4.625-.34,0,4.887,0,4.887" transform="translate(-290.84 -275.175)" fill="#265e91"/>
    <path id="Trazado_716906" data-name="Trazado 716906" d="M518.22,393.944c-.017,6.326-.191,11.312-.233,14.812,0,0-5.439,2.76-23.218,2-.092-4-.216-7.863-.349-11.6-1.96-52.324-7.9-79.712-7.9-79.712h-2.076l-10.687,78.8-1.694,12.518s-5.9,2.419-22.346,0c.465-4.247.88-8.154,1.254-11.77,3.355-32.724,3.214-42.89,6.734-86.054.274-3.424.573-7.057.905-10.93,0,0,30.916-7.323,47.806,1.513.673,2.552,1.3,5.071,1.91,7.548A342.016,342.016,0,0,1,518.22,393.944Z" transform="translate(-229.399 -152.591)" fill="#ffa031"/>
    <path id="Trazado_716907" data-name="Trazado 716907" d="M516.647,311.065a98.551,98.551,0,0,1-27.7,3.641,201.082,201.082,0,0,1-22.919-1.771c.274-3.424.573-7.057.905-10.93,0,0,30.916-7.323,47.806,1.513C515.41,306.07,516.041,308.588,516.647,311.065Z" transform="translate(-237.716 -152.591)" fill="#ffa144"/>
    <path id="Trazado_716908" data-name="Trazado 716908" d="M465.4,198.486l-2.184,41.385s18.086,4.414,33.307,3.375,19.257-3.375,19.257-3.375l-5.456-52.091s3.9-20.581-22.521-18.154-22.412,28.859-22.412,28.859Z" transform="translate(-236.281 -86.417)" fill="#eef0ed"/>
    <path id="Trazado_716909" data-name="Trazado 716909" d="M464.948,166.54s-11.011.15-18.767,7.19-15.089,41.576-15.089,41.576l14.175,2.145,11.343-44.045s5.663-5.677,17.164-5.137,15.8,5.968,15.8,5.968l9.716,41.078,14.174-2.66s-10.3-33.722-14.706-39.249c-5.082-6.359-20.054-8.42-33.806-6.858Z" transform="translate(-219.897 -84.694)" fill="#1c466d"/>
    <path id="Trazado_716910" data-name="Trazado 716910" d="M493.057,116.794c.623,1.928,3.122,2.36,3.122,2.36l-.73,19.4a10.465,10.465,0,0,0,14.05-.715l-1.038-7.182s8.736,1.022,10.978-5.594a13.578,13.578,0,0,0,.556-3.258,31.36,31.36,0,0,0-.1-5.386c-.307-3.333-2.026-10.872-2.026-10.872s-4.6,2.311-17.8,1.056c1.055,6.467-2.765,7.348-2.765,7.348a2.387,2.387,0,0,0-2.309-1.6c-1.428.091-2.84,1.6-1.926,4.43Z" transform="translate(-251.361 -53.833)" fill="#e89ea5"/>
    <path id="Trazado_716913" data-name="Trazado 716913" d="M540.539,122.324a.569.569,0,1,0,.548-.59A.568.568,0,0,0,540.539,122.324Z" transform="translate(-275.725 -62.089)" fill="#1c466d"/>
    <path id="Trazado_716914" data-name="Trazado 716914" d="M523.436,123.41a.569.569,0,1,0,.548-.59A.568.568,0,0,0,523.436,123.41Z" transform="translate(-267.001 -62.643)" fill="#1c466d"/>
    <path id="Trazado_716915" data-name="Trazado 716915" d="M497.291,122.37l.125,3.708a2.425,2.425,0,0,1-2.1-2.269C495.29,122.761,495.722,121.755,497.291,122.37Z" transform="translate(-252.656 -62.318)" fill="#a35563"/>
    <path id="Trazado_716916" data-name="Trazado 716916" d="M524.24,118.966a.6.6,0,0,0,.39-1.139,4.361,4.361,0,0,1-1.96-1.588.611.611,0,0,0-.83-.183.6.6,0,0,0-.183.831A5.6,5.6,0,0,0,524.24,118.966Z" transform="translate(-266.044 -59.147)" fill="#181b1c"/>
    <path id="Trazado_716917" data-name="Trazado 716917" d="M538.969,118.373a5.349,5.349,0,0,0,2.475-1.43.6.6,0,1,0-.93-.765,4.245,4.245,0,0,1-1.852,1.031.6.6,0,0,0,.3,1.164Z" transform="translate(-274.538 -59.144)" fill="#181b1c"/>
    <path id="Trazado_716918" data-name="Trazado 716918" d="M534.466,125.191c.224.64-1.038,1.513-1.619,1.472s-1.919-.724-1.919-1.272,1.071-4.364,1.777-4.455,1.594,3.8,1.752,4.255Z" transform="translate(-270.822 -61.681)" fill="#d28492"/>
    <path id="Trazado_716919" data-name="Trazado 716919" d="M528.267,134.829s2.8-.947,3.77,1.3A23.806,23.806,0,0,1,528.267,134.829Z" transform="translate(-269.465 -68.668)" fill="#fff"/>
    <path id="Trazado_716920" data-name="Trazado 716920" d="M431.664,254.768s-3.57,2.228-1.337,5.785c2.333,3.7,19.822,5.918,14.848-3.1" transform="translate(-219.132 -129.949)" fill="#1c466d"/>
    <path id="Trazado_716921" data-name="Trazado 716921" d="M569.9,253.315s-3.13,3.383-1.254,6.882,9.815,1.887,13.777-.648,1.486-8.387-3.637-7.548" transform="translate(-289.756 -128.496)" fill="#1c466d"/>
    <path id="Trazado_716922" data-name="Trazado 716922" d="M433.787,261.553l1.661,25.052s-.207,10.623,1.046,10.839,1.461-4.115,1.461-4.115.59,6.425,2.176,6.209,1.461-6.209,1.461-6.209.332,6.858,2.417,6.425,0-10.448,0-10.448,1.694,3.333,2.724,2.285-1.479-7.68-1.479-7.68l.839-21.6S439.425,259.308,433.787,261.553Z" transform="translate(-221.271 -132.985)" fill="#ac5860"/>
    <path id="Trazado_716923" data-name="Trazado 716923" d="M585.187,261.27l-.839,25.094s.557,10.614-.689,10.864-1.594-4.064-1.594-4.064-.382,6.442-1.968,6.275-1.661-6.159-1.661-6.159-.108,6.866-2.209,6.5-.34-10.44-.34-10.44-1.586,3.383-2.649,2.378,1.221-7.73,1.221-7.73l-1.545-21.561s6.568-3.225,12.273-1.164Z" transform="translate(-292.239 -132.91)" fill="#ac5860"/>
    <path id="Trazado_716924" data-name="Trazado 716924" d="M499.859,93.381s12.232-9.4,21.308-4.422C514.682,82.493,504,84.4,499.859,93.381Z" transform="translate(-254.974 -43.42)" fill="#ffa031"/>
    <path id="Trazado_716925" data-name="Trazado 716925" d="M473.76,499.043l-1.694,12.509s-5.9,2.419-22.346,0c.465-4.247.88-8.154,1.254-11.77.805-1.471,1.81-2.444,3.072-2.394,4.941.2,5.4,10.382,5.4,10.382s2.558-10.806,6.12-11.014,4.194,10.166,4.194,10.166S471.269,501.7,473.76,499.043Z" transform="translate(-229.399 -253.384)" fill="#ffa144"/>
    <path id="Trazado_716926" data-name="Trazado 716926" d="M564.762,492.637c-.017,6.326-.191,11.312-.233,14.812,0,0-5.439,2.76-23.218,2-.092-4-.216-7.863-.349-11.6.639-1.629,1.5-2.776,2.657-2.976,4.783-.831,8.138,10.8,8.138,10.8s-.805-12.052,2.989-12.875,4.16,9.974,4.16,9.974S560.842,494.482,564.762,492.637Z" transform="translate(-275.941 -251.284)" fill="#ffa144"/>
    <path id="Trazado_716927" data-name="Trazado 716927" d="M559.844,15.325a12.216,12.216,0,0,0,2.325,9.21c2.691,3.3,7.225,4.513,11.476,4.563A21.581,21.581,0,0,0,586,25.707a14.744,14.744,0,0,0,6.577-10.739c.507-6.7-4.924-13.025-11.468-14.513a17.546,17.546,0,0,0-21.266,14.878Z" transform="translate(-285.513 0)" fill="#1c466d"/>
    <path id="Trazado_716928" data-name="Trazado 716928" d="M575.282,55.43c1.677,7.007-1.852,11.18-5.606,12.559,6.842-1.77,12.281-5.012,13.228-13.341" transform="translate(-290.588 -27.87)" fill="#1c466d"/>
    <path id="Trazado_716929" data-name="Trazado 716929" d="M577.359,20.047a4.358,4.358,0,0,0,1.553,3.258,4.144,4.144,0,0,0,2.666.665c.855-.042,1.885-.191,2.417.49.44.565.257,1.4.556,2.045a2.377,2.377,0,0,0,2.018,1.13,7.658,7.658,0,0,0,5.066-1.371A2.575,2.575,0,0,0,592.6,23.8c-.174-.765-.8-1.413-.789-2.194.008-.756.589-1.355.971-2.011.83-1.421.507-2.884-.033-4.331a6.537,6.537,0,0,0-3.413-3.732,8.2,8.2,0,0,0-4.858-.283c-1.777.357-3.862.964-4.941,2.527a9.843,9.843,0,0,0-2.167,6.284Z" transform="translate(-294.5 -5.611)" fill="#fff"/>
    <path id="Trazado_716930" data-name="Trazado 716930" d="M582.188,27.246a3.4,3.4,0,0,0,1.478.441,2.939,2.939,0,0,0,1.4-.125,2.208,2.208,0,0,0,1.3-2.2,3.083,3.083,0,0,0-3.38-2.668C580.876,23.007,580.469,26.157,582.188,27.246Z" transform="translate(-296.423 -11.554)" fill="#1c466d"/>
    <path id="Trazado_716931" data-name="Trazado 716931" d="M596.678,18.931a3.187,3.187,0,0,0,.282,1.413,1.705,1.705,0,0,0,1.055.923,1.867,1.867,0,0,0,.83.008,3.065,3.065,0,0,0,1.752-.889,2.752,2.752,0,0,0,.656-2.161,3.3,3.3,0,0,0-1.079-2c-.673-.615-1.86-.981-2.533-.15a4.651,4.651,0,0,0-.963,2.851Z" transform="translate(-304.361 -7.945)" fill="#1c466d"/>
    <path id="Trazado_716932" data-name="Trazado 716932" d="M594.729,29.729a.9.9,0,0,0,.116.507.406.406,0,0,0,.44.2.432.432,0,0,0,.266-.283,1.243,1.243,0,0,0,.049-.391,1.491,1.491,0,0,0,.532.116.494.494,0,0,0,.44-.274.608.608,0,0,0-.2-.59c-.233-.249-.905-.756-1.287-.582C594.745,28.59,594.729,29.422,594.729,29.729Z" transform="translate(-303.367 -14.478)" fill="#1c466d"/>
    <path id="Trazado_716933" data-name="Trazado 716933" d="M715.279,127.859a10.508,10.508,0,0,0-2.5,5.037,58.235,58.235,0,0,0-1.976,17.1c.133,4.131.772,8.42,3.1,11.844.315.457.739.947,1.3.947.731,0,1.163-.79,1.429-1.471Q721.57,148.821,725.61,136" transform="translate(-362.559 -65.213)"/>
    <path id="Trazado_716934" data-name="Trazado 716934" d="M754.8,541.534l26.631-7.481-1.038-3.1-4.343-12.917-11.269,4.505,2.085,6.417s-3.579,2.344-6.884,4.862a33.661,33.661,0,0,0-4.808,4.214c-.473.565-.73,1.039-.681,1.363l.3,2.136Z" transform="translate(-384.858 -264.24)" fill="#ffbdb2"/>
    <path id="Trazado_716935" data-name="Trazado 716935" d="M668.605,548.219h27.661l-.166-3.266-.689-13.615-12.065,1.288.274,6.749s-4.069,1.3-7.938,2.818a32.765,32.765,0,0,0-5.763,2.76c-.606.424-.988.806-1.03,1.13l-.291,2.136Z" transform="translate(-341.046 -271.025)" fill="#ffbdb2"/>
    <path id="Trazado_716936" data-name="Trazado 716936" d="M754.511,552.847l.3,2.136,26.631-7.481-1.038-3.1-25.211,7.082C754.718,552.049,754.461,552.523,754.511,552.847Z" transform="translate(-384.867 -277.689)" fill="#265e91"/>
    <path id="Trazado_716937" data-name="Trazado 716937" d="M668.614,562.4h27.661l-.166-3.266H669.934c-.606.424-.988.806-1.03,1.13Z" transform="translate(-341.055 -285.201)" fill="#265e91"/>
    <path id="Trazado_716938" data-name="Trazado 716938" d="M680.554,291.784s-5.738,75.348-2.151,109.162c47.441,8.769,65.444-2.71,65.444-2.71l-11.891-87.309s3.056-12.16-1.37-28.377-50.04,9.243-50.04,9.243Z" transform="translate(-345.447 -141.364)" fill="#1c466d"/>
    <path id="Trazado_716939" data-name="Trazado 716939" d="M652.935,144.892s1.312-8.071,2.873-10.315,7.988-4.247,9.275-3.732.241.914.241.914,1,.582.889,1.222a1.275,1.275,0,0,1-.681.89s-4.061,1.962-4.517,2.261-.44,2.535.814,1.937,2.591-3.4,3.156-3.458,1.329.241,1.37.656-2.392,6.251-2.392,6.251a27.978,27.978,0,0,1-2.724,2.876c-.514.274-2.009,7.007-2.009,7.007" transform="translate(-333.057 -66.695)" fill="#ffbdb2"/>
    <path id="Trazado_716940" data-name="Trazado 716940" d="M673.224,162.851l-4.251,29.94s-1.345.74-3.463,1.7c-4.733,2.136-13.312,5.369-19.266,3.823-3.845-1-4.226-9.193-3.471-17.945a191.914,191.914,0,0,1,3.612-22.517l9.459,2.71,2.375,17.721Z" transform="translate(-327.712 -80.515)" fill="#ffa031"/>
    <g id="Grupo_1013277" data-name="Grupo 1013277" transform="translate(314.744 99.858)" opacity="0.2">
      <path id="Trazado_716941" data-name="Trazado 716941" d="M668.972,208.63c-1.229,3.608-2.383,6.683-3.463,9.31-4.733,2.136-13.312,5.369-19.266,3.823-3.845-1-4.226-9.193-3.471-17.945C645.3,212.271,651.9,222.245,668.972,208.63Z" transform="translate(-642.455 -203.818)" fill="#c22c55"/>
    </g>
    <path id="Trazado_716942" data-name="Trazado 716942" d="M705.043,41.648,702.1,29.08l-4.725.623,5.273,12.435Z" transform="translate(-355.727 -14.827)" fill="#ffa031"/>
    <path id="Trazado_716943" data-name="Trazado 716943" d="M684.168,48.995,672.476,38.5l-3.438,3.2,13.079,8.919Z" transform="translate(-341.271 -19.63)" fill="#ffa031"/>
    <path id="Trazado_716944" data-name="Trazado 716944" d="M676.994,69.282l-12.639-6.217-2.267,4.114,13.469,4.281Z" transform="translate(-337.726 -32.162)" fill="#ffa031"/>
    <path id="Trazado_716945" data-name="Trazado 716945" d="M713.9,80.065s-4.941-5.7.565-9.093c-1.4-4.6,22.91-11.653,25.252,2.319,9.4,4.447-1.47,20.373-1.088,24.238.54,5.469,19.2,14.87,9.259,27.745-9.873,12.784-24.422-19.267-24.422-19.267Z" transform="translate(-363.116 -33.179)"/>
    <path id="Trazado_716946" data-name="Trazado 716946" d="M714.161,154.742c19.207,7.614,16.508,29.233,16.508,39.482s6.5,36.54,6.5,36.54-35.607,10.34-56.542.307c-.805-9.293-6.444-66.5,18.834-79.238" transform="translate(-346.627 -77.442)" fill="#ffa031"/>
    <path id="Trazado_716947" data-name="Trazado 716947" d="M734.45,101.357a3.332,3.332,0,0,1-3.33,2.053l-2.865,18.445-12.3,11.637-2.4-14.546,2.932-4.755s-7.482-.341-9.077-7.14a13.746,13.746,0,0,1-.241-3.292,31.855,31.855,0,0,1,.614-5.353c.631-3.292,2.383-8.37,5.157-11.039a7.047,7.047,0,0,0,2.425,4.405,29.343,29.343,0,0,1,4.31-4.414c-.564-.075.689,5.636,8.454,3.375-.88,5.627,2.383,7.415,2.383,7.415a2.363,2.363,0,0,1,2.45-1.372c1.411.233,2.815,1.937,1.486,4.6Z" transform="translate(-360.72 -44.555)" fill="#ffbdb2"/>
    <path id="Trazado_716950" data-name="Trazado 716950" d="M715.978,109.186a.571.571,0,0,1-.639.49.57.57,0,0,1,.149-1.131A.571.571,0,0,1,715.978,109.186Z" transform="translate(-364.636 -55.359)" fill="#1c466d"/>
    <path id="Trazado_716951" data-name="Trazado 716951" d="M729.606,110.39a.57.57,0,1,1-1.129-.149.565.565,0,0,1,.639-.49A.571.571,0,0,1,729.606,110.39Z" transform="translate(-371.588 -55.974)" fill="#1c466d"/>
    <path id="Trazado_716952" data-name="Trazado 716952" d="M756.965,109.317,756.483,113s2.01-1.056,2.309-2.062S758.584,108.852,756.965,109.317Z" transform="translate(-385.876 -55.699)" fill="#ff898c"/>
    <path id="Trazado_716953" data-name="Trazado 716953" d="M727.974,104.7a.644.644,0,0,1-.465-.524.627.627,0,0,1,.54-.706,23.337,23.337,0,0,0,4.168-1.047.628.628,0,0,1,.432,1.18,24.456,24.456,0,0,1-4.434,1.106.768.768,0,0,1-.241-.017Z" transform="translate(-371.094 -52.219)"/>
    <path id="Trazado_716954" data-name="Trazado 716954" d="M712.947,102.157a.386.386,0,0,1-.124-.05,21.777,21.777,0,0,1-3.513-2.186.629.629,0,0,1,.863-.914,21,21,0,0,0,3.23,1.987.627.627,0,0,1-.448,1.164Z" transform="translate(-361.714 -50.409)"/>
    <path id="Trazado_716955" data-name="Trazado 716955" d="M719.775,104.733c-.988-.075-2.076,4.064-2.076,4.064a8.277,8.277,0,0,0-.523,1.92c0,.54,2.973.931,3.529,0s-.623-1.238-.623-1.238S721.71,104.882,719.775,104.733Z" transform="translate(-365.826 -53.417)" fill="#ff898c"/>
    <path id="Trazado_716956" data-name="Trazado 716956" d="M716.346,119.81s4.891-1,5.945-.208-5.049,2.178-5.049,2.178Z" transform="translate(-365.403 -60.847)" fill="#fff"/>
    <path id="Trazado_716957" data-name="Trazado 716957" d="M755.469,119.291a2.751,2.751,0,1,0,2.748,2.751A2.748,2.748,0,0,0,755.469,119.291Zm0,4.755a1.995,1.995,0,1,1,1.993-1.995A1.995,1.995,0,0,1,755.469,124.046Z" transform="translate(-383.957 -60.843)" fill="#fff"/>
    <path id="Trazado_716958" data-name="Trazado 716958" d="M691.712,166.615s-.955-9.176-1.03-11.9,3.895-8.171,5.24-8.528.739.59.739.59,1.146-.124,1.436.449a1.274,1.274,0,0,1-.016,1.122s-2.1,3.99-2.284,4.505,1.154,2.3,1.8,1.072.058-4.28.474-4.655,1.212-.6,1.495-.283,1.794,6.45,1.794,6.45a28.244,28.244,0,0,1-.482,3.931c-.249.524.772,6.483.772,6.483" transform="translate(-352.311 -74.52)" fill="#ffbdb2"/>
    <g id="Grupo_1013278" data-name="Grupo 1013278" transform="translate(336.846 94.339)" opacity="0.2">
      <path id="Trazado_716959" data-name="Trazado 716959" d="M690.208,192.552s-2.217,28.427,8.612,32.574,26.988-15.435,29.828-26.44c-.656,17.039-11.9,44.5-27.785,42.25s-14.8-35.924-10.646-48.376Z" transform="translate(-687.571 -192.552)" fill="#c22c55"/>
    </g>
    <g id="Grupo_1013279" data-name="Grupo 1013279" transform="translate(350.785 90.765)" opacity="0.2">
      <path id="Trazado_716960" data-name="Trazado 716960" d="M716.023,191.382l4.244,11.886s6.311-13.939,9.8-18.012c-5.9,3.79-9.8,12.751-9.8,12.751Z" transform="translate(-716.023 -185.256)" fill="#c22c55"/>
    </g>
    <path id="Trazado_716961" data-name="Trazado 716961" d="M252.822,64.049l-2.1-12.726-4.758.3,4.442,12.759Z" transform="translate(-125.464 -26.173)" fill="#ffa031"/>
    <path id="Trazado_716962" data-name="Trazado 716962" d="M231.322,69.907l-10.97-11.254-3.645,2.959,12.464,9.767Z" transform="translate(-110.541 -29.912)" fill="#ffa031"/>
    <path id="Trazado_716963" data-name="Trazado 716963" d="M222.76,89.59l-12.2-7.049L208.029,86.5l13.154,5.162Z" transform="translate(-106.114 -42.097)" fill="#ffa031"/>
    <path id="Trazado_716964" data-name="Trazado 716964" d="M274.686,487.049H248.828l.291-2.136a.682.682,0,0,1,.141-.324c.648-.981,3.587-2.352,6.66-3.566a53.452,53.452,0,0,0,6.128-2.818l-.656-5.478-.723-6.034-.623-5.287-1.129-9.484-.855-7.19-.839-6.99-.564-4.8-1.769-14.829,18.742-6.7-.1,22.351-.025,4.821-.033,7.88-.025,5.844-.042,9.617-.025,5.785-.025,5.012V475.4L274.23,483l.174,1.587Z" transform="translate(-126.925 -209.855)" fill="#265e91"/>
    <path id="Trazado_716965" data-name="Trazado 716965" d="M329.821,484.721H303.356l.282-2.136a1.14,1.14,0,0,1,.108-.324,4.73,4.73,0,0,1,1.611-1.587,19.86,19.86,0,0,1,3.886-1.978c3.861-1.529,7.938-2.818,7.938-2.818l-.706-5.478-.847-6.566-.722-5.586-1.271-9.875-.68-5.269-1.03-7.988-.548-4.239-2.275-17.63,17.546-6.392.582,20.938.1,3.7.224,8.08.149,5.353.274,9.808.149,5.336.283,10.332.074,2.668,1.055,9.193Z" transform="translate(-154.74 -207.527)" fill="#265e91"/>
    <path id="Trazado_716966" data-name="Trazado 716966" d="M255.314,309.371s-1.32,37.271,1.918,61.8c25.1,5.719,47.947-2.826,47.947-2.826s.565-48.75-7.266-63.4c-14.549-6.367-42.6,4.431-42.6,4.431Z" transform="translate(-130.098 -154.521)" fill="#1c466d"/>
    <path id="Trazado_716967" data-name="Trazado 716967" d="M254.912,105.031s-6.485-1.305-3.687-7.389c-4.509-4.164,4.592-19.1,18.327-11.562.9-5.951,13.469-1.845,11.036,4.447,5.771-.125,11.542,12.892,1.411,18.453,4.617,5.436.532,15.436-9.234,14.8" transform="translate(-127.554 -42.427)" fill="#ffa031"/>
    <path id="Trazado_716968" data-name="Trazado 716968" d="M288.826,173.115c-2.234,6.916-18.875,4.613-18.875,4.613l.54,27.189,7.822,14.645s-6.884,5.411-20.229,6.409c-1.353.1-2.782.158-4.268.158-16.143,0-18.1-2.136-18.1-2.136l.232-21.079-1.935-24.62c-4.642,1.056-8.13,1.1-10.721.474-8.246-1.978-7.316-10.664-5.231-14.446,3.347-6.06,18.626-28.76,18.626-28.76l3.413,7.971-6.535,17.4,12.771-7.281,13.228-1.5,12.373,6.774-7.091-17.247,7.091-2.818s9.633,11.33,14.5,21.786C288.635,165.352,289.872,169.882,288.826,173.115Z" transform="translate(-110.498 -69.143)" fill="#4db1f0"/>
    <path id="Trazado_716969" data-name="Trazado 716969" d="M282.389,119.056a3.331,3.331,0,0,1-3.164,2.311l.083,16.125s.722,5.91-9.309,10.282c-6.909-2.552-3.928-8.786-3.928-8.786l-.589-5.727s-7.482.249-9.608-6.4a13.316,13.316,0,0,1-.5-3.267,31.957,31.957,0,0,1,.191-5.378c.374-3.333,1.719-8.528,4.269-11.412,11.3,7.987,18.368,9.351,18.368,9.351a2.386,2.386,0,0,1,2.333-1.563c1.42.117,2.957,1.712,1.844,4.464Z" transform="translate(-130.244 -54.473)" fill="#ffc1ba"/>
    <path id="Trazado_716971" data-name="Trazado 716971" d="M291.712,113.29s.44,12.792,10.023,14.2c-1.536-3.69,0-16.832,0-16.832l-10.023,2.626Z" transform="translate(-148.8 -56.438)" fill="#ffa031"/>
    <path id="Trazado_716973" data-name="Trazado 716973" d="M263.338,128.728a.57.57,0,1,1-.54-.6A.568.568,0,0,1,263.338,128.728Z" transform="translate(-133.746 -65.351)" fill="#1c466d"/>
    <path id="Trazado_716974" data-name="Trazado 716974" d="M277.017,128.847a.57.57,0,1,1-.539-.6A.568.568,0,0,1,277.017,128.847Z" transform="translate(-140.723 -65.412)" fill="#1c466d"/>
    <path id="Trazado_716975" data-name="Trazado 716975" d="M273.278,123.023a.621.621,0,0,1-.5-.482.628.628,0,0,1,.482-.748,23.764,23.764,0,0,0,4.077-1.371.627.627,0,0,1,.523,1.139,24.7,24.7,0,0,1-4.326,1.455.587.587,0,0,1-.241,0Z" transform="translate(-139.135 -61.392)" fill="#ffa031"/>
    <path id="Trazado_716976" data-name="Trazado 716976" d="M261.6,123.995a.405.405,0,0,1-.133-.042,21.8,21.8,0,0,1-3.679-1.9.626.626,0,0,1,.789-.972,21.6,21.6,0,0,0,3.38,1.729.629.629,0,0,1-.357,1.2Z" transform="translate(-131.377 -61.682)" fill="#ffa031"/>
    <path id="Trazado_716977" data-name="Trazado 716977" d="M266.953,130.165c.108.64,2.06.69,2.076.108s-.208-5.444-.532-5.644S266.812,129.358,266.953,130.165Z" transform="translate(-136.166 -63.563)" fill="#f28994"/>
    <path id="Trazado_716978" data-name="Trazado 716978" d="M266.185,141.155s2.458-3.167,5.9,0Z" transform="translate(-135.779 -71.277)" fill="#fff"/>
    <path id="Trazado_716979" data-name="Trazado 716979" d="M315.016,127.21s-5.863-14.4-6.385-14.488c-.9-.133-.582,4.688-.582,4.688s-1.719-4.655-2.649-4.256c-.681.291.44,4.605.44,4.605s-2.275-4.372-3.064-4.048c-.847.357,1.362,4.879,1.362,4.879s-2.558-3.632-3.023-2.743,3.853,7.988,3.853,7.988-3.422-1.172-3.4-.582c.017.856,4.916,3.715,4.916,3.715l1.453,3.059,7.091-2.818Z" transform="translate(-153.578 -57.491)" fill="#ffc1ba"/>
    <path id="Trazado_716980" data-name="Trazado 716980" d="M274.4,548.424l.282,2.46H248.828l.291-2.136a.682.682,0,0,1,.141-.324c.648-.981,3.587-2.352,6.66-3.566a53.449,53.449,0,0,0,6.128-2.818l-.656-5.478h11.966v2.668l.872,7.606Z" transform="translate(-126.925 -273.69)" fill="#ffa031"/>
    <path id="Trazado_716981" data-name="Trazado 716981" d="M329.821,550.884H303.356l.282-2.136a1.14,1.14,0,0,1,.108-.324,4.73,4.73,0,0,1,1.611-1.587,19.862,19.862,0,0,1,3.886-1.978c3.861-1.529,7.938-2.818,7.938-2.818l-.706-5.478h11.933l.074,2.668,1.055,9.193Z" transform="translate(-154.74 -273.69)" fill="#ffa031"/>
    <path id="Trazado_716982" data-name="Trazado 716982" d="M285.088,513.979l-.025,5.785a62.838,62.838,0,0,1-10.23-.607c-.83-.125-1.652-.258-2.483-.415l-.623-5.287a56.85,56.85,0,0,0,7.233.549Q282.012,514.079,285.088,513.979Z" transform="translate(-138.606 -261.903)" fill="#ffa031"/>
    <path id="Trazado_716983" data-name="Trazado 716983" d="M267.676,479.42a60.451,60.451,0,0,0,15.412,1.737L283.064,487a57.936,57.936,0,0,1-13.037-.15c-.5-.074-1-.149-1.495-.241Z" transform="translate(-136.54 -244.542)" fill="#ffa031"/>
    <path id="Trazado_716984" data-name="Trazado 716984" d="M281.685,456.185l-.024,4.821a63.85,63.85,0,0,1-16.285-.848l-.564-4.8a.169.169,0,0,0,.042.008A145.7,145.7,0,0,0,281.685,456.185Z" transform="translate(-135.079 -232.27)" fill="#ffa031"/>
    <path id="Trazado_716985" data-name="Trazado 716985" d="M335.682,453.292a71.5,71.5,0,0,1-15.4,3.624l-.548-4.239a85,85,0,0,0,15.852-3.084Z" transform="translate(-163.092 -229.328)" fill="#ffa031"/>
    <path id="Trazado_716986" data-name="Trazado 716986" d="M340.154,509.918a53.7,53.7,0,0,1-12.5,3.765l-.722-5.586A72.686,72.686,0,0,0,340,504.582Z" transform="translate(-166.767 -257.377)" fill="#ffa031"/>
    <path id="Trazado_716987" data-name="Trazado 716987" d="M337.7,478.988a98.916,98.916,0,0,1-14.067,3.449l-.681-5.27a106.638,106.638,0,0,0,14.6-3.532Z" transform="translate(-164.735 -241.591)" fill="#ffa031"/>
    <path id="Trazado_716988" data-name="Trazado 716988" d="M275.716,545.312a2.333,2.333,0,1,0-2.333,2.336A2.336,2.336,0,0,0,275.716,545.312Z" transform="translate(-138.26 -276.962)" fill="#ffa031"/>
    <path id="Trazado_716989" data-name="Trazado 716989" d="M331.618,545.312a2.333,2.333,0,1,0-2.333,2.336A2.336,2.336,0,0,0,331.618,545.312Z" transform="translate(-166.775 -276.962)" fill="#ffa031"/>
    <g id="Grupo_1013280" data-name="Grupo 1013280" transform="translate(112.793 91.846)" opacity="0.2">
      <path id="Trazado_716990" data-name="Trazado 716990" d="M247.024,187.462a29.274,29.274,0,0,0-6.07,17.305c-4.642,1.056-8.13,1.1-10.721.474A94.022,94.022,0,0,1,247.024,187.462Z" transform="translate(-230.233 -187.462)" fill="#d52c55"/>
    </g>
    <g id="Grupo_1013281" data-name="Grupo 1013281" transform="translate(146.16 91.505)" opacity="0.2">
      <path id="Trazado_716991" data-name="Trazado 716991" d="M330.511,199.234c-2.234,6.916-18.875,4.613-18.875,4.613l.54,27.189L320,245.681s-6.884,5.412-20.228,6.409c-3.662-7.281.457-19.093,4.144-24.08,5.954-8.046-.557-15.419-5.389-18.145,8.371-3.108,6.187-17.372,6.187-17.372s10.737,9.492,18.542,7.971c4.626-.9,5.182-8.037,4.866-13.7C330.32,191.471,331.557,196,330.511,199.234Z" transform="translate(-298.343 -186.766)" fill="#d52c55"/>
    </g>
    <path id="Trazado_716992" data-name="Trazado 716992" d="M148.482,515.542l-1.129,16.075s16.309,1.787,16.309,8.478H135.478l-.589-24.554Z" transform="translate(-68.806 -262.968)" fill="#4db1f0"/>
    <path id="Trazado_716993" data-name="Trazado 716993" d="M147.986,538.715h-4.31a.906.906,0,0,1,0-1.812h4.31a.906.906,0,0,1,0,1.812Z" transform="translate(-72.826 -273.864)" fill="#fff"/>
    <path id="Trazado_716994" data-name="Trazado 716994" d="M147.986,546.01h-4.31a.906.906,0,0,1,0-1.812h4.31a.906.906,0,0,1,0,1.812Z" transform="translate(-72.826 -277.585)" fill="#fff"/>
    <path id="Trazado_716995" data-name="Trazado 716995" d="M26.216,480.6,14.457,491.609s10.737,12.418,6.195,17.322L0,489.739l16.251-18.395,9.965,9.26Z" transform="translate(0 -240.423)" fill="#4db1f0"/>
    <path id="Trazado_716996" data-name="Trazado 716996" d="M26.126,497.618l-3.155-2.934a.905.905,0,0,1,1.229-1.33l3.155,2.934a.905.905,0,0,1-1.229,1.33Z" transform="translate(-11.569 -251.527)" fill="#fff"/>
    <path id="Trazado_716997" data-name="Trazado 716997" d="M21.159,502.979,18,500.045a.905.905,0,1,1,1.229-1.33l3.156,2.934a.905.905,0,1,1-1.229,1.33Z" transform="translate(-9.035 -254.262)" fill="#fff"/>
    <path id="Trazado_716998" data-name="Trazado 716998" d="M98.164,103.639s-6.768-2.344-7.042-8.5c-4.144.34-6.054-11.454,1.179-14.538-.216-4.6,20.826-6.949,25.286.1,4.874-.424,7.008,9.575.739,13.6" transform="translate(-44.603 -38.882)"/>
    <path id="Trazado_716999" data-name="Trazado 716999" d="M108.309,214.83l.664,13.889-48.944-1.8-.249-13.091-.241-12.742-.224-11.894L51.6,183.5s-.83-9.068.839-14.862c4.982-14.238,27.785-15.128,27.785-15.128l15.5,2.045s23.683-.133,24.547,26.715l-15.852.681,3.006,17.68.3,1.779.59,12.368Z" transform="translate(-26.216 -78.299)" fill="#265e91"/>
    <g id="Grupo_1013282" data-name="Grupo 1013282" transform="translate(42.242 93.292)" opacity="0.2">
      <path id="Trazado_717000" data-name="Trazado 717000" d="M86.707,202.325l-.482-10.855L95.866,213.9l28.283,4.173-1.976-16.3-.581-11.362,6.12,27.97-41.487-.149Z" transform="translate(-86.225 -190.414)" fill="#d52c55"/>
    </g>
    <g id="Grupo_1013283" data-name="Grupo 1013283" transform="translate(33.324 118.593)" opacity="0.2">
      <path id="Trazado_717001" data-name="Trazado 717001" d="M116.79,259.948V260c-9.849-1.4-23.758-7.207-23.758-7.207l-24.771,6.2-.241-12.743,22.371-4.189,25.51,3.74.3,1.779Z" transform="translate(-68.021 -242.06)" fill="#d52c55"/>
    </g>
    <path id="Trazado_717002" data-name="Trazado 717002" d="M113.667,231.359s2.782,1.147,6.768,2.618c8.312,3.042,24.056,5.287,28.807,3.424,4.667-1.837,2.79-25.185,2.79-25.185l-15.861.69v14.928l-12.854-1.679-.548-.117-.415.241-8.686,5.087Z" transform="translate(-57.981 -108.243)" fill="#f29e8e"/>
    <g id="Grupo_1013284" data-name="Grupo 1013284" transform="translate(55.678 116.781)" opacity="0.2">
      <path id="Trazado_717003" data-name="Trazado 717003" d="M113.658,244.7s2.782,1.147,6.768,2.618l11.858-4.78,4.476-1.164-5.182-3.009-8.271,1.122-.971.124L113.65,244.7Z" transform="translate(-113.65 -238.361)" fill="#d52c55"/>
    </g>
    <path id="Trazado_717004" data-name="Trazado 717004" d="M51.707,214.727s-.963,15.286,3.454,21.62c4.185,6,45.182-7.115,45.182-7.115l6.153,1.255s1.055-2.5-.083-3.5-6.187-3.608-9-3.5c-4.127.158-27.287-.108-27.287-.108l-1.08-8.644H51.707Z" transform="translate(-26.33 -109.524)" fill="#f29e8e"/>
    <path id="Trazado_717005" data-name="Trazado 717005" d="M105.58,229.943a50.763,50.763,0,0,0-5-3.4c-1.163-.507-8.669-.449-11.169,2.718,3.454,1.114,16.168.674,16.168.674Z" transform="translate(-45.608 -115.43)" fill="#f29e8e"/>
    <path id="Trazado_717006" data-name="Trazado 717006" d="M100.317,103.418a3.317,3.317,0,0,0,3.205,2.236l-1.237,15.51s8.021,14.471,16.11,1.6l-.3-5.652s6.9.224,8.885-6.467a13.457,13.457,0,0,0,.424-3.275A30.967,30.967,0,0,0,127.1,102a45.859,45.859,0,0,0-1.187-5.935s-.822-4.015-3.322-5.386c-3.222,3.757-10.214-5.636-13.835,2.169,2.832,7.34-3.994,9.168-3.994,9.168l-.34-1.6a2.377,2.377,0,0,0-2.367-1.513c-1.42.15-2.923,1.771-1.744,4.505Z" transform="translate(-50.95 -45.719)" fill="#f29e8e"/>
    <path id="Trazado_717009" data-name="Trazado 717009" d="M146.735,113.7a.566.566,0,1,0,.523-.607A.562.562,0,0,0,146.735,113.7Z" transform="translate(-74.848 -57.682)" fill="#1c466d"/>
    <path id="Trazado_717010" data-name="Trazado 717010" d="M133.056,114.11a.566.566,0,1,0,.523-.607A.562.562,0,0,0,133.056,114.11Z" transform="translate(-67.87 -57.89)" fill="#1c466d"/>
    <path id="Trazado_717011" data-name="Trazado 717011" d="M104.487,111.427l.274,3.7s-1.943-1.164-2.184-2.186.324-2.07,1.918-1.513Z" transform="translate(-52.297 -56.752)" fill="#f2776c"/>
    <path id="Trazado_717012" data-name="Trazado 717012" d="M133.187,109.05a.829.829,0,0,1-.764-.507c-.158-.374-.349-.482-.482-.524a1.758,1.758,0,0,0-1.179.158A.833.833,0,0,1,130,106.7a3.451,3.451,0,0,1,2.508-.249,2.443,2.443,0,0,1,1.445,1.438.824.824,0,0,1-.44,1.089.9.9,0,0,1-.324.067Z" transform="translate(-66.082 -54.218)"/>
    <path id="Trazado_717013" data-name="Trazado 717013" d="M144.734,108.7a.833.833,0,0,1-.066-1.663,3.888,3.888,0,0,0,1.877-.623.831.831,0,0,1,1.071,1.272,5.63,5.63,0,0,1-2.823,1.006h-.058Z" transform="translate(-73.403 -54.177)"/>
    <path id="Trazado_717014" data-name="Trazado 717014" d="M139.618,106.7c.681-.025,2.342,6.234,2.159,7.356s-2.989.449-2.989.449-1.046.283-1.1-.648a3.154,3.154,0,0,1,.913-1.92Z" transform="translate(-70.23 -54.421)" fill="#f2776c"/>
    <path id="Trazado_717015" data-name="Trazado 717015" d="M135.381,127.356a4.684,4.684,0,0,1,4.21.241Z" transform="translate(-69.057 -64.752)" fill="#fff"/>
    <path id="Trazado_717016" data-name="Trazado 717016" d="M86.225,95.409,132.619,87a2.431,2.431,0,0,0-2.948-2.377L86.233,94.079v1.33Z" transform="translate(-43.983 -43.128)" fill="#265e91"/>
    <path id="Trazado_717017" data-name="Trazado 717017" d="M86.225,83.918s0-9.816,5.381-14.8c6.809-6.309,18.2-4.638,22.9-2.7S121.584,78.1,121.584,78.1" transform="translate(-43.983 -32.976)" fill="#265e91"/>
    <path id="Trazado_717018" data-name="Trazado 717018" d="M91.293,96.882l6.618-1.7s-.83-3.425-3.72-2.868-2.89,4.563-2.89,4.563Z" transform="translate(-46.568 -47.053)" fill="#1c466d"/>
    <path id="Trazado_717019" data-name="Trazado 717019" d="M128.007,76.38,133.72,80.8l2.109-7.049-3.081,3.524Z" transform="translate(-65.295 -37.614)" fill="#ffa031"/>
    <path id="Trazado_717020" data-name="Trazado 717020" d="M95.675,413.967H73.138l-3.3-58.151-35.1,45.491-14.333-13.1,23.9-43.655-.075-35.442-.008-5.768,48.944,1.8.1,4.431Z" transform="translate(-10.41 -154.727)" fill="#1c466d"/>
    <g id="Grupo_1013285" data-name="Grupo 1013285" transform="translate(33.814 148.616)" opacity="0.1">
      <path id="Trazado_717021" data-name="Trazado 717021" d="M118.064,309.577l-49.035-.466-.008-5.768,48.944,1.8Z" transform="translate(-69.021 -303.343)" fill="#d52c55"/>
    </g>
    <g id="Grupo_1013286" data-name="Grupo 1013286" transform="translate(59.432 161.059)" opacity="0.1">
      <path id="Trazado_717022" data-name="Trazado 717022" d="M136.4,426.922H124.609l-3.3-58.151,3.729-5.735-1.869-34.3h3.894Z" transform="translate(-121.312 -328.741)" fill="#d52c55"/>
    </g>
    <g id="Grupo_1013287" data-name="Grupo 1013287" transform="translate(78.19 104.571)" opacity="0.2">
      <path id="Trazado_717023" data-name="Trazado 717023" d="M161.487,213.438l.2,12.335-2.085-.657v-11.6Z" transform="translate(-159.602 -213.438)" fill="#d52c55"/>
    </g>
    <path id="Trazado_717024" data-name="Trazado 717024" d="M172.675,44.013l10.306-7.747-2.467-4.081-9.25,9.841Z" transform="translate(-87.36 -16.411)" fill="#ffa031"/>
    <path id="Trazado_717025" data-name="Trazado 717025" d="M161.716,28.921l4.891-14.937-4.31-1.87-2.881,15.577Z" transform="translate(-81.317 -6.173)" fill="#ffa031"/>
    <path id="Trazado_717026" data-name="Trazado 717026" d="M142.407,30.9l.6-14.081-4.675-.416,1.511,14.056Z" transform="translate(-70.561 -8.362)" fill="#ffa031"/>
  </g>
</svg>
