<svg xmlns="http://www.w3.org/2000/svg" width="181" height="181" viewBox="0 0 181 181">
  <g id="Grupo_1026568" data-name="Grupo 1026568" transform="translate(-399 -2711)">
    <g id="Grupo_1004758" data-name="Grupo 1004758" transform="translate(0 1849)">
      <circle id="Elipse_8399" data-name="Elipse 8399" cx="90.5" cy="90.5" r="90.5" transform="translate(399 862)" fill="#fff"/>
    </g>
    <g id="g888" transform="translate(431.916 2746.779)">
      <g id="g890">
        <rect id="Rectángulo_349181" data-name="Rectángulo 349181" width="111.784" height="111.784" transform="translate(0 0)" fill="none"/>
        <g id="g892">
          <g id="g898" transform="translate(2.183 55.892)">
            <path id="path900" d="M67.042,341.333c-29.077,0-53.709,24.878-53.709,53.709H120.751c0-28.862-24.69-53.709-53.709-53.709" transform="translate(-13.333 -341.333)" fill="#4db1f0"/>
          </g>
          <g id="g902" transform="translate(65.027 73.328)">
            <path id="path904" d="M441.694,484.086H414.586c-3.585-5.8,3.587-12.973,0-18.776s-17.466-1.107-17.466-8.733,17.466-8.733,17.466-8.733h12.456l.035-.031a53.4,53.4,0,0,1,14.617,36.273" transform="translate(-397.12 -447.813)" fill="#008b8a"/>
          </g>
          <g id="g906" transform="translate(87.04 9.688)">
            <path id="path908" d="M540.619,59.668a6.55,6.55,0,1,1-8.563,3.533,6.549,6.549,0,0,1,8.563-3.533" transform="translate(-531.552 -59.164)" fill="#fce8d0"/>
          </g>
          <g id="g910" transform="translate(68.968 25.455)">
            <path id="path912" d="M441.873,156.149a9.091,9.091,0,0,1,5.576,9.048l-2.113,16.309-6.05-2.515L434.1,192.778l-.061.1a53.421,53.421,0,0,0-12.054-5.067l.018-.063,5.188-13.79-5.98-2.485-.024-.083,10.34-12.818a9.091,9.091,0,0,1,10.346-2.428" transform="translate(-421.186 -155.452)" fill="#9ad3f7"/>
          </g>
          <g id="g914" transform="translate(42.792 19.65)">
            <path id="path916" d="M287.532,141.831v0h-6.55v14.816l0,.017a50.834,50.834,0,0,0-13.1,0l0-.017V141.833h-6.55l0-.013.031-.013-.02-.024,4.463-15.569a9.088,9.088,0,0,1,17.244,0l4.454,15.534-.044.055Z" transform="translate(-261.333 -120)" fill="#3076b6"/>
          </g>
          <g id="g918" transform="translate(49.342 2.183)">
            <path id="path920" d="M307.883,13.333a6.55,6.55,0,1,1-6.55,6.55,6.549,6.549,0,0,1,6.55-6.55" transform="translate(-301.333 -13.333)" fill="#fce8d0"/>
          </g>
          <g id="g922" transform="translate(8.499 67.245)">
            <path id="path924" d="M90.967,416.78c2.919,7.046-9.506,12.7-8.733,17.466s7.96,3.971,8.733,8.733c.327,2.011-1.181,6.753-3.033,10.043H77.793c-3.382-6.115-8.255-15.132-13.026-18.776-3.312-2.531-7.976-4.408-12.451-5.762l-.411-.172a56.12,56.12,0,0,1,14.953-17.645c6.668,5.434,21.516-.144,24.108,6.113" transform="translate(-51.906 -410.667)" fill="#008b8a"/>
          </g>
          <g id="g926" transform="translate(16.497 25.47)">
            <path id="path928" d="M116.688,158.665l10.368,12.842-.011.037-6.015,2.5,5.194,13.787.017.063a53.474,53.474,0,0,0-12.052,5.074l-.061-.1-5.192-13.785L102.89,181.6l-2.12-16.309a9.088,9.088,0,0,1,15.918-6.626" transform="translate(-100.746 -155.544)" fill="#9ad3f7"/>
          </g>
          <g id="g930" transform="translate(11.597 9.706)">
            <path id="path932" d="M83.421,63.309a6.55,6.55,0,1,1-8.563-3.528,6.551,6.551,0,0,1,8.563,3.528" transform="translate(-70.822 -59.276)" fill="#fce8d0"/>
          </g>
          <g id="g934" transform="translate(9.411 7.524)">
            <path id="Trazado_723946" data-name="Trazado 723946" d="M66.221,63.417A8.733,8.733,0,1,1,74.27,51.326h0a8.733,8.733,0,0,1-8.05,12.09Zm-.017-13.1A4.367,4.367,0,1,0,70.24,53h0A4.374,4.374,0,0,0,66.2,50.317Z" transform="translate(-57.47 -45.95)"/>
          </g>
          <g id="g938" transform="translate(14.313 23.284)">
            <path id="Trazado_723947" data-name="Trazado 723947" d="M102.979,183.889a2.184,2.184,0,0,1-2.044-1.414L96.54,170.8l-3.962,1.649a2.183,2.183,0,0,1-3-1.734l-2.12-16.309c-.005-.041-.009-.082-.012-.123a11.272,11.272,0,0,1,19.742-8.219l.052.063,10.378,12.853a2.183,2.183,0,0,1-.827,3.391l-.03.013-.022.009-4.067,1.693,4.45,11.813a2.183,2.183,0,1,1-4.086,1.539l-5.194-13.787a2.183,2.183,0,0,1,1.2-2.785l3.355-1.4-8.53-10.565a6.9,6.9,0,0,0-12.074,5l1.743,13.412,3.412-1.42a2.183,2.183,0,0,1,2.882,1.246l5.192,13.785a2.185,2.185,0,0,1-2.043,2.953Z" transform="translate(-87.411 -142.195)"/>
          </g>
          <g id="g942" transform="translate(84.858 7.501)">
            <path id="Trazado_723948" data-name="Trazado 723948" d="M526.96,63.287a8.755,8.755,0,1,1,3.333-.666A8.718,8.718,0,0,1,526.96,63.287Zm0-13.106a4.367,4.367,0,1,0,4.032,6.044h0a4.371,4.371,0,0,0-4.032-6.044Z" transform="translate(-518.228 -45.811)"/>
          </g>
          <g id="g946" transform="translate(66.741 23.269)">
            <path id="Trazado_723949" data-name="Trazado 723949" d="M422.728,183.8a2.185,2.185,0,0,1-2.043-2.952l5.185-13.787a2.183,2.183,0,0,1,2.882-1.247l3.414,1.419,1.738-13.412a6.906,6.906,0,0,0-12.077-5l-8.527,10.57,3.356,1.394a2.183,2.183,0,0,1,1.206,2.785l-5.188,13.789a2.183,2.183,0,1,1-4.087-1.537l4.445-11.814-4.106-1.706a2.183,2.183,0,0,1-.86-3.376l.043-.055,10.346-12.825.053-.063a11.272,11.272,0,0,1,19.747,8.21c0,.041-.007.082-.012.123l-2.113,16.309a2.183,2.183,0,0,1-3,1.736l-3.964-1.648-4.39,11.673A2.184,2.184,0,0,1,422.728,183.8Z" transform="translate(-407.587 -142.103)"/>
          </g>
          <g id="g950" transform="translate(47.159)">
            <path id="Trazado_723950" data-name="Trazado 723950" d="M296.733,17.466a8.733,8.733,0,1,1,8.733-8.733A8.743,8.743,0,0,1,296.733,17.466Zm0-13.1A4.367,4.367,0,1,0,301.1,8.733,4.371,4.371,0,0,0,296.733,4.367Z" transform="translate(-288)"/>
          </g>
          <g id="g954" transform="translate(40.609 17.466)">
            <path id="Trazado_723951" data-name="Trazado 723951" d="M269.833,147.682a2.183,2.183,0,0,1-2.183-2.183V130.683a2.183,2.183,0,0,1,2.183-2.183h3.653l-3.666-12.786a6.9,6.9,0,0,0-13.073,0L253.081,128.5h3.652a2.183,2.183,0,0,1,2.183,2.183V145.5a2.183,2.183,0,0,1-4.367,0V132.866h-4.367a2.183,2.183,0,0,1-2.081-2.843l0-.008,4.458-15.553c.009-.03.018-.06.028-.089a11.272,11.272,0,0,1,21.386,0c.01.029.019.059.028.089l4.477,15.612a2.186,2.186,0,0,1-2.1,2.792h-4.367V145.5A2.183,2.183,0,0,1,269.833,147.682Z" transform="translate(-248 -106.667)"/>
          </g>
          <g id="g958" transform="translate(21.195 65.008)">
            <path id="Trazado_723952" data-name="Trazado 723952" d="M152.77,443.781a2.184,2.184,0,0,1-1.9-3.254c1.883-3.346,2.968-7.472,2.78-8.621s-1.115-1.731-3.186-2.764c-2.1-1.049-4.981-2.485-5.547-5.97-.5-3.091,1.955-5.7,4.556-8.458,3.292-3.493,5.372-5.974,4.316-8.523-.794-1.918-5.013-1.973-9.092-2.025-4.935-.063-10.525-.135-14.322-3.186-.054-.04-.093-.073-.116-.091a2.183,2.183,0,1,1,2.734-3.4l0,0q.041.03.08.062c2.617,2.133,7.223,2.193,11.676,2.25,5.494.071,11.175.144,13.07,4.72a8.426,8.426,0,0,1-.719,7.642,30.168,30.168,0,0,1-4.454,5.547c-1.511,1.6-3.58,3.8-3.423,4.763.187,1.156,1.115,1.729,3.186,2.763,2.1,1.049,4.981,2.485,5.547,5.971.49,3.009-1.626,8.515-3.285,11.463A2.183,2.183,0,0,1,152.77,443.781Zm-19.741-46.268.006.005Zm-.164-.116,0,0Z" transform="translate(-129.44 -397.005)"/>
          </g>
          <g id="g962" transform="translate(6.726 82.879)">
            <path id="Trazado_723953" data-name="Trazado 723953" d="M68.739,535.049a2.182,2.182,0,0,1-1.913-1.127l-.386-.7c-3.116-5.642-7.826-14.169-12.054-17.4-2.661-2.033-6.616-3.852-11.758-5.407a2.183,2.183,0,0,1,1.264-4.18c5.644,1.707,10.067,3.765,13.145,6.117,4.956,3.785,9.735,12.439,13.225,18.757l.385.7a2.184,2.184,0,0,1-1.909,3.24Z" transform="translate(-41.076 -506.144)"/>
          </g>
          <g id="g966" transform="translate(62.844 71.175)">
            <path id="Trazado_723954" data-name="Trazado 723954" d="M403.439,475.276a2.182,2.182,0,0,1-1.86-1.036c-2.293-3.712-1.206-7.646-.246-11.116.826-2.988,1.539-5.569.247-7.659-1.084-1.756-4.318-2.151-7.446-2.534a22.892,22.892,0,0,1-6.471-1.412,6.166,6.166,0,0,1-3.875-5.935c0-2.929,1.791-6.924,10.324-9.328a49.634,49.634,0,0,1,9.187-1.584c.046,0,.092,0,.138,0h12.456a2.183,2.183,0,1,1,0,4.366H403.513a45.88,45.88,0,0,0-8.274,1.441c-2.647.751-7.086,2.413-7.086,5.109,0,1.8,1.217,2.364,6.511,3.013,3.958.484,8.443,1.034,10.63,4.573,2.295,3.712,1.207,7.647.247,11.118-.826,2.987-1.539,5.567-.247,7.658a2.184,2.184,0,0,1-1.855,3.331Z" transform="translate(-383.787 -434.667)"/>
          </g>
          <g id="g970" transform="translate(103.706 88.641)">
            <path id="path972" d="M637.7,543.516a2.183,2.183,0,1,1-2.183-2.183,2.183,2.183,0,0,1,2.183,2.183" transform="translate(-633.333 -541.333)"/>
          </g>
          <g id="g974" transform="translate(0 53.709)">
            <path id="Trazado_723955" data-name="Trazado 723955" d="M109.6,386.075H2.183A2.183,2.183,0,0,1,0,383.892a54.541,54.541,0,0,1,6.577-25.746,58.6,58.6,0,0,1,15.536-18.334,57.468,57.468,0,0,1,6.746-4.519A55.692,55.692,0,0,1,41.4,330.014a54.037,54.037,0,0,1,7.662-1.572,52.984,52.984,0,0,1,13.658,0,54.022,54.022,0,0,1,7.638,1.566A55.651,55.651,0,0,1,82.9,335.281a58.36,58.36,0,0,1,20.555,19.844,2.183,2.183,0,1,1-3.711,2.3,53.988,53.988,0,0,0-19.011-18.354,51.276,51.276,0,0,0-11.562-4.861,49.587,49.587,0,0,0-7.018-1.439,48.612,48.612,0,0,0-12.532,0,49.638,49.638,0,0,0-7.04,1.445,51.34,51.34,0,0,0-11.559,4.867,53.132,53.132,0,0,0-6.234,4.176,54.2,54.2,0,0,0-14.371,16.956,50.374,50.374,0,0,0-6.005,21.492H107.368a48.983,48.983,0,0,0-.784-6.785,2.183,2.183,0,0,1,4.292-.8,53.259,53.259,0,0,1,.908,9.772A2.183,2.183,0,0,1,109.6,386.075Z" transform="translate(0 -328)"/>
          </g>
        </g>
      </g>
    </g>
  </g>
</svg>
