<svg xmlns="http://www.w3.org/2000/svg" width="265" height="209.352" viewBox="0 0 265 209.352">
  <g id="Grupo_1026792" data-name="Grupo 1026792" transform="translate(-390 -4862.531)">
    <g id="Grupo_1026679" data-name="Grupo 1026679">
      <g id="Grupo_1026676" data-name="Grupo 1026676" transform="translate(-575 1313.916)">
        <path id="Trazado_717261" data-name="Trazado 717261" d="M256.045,6.946c17.063-1.074,33.043,10.991,40.907,26.4s8.9,33.5,7.566,50.8c-1.55,20.065-6.345,40.492-18.157,56.663-10.291,14.089-25.385,24.1-41.614,30.118s-33.608,8.274-50.873,8.872a166.69,166.69,0,0,1-31.625-1.521c-21.419-3.372-41.515-12.526-60.782-22.6-10.065-5.265-20.115-10.9-28.347-18.793a96.232,96.232,0,0,1-13.794-17.23c-11.581-17.819-19.837-38.59-19.291-59.935S51.148,16.6,69.69,6.522c21.6-11.73,48.245-5.764,71.087,3.216,19.757,7.77,41.525,20.277,63.269,20.272,8.746,0,15.636-6.734,22.927-11.3,8.925-5.58,18.367-11.1,29.077-11.768Z" transform="translate(924.992 3578.02)" fill="#f5f9fd"/>
      </g>
      <g id="Grupo_1026677" data-name="Grupo 1026677" transform="translate(-209.602 4651.55)">
        <g id="Grupo_1026637" data-name="Grupo 1026637" transform="translate(619.452 408.505)">
          <path id="Trazado_724331" data-name="Trazado 724331" d="M687.217,1711.457c24.675,0,44.8-2.658,44.8-5.912s-20.123-5.916-44.8-5.916-44.8,2.658-44.8,5.916S662.537,1711.457,687.217,1711.457Z" transform="translate(-642.415 -1699.629)" fill="#e8e8e8" fill-rule="evenodd"/>
        </g>
        <g id="Grupo_1026639" data-name="Grupo 1026639" transform="translate(769.438 353.186)">
          <path id="Trazado_724333" data-name="Trazado 724333" d="M1779.635,1296.719l-1.546-3.464-3.839.407a1.74,1.74,0,0,1-.851-.192,1.163,1.163,0,0,1-.521-.567,1.133,1.133,0,0,1-.037-.769,1.68,1.68,0,0,1,.462-.714l2.828-2.553-1.565-3.523a1.612,1.612,0,0,1-.087-.874,1.138,1.138,0,0,1,.375-.664,1.168,1.168,0,0,1,.723-.275,1.676,1.676,0,0,1,.823.22l3.3,1.9c.9-.81,1.935-1.853,2.869-2.58a1.724,1.724,0,0,1,.791-.352,1.2,1.2,0,0,1,.746.146,1.107,1.107,0,0,1,.494.613,1.615,1.615,0,0,1,.046.846l-.782,3.724,3.335,1.926a1.694,1.694,0,0,1,.577.65,1.142,1.142,0,0,1,.1.774,1.166,1.166,0,0,1-.425.645,1.607,1.607,0,0,1-.787.3l-3.793.4c-.233,1.107-.48,2.768-.8,3.779a1.777,1.777,0,0,1-.435.746,1.15,1.15,0,0,1-.709.325,1.172,1.172,0,0,1-.75-.206,1.645,1.645,0,0,1-.526-.654Z" transform="translate(-1772.791 -1282.711)" fill="#e8e8e8" fill-rule="evenodd"/>
        </g>
        <g id="Grupo_1026640" data-name="Grupo 1026640" transform="translate(688.82 310.164)">
          <path id="Trazado_724334" data-name="Trazado 724334" d="M1167.892,967.525l.229-2.509-2.356-1.009a1.127,1.127,0,0,1-.435-.384.749.749,0,0,1,.11-.956,1.163,1.163,0,0,1,.494-.263l2.471-.563.238-2.551a1.119,1.119,0,0,1,.229-.535.8.8,0,0,1,.43-.263.783.783,0,0,1,.512.076,1.068,1.068,0,0,1,.4.4l1.3,2.169c.787-.181,1.72-.444,2.5-.567a1.175,1.175,0,0,1,.576.055.773.773,0,0,1,.384.325.742.742,0,0,1,.087.517,1.093,1.093,0,0,1-.252.506l-1.656,1.9,1.308,2.2a1.112,1.112,0,0,1,.124.563.783.783,0,0,1-.2.48.761.761,0,0,1-.458.235,1.09,1.09,0,0,1-.549-.078l-2.333-1c-.494.565-1.171,1.448-1.693,1.931a1.13,1.13,0,0,1-.489.291.749.749,0,0,1-.513-.041.778.778,0,0,1-.37-.361,1.1,1.1,0,0,1-.092-.551Z" transform="translate(-1165.207 -958.477)" fill="#e8e8e8" fill-rule="evenodd"/>
        </g>
        <g id="Grupo_1026642" data-name="Grupo 1026642" transform="translate(833.275 317.079)">
          <path id="Trazado_724336" data-name="Trazado 724336" d="M2256.738,1013.028a1.4,1.4,0,0,1,1.881-2.068,19.833,19.833,0,0,1,5.884,9.6,29.94,29.94,0,0,1,.371,12.761,1.394,1.394,0,0,1-2.754-.435,27.286,27.286,0,0,0-.307-11.585,17.1,17.1,0,0,0-5.074-8.27Zm-2.429,5.708a9.167,9.167,0,0,1,2.512,4.209,10.936,10.936,0,0,1-.042,5.271,1.4,1.4,0,1,0,2.723.622,13.616,13.616,0,0,0,.018-6.607,11.979,11.979,0,0,0-3.24-5.481,1.4,1.4,0,0,0-1.972,1.986Z" transform="translate(-2253.898 -1010.595)" fill="#fff" fill-rule="evenodd"/>
        </g>
        <g id="Grupo_1026643" data-name="Grupo 1026643" transform="translate(670.395 210.981)">
          <path id="Trazado_724337" data-name="Trazado 724337" d="M1034.781,212.566l-1.6.927a1.138,1.138,0,0,0-.412,1.549l.357.608c.416.714.233,1.036.105,1.153-.357.318-.686.664-1.016,1.009-.1.1-.407.446-1.222-.025l-.558-.325a1.135,1.135,0,0,0-1.547.409l-.924,1.6a1.137,1.137,0,0,0,.4,1.551l.558.318c.76.444.741.67.641,1-.128.442-.275.885-.366,1.345-.092.407-.05.7-1.089.7h-.632a1.134,1.134,0,0,0-1.135,1.132v1.848a1.134,1.134,0,0,0,1.135,1.132h.632c1.039,0,1,.293,1.089.7.091.46.238.9.366,1.347.1.323.119.549-.641.991l-.558.323a1.134,1.134,0,0,0-.4,1.549l.924,1.6a1.133,1.133,0,0,0,1.547.409l.558-.323c.814-.474,1.125-.128,1.222-.027.329.345.659.691,1.016,1.009.128.117.311.439-.105,1.155l-.357.606a1.138,1.138,0,0,0,.412,1.549l1.6.929a1.136,1.136,0,0,0,1.547-.409l.348-.6c.426-.728.842-.7,1.016-.643.512.162.979.268,1.505.4.2.05.526.19.526,1.055v.647a1.129,1.129,0,0,0,1.126,1.132h1.848a1.134,1.134,0,0,0,1.135-1.132v-.647c0-.865.329-1,.522-1.055.526-.137,1-.243,1.51-.4.174-.055.586-.085,1.011.643l.352.6a1.133,1.133,0,0,0,1.547.409l1.6-.929a1.135,1.135,0,0,0,.4-1.549l-.348-.606c-.416-.716-.238-1.039-.11-1.155.357-.318.686-.663,1.016-1.009.1-.1.412-.446,1.222.027l.554.323a1.138,1.138,0,0,0,1.551-.409l.929-1.6a1.133,1.133,0,0,0-.412-1.549l-.549-.323c-.76-.441-.741-.668-.645-.991.133-.444.275-.888.371-1.347.087-.407.046-.7,1.084-.7h.636a1.137,1.137,0,0,0,1.135-1.132V225.51a1.137,1.137,0,0,0-1.135-1.132h-.636c-1.039,0-1-.293-1.084-.7-.1-.46-.238-.9-.371-1.345-.1-.325-.114-.551.645-1l.549-.318a1.136,1.136,0,0,0,.412-1.551l-.929-1.6a1.14,1.14,0,0,0-1.551-.409l-.554.325c-.81.471-1.121.126-1.222.025-.329-.345-.659-.691-1.016-1.009-.128-.117-.307-.439.11-1.153l.348-.608a1.135,1.135,0,0,0-.4-1.549l-1.6-.927a1.133,1.133,0,0,0-1.547.407l-.352.606c-.425.725-.837.7-1.011.641-.512-.162-.984-.265-1.51-.4-.192-.048-.522-.187-.522-1.055v-.647a1.134,1.134,0,0,0-1.135-1.132h-1.848a1.129,1.129,0,0,0-1.126,1.132v.647c0,.867-.329,1.007-.526,1.055-.526.14-.993.243-1.505.4-.174.057-.59.085-1.016-.641l-.348-.606a1.135,1.135,0,0,0-1.547-.407Zm6.991,6.616a7.252,7.252,0,1,1-7.248,7.252,7.255,7.255,0,0,1,7.248-7.252Zm0-1.812a9.064,9.064,0,1,1-9.059,9.064A9.065,9.065,0,0,1,1041.772,217.371Z" transform="translate(-1026.344 -210.981)" fill="#e8e8e8" fill-rule="evenodd"/>
        </g>
        <g id="Grupo_1026644" data-name="Grupo 1026644" transform="translate(646.264 332.485)">
          <path id="Trazado_724338" data-name="Trazado 724338" d="M861.658,1129.922l-3.258,1.894a2.314,2.314,0,0,0-.833,3.157l.719,1.231c.846,1.46.48,2.118.215,2.352-.723.645-1.4,1.35-2.068,2.054-.2.2-.828.906-2.48-.055l-1.135-.659a2.314,2.314,0,0,0-3.157.833l-1.89,3.253a2.313,2.313,0,0,0,.837,3.152l1.121.654c1.551.9,1.515,1.363,1.313,2.022-.265.9-.558,1.807-.755,2.741-.178.833-.1,1.427-2.205,1.427h-1.295a2.308,2.308,0,0,0-2.306,2.306v3.761a2.308,2.308,0,0,0,2.306,2.306h1.295c2.109,0,2.027.595,2.205,1.427.2.934.49,1.84.755,2.745.2.654.238,1.116-1.313,2.018l-1.121.654a2.315,2.315,0,0,0-.837,3.152l1.89,3.253a2.314,2.314,0,0,0,3.157.833l1.135-.659c1.652-.961,2.279-.256,2.48-.05.673.7,1.345,1.4,2.068,2.054.265.229.631.892-.215,2.347l-.719,1.235a2.307,2.307,0,0,0,.833,3.152l3.258,1.894a2.307,2.307,0,0,0,3.148-.833l.718-1.235c.86-1.478,1.707-1.418,2.063-1.3,1.039.33,1.995.545,3.066.819.393.105,1.061.389,1.061,2.15v1.318a2.308,2.308,0,0,0,2.306,2.306h3.761a2.312,2.312,0,0,0,2.311-2.306v-1.318c0-1.761.673-2.045,1.062-2.15,1.066-.275,2.027-.49,3.065-.819.357-.114,1.2-.174,2.064,1.3l.714,1.235a2.318,2.318,0,0,0,3.157.833l3.253-1.894a2.315,2.315,0,0,0,.833-3.152l-.718-1.235c-.846-1.455-.476-2.118-.215-2.347.723-.65,1.4-1.354,2.073-2.054.192-.206.824-.911,2.475.05l1.135.659a2.307,2.307,0,0,0,3.153-.833l1.894-3.253a2.309,2.309,0,0,0-.833-3.152l-1.126-.654c-1.551-.9-1.51-1.364-1.318-2.018.275-.906.563-1.812.76-2.745.174-.833.1-1.427,2.205-1.427h1.29a2.312,2.312,0,0,0,2.311-2.306v-3.761a2.312,2.312,0,0,0-2.311-2.306h-1.29c-2.1,0-2.031-.595-2.205-1.427-.2-.933-.485-1.839-.76-2.741-.192-.659-.233-1.121,1.318-2.022l1.126-.654a2.307,2.307,0,0,0,.833-3.152l-1.894-3.253a2.307,2.307,0,0,0-3.153-.833l-1.135.659c-1.652.961-2.283.256-2.475.055-.677-.7-1.35-1.409-2.073-2.054-.261-.233-.631-.892.215-2.352l.718-1.231a2.322,2.322,0,0,0-.833-3.157l-3.253-1.894a2.319,2.319,0,0,0-3.157.837l-.714,1.231c-.86,1.478-1.707,1.418-2.064,1.308-1.039-.33-2-.549-3.065-.824-.389-.1-1.062-.389-1.062-2.15v-1.318a2.312,2.312,0,0,0-2.311-2.306h-3.761a2.308,2.308,0,0,0-2.306,2.306v1.318c0,1.761-.668,2.05-1.061,2.15-1.071.275-2.027.494-3.066.824-.357.11-1.2.169-2.063-1.308l-.718-1.231a2.308,2.308,0,0,0-3.148-.837Zm14.248,13.479a14.765,14.765,0,1,1-14.769,14.765,14.766,14.766,0,0,1,14.769-14.765Zm0-3.688a18.455,18.455,0,1,1-18.457,18.452A18.452,18.452,0,0,1,875.906,1139.714Z" transform="translate(-844.482 -1126.701)" fill="#e8e8e8" fill-rule="evenodd"/>
        </g>
        <g id="Grupo_1026645" data-name="Grupo 1026645" transform="translate(699.476 367.158)">
          <path id="Trazado_724339" data-name="Trazado 724339" d="M1262.417,1388.011h50.375a5.66,5.66,0,0,1,5.641,5.646v30.4a5.659,5.659,0,0,1-5.641,5.641h-67.277l11.255-9.164v-26.876A5.661,5.661,0,0,1,1262.417,1388.011Z" transform="translate(-1245.515 -1388.011)" fill="#4db1f0" fill-rule="evenodd"/>
        </g>
        <g id="Grupo_1026646" data-name="Grupo 1026646" transform="translate(718.18 374.94)">
          <path id="Trazado_724340" data-name="Trazado 724340" d="M1388.068,1446.664h43.59a1.591,1.591,0,0,1,1.588,1.588h0a1.592,1.592,0,0,1-1.588,1.588h-43.59a1.591,1.591,0,0,1-1.588-1.588h0a1.591,1.591,0,0,1,1.588-1.588Zm0,22.946h43.59a1.591,1.591,0,0,1,1.588,1.588h0a1.591,1.591,0,0,1-1.588,1.588h-43.59a1.591,1.591,0,0,1-1.588-1.588h0a1.591,1.591,0,0,1,1.588-1.588Zm0-7.65h43.59a1.592,1.592,0,0,1,1.588,1.592h0a1.59,1.59,0,0,1-1.588,1.583h-43.59a1.59,1.59,0,0,1-1.588-1.583h0a1.592,1.592,0,0,1,1.588-1.592Zm0-7.65h43.59a1.6,1.6,0,0,1,1.588,1.592h0a1.591,1.591,0,0,1-1.588,1.583h-43.59a1.591,1.591,0,0,1-1.588-1.583h0A1.6,1.6,0,0,1,1388.068,1454.309Z" transform="translate(-1386.48 -1446.664)" fill="#fff" fill-rule="evenodd"/>
        </g>
        <g id="Grupo_1026647" data-name="Grupo 1026647" transform="translate(707.483 332.961)">
          <path id="Trazado_724341" data-name="Trazado 724341" d="M1343.112,1130.287h-29.429a7.824,7.824,0,1,0,0,15.648h73.545c-3.651,0-6.634-3.523-6.634-7.824s2.983-7.824,6.634-7.824h-44.116Z" transform="translate(-1305.859 -1130.287)" fill="#9fd1f1" fill-rule="evenodd"/>
        </g>
        <g id="Grupo_1026648" data-name="Grupo 1026648" transform="translate(704.555 231.964)">
          <path id="Trazado_724342" data-name="Trazado 724342" d="M1286.719,477.94a7.85,7.85,0,0,1,7.824-7.824h25.238l47.126,0c.064,0,.119,0,.183,0h1c-3.651,0-6.634,3.523-6.634,7.824s2.983,7.824,6.634,7.824h-73.545a7.85,7.85,0,0,1-7.824-7.824Zm37.253-108.821h-29.8a10.411,10.411,0,0,0-10.381,10.379v98.853a9.627,9.627,0,0,0,9.6,9.6h73.517a4.438,4.438,0,0,0,4.424-4.429V373.644a4.538,4.538,0,0,0-4.525-4.525Z" transform="translate(-1283.791 -369.119)" fill="#12263f" fill-rule="evenodd"/>
        </g>
        <g id="Grupo_1026649" data-name="Grupo 1026649" transform="translate(725.912 341.114)">
          <path id="Trazado_724343" data-name="Trazado 724343" d="M1444.755,1191.735h11.173v18.814l-5.5-5.449-5.678,5.449Z" transform="translate(-1444.755 -1191.735)" fill="#f59b1d" fill-rule="evenodd"/>
        </g>
        <g id="Grupo_1026650" data-name="Grupo 1026650" transform="translate(714.936 231.964)">
          <path id="Trazado_724344" data-name="Trazado 724344" d="M1435.947,470.116q2.958-1.05,3.244-3.578V373.644a4.538,4.538,0,0,0-4.525-4.525h-72.634v101h25.609l47.126,0,.183,0Z" transform="translate(-1362.031 -369.119)" fill="#3076b6" fill-rule="evenodd"/>
        </g>
        <g id="Grupo_1026651" data-name="Grupo 1026651" transform="translate(732.615 236.275)">
          <path id="Trazado_724345" data-name="Trazado 724345" d="M1509.951,409.536a37.857,37.857,0,0,1,50.8,55.824l.179.231a2.154,2.154,0,0,1-.384,3.015l-6.072,4.7a2.156,2.156,0,0,1-3.015-.384l-.179-.229a37.857,37.857,0,0,1-41.325-63.156Zm3.23,4.177a32.574,32.574,0,1,0,45.7,5.813A32.576,32.576,0,0,0,1513.181,413.714Z" transform="translate(-1495.268 -401.611)" fill="#12263f" fill-rule="evenodd"/>
        </g>
        <g id="Grupo_1026652" data-name="Grupo 1026652" transform="translate(791.816 303.271)">
          <path id="Trazado_724346" data-name="Trazado 724346" d="M1947.514,906.53l11.827,15.273-6.067,4.7-11.832-15.273Z" transform="translate(-1941.442 -906.53)" fill="#afafaf" fill-rule="evenodd"/>
        </g>
        <g id="Grupo_1026653" data-name="Grupo 1026653" transform="translate(802.814 318.098)">
          <path id="Trazado_724347" data-name="Trazado 724347" d="M2025.161,1023.413l6.067-4.7a2.158,2.158,0,0,1,3.015.384l29.749,38.42a2.154,2.154,0,0,1-.385,3.02l-6.067,4.7a2.152,2.152,0,0,1-3.015-.384l-29.749-38.419A2.155,2.155,0,0,1,2025.161,1023.413Z" transform="translate(-2024.327 -1018.268)" fill="#12263f" fill-rule="evenodd"/>
        </g>
        <g id="Grupo_1026654" data-name="Grupo 1026654" transform="translate(630.552 406.89)">
          <path id="Trazado_724348" data-name="Trazado 724348" d="M733.384,1695.674c-3.551-1.254-3.834-3.084-5.747-3.971s-2.146-2.507-.265-4.246c1.391,1.112,3.12,2.48,4.035,1.757.609-.485,2.681-.453,3.088.252,1.8,4.191,4.31,2.86,4.8,4.772C739.359,1696.772,735.012,1696.246,733.384,1695.674Z" transform="translate(-726.073 -1687.457)" fill="#12263f" fill-rule="evenodd"/>
        </g>
        <g id="Grupo_1026655" data-name="Grupo 1026655" transform="translate(652.925 409.505)">
          <path id="Trazado_724349" data-name="Trazado 724349" d="M910.1,1712.9c-6.552-.11-11.448-.187-13.713-.9-2.439-.773-1.935-2.26-.535-4.644,6.177,2.846,4.53-.581,7.421-.146q3.04,2.45,9.014,3.285C913.975,1711.733,913.289,1712.836,910.1,1712.9Z" transform="translate(-894.685 -1707.165)" fill="#12263f" fill-rule="evenodd"/>
        </g>
        <g id="Grupo_1026656" data-name="Grupo 1026656" transform="translate(645.706 235.538)">
          <path id="Trazado_724350" data-name="Trazado 724350" d="M840.276,416.759c1.043.073,2.69-.126,2.983-.5a13.235,13.235,0,0,0,2.173-3.818c-.22-.618-.444-1.4-.682-2.343q-6.053-4.108-1.656-6.078a7.8,7.8,0,0,1,2.2,3.059,1.793,1.793,0,0,0,1.588-1.071,53.086,53.086,0,0,1-1.624-7.026c1.99-2.951,6.63-3.372,12.784-2.576.288,1.638.517,3.372.7,5.2,1.089,1,.952,4.717-.055,9q.755,3.651-4.507,3.985a9.469,9.469,0,0,0,.087,2.043,1.513,1.513,0,0,0,.833.522h0Q855.272,423.189,840.276,416.759Z" transform="translate(-840.276 -396.056)" fill="#fab688" fill-rule="evenodd"/>
        </g>
        <g id="Grupo_1026657" data-name="Grupo 1026657" transform="translate(642.079 228.384)">
          <path id="Trazado_724351" data-name="Trazado 724351" d="M834.336,349.644c-6.154-.8-10.793-.375-12.784,2.576a53.1,53.1,0,0,0,1.624,7.026,1.8,1.8,0,0,1-1.588,1.071,7.8,7.8,0,0,0-2.2-3.059q-4.392,1.97,1.656,6.078c.238.943.462,1.725.682,2.343-3.628-.814-6.662-4.056-7.087-5.458-4.232-8.339.485-11.862,3.011-13.145,1.116-8.259,13.1-.959,19.111-4.939C839.149,345.435,836.2,349.571,834.336,349.644Z" transform="translate(-812.943 -342.136)" fill="#733e19" fill-rule="evenodd"/>
        </g>
        <g id="Grupo_1026658" data-name="Grupo 1026658" transform="translate(627.926 256.239)">
          <path id="Trazado_724352" data-name="Trazado 724352" d="M778.736,566.693q-4.564,19.553-16.037,30.346a14.347,14.347,0,0,1-7.339-5.653q.165,14.141-.7,28.15-8.38,3.967-22.246-.513l-3.747-4.619c-.961-.188-3.148.876-4.2,2.5-8.78-6.7-14.7-13.9-18.192-21.049q1.414-23.05,6.264-36.374,2.45-3.771,11.516-7.412,15,6.431,14.824.4a90.621,90.621,0,0,1,11.7,5.124q6.081,4.619,10.359,25.044,6.959-8.723,14.44-18.494a7.027,7.027,0,0,1,3.354,2.551ZM726.646,610.24q4.365-14.354-4.823-35.416-2.306,10.394-5,20.457Q719.943,596.763,726.646,610.24Z" transform="translate(-706.276 -552.066)" fill="#f59b1d" fill-rule="evenodd"/>
        </g>
        <g id="Grupo_1026659" data-name="Grupo 1026659" transform="translate(632.268 321.074)">
          <path id="Trazado_724353" data-name="Trazado 724353" d="M753.939,1046.512q2.128-.164,6.854-3.688,13.87,4.482,22.245.513c.988,15.721-2.873,32.2-7.778,50.567-4.8,8.067-4.594,13.735-7.156,32.339q-2.128,1.523-7.046-.439c-1.034-15.863-.32-26.368,3.8-32.289-.645-5.321,1.043-18.4,1.116-26.606-2.992,6.68-5.051,15.7-8.95,24.808a203.045,203.045,0,0,0-10.569,33.785,11.593,11.593,0,0,1-7.453-.911q3.994-26.69,8.849-36.745-.185-26.245,5-47.145A17.83,17.83,0,0,1,753.939,1046.512Z" transform="translate(-739 -1040.701)" fill="#12263f" fill-rule="evenodd"/>
        </g>
        <g id="Grupo_1026660" data-name="Grupo 1026660" transform="translate(646.118 318.557)">
          <path id="Trazado_724354" data-name="Trazado 724354" d="M851.322,1026.371q-4.722,3.521-6.854,3.688a17.831,17.831,0,0,0-1.089-5.811c1.048-1.62,3.235-2.683,4.2-2.5Z" transform="translate(-843.379 -1021.731)" fill="#fab688" fill-rule="evenodd"/>
        </g>
        <g id="Grupo_1026661" data-name="Grupo 1026661" transform="translate(674.805 273.037)">
          <path id="Trazado_724355" data-name="Trazado 724355" d="M1061.79,701.191a144.134,144.134,0,0,0-2.205-22.522q4.447,18.657,8.611,24.762,2.635-.086,6.671-3.123a46.521,46.521,0,0,1-5.738,6.536A14.346,14.346,0,0,1,1061.79,701.191Z" transform="translate(-1059.585 -678.669)" fill="#ea7924" fill-rule="evenodd"/>
        </g>
        <g id="Grupo_1026662" data-name="Grupo 1026662" transform="translate(643.473 278.996)">
          <path id="Trazado_724356" data-name="Trazado 724356" d="M830.288,763.164A36.948,36.948,0,0,0,828.271,759q4.365-14.354-4.823-35.416,13.356,18.987,7.577,40.49Z" transform="translate(-823.448 -723.582)" fill="#ea7924" fill-rule="evenodd"/>
        </g>
        <g id="Grupo_1026663" data-name="Grupo 1026663" transform="translate(655.57 253.228)">
          <path id="Trazado_724357" data-name="Trazado 724357" d="M914.62,529.377a10.319,10.319,0,0,0,4.04.849,12.839,12.839,0,0,0,.027,1.661A6.349,6.349,0,0,1,914.62,529.377Z" transform="translate(-914.62 -529.377)" fill="#ed7d57" fill-rule="evenodd"/>
        </g>
        <g id="Grupo_1026664" data-name="Grupo 1026664" transform="translate(632.304 405.234)">
          <path id="Trazado_724358" data-name="Trazado 724358" d="M761.691,1679.71a9.853,9.853,0,0,0,.371-3.5q3.747,1.345,5.724.467a6.159,6.159,0,0,0,.316,2.572c-2.274-.083-1.24,2.677-6.41.462Zm-16.517-1.538a3.231,3.231,0,0,0-2.315.215c-.824.645-2.288-.38-3.583-1.4a13.892,13.892,0,0,0,.554-2.018,11.424,11.424,0,0,0,4.9.874A4.715,4.715,0,0,0,745.174,1678.173Z" transform="translate(-739.276 -1674.975)" fill="#fab688" fill-rule="evenodd"/>
        </g>
        <g id="Grupo_1026666" data-name="Grupo 1026666" transform="translate(697.032 257.01)">
          <path id="Trazado_724360" data-name="Trazado 724360" d="M1230.455,571.734c.188-.462.938-1.913,1.675-3.722q2.738-1.414,4.379-6.156a5.506,5.506,0,0,0-4.136-3.978,11.481,11.481,0,0,1-3.185,5.781q.522-4.1-1.354-2.571a1.807,1.807,0,0,1,.027,1.327q-1.269,2.076.229,4.726c-.385.8-.8,1.606-.988,2.043A7.359,7.359,0,0,1,1230.455,571.734Z" transform="translate(-1227.101 -557.877)" fill="#fab688" fill-rule="evenodd"/>
        </g>
        <g id="Grupo_1026667" data-name="Grupo 1026667" transform="translate(737.898 241.56)">
          <path id="Trazado_724361" data-name="Trazado 724361" d="M1547.717,448.259a32.578,32.578,0,1,0,21.788-6.765A32.576,32.576,0,0,0,1547.717,448.259Z" transform="translate(-1535.087 -441.441)" fill="#9fd1f1" fill-rule="evenodd"/>
        </g>
        <g id="Grupo_1026668" data-name="Grupo 1026668" transform="translate(760.072 251.771)">
          <path id="Trazado_724362" data-name="Trazado 724362" d="M1707.07,523.859a5.22,5.22,0,0,1,1.62-3.857,5.329,5.329,0,0,1,3.885-1.608,5.089,5.089,0,0,1,3.779,1.583,5.351,5.351,0,0,1,1.542,3.882,5.416,5.416,0,0,1-1.565,3.9,5.106,5.106,0,0,1-3.82,1.622,5.172,5.172,0,0,1-3.857-1.622,5.359,5.359,0,0,1-1.583-3.9Zm-4.4,39.259v-2.354h4.63v-25.9h-5.1l.041-2.354c2.837-.078,5.568-.2,8.213-.352s5.207-.352,7.677-.59v29.193H1723v2.354Z" transform="translate(-1702.202 -518.394)" fill="#12263f" fill-rule="evenodd"/>
        </g>
        <g id="Grupo_1026678" data-name="Grupo 1026678" transform="translate(337.216 -0.501)">
          <path id="Trazado_724324" data-name="Trazado 724324" d="M1.468.8a.771.771,0,0,1-.734.8A.771.771,0,0,1,0,.8.771.771,0,0,1,.734,0,.771.771,0,0,1,1.468.8Z" transform="matrix(0.985, -0.174, 0.174, 0.985, 320.514, 242.263)"/>
          <path id="Trazado_724328" data-name="Trazado 724328" d="M1.468.8A.771.771,0,0,0,.734,0,.77.77,0,0,0,0,.8a.77.77,0,0,0,.734.8A.77.77,0,0,0,1.468.8Z" transform="matrix(-0.985, -0.174, 0.174, -0.985, 326.737, 243.264)"/>
          <path id="Trazado_724325" data-name="Trazado 724325" d="M3.486,0a.765.765,0,0,1,.346.059.294.294,0,0,1,.175.282.314.314,0,0,1-.1.173A1.062,1.062,0,0,1,3.5.731q-.916.317-1.849.589a6.615,6.615,0,0,1-.938.219c-.28.039-.841,0-.686-.419C.142.808.782.6,1.058.484A6.161,6.161,0,0,1,3.488,0Z" transform="matrix(0.985, -0.174, 0.174, 0.985, 318.814, 239.93)"/>
          <path id="Trazado_724329" data-name="Trazado 724329" d="M3.486,1.549a.766.766,0,0,0,.346-.059.294.294,0,0,0,.175-.282.313.313,0,0,0-.1-.173A1.06,1.06,0,0,0,3.5.819Q2.583.5,1.651.23A6.594,6.594,0,0,0,.712.012c-.28-.039-.84,0-.686.419.116.311.756.517,1.032.635a6.159,6.159,0,0,0,2.43.484Z" transform="matrix(-0.985, -0.174, 0.174, -0.985, 328.447, 240.878)"/>
          <path id="Trazado_724326" data-name="Trazado 724326" d="M0,0V.01A1.089,1.089,0,0,0,1.089,1.1,1.089,1.089,0,0,0,2.178.01V0Z" transform="matrix(0.985, -0.174, 0.174, 0.985, 324.01, 244.693)" fill="#f17d6f"/>
          <path id="Trazado_724327" data-name="Trazado 724327" d="M0,0A16.326,16.326,0,0,0,4.51.258S3.552,2.848,1.933,2.7,0,0,0,0Z" transform="matrix(0.985, -0.174, 0.174, 0.985, 322.105, 248.609)" fill="#fff"/>
        </g>
      </g>
    </g>
  </g>
</svg>
