<svg xmlns="http://www.w3.org/2000/svg" width="131" height="131" viewBox="0 0 131 131">
  <g id="Grupo_1027600" data-name="Grupo 1027600" transform="translate(-285 -1996)">
    <path id="Trazado_723226" data-name="Trazado 723226" d="M65.5,0A65.5,65.5,0,1,1,0,65.5,65.5,65.5,0,0,1,65.5,0Z" transform="translate(285 1996)" fill="#3076b6"/>
    <path id="Trazado_716418" data-name="Trazado 716418" d="M118.688,93.25h-2.375V77.609a3.542,3.542,0,0,0-1.044-2.52L113.375,73.2a3.554,3.554,0,0,0-.686-4.043l-3.358-3.358a3.648,3.648,0,0,0-5.038,0,3.561,3.561,0,0,0,0,5.037l3.358,3.359a3.518,3.518,0,0,0,4.044.684l1.894,1.894a1.184,1.184,0,0,1,.348.841V93.25h-7.125V80.188A8.322,8.322,0,0,0,98.5,71.875H96.1a11.875,11.875,0,1,0-14.191,0H79.5a8.322,8.322,0,0,0-8.312,8.313V93.25H64.063V77.609a1.184,1.184,0,0,1,.348-.841L66.3,74.875a3.519,3.519,0,0,0,4.045-.684l3.358-3.359a3.564,3.564,0,0,0,0-5.037,3.647,3.647,0,0,0-5.039,0l-3.359,3.358a3.556,3.556,0,0,0-.685,4.043L62.731,75.09a3.537,3.537,0,0,0-1.044,2.52V93.25H59.313A1.187,1.187,0,0,0,58.153,94.7l4.814,21.375a1.188,1.188,0,0,0,1.159.926h49.748a1.189,1.189,0,0,0,1.159-.926L119.848,94.7a1.188,1.188,0,0,0-1.16-1.448Zm-9.357-20.739-3.358-3.359h0a1.187,1.187,0,1,1,1.679-1.678l3.36,3.358a1.188,1.188,0,0,1-1.681,1.68Zm-42.342-1.68,3.359-3.358a1.187,1.187,0,1,1,1.679,1.678h0l-3.358,3.359a1.188,1.188,0,0,1-1.68-1.68Zm37.45,9.356V93.25H99.688V87.313a1.188,1.188,0,0,0-2.375,0V93.25H91.867L93.4,91.715a1.188,1.188,0,0,0,.306-1.152l-3.381-12.4,3.914-3.915H98.5A5.945,5.945,0,0,1,104.438,80.188ZM90.883,74.25,89,76.133,87.117,74.25ZM89,82.326l2.235,8.2L89,92.758l-2.235-2.236ZM79.5,62.375a9.5,9.5,0,1,1,9.5,9.5A9.511,9.511,0,0,1,79.5,62.375ZM73.563,80.188A5.944,5.944,0,0,1,79.5,74.25h4.258l3.915,3.915-3.381,12.4a1.188,1.188,0,0,0,.306,1.152l1.534,1.535H80.688V87.313a1.188,1.188,0,0,0-2.375,0V93.25h-4.75Zm2.806,34.438v-9.5H101.63v9.5Zm36.554,0H104V103.938a1.188,1.188,0,0,0-1.187-1.188H75.181a1.188,1.188,0,0,0-1.187,1.188v10.687H65.075l-4.278-19H117.2Z" transform="translate(261 1983)" fill="#fff"/>
    <path id="Trazado_716419" data-name="Trazado 716419" d="M119.875,41H103.25a2.377,2.377,0,0,0-2.375,2.375V55.25a2.377,2.377,0,0,0,2.375,2.375h2.375v3.563a1.188,1.188,0,0,0,1.847.988l6.825-4.55h5.578a2.377,2.377,0,0,0,2.375-2.375V43.375A2.377,2.377,0,0,0,119.875,41Zm0,14.25h-5.937a1.2,1.2,0,0,0-.66.2L108,58.968V56.438a1.188,1.188,0,0,0-1.188-1.187H103.25V43.375h16.625Z" transform="translate(261 1983)" fill="#fff"/>
    <path id="Trazado_716420" data-name="Trazado 716420" d="M70.528,62.175a1.187,1.187,0,0,0,1.847-.988V57.625H74.75a2.377,2.377,0,0,0,2.375-2.375V43.375A2.377,2.377,0,0,0,74.75,41H58.125a2.377,2.377,0,0,0-2.375,2.375V55.25a2.377,2.377,0,0,0,2.375,2.375H63.7Zm-12.4-18.8,16.625,0V55.25H71.188A1.188,1.188,0,0,0,70,56.438v2.531L64.722,55.45a1.2,1.2,0,0,0-.659-.2H58.125Z" transform="translate(261 1983)" fill="#fff"/>
  </g>
</svg>
