<svg xmlns="http://www.w3.org/2000/svg" width="131" height="131" viewBox="0 0 131 131">
  <g id="Grupo_1027601" data-name="Grupo 1027601" transform="translate(-285 -2141)">
    <circle id="Elipse_8476" data-name="Elipse 8476" cx="65.5" cy="65.5" r="65.5" transform="translate(285 2141)" fill="#3076b6"/>
    <path id="Trazado_716425" data-name="Trazado 716425" d="M114.524,285a11.425,11.425,0,0,0-7.3,2.629l-4.637-4.637a15.276,15.276,0,0,0,0-20.03l4.637-4.637a11.489,11.489,0,1,0-1.546-1.546l-4.637,4.638a15.273,15.273,0,0,0-20.03,0l-4.664-4.664A11.495,11.495,0,1,0,74.8,258.3l4.66,4.659a15.274,15.274,0,0,0,0,20.03L74.8,287.65a11.485,11.485,0,1,0,1.541,1.55l4.664-4.664a15.273,15.273,0,0,0,20.03,0l4.637,4.638A11.472,11.472,0,1,0,114.524,285Zm0-26.232a9.235,9.235,0,0,1-5.309-1.673l.012-2.026a5.3,5.3,0,0,1,2.535-4.518,5.072,5.072,0,0,0,5.524,0,5.308,5.308,0,0,1,2.535,4.528l.019,2.011A9.237,9.237,0,0,1,114.524,258.767Zm-2.9-12.485a2.9,2.9,0,1,1,2.9,2.9A2.9,2.9,0,0,1,111.623,246.282Zm-6.39,3.2a9.291,9.291,0,1,1,16.772,5.5,7.492,7.492,0,0,0-3.159-6.018,5.087,5.087,0,1,0-8.644,0,7.49,7.49,0,0,0-3.16,6.018A9.239,9.239,0,0,1,105.233,249.477Zm-37.757,9.29a9.234,9.234,0,0,1-5.309-1.673l.012-2.026a5.3,5.3,0,0,1,2.535-4.518,5.071,5.071,0,0,0,5.523,0,5.307,5.307,0,0,1,2.535,4.528l.019,2.011A9.235,9.235,0,0,1,67.477,258.767Zm-2.9-12.485a2.9,2.9,0,1,1,2.9,2.9A2.9,2.9,0,0,1,64.576,246.282Zm7.223,2.677a5.087,5.087,0,1,0-8.644,0,7.49,7.49,0,0,0-3.159,6.018,9.291,9.291,0,1,1,14.963,0A7.493,7.493,0,0,0,71.8,248.959Zm-4.322,56.807a9.234,9.234,0,0,1-5.309-1.673l.012-2.026a5.3,5.3,0,0,1,2.535-4.518,5.071,5.071,0,0,0,5.523,0,5.307,5.307,0,0,1,2.535,4.528l.019,2.011A9.235,9.235,0,0,1,67.477,305.766Zm-2.9-12.485a2.9,2.9,0,1,1,2.9,2.9A2.9,2.9,0,0,1,64.576,293.281Zm12.191,3.194a9.238,9.238,0,0,1-1.809,5.5,7.493,7.493,0,0,0-3.159-6.018,5.087,5.087,0,1,0-8.644,0,7.49,7.49,0,0,0-3.159,6.018,9.289,9.289,0,1,1,16.772-5.5Zm21.908-12.852a13.089,13.089,0,0,1-15.3,0v-3a7.661,7.661,0,0,1,3.884-6.66,6.536,6.536,0,0,0,7.535,0,7.661,7.661,0,0,1,3.884,6.66ZM86.652,268.6a4.372,4.372,0,1,1,4.372,4.372A4.377,4.377,0,0,1,86.652,268.6Zm14.209,13.037v-1.014a9.848,9.848,0,0,0-4.478-8.25,6.558,6.558,0,1,0-10.718,0,9.848,9.848,0,0,0-4.478,8.25v1.014a13.116,13.116,0,1,1,19.674,0Zm13.663,24.125a9.235,9.235,0,0,1-5.309-1.673l.012-2.026a5.3,5.3,0,0,1,2.535-4.518,5.072,5.072,0,0,0,5.524,0,5.308,5.308,0,0,1,2.535,4.528l.019,2.011A9.237,9.237,0,0,1,114.524,305.766Zm-2.9-12.485a2.9,2.9,0,1,1,2.9,2.9A2.9,2.9,0,0,1,111.623,293.281Zm10.382,8.7a7.492,7.492,0,0,0-3.159-6.018,5.087,5.087,0,1,0-8.644,0,7.489,7.489,0,0,0-3.16,6.018,9.291,9.291,0,1,1,14.963,0Z" transform="translate(261 1933)" fill="#fff"/>
  </g>
</svg>
