<svg xmlns="http://www.w3.org/2000/svg" width="131" height="131" viewBox="0 0 131 131">
  <g id="Grupo_1027602" data-name="Grupo 1027602" transform="translate(-285 -2285)">
    <g id="Grupo_1022852" data-name="Grupo 1022852" transform="translate(0 -118)">
      <g id="Grupo_1022856" data-name="Grupo 1022856">
        <circle id="Elipse_8477" data-name="Elipse 8477" cx="65.5" cy="65.5" r="65.5" transform="translate(285 2403)" fill="#3076b6"/>
        <g id="Grupo_1022855" data-name="Grupo 1022855">
          <path id="Trazado_716426" data-name="Trazado 716426" d="M117.667,494.658,115.72,494a2.021,2.021,0,0,1-.824-.523,2.044,2.044,0,0,1-.57-1.423v-2.091l.655-.4a3.965,3.965,0,0,0,1.889-3.365v-6.474a4.369,4.369,0,0,0-4.361-4.367h-3.985a4.37,4.37,0,0,0-4.362,4.367V486.2a3.965,3.965,0,0,0,1.889,3.365l.656.4v2.09a2.072,2.072,0,0,1-.654,1.508,2.045,2.045,0,0,1-.741.439l-1.946.655a7.136,7.136,0,0,0-1.541.735,8.585,8.585,0,0,0-1.744-1.89,1.142,1.142,0,1,0-1.425,1.786,6.32,6.32,0,0,1,1.79,2.291,6.222,6.222,0,0,1,.567,2.605v6.672a1.142,1.142,0,1,0,2.285,0v-6.672a8.487,8.487,0,0,0-.447-2.731,4.823,4.823,0,0,1,1.244-.63l1.946-.655a4.321,4.321,0,0,0,1.012-.495,11.172,11.172,0,0,0,1.855.391l-2,7.071a1.141,1.141,0,0,0,.248,1.073l2.384,2.658a1.142,1.142,0,0,0,.821.379h.029a1.146,1.146,0,0,0,.812-.338l2.635-2.658a1.143,1.143,0,0,0,.28-1.146L111.9,496.03a11.291,11.291,0,0,0,1.928-.46,4.305,4.305,0,0,0,1.163.6l1.945.655a4.863,4.863,0,0,1,3.311,4.613v5.42a1.142,1.142,0,1,0,2.285,0v-5.42A7.144,7.144,0,0,0,117.667,494.658Zm-7.2-.8a8.967,8.967,0,0,1-1.81-.147,4.343,4.343,0,0,0,.332-1.659v-.749a3.9,3.9,0,0,0,3.048,0v.75a4.354,4.354,0,0,0,.291,1.567A8.9,8.9,0,0,1,110.471,493.862Zm-1.947-16.216h3.985a2.08,2.08,0,0,1,2.076,2.081v1.438l-5.419-1.744a1.144,1.144,0,0,0-.879.075l-1.839.96v-.729A2.08,2.08,0,0,1,108.524,477.646Zm-2.076,5.388,2.473-1.291,5.664,1.823V486.2a1.667,1.667,0,0,1-.793,1.414l-2.418,1.474a1.643,1.643,0,0,1-1.715,0l-2.418-1.474a1.668,1.668,0,0,1-.793-1.414Zm3.984,21.4-1.154-1.287,1.167-4.127,1.285,4.105Z" transform="translate(261 2000)" fill="#fff"/>
          <path id="Trazado_716427" data-name="Trazado 716427" d="M95.707,491.489l-.618-.208a2.779,2.779,0,0,1-1.9-2.645v-2.723l.933-.569a4.614,4.614,0,0,0,2.2-3.918v-7.97a5.114,5.114,0,0,0-5.105-5.111H86.314a5.114,5.114,0,0,0-5.106,5.111v7.97a4.616,4.616,0,0,0,2.2,3.918l.934.57v2.722a2.811,2.811,0,0,1-.891,2.049,2.761,2.761,0,0,1-1.008.6l-2.394.807a8.56,8.56,0,0,0-4.339,3.3,7.1,7.1,0,0,0-1.541-.735L72.221,494a2,2,0,0,1-.825-.524,2.045,2.045,0,0,1-.569-1.422v-2.091l.655-.4a3.964,3.964,0,0,0,1.889-3.366v-6.474a4.369,4.369,0,0,0-4.361-4.366H65.025a4.369,4.369,0,0,0-4.361,4.366V486.2a3.965,3.965,0,0,0,1.889,3.366l.655.4v2.09a2.071,2.071,0,0,1-.654,1.508,2.042,2.042,0,0,1-.742.439l-1.945.655A7.145,7.145,0,0,0,55,501.437v5.42a1.143,1.143,0,1,0,2.285,0v-5.42a4.864,4.864,0,0,1,3.311-4.614l1.945-.654a4.337,4.337,0,0,0,1.012-.495,11.152,11.152,0,0,0,1.855.391l-2,7.071a1.142,1.142,0,0,0,.249,1.073l2.383,2.658a1.144,1.144,0,0,0,.822.379h.028a1.145,1.145,0,0,0,.812-.338l2.635-2.658a1.143,1.143,0,0,0,.28-1.146L68.4,496.029a11.211,11.211,0,0,0,1.927-.459,4.288,4.288,0,0,0,1.162.6l1.946.655a4.835,4.835,0,0,1,1.244.631,8.495,8.495,0,0,0-.447,2.731v6.672a1.143,1.143,0,1,0,2.285,0v-6.672a6.254,6.254,0,0,1,4.256-5.93l2.393-.807a5.011,5.011,0,0,0,1.285-.647,13.514,13.514,0,0,0,2.67.541l-2.548,9a1.144,1.144,0,0,0,.249,1.074l2.934,3.272a1.147,1.147,0,0,0,.822.379h.028a1.141,1.141,0,0,0,.811-.338l3.245-3.271a1.144,1.144,0,0,0,.279-1.146l-2.819-9.01a13.555,13.555,0,0,0,2.77-.64,5.064,5.064,0,0,0,1.464.781l.615.207a1.143,1.143,0,0,0,.731-2.166Zm-28.735,2.373a8.97,8.97,0,0,1-1.81-.147,4.354,4.354,0,0,0,.331-1.659v-.75a3.891,3.891,0,0,0,3.049,0v.75a4.349,4.349,0,0,0,.291,1.567A8.9,8.9,0,0,1,66.972,493.862Zm-1.947-16.217H69.01a2.081,2.081,0,0,1,2.076,2.081v1.439l-5.42-1.744a1.144,1.144,0,0,0-.879.075l-1.839.96v-.73A2.081,2.081,0,0,1,65.025,477.645Zm-2.076,5.389,2.473-1.291,5.664,1.823V486.2a1.664,1.664,0,0,1-.793,1.414l-2.417,1.474a1.642,1.642,0,0,1-1.716,0l-2.418-1.474a1.665,1.665,0,0,1-.793-1.414Zm3.985,21.4-1.154-1.287,1.168-4.127,1.285,4.105Zm21.783-13.316a11.248,11.248,0,0,1-2.611-.249,5.092,5.092,0,0,0,.521-2.238V487.3a4.55,4.55,0,0,0,4.281,0v1.341a5.087,5.087,0,0,0,.456,2.111A11.262,11.262,0,0,1,88.717,491.123Zm-2.4-20.493H91.22a2.826,2.826,0,0,1,2.82,2.826v2.134l-7.017-2.258a1.135,1.135,0,0,0-.879.075l-2.65,1.383v-1.334A2.826,2.826,0,0,1,86.314,470.63Zm-2.82,10.8v-4.058l3.284-1.715,7.262,2.338v3.435a2.318,2.318,0,0,1-1.1,1.967l-2.977,1.814a2.285,2.285,0,0,1-2.387,0L84.6,483.393A2.317,2.317,0,0,1,83.494,481.426Zm5.16,22.839-1.706-1.9,1.719-6.074,1.894,6.052Z" transform="translate(261 2000)" fill="#fff"/>
          <path id="Trazado_716428" data-name="Trazado 716428" d="M116.87,455.453V435a5,5,0,0,0-5-5H65.662a5,5,0,0,0-5,5V438.3a1.143,1.143,0,0,0,2.285,0V435a2.716,2.716,0,0,1,2.713-2.713h46.21A2.716,2.716,0,0,1,114.585,435v20.455a2.716,2.716,0,0,1-2.713,2.713H96.512a2.826,2.826,0,0,0-2.6,1.7,5.614,5.614,0,0,1-10.3,0,2.826,2.826,0,0,0-2.6-1.7H65.662a2.716,2.716,0,0,1-2.713-2.713V443.406a1.143,1.143,0,0,0-2.285,0v12.047a5,5,0,0,0,5,5h15.36a.541.541,0,0,1,.5.321,7.9,7.9,0,0,0,6.1,4.666V466a1.143,1.143,0,0,0,2.285,0v-.566a7.9,7.9,0,0,0,6.1-4.666.543.543,0,0,1,.5-.321h15.36A5,5,0,0,0,116.87,455.453Z" transform="translate(261 2000)" fill="#fff"/>
          <path id="Trazado_716429" data-name="Trazado 716429" d="M71.329,440.131h34.877a1.143,1.143,0,1,0,0-2.285H71.329a1.143,1.143,0,1,0,0,2.285Z" transform="translate(261 2000)" fill="#fff"/>
          <path id="Trazado_716430" data-name="Trazado 716430" d="M71.329,446.479h34.877a1.143,1.143,0,1,0,0-2.285H71.329a1.143,1.143,0,1,0,0,2.285Z" transform="translate(261 2000)" fill="#fff"/>
          <path id="Trazado_716431" data-name="Trazado 716431" d="M79.532,450.541a1.143,1.143,0,1,0,0,2.285H98a1.143,1.143,0,1,0,0-2.285Z" transform="translate(261 2000)" fill="#fff"/>
        </g>
      </g>
    </g>
  </g>
</svg>
