<svg xmlns="http://www.w3.org/2000/svg" width="131" height="131" viewBox="0 0 131 131">
  <g id="Grupo_1027598" data-name="Grupo 1027598" transform="translate(-289 -2853)">
    <path id="Trazado_723227" data-name="Trazado 723227" d="M65.5,0A65.5,65.5,0,1,1,0,65.5,65.5,65.5,0,0,1,65.5,0Z" transform="translate(289 2853)" fill="#008b8a"/>
    <g id="Grupo_1022858" data-name="Grupo 1022858" transform="translate(0 -14.035)">
      <path id="Trazado_716447" data-name="Trazado 716447" d="M94.193,83.906V79.334" transform="translate(265 2853)" fill="none" stroke="#fff" stroke-linecap="round" stroke-linejoin="round" stroke-miterlimit="10" stroke-width="2.07"/>
      <path id="Trazado_716448" data-name="Trazado 716448" d="M80.474,79.333v4.573" transform="translate(265 2853)" fill="none" stroke="#fff" stroke-linecap="round" stroke-linejoin="round" stroke-miterlimit="10" stroke-width="2.07"/>
      <g id="Grupo_1013255" data-name="Grupo 1013255" transform="translate(265 2853)">
        <path id="Trazado_716449" data-name="Trazado 716449" d="M80.474,83.906,75.9,86.193l3.994,7.987a1.143,1.143,0,0,0,1.657.44l5.782-3.854Z" fill="none" stroke="#fff" stroke-linecap="round" stroke-linejoin="round" stroke-miterlimit="10" stroke-width="2.07"/>
        <path id="Trazado_716450" data-name="Trazado 716450" d="M94.193,83.906l4.573,2.287L94.772,94.18a1.143,1.143,0,0,1-1.657.44l-5.782-3.854Z" fill="none" stroke="#fff" stroke-linecap="round" stroke-linejoin="round" stroke-miterlimit="10" stroke-width="2.07"/>
        <path id="Trazado_716451" data-name="Trazado 716451" d="M64.468,99.912V95.339c0-5.051,5.238-9.146,10.289-9.146H75.9" fill="none" stroke="#fff" stroke-linecap="round" stroke-linejoin="round" stroke-miterlimit="10" stroke-width="2.07"/>
        <path id="Trazado_716452" data-name="Trazado 716452" d="M98.766,86.193h2.287a9.145,9.145,0,0,1,9.145,9.146v4.573" fill="none" stroke="#fff" stroke-linecap="round" stroke-linejoin="round" stroke-miterlimit="10" stroke-width="2.07"/>
        <path id="Trazado_716453" data-name="Trazado 716453" d="M90.014,99.912l3.1-5.292" fill="none" stroke="#fff" stroke-linecap="round" stroke-linejoin="round" stroke-miterlimit="10" stroke-width="2.07"/>
        <path id="Trazado_716454" data-name="Trazado 716454" d="M81.551,94.621l3.1,5.291" fill="none" stroke="#fff" stroke-linecap="round" stroke-linejoin="round" stroke-miterlimit="10" stroke-width="2.07"/>
        <path id="Trazado_716455" data-name="Trazado 716455" d="M75.9,86.193l-2.175,8.7a.572.572,0,0,0,.3.65l3.14,1.57a.572.572,0,0,1,0,1.023l-3.55,1.775" fill="none" stroke="#fff" stroke-linecap="round" stroke-linejoin="round" stroke-miterlimit="10" stroke-width="2.07"/>
        <path id="Trazado_716456" data-name="Trazado 716456" d="M98.766,86.193l2.175,8.7a.571.571,0,0,1-.3.65l-3.14,1.57a.572.572,0,0,0,0,1.023l3.55,1.775" fill="none" stroke="#fff" stroke-linecap="round" stroke-linejoin="round" stroke-miterlimit="10" stroke-width="2.07"/>
        <path id="Trazado_716457" data-name="Trazado 716457" d="M75.9,61.041H73.614a2.287,2.287,0,0,0-2.287,2.286V67.9a2.287,2.287,0,0,0,2.287,2.287H75.9" fill="none" stroke="#fff" stroke-linecap="round" stroke-linejoin="round" stroke-miterlimit="10" stroke-width="2.07"/>
        <path id="Trazado_716458" data-name="Trazado 716458" d="M75.9,61.041v9.147a11.433,11.433,0,0,0,22.865,0V61.041" fill="none" stroke="#fff" stroke-linecap="round" stroke-linejoin="round" stroke-miterlimit="10" stroke-width="2.07"/>
        <path id="Trazado_716459" data-name="Trazado 716459" d="M98.766,70.187h2.287a2.287,2.287,0,0,0,2.286-2.287V63.327a2.287,2.287,0,0,0-2.286-2.286H98.766" fill="none" stroke="#fff" stroke-linecap="round" stroke-linejoin="round" stroke-miterlimit="10" stroke-width="2.07"/>
        <path id="Trazado_716460" data-name="Trazado 716460" d="M73.614,61.041v-6.86a4.573,4.573,0,0,1,4.573-4.573" fill="none" stroke="#fff" stroke-linecap="round" stroke-linejoin="round" stroke-miterlimit="10" stroke-width="2.07"/>
        <path id="Trazado_716461" data-name="Trazado 716461" d="M78.187,49.608a4.573,4.573,0,0,1,4.573-4.573h9.146a9.146,9.146,0,0,1,9.147,9.146v6.86" fill="none" stroke="#fff" stroke-linecap="round" stroke-linejoin="round" stroke-miterlimit="10" stroke-width="2.07"/>
        <path id="Trazado_716462" data-name="Trazado 716462" d="M80.474,56.468A4.573,4.573,0,0,1,75.9,61.041" fill="none" stroke="#fff" stroke-linecap="round" stroke-linejoin="round" stroke-miterlimit="10" stroke-width="2.07"/>
        <path id="Trazado_716463" data-name="Trazado 716463" d="M98.766,61.041a4.573,4.573,0,0,1-4.573-4.573" fill="none" stroke="#fff" stroke-linecap="round" stroke-linejoin="round" stroke-miterlimit="10" stroke-width="2.07"/>
        <path id="Trazado_716464" data-name="Trazado 716464" d="M82.76,65.614v1.143" fill="none" stroke="#fff" stroke-linecap="round" stroke-linejoin="round" stroke-miterlimit="10" stroke-width="2.07"/>
        <path id="Trazado_716465" data-name="Trazado 716465" d="M91.907,65.614v1.143" fill="none" stroke="#fff" stroke-linecap="round" stroke-linejoin="round" stroke-miterlimit="10" stroke-width="2.07"/>
        <path id="Trazado_716466" data-name="Trazado 716466" d="M79.33,56.468H95.336" fill="none" stroke="#fff" stroke-linecap="round" stroke-linejoin="round" stroke-miterlimit="10" stroke-width="2.07"/>
        <path id="Trazado_716467" data-name="Trazado 716467" d="M89.313,71.33a2.286,2.286,0,0,1-3.959,0" fill="none" stroke="#fff" stroke-linecap="round" stroke-linejoin="round" stroke-miterlimit="10" stroke-width="2.07"/>
        <path id="Trazado_716468" data-name="Trazado 716468" d="M120.527,104.485H54.139a1.1,1.1,0,0,1-1.1-1.1v-2.365a1.1,1.1,0,0,1,1.1-1.1h66.388a1.1,1.1,0,0,1,1.1,1.1v2.365A1.1,1.1,0,0,1,120.527,104.485Z" fill="none" stroke="#fff" stroke-linecap="round" stroke-linejoin="round" stroke-miterlimit="10" stroke-width="2.07"/>
        <path id="Trazado_716469" data-name="Trazado 716469" d="M64.468,109.058H57.53a2.208,2.208,0,0,1-2.208-2.208v-2.365h9.146Z" fill="none" stroke="#fff" stroke-linecap="round" stroke-linejoin="round" stroke-miterlimit="10" stroke-width="2.07"/>
        <path id="Trazado_716470" data-name="Trazado 716470" d="M117.136,109.058H110.2v-4.573h9.146v2.365A2.209,2.209,0,0,1,117.136,109.058Z" fill="none" stroke="#fff" stroke-linecap="round" stroke-linejoin="round" stroke-miterlimit="10" stroke-width="2.07"/>
        <path id="Trazado_716471" data-name="Trazado 716471" d="M64.468,109.058H110.2" fill="none" stroke="#fff" stroke-linecap="round" stroke-linejoin="round" stroke-miterlimit="10" stroke-width="2.07"/>
        <path id="Trazado_716472" data-name="Trazado 716472" d="M66.754,77.047H64.468a2.287,2.287,0,1,0,0,4.573h2.286a2.287,2.287,0,1,0,0-4.573Z" fill="none" stroke="#fff" stroke-linecap="round" stroke-linejoin="round" stroke-miterlimit="10" stroke-width="2.07"/>
        <path id="Trazado_716473" data-name="Trazado 716473" d="M62.181,79.333l-3.8,5.708a4.572,4.572,0,0,0-.768,2.536v7.762" fill="none" stroke="#fff" stroke-linecap="round" stroke-linejoin="round" stroke-miterlimit="10" stroke-width="2.07"/>
        <path id="Trazado_716474" data-name="Trazado 716474" d="M59.895,99.912H55.322V96.443a1.1,1.1,0,0,1,1.1-1.1h2.365a1.1,1.1,0,0,1,1.1,1.1Z" fill="none" stroke="#fff" stroke-linecap="round" stroke-linejoin="round" stroke-miterlimit="10" stroke-width="2.07"/>
        <path id="Trazado_716475" data-name="Trazado 716475" d="M69.448,113.631h44.219a1.1,1.1,0,0,0,1.105-1.1v-3.469H59.895v3.469a1.1,1.1,0,0,0,1.1,1.1h3.618" fill="none" stroke="#fff" stroke-linecap="round" stroke-linejoin="round" stroke-miterlimit="10" stroke-width="2.07"/>
        <path id="Trazado_716476" data-name="Trazado 716476" d="M115.915,48.465a3.43,3.43,0,1,1-3.43-3.43A3.43,3.43,0,0,1,115.915,48.465Z" fill="none" stroke="#fff" stroke-linecap="round" stroke-linejoin="round" stroke-miterlimit="10" stroke-width="2.07"/>
        <path id="Trazado_716477" data-name="Trazado 716477" d="M114.772,99.912V88.479" fill="none" stroke="#fff" stroke-linecap="round" stroke-linejoin="round" stroke-miterlimit="10" stroke-width="2.07"/>
        <path id="Trazado_716478" data-name="Trazado 716478" d="M110.2,84.821V99.912" fill="none" stroke="#fff" stroke-linecap="round" stroke-linejoin="round" stroke-miterlimit="10" stroke-width="2.07"/>
        <path id="Trazado_716479" data-name="Trazado 716479" d="M110.2,51.021V61.5" fill="none" stroke="#fff" stroke-linecap="round" stroke-linejoin="round" stroke-miterlimit="10" stroke-width="2.07"/>
        <path id="Trazado_716480" data-name="Trazado 716480" d="M114.772,56.468l6.307,18.922a2.287,2.287,0,0,1-.9,2.626l-5.406,3.6" fill="none" stroke="#fff" stroke-linecap="round" stroke-linejoin="round" stroke-miterlimit="10" stroke-width="2.07"/>
        <path id="Trazado_716481" data-name="Trazado 716481" d="M105.509,73.691l-.969,2.52a4.573,4.573,0,0,0,1.412,5.213l8.82,7.056V51.021" fill="none" stroke="#fff" stroke-linecap="round" stroke-linejoin="round" stroke-miterlimit="10" stroke-width="2.07"/>
        <path id="Trazado_716482" data-name="Trazado 716482" d="M114.035,51.525,107.3,69.044" fill="none" stroke="#fff" stroke-linecap="round" stroke-linejoin="round" stroke-miterlimit="10" stroke-width="2.07"/>
      </g>
    </g>
  </g>
</svg>
