<svg xmlns="http://www.w3.org/2000/svg" width="131" height="131" viewBox="0 0 131 131">
  <g id="Grupo_1027599" data-name="Grupo 1027599" transform="translate(-289 -3006)">
    <circle id="Elipse_8480" data-name="Elipse 8480" cx="65.5" cy="65.5" r="65.5" transform="translate(289 3006)" fill="#008b8a"/>
    <g id="Grupo_1022859" data-name="Grupo 1022859" transform="translate(0 -56)">
      <path id="Trazado_716483" data-name="Trazado 716483" d="M80.367,261.667H77.9v2.466h2.467Z" transform="translate(265 2853)" fill="#fff"/>
      <path id="Trazado_716484" data-name="Trazado 716484" d="M80.367,266.6H77.9v2.467h2.467Z" transform="translate(265 2853)" fill="#fff"/>
      <path id="Trazado_716485" data-name="Trazado 716485" d="M80.367,271.533H77.9V274h2.467Z" transform="translate(265 2853)" fill="#fff"/>
      <path id="Trazado_716486" data-name="Trazado 716486" d="M80.367,276.467H77.9v2.466h2.467Z" transform="translate(265 2853)" fill="#fff"/>
      <path id="Trazado_716487" data-name="Trazado 716487" d="M85.3,261.667H82.833v2.466H85.3Z" transform="translate(265 2853)" fill="#fff"/>
      <path id="Trazado_716488" data-name="Trazado 716488" d="M85.3,266.6H82.833v2.467H85.3Z" transform="translate(265 2853)" fill="#fff"/>
      <path id="Trazado_716489" data-name="Trazado 716489" d="M85.3,271.533H82.833V274H85.3Z" transform="translate(265 2853)" fill="#fff"/>
      <path id="Trazado_716490" data-name="Trazado 716490" d="M85.3,276.467H82.833v2.466H85.3Z" transform="translate(265 2853)" fill="#fff"/>
      <path id="Trazado_716491" data-name="Trazado 716491" d="M90.233,261.667H87.767v2.466h2.467Z" transform="translate(265 2853)" fill="#fff"/>
      <path id="Trazado_716492" data-name="Trazado 716492" d="M90.233,266.6H87.767v2.467h2.467Z" transform="translate(265 2853)" fill="#fff"/>
      <path id="Trazado_716493" data-name="Trazado 716493" d="M90.233,271.533H87.767V274h2.467Z" transform="translate(265 2853)" fill="#fff"/>
      <path id="Trazado_716494" data-name="Trazado 716494" d="M90.233,276.467H87.767v2.466h2.467Z" transform="translate(265 2853)" fill="#fff"/>
      <path id="Trazado_716495" data-name="Trazado 716495" d="M95.167,261.667H92.7v2.466h2.467Z" transform="translate(265 2853)" fill="#fff"/>
      <path id="Trazado_716496" data-name="Trazado 716496" d="M85.3,256.733H82.833V259.2H85.3Z" transform="translate(265 2853)" fill="#fff"/>
      <path id="Trazado_716497" data-name="Trazado 716497" d="M90.233,256.733H87.767V259.2h2.467Z" transform="translate(265 2853)" fill="#fff"/>
      <path id="Trazado_716498" data-name="Trazado 716498" d="M95.167,256.733H92.7V259.2h2.467Z" transform="translate(265 2853)" fill="#fff"/>
      <path id="Trazado_716499" data-name="Trazado 716499" d="M95.167,266.6H92.7v2.467h2.467Z" transform="translate(265 2853)" fill="#fff"/>
      <path id="Trazado_716500" data-name="Trazado 716500" d="M95.167,271.533H92.7V274h2.467Z" transform="translate(265 2853)" fill="#fff"/>
      <path id="Trazado_716501" data-name="Trazado 716501" d="M95.167,276.467H92.7v2.466h2.467Z" transform="translate(265 2853)" fill="#fff"/>
      <path id="Trazado_716502" data-name="Trazado 716502" d="M100.1,261.667H97.633v2.466H100.1Z" transform="translate(265 2853)" fill="#fff"/>
      <path id="Trazado_716503" data-name="Trazado 716503" d="M100.1,266.6H97.633v2.467H100.1Z" transform="translate(265 2853)" fill="#fff"/>
      <path id="Trazado_716504" data-name="Trazado 716504" d="M100.1,271.533H97.633V274H100.1Z" transform="translate(265 2853)" fill="#fff"/>
      <path id="Trazado_716505" data-name="Trazado 716505" d="M100.1,276.467H97.633v2.466H100.1Z" transform="translate(265 2853)" fill="#fff"/>
      <path id="Trazado_716506" data-name="Trazado 716506" d="M124.768,255.5h-18.5V238.233A1.233,1.233,0,0,0,105.035,237H72.967a1.233,1.233,0,0,0-1.233,1.232h0V255.5h-18.5A1.233,1.233,0,0,0,52,256.732h0v44.4a1.233,1.233,0,0,0,1.232,1.234h2.58A7.389,7.389,0,0,0,55.7,303.6v6.167A1.232,1.232,0,0,0,56.932,311h64.135a1.233,1.233,0,0,0,1.233-1.232h0V303.6a7.39,7.39,0,0,0-.111-1.233h2.578A1.233,1.233,0,0,0,126,301.135v-44.4A1.233,1.233,0,0,0,124.768,255.5Zm-19.735,34.533a2.466,2.466,0,1,1-2.466-2.466A2.466,2.466,0,0,1,105.033,290.033Zm-29.6-2.466a2.467,2.467,0,1,1-2.467,2.466A2.466,2.466,0,0,1,75.433,287.567Zm-7.4,20.966H58.167V303.6a4.933,4.933,0,0,1,9.867,0Zm-7.4-14.8A2.467,2.467,0,1,1,63.1,296.2,2.466,2.466,0,0,1,60.633,293.733Zm7.587,4.537a7.436,7.436,0,0,0-1.551-1.149,4.933,4.933,0,1,0-7.137,0A7.452,7.452,0,0,0,56.7,299.9H54.467V257.967H71.733V286.8a4.866,4.866,0,0,0,.131,6.617A7.423,7.423,0,0,0,68.22,298.27Zm12.146,10.263H70.5V299.9a4.933,4.933,0,0,1,9.867,0Zm14.8,0H82.833V299.9a6.167,6.167,0,1,1,12.333,0ZM85.3,287.567a3.7,3.7,0,1,1,3.7,3.7A3.7,3.7,0,0,1,85.3,287.567Zm11.211,8.093a8.688,8.688,0,0,0-3.539-3.417,6.167,6.167,0,1,0-7.945,0,8.688,8.688,0,0,0-3.539,3.417A7.452,7.452,0,0,0,79,293.421a4.9,4.9,0,0,0-4.8-8.146V239.467h29.6v45.808a4.85,4.85,0,0,0-1.233-.175A4.92,4.92,0,0,0,99,293.421,7.452,7.452,0,0,0,96.511,295.66ZM107.5,303.6v4.933H97.633V299.9a4.933,4.933,0,0,1,9.867,0Zm12.333,4.933h-9.866V303.6a4.933,4.933,0,1,1,9.866,0Zm-7.4-14.8A2.467,2.467,0,1,1,114.9,296.2,2.467,2.467,0,0,1,112.433,293.733Zm11.1,6.167H121.3a7.455,7.455,0,0,0-2.83-2.779,4.933,4.933,0,1,0-7.138,0,7.425,7.425,0,0,0-1.551,1.149,7.422,7.422,0,0,0-3.645-4.849,4.867,4.867,0,0,0,.132-6.617V257.967h17.266V299.9Z" transform="translate(265 2853)" fill="#fff"/>
      <path id="Trazado_716507" data-name="Trazado 716507" d="M112.433,265.367h-2.466V285.1h2.466Z" transform="translate(265 2853)" fill="#fff"/>
      <path id="Trazado_716508" data-name="Trazado 716508" d="M119.833,265.367h-2.466V285.1h2.466Z" transform="translate(265 2853)" fill="#fff"/>
      <path id="Trazado_716509" data-name="Trazado 716509" d="M60.633,265.367H58.167V285.1h2.467Z" transform="translate(265 2853)" fill="#fff"/>
      <path id="Trazado_716510" data-name="Trazado 716510" d="M68.033,265.367H65.567V285.1h2.467Z" transform="translate(265 2853)" fill="#fff"/>
      <path id="Trazado_716511" data-name="Trazado 716511" d="M96.4,241.933H81.6a1.233,1.233,0,0,0-1.233,1.232v9.868a1.233,1.233,0,0,0,1.232,1.234H96.4a1.233,1.233,0,0,0,1.233-1.232v-9.868A1.233,1.233,0,0,0,96.4,241.933ZM95.167,251.8H82.833v-7.4H95.167Z" transform="translate(265 2853)" fill="#fff"/>
    </g>
  </g>
</svg>
