<svg xmlns="http://www.w3.org/2000/svg" width="131" height="131" viewBox="0 0 131 131">
  <g id="Grupo_1027600" data-name="Grupo 1027600" transform="translate(-289 -3159)">
    <g id="Grupo_1022860" data-name="Grupo 1022860" transform="translate(0 -97)">
      <path id="Trazado_716441" data-name="Trazado 716441" d="M117.667,494.658,115.72,494a2.021,2.021,0,0,1-.824-.523,2.044,2.044,0,0,1-.57-1.423v-2.091l.655-.4a3.965,3.965,0,0,0,1.889-3.365v-6.474a4.369,4.369,0,0,0-4.361-4.367h-3.985a4.37,4.37,0,0,0-4.362,4.367V486.2a3.965,3.965,0,0,0,1.889,3.365l.656.4v2.09a2.072,2.072,0,0,1-.654,1.508,2.045,2.045,0,0,1-.741.439l-1.946.655a7.136,7.136,0,0,0-1.541.735,8.585,8.585,0,0,0-1.744-1.89,1.142,1.142,0,1,0-1.425,1.786,6.32,6.32,0,0,1,1.79,2.291,6.222,6.222,0,0,1,.567,2.605v6.672a1.142,1.142,0,1,0,2.285,0v-6.672a8.487,8.487,0,0,0-.447-2.731,4.823,4.823,0,0,1,1.244-.63l1.946-.655a4.321,4.321,0,0,0,1.012-.495,11.172,11.172,0,0,0,1.855.391l-2,7.071a1.141,1.141,0,0,0,.248,1.073l2.384,2.658a1.142,1.142,0,0,0,.821.379h.029a1.146,1.146,0,0,0,.812-.338l2.635-2.658a1.143,1.143,0,0,0,.28-1.146L111.9,496.03a11.291,11.291,0,0,0,1.928-.46,4.305,4.305,0,0,0,1.163.6l1.945.655a4.863,4.863,0,0,1,3.311,4.613v5.42a1.142,1.142,0,1,0,2.285,0v-5.42A7.144,7.144,0,0,0,117.667,494.658Zm-7.2-.8a8.967,8.967,0,0,1-1.81-.147,4.343,4.343,0,0,0,.332-1.659v-.749a3.9,3.9,0,0,0,3.048,0v.75a4.354,4.354,0,0,0,.291,1.567A8.9,8.9,0,0,1,110.471,493.862Zm-1.947-16.216h3.985a2.08,2.08,0,0,1,2.076,2.081v1.438l-5.419-1.744a1.144,1.144,0,0,0-.879.075l-1.839.96v-.729A2.08,2.08,0,0,1,108.524,477.646Zm-2.076,5.388,2.473-1.291,5.664,1.823V486.2a1.667,1.667,0,0,1-.793,1.414l-2.418,1.474a1.643,1.643,0,0,1-1.715,0l-2.418-1.474a1.668,1.668,0,0,1-.793-1.414Zm3.984,21.4-1.154-1.287,1.167-4.127,1.285,4.105Z" transform="translate(265 2853)" fill="#fff"/>
      <path id="Trazado_716442" data-name="Trazado 716442" d="M95.707,491.489l-.618-.208a2.779,2.779,0,0,1-1.9-2.645v-2.723l.933-.569a4.614,4.614,0,0,0,2.2-3.918v-7.97a5.114,5.114,0,0,0-5.105-5.111H86.314a5.114,5.114,0,0,0-5.106,5.111v7.97a4.616,4.616,0,0,0,2.2,3.918l.934.57v2.722a2.811,2.811,0,0,1-.891,2.049,2.761,2.761,0,0,1-1.008.6l-2.394.807a8.56,8.56,0,0,0-4.339,3.3,7.1,7.1,0,0,0-1.541-.735L72.221,494a2,2,0,0,1-.825-.524,2.045,2.045,0,0,1-.569-1.422v-2.091l.655-.4a3.964,3.964,0,0,0,1.889-3.366v-6.474a4.369,4.369,0,0,0-4.361-4.366H65.025a4.369,4.369,0,0,0-4.361,4.366V486.2a3.965,3.965,0,0,0,1.889,3.366l.655.4v2.09a2.071,2.071,0,0,1-.654,1.508,2.042,2.042,0,0,1-.742.439l-1.945.655A7.145,7.145,0,0,0,55,501.437v5.42a1.143,1.143,0,1,0,2.285,0v-5.42a4.864,4.864,0,0,1,3.311-4.614l1.945-.654a4.337,4.337,0,0,0,1.012-.495,11.152,11.152,0,0,0,1.855.391l-2,7.071a1.142,1.142,0,0,0,.249,1.073l2.383,2.658a1.144,1.144,0,0,0,.822.379h.028a1.145,1.145,0,0,0,.812-.338l2.635-2.658a1.143,1.143,0,0,0,.28-1.146L68.4,496.029a11.211,11.211,0,0,0,1.927-.459,4.288,4.288,0,0,0,1.162.6l1.946.655a4.835,4.835,0,0,1,1.244.631,8.495,8.495,0,0,0-.447,2.731v6.672a1.143,1.143,0,1,0,2.285,0v-6.672a6.254,6.254,0,0,1,4.256-5.93l2.393-.807a5.011,5.011,0,0,0,1.285-.647,13.514,13.514,0,0,0,2.67.541l-2.548,9a1.144,1.144,0,0,0,.249,1.074l2.934,3.272a1.147,1.147,0,0,0,.822.379h.028a1.141,1.141,0,0,0,.811-.338l3.245-3.271a1.144,1.144,0,0,0,.279-1.146l-2.819-9.01a13.555,13.555,0,0,0,2.77-.64,5.064,5.064,0,0,0,1.464.781l.615.207a1.143,1.143,0,0,0,.731-2.166Zm-28.735,2.373a8.97,8.97,0,0,1-1.81-.147,4.354,4.354,0,0,0,.331-1.659v-.75a3.891,3.891,0,0,0,3.049,0v.75a4.349,4.349,0,0,0,.291,1.567A8.9,8.9,0,0,1,66.972,493.862Zm-1.947-16.217H69.01a2.081,2.081,0,0,1,2.076,2.081v1.439l-5.42-1.744a1.144,1.144,0,0,0-.879.075l-1.839.96v-.73A2.081,2.081,0,0,1,65.025,477.645Zm-2.076,5.389,2.473-1.291,5.664,1.823V486.2a1.664,1.664,0,0,1-.793,1.414l-2.417,1.474a1.642,1.642,0,0,1-1.716,0l-2.418-1.474a1.665,1.665,0,0,1-.793-1.414Zm3.985,21.4-1.154-1.287,1.168-4.127,1.285,4.105Zm21.783-13.316a11.248,11.248,0,0,1-2.611-.249,5.092,5.092,0,0,0,.521-2.238V487.3a4.55,4.55,0,0,0,4.281,0v1.341a5.087,5.087,0,0,0,.456,2.111A11.262,11.262,0,0,1,88.717,491.123Zm-2.4-20.493H91.22a2.826,2.826,0,0,1,2.82,2.826v2.134l-7.017-2.258a1.135,1.135,0,0,0-.879.075l-2.65,1.383v-1.334A2.826,2.826,0,0,1,86.314,470.63Zm-2.82,10.8v-4.058l3.284-1.715,7.262,2.338v3.435a2.318,2.318,0,0,1-1.1,1.967l-2.977,1.814a2.285,2.285,0,0,1-2.387,0L84.6,483.393A2.317,2.317,0,0,1,83.494,481.426Zm5.16,22.839-1.706-1.9,1.719-6.074,1.894,6.052Z" transform="translate(265 2853)" fill="#fff"/>
      <circle id="Elipse_8481" data-name="Elipse 8481" cx="65.5" cy="65.5" r="65.5" transform="translate(289 3256)" fill="#008b8a"/>
      <path id="Trazado_716512" data-name="Trazado 716512" d="M94.548,461.8a6.661,6.661,0,0,0-9.927,8.795,6.93,6.93,0,0,1,1.385,4.1v2.637a4,4,0,0,0,7.994,0v-2.638a6.756,6.756,0,0,1,1.336-4.03,6.6,6.6,0,0,0,1.329-3.99,6.685,6.685,0,0,0-2.117-4.871Zm-3.212,15.529a1.332,1.332,0,0,1-2.665,0v-1.306h2.665Zm1.869-8.266a9.42,9.42,0,0,0-1.773,4.3H88.574a9.725,9.725,0,0,0-1.8-4.336,3.955,3.955,0,0,1-.756-2.634,4,4,0,1,1,7.188,2.674Z" transform="translate(265 2853)" fill="#fff"/>
      <path id="Trazado_716516" data-name="Trazado 716516" d="M129.971,468a8.006,8.006,0,0,0-6.806-7.9l-1.1-8.8a12,12,0,1,0-13.446-3.795l-6.409,6.408A18.57,18.57,0,0,0,91.336,449.4v-6.842a6.661,6.661,0,1,0-7.92-7.512l-9.535,3.178A12.007,12.007,0,1,0,69.5,449.386l6.235,6.235a1.458,1.458,0,0,0,.189.156A18.572,18.572,0,0,0,71.4,466.669H65.91a7.994,7.994,0,1,0-7.881,9.326c.1,0,.194,0,.29-.008l2.03,8.121A12,12,0,1,0,71.388,488.5l6.408-6.408a18.615,18.615,0,0,0,24.414,0l6.408,6.408a11.937,11.937,0,0,0-2.325,10.143H96.531a6.662,6.662,0,1,0,0,2.665h10.714a11.988,11.988,0,1,0,12.6-17.174l3.074-8.2A8,8,0,0,0,129.971,468ZM90,503.972a4,4,0,1,1,2.825-1.172A4,4,0,0,1,90,503.972Zm20.5-17.356-6.409-6.408a18.58,18.58,0,0,0,4.514-10.875h5.49a8.01,8.01,0,0,0,6.039,6.445l-3.094,8.25A11.931,11.931,0,0,0,110.5,486.616ZM127.307,468a5.336,5.336,0,1,1-1.563-3.766A5.336,5.336,0,0,1,127.307,468Zm-6.821-7.852a8.011,8.011,0,0,0-6.389,6.52h-5.49a18.572,18.572,0,0,0-4.513-10.875l6.408-6.408a11.9,11.9,0,0,0,8.955,2.534Zm-5.17-20.125a2.668,2.668,0,1,1,.782,1.883A2.672,2.672,0,0,1,115.316,440.024Zm0,5.329h5.329a2.666,2.666,0,0,1,2.642,2.333,9.3,9.3,0,0,1-10.612,0,2.666,2.666,0,0,1,2.641-2.333Zm2.665-14.655a9.321,9.321,0,0,1,7.435,14.948,5.358,5.358,0,0,0-3.009-2.658,5.329,5.329,0,1,0-8.852,0,5.359,5.359,0,0,0-3.009,2.657,9.319,9.319,0,0,1,7.435-14.947ZM90,432.03a4,4,0,1,1-2.825,1.172A3.991,3.991,0,0,1,90,432.03Zm-37.3,7.994a9.326,9.326,0,1,1,16.761,5.622,5.354,5.354,0,0,0-3.009-2.658,5.329,5.329,0,1,0-8.852,0,5.357,5.357,0,0,0-3.009,2.657A9.278,9.278,0,0,1,52.7,440.024Zm6.661,0a2.667,2.667,0,1,1,.781,1.883A2.666,2.666,0,0,1,59.361,440.024Zm-2.642,7.662a2.667,2.667,0,0,1,2.642-2.333H64.69a2.667,2.667,0,0,1,2.642,2.333,9.3,9.3,0,0,1-10.612,0Zm14.669-.184a11.929,11.929,0,0,0,2.585-6.5l9.609-3.2a6.682,6.682,0,0,0,5.089,4.76V449.4a18.58,18.58,0,0,0-10.892,4.528,1.377,1.377,0,0,0-.156-.189ZM52.7,468a5.334,5.334,0,1,1,1.563,3.767A5.332,5.332,0,0,1,52.7,468Zm13.21,1.332H71.4a18.575,18.575,0,0,0,4.513,10.875L69.5,486.616a11.928,11.928,0,0,0-6.427-2.579l-2.148-8.59a8.015,8.015,0,0,0,4.979-6.114Zm-9.19,34.309a2.666,2.666,0,0,1,2.642-2.334H64.69a2.666,2.666,0,0,1,2.642,2.334,9.3,9.3,0,0,1-10.612,0Zm2.642-7.663a2.667,2.667,0,1,1,.781,1.883A2.669,2.669,0,0,1,59.361,495.979Zm10.1,5.622a5.354,5.354,0,0,0-3.009-2.658,5.329,5.329,0,1,0-8.852,0,5.357,5.357,0,0,0-3.009,2.657,9.326,9.326,0,1,1,14.87,0ZM74.016,468A16.006,16.006,0,1,1,78.7,479.3,15.987,15.987,0,0,1,74.016,468Zm38.659,35.641a2.666,2.666,0,0,1,2.641-2.334h5.329a2.666,2.666,0,0,1,2.642,2.334,9.3,9.3,0,0,1-10.612,0Zm2.641-7.663a2.668,2.668,0,1,1,.782,1.883A2.675,2.675,0,0,1,115.316,495.979Zm11.991,0a9.282,9.282,0,0,1-1.891,5.622,5.357,5.357,0,0,0-3.009-2.658,5.329,5.329,0,1,0-8.852,0,5.359,5.359,0,0,0-3.009,2.657,9.324,9.324,0,1,1,16.761-5.621Z" transform="translate(265 2853)" fill="#fff"/>
    </g>
  </g>
</svg>
