<svg xmlns="http://www.w3.org/2000/svg" width="131" height="131" viewBox="0 0 131 131">
  <g id="Grupo_1027601" data-name="Grupo 1027601" transform="translate(-289 -3310)">
    <g id="Grupo_1022861" data-name="Grupo 1022861" transform="translate(0 -141)">
      <circle id="Elipse_8482" data-name="Elipse 8482" cx="65.5" cy="65.5" r="65.5" transform="translate(289 3451)" fill="#008b8a"/>
      <path id="Trazado_716517" data-name="Trazado 716517" d="M125.355,698.955l-3.5-20.46a5.823,5.823,0,0,0-4.081-4.622l-9.427-2.844a10.512,10.512,0,0,0-7.295-9.13c.3-.331.575-.661.829-.984a18.3,18.3,0,0,0,3.747-8.135h.727a3.434,3.434,0,0,0,3.43-3.43v-1.759a3.453,3.453,0,0,0-1.777-3v-4.229a1.157,1.157,0,0,0-2.314,0v4.747a7.09,7.09,0,0,0-1.538.445,1.041,1.041,0,0,0-.163.073c-.124.056-.249.116-.373.183v-9.323a4.676,4.676,0,0,0-4.671-4.671H95.761a4.8,4.8,0,0,0-3.03,1.081l-.313.256a3.231,3.231,0,0,1-4.091,0l-.313-.256a4.8,4.8,0,0,0-3.03-1.081H81.79a4.677,4.677,0,0,0-4.671,4.671v9.323c-.124-.067-.248-.127-.373-.183a1.064,1.064,0,0,0-.163-.073,7.1,7.1,0,0,0-1.538-.445v-12a6.8,6.8,0,0,1,6.794-6.793H98.9a6.8,6.8,0,0,1,6.794,6.793v1.819a1.157,1.157,0,1,0,2.313,0v-1.819A9.118,9.118,0,0,0,98.9,624H81.84a9.118,9.118,0,0,0-9.107,9.107v11.485a3.452,3.452,0,0,0-1.778,3v1.759a3.434,3.434,0,0,0,3.43,3.43h.727a18.3,18.3,0,0,0,3.747,8.135c.253.323.53.652.828.983a10.551,10.551,0,0,0-7.295,9.131l-9.427,2.844a5.824,5.824,0,0,0-4.082,4.622L57.465,686.8a1.157,1.157,0,0,0,2.281.39l1.419-8.309a3.523,3.523,0,0,1,2.469-2.8l8.719-2.63v2.288a5.789,5.789,0,0,0-4.4,3.643,5.863,5.863,0,0,0-.344,1.571l-.843,10.815a2.939,2.939,0,0,0,2.932,3.169h1.442a1.156,1.156,0,1,0,0-2.313H69.7a.626.626,0,0,1-.625-.676l.843-10.815a3.56,3.56,0,0,1,.208-.952,3.5,3.5,0,0,1,3.275-2.229l.19,0h.027a3.466,3.466,0,0,1,3.23,2.072,3.553,3.553,0,0,1,.271,1.111l.843,10.816a.627.627,0,0,1-.625.675H75.893a1.156,1.156,0,1,0,0,2.313h1.442a2.94,2.94,0,0,0,2.932-3.168l-.843-10.816a5.862,5.862,0,0,0-.447-1.834,5.727,5.727,0,0,0-4.311-3.387V672.76l3.977-1.2c.362.762,1.079,2.409,2.5,5.959,1.431,3.581,3.211,8.173,4.917,12.636.012.037.026.074.042.11,1.139,2.979,2.243,5.9,3.188,8.415a1.157,1.157,0,0,0,2.166,0c.945-2.517,2.049-5.436,3.188-8.415.016-.036.03-.073.042-.11,1.705-4.461,3.483-9.049,4.914-12.63,1.423-3.554,2.139-5.2,2.5-5.965l3.977,1.2v6.833a5.985,5.985,0,1,0,2.314.005v-6.14l8.718,2.631a3.521,3.521,0,0,1,2.47,2.795l3.495,20.46a1.148,1.148,0,0,1-1.133,1.342H58.8a1.147,1.147,0,0,1-1.132-1.342l1.153-6.752a1.157,1.157,0,1,0-2.281-.389l-1.153,6.752A3.461,3.461,0,0,0,58.8,703h63.14a3.462,3.462,0,0,0,3.413-4.045Zm-19.643-51.488a4.972,4.972,0,0,1,1.117-.151,1.185,1.185,0,0,0,.566-.134,1.105,1.105,0,0,1,.082.409v1.759a1.118,1.118,0,0,1-1.117,1.116h-.648Zm-30.68,3h-.647a1.118,1.118,0,0,1-1.117-1.116v-1.759a1.1,1.1,0,0,1,.082-.409,1.18,1.18,0,0,0,.565.134,5.224,5.224,0,0,1,1.117.151Zm2.314,1.3v-3.039a1.623,1.623,0,0,0,2.087-1.556v-10.68a2.36,2.36,0,0,1,2.357-2.357h3.193a2.476,2.476,0,0,1,1.565.559l.313.256a5.546,5.546,0,0,0,7.02,0l.313-.256a2.475,2.475,0,0,1,1.566-.559h3.193a2.36,2.36,0,0,1,2.357,2.357v10.68a1.623,1.623,0,0,0,2.088,1.557v3.038c0,1.689-1.168,4.97-3.332,7.722a15.25,15.25,0,0,1-2.773,2.747,1.086,1.086,0,0,0-.1.078,11.277,11.277,0,0,1-13.638,0,1.108,1.108,0,0,0-.1-.078,15.25,15.25,0,0,1-2.773-2.747C78.513,656.733,77.345,653.452,77.345,651.763Zm20.606,18.691-7.579,5.665-7.579-5.665a5.485,5.485,0,0,0,1.173-3.276v-1.864a13.588,13.588,0,0,0,12.813,0v1.864A5.485,5.485,0,0,0,97.951,670.454Zm-17.089-1.291a3.163,3.163,0,0,0-1.951-.1c-.028.006-.056.014-.083.022l-4,1.206a8.218,8.218,0,0,1,6.82-6.482v3.367A3.06,3.06,0,0,1,80.862,669.163ZM84,678.45,84,678.434l-.174-.44-.031-.078-.167-.42-.012-.029q-.257-.646-.5-1.24l-.035-.087-.135-.336-.049-.12-.128-.318-.037-.093-.225-.553-.06-.146-.085-.207-.09-.22-.034-.082L82.214,674q-.2-.488-.381-.918l0-.007-.187-.446-.092-.218,6.518,4.872-2.724,1.157-.014.006-1.137.484C84.128,678.768,84.065,678.609,84,678.45Zm2.76,7.083q-.343-.89-.689-1.785-.541-1.4-1.035-2.662l.432-.183,1.764,2.05Zm3.632,9.4a1.172,1.172,0,0,0-.118-.195c-.523-1.381-1.186-3.13-1.921-5.053l1.08-5.914h1.873l1.08,5.914C91.619,691.7,90.928,693.525,90.395,694.936Zm1.348-13.475H89l-1.3-1.508,2.667-1.133,2.667,1.133Zm2.929,2.287q-.346.894-.689,1.785l-.471-2.58,1.764-2.05.432.183Q95.212,682.352,94.671,683.748ZM99.1,672.631c-.057.135-.117.277-.177.422l-.024.057-.184.442-.013.031-.168.406-.031.076-.039.095-.077.188-.1.234-.032.077-.248.61-.04.1-.127.315-.05.124-.134.333-.038.1q-.235.585-.489,1.223c-.006.014-.011.027-.017.042l-.166.417-.031.079-.175.441,0,.008-.193.488-1.138-.484-.012-.005-2.725-1.158,6.518-4.871Zm2.814-3.544h0a3.163,3.163,0,0,0-2.03.077,3.059,3.059,0,0,1-.79-1.985v-3.369a8.154,8.154,0,0,1,6.825,6.485Zm8.978,16.381a3.672,3.672,0,1,1-3.673-3.672A3.677,3.677,0,0,1,110.894,685.468Z" transform="translate(265 2853)" fill="#fff"/>
    </g>
  </g>
</svg>
